<?xml version="1.0" encoding="UTF-8"?>
<svg xmlns="http://www.w3.org/2000/svg" xmlns:xlink="http://www.w3.org/1999/xlink" width="11pt" height="12pt" viewBox="0 0 11 12" version="1.1">
<g id="surface1">
<path style=" stroke:none;fill-rule:nonzero;fill:rgb(30.196078%,30.196078%,30.196078%);fill-opacity:1;" d="M 9.5 0 C 8.671875 0 8 0.671875 8 1.5 C 8 2.328125 8.671875 3 9.5 3 C 10.328125 3 11 2.328125 11 1.5 C 11 0.671875 10.328125 0 9.5 0 Z M 6.5 3 C 6.222656 3 6 3.222656 6 3.5 C 6 3.777344 6.222656 4 6.5 4 C 6.777344 4 7 3.777344 7 3.5 C 7 3.222656 6.777344 3 6.5 3 Z M 4.5 4 C 4.222656 4 4 4.222656 4 4.5 C 4 4.777344 4.222656 5 4.5 5 C 4.777344 5 5 4.777344 5 4.5 C 5 4.222656 4.777344 4 4.5 4 Z M 1.5 5 C 0.671875 5 0 5.671875 0 6.5 C 0 7.328125 0.671875 8 1.5 8 C 2.328125 8 3 7.328125 3 6.5 C 3 5.671875 2.328125 5 1.5 5 Z M 4.5 8 C 4.222656 8 4 8.222656 4 8.5 C 4 8.777344 4.222656 9 4.5 9 C 4.777344 9 5 8.777344 5 8.5 C 5 8.222656 4.777344 8 4.5 8 Z M 6.5 9 C 6.222656 9 6 9.222656 6 9.5 C 6 9.777344 6.222656 10 6.5 10 C 6.777344 10 7 9.777344 7 9.5 C 7 9.222656 6.777344 9 6.5 9 Z M 9.5 9 C 8.671875 9 8 9.671875 8 10.5 C 8 11.328125 8.671875 12 9.5 12 C 10.328125 12 11 11.328125 11 10.5 C 11 9.671875 10.328125 9 9.5 9 Z M 9.5 9 "/>
</g>
</svg>
