<?xml version="1.0" encoding="UTF-8"?>
<svg xmlns="http://www.w3.org/2000/svg" xmlns:xlink="http://www.w3.org/1999/xlink" width="12pt" height="12pt" viewBox="0 0 12 12" version="1.1">
<g id="surface1">
<path style=" stroke:none;fill-rule:nonzero;fill:rgb(30.196078%,30.196078%,30.196078%);fill-opacity:1;" d="M 0 0 L 0 1 L 4 1 L 4 0 Z M 6 0 L 4 4 L 0 5 L 3 8 L 2 12 L 6 10 L 10 12 L 9 8 L 12 5 L 8 4 Z M 0 2 L 0 3 L 3 3 L 3 2 Z M 0 7 L 0 8 L 1 8 L 1 7 Z M 0 9 L 0 10 L 2 10 L 2 9 Z M 0 11 L 0 12 L 1 12 L 1 11 Z M 0 11 "/>
</g>
</svg>
