<?xml version="1.0" encoding="UTF-8"?>
<svg xmlns="http://www.w3.org/2000/svg" xmlns:xlink="http://www.w3.org/1999/xlink" width="12pt" height="12pt" viewBox="0 0 12 12" version="1.1">
<g id="surface1">
<path style=" stroke:none;fill-rule:nonzero;fill:rgb(30.196078%,30.196078%,30.196078%);fill-opacity:1;" d="M 6 0 L 4 4 L 0 5 L 3 8 L 2 12 L 6 10 L 10 12 L 9 8 L 12 5 L 8 4 Z M 8 0 L 8 1 L 12 1 L 12 0 Z M 9 2 L 9 3 L 12 3 L 12 2 Z M 11 7 L 11 8 L 12 8 L 12 7 Z M 10 9 L 10 10 L 12 10 L 12 9 Z M 11 11 L 11 12 L 12 12 L 12 11 Z M 11 11 "/>
</g>
</svg>
