<?xml version="1.0" encoding="UTF-8"?>
<svg xmlns="http://www.w3.org/2000/svg" xmlns:xlink="http://www.w3.org/1999/xlink" width="12pt" height="12pt" viewBox="0 0 12 12" version="1.1">
<g id="surface1">
<path style=" stroke:none;fill-rule:nonzero;fill:rgb(30.196078%,30.196078%,30.196078%);fill-opacity:1;" d="M 0 0 L 0 1 L 4 1 L 4 0 Z M 6 0 L 4 4 L 0 5 L 2 7 L 2 6 L 11 6 L 12 5 L 8 4 Z M 8 0 L 8 1 L 12 1 L 12 0 Z M 0 2 L 0 3 L 3 3 L 3 2 Z M 9 2 L 9 3 L 12 3 L 12 2 Z M 0 7 L 0 8 L 1 8 L 1 7 Z M 3 7 L 3 12 L 7 12 L 7 10.5 L 6 10.5 L 6 11 L 4 11 L 4 8 L 6 8 L 6 8.5 L 7 8.5 L 7 7 Z M 8 7 L 8 8.5 L 9 8.5 L 9 8 L 11 8 L 11 11 L 9 11 L 9 10.5 L 8 10.5 L 8 12 L 12 12 L 12 7 Z M 0 9 L 0 10 L 2 10 L 2 9 Z M 5 9 L 5 10 L 10 10 L 10 9 Z M 0 11 L 0 12 L 1 12 L 1 11 Z M 0 11 "/>
</g>
</svg>
