<?xml version="1.0" encoding="UTF-8"?>
<svg xmlns="http://www.w3.org/2000/svg" xmlns:xlink="http://www.w3.org/1999/xlink" width="63pt" height="49pt" viewBox="0 0 63 49" version="1.1">
<defs>
<linearGradient id="linear0" gradientUnits="userSpaceOnUse" x1="798" y1="958.21936" x2="798" y2="912.21936" gradientTransform="matrix(1.05,0,0,1.065217,-808.5,-971.71193)">
<stop offset="0" style="stop-color:rgb(74.117647%,76.470588%,78.039216%);stop-opacity:1;"/>
<stop offset="1" style="stop-color:rgb(85.490196%,87.45098%,88.235294%);stop-opacity:1;"/>
</linearGradient>
<linearGradient id="linear1" gradientUnits="userSpaceOnUse" x1="33.527275" y1="49.829273" x2="33.527275" y2="18.000004" gradientTransform="matrix(1.057692,0,0,1.413793,-4.46154,-21.44828)">
<stop offset="0" style="stop-color:rgb(36.862745%,41.960784%,47.058824%);stop-opacity:1;"/>
<stop offset="1" style="stop-color:rgb(46.27451%,51.764706%,57.254902%);stop-opacity:1;"/>
</linearGradient>
<filter id="alpha" filterUnits="objectBoundingBox" x="0%" y="0%" width="100%" height="100%">
  <feColorMatrix type="matrix" in="SourceGraphic" values="0 0 0 0 1 0 0 0 0 1 0 0 0 0 1 0 0 0 1 0"/>
</filter>
<mask id="mask0">
  <g filter="url(#alpha)">
<rect x="0" y="0" width="63" height="49" style="fill:rgb(0%,0%,0%);fill-opacity:0.2;stroke:none;"/>
  </g>
</mask>
<linearGradient id="linear2" gradientUnits="userSpaceOnUse" x1="774" y1="916.21936" x2="817" y2="957.21936" gradientTransform="matrix(1,0,0,1,-763,-908.21936)">
<stop offset="0" style="stop-color:rgb(21.960784%,24.313725%,31.764706%);stop-opacity:1;"/>
<stop offset="1" style="stop-color:rgb(39.607843%,36.078431%,43.529412%);stop-opacity:0;"/>
</linearGradient>
<clipPath id="clip1">
  <rect width="71" height="57"/>
</clipPath>
<g id="surface6" clip-path="url(#clip1)">
<path style=" stroke:none;fill-rule:nonzero;fill:url(#linear2);" d="M 63 8 L 63 49 L 8 49 L 12 53 L 67 53 L 67 12 Z M 63 8 "/>
</g>
</defs>
<g id="surface1">
<rect x="0" y="0" width="63" height="49" style="fill:url(#linear0);stroke:none;"/>
<path style=" stroke:none;fill-rule:nonzero;fill:rgb(100%,100%,100%);fill-opacity:0.4;" d="M 0 0 L 0 1 L 63 1 L 63 0 Z M 0 0 "/>
<path style=" stroke:none;fill-rule:nonzero;fill:url(#linear1);" d="M 4 4 L 4 45 L 59 45 L 59 4 Z M 4 4 "/>
<use xlink:href="#surface6" transform="matrix(1,0,0,1,-4,-4)" mask="url(#mask0)"/>
</g>
</svg>
