<?xml version="1.0" encoding="UTF-8"?>
<svg xmlns="http://www.w3.org/2000/svg" xmlns:xlink="http://www.w3.org/1999/xlink" width="62.00004pt" height="48pt" viewBox="0 0 62.00004 48" version="1.1">
<defs>
<linearGradient id="linear0" gradientUnits="userSpaceOnUse" x1="798" y1="958.21936" x2="798" y2="912.21936" gradientTransform="matrix(1.033333,0,0,1.043478,-795.666681,-951.881088)">
<stop offset="0" style="stop-color:rgb(74.117647%,76.470588%,78.039216%);stop-opacity:1;"/>
<stop offset="1" style="stop-color:rgb(85.490196%,87.45098%,88.235294%);stop-opacity:1;"/>
</linearGradient>
<filter id="alpha" filterUnits="objectBoundingBox" x="0%" y="0%" width="100%" height="100%">
  <feColorMatrix type="matrix" in="SourceGraphic" values="0 0 0 0 1 0 0 0 0 1 0 0 0 0 1 0 0 0 1 0"/>
</filter>
<mask id="mask0">
  <g filter="url(#alpha)">
<rect x="0" y="0" width="62.00004" height="48" style="fill:rgb(0%,0%,0%);fill-opacity:0.2;stroke:none;"/>
  </g>
</mask>
<linearGradient id="linear1" gradientUnits="userSpaceOnUse" x1="777" y1="914.21936" x2="817" y2="954.21936" gradientTransform="matrix(1,0,0,1,-766.000013,-905.219376)">
<stop offset="0" style="stop-color:rgb(21.960784%,24.313725%,31.764706%);stop-opacity:1;"/>
<stop offset="1" style="stop-color:rgb(39.607843%,36.078431%,43.529412%);stop-opacity:0;"/>
</linearGradient>
<clipPath id="clip1">
  <rect width="71" height="57"/>
</clipPath>
<g id="surface6" clip-path="url(#clip1)">
<path style=" stroke:none;fill-rule:evenodd;fill:url(#linear1);" d="M 66 12 L 66 53 L 46 53 L 37 45 L 39 42 L 37 40 L 43 37 L 37 31 L 39 28 L 37 26 L 43 23 L 37 17 L 56 17 L 56 14 L 39 14 L 37 12 L 62 12 L 62 9 Z M 66 12 "/>
</g>
<mask id="mask1">
  <g filter="url(#alpha)">
<rect x="0" y="0" width="62.00004" height="48" style="fill:rgb(0%,0%,0%);fill-opacity:0.2;stroke:none;"/>
  </g>
</mask>
<linearGradient id="linear2" gradientUnits="userSpaceOnUse" x1="777" y1="914.21936" x2="817" y2="954.21936" gradientTransform="matrix(1,0,0,1,-766.000013,-905.219376)">
<stop offset="0" style="stop-color:rgb(21.960784%,24.313725%,31.764706%);stop-opacity:1;"/>
<stop offset="1" style="stop-color:rgb(39.607843%,36.078431%,43.529412%);stop-opacity:0;"/>
</linearGradient>
<clipPath id="clip2">
  <rect width="71" height="57"/>
</clipPath>
<g id="surface9" clip-path="url(#clip2)">
<path style=" stroke:none;fill-rule:evenodd;fill:url(#linear2);" d="M 34 9 L 66 40 L 66 53 L 12 53 L 8 49 L 10 37 L 8 35 L 10 23 L 8 21 Z M 34 9 "/>
</g>
<linearGradient id="linear3" gradientUnits="userSpaceOnUse" x1="34" y1="47.000004" x2="34" y2="18.000004" gradientTransform="matrix(1.038462,0,0,1.37931,-4.30769,-20.82759)">
<stop offset="0" style="stop-color:rgb(36.862745%,41.960784%,47.058824%);stop-opacity:1;"/>
<stop offset="1" style="stop-color:rgb(46.27451%,51.764706%,57.254902%);stop-opacity:1;"/>
</linearGradient>
<linearGradient id="linear4" gradientUnits="userSpaceOnUse" x1="814" y1="967.55267" x2="814" y2="914.21936" gradientTransform="matrix(1,0,0,0.75,-769.000013,-681.664452)">
<stop offset="0" style="stop-color:rgb(13.333333%,65.490196%,94.117647%);stop-opacity:1;"/>
<stop offset="1" style="stop-color:rgb(9.803922%,70.980392%,99.607843%);stop-opacity:1;"/>
</linearGradient>
</defs>
<g id="surface1">
<path style=" stroke:none;fill-rule:nonzero;fill:url(#linear0);" d="M 0 0 L 62 0 L 62 48 C 62 48 62 18.78125 62 33.390625 L 62 48 L 0 48 Z M 0 0 "/>
<path style=" stroke:none;fill-rule:nonzero;fill:rgb(18.039216%,19.215686%,19.607843%);fill-opacity:0.294118;" d="M 0 47 L 62 47 L 62 48 L 0 48 Z M 0 47 "/>
<path style=" stroke:none;fill-rule:nonzero;fill:rgb(100%,100%,100%);fill-opacity:0.411765;" d="M 0 0 L 62 0 L 62 1 L 0 1 Z M 0 0 "/>
<use xlink:href="#surface6" transform="matrix(1,0,0,1,-4,-5)" mask="url(#mask0)"/>
<use xlink:href="#surface9" transform="matrix(1,0,0,1,-4,-5)" mask="url(#mask1)"/>
<path style=" stroke:none;fill-rule:nonzero;fill:url(#linear3);" d="M 4 4 L 4 16 L 30 16 L 30 4 Z M 4 18 L 4 30 L 30 30 L 30 18 Z M 4 32 L 4 44 L 30 44 L 30 32 Z M 4 32 "/>
<path style=" stroke:none;fill-rule:nonzero;fill:url(#linear4);" d="M 33 4 L 33 7 L 58 7 L 58 4 Z M 33 9 L 33 12 L 52 12 L 52 9 Z M 33 18 L 33 21 L 58 21 L 58 18 Z M 33 23 L 33 26 L 52 26 L 52 23 Z M 33 32 L 33 35 L 58 35 L 58 32 Z M 33 37 L 33 40 L 52 40 L 52 37 Z M 33 37 "/>
</g>
</svg>
