<?xml version="1.0" encoding="UTF-8"?>
<svg xmlns="http://www.w3.org/2000/svg" xmlns:xlink="http://www.w3.org/1999/xlink" width="15pt" height="16pt" viewBox="0 0 15 16" version="1.1">
<g id="surface1">
<path style=" stroke:none;fill-rule:nonzero;fill:rgb(11.372549%,60%,95.294118%);fill-opacity:1;" d="M 10 0 C 7.238281 0 5 2.238281 5 5 C 5 7.761719 7.238281 10 10 10 C 12.761719 10 15 7.761719 15 5 C 15 2.238281 12.761719 0 10 0 Z M 10 0 "/>
<path style=" stroke:none;fill-rule:nonzero;fill:rgb(70.196078%,70.196078%,70.196078%);fill-opacity:1;" d="M 10 6 L 5 16 L 15 16 Z M 10 6 "/>
<path style=" stroke:none;fill-rule:nonzero;fill:rgb(30.196078%,30.196078%,30.196078%);fill-opacity:1;" d="M 0 4 L 0 13 L 8 13 L 8 9.5625 C 6.242188 8.789062 5 7 5 5 C 5 4.65625 5 4.324219 5 4 Z M 0 4 "/>
</g>
</svg>
