<?xml version="1.0" encoding="UTF-8"?>
<svg xmlns="http://www.w3.org/2000/svg" xmlns:xlink="http://www.w3.org/1999/xlink" width="64.000043pt" height="49.066667pt" viewBox="0 0 64.000043 49.066667" version="1.1">
<defs>
<linearGradient id="linear0" gradientUnits="userSpaceOnUse" x1="798" y1="958.21936" x2="798" y2="912.21936" gradientTransform="matrix(1,0,0,1,-770.266681,-912.486044)">
<stop offset="0" style="stop-color:rgb(74.117647%,76.470588%,78.039216%);stop-opacity:1;"/>
<stop offset="1" style="stop-color:rgb(85.490196%,87.45098%,88.235294%);stop-opacity:1;"/>
</linearGradient>
<linearGradient id="linear1" gradientUnits="userSpaceOnUse" x1="796" y1="923.21936" x2="796" y2="917.21936" gradientTransform="matrix(1.04,0,0,1.333333,-802.266681,-1219.225989)">
<stop offset="0" style="stop-color:rgb(13.333333%,65.490196%,94.117647%);stop-opacity:1;"/>
<stop offset="1" style="stop-color:rgb(9.803922%,70.980392%,99.607843%);stop-opacity:1;"/>
</linearGradient>
<filter id="alpha" filterUnits="objectBoundingBox" x="0%" y="0%" width="100%" height="100%">
  <feColorMatrix type="matrix" in="SourceGraphic" values="0 0 0 0 1 0 0 0 0 1 0 0 0 0 1 0 0 0 1 0"/>
</filter>
<mask id="mask0">
  <g filter="url(#alpha)">
<rect x="0" y="0" width="64.000043" height="49.066667" style="fill:rgb(0%,0%,0%);fill-opacity:0.2;stroke:none;"/>
  </g>
</mask>
<linearGradient id="linear2" gradientUnits="userSpaceOnUse" x1="774" y1="916.21936" x2="818" y2="958.21936" gradientTransform="matrix(1,0,0,1,-765.266681,-907.486044)">
<stop offset="0" style="stop-color:rgb(21.960784%,24.313725%,31.764706%);stop-opacity:1;"/>
<stop offset="1" style="stop-color:rgb(39.607843%,36.078431%,43.529412%);stop-opacity:0;"/>
</linearGradient>
<clipPath id="clip1">
  <rect width="69" height="55"/>
</clipPath>
<g id="surface6" clip-path="url(#clip1)">
<path style=" stroke:none;fill-rule:evenodd;fill:url(#linear2);" d="M 60.734375 8.734375 L 60.734375 16.734375 L 8.734375 16.734375 L 10.734375 18.734375 L 10.734375 31.734375 L 8.734375 31.734375 L 10.734375 33.734375 L 8.734375 46.734375 L 12.734375 50.734375 L 64.734375 50.734375 L 64.734375 12.734375 Z M 60.734375 8.734375 "/>
</g>
<linearGradient id="linear3" gradientUnits="userSpaceOnUse" x1="33" y1="47" x2="33" y2="8" gradientTransform="matrix(-1,0,0,0.965517,63.733335,-3.645977)">
<stop offset="0" style="stop-color:rgb(36.862745%,41.960784%,47.058824%);stop-opacity:1;"/>
<stop offset="1" style="stop-color:rgb(46.27451%,51.764706%,57.254902%);stop-opacity:1;"/>
</linearGradient>
</defs>
<g id="surface1">
<path style=" stroke:none;fill-rule:nonzero;fill:url(#linear0);" d="M -0.265625 -0.265625 L 59.734375 -0.265625 L 59.734375 45.734375 C 59.734375 45.734375 59.734375 17.734375 59.734375 31.734375 L 59.734375 45.734375 L -0.265625 45.734375 Z M -0.265625 -0.265625 "/>
<path style=" stroke:none;fill-rule:nonzero;fill:rgb(18.039216%,19.215686%,19.607843%);fill-opacity:0.294118;" d="M -0.265625 44.734375 L 59.734375 44.734375 L 59.734375 45.734375 L -0.265625 45.734375 Z M -0.265625 44.734375 "/>
<path style=" stroke:none;fill-rule:nonzero;fill:rgb(100%,100%,100%);fill-opacity:0.411765;" d="M -0.265625 -0.265625 L 59.734375 -0.265625 L 59.734375 0.734375 L -0.265625 0.734375 Z M -0.265625 -0.265625 "/>
<path style=" stroke:none;fill-rule:nonzero;fill:url(#linear1);" d="M 3.734375 3.734375 L 55.734375 3.734375 L 55.734375 11.734375 L 3.734375 11.734375 Z M 3.734375 3.734375 "/>
<use xlink:href="#surface6" transform="matrix(1,0,0,1,-5,-5)" mask="url(#mask0)"/>
<path style=" stroke:none;fill-rule:nonzero;fill:url(#linear3);" d="M 55.734375 13.734375 L 55.734375 41.734375 L 30.734375 41.734375 L 30.734375 13.734375 Z M 28.734375 13.734375 L 28.734375 26.734375 L 3.734375 26.734375 L 3.734375 13.734375 Z M 28.734375 28.734375 L 28.734375 41.734375 L 3.734375 41.734375 L 3.734375 28.734375 Z M 28.734375 28.734375 "/>
</g>
</svg>
