<?xml version="1.0" encoding="UTF-8"?>
<svg xmlns="http://www.w3.org/2000/svg" xmlns:xlink="http://www.w3.org/1999/xlink" width="9pt" height="9pt" viewBox="0 0 9 9" version="1.1">
<g id="surface1">
<path style=" stroke:none;fill-rule:nonzero;fill:rgb(11.372549%,60%,95.294118%);fill-opacity:1;" d="M 0 0 L 0 9 L 5 4.5 Z M 0 0 "/>
<path style=" stroke:none;fill-rule:nonzero;fill:rgb(30.196078%,30.196078%,30.196078%);fill-opacity:1;" d="M 4 0 L 4 3 L 6 3 L 6 8.5 C 6 8.777344 6.222656 9 6.5 9 C 6.777344 9 7 8.777344 7 8.5 L 7 8 L 8 8 L 8 7 L 7 7 L 7 6 L 8 6 L 8 5 L 7 5 L 7 3 L 9 3 L 9 0 Z M 5 1 L 8 1 L 8 2 L 5 2 Z M 5 1 "/>
</g>
</svg>
