<?xml version="1.0" encoding="UTF-8"?>
<svg xmlns="http://www.w3.org/2000/svg" xmlns:xlink="http://www.w3.org/1999/xlink" width="24pt" height="24pt" viewBox="0 0 24 24" version="1.1">
<g id="surface1">
<path style=" stroke:none;fill-rule:nonzero;fill:rgb(30.196078%,30.196078%,30.196078%);fill-opacity:1;" d="M 12 0 C 5.371094 0 0 5.371094 0 12 C 0 18.628906 5.371094 24 12 24 C 18.628906 24 24 18.628906 24 12 C 24 5.371094 18.628906 0 12 0 Z M 12 1 C 18.074219 1 23 5.925781 23 12 C 23 18.074219 18.074219 23 12 23 C 5.925781 23 1 18.074219 1 12 C 1 5.925781 5.925781 1 12 1 Z M 12 1 "/>
<path style=" stroke:none;fill-rule:nonzero;fill:rgb(18.039216%,80%,44.313725%);fill-opacity:1;" d="M 19.292969 6 L 8.855469 16.566406 L 4.707031 12.371094 L 4 13.082031 L 8.144531 17.28125 L 8.851562 18 L 8.855469 17.996094 L 8.855469 18 L 9.5625 17.28125 L 20 6.71875 Z M 19.292969 6 "/>
</g>
</svg>
