<?xml version="1.0" encoding="UTF-8"?>
<svg xmlns="http://www.w3.org/2000/svg" xmlns:xlink="http://www.w3.org/1999/xlink" width="27pt" height="24.5pt" viewBox="0 0 27 24.5" version="1.1">
<g id="surface1">
<path style=" stroke:none;fill-rule:nonzero;fill:rgb(30.196078%,30.196078%,30.196078%);fill-opacity:1;" d="M 15 0 L 14.292969 0.707031 L 18.085938 4.5 L 11 4.5 L 11 5.5 L 18.085938 5.5 L 14.292969 9.292969 L 15 10 L 20 5 Z M 8.5 4.5 C 8.222656 4.5 8 4.722656 8 5 C 8 5.277344 8.222656 5.5 8.5 5.5 C 8.777344 5.5 9 5.277344 9 5 C 9 4.722656 8.777344 4.5 8.5 4.5 Z M 3 7 C 2.722656 7 2.5 7.222656 2.5 7.5 C 2.5 7.777344 2.722656 8 3 8 C 3.277344 8 3.5 7.777344 3.5 7.5 C 3.5 7.222656 3.277344 7 3 7 Z M 19.953125 9 L 11.5 17.453125 L 18.546875 24.5 L 27 16.046875 Z M 19.953125 10.40625 L 25.59375 16.046875 L 18.546875 23.09375 L 12.90625 17.453125 Z M 0.5 12.5 C 0.222656 12.5 0 12.722656 0 13 C 0 13.277344 0.222656 13.5 0.5 13.5 C 0.777344 13.5 1 13.277344 1 13 C 1 12.722656 0.777344 12.5 0.5 12.5 Z M 3 18.5 C 2.722656 18.5 2.5 18.722656 2.5 19 C 2.5 19.277344 2.722656 19.5 3 19.5 C 3.277344 19.5 3.5 19.277344 3.5 19 C 3.5 18.722656 3.277344 18.5 3 18.5 Z M 8.5 20.5 C 8.222656 20.5 8 20.722656 8 21 C 8 21.277344 8.222656 21.5 8.5 21.5 C 8.777344 21.5 9 21.277344 9 21 C 9 20.722656 8.777344 20.5 8.5 20.5 Z M 8.5 20.5 "/>
</g>
</svg>
