<?xml version="1.0" encoding="UTF-8"?>
<svg xmlns="http://www.w3.org/2000/svg" xmlns:xlink="http://www.w3.org/1999/xlink" width="18pt" height="24pt" viewBox="0 0 18 24" version="1.1">
<g id="surface1">
<path style=" stroke:none;fill-rule:nonzero;fill:rgb(30.196078%,30.196078%,30.196078%);fill-opacity:1;" d="M 8 0 L 8 2 L 4 2 L 4 10 L 8 10 L 8 14 L 0 14 L 0 22 L 8 22 L 8 24 L 10 24 L 10 22 L 18 22 L 18 14 L 10 14 L 10 10 L 14 10 L 14 2 L 10 2 L 10 0 Z M 5 3 L 13 3 L 13 9 L 5 9 Z M 1 15 L 17 15 L 17 21 L 1 21 Z M 1 15 "/>
</g>
</svg>
