<?xml version="1.0" encoding="UTF-8"?>
<svg xmlns="http://www.w3.org/2000/svg" xmlns:xlink="http://www.w3.org/1999/xlink" width="24pt" height="25pt" viewBox="0 0 24 25" version="1.1">
<g id="surface1">
<path style=" stroke:none;fill-rule:nonzero;fill:rgb(30.196078%,30.196078%,30.196078%);fill-opacity:1;" d="M 0 0 L 0 1 L 24 1 L 24 0 Z M 0 3 L 0 4 L 14 4 L 14 3 Z M 0 10 L 0 11 L 20 11 L 20 10 Z M 0 13 L 0 14 L 8 14 L 8 13 Z M 0 20 L 0 21 L 20 21 L 20 20 Z M 0 23 L 0 24 L 16 24 L 16 23 Z M 20 24 L 20 25 L 24 25 L 24 24 Z M 20 24 "/>
</g>
</svg>
