<?xml version="1.0" encoding="UTF-8"?>
<svg xmlns="http://www.w3.org/2000/svg" xmlns:xlink="http://www.w3.org/1999/xlink" width="24pt" height="25pt" viewBox="0 0 24 25" version="1.1">
<g id="surface1">
<path style=" stroke:none;fill-rule:nonzero;fill:rgb(30.196078%,30.196078%,30.196078%);fill-opacity:1;" d="M 0 0 L 0 1 L 24 1 L 24 0 Z M 10 3 L 10 4 L 24 4 L 24 3 Z M 4 10 L 4 11 L 24 11 L 24 10 Z M 16 13 L 16 14 L 24 14 L 24 13 Z M 4 20 L 4 21 L 24 21 L 24 20 Z M 8 23 L 8 24 L 24 24 L 24 23 Z M 0 24 L 0 25 L 4 25 L 4 24 Z M 0 24 "/>
</g>
</svg>
