<?xml version="1.0" encoding="UTF-8"?>
<svg xmlns="http://www.w3.org/2000/svg" xmlns:xlink="http://www.w3.org/1999/xlink" width="24pt" height="18pt" viewBox="0 0 24 18" version="1.1">
<g id="surface1">
<path style=" stroke:none;fill-rule:nonzero;fill:rgb(30.196078%,30.196078%,30.196078%);fill-opacity:1;" d="M 2 0 L 2 8 L 0 8 L 0 10 L 2 10 L 2 18 L 10 18 L 10 10 L 14 10 L 14 14 L 22 14 L 22 10 L 24 10 L 24 8 L 22 8 L 22 4 L 14 4 L 14 8 L 10 8 L 10 0 Z M 3 1 L 9 1 L 9 17 L 3 17 Z M 15 5 L 21 5 L 21 13 L 15 13 Z M 15 5 "/>
</g>
</svg>
