<?xml version="1.0" encoding="UTF-8"?>
<svg xmlns="http://www.w3.org/2000/svg" xmlns:xlink="http://www.w3.org/1999/xlink" width="24.039062pt" height="24.125pt" viewBox="0 0 24.039062 24.125" version="1.1">
<g id="surface1">
<path style=" stroke:none;fill-rule:nonzero;fill:rgb(30.196078%,30.196078%,30.196078%);fill-opacity:1;" d="M 12 0 L 7.5 9 L 0 9 L 6 15 L 4.5 24 L 11 20.097656 L 11 18.933594 L 5.84375 22.027344 L 7.070312 14.65625 L 2.414062 10 L 8.117188 10 L 12 2.234375 L 15.878906 10 L 21.585938 10 L 20.585938 11 L 22 11 L 24 9 L 16.5 9 Z M 15 0 L 15 1 L 24 1 L 24 0 Z M 16 3 L 16 4 L 24 4 L 24 3 Z M 19 6 L 19 7 L 24 7 L 24 6 Z M 20.4375 12.125 L 15.328125 17.234375 L 12.039062 20.519531 L 12.039062 24.125 L 15.640625 24.125 L 24.039062 15.726562 Z M 18.390625 15.613281 L 20.550781 17.777344 L 17.375 20.953125 L 17.375 20.277344 L 16.363281 20.296875 L 15.328125 20.296875 L 15.328125 18.675781 L 16.765625 17.234375 Z M 14.3125 19.6875 L 14.3125 21.3125 L 16.339844 21.3125 L 16.359375 21.964844 L 15.28125 23.046875 L 13.839844 23.046875 L 13.121094 22.324219 L 13.121094 20.882812 Z M 14.3125 19.6875 "/>
</g>
</svg>
