<?xml version="1.0" encoding="UTF-8"?>
<svg xmlns="http://www.w3.org/2000/svg" xmlns:xlink="http://www.w3.org/1999/xlink" width="24pt" height="24pt" viewBox="0 0 24 24" version="1.1">
<g id="surface1">
<path style=" stroke:none;fill-rule:nonzero;fill:rgb(30.196078%,30.196078%,30.196078%);fill-opacity:1;" d="M 12 0 L 7.5 9 L 0 9 L 6 15 L 4.5 24 L 12 19 L 19.5 24 L 18 15 L 24 9 L 16.5 9 Z M 15 0 L 15 1 L 24 1 L 24 0 Z M 12 2.234375 L 15.878906 10 L 21.585938 10 L 16.929688 14.65625 L 18.15625 22.027344 L 12 18 L 5.84375 22.027344 L 7.070312 14.65625 L 2.414062 10 L 8.121094 10 Z M 16 3 L 16 4 L 24 4 L 24 3 Z M 19 6 L 19 7 L 24 7 L 24 6 Z M 20 14 L 20 15 L 24 15 L 24 14 Z M 20 17 L 20 18 L 24 18 L 24 17 Z M 21 20 L 21 21 L 24 21 L 24 20 Z M 21 23 L 21 24 L 24 24 L 24 23 Z M 21 23 "/>
</g>
</svg>
