<?xml version="1.0" encoding="UTF-8"?>
<svg xmlns="http://www.w3.org/2000/svg" xmlns:xlink="http://www.w3.org/1999/xlink" width="24.042968pt" height="24.042968pt" viewBox="0 0 24.042968 24.042968" version="1.1">
<g id="surface1">
<path style=" stroke:none;fill-rule:nonzero;fill:rgb(30.196078%,30.196078%,30.196078%);fill-opacity:1;" d="M 19.800781 0 L 0 19.800781 L 4.242188 24.042969 L 24.042969 4.242188 Z M 2.273438 0.0234375 L 1.476562 1.476562 L 0.0234375 2.273438 L 1.476562 3.070312 L 2.273438 4.523438 L 3.070312 3.070312 L 4.523438 2.273438 L 3.070312 1.476562 Z M 9.773438 0.0234375 L 8.976562 1.476562 L 7.523438 2.273438 L 8.976562 3.070312 L 9.773438 4.523438 L 10.570312 3.070312 L 12.023438 2.273438 L 10.570312 1.476562 Z M 19.800781 1.414062 L 22.628906 4.242188 L 16.972656 9.898438 L 14.144531 7.070312 Z M 5.273438 6.023438 L 4.476562 7.476562 L 3.023438 8.273438 L 4.476562 9.070312 L 5.273438 10.523438 L 6.070312 9.070312 L 7.523438 8.273438 L 6.070312 7.476562 Z M 5.273438 6.023438 "/>
</g>
</svg>
