<?xml version="1.0" encoding="UTF-8"?>
<svg xmlns="http://www.w3.org/2000/svg" xmlns:xlink="http://www.w3.org/1999/xlink" width="24pt" height="24.091797pt" viewBox="0 0 24 24.091797" version="1.1">
<g id="surface1">
<path style=" stroke:none;fill-rule:nonzero;fill:rgb(30.196078%,30.196078%,30.196078%);fill-opacity:1;" d="M 13.4375 0 L 0 13.4375 L 0 19.09375 L 5.65625 19.09375 L 19.09375 5.65625 Z M 12.730469 2.121094 L 16.96875 6.363281 L 9.902344 13.4375 L 5.65625 9.191406 Z M 19.5 8.09375 C 18.820312 10.433594 17.152344 12.445312 16.417969 14.058594 C 16.160156 14.535156 16 15.074219 16 15.65625 C 16 17.558594 17.558594 19.09375 19.5 19.09375 C 21.441406 19.09375 23 17.558594 23 15.65625 C 23 15.074219 22.839844 14.535156 22.582031 14.058594 C 21.847656 12.445312 20.179688 10.433594 19.5 8.09375 Z M 4.949219 9.898438 L 9.191406 14.140625 L 7.777344 15.558594 L 3.535156 11.3125 L 4.242188 10.609375 Z M 2.828125 12.023438 L 7.070312 16.265625 L 5.65625 17.679688 L 1.414062 13.4375 Z M 0 22.09375 L 0 24.09375 L 24 24.09375 L 24 22.09375 Z M 0 22.09375 "/>
</g>
</svg>
