<?xml version="1.0" encoding="UTF-8"?>
<svg xmlns="http://www.w3.org/2000/svg" xmlns:xlink="http://www.w3.org/1999/xlink" width="24pt" height="24pt" viewBox="0 0 24 24" version="1.1">
<g id="surface1">
<path style=" stroke:none;fill-rule:nonzero;fill:rgb(30.196078%,30.196078%,30.196078%);fill-opacity:1;" d="M 0 0 L 0 24 L 24 24 L 24 6 L 23 6 L 23 23 L 1 23 L 1 5 L 18 5 L 18 0 Z M 11.046875 6 C 9.269531 6 8.523438 6.707031 8.523438 8.511719 L 8.523438 10.953125 C 8.523438 12.066406 8.488281 13.355469 7.507812 13.355469 L 7 13.355469 L 7 14.644531 L 7.507812 14.644531 C 8.488281 14.644531 8.523438 15.933594 8.523438 17.046875 L 8.523438 19.488281 C 8.523438 21.292969 9.269531 22 11.046875 22 L 11.046875 20.816406 C 9.859375 20.816406 9.84375 20.339844 9.84375 18.605469 L 9.84375 16.589844 C 9.84375 15.757812 9.640625 14.523438 8.640625 14.011719 C 9.640625 13.496094 9.84375 12.257812 9.84375 11.425781 L 9.84375 9.394531 C 9.84375 7.660156 9.859375 7.183594 11.046875 7.183594 Z M 12.9375 6 L 12.9375 7.183594 C 14.125 7.183594 14.15625 7.660156 14.15625 9.394531 L 14.15625 11.425781 C 14.15625 12.257812 14.359375 13.496094 15.359375 14.011719 C 14.359375 14.523438 14.15625 15.757812 14.15625 16.589844 L 14.15625 18.605469 C 14.15625 20.339844 14.125 20.816406 12.9375 20.816406 L 12.9375 22 C 14.714844 22 15.476562 21.292969 15.476562 19.488281 L 15.476562 17.046875 C 15.476562 15.933594 15.546875 14.644531 16.511719 14.644531 L 17 14.644531 L 17 13.355469 L 16.511719 13.355469 C 15.546875 13.355469 15.476562 12.066406 15.476562 10.953125 L 15.476562 8.511719 C 15.476562 6.707031 14.714844 6 12.9375 6 Z M 12.9375 6 "/>
<path style=" stroke:none;fill-rule:nonzero;fill:rgb(95.686275%,46.666667%,31.372549%);fill-opacity:1;" d="M 19 0 L 21.5 5 L 24 0 Z M 19 0 "/>
</g>
</svg>
