<?xml version="1.0" encoding="UTF-8"?>
<svg xmlns="http://www.w3.org/2000/svg" xmlns:xlink="http://www.w3.org/1999/xlink" width="24pt" height="24pt" viewBox="0 0 24 24" version="1.1">
<g id="surface1">
<path style=" stroke:none;fill-rule:nonzero;fill:rgb(30.196078%,30.196078%,30.196078%);fill-opacity:1;" d="M 12 0 C 5.371094 0 0 2.6875 0 6 C 0 9.3125 5.371094 12 12 12 C 18.628906 12 24 9.3125 24 6 C 24 2.6875 18.628906 0 12 0 Z M 0 7.5 L 0 18 C 0 21.3125 5.371094 24 12 24 C 18.628906 24 24 21.3125 24 18 L 24 7.5 C 23.984375 7.503906 23.964844 7.503906 23.949219 7.507812 C 23.421875 10.613281 18.230469 12.996094 12 13 C 5.769531 13 0.578125 10.613281 0.046875 7.507812 C 0.03125 7.503906 0.015625 7.503906 0 7.5 Z M 0 7.5 "/>
</g>
</svg>
