<?xml version="1.0" encoding="UTF-8"?>
<svg xmlns="http://www.w3.org/2000/svg" xmlns:xlink="http://www.w3.org/1999/xlink" width="24pt" height="21pt" viewBox="0 0 24 21" version="1.1">
<g id="surface1">
<path style=" stroke:none;fill-rule:nonzero;fill:rgb(30.196078%,30.196078%,30.196078%);fill-opacity:1;" d="M 12 0 L 7 5 L 7.707031 5.707031 L 11.5 1.914062 L 11.5 12 L 12.5 12 L 12.5 1.914062 L 16.292969 5.707031 L 17 5 Z M 0 14 L 0 21 L 6 21 L 6 20 L 1 20 L 1 15 L 6 15 L 6 14 Z M 18 14 L 18 15 L 23 15 L 23 20 L 18 20 L 18 21 L 24 21 L 24 14 Z M 4 17 L 4 18 L 20 18 L 20 17 Z M 4 17 "/>
</g>
</svg>
