<?xml version="1.0" encoding="UTF-8"?>
<svg xmlns="http://www.w3.org/2000/svg" xmlns:xlink="http://www.w3.org/1999/xlink" width="24pt" height="24pt" viewBox="0 0 24 24" version="1.1">
<g id="surface1">
<path style=" stroke:none;fill-rule:nonzero;fill:rgb(30.196078%,30.196078%,30.196078%);fill-opacity:1;" d="M 0 0 L 0 7 L 6 7 L 6 6 L 1 6 L 1 1 L 6 1 L 6 0 Z M 18 0 L 18 1 L 23 1 L 23 6 L 18 6 L 18 7 L 24 7 L 24 0 Z M 4 3 L 4 4 L 20 4 L 20 3 Z M 11.5 9 L 11.5 19.085938 L 7.707031 15.292969 L 7 16 L 12 21 L 17 16 L 16.292969 15.292969 L 12.5 19.085938 L 12.5 9 Z M 0 23 L 0 24 L 24 24 L 24 23 Z M 0 23 "/>
</g>
</svg>
