<?xml version="1.0" encoding="UTF-8"?>
<svg xmlns="http://www.w3.org/2000/svg" xmlns:xlink="http://www.w3.org/1999/xlink" width="24pt" height="24pt" viewBox="0 0 24 24" version="1.1">
<g id="surface1">
<path style=" stroke:none;fill-rule:nonzero;fill:rgb(30.196078%,30.196078%,30.196078%);fill-opacity:1;" d="M 2.5 0 C 1.121094 0 0 1.121094 0 2.5 C 0.00390625 3.6875 0.835938 4.707031 2 4.945312 L 2 19 L 0 19 L 0 24 L 5 24 L 5 19 L 3 19 L 3 4.945312 C 3.980469 4.746094 4.746094 3.980469 4.945312 3 L 19 3 L 19 5 L 24 5 L 24 0 L 19 0 L 19 2 L 4.949219 2 C 4.710938 0.835938 3.6875 0 2.5 0 Z M 2.5 1 C 3.328125 1 4 1.671875 4 2.5 C 4 3.328125 3.328125 4 2.5 4 C 1.671875 4 1 3.328125 1 2.5 C 1 1.671875 1.671875 1 2.5 1 Z M 20 1 L 23 1 L 23 4 L 20 4 Z M 1 20 L 4 20 L 4 23 L 1 23 Z M 1 20 "/>
<path style=" stroke:none;fill-rule:nonzero;fill:rgb(11.372549%,60%,95.294118%);fill-opacity:1;" d="M 5 5 L 5 12 L 6.585938 11.285156 L 8.5 13 L 8.300781 10.597656 L 10 10 Z M 5 5 "/>
</g>
</svg>
