<?xml version="1.0" encoding="UTF-8"?>
<svg xmlns="http://www.w3.org/2000/svg" xmlns:xlink="http://www.w3.org/1999/xlink" width="24pt" height="24pt" viewBox="0 0 24 24" version="1.1">
<g id="surface1">
<path style=" stroke:none;fill-rule:nonzero;fill:rgb(70.196078%,70.196078%,70.196078%);fill-opacity:1;" d="M 24 3 C 12.402344 3 3 12.402344 3 24 L 24 24 Z M 24 3 "/>
<path style=" stroke:none;fill-rule:nonzero;fill:rgb(11.372549%,60%,95.294118%);fill-opacity:1;" d="M 3 0 C 1.34375 0 0 1.34375 0 3 C 0 4.65625 1.34375 6 3 6 C 4.269531 6 5.402344 5.199219 5.828125 4 L 24 4 L 24 2 L 5.824219 2 C 5.402344 0.804688 4.269531 0 3 0 Z M 3 2 C 3.550781 2 4 2.449219 4 3 C 4 3.550781 3.550781 4 3 4 C 2.449219 4 2 3.550781 2 3 C 2 2.449219 2.449219 2 3 2 Z M 3 2 "/>
<path style=" stroke:none;fill-rule:nonzero;fill:rgb(30.196078%,30.196078%,30.196078%);fill-opacity:1;" d="M 24 2 C 11.851562 2 2 11.851562 2 24 L 4 24 C 4 12.953125 12.953125 4 24 4 Z M 24 2 "/>
</g>
</svg>
