<?xml version="1.0" encoding="UTF-8"?>
<svg xmlns="http://www.w3.org/2000/svg" xmlns:xlink="http://www.w3.org/1999/xlink" width="24pt" height="20pt" viewBox="0 0 24 20" version="1.1">
<g id="surface1">
<path style=" stroke:none;fill-rule:nonzero;fill:rgb(30.196078%,30.196078%,30.196078%);fill-opacity:1;" d="M 9.5 0 L 9.5 2 L 0 2 L 0 3 L 9.5 3 L 9.5 5 L 14.5 5 L 14.5 3 L 24 3 L 24 2 L 14.5 2 L 14.5 0 Z M 10.5 1 L 13.5 1 L 13.5 4 L 10.5 4 Z M 0 15 L 0 20 L 5 20 L 5 18 L 10 18 L 10 17 L 5 17 L 5 15 Z M 19 15 L 19 17 L 14 17 L 14 18 L 19 18 L 19 20 L 24 20 L 24 15 Z M 1 16 L 4 16 L 4 19 L 1 19 Z M 20 16 L 23 16 L 23 19 L 20 19 Z M 20 16 "/>
<path style=" stroke:none;fill-rule:nonzero;fill:rgb(11.372549%,60%,95.294118%);fill-opacity:1;" d="M 8 9 L 12 13 L 16 9 Z M 8 9 "/>
</g>
</svg>
