<?xml version="1.0" encoding="UTF-8"?>
<svg xmlns="http://www.w3.org/2000/svg" xmlns:xlink="http://www.w3.org/1999/xlink" width="24pt" height="15pt" viewBox="0 0 24 15" version="1.1">
<g id="surface1">
<path style=" stroke:none;fill-rule:nonzero;fill:rgb(30.196078%,30.196078%,30.196078%);fill-opacity:1;" d="M 0 0 L 0 5 L 5 5 L 5 3 L 9 3 L 9 5 L 14 5 L 14 3 L 19 3 L 19 5 L 24 5 L 24 0 L 19 0 L 19 2 L 14 2 L 14 0 L 9 0 L 9 2 L 5 2 L 5 0 Z M 1 1 L 4 1 L 4 4 L 1 4 Z M 10 1 L 13 1 L 13 4 L 10 4 Z M 20 1 L 23 1 L 23 4 L 20 4 Z M 20 1 "/>
<path style=" stroke:none;fill-rule:nonzero;fill:rgb(85.490196%,26.666667%,32.54902%);fill-opacity:1;" d="M 16.707031 7 L 16 7.707031 L 19.292969 11 L 16 14.292969 C 16.011719 14.316406 16.707031 15 16.707031 15 L 20 11.707031 L 23.292969 15 L 24 14.292969 L 20.707031 11 L 24 7.707031 L 23.292969 7 L 20 10.292969 Z M 16.707031 7 "/>
</g>
</svg>
