<?xml version="1.0" encoding="UTF-8"?>
<svg xmlns="http://www.w3.org/2000/svg" xmlns:xlink="http://www.w3.org/1999/xlink" width="23pt" height="24pt" viewBox="0 0 23 24" version="1.1">
<g id="surface1">
<path style=" stroke:none;fill-rule:nonzero;fill:rgb(30.196078%,30.196078%,30.196078%);fill-opacity:1;" d="M 6 0 L 6 2 L 4 2 L 4 4 L 2 4 L 2 6 L 0 6 L 0 11 L 2 11 L 2 17 L 0 17 L 0 22 L 2 22 L 2 24 L 19 24 L 19 22 L 21 22 L 21 20 L 23 20 L 23 0 Z M 7 1 L 11 1 L 11 2 L 7 2 Z M 12 1 L 22 1 L 22 19 L 21 19 L 21 2 L 12 2 Z M 5 3 L 9 3 L 9 4 L 5 4 Z M 10 3 L 20 3 L 20 21 L 19 21 L 19 4 L 10 4 Z M 3 5 L 7 5 L 7 23 L 3 23 Z M 8 5 L 18 5 L 18 23 L 8 23 Z M 8 5 "/>
</g>
</svg>
