<?xml version="1.0" encoding="UTF-8"?>
<svg xmlns="http://www.w3.org/2000/svg" xmlns:xlink="http://www.w3.org/1999/xlink" width="24pt" height="24pt" viewBox="0 0 24 24" version="1.1">
<g id="surface1">
<path style=" stroke:none;fill-rule:nonzero;fill:rgb(30.196078%,30.196078%,30.196078%);fill-opacity:1;" d="M 0.75 0 C 0.492188 0 0.246094 0.0351562 0 0.0703125 L 0 3 C 1.660156 3 3 4.339844 3 6 L 3 18 C 3 19.660156 1.660156 21 0 21 L 0 23.925781 C 0.246094 23.960938 0.492188 24 0.75 24 L 16 24 C 20.417969 24 24 20.640625 24 16.5 C 23.996094 13.457031 22.035156 10.71875 19.03125 9.566406 C 20.28125 8.527344 20.996094 7.050781 21 5.5 C 21 2.460938 18.3125 0 15 0 Z M 7 3 L 14 3 C 14.351562 3 14.6875 3.070312 15 3.179688 L 15 3.175781 C 16.195312 3.597656 17 4.730469 17 6 C 17 7.269531 16.199219 8.402344 15 8.828125 L 15 8.816406 C 14.6875 8.929688 14.351562 9 14 9 L 7 9 Z M 7 12 L 14.5 12 C 16.984375 12 19 14.015625 19 16.5 C 18.996094 18.789062 17.277344 20.746094 15 21 L 7 21 Z M 7 12 "/>
</g>
</svg>
