<?xml version="1.0" encoding="UTF-8"?>
<svg xmlns="http://www.w3.org/2000/svg" xmlns:xlink="http://www.w3.org/1999/xlink" width="24pt" height="22pt" viewBox="0 0 24 22" version="1.1">
<g id="surface1">
<path style=" stroke:none;fill-rule:nonzero;fill:rgb(30.196078%,30.196078%,30.196078%);fill-opacity:1;" d="M 0 0 L 0 20 L 11 20 L 11 19 L 1 19 L 1 1 L 16 1 L 16 8 L 23 8 L 23 10 L 24 10 L 24 7 L 17 0 Z M 18 10 C 14.6875 10 12 12.6875 12 16 C 12 19.3125 14.6875 22 18 22 C 21.3125 22 24 19.3125 24 16 C 24 12.6875 21.3125 10 18 10 Z M 18 11 C 18.171875 11 18.332031 11.015625 18.5 11.03125 L 18.625 11.03125 C 18.675781 11.042969 18.730469 11.054688 18.78125 11.0625 C 18.925781 11.085938 19.046875 11.121094 19.1875 11.15625 C 19.445312 11.21875 19.699219 11.304688 19.9375 11.40625 C 20.070312 11.460938 20.1875 11.527344 20.3125 11.59375 C 20.3125 11.605469 20.3125 11.613281 20.3125 11.625 C 20.339844 11.636719 20.355469 11.691406 20.40625 11.71875 C 20.425781 11.730469 20.421875 11.742188 20.4375 11.75 C 20.464844 11.765625 20.507812 11.78125 20.5 11.8125 C 20.492188 11.851562 20.433594 11.84375 20.40625 11.875 C 20.410156 11.929688 20.359375 11.929688 20.34375 11.96875 C 20.351562 11.992188 20.402344 12 20.40625 12.03125 C 20.402344 12.0625 20.332031 12.058594 20.34375 12.09375 C 20.398438 12.132812 20.449219 12.101562 20.5 12.09375 C 20.613281 12.078125 20.710938 12.082031 20.78125 12.03125 C 20.773438 11.976562 20.882812 11.984375 20.875 11.9375 C 20.902344 11.957031 20.941406 11.976562 20.96875 12 C 20.957031 12.007812 20.949219 12.023438 20.9375 12.03125 C 20.917969 12.039062 20.894531 12.046875 20.875 12.058594 C 20.847656 12.078125 20.8125 12.101562 20.78125 12.121094 C 20.757812 12.136719 20.710938 12.214844 20.6875 12.214844 C 20.660156 12.214844 20.613281 12.175781 20.59375 12.183594 C 20.5625 12.195312 20.566406 12.234375 20.53125 12.246094 C 20.464844 12.269531 20.335938 12.210938 20.3125 12.308594 C 20.339844 12.367188 20.449219 12.339844 20.5 12.371094 C 20.53125 12.390625 20.585938 12.460938 20.59375 12.496094 C 20.601562 12.523438 20.605469 12.652344 20.59375 12.683594 C 20.5625 12.761719 20.46875 12.746094 20.375 12.746094 L 20.3125 12.746094 C 20.15625 12.734375 20.007812 12.664062 19.9375 12.777344 C 19.941406 12.859375 19.957031 12.921875 19.9375 12.996094 C 19.921875 13.046875 19.839844 13.105469 19.84375 13.152344 C 19.84375 13.175781 19.898438 13.210938 19.90625 13.246094 C 19.910156 13.261719 19.898438 13.289062 19.90625 13.308594 C 19.933594 13.355469 19.984375 13.296875 20.03125 13.308594 C 20.074219 13.316406 20.125 13.382812 20.125 13.433594 C 20.125 13.464844 20.117188 13.523438 20.09375 13.558594 C 20.050781 13.621094 19.96875 13.613281 19.90625 13.652344 C 19.855469 13.679688 19.84375 13.753906 19.8125 13.808594 C 19.78125 13.863281 19.738281 13.882812 19.75 13.964844 C 19.703125 14.050781 19.65625 14.105469 19.5625 14.152344 C 19.535156 14.164062 19.492188 14.164062 19.46875 14.183594 C 19.449219 14.195312 19.433594 14.242188 19.40625 14.277344 C 19.371094 14.3125 19.332031 14.339844 19.3125 14.371094 C 19.296875 14.390625 19.296875 14.433594 19.28125 14.464844 C 19.257812 14.507812 19.214844 14.515625 19.1875 14.558594 C 19.175781 14.578125 19.171875 14.625 19.15625 14.652344 C 19.125 14.710938 19.085938 14.757812 19.09375 14.808594 C 19.097656 14.855469 19.152344 14.859375 19.15625 14.902344 C 19.160156 14.925781 19.125 14.9375 19.125 14.964844 C 19.125 15.003906 19.152344 15.027344 19.15625 15.058594 C 19.164062 15.132812 19.109375 15.164062 19.09375 15.214844 C 19.085938 15.238281 19.101562 15.257812 19.09375 15.277344 C 19.082031 15.3125 19.03125 15.359375 19.03125 15.402344 C 19.03125 15.433594 19.089844 15.453125 19.09375 15.496094 C 19.097656 15.523438 19.054688 15.5625 19.0625 15.589844 C 19.074219 15.644531 19.175781 15.703125 19.21875 15.746094 C 19.277344 15.804688 19.351562 15.84375 19.375 15.902344 C 19.394531 15.953125 19.398438 16.050781 19.4375 16.089844 C 19.464844 16.117188 19.527344 16.125 19.5625 16.152344 C 19.597656 16.179688 19.621094 16.183594 19.65625 16.214844 C 19.71875 16.261719 19.808594 16.375 19.90625 16.371094 C 19.957031 16.359375 20.003906 16.316406 20.0625 16.308594 C 20.121094 16.296875 20.191406 16.273438 20.25 16.277344 C 20.296875 16.289062 20.359375 16.3125 20.40625 16.308594 C 20.457031 16.296875 20.503906 16.296875 20.5625 16.277344 C 20.660156 16.234375 20.824219 16.164062 20.96875 16.183594 C 21.078125 16.199219 21.078125 16.320312 21.15625 16.371094 C 21.246094 16.382812 21.304688 16.355469 21.375 16.371094 C 21.429688 16.382812 21.496094 16.453125 21.5 16.496094 C 21.503906 16.539062 21.445312 16.59375 21.4375 16.621094 C 21.421875 16.679688 21.449219 16.742188 21.4375 16.777344 C 21.429688 16.804688 21.40625 16.84375 21.40625 16.871094 C 21.40625 16.898438 21.441406 16.960938 21.46875 16.996094 C 21.5 17.039062 21.554688 17.074219 21.59375 17.121094 C 21.667969 17.207031 21.699219 17.292969 21.75 17.402344 C 21.761719 17.429688 21.738281 17.460938 21.75 17.496094 C 21.726562 17.664062 21.671875 17.777344 21.5625 17.964844 C 21.511719 18.023438 21.4375 18.078125 21.4375 18.152344 C 21.433594 18.332031 21.539062 18.445312 21.53125 18.621094 C 21.511719 18.855469 21.550781 18.871094 21.53125 18.996094 C 21.609375 19.035156 21.554688 19.164062 21.53125 19.246094 C 21.496094 19.34375 21.457031 19.367188 21.4375 19.433594 C 21.492188 19.457031 21.566406 19.449219 21.625 19.433594 C 21.59375 19.464844 21.5625 19.496094 21.53125 19.527344 C 21.304688 19.753906 21.046875 19.972656 20.78125 20.152344 C 20.265625 20.5 19.691406 20.765625 19.0625 20.902344 C 18.71875 20.976562 18.367188 20.996094 18 20.996094 C 17.808594 20.996094 17.621094 20.984375 17.4375 20.964844 C 17.289062 20.949219 17.144531 20.929688 17 20.902344 C 16.71875 20.84375 16.449219 20.726562 16.1875 20.621094 C 16.179688 20.605469 16.152344 20.582031 16.15625 20.5625 C 16.207031 20.539062 16.304688 20.632812 16.34375 20.5625 C 16.363281 20.527344 16.320312 20.4375 16.34375 20.40625 C 16.363281 20.378906 16.464844 20.378906 16.5 20.375 C 16.554688 20.363281 16.625 20.355469 16.65625 20.34375 C 16.6875 20.320312 16.726562 20.246094 16.71875 20.1875 C 16.714844 20.15625 16.679688 20.148438 16.65625 20.125 C 16.636719 20.101562 16.667969 20.082031 16.65625 20.0625 C 16.632812 20.027344 16.574219 20.019531 16.5625 19.96875 C 16.632812 19.953125 16.738281 20.027344 16.84375 20 C 16.894531 19.984375 16.976562 19.886719 17 19.84375 C 17.007812 19.828125 16.992188 19.800781 17 19.78125 C 17.007812 19.761719 17.027344 19.726562 17.03125 19.71875 C 17.039062 19.691406 17.023438 19.707031 17.03125 19.6875 C 17.050781 19.636719 17.09375 19.597656 17.125 19.5625 C 17.148438 19.535156 17.199219 19.496094 17.21875 19.46875 C 17.242188 19.4375 17.234375 19.433594 17.25 19.40625 C 17.265625 19.316406 17.195312 19.234375 17.21875 19.15625 C 17.242188 19.066406 17.382812 19.007812 17.46875 18.96875 C 17.5 18.953125 17.539062 18.945312 17.5625 18.9375 C 17.621094 18.917969 17.695312 18.894531 17.75 18.875 C 17.84375 18.839844 17.859375 18.773438 17.90625 18.6875 C 17.929688 18.648438 17.964844 18.589844 17.96875 18.5625 C 17.972656 18.535156 17.964844 18.53125 17.96875 18.5 C 17.972656 18.472656 17.960938 18.441406 17.96875 18.40625 C 17.980469 18.363281 18 18.269531 18 18.21875 C 18 18.179688 17.96875 18.160156 17.96875 18.125 C 17.960938 17.996094 18.015625 18.007812 18.0625 17.9375 C 18.085938 17.902344 18.109375 17.835938 18.125 17.8125 C 18.207031 17.691406 18.355469 17.652344 18.34375 17.46875 C 18.339844 17.410156 18.292969 17.269531 18.25 17.25 C 18.226562 17.238281 18.191406 17.234375 18.15625 17.21875 C 18.039062 17.175781 17.933594 17.042969 17.8125 17.03125 L 17.75 17.03125 C 17.703125 17.03125 17.648438 17.007812 17.59375 17 C 17.558594 16.992188 17.488281 17.011719 17.46875 17 C 17.4375 16.988281 17.429688 16.925781 17.40625 16.90625 C 17.386719 16.894531 17.34375 16.886719 17.3125 16.875 C 17.261719 16.859375 17.246094 16.816406 17.1875 16.8125 C 17.167969 16.8125 17.144531 16.824219 17.125 16.8125 C 17.09375 16.804688 17.058594 16.800781 17.03125 16.78125 C 16.996094 16.761719 16.953125 16.75 16.9375 16.71875 C 16.96875 16.613281 16.867188 16.597656 16.84375 16.53125 C 16.832031 16.503906 16.855469 16.433594 16.84375 16.40625 C 16.832031 16.371094 16.789062 16.34375 16.75 16.3125 C 16.679688 16.257812 16.632812 16.234375 16.53125 16.21875 C 16.484375 16.210938 16.429688 16.230469 16.375 16.21875 C 16.316406 16.210938 16.230469 16.175781 16.1875 16.125 C 16.144531 16.078125 16.128906 16.023438 16.09375 16 C 16.058594 15.980469 16.023438 15.960938 16 15.9375 C 15.988281 15.929688 15.980469 15.929688 15.96875 15.90625 C 15.949219 15.871094 15.914062 15.859375 15.9375 15.8125 C 15.898438 15.792969 15.917969 15.851562 15.875 15.84375 C 15.835938 15.789062 15.808594 15.734375 15.71875 15.75 C 15.679688 15.761719 15.640625 15.84375 15.59375 15.84375 C 15.554688 15.84375 15.519531 15.761719 15.46875 15.75 C 15.429688 15.742188 15.371094 15.789062 15.34375 15.78125 C 15.300781 15.773438 15.289062 15.746094 15.25 15.71875 C 15.222656 15.703125 15.171875 15.65625 15.15625 15.65625 C 15.105469 15.65625 15.070312 15.757812 15 15.71875 C 14.964844 15.675781 15.070312 15.667969 15.03125 15.625 C 15 15.597656 14.992188 15.644531 14.96875 15.65625 C 14.941406 15.675781 14.90625 15.679688 14.875 15.6875 C 14.804688 15.714844 14.742188 15.722656 14.6875 15.75 C 14.636719 15.777344 14.625 15.792969 14.59375 15.84375 C 14.574219 15.886719 14.535156 15.96875 14.5 15.96875 C 14.460938 15.96875 14.445312 15.925781 14.40625 15.90625 C 14.292969 15.859375 14.222656 15.9375 14.125 15.9375 C 14.039062 15.9375 13.902344 15.804688 13.90625 15.71875 C 13.910156 15.667969 13.933594 15.597656 13.9375 15.53125 C 13.945312 15.484375 14 15.421875 14 15.375 C 14.003906 15.316406 13.886719 15.289062 13.84375 15.28125 C 13.75 15.265625 13.640625 15.324219 13.53125 15.28125 C 13.511719 15.25 13.550781 15.222656 13.5625 15.1875 C 13.570312 15.167969 13.558594 15.148438 13.5625 15.125 C 13.578125 15.09375 13.640625 15.066406 13.65625 15.03125 C 13.667969 15.007812 13.644531 14.96875 13.65625 14.9375 C 13.667969 14.902344 13.714844 14.871094 13.71875 14.84375 C 13.722656 14.808594 13.683594 14.773438 13.65625 14.75 C 13.574219 14.761719 13.515625 14.761719 13.46875 14.78125 C 13.359375 14.832031 13.390625 14.964844 13.28125 15 C 13.246094 15.011719 13.199219 15.023438 13.15625 15.03125 C 13.136719 15.042969 13.113281 15.03125 13.09375 15.03125 C 13.097656 15.019531 13.089844 15.011719 13.09375 15 C 13.097656 14.976562 13.121094 14.960938 13.125 14.9375 C 13.195312 14.613281 13.304688 14.296875 13.4375 14 L 13.46875 14 C 13.507812 14.011719 13.53125 14.058594 13.5625 14.0625 C 13.65625 14.074219 13.675781 13.976562 13.75 13.9375 C 13.828125 13.949219 13.867188 13.925781 13.9375 13.9375 C 13.984375 13.949219 14.054688 13.996094 14.09375 14 C 14.125 14 14.125 13.964844 14.15625 13.96875 C 14.1875 13.980469 14.246094 14.027344 14.25 14.0625 C 14.253906 14.109375 14.207031 14.167969 14.21875 14.21875 C 14.265625 14.265625 14.371094 14.285156 14.4375 14.3125 C 14.480469 14.277344 14.445312 14.207031 14.4375 14.15625 C 14.4375 14.132812 14.441406 14.082031 14.4375 14.0625 C 14.433594 14.027344 14.40625 14 14.40625 13.96875 C 14.40625 13.824219 14.527344 13.773438 14.625 13.71875 C 14.664062 13.695312 14.714844 13.644531 14.75 13.625 C 14.800781 13.601562 14.832031 13.613281 14.875 13.59375 C 14.949219 13.550781 15.003906 13.484375 15.0625 13.4375 C 15.089844 13.371094 15.058594 13.28125 15.0625 13.21875 C 15.089844 13.203125 15.128906 13.21875 15.15625 13.21875 C 15.203125 13.207031 15.222656 13.152344 15.25 13.125 C 15.265625 13.109375 15.292969 13.109375 15.3125 13.09375 C 15.359375 13.058594 15.367188 13.015625 15.40625 13 C 15.421875 12.988281 15.445312 12.976562 15.46875 12.96875 C 15.5 12.957031 15.546875 12.957031 15.59375 12.9375 C 15.625 12.925781 15.707031 12.917969 15.71875 12.90625 C 15.734375 12.890625 15.714844 12.835938 15.71875 12.8125 C 15.742188 12.699219 15.898438 12.695312 16 12.65625 C 16.070312 12.628906 16.140625 12.546875 16.21875 12.5625 C 16.203125 12.617188 16.144531 12.621094 16.15625 12.6875 C 16.171875 12.777344 16.28125 12.667969 16.3125 12.65625 C 16.375 12.628906 16.484375 12.59375 16.5625 12.5625 C 16.632812 12.539062 16.753906 12.519531 16.6875 12.4375 C 16.632812 12.425781 16.609375 12.480469 16.5625 12.5 C 16.53125 12.511719 16.527344 12.472656 16.5 12.46875 C 16.472656 12.46875 16.464844 12.503906 16.4375 12.5 C 16.410156 12.488281 16.378906 12.4375 16.375 12.40625 C 16.363281 12.320312 16.433594 12.3125 16.46875 12.25 C 16.445312 12.175781 16.34375 12.214844 16.28125 12.1875 C 16.289062 12.140625 16.320312 12.105469 16.375 12.09375 C 16.417969 12.082031 16.535156 12.105469 16.5625 12.125 C 16.578125 12.136719 16.539062 12.164062 16.5625 12.1875 C 16.589844 12.207031 16.621094 12.195312 16.65625 12.1875 C 16.667969 12.128906 16.582031 12.160156 16.59375 12.125 C 16.660156 12.082031 16.792969 12.105469 16.875 12.09375 C 16.921875 12.082031 16.988281 12.054688 17.03125 12.03125 C 17.070312 12.007812 17.082031 11.960938 17.125 12 C 17.136719 12.039062 17.117188 12.070312 17.09375 12.09375 C 17.015625 12.160156 16.933594 12.234375 16.875 12.3125 C 16.910156 12.347656 16.96875 12.335938 17.03125 12.34375 C 17.054688 12.355469 17.101562 12.34375 17.125 12.34375 C 17.15625 12.355469 17.195312 12.332031 17.21875 12.34375 C 17.261719 12.355469 17.269531 12.4375 17.3125 12.4375 C 17.378906 12.4375 17.351562 12.359375 17.3125 12.3125 C 17.324219 12.265625 17.359375 12.21875 17.34375 12.1875 C 17.3125 12.125 17.195312 12.203125 17.1875 12.125 C 17.183594 12.074219 17.230469 12.070312 17.25 12.03125 C 17.242188 11.933594 17.324219 11.929688 17.3125 11.84375 C 17.308594 11.808594 17.273438 11.816406 17.25 11.78125 C 17.238281 11.765625 17.234375 11.703125 17.21875 11.6875 C 17.167969 11.644531 17.070312 11.679688 17.0625 11.59375 C 17.058594 11.542969 17.070312 11.492188 17.0625 11.4375 C 17.054688 11.386719 17.011719 11.230469 16.96875 11.21875 C 16.914062 11.207031 16.878906 11.3125 16.8125 11.34375 C 16.777344 11.359375 16.691406 11.382812 16.65625 11.375 C 16.632812 11.363281 16.597656 11.359375 16.59375 11.3125 C 16.589844 11.269531 16.640625 11.25 16.65625 11.21875 C 16.660156 11.207031 16.652344 11.199219 16.65625 11.1875 C 16.730469 11.167969 16.800781 11.144531 16.875 11.125 C 16.917969 11.117188 16.957031 11.105469 17 11.09375 C 17.03125 11.085938 17.0625 11.105469 17.09375 11.09375 C 17.226562 11.070312 17.363281 11.046875 17.5 11.03125 C 17.667969 11.015625 17.828125 11 18 11 Z M 15.96875 11.46875 C 15.9375 11.652344 15.765625 11.722656 15.5625 11.71875 C 15.515625 11.761719 15.554688 11.84375 15.53125 11.90625 C 15.511719 11.957031 15.425781 12.003906 15.375 12 C 15.339844 12 15.28125 11.941406 15.28125 11.90625 C 15.28125 11.863281 15.347656 11.863281 15.3125 11.8125 C 15.316406 11.800781 15.332031 11.792969 15.34375 11.78125 C 15.363281 11.769531 15.386719 11.761719 15.40625 11.75 C 15.585938 11.636719 15.773438 11.558594 15.96875 11.46875 Z M 20.15625 11.65625 C 20.136719 11.667969 20.140625 11.675781 20.125 11.6875 C 20.085938 11.710938 20.058594 11.738281 20.03125 11.75 C 19.992188 11.765625 19.945312 11.773438 19.9375 11.8125 C 19.933594 11.839844 19.96875 11.84375 19.96875 11.875 C 19.953125 11.910156 19.945312 11.921875 19.9375 11.96875 C 19.988281 12.050781 20.09375 11.949219 20.15625 11.9375 C 20.183594 11.925781 20.203125 11.925781 20.21875 11.90625 C 20.234375 11.878906 20.238281 11.847656 20.25 11.8125 C 20.265625 11.769531 20.316406 11.753906 20.3125 11.71875 C 20.308594 11.679688 20.21875 11.652344 20.15625 11.65625 Z M 14.6875 12.28125 C 14.734375 12.320312 14.800781 12.402344 14.71875 12.4375 C 14.707031 12.449219 14.585938 12.472656 14.5625 12.46875 C 14.550781 12.46875 14.539062 12.445312 14.53125 12.4375 C 14.582031 12.386719 14.632812 12.328125 14.6875 12.28125 Z M 14.875 12.46875 C 14.898438 12.472656 14.910156 12.53125 14.9375 12.53125 C 14.964844 12.53125 14.984375 12.496094 15 12.5 C 15.042969 12.511719 15.070312 12.59375 15.03125 12.625 C 15 12.636719 14.992188 12.589844 14.96875 12.59375 C 14.902344 12.605469 14.863281 12.753906 14.8125 12.75 C 14.765625 12.738281 14.730469 12.628906 14.78125 12.59375 C 14.78125 12.5625 14.777344 12.5625 14.78125 12.53125 C 14.796875 12.511719 14.835938 12.46875 14.875 12.46875 Z M 14.625 12.5 C 14.640625 12.5 14.652344 12.488281 14.65625 12.5 C 14.648438 12.554688 14.632812 12.570312 14.59375 12.59375 C 14.523438 12.636719 14.460938 12.691406 14.4375 12.78125 C 14.429688 12.808594 14.347656 12.882812 14.3125 12.875 C 14.234375 12.859375 14.355469 12.710938 14.375 12.6875 C 14.394531 12.664062 14.414062 12.652344 14.4375 12.625 C 14.460938 12.597656 14.476562 12.546875 14.5 12.53125 C 14.523438 12.515625 14.582031 12.496094 14.625 12.5 Z M 21.40625 12.65625 C 21.484375 12.644531 21.527344 12.734375 21.5625 12.78125 C 21.59375 12.820312 21.667969 12.878906 21.71875 12.90625 C 21.746094 12.921875 21.78125 12.957031 21.8125 12.96875 C 21.878906 12.996094 21.996094 13.09375 22 13.15625 C 22 13.1875 21.964844 13.21875 21.96875 13.25 C 22.019531 13.261719 22.0625 13.175781 22.0625 13.125 C 22.15625 13.253906 22.234375 13.394531 22.3125 13.53125 C 22.351562 13.597656 22.402344 13.652344 22.4375 13.71875 C 22.394531 13.730469 22.382812 13.738281 22.375 13.78125 C 22.363281 13.835938 22.398438 13.925781 22.3125 13.9375 C 22.257812 13.949219 22.199219 13.890625 22.125 13.875 C 22.09375 13.863281 22.054688 13.886719 22.03125 13.875 C 21.976562 13.855469 21.984375 13.78125 21.9375 13.75 C 21.910156 13.730469 21.824219 13.691406 21.78125 13.6875 C 21.753906 13.6875 21.746094 13.699219 21.71875 13.6875 C 21.683594 13.675781 21.621094 13.703125 21.59375 13.6875 C 21.566406 13.671875 21.507812 13.617188 21.5 13.59375 C 21.488281 13.558594 21.589844 13.53125 21.59375 13.5 C 21.597656 13.476562 21.566406 13.441406 21.5625 13.40625 C 21.558594 13.382812 21.566406 13.359375 21.5625 13.34375 C 21.554688 13.316406 21.507812 13.3125 21.46875 13.3125 L 21.09375 13.3125 C 21.007812 13.324219 20.941406 13.300781 20.875 13.3125 C 20.824219 13.3125 20.734375 13.355469 20.6875 13.375 C 20.664062 13.386719 20.65625 13.390625 20.625 13.40625 C 20.609375 13.417969 20.582031 13.429688 20.5625 13.4375 C 20.535156 13.449219 20.496094 13.488281 20.46875 13.5 C 20.429688 13.507812 20.382812 13.488281 20.3125 13.5 C 20.261719 13.5 20.1875 13.464844 20.1875 13.40625 C 20.1875 13.3125 20.347656 13.359375 20.4375 13.34375 C 20.46875 13.332031 20.492188 13.304688 20.53125 13.28125 C 20.550781 13.269531 20.542969 13.261719 20.5625 13.25 C 20.59375 13.230469 20.652344 13.179688 20.65625 13.15625 C 20.660156 13.132812 20.652344 13.109375 20.65625 13.09375 C 20.660156 13.074219 20.691406 13.058594 20.71875 13.03125 C 20.761719 12.988281 20.792969 12.933594 20.84375 12.90625 C 20.878906 12.886719 20.921875 12.871094 20.9375 12.84375 C 20.941406 12.8125 20.9375 12.8125 20.9375 12.78125 C 20.960938 12.761719 20.980469 12.757812 21 12.75 C 21.054688 12.738281 21.09375 12.75 21.15625 12.75 C 21.183594 12.75 21.222656 12.765625 21.25 12.75 C 21.273438 12.734375 21.289062 12.699219 21.3125 12.6875 C 21.339844 12.675781 21.375 12.660156 21.40625 12.65625 Z M 21.96875 13.25 L 21.84375 13.25 C 21.800781 13.25 21.746094 13.226562 21.71875 13.25 C 21.753906 13.308594 21.824219 13.328125 21.90625 13.34375 C 21.9375 13.320312 21.953125 13.289062 21.96875 13.25 Z M 15.125 12.6875 L 15.21875 12.6875 C 15.242188 12.6875 15.269531 12.675781 15.28125 12.6875 C 15.265625 12.753906 15.113281 12.742188 15.0625 12.71875 C 15.066406 12.695312 15.09375 12.691406 15.125 12.6875 Z M 14.90625 12.8125 C 14.863281 12.84375 14.820312 12.882812 14.75 12.90625 C 14.710938 12.917969 14.664062 12.917969 14.65625 12.875 C 14.648438 12.824219 14.714844 12.847656 14.75 12.84375 C 14.792969 12.832031 14.855469 12.816406 14.90625 12.8125 Z M 21.40625 12.8125 C 21.375 12.824219 21.355469 12.894531 21.40625 12.90625 C 21.429688 12.890625 21.445312 12.855469 21.4375 12.8125 C 21.425781 12.796875 21.417969 12.800781 21.40625 12.8125 Z M 21.34375 12.96875 C 21.34375 13.023438 21.355469 13.078125 21.34375 13.125 C 21.375 13.1875 21.453125 13.136719 21.46875 13.09375 C 21.488281 12.988281 21.453125 12.957031 21.40625 12.96875 C 21.390625 12.980469 21.359375 12.957031 21.34375 12.96875 Z M 13.0625 15.3125 C 13.117188 15.363281 13.152344 15.433594 13.21875 15.46875 C 13.242188 15.480469 13.28125 15.492188 13.3125 15.5 C 13.339844 15.511719 13.351562 15.488281 13.375 15.5 C 13.429688 15.519531 13.488281 15.542969 13.53125 15.5625 C 13.59375 15.589844 13.664062 15.6875 13.71875 15.71875 C 13.722656 15.75 13.707031 15.789062 13.71875 15.8125 C 13.746094 15.847656 13.769531 15.882812 13.8125 15.90625 C 13.863281 15.933594 13.890625 15.976562 13.9375 16 C 13.953125 16.011719 13.972656 15.988281 14 16 C 14.066406 16.019531 14.097656 16.109375 14.15625 16.09375 C 14.191406 16.082031 14.179688 16.035156 14.1875 16 C 14.210938 15.972656 14.242188 15.9375 14.28125 15.9375 C 14.34375 15.9375 14.351562 16.035156 14.375 16.09375 C 14.386719 16.128906 14.429688 16.152344 14.4375 16.1875 C 14.453125 16.25 14.449219 16.433594 14.4375 16.46875 C 14.421875 16.515625 14.351562 16.511719 14.3125 16.5625 C 14.292969 16.589844 14.296875 16.640625 14.28125 16.65625 C 14.257812 16.6875 14.238281 16.691406 14.21875 16.71875 C 14.207031 16.734375 14.195312 16.761719 14.1875 16.78125 C 14.15625 16.84375 14.101562 16.890625 14.125 16.96875 C 14.136719 17 14.1875 17.027344 14.1875 17.0625 C 14.1875 17.105469 14.101562 17.140625 14.09375 17.1875 C 14.089844 17.222656 14.113281 17.265625 14.125 17.3125 C 14.132812 17.347656 14.199219 17.382812 14.21875 17.40625 C 14.253906 17.445312 14.28125 17.511719 14.3125 17.5625 C 14.375 17.660156 14.40625 17.78125 14.46875 17.875 C 14.5 17.925781 14.570312 17.949219 14.59375 18 C 14.605469 18.027344 14.582031 18.070312 14.59375 18.09375 C 14.628906 18.175781 14.792969 18.273438 14.875 18.3125 C 14.914062 18.332031 14.964844 18.324219 15 18.34375 C 15.054688 18.375 15.160156 18.453125 15.1875 18.5 C 15.210938 18.542969 15.207031 18.652344 15.21875 18.71875 C 15.234375 18.808594 15.214844 18.875 15.21875 18.96875 C 15.222656 19.019531 15.25 19.042969 15.25 19.09375 C 15.25 19.113281 15.25 19.167969 15.25 19.1875 C 15.25 19.25 15.253906 19.3125 15.25 19.375 C 15.246094 19.410156 15.246094 19.441406 15.25 19.46875 C 15.253906 19.5 15.28125 19.503906 15.28125 19.53125 C 15.285156 19.558594 15.246094 19.601562 15.25 19.625 C 15.257812 19.6875 15.300781 19.722656 15.3125 19.78125 C 15.324219 19.828125 15.351562 19.945312 15.34375 20 C 15.339844 20.027344 15.316406 20.0625 15.3125 20.09375 C 15.308594 20.121094 15.316406 20.132812 15.3125 20.15625 C 15.308594 20.179688 15.320312 20.199219 15.3125 20.21875 C 15.28125 20.199219 15.25 20.175781 15.21875 20.15625 C 14.953125 19.976562 14.695312 19.757812 14.46875 19.53125 C 14.4375 19.5 14.40625 19.46875 14.375 19.4375 C 14.195312 19.246094 14.023438 19.027344 13.875 18.8125 C 13.863281 18.792969 13.855469 18.769531 13.84375 18.75 C 13.671875 18.492188 13.527344 18.226562 13.40625 17.9375 C 13.398438 17.917969 13.382812 17.898438 13.375 17.875 C 13.269531 17.617188 13.1875 17.34375 13.125 17.0625 C 13.113281 17.011719 13.105469 16.960938 13.09375 16.90625 C 13.070312 16.773438 13.046875 16.640625 13.03125 16.5 C 13.015625 16.332031 13 16.171875 13 16 C 13 15.761719 13.03125 15.542969 13.0625 15.3125 Z M 15 15.84375 C 15.046875 15.820312 15.039062 15.898438 15 15.90625 C 14.964844 15.917969 14.964844 15.863281 15 15.84375 Z M 15 15.84375 "/>
</g>
</svg>
