<?xml version="1.0" encoding="UTF-8"?>
<svg xmlns="http://www.w3.org/2000/svg" xmlns:xlink="http://www.w3.org/1999/xlink" width="24pt" height="24pt" viewBox="0 0 24 24" version="1.1">
<g id="surface1">
<path style=" stroke:none;fill-rule:nonzero;fill:rgb(30.196078%,30.196078%,30.196078%);fill-opacity:1;" d="M 5 0 C 2.238281 0 0 2.238281 0 5 C 0 7.761719 2.238281 10 5 10 L 9 10 L 9 14 L 5 14 C 2.238281 14 0 16.238281 0 19 C 0 21.761719 2.238281 24 5 24 C 7.761719 24 10 21.761719 10 19 L 10 15 L 14 15 L 14 19 C 14 21.761719 16.238281 24 19 24 C 21.761719 24 24 21.761719 24 19 C 24 16.238281 21.761719 14 19 14 L 15 14 L 15 10 L 19 10 C 21.761719 10 24 7.761719 24 5 C 24 2.238281 21.761719 0 19 0 C 16.238281 0 14 2.238281 14 5 L 14 9 L 10 9 L 10 5 C 10 2.238281 7.761719 0 5 0 Z M 5 1 C 7.210938 1 9 2.789062 9 5 L 9 9 L 5 9 C 2.789062 9 1 7.210938 1 5 C 1 2.789062 2.789062 1 5 1 Z M 19 1 C 21.210938 1 23 2.789062 23 5 C 23 7.210938 21.210938 9 19 9 L 15 9 L 15 5 C 15 2.789062 16.789062 1 19 1 Z M 10 10 L 14 10 L 14 14 L 10 14 Z M 5 15 L 9 15 L 9 19 C 9 21.210938 7.210938 23 5 23 C 2.789062 23 1 21.210938 1 19 C 1 16.789062 2.789062 15 5 15 Z M 15 15 L 19 15 C 21.210938 15 23 16.789062 23 19 C 23 21.210938 21.210938 23 19 23 C 16.789062 23 15 21.210938 15 19 Z M 15 15 "/>
</g>
</svg>
