<?xml version="1.0" encoding="UTF-8"?>
<svg xmlns="http://www.w3.org/2000/svg" xmlns:xlink="http://www.w3.org/1999/xlink" width="24pt" height="24pt" viewBox="0 0 24 24" version="1.1">
<g id="surface1">
<path style=" stroke:none;fill-rule:nonzero;fill:rgb(30.196078%,30.196078%,30.196078%);fill-opacity:1;" d="M 7 0 L 7 1 L 24 1 L 24 0 Z M 7 3 L 7 4 L 20 4 L 20 3 Z M 7 10 L 7 11 L 24 11 L 24 10 Z M 7 13 L 7 14 L 11 14 L 11 13 Z M 15 13 L 15 14 L 24 14 L 24 13 Z M 7 20 L 7 21 L 24 21 L 24 20 Z M 14.90625 22 C 14.390625 22.046875 13.996094 22.480469 14 23 C 14 23.550781 14.449219 24 15 24 C 15.550781 24 16 23.550781 16 23 C 16 22.449219 15.550781 22 15 22 C 14.96875 22 14.9375 22 14.90625 22 Z M 18.90625 22 C 18.390625 22.046875 17.996094 22.480469 18 23 C 18 23.550781 18.449219 24 19 24 C 19.550781 24 20 23.550781 20 23 C 20 22.449219 19.550781 22 19 22 C 18.96875 22 18.9375 22 18.90625 22 Z M 22.90625 22 C 22.390625 22.046875 21.996094 22.480469 22 23 C 22 23.550781 22.449219 24 23 24 C 23.550781 24 24 23.550781 24 23 C 24 22.449219 23.550781 22 23 22 C 22.96875 22 22.9375 22 22.90625 22 Z M 22.90625 22 "/>
<path style=" stroke:none;fill-rule:nonzero;fill:rgb(11.372549%,60%,95.294118%);fill-opacity:1;" d="M 0 0 L 0 1 L 1 1 L 1 5 L 0 5 L 0 6 L 3 6 L 3 5 L 2 5 L 2 1 L 3 1 L 3 0 Z M 0 10 L 0 11 L 1 11 L 1 15 L 0 15 L 0 16 L 5 16 L 5 15 L 4 15 L 4 11 L 5 11 L 5 10 Z M 2 11 L 3 11 L 3 15 L 2 15 Z M 2 11 "/>
</g>
</svg>
