<?xml version="1.0" encoding="UTF-8"?>
<svg xmlns="http://www.w3.org/2000/svg" xmlns:xlink="http://www.w3.org/1999/xlink" width="24pt" height="24pt" viewBox="0 0 24 24" version="1.1">
<g id="surface1">
<path style=" stroke:none;fill-rule:nonzero;fill:rgb(30.196078%,30.196078%,30.196078%);fill-opacity:1;" d="M 12 0 C 5.371094 0 0 3.359375 0 7.5 C 0 11.640625 5.371094 15 12 15 C 18.628906 15 24 11.640625 24 7.5 C 24 3.359375 18.628906 0 12 0 Z M 7.5 15 C 5.015625 15 3 16.007812 3 17.25 C 3 18.492188 5.015625 19.5 7.5 19.5 C 9.984375 19.5 12 18.492188 12 17.25 C 12 16.007812 9.984375 15 7.5 15 Z M 4.5 19.5 C 2.84375 19.5 1.5 20.171875 1.5 21 C 1.5 21.828125 2.84375 22.5 4.5 22.5 C 6.15625 22.5 7.5 21.828125 7.5 21 C 7.5 20.171875 6.15625 19.5 4.5 19.5 Z M 1.5 22.5 C 0.671875 22.5 0 22.835938 0 23.25 C 0 23.664062 0.671875 24 1.5 24 C 2.328125 24 3 23.664062 3 23.25 C 3 22.835938 2.328125 22.5 1.5 22.5 Z M 1.5 22.5 "/>
</g>
</svg>
