<?xml version="1.0" encoding="UTF-8"?>
<svg xmlns="http://www.w3.org/2000/svg" xmlns:xlink="http://www.w3.org/1999/xlink" width="24pt" height="12pt" viewBox="0 0 24 12" version="1.1">
<g id="surface1">
<path style=" stroke:none;fill-rule:nonzero;fill:rgb(30.196078%,30.196078%,30.196078%);fill-opacity:1;" d="M 1 0 C 0.445312 0 0 0.445312 0 1 L 0 11 C 0 11.554688 0.445312 12 1 12 L 10 12 C 10.554688 12 11 11.554688 11 11 L 11 9 L 13 9 L 13 11 C 13 11.554688 13.445312 12 14 12 L 23 12 C 23.554688 12 24 11.554688 24 11 L 24 1 C 24 0.445312 23.554688 0 23 0 L 14 0 C 13.445312 0 13 0.445312 13 1 L 13 3 L 11 3 L 11 1 C 11 0.445312 10.554688 0 10 0 Z M 1 1 L 10 1 L 10 3 L 9 3 C 8.445312 3 8 3.445312 8 4 L 8 8 C 8 8.554688 8.445312 9 9 9 L 10 9 L 10 11 L 1 11 Z M 14 1 L 23 1 L 23 11 L 14 11 L 14 9 L 15 9 C 15.554688 9 16 8.554688 16 8 L 16 4 C 16 3.445312 15.554688 3 15 3 L 14 3 Z M 9 4 L 15 4 L 15 8 L 9 8 Z M 9 4 "/>
</g>
</svg>
