<?xml version="1.0" encoding="UTF-8"?>
<svg xmlns="http://www.w3.org/2000/svg" xmlns:xlink="http://www.w3.org/1999/xlink" width="24pt" height="22pt" viewBox="0 0 24 22" version="1.1">
<g id="surface1">
<path style=" stroke:none;fill-rule:nonzero;fill:rgb(30.196078%,30.196078%,30.196078%);fill-opacity:1;" d="M 13 5 L 13 22 L 14 22 L 14 19.65625 C 15.027344 21.125 16.707031 22 18.5 22 C 21.539062 22 24 19.539062 24 16.5 C 24 13.460938 21.539062 11 18.5 11 C 16.707031 11.003906 15.027344 11.878906 14 13.347656 L 14 5 Z M 5.5 11 C 2.460938 11 0 13.460938 0 16.5 C 0 19.539062 2.460938 22 5.5 22 C 7.292969 21.996094 8.972656 21.121094 10 19.652344 L 10 22 L 11 22 L 11 11 L 10 11 L 10 13.34375 C 8.972656 11.875 7.292969 11 5.5 11 Z M 5.5 12 C 7.984375 12 10 14.015625 10 16.5 C 10 18.984375 7.984375 21 5.5 21 C 3.015625 21 1 18.984375 1 16.5 C 1 14.015625 3.015625 12 5.5 12 Z M 18.5 12 C 20.984375 12 23 14.015625 23 16.5 C 23 18.984375 20.984375 21 18.5 21 C 16.015625 21 14 18.984375 14 16.5 C 14 14.015625 16.015625 12 18.5 12 Z M 18.5 12 "/>
<path style=" stroke:none;fill-rule:nonzero;fill:rgb(11.372549%,60%,95.294118%);fill-opacity:1;" d="M 14 0 L 18 5 L 22 0 Z M 14 0 "/>
</g>
</svg>
