<?xml version="1.0" encoding="UTF-8"?>
<svg xmlns="http://www.w3.org/2000/svg" xmlns:xlink="http://www.w3.org/1999/xlink" width="27pt" height="22pt" viewBox="0 0 27 22" version="1.1">
<g id="surface1">
<path style=" stroke:none;fill-rule:nonzero;fill:rgb(30.196078%,30.196078%,30.196078%);fill-opacity:1;" d="M 5.726562 6 L 1.859375 16.964844 L 1.71875 17.425781 L 0 22 L 1.273438 22 L 3.390625 16.625 L 10.554688 16.652344 L 12.621094 22 L 14 22 L 12.28125 17.425781 L 12.140625 16.964844 L 8.269531 6 Z M 15 6 L 15 22 L 22.578125 22 C 25.019531 22 27 19.910156 27 17.332031 C 26.996094 15.304688 25.753906 13.511719 23.925781 12.890625 C 24.675781 12.140625 25.105469 11.09375 25.105469 10 C 25.105469 7.789062 23.410156 6 21.316406 6 Z M 6.960938 7 L 10.277344 15.464844 L 3.722656 15.464844 Z M 16 7 L 21.316406 7 C 22.710938 7 23.84375 8.527344 23.84375 10 C 23.84375 11.472656 22.710938 13 21.316406 13 L 16 13 Z M 16 14 L 22.578125 14 C 24.320312 14 25.734375 15.492188 25.734375 17.332031 C 25.734375 19.175781 24.320312 21 22.578125 21 L 16 21 Z M 16 14 "/>
<path style=" stroke:none;fill-rule:nonzero;fill:rgb(11.372549%,60%,95.294118%);fill-opacity:1;" d="M 20 0 L 16 5 L 24 5 Z M 20 0 "/>
</g>
</svg>
