<?xml version="1.0" encoding="UTF-8"?>
<svg xmlns="http://www.w3.org/2000/svg" xmlns:xlink="http://www.w3.org/1999/xlink" width="24pt" height="24pt" viewBox="0 0 24 24" version="1.1">
<g id="surface1">
<path style=" stroke:none;fill-rule:nonzero;fill:rgb(30.196078%,30.196078%,30.196078%);fill-opacity:1;" d="M 21 0 L 0 6 L 10 24 L 11.195312 24 L 1.484375 6.613281 L 19.609375 1.4375 L 17.21875 11 L 18.25 11 Z M 21 0 "/>
<path style=" stroke:none;fill-rule:nonzero;fill:rgb(11.372549%,60%,95.294118%);fill-opacity:1;" d="M 18 12 C 14.6875 12 12 14.6875 12 18 C 12.003906 19.070312 12.289062 20.121094 12.835938 21.042969 L 13.566406 20.3125 C 13.195312 19.597656 13 18.804688 13 18 C 13 15.238281 15.238281 13 18 13 C 18.804688 13 19.597656 13.199219 20.308594 13.570312 L 21.042969 12.835938 C 20.121094 12.289062 19.070312 12.003906 18 12 Z M 23.164062 14.957031 L 22.433594 15.6875 C 22.804688 16.402344 23 17.195312 23 18 C 23 20.761719 20.761719 23 18 23 C 17.195312 23 16.402344 22.800781 15.691406 22.429688 L 14.957031 23.164062 C 15.878906 23.710938 16.929688 23.996094 18 24 C 21.3125 24 24 21.3125 24 18 C 23.996094 16.929688 23.710938 15.878906 23.164062 14.957031 Z M 23.164062 14.957031 "/>
</g>
</svg>
