<?xml version="1.0" encoding="UTF-8"?>
<svg xmlns="http://www.w3.org/2000/svg" xmlns:xlink="http://www.w3.org/1999/xlink" width="24pt" height="24pt" viewBox="0 0 24 24" version="1.1">
<g id="surface1">
<path style=" stroke:none;fill-rule:nonzero;fill:rgb(30.196078%,30.196078%,30.196078%);fill-opacity:1;" d="M 2.5 0 C 1.121094 0 0 1.121094 0 2.5 C 0.00390625 3.6875 0.835938 4.707031 2 4.945312 L 2 19 L 0 19 L 0 24 L 5 24 L 5 19 L 3 19 L 3 4.949219 C 3.980469 4.746094 4.746094 3.980469 4.945312 3 L 19 3 L 19 5 L 24 5 L 24 0 L 19 0 L 19 2 L 4.949219 2 C 4.710938 0.835938 3.6875 0 2.5 0 Z M 2.5 1 C 3.328125 1 4 1.671875 4 2.5 C 4 3.328125 3.328125 4 2.5 4 C 1.671875 4 1 3.328125 1 2.5 C 1 1.671875 1.671875 1 2.5 1 Z M 20 1 L 23 1 L 23 4 L 20 4 Z M 1 20 L 4 20 L 4 23 L 1 23 Z M 1 20 "/>
<path style=" stroke:none;fill-rule:nonzero;fill:rgb(11.372549%,60%,95.294118%);fill-opacity:1;" d="M 18 12 C 14.6875 12 12 14.6875 12 18 C 12.003906 19.070312 12.289062 20.121094 12.835938 21.042969 L 13.566406 20.3125 C 13.195312 19.597656 13 18.804688 13 18 C 13 15.238281 15.238281 13 18 13 C 18.804688 13 19.597656 13.195312 20.308594 13.570312 L 21.042969 12.835938 C 20.121094 12.289062 19.070312 12.003906 18 12 Z M 23.164062 14.957031 L 22.433594 15.6875 C 22.804688 16.402344 23 17.195312 23 18 C 23 20.761719 20.761719 23 18 23 C 17.195312 23 16.402344 22.804688 15.691406 22.429688 L 14.957031 23.164062 C 15.878906 23.710938 16.929688 23.996094 18 24 C 21.3125 24 24 21.3125 24 18 C 23.996094 16.929688 23.710938 15.878906 23.164062 14.957031 Z M 23.164062 14.957031 "/>
</g>
</svg>
