<?xml version="1.0" encoding="UTF-8"?>
<svg xmlns="http://www.w3.org/2000/svg" xmlns:xlink="http://www.w3.org/1999/xlink" width="24pt" height="24pt" viewBox="0 0 24 24" version="1.1">
<g id="surface1">
<path style=" stroke:none;fill-rule:nonzero;fill:rgb(30.196078%,30.196078%,30.196078%);fill-opacity:1;" d="M 3 0 C 1.339844 0 0 1.339844 0 3 L 0 21 C 0 22.660156 1.339844 24 3 24 L 21 24 C 22.660156 24 24 22.660156 24 21 L 24 3 C 24 1.339844 22.660156 0 21 0 Z M 3 1 L 21 1 C 22.109375 1 23 1.890625 23 3 L 23 21 C 23 22.109375 22.109375 23 21 23 L 3 23 C 1.890625 23 1 22.109375 1 21 L 1 3 C 1 1.890625 1.890625 1 3 1 Z M 4 2 C 2.890625 2 2 2.890625 2 4 L 2 20 C 2 21.109375 2.890625 22 4 22 L 20 22 C 21.109375 22 22 21.109375 22 20 L 22 4 C 22 2.890625 21.109375 2 20 2 Z M 4 2 "/>
</g>
</svg>
