<?xml version="1.0" encoding="UTF-8"?>
<svg xmlns="http://www.w3.org/2000/svg" xmlns:xlink="http://www.w3.org/1999/xlink" width="24pt" height="24pt" viewBox="0 0 24 24" version="1.1">
<g id="surface1">
<path style=" stroke:none;fill-rule:nonzero;fill:rgb(30.196078%,30.196078%,30.196078%);fill-opacity:1;" d="M 6 0 C 5.167969 0 4.5 0.667969 4.5 1.5 C 4.5 2.332031 5.167969 3 6 3 C 6.832031 3 7.5 2.332031 7.5 1.5 C 7.5 0.667969 6.832031 0 6 0 Z M 16.5 0 L 13.5 3 L 18 7.5 L 13.5 12 L 16.5 15 L 24 7.5 Z M 2.25 9 C 1.003906 9 0 10.003906 0 11.25 C 0 12.496094 1.003906 13.5 2.25 13.5 C 3.496094 13.5 4.5 12.496094 4.5 11.25 C 4.5 10.003906 3.496094 9 2.25 9 Z M 9 18 C 7.339844 18 6 19.339844 6 21 C 6 22.660156 7.339844 24 9 24 C 10.660156 24 12 22.660156 12 21 C 12 19.339844 10.660156 18 9 18 Z M 9 18 "/>
</g>
</svg>
