<?xml version="1.0" encoding="UTF-8"?>
<svg xmlns="http://www.w3.org/2000/svg" xmlns:xlink="http://www.w3.org/1999/xlink" width="24pt" height="24pt" viewBox="0 0 24 24" version="1.1">
<g id="surface1">
<path style=" stroke:none;fill-rule:nonzero;fill:rgb(85.490196%,26.666667%,32.54902%);fill-opacity:1;" d="M 12 0 C 5.371094 0 0 5.371094 0 12 C 0 18.628906 5.371094 24 12 24 C 18.628906 24 24 18.628906 24 12 C 24 5.371094 18.628906 0 12 0 Z M 6.707031 6 L 12 11.292969 L 17.292969 6 C 17.292969 6 18.019531 6.714844 18 6.707031 L 12.707031 12 L 18 17.292969 C 18 17.292969 17.300781 18 17.292969 18 L 12 12.707031 L 6.707031 18 C 6.707031 17.996094 6 17.292969 6 17.292969 L 11.292969 12 L 6 6.707031 C 6.019531 6.707031 6.707031 6 6.707031 6 Z M 6.707031 6 "/>
</g>
</svg>
