<?xml version="1.0" encoding="UTF-8"?>
<svg xmlns="http://www.w3.org/2000/svg" xmlns:xlink="http://www.w3.org/1999/xlink" width="24.029297pt" height="22.269531pt" viewBox="0 0 24.029297 22.269531" version="1.1">
<g id="surface1">
<path style=" stroke:none;fill-rule:nonzero;fill:rgb(18.039216%,80%,44.313725%);fill-opacity:1;" d="M 0 0 L 0 4 L 24 4 L 24 0 Z M 0 7 L 0 11 L 0.03125 11 L 0.03125 7 L 18 7 Z M 0 15 L 0 19 L 12 19 L 12 15 Z M 0 15 "/>
<path style=" stroke:none;fill-rule:nonzero;fill:rgb(85.490196%,26.666667%,32.54902%);fill-opacity:1;" d="M 0.03125 7 L 0.03125 11 L 18.03125 11 L 18.03125 7 Z M 0.03125 7 "/>
<path style=" stroke:none;fill-rule:nonzero;fill:rgb(30.196078%,30.196078%,30.196078%);fill-opacity:1;" d="M 21.609375 10.734375 L 19.53125 14 L 13.03125 14 L 13.03125 15 L 18.890625 15 L 16.984375 18 L 13.03125 18 L 13.03125 19 L 16.347656 19 L 14.609375 21.734375 L 15.453125 22.269531 L 17.53125 19 L 24.03125 19 L 24.03125 18 L 18.167969 18 L 20.078125 15 L 24.03125 15 L 24.03125 14 L 20.714844 14 L 22.453125 11.269531 Z M 21.609375 10.734375 "/>
</g>
</svg>
