<?xml version="1.0" encoding="UTF-8"?>
<svg xmlns="http://www.w3.org/2000/svg" xmlns:xlink="http://www.w3.org/1999/xlink" width="24pt" height="24pt" viewBox="0 0 24 24" version="1.1">
<g id="surface1">
<path style=" stroke:none;fill-rule:nonzero;fill:rgb(30.196078%,30.196078%,30.196078%);fill-opacity:1;" d="M 0 0 L 0 24 L 24 24 L 24 0 Z M 16.566406 1 L 17.035156 1.28125 L 19.5 2.734375 L 21.964844 1.28125 L 22.433594 1 L 23 1.929688 L 22.527344 2.210938 L 19.5 4 L 16.472656 2.210938 L 16 1.929688 Z M 1 5 L 23 5 L 23 23 L 1 23 Z M 3 8 L 3 9 L 21 9 L 21 8 Z M 3 11 L 3 12 L 17 12 L 17 11 Z M 3 16 L 3 17 L 21 17 L 21 16 Z M 3 19 L 3 20 L 11 20 L 11 19 Z M 3 19 "/>
</g>
</svg>
