<?xml version="1.0" encoding="UTF-8"?>
<svg xmlns="http://www.w3.org/2000/svg" xmlns:xlink="http://www.w3.org/1999/xlink" width="24pt" height="23pt" viewBox="0 0 24 23" version="1.1">
<g id="surface1">
<path style=" stroke:none;fill-rule:nonzero;fill:rgb(30.196078%,30.196078%,30.196078%);fill-opacity:1;" d="M 0 0 L 0 16 L 6 22 L 6 16 L 13 16 L 13 15 L 1 15 L 1 1 L 23 1 L 23 12 L 24 12 L 24 0 Z M 18 12 L 18 17 L 14 17 L 14 18 L 18 18 L 18 23 L 19 23 L 19 18 L 24 18 L 24 17 L 19 17 L 19 12 Z M 18 12 "/>
<path style=" stroke:none;fill-rule:nonzero;fill:rgb(85.490196%,26.666667%,32.54902%);fill-opacity:1;" d="M 12 5 C 10.34375 5 9 6.34375 9 8 C 9 9.65625 10.34375 11 12 11 C 13.65625 11 15 9.65625 15 8 C 15 6.34375 13.65625 5 12 5 Z M 12 5 "/>
</g>
</svg>
