<?xml version="1.0" encoding="UTF-8"?>
<svg xmlns="http://www.w3.org/2000/svg" xmlns:xlink="http://www.w3.org/1999/xlink" width="16pt" height="24pt" viewBox="0 0 16 24" version="1.1">
<g id="surface1">
<path style=" stroke:none;fill-rule:nonzero;fill:rgb(30.196078%,30.196078%,30.196078%);fill-opacity:1;" d="M 2.5 0 C 1.121094 0 0 1.121094 0 2.5 C 0.00390625 3.6875 0.835938 4.707031 2 4.945312 L 2 19 C 2 20.65625 3.34375 22 5 22 L 5 24 L 8 21.5 L 5 19 L 5 21 C 3.894531 21 3 20.105469 3 19 L 3 4.949219 C 4.164062 4.710938 5 3.6875 5 2.5 C 5 1.121094 3.878906 0 2.5 0 Z M 11 0 L 8 2.5 L 11 5 L 11 3 C 12.105469 3 13 3.894531 13 5 L 13 19.050781 C 11.835938 19.289062 11 20.3125 11 21.5 C 11 22.878906 12.121094 24 13.5 24 C 14.878906 24 16 22.878906 16 21.5 C 15.996094 20.3125 15.164062 19.292969 14 19.054688 L 14 5 C 14 3.34375 12.65625 2 11 2 Z M 2.5 1 C 3.328125 1 4 1.671875 4 2.5 C 4 3.328125 3.328125 4 2.5 4 C 1.671875 4 1 3.328125 1 2.5 C 1 1.671875 1.671875 1 2.5 1 Z M 13.5 20 C 14.328125 20 15 20.671875 15 21.5 C 15 22.328125 14.328125 23 13.5 23 C 12.671875 23 12 22.328125 12 21.5 C 12 20.671875 12.671875 20 13.5 20 Z M 13.5 20 "/>
</g>
</svg>
