<?xml version="1.0" encoding="UTF-8"?>
<svg xmlns="http://www.w3.org/2000/svg" xmlns:xlink="http://www.w3.org/1999/xlink" width="23pt" height="24pt" viewBox="0 0 23 24" version="1.1">
<g id="surface1">
<path style=" stroke:none;fill-rule:nonzero;fill:rgb(30.196078%,30.196078%,30.196078%);fill-opacity:1;" d="M 7.5 0 C 6.039062 5.109375 2.46875 9.496094 0.894531 13.015625 C 0.34375 14.058594 0 15.230469 0 16.5 C 0 20.65625 3.34375 24 7.5 24 C 8.765625 24 9.957031 23.6875 11 23.136719 L 11 21.375 C 10.015625 22.078125 8.808594 22.5 7.5 22.5 C 5.453125 22.5 3.65625 21.484375 2.574219 19.925781 C 3.542969 20.601562 4.722656 21 6 21 C 8.09375 21 9.925781 19.9375 11 18.324219 L 11 13 L 14.097656 13 C 12.523438 9.484375 8.957031 5.101562 7.5 0 Z M 7.5 0 "/>
<path style=" stroke:none;fill-rule:nonzero;fill:rgb(11.372549%,60%,95.294118%);fill-opacity:1;" d="M 20.578125 12.464844 L 18.5 15.734375 L 12 15.734375 L 12 16.734375 L 17.863281 16.734375 L 15.953125 19.734375 L 12 19.734375 L 12 20.734375 L 15.316406 20.734375 L 13.578125 23.464844 L 14.421875 24 L 16.503906 20.734375 L 23 20.734375 L 23 19.734375 L 17.140625 19.734375 L 19.046875 16.734375 L 23 16.734375 L 23 15.734375 L 19.6875 15.734375 L 21.421875 13 Z M 20.578125 12.464844 "/>
</g>
</svg>
