<?xml version="1.0" encoding="UTF-8"?>
<svg xmlns="http://www.w3.org/2000/svg" xmlns:xlink="http://www.w3.org/1999/xlink" width="24pt" height="24pt" viewBox="0 0 24 24" version="1.1">
<g id="surface1">
<path style=" stroke:none;fill-rule:nonzero;fill:rgb(30.196078%,30.196078%,30.196078%);fill-opacity:1;" d="M 3 0 C 1.34375 0 0 1.34375 0 3 C 0 4.65625 1.34375 6 3 6 C 4.269531 6 5.402344 5.199219 5.828125 4 L 18.5 4 C 20.433594 4 22 5.566406 22 7.5 C 22 9.433594 20.433594 11 18.5 11 L 5 11 L 5 11.027344 C 2.167969 11.285156 0.00390625 13.65625 0 16.5 C 0 19.34375 2.167969 21.714844 5 21.972656 L 5 22 L 19 22 L 19 24 L 24 21 L 19 18 L 19 20 L 5.5 20 C 3.566406 20 2 18.433594 2 16.5 C 2 14.566406 3.566406 13 5.5 13 L 19 13 L 19 12.972656 C 21.832031 12.714844 24 10.34375 24 7.5 C 23.996094 4.65625 21.832031 2.285156 19 2.027344 L 19 2 L 5.824219 2 C 5.402344 0.804688 4.269531 0 3 0 Z M 3 2 C 3.550781 2 4 2.449219 4 3 C 4 3.550781 3.550781 4 3 4 C 2.449219 4 2 3.550781 2 3 C 2 2.449219 2.449219 2 3 2 Z M 3 2 "/>
</g>
</svg>
