<?xml version="1.0" encoding="UTF-8"?>
<svg xmlns="http://www.w3.org/2000/svg" xmlns:xlink="http://www.w3.org/1999/xlink" width="24pt" height="22pt" viewBox="0 0 24 22" version="1.1">
<g id="surface1">
<path style=" stroke:none;fill-rule:nonzero;fill:rgb(30.196078%,30.196078%,30.196078%);fill-opacity:1;" d="M 5 0 L 5 2 L 18.5 2 C 20.433594 2 22 3.566406 22 5.5 C 22 7.433594 20.433594 9 18.5 9 L 5 9 L 5 9.027344 C 2.167969 9.285156 0.00390625 11.65625 0 14.5 C 0 17.34375 2.167969 19.714844 5 19.972656 L 5 20 L 18.175781 20 C 18.597656 21.195312 19.730469 22 21 22 C 22.65625 22 24 20.65625 24 19 C 24 17.34375 22.65625 16 21 16 C 19.730469 16 18.597656 16.800781 18.171875 18 L 5.5 18 C 3.566406 18 2 16.433594 2 14.5 C 2 12.566406 3.566406 11 5.5 11 L 19 11 L 19 10.972656 C 21.832031 10.714844 24 8.34375 24 5.5 C 23.996094 2.65625 21.832031 0.285156 19 0.0273438 L 19 0 Z M 21 18 C 21.550781 18 22 18.449219 22 19 C 22 19.550781 21.550781 20 21 20 C 20.449219 20 20 19.550781 20 19 C 20 18.449219 20.449219 18 21 18 Z M 21 18 "/>
</g>
</svg>
