<?xml version="1.0" encoding="UTF-8"?>
<svg xmlns="http://www.w3.org/2000/svg" xmlns:xlink="http://www.w3.org/1999/xlink" width="24pt" height="24pt" viewBox="0 0 24 24" version="1.1">
<g id="surface1">
<path style=" stroke:none;fill-rule:nonzero;fill:rgb(30.196078%,30.196078%,30.196078%);fill-opacity:1;" d="M 3 0 C 1.34375 0 0 1.34375 0 3 C 0 4.65625 1.34375 6 3 6 C 4.269531 6 5.402344 5.199219 5.828125 4 L 7.722656 4 L 14.921875 22 L 19 22 L 19 24 L 24 21 L 19 18 L 19 20 L 16.277344 20 L 9.078125 2 L 5.824219 2 C 5.402344 0.804688 4.269531 0 3 0 Z M 3 2 C 3.550781 2 4 2.449219 4 3 C 4 3.550781 3.550781 4 3 4 C 2.449219 4 2 3.550781 2 3 C 2 2.449219 2.449219 2 3 2 Z M 3 2 "/>
</g>
</svg>
