<?xml version="1.0" encoding="UTF-8"?>
<svg xmlns="http://www.w3.org/2000/svg" xmlns:xlink="http://www.w3.org/1999/xlink" width="24pt" height="24.027344pt" viewBox="0 0 24 24.027344" version="1.1">
<g id="surface1">
<path style=" stroke:none;fill-rule:nonzero;fill:rgb(30.196078%,30.196078%,30.196078%);fill-opacity:1;" d="M 3 0 C 1.34375 0 0 1.34375 0 3 C 0 4.65625 1.34375 6 3 6 C 3.445312 6 3.886719 5.898438 4.289062 5.707031 L 18.808594 20.21875 L 17 22.027344 L 24 24.027344 L 22 17.027344 L 20.21875 18.808594 L 5.703125 4.292969 C 5.898438 3.886719 6 3.445312 6 3 C 6 1.34375 4.65625 0 3 0 Z M 3 2.027344 C 3.550781 2.027344 4 2.476562 4 3.027344 C 4 3.578125 3.550781 4.027344 3 4.027344 C 2.449219 4.027344 2 3.578125 2 3.027344 C 2 2.476562 2.449219 2.027344 3 2.027344 Z M 3 2.027344 "/>
</g>
</svg>
