<?xml version="1.0" encoding="UTF-8"?>
<svg xmlns="http://www.w3.org/2000/svg" xmlns:xlink="http://www.w3.org/1999/xlink" width="21.707031pt" height="21.697266pt" viewBox="0 0 21.707031 21.697266" version="1.1">
<g id="surface1">
<path style=" stroke:none;fill-rule:nonzero;fill:rgb(30.196078%,30.196078%,30.196078%);fill-opacity:1;" d="M 3 0 C 1.34375 0 0 1.34375 0 3 C 0 4.65625 1.34375 6 3 6 C 3.445312 6 3.886719 5.898438 4.289062 5.707031 L 20.28125 21.699219 C 20.28125 21.699219 21.664062 20.308594 21.707031 20.292969 L 5.703125 4.292969 C 5.898438 3.886719 6 3.445312 6 3 C 6 1.34375 4.65625 0 3 0 Z M 3 2 C 3.269531 2 3.527344 2.109375 3.71875 2.304688 C 3.808594 2.394531 3.875 2.503906 3.921875 2.621094 C 3.925781 2.621094 3.925781 2.621094 3.925781 2.625 C 3.972656 2.742188 4 2.871094 4 3 C 4 3.136719 3.972656 3.269531 3.921875 3.390625 C 3.871094 3.507812 3.796875 3.613281 3.710938 3.707031 C 3.707031 3.707031 3.707031 3.707031 3.703125 3.710938 C 3.617188 3.796875 3.511719 3.867188 3.398438 3.917969 C 3.390625 3.917969 3.386719 3.921875 3.382812 3.925781 C 3.261719 3.972656 3.136719 4 3 4 C 2.867188 4 2.738281 3.972656 2.617188 3.925781 C 2.496094 3.875 2.386719 3.800781 2.296875 3.710938 C 2.105469 3.519531 2 3.265625 2 3 C 2 2.449219 2.449219 2 3 2 Z M 3 2 "/>
</g>
</svg>
