<?xml version="1.0" encoding="UTF-8"?>
<svg xmlns="http://www.w3.org/2000/svg" xmlns:xlink="http://www.w3.org/1999/xlink" width="19pt" height="22pt" viewBox="0 0 19 22" version="1.1">
<g id="surface1">
<path style=" stroke:none;fill-rule:nonzero;fill:rgb(30.196078%,30.196078%,30.196078%);fill-opacity:1;" d="M 0 0 L 0 2 L 2.722656 2 L 9.921875 20 L 13.175781 20 C 13.597656 21.195312 14.730469 22 16 22 C 17.65625 22 19 20.65625 19 19 C 19 17.34375 17.65625 16 16 16 C 14.730469 16 13.597656 16.800781 13.171875 18 L 11.277344 18 L 4.078125 0 Z M 16 18 C 16.550781 18 17 18.449219 17 19 C 17 19.550781 16.550781 20 16 20 C 15.449219 20 15 19.550781 15 19 C 15 18.449219 15.449219 18 16 18 Z M 16 18 "/>
</g>
</svg>
