<?xml version="1.0" encoding="UTF-8"?>
<svg xmlns="http://www.w3.org/2000/svg" xmlns:xlink="http://www.w3.org/1999/xlink" width="21.707031pt" height="21.697266pt" viewBox="0 0 21.707031 21.697266" version="1.1">
<g id="surface1">
<path style=" stroke:none;fill-rule:nonzero;fill:rgb(30.196078%,30.196078%,30.196078%);fill-opacity:1;" d="M 1.421875 0 C 1.421875 0 0.0429688 1.390625 0 1.402344 L 16.003906 17.40625 C 15.808594 17.808594 15.707031 18.25 15.707031 18.695312 C 15.707031 20.355469 17.050781 21.695312 18.707031 21.695312 C 20.363281 21.695312 21.707031 20.355469 21.707031 18.695312 C 21.707031 17.039062 20.363281 15.695312 18.707031 15.695312 C 18.261719 15.699219 17.820312 15.800781 17.414062 15.992188 Z M 18.707031 17.695312 C 19.257812 17.695312 19.707031 18.144531 19.707031 18.695312 C 19.707031 19.25 19.257812 19.695312 18.707031 19.695312 C 18.15625 19.695312 17.707031 19.25 17.707031 18.695312 C 17.707031 18.144531 18.15625 17.695312 18.707031 17.695312 Z M 18.707031 17.695312 "/>
</g>
</svg>
