<?xml version="1.0" encoding="UTF-8"?>
<svg xmlns="http://www.w3.org/2000/svg" xmlns:xlink="http://www.w3.org/1999/xlink" width="24pt" height="24pt" viewBox="0 0 24 24" version="1.1">
<g id="surface1">
<path style=" stroke:none;fill-rule:nonzero;fill:rgb(30.196078%,30.196078%,30.196078%);fill-opacity:1;" d="M 3 0 C 1.34375 0 0 1.34375 0 3 C 0 4.65625 1.34375 6 3 6 C 3.445312 6 3.886719 5.898438 4.289062 5.703125 L 18.296875 19.707031 C 18.101562 20.113281 18 20.554688 18 21 C 18 22.65625 19.34375 24 21 24 C 22.65625 24 24 22.65625 24 21 C 24 19.34375 22.65625 18 21 18 C 20.554688 18 20.113281 18.101562 19.707031 18.296875 L 5.703125 4.289062 C 5.898438 3.886719 6 3.445312 6 3 C 6 1.34375 4.65625 0 3 0 Z M 3 2 C 3.550781 2 4 2.449219 4 3 C 4 3.550781 3.550781 4 3 4 C 2.449219 4 2 3.550781 2 3 C 2 2.449219 2.449219 2 3 2 Z M 21 20 C 21.550781 20 22 20.449219 22 21 C 22 21.550781 21.550781 22 21 22 C 20.449219 22 20 21.550781 20 21 C 20 20.449219 20.449219 20 21 20 Z M 21 20 "/>
</g>
</svg>
