<?xml version="1.0" encoding="UTF-8"?>
<svg xmlns="http://www.w3.org/2000/svg" xmlns:xlink="http://www.w3.org/1999/xlink" width="24pt" height="20pt" viewBox="0 0 24 20" version="1.1">
<g id="surface1">
<path style=" stroke:none;fill-rule:nonzero;fill:rgb(30.196078%,30.196078%,30.196078%);fill-opacity:1;" d="M 14.5 0 C 12.761719 0.00390625 11.289062 1.28125 11.042969 3 L 0 3 L 0 4 L 11.039062 4 C 11.289062 5.722656 12.761719 7 14.5 7 C 16.238281 6.996094 17.710938 5.71875 17.957031 4 L 24 4 L 24 3 L 17.960938 3 C 17.710938 1.277344 16.238281 0 14.5 0 Z M 3.5 13 C 1.566406 13 0 14.566406 0 16.5 C 0 18.433594 1.566406 20 3.5 20 C 5.238281 20 6.710938 18.722656 6.960938 17 L 24 17 L 24 16 L 6.957031 16 C 6.710938 14.28125 5.238281 13.003906 3.5 13 Z M 3.5 14 C 4.878906 14 6 15.121094 6 16.5 C 6 17.878906 4.878906 19 3.5 19 C 2.121094 19 1 17.878906 1 16.5 C 1 15.121094 2.121094 14 3.5 14 Z M 3.5 14 "/>
</g>
</svg>
