<?xml version="1.0" encoding="UTF-8"?>
<svg xmlns="http://www.w3.org/2000/svg" xmlns:xlink="http://www.w3.org/1999/xlink" width="24pt" height="24pt" viewBox="0 0 24 24" version="1.1">
<defs>
<filter id="alpha" filterUnits="objectBoundingBox" x="0%" y="0%" width="100%" height="100%">
  <feColorMatrix type="matrix" in="SourceGraphic" values="0 0 0 0 1 0 0 0 0 1 0 0 0 0 1 0 0 0 1 0"/>
</filter>
<mask id="mask0">
  <g filter="url(#alpha)">
<rect x="0" y="0" width="24" height="24" style="fill:rgb(0%,0%,0%);fill-opacity:0.988235;stroke:none;"/>
  </g>
</mask>
<linearGradient id="linear0" gradientUnits="userSpaceOnUse" x1="20" y1="12.000017" x2="14" y2="13.000017" gradientTransform="matrix(1.5,0,0,1.499998,-2,-1.99995)">
<stop offset="0" style="stop-color:rgb(70.196078%,70.196078%,70.196078%);stop-opacity:1;"/>
<stop offset="1" style="stop-color:rgb(30.196078%,30.196078%,30.196078%);stop-opacity:1;"/>
</linearGradient>
<clipPath id="clip1">
  <rect width="32" height="32"/>
</clipPath>
<g id="surface6" clip-path="url(#clip1)">
<path style=" stroke:none;fill-rule:nonzero;fill:url(#linear0);" d="M 16 4 L 16 28 C 22.628906 28 28 25.3125 28 22 C 28 21.273438 27.722656 20.582031 27.25 19.9375 Z M 16 4 "/>
</g>
</defs>
<g id="surface1">
<use xlink:href="#surface6" transform="matrix(1,0,0,1,-4,-4)" mask="url(#mask0)"/>
<path style=" stroke:none;fill-rule:evenodd;fill:rgb(70.196078%,70.196078%,70.196078%);fill-opacity:1;" d="M 0 18 C 0 21.3125 5.371094 24 12 24 L 12 23 C 6.199219 23 1 20.484375 1 18 Z M 0 18 "/>
<path style=" stroke:none;fill-rule:nonzero;fill:rgb(30.196078%,30.196078%,30.196078%);fill-opacity:1;" d="M 11 0 L 0 18 L 11 18 Z M 11 0 "/>
<path style=" stroke:none;fill-rule:evenodd;fill:rgb(11.372549%,60%,95.294118%);fill-opacity:1;" d="M 11 0 L 11 24 L 12 24 L 12 0 Z M 11 0 "/>
</g>
</svg>
