<?xml version="1.0" encoding="UTF-8"?>
<svg xmlns="http://www.w3.org/2000/svg" xmlns:xlink="http://www.w3.org/1999/xlink" width="24pt" height="24pt" viewBox="0 0 24 24" version="1.1">
<g id="surface1">
<path style=" stroke:none;fill-rule:nonzero;fill:rgb(70.196078%,70.196078%,70.196078%);fill-opacity:1;" d="M 0 4.5 L 0 24 L 19.5 24 L 19.5 4.5 Z M 0 4.5 "/>
<path style=" stroke:none;fill-rule:nonzero;fill:rgb(30.196078%,30.196078%,30.196078%);fill-opacity:1;" d="M 4.5 0 L 0 4.5 L 19.5 4.5 L 19.5 24 L 24 19.5 L 24 0 Z M 4.5 0 "/>
<path style=" stroke:none;fill-rule:nonzero;fill:rgb(11.372549%,60%,95.294118%);fill-opacity:1;" d="M 6 12 C 2.6875 12 0 14.6875 0 18 C 0.00390625 19.070312 0.289062 20.121094 0.835938 21.042969 L 1.570312 20.3125 C 1.195312 19.597656 1 18.804688 1 18 C 1 15.238281 3.238281 13 6 13 C 6.804688 13 7.597656 13.199219 8.308594 13.570312 L 9.042969 12.835938 C 8.121094 12.289062 7.070312 12.003906 6 12 Z M 11.164062 14.957031 L 10.433594 15.6875 C 10.804688 16.402344 11 17.195312 11 18 C 11 20.761719 8.761719 23 6 23 C 5.195312 23 4.402344 22.800781 3.691406 22.429688 L 2.957031 23.164062 C 3.878906 23.710938 4.929688 23.996094 6 24 C 9.3125 24 12 21.3125 12 18 C 11.996094 16.929688 11.710938 15.878906 11.164062 14.957031 Z M 11.164062 14.957031 "/>
</g>
</svg>
