<?xml version="1.0" encoding="UTF-8"?>
<svg xmlns="http://www.w3.org/2000/svg" xmlns:xlink="http://www.w3.org/1999/xlink" width="24pt" height="24.000978pt" viewBox="0 0 24 24.000978" version="1.1">
<g id="surface1">
<path style=" stroke:none;fill-rule:nonzero;fill:rgb(30.196078%,30.196078%,30.196078%);fill-opacity:1;" d="M 0 0 L 0 21 C 6.898438 20.636719 15.085938 21.617188 24 24 L 24 3 C 14.371094 -0.0664062 7.257812 -0.00390625 0 0 Z M 1 1.035156 C 7.730469 1.035156 14.429688 1.152344 23 3.773438 L 23 22.78125 C 14.890625 20.71875 7.550781 19.769531 1 19.996094 Z M 6 7.5 L 3 10.5 L 6 13.5 L 6 12 C 10.976562 12 14.386719 12.339844 18 13.5 L 18 15 L 21 12 L 18 9 L 18 10.5 C 14.921875 9.496094 10.5 9 6 9 Z M 6 7.5 "/>
</g>
</svg>
