<?xml version="1.0" encoding="UTF-8"?>
<svg xmlns="http://www.w3.org/2000/svg" xmlns:xlink="http://www.w3.org/1999/xlink" width="24pt" height="24pt" viewBox="0 0 24 24" version="1.1">
<g id="surface1">
<path style=" stroke:none;fill-rule:nonzero;fill:rgb(30.196078%,30.196078%,30.196078%);fill-opacity:1;" d="M 0 0 L 0 5 L 5 5 L 5 0 Z M 19 0 L 19 5 L 24 5 L 24 0 Z M 1 1 L 4 1 L 4 4 L 1 4 Z M 20 1 L 23 1 L 23 4 L 20 4 Z M 7 2 L 7 3 L 11 3 L 11 2 Z M 13 2 L 13 3 L 17 3 L 17 2 Z M 8 5 L 8 16 L 19 16 L 19 15 L 9 15 L 9 5 Z M 2 7 L 2 11 L 3 11 L 3 7 Z M 21 7 L 21 11 L 22 11 L 22 7 Z M 2 13 L 2 17 L 3 17 L 3 13 Z M 21 13 L 21 17 L 22 17 L 22 13 Z M 0 19 L 0 24 L 5 24 L 5 19 Z M 19 19 L 19 24 L 24 24 L 24 19 Z M 1 20 L 4 20 L 4 23 L 1 23 Z M 20 20 L 23 20 L 23 23 L 20 23 Z M 7 21 L 7 22 L 11 22 L 11 21 Z M 13 21 L 13 22 L 17 22 L 17 21 Z M 13 21 "/>
</g>
</svg>
