<?xml version="1.0" encoding="UTF-8"?>
<svg xmlns="http://www.w3.org/2000/svg" xmlns:xlink="http://www.w3.org/1999/xlink" width="20pt" height="24pt" viewBox="0 0 20 24" version="1.1">
<g id="surface1">
<path style=" stroke:none;fill-rule:nonzero;fill:rgb(30.196078%,30.196078%,30.196078%);fill-opacity:1;" d="M 4.015625 0 C 3.367188 1.117188 4 2 4 2 L 8.9375 11.308594 L 5.664062 17.75 C 5.046875 17.265625 4.285156 17 3.5 17 C 1.566406 17 0 18.566406 0 20.5 C 0 22.433594 1.566406 24 3.5 24 C 5.433594 24 7 22.433594 7 20.5 C 7 19.988281 6.886719 19.484375 6.667969 19.019531 L 8.800781 15.523438 C 9.972656 15.507812 10.054688 14.535156 10.734375 14.515625 L 13.398438 18.878906 C 13.136719 19.378906 13 19.9375 13 20.5 C 13 22.433594 14.566406 24 16.5 24 C 18.433594 24 20 22.433594 20 20.5 C 20 18.566406 18.433594 17 16.5 17 C 15.742188 17 15.003906 17.25 14.398438 17.707031 L 11.125 11.277344 L 16 2 C 16 2 16.636719 1.210938 16 0 L 10.007812 10.269531 Z M 10 12 C 10.414062 12 10.75 12.335938 10.75 12.75 C 10.75 13.164062 10.414062 13.5 10 13.5 C 9.585938 13.5 9.25 13.164062 9.25 12.75 C 9.25 12.335938 9.585938 12 10 12 Z M 3.5 18 C 4.878906 18 6 19.121094 6 20.5 C 6 21.878906 4.878906 23 3.5 23 C 2.121094 23 1 21.878906 1 20.5 C 1 19.121094 2.121094 18 3.5 18 Z M 16.5 18 C 17.878906 18 19 19.121094 19 20.5 C 19 21.878906 17.878906 23 16.5 23 C 15.121094 23 14 21.878906 14 20.5 C 14 19.121094 15.121094 18 16.5 18 Z M 16.5 18 "/>
</g>
</svg>
