<?xml version="1.0" encoding="UTF-8"?>
<svg xmlns="http://www.w3.org/2000/svg" xmlns:xlink="http://www.w3.org/1999/xlink" width="24pt" height="24pt" viewBox="0 0 24 24" version="1.1">
<defs>
<filter id="alpha" filterUnits="objectBoundingBox" x="0%" y="0%" width="100%" height="100%">
  <feColorMatrix type="matrix" in="SourceGraphic" values="0 0 0 0 1 0 0 0 0 1 0 0 0 0 1 0 0 0 1 0"/>
</filter>
<mask id="mask0">
  <g filter="url(#alpha)">
<rect x="0" y="0" width="24" height="24" style="fill:rgb(0%,0%,0%);fill-opacity:0.988235;stroke:none;"/>
  </g>
</mask>
<clipPath id="clip1">
  <rect width="33" height="33"/>
</clipPath>
<g id="surface6" clip-path="url(#clip1)">
<path style=" stroke:none;fill-rule:nonzero;fill:rgb(30.196078%,30.196078%,30.196078%);fill-opacity:1;" d="M 16 4 C 9.371094 4 4 6.6875 4 10 C 4 13.3125 9.371094 16 16 16 C 22.628906 16 28 13.3125 28 10 C 28 6.6875 22.628906 4 16 4 Z M 16 4 "/>
</g>
<mask id="mask1">
  <g filter="url(#alpha)">
<rect x="0" y="0" width="24" height="24" style="fill:rgb(0%,0%,0%);fill-opacity:0.988235;stroke:none;"/>
  </g>
</mask>
<linearGradient id="linear0" gradientUnits="userSpaceOnUse" x1="4" y1="19" x2="16" y2="19" gradientTransform="matrix(1,0,0,1,0.00000000000000007,-0.000000000000000117)">
<stop offset="0" style="stop-color:rgb(70.196078%,70.196078%,70.196078%);stop-opacity:1;"/>
<stop offset="1" style="stop-color:rgb(30.196078%,30.196078%,30.196078%);stop-opacity:1;"/>
</linearGradient>
<clipPath id="clip2">
  <rect width="33" height="33"/>
</clipPath>
<g id="surface9" clip-path="url(#clip2)">
<path style=" stroke:none;fill-rule:nonzero;fill:url(#linear0);" d="M 4 10 L 4 22 C 4 25.3125 9.371094 28 16 28 C 22.628906 28 28 25.3125 28 22 L 28 10 C 28 13.3125 22.628906 16 16 16 C 9.371094 16 4 13.3125 4 10 Z M 4 10 "/>
</g>
</defs>
<g id="surface1">
<use xlink:href="#surface6" transform="matrix(1,0,0,1,-4,-4)" mask="url(#mask0)"/>
<use xlink:href="#surface9" transform="matrix(1,0,0,1,-4,-4)" mask="url(#mask1)"/>
</g>
</svg>
