<?xml version="1.0" encoding="UTF-8"?>
<svg xmlns="http://www.w3.org/2000/svg" xmlns:xlink="http://www.w3.org/1999/xlink" width="24pt" height="24.009766pt" viewBox="0 0 24 24.009766" version="1.1">
<g id="surface1">
<path style=" stroke:none;fill-rule:nonzero;fill:rgb(30.196078%,30.196078%,30.196078%);fill-opacity:1;" d="M 2.292969 0 L 1 1.292969 L 1 3.832031 C 1.050781 3.871094 7.949219 13.09375 8.625 14 L 9.875 14 L 2 3.5 L 2 1.707031 L 2.707031 1 L 21.292969 1 L 22 1.707031 L 22 3.5 L 14.125 14 L 15.375 14 L 23 3.832031 L 23 1.292969 L 21.707031 0 Z M 3 2 L 8 8.5 C 7.984375 8.503906 8 5 8 5 L 11 2 Z M 0 14 L 0 15 L 3 15 L 3 14 Z M 5 14 L 5 15 L 8 15 L 8 14 Z M 11 14 L 11 15 L 13 15 L 13 14 Z M 16 14 L 16 15 L 19 15 L 19 14 Z M 9 15 L 9 19.507812 L 15 24.011719 L 15 15 L 14 15 L 14 22.011719 C 12.839844 21.144531 11.285156 19.976562 10 19.011719 L 10 15 Z M 9 15 "/>
<path style=" stroke:none;fill-rule:nonzero;fill:rgb(11.372549%,60%,95.294118%);fill-opacity:1;" d="M 24 7.5 L 19 12 L 24 16.5 Z M 24 7.5 "/>
</g>
</svg>
