<?xml version="1.0" encoding="UTF-8"?>
<svg xmlns="http://www.w3.org/2000/svg" xmlns:xlink="http://www.w3.org/1999/xlink" width="24pt" height="24pt" viewBox="0 0 24 24" version="1.1">
<g id="surface1">
<path style=" stroke:none;fill-rule:nonzero;fill:rgb(30.196078%,30.196078%,30.196078%);fill-opacity:1;" d="M 0 0 L 0 6 L 6 6 L 6 0 Z M 9 0 L 9 6 L 15 6 L 15 0 Z M 18 0 L 18 6 L 24 6 L 24 0 Z M 1 1 L 5 1 L 5 5 L 1 5 Z M 19 1 L 23 1 L 23 5 L 19 5 Z M 0 9 L 0 15 L 6 15 L 6 9 Z M 1 10 L 5 10 L 5 14 L 1 14 Z M 0 18 L 0 24 L 6 24 L 6 18 Z M 0 18 "/>
<path style=" stroke:none;fill-rule:nonzero;fill:rgb(11.372549%,60%,95.294118%);fill-opacity:1;" d="M 19 9 L 19 14 C 19 16.484375 16.984375 18.5 14.5 18.5 C 12.796875 18.496094 11.238281 17.527344 10.484375 16 L 13 16 L 13 15 L 9 15 L 9 19 L 10 19 L 10 17.144531 C 11.027344 18.617188 12.707031 19.496094 14.5 19.5 C 17.539062 19.5 20 17.039062 20 14 L 20 9 Z M 19 9 "/>
</g>
</svg>
