<?xml version="1.0" encoding="UTF-8"?>
<svg xmlns="http://www.w3.org/2000/svg" xmlns:xlink="http://www.w3.org/1999/xlink" width="23pt" height="24.003906pt" viewBox="0 0 23 24.003906" version="1.1">
<g id="surface1">
<path style=" stroke:none;fill-rule:nonzero;fill:rgb(30.196078%,30.196078%,30.196078%);fill-opacity:1;" d="M 1.292969 0 L 0 1.292969 L 0 3.832031 C 0.0546875 3.871094 8 14.5 8 14.5 L 8 19.507812 L 10 21.007812 L 10 19.757812 C 9.65625 19.5 9.320312 19.25 9 19.007812 L 9 14.167969 L 1 3.5 L 1 1.707031 L 1.707031 1 L 20.292969 1 L 21 1.707031 L 21 3.5 L 15.375 11.003906 L 16.621094 11.003906 L 22 3.832031 L 22 1.292969 L 20.707031 0 Z M 2 2 L 7 8.5 C 6.984375 8.503906 7 5 7 5 L 10 2 Z M 2 2 "/>
<path style=" stroke:none;fill-rule:nonzero;fill:rgb(11.372549%,60%,95.294118%);fill-opacity:1;" d="M 11 12.003906 L 11 24.003906 L 23 24.003906 L 23 12.003906 Z M 12 15.003906 L 22 15.003906 L 22 23.003906 L 12 23.003906 Z M 15 16.003906 L 15 22.003906 L 19 19.003906 Z M 15 16.003906 "/>
</g>
</svg>
