<?xml version="1.0" encoding="UTF-8"?>
<svg xmlns="http://www.w3.org/2000/svg" xmlns:xlink="http://www.w3.org/1999/xlink" width="24pt" height="24pt" viewBox="0 0 24 24" version="1.1">
<g id="surface1">
<path style=" stroke:none;fill-rule:nonzero;fill:rgb(30.196078%,30.196078%,30.196078%);fill-opacity:1;" d="M 0 0 L 0 24 L 24 24 L 24 0 L 20 0 L 20 3 L 16 3 L 16 0 L 8 0 L 8 3 L 4 3 L 4 0 Z M 1 5 L 23 5 L 23 23 L 1 23 Z M 3 7 L 3 10 L 6 10 L 6 7 Z M 8 7 L 8 10 L 11 10 L 11 7 Z M 13 7 L 13 10 L 16 10 L 16 7 Z M 18 7 L 18 10 L 21 10 L 21 7 Z M 3 12 L 3 15 L 6 15 L 6 12 Z M 8 12 L 8 15 L 11 15 L 11 12 Z M 13 12 L 13 15 L 16 15 L 16 12 Z M 18 12 L 18 15 L 21 15 L 21 12 Z M 18 17 L 18 20 L 21 20 L 21 17 Z M 18 17 "/>
</g>
</svg>
