<?xml version="1.0" encoding="UTF-8"?>
<svg xmlns="http://www.w3.org/2000/svg" xmlns:xlink="http://www.w3.org/1999/xlink" width="24pt" height="24pt" viewBox="0 0 24 24" version="1.1">
<g id="surface1">
<path style=" stroke:none;fill-rule:nonzero;fill:rgb(30.196078%,30.196078%,30.196078%);fill-opacity:1;" d="M 2 0 L 2 9 L 4 9 L 4 15 L 0 15 L 0 24 L 9 24 L 9 15 L 5 15 L 5 9 L 13 9 L 13 5 L 20 5 L 20 17 L 17 17 L 17 24 L 24 24 L 24 17 L 21 17 L 21 4 L 13 4 L 13 0 Z M 3 1 L 12 1 L 12 8 L 3 8 Z M 1 16 L 8 16 L 8 23 L 1 23 Z M 1 16 "/>
</g>
</svg>
