<?xml version="1.0" encoding="UTF-8"?>
<svg xmlns="http://www.w3.org/2000/svg" xmlns:xlink="http://www.w3.org/1999/xlink" width="23.998047pt" height="24pt" viewBox="0 0 23.998047 24" version="1.1">
<g id="surface1">
<path style=" stroke:none;fill-rule:nonzero;fill:rgb(30.196078%,30.196078%,30.196078%);fill-opacity:1;" d="M 12 0 C 6.476562 0 2 1.34375 2 3 L 2 10.945312 L 3 11.484375 L 3 10.296875 C 4.664062 11.335938 8.160156 12 12 12 C 15.835938 12 19.332031 11.339844 21 10.300781 L 21 15 C 20.992188 16.003906 17.628906 16.851562 13.140625 16.980469 L 14.796875 17.875 C 17.515625 17.640625 19.769531 17.066406 21 16.300781 L 21 21 C 21 21.070312 20.984375 21.140625 20.949219 21.207031 L 21.753906 21.644531 C 21.914062 21.433594 21.996094 21.21875 22 21 L 22 3 C 22 1.34375 17.523438 0 12 0 Z M 12 1 C 16.96875 1 21 1.894531 21 3 C 21 4.105469 16.96875 5 12 5 C 7.03125 5 3 4.105469 3 3 C 3 1.894531 7.03125 1 12 1 Z M 3 4.296875 C 4.664062 5.335938 8.160156 6 12 6 C 15.835938 6 19.332031 5.339844 21 4.304688 L 21 9 C 21 10.105469 16.96875 11 12 11 C 7.03125 11 3 10.105469 3 9 Z M 0 11 L 0 24 L 24 24 Z M 1 12.679688 L 20.054688 23 L 1 23 Z M 1 12.679688 "/>
</g>
</svg>
