<?xml version="1.0" encoding="UTF-8"?>
<svg xmlns="http://www.w3.org/2000/svg" xmlns:xlink="http://www.w3.org/1999/xlink" width="23pt" height="24.271484pt" viewBox="0 0 23 24.271484" version="1.1">
<g id="surface1">
<path style=" stroke:none;fill-rule:nonzero;fill:rgb(30.196078%,30.196078%,30.196078%);fill-opacity:1;" d="M 1.292969 0 L 0 1.292969 L 0 3.832031 C 0.0546875 3.871094 8 14.5 8 14.5 L 8 19.507812 L 11 21.757812 L 11 20.507812 C 10.304688 19.988281 9.644531 19.492188 9 19.007812 L 9 14.167969 L 1 3.5 L 1 1.707031 L 1.707031 1 L 20.292969 1 L 21 1.707031 L 21 3.5 L 13.875 13.003906 L 15.121094 13.003906 L 22 3.832031 L 22 1.292969 L 20.707031 0 Z M 2 2 L 7 8.5 C 6.984375 8.503906 7 5 7 5 L 10 2 Z M 2 2 "/>
<path style=" stroke:none;fill-rule:nonzero;fill:rgb(11.372549%,60%,95.294118%);fill-opacity:1;" d="M 20.578125 12.734375 L 18.5 16.003906 L 12 16.003906 L 12 17.003906 L 17.859375 17.003906 L 15.953125 20.003906 L 12 20.003906 L 12 21.003906 L 15.316406 21.003906 L 13.578125 23.734375 L 14.421875 24.269531 L 16.5 21.003906 L 23 21.003906 L 23 20.003906 L 17.136719 20.003906 L 19.046875 17.003906 L 23 17.003906 L 23 16.003906 L 19.683594 16.003906 L 21.421875 13.269531 Z M 20.578125 12.734375 "/>
</g>
</svg>
