<?xml version="1.0" encoding="UTF-8"?>
<svg xmlns="http://www.w3.org/2000/svg" xmlns:xlink="http://www.w3.org/1999/xlink" width="24pt" height="24pt" viewBox="0 0 24 24" version="1.1">
<g id="surface1">
<path style=" stroke:none;fill-rule:nonzero;fill:rgb(30.196078%,30.196078%,30.196078%);fill-opacity:1;" d="M 0 0 L 0 24 L 13 24 L 13 23 L 1 23 L 1 5 L 23 5 L 23 21 L 24 21 L 24 0 Z M 16.566406 1 L 17.035156 1.28125 L 19.5 2.734375 L 21.964844 1.28125 L 22.433594 1 L 23 1.929688 L 22.527344 2.210938 L 19.5 4 L 16.472656 2.210938 L 16 1.929688 Z M 6 7 C 4.34375 7 3 8.34375 3 10 C 3 11.65625 4.34375 13 6 13 C 7.65625 13 9 11.65625 9 10 C 9 8.34375 7.65625 7 6 7 Z M 6 8 C 7.105469 8 8 8.894531 8 10 C 8 11.105469 7.105469 12 6 12 C 4.894531 12 4 11.105469 4 10 C 4 8.894531 4.894531 8 6 8 Z M 12 8 L 12 9 L 21 9 L 21 8 Z M 12 11 L 12 12 L 19 12 L 19 11 Z M 3 15 L 3 21 L 9 21 L 9 15 Z M 4 16 L 8 16 L 8 20 L 4 20 Z M 12 16 L 12 17 L 21 17 L 21 16 Z M 12 19 L 12 20 L 16 20 L 16 19 Z M 12 19 "/>
<path style=" stroke:none;fill-rule:nonzero;fill:rgb(95.686275%,46.666667%,31.372549%);fill-opacity:1;" d="M 15 22 C 14.46875 22 14.035156 22.414062 14 22.9375 L 14 23.0625 C 14.03125 23.585938 14.46875 24 15 24 C 15.550781 24 16 23.550781 16 23 C 16 22.449219 15.550781 22 15 22 Z M 19 22 C 18.449219 22 18 22.449219 18 23 C 18 23.550781 18.449219 24 19 24 C 19.550781 24 20 23.550781 20 23 C 20 22.449219 19.550781 22 19 22 Z M 23 22 C 22.449219 22 22 22.449219 22 23 C 22 23.550781 22.449219 24 23 24 C 23.550781 24 24 23.550781 24 23 C 24 22.449219 23.550781 22 23 22 Z M 23 22 "/>
</g>
</svg>
