<?xml version="1.0" encoding="UTF-8"?>
<svg xmlns="http://www.w3.org/2000/svg" xmlns:xlink="http://www.w3.org/1999/xlink" width="23.998047pt" height="23pt" viewBox="0 0 23.998047 23" version="1.1">
<g id="surface1">
<path style=" stroke:none;fill-rule:nonzero;fill:rgb(30.196078%,30.196078%,30.196078%);fill-opacity:1;" d="M 16 0 L 16 4 L 3 4 C 2.445312 4.011719 2 4.457031 2 5 C 2 5.542969 2.445312 5.984375 3 6 L 5 6 L 5 9 L 7 9 L 7 6 L 10 6 L 10 9 L 12 9 L 12 6 L 16 6 L 16 10 L 22 10 L 22 0 Z M 17 1 L 21 1 L 21 9 L 17 9 Z M 0 10 L 0 23 L 24 23 Z M 1 11.679688 L 20.054688 22 L 1 22 Z M 1 11.679688 "/>
</g>
</svg>
