<?xml version="1.0" encoding="UTF-8"?>
<svg xmlns="http://www.w3.org/2000/svg" xmlns:xlink="http://www.w3.org/1999/xlink" width="22pt" height="24pt" viewBox="0 0 22 24" version="1.1">
<g id="surface1">
<path style=" stroke:none;fill-rule:nonzero;fill:rgb(30.196078%,30.196078%,30.196078%);fill-opacity:1;" d="M 0 0 L 0 24 L 13 24 L 13 23 L 1 23 L 1 1 L 19 1 L 19 15 L 20 15 L 20 0 Z M 3 3 L 3 9 L 9 9 L 9 3 Z M 10 4 L 10 5 L 17 5 L 17 4 Z M 10 7 L 10 8 L 17 8 L 17 7 Z M 3 11 L 3 12 L 17 12 L 17 11 Z M 3 15 L 3 16 L 12 16 L 12 15 Z M 3 19 L 3 20 L 12 20 L 12 19 Z M 3 19 "/>
<path style=" stroke:none;fill-rule:nonzero;fill:rgb(11.372549%,60%,95.294118%);fill-opacity:1;" d="M 17 15 L 17 19 L 13 19 L 13 20 L 17 20 L 17 24 L 18 24 L 18 20 L 22 20 L 22 19 L 18 19 L 18 15 Z M 17 15 "/>
</g>
</svg>
