<?xml version="1.0" encoding="UTF-8"?>
<svg xmlns="http://www.w3.org/2000/svg" xmlns:xlink="http://www.w3.org/1999/xlink" width="24pt" height="24pt" viewBox="0 0 24 24" version="1.1">
<g id="surface1">
<path style=" stroke:none;fill-rule:nonzero;fill:rgb(30.196078%,30.196078%,30.196078%);fill-opacity:1;" d="M 0 0 L 0 24 L 15 24 L 15 23 L 1 23 L 1 5 L 23 5 L 23 15 L 24 15 L 24 0 Z M 16.566406 1 L 17.035156 1.28125 L 19.5 2.734375 L 21.964844 1.28125 L 22.433594 1 L 23 1.929688 L 22.527344 2.210938 L 19.5 4 L 16.472656 2.210938 L 16 1.929688 Z M 6 7 C 4.34375 7 3 8.34375 3 10 C 3 11.65625 4.34375 13 6 13 C 7.65625 13 9 11.65625 9 10 C 9 8.34375 7.65625 7 6 7 Z M 6 8 C 7.105469 8 8 8.894531 8 10 C 8 11.105469 7.105469 12 6 12 C 4.894531 12 4 11.105469 4 10 C 4 8.894531 4.894531 8 6 8 Z M 12 8 L 12 9 L 21 9 L 21 8 Z M 12 11 L 12 12 L 19 12 L 19 11 Z M 3 15 L 3 21 L 9 21 L 9 15 Z M 4 16 L 8 16 L 8 20 L 4 20 Z M 12 16 L 12 17 L 15 17 L 15 16 Z M 12 19 L 12 20 L 13 20 L 13 19 Z M 12 19 "/>
<path style=" stroke:none;fill-rule:nonzero;fill:rgb(11.372549%,60%,95.294118%);fill-opacity:1;" d="M 19 15 L 19 19 L 15 19 L 15 20 L 19 20 L 19 24 L 20 24 L 20 20 L 24 20 L 24 19 L 20 19 L 20 15 Z M 19 15 "/>
</g>
</svg>
