<?xml version="1.0" encoding="UTF-8"?>
<svg xmlns="http://www.w3.org/2000/svg" xmlns:xlink="http://www.w3.org/1999/xlink" width="24pt" height="24pt" viewBox="0 0 24 24" version="1.1">
<g id="surface1">
<path style=" stroke:none;fill-rule:nonzero;fill:rgb(15.294118%,68.235294%,37.647059%);fill-opacity:1;" d="M 4.5 3 C 3.671875 3 3 3.671875 3 4.5 C 3 5.328125 3.671875 6 4.5 6 C 5.328125 6 6 5.328125 6 4.5 C 6 3.671875 5.328125 3 4.5 3 Z M 4.5 10 C 3.671875 10 3 10.671875 3 11.5 C 3 12.328125 3.671875 13 4.5 13 C 5.328125 13 6 12.328125 6 11.5 C 6 10.671875 5.328125 10 4.5 10 Z M 4.5 10 "/>
<path style=" stroke:none;fill-rule:nonzero;fill:rgb(85.490196%,26.666667%,32.54902%);fill-opacity:1;" d="M 4.5 17 C 3.671875 17 3 17.671875 3 18.5 C 3 19.328125 3.671875 20 4.5 20 C 5.328125 20 6 19.328125 6 18.5 C 6 17.671875 5.328125 17 4.5 17 Z M 4.5 17 "/>
<path style=" stroke:none;fill-rule:nonzero;fill:rgb(30.196078%,30.196078%,30.196078%);fill-opacity:1;" d="M 0 0 L 0 24 L 24 24 L 24 0 Z M 1 1 L 23 1 L 23 23 L 1 23 Z M 8 3 L 8 4 L 21 4 L 21 3 Z M 16.421875 5 L 16.421875 19.085938 L 12.625 15.292969 L 11.921875 16 L 16.921875 21 L 21.921875 16 L 21.214844 15.292969 L 17.421875 19.085938 L 17.421875 5 Z M 8 6 L 8 7 L 15 7 L 15 6 Z M 8 10 L 8 11 L 15 11 L 15 10 Z M 8 13 L 8 14 L 13 14 L 13 13 Z M 8 17 L 8 18 L 12 18 L 12 17 Z M 8 20 L 8 21 L 14 21 L 14 20 Z M 8 20 "/>
</g>
</svg>
