<?xml version="1.0" encoding="UTF-8"?>
<svg xmlns="http://www.w3.org/2000/svg" xmlns:xlink="http://www.w3.org/1999/xlink" width="16pt" height="24pt" viewBox="0 0 16 24" version="1.1">
<g id="surface1">
<path style=" stroke:none;fill-rule:nonzero;fill:rgb(30.196078%,30.196078%,30.196078%);fill-opacity:1;" d="M 8 0 C 5.238281 0 3 2.238281 3 5 C 3 7.761719 5.238281 10 8 10 C 10.761719 10 13 7.761719 13 5 C 13 2.238281 10.761719 0 8 0 Z M 8 1 C 10.210938 1 12 2.789062 12 5 C 12 7.210938 10.210938 9 8 9 C 5.789062 9 4 7.210938 4 5 C 4 2.789062 5.789062 1 8 1 Z M 8 12 C 3.582031 12 0 13.789062 0 16 L 0 24 L 16 24 L 16 16 C 16 13.789062 12.417969 12 8 12 Z M 8 13 C 11.867188 13 15 14.34375 15 16 L 15 23 L 1 23 L 1 16 C 1 14.34375 4.132812 13 8 13 Z M 8 13 "/>
</g>
</svg>
