<?xml version="1.0" encoding="UTF-8"?>
<svg xmlns="http://www.w3.org/2000/svg" xmlns:xlink="http://www.w3.org/1999/xlink" width="20pt" height="24pt" viewBox="0 0 20 24" version="1.1">
<g id="surface1">
<path style=" stroke:none;fill-rule:nonzero;fill:rgb(30.196078%,30.196078%,30.196078%);fill-opacity:1;" d="M 7 0 C 4.789062 0 3 1.789062 3 4 L 3 8 L 0 8 L 0 9 L 3 9 L 3 24 L 4 24 L 4 9 L 7 9 L 7 8 L 4 8 L 4 4 C 4 2.34375 5.34375 1 7 1 L 9 1 L 9 0 Z M 10.714844 14 C 10.6875 14.011719 10 14.714844 10 14.714844 L 14.285156 19 L 10 23.285156 L 10.714844 24 L 15 19.714844 L 19.285156 24 L 20 23.285156 L 15.714844 19 L 20 14.714844 L 19.285156 14 L 15 18.285156 Z M 10.714844 14 "/>
</g>
</svg>
