<?xml version="1.0" encoding="UTF-8"?>
<svg xmlns="http://www.w3.org/2000/svg" xmlns:xlink="http://www.w3.org/1999/xlink" width="24pt" height="25pt" viewBox="0 0 24 25" version="1.1">
<g id="surface1">
<path style=" stroke:none;fill-rule:nonzero;fill:rgb(11.372549%,60%,95.294118%);fill-opacity:1;" d="M 24 8 L 19 12 L 24 16 Z M 24 8 "/>
<path style=" stroke:none;fill-rule:nonzero;fill:rgb(30.196078%,30.196078%,30.196078%);fill-opacity:1;" d="M 0 0 L 0 1 L 24 1 L 24 0 Z M 5 3 L 5 4 L 24 4 L 24 3 Z M 0 10 L 0 11 L 17 11 L 17 10 Z M 13 13 L 13 14 L 17 14 L 17 13 Z M 0 20 L 0 21 L 24 21 L 24 20 Z M 6 23 L 6 24 L 24 24 L 24 23 Z M 0 24 L 0 25 L 4 25 L 4 24 Z M 0 24 "/>
</g>
</svg>
