<?xml version="1.0" encoding="UTF-8"?>
<svg xmlns="http://www.w3.org/2000/svg" xmlns:xlink="http://www.w3.org/1999/xlink" width="24pt" height="24pt" viewBox="0 0 24 24" version="1.1">
<g id="surface1">
<path style=" stroke:none;fill-rule:nonzero;fill:rgb(30.196078%,30.196078%,30.196078%);fill-opacity:1;" d="M 0 0 L 0 24 L 12 24 L 12 23 L 9 23 L 9 20 L 12 20 L 12 19 L 9 19 L 9 16 L 12 16 L 12 15 L 9 15 L 9 12 L 24 12 L 24 0 Z M 1 1 L 8 1 L 8 7 L 1 7 Z M 9 1 L 15 1 L 15 3 L 9 3 Z M 16 1 L 23 1 L 23 3 L 16 3 Z M 9 4 L 15 4 L 15 7 L 9 7 Z M 16 4 L 23 4 L 23 7 L 16 7 Z M 1 8 L 8 8 L 8 11 L 1 11 Z M 9 8 L 15 8 L 15 11 L 9 11 Z M 16 8 L 23 8 L 23 11 L 16 11 Z M 1 12 L 8 12 L 8 15 L 1 15 Z M 17 13 C 14.789062 13 13 14.789062 13 17 C 13 19.210938 14.789062 21 17 21 C 17.886719 21 18.75 20.703125 19.449219 20.15625 L 23.292969 24 C 23.308594 23.988281 24 23.292969 24 23.292969 L 20.15625 19.453125 C 20.703125 18.75 21 17.886719 21 17 C 21 14.789062 19.210938 13 17 13 Z M 17 14 C 18.65625 14 20 15.34375 20 17 C 20 17.621094 19.804688 18.230469 19.441406 18.734375 C 19.25 19.007812 19.007812 19.246094 18.734375 19.441406 C 18.226562 19.804688 17.621094 20 17 20 C 15.34375 20 14 18.65625 14 17 C 14 15.34375 15.34375 14 17 14 Z M 1 16 L 8 16 L 8 19 L 1 19 Z M 1 20 L 8 20 L 8 23 L 1 23 Z M 1 20 "/>
<path style=" stroke:none;fill-rule:nonzero;fill:rgb(11.372549%,60%,95.294118%);fill-opacity:1;" d="M 1 1 L 1 7 L 8 7 L 8 1 Z M 1 1 "/>
</g>
</svg>
