<?xml version="1.0" encoding="UTF-8"?>
<svg xmlns="http://www.w3.org/2000/svg" xmlns:xlink="http://www.w3.org/1999/xlink" width="24pt" height="24pt" viewBox="0 0 24 24" version="1.1">
<g id="surface1">
<path style=" stroke:none;fill-rule:nonzero;fill:rgb(95.686275%,46.666667%,31.372549%);fill-opacity:1;" d="M 8 0 L 8 6 L 0 6 L 0 18 L 6 24 L 6 18 L 15 18 L 15 10 L 18 10 L 18 16 L 24 10 L 24 0 Z M 9 1 L 23 1 L 23 9 L 9 9 Z M 1 7 L 8 7 L 8 10 L 14 10 L 14 17 L 1 17 Z M 16.707031 16 L 16 16.707031 L 19.292969 20 L 16 23.292969 C 16.011719 23.316406 16.707031 24 16.707031 24 L 20 20.707031 L 23.292969 24 L 24 23.292969 L 20.707031 20 L 24 16.707031 L 23.292969 16 L 20 19.292969 Z M 16.707031 16 "/>
</g>
</svg>
