<?xml version="1.0" encoding="UTF-8"?>
<svg xmlns="http://www.w3.org/2000/svg" xmlns:xlink="http://www.w3.org/1999/xlink" width="24pt" height="24pt" viewBox="0 0 24 24" version="1.1">
<g id="surface1">
<path style=" stroke:none;fill-rule:nonzero;fill:rgb(30.196078%,30.196078%,30.196078%);fill-opacity:1;" d="M 0 0 L 0 7 L 1 7 L 1 4 L 8 4 L 8 7 L 9 7 L 9 4 L 15 4 L 15 7 L 16 7 L 16 4 L 23 4 L 23 7 L 24 7 L 24 0 Z M 1 1 L 8 1 L 8 3 L 1 3 Z M 9 1 L 15 1 L 15 3 L 9 3 Z M 16 1 L 23 1 L 23 3 L 16 3 Z M 0 16 L 0 24 L 24 24 L 24 16 L 23 16 L 23 19 L 16 19 L 16 16 L 15 16 L 15 19 L 9 19 L 9 16 L 8 16 L 8 19 L 1 19 L 1 16 Z M 1 20 L 8 20 L 8 23 L 1 23 Z M 9 20 L 15 20 L 15 23 L 9 23 Z M 16 20 L 23 20 L 23 23 L 16 23 Z M 16 20 "/>
<path style=" stroke:none;fill-rule:nonzero;fill:rgb(85.490196%,26.666667%,32.54902%);fill-opacity:1;" d="M 0 7 L 0 16 L 24 16 L 24 7 Z M 1 8 L 2.34375 8 L 1 9.566406 Z M 3.65625 8 L 6.34375 8 L 1 14.234375 L 1 11.101562 L 3.382812 8.324219 Z M 7.65625 8 L 10.34375 8 L 10 8.398438 L 4.621094 14.671875 L 4.339844 15 L 1.65625 15 L 7.378906 8.324219 Z M 11.65625 8 L 14.34375 8 L 11 11.898438 L 10 13.0625 L 8.621094 14.671875 L 8.339844 15 L 5.65625 15 L 10 9.9375 L 11 8.769531 L 11.378906 8.324219 Z M 15.65625 8 L 18.34375 8 L 12.621094 14.671875 L 12.339844 15 L 9.65625 15 L 10 14.601562 L 10.113281 14.46875 L 11 13.4375 L 15.378906 8.324219 Z M 19.65625 8 L 22.34375 8 L 16.621094 14.671875 L 16.339844 15 L 13.65625 15 L 19.378906 8.324219 Z M 23 8.769531 L 23 11.898438 L 20.621094 14.671875 L 20.339844 15 L 17.65625 15 Z M 23 13.4375 L 23 15 L 21.65625 15 Z M 23 13.4375 "/>
</g>
</svg>
