<?xml version="1.0" encoding="UTF-8"?>
<svg xmlns="http://www.w3.org/2000/svg" xmlns:xlink="http://www.w3.org/1999/xlink" width="24pt" height="24pt" viewBox="0 0 24 24" version="1.1">
<g id="surface1">
<path style=" stroke:none;fill-rule:nonzero;fill:rgb(30.196078%,30.196078%,30.196078%);fill-opacity:1;" d="M 0 0 L 0 24 L 8 24 L 8 23 L 5 23 L 5 16 L 8 16 L 8 15 L 5 15 L 5 9 L 8 9 L 8 8 L 5 8 L 5 1 L 8 1 L 8 0 Z M 17 0 L 17 1 L 20 1 L 20 8 L 17 8 L 17 9 L 20 9 L 20 15 L 17 15 L 17 16 L 20 16 L 20 23 L 17 23 L 17 24 L 24 24 L 24 0 Z M 1 1 L 4 1 L 4 8 L 1 8 Z M 21 1 L 23 1 L 23 8 L 21 8 Z M 1 9 L 4 9 L 4 15 L 1 15 Z M 21 9 L 23 9 L 23 15 L 21 15 Z M 1 16 L 4 16 L 4 23 L 1 23 Z M 21 16 L 23 16 L 23 23 L 21 23 Z M 21 16 "/>
<path style=" stroke:none;fill-rule:nonzero;fill:rgb(85.490196%,26.666667%,32.54902%);fill-opacity:1;" d="M 8 0 L 8 24 L 17 24 L 17 0 Z M 9 1 L 10.566406 1 L 9 2.34375 Z M 12.101562 1 L 15.234375 1 L 9 6.34375 L 9 3.65625 L 9.324219 3.382812 Z M 16 1.65625 L 16 4.339844 L 15.671875 4.621094 L 9.398438 10 L 9 10.34375 L 9 7.65625 L 9.324219 7.378906 Z M 16 5.65625 L 16 8.339844 L 15.671875 8.621094 L 14.0625 10 L 12.898438 11 L 9 14.34375 L 9 11.65625 L 9.324219 11.378906 L 9.769531 11 L 10.9375 10 Z M 16 9.65625 L 16 12.339844 L 15.671875 12.621094 L 9 18.34375 L 9 15.65625 L 9.324219 15.378906 L 14.4375 11 L 15.46875 10.113281 L 15.601562 10 Z M 16 13.65625 L 16 16.339844 L 15.671875 16.621094 L 9 22.34375 L 9 19.65625 L 9.324219 19.378906 Z M 16 17.65625 L 16 20.339844 L 15.671875 20.621094 L 12.898438 23 L 9.769531 23 Z M 16 21.65625 L 16 23 L 14.4375 23 Z M 16 21.65625 "/>
</g>
</svg>
