<?xml version="1.0" encoding="UTF-8"?>
<svg xmlns="http://www.w3.org/2000/svg" xmlns:xlink="http://www.w3.org/1999/xlink" width="26pt" height="24pt" viewBox="0 0 26 24" version="1.1">
<g id="surface1">
<path style=" stroke:none;fill-rule:nonzero;fill:rgb(30.196078%,30.196078%,30.196078%);fill-opacity:1;" d="M 0 0 L 0 18 L 26 18 L 26 0 Z M 1 1 L 25 1 L 25 17 L 1 17 Z M 13 3 L 11 7 L 7 8 L 10 11 L 9 15 L 13 13 L 17 15 L 16 11 L 19 8 L 15 7 Z M 15 3 L 15 4 L 20 4 L 20 3 Z M 16 5 L 16 6 L 20 6 L 20 5 Z M 18 10 L 18 11 L 20 11 L 20 10 Z M 17 12 L 17 13 L 20 13 L 20 12 Z M 18 14 L 18 15 L 20 15 L 20 14 Z M 10 19 L 10 23 L 8 23 L 8 24 L 18 24 L 18 23 L 16 23 L 16 19 L 15 19 L 15 23 L 11 23 L 11 19 Z M 10 19 "/>
</g>
</svg>
