<?xml version="1.0" encoding="UTF-8"?>
<svg xmlns="http://www.w3.org/2000/svg" xmlns:xlink="http://www.w3.org/1999/xlink" width="23.998047pt" height="24.004041pt" viewBox="0 0 23.998047 24.004041" version="1.1">
<g id="surface1">
<path style=" stroke:none;fill-rule:nonzero;fill:rgb(30.196078%,30.196078%,30.196078%);fill-opacity:1;" d="M 11.515625 0.00390625 C 11.601562 0.00390625 11.679688 0.015625 11.765625 0.015625 C 6.335938 0.144531 2.003906 4.578125 2 10.003906 C 2 10.328125 2.015625 10.652344 2.046875 10.976562 L 3.140625 11.566406 C 3.046875 11.050781 3 10.527344 3 10.003906 C 3 5.035156 7.03125 1.003906 12 1.003906 L 12 10.003906 L 21 10.003906 C 20.996094 13.609375 18.84375 16.863281 15.527344 18.277344 L 16.613281 18.867188 C 19.921875 17.144531 21.996094 13.730469 22 10.003906 C 22 4.480469 17.523438 0.00390625 12 0.00390625 C 12.167969 -0.0078125 11.351562 0.0078125 11.515625 0.00390625 Z M 0 11.003906 L 0 24.003906 L 24 24.003906 Z M 1 12.683594 L 20.054688 23.003906 L 1 23.003906 Z M 1 12.683594 "/>
</g>
</svg>
