<?xml version="1.0" encoding="UTF-8"?>
<svg xmlns="http://www.w3.org/2000/svg" xmlns:xlink="http://www.w3.org/1999/xlink" width="22pt" height="24pt" viewBox="0 0 22 24" version="1.1">
<g id="surface1">
<path style=" stroke:none;fill-rule:nonzero;fill:rgb(30.196078%,30.196078%,30.196078%);fill-opacity:1;" d="M 12 0 C 6.476562 0 2 4.476562 2 10 C 2 10.339844 2.015625 10.671875 2.046875 11 L 3.058594 11 C 3.023438 10.671875 3 10.339844 3 10 C 3 5.03125 7.03125 1 12 1 L 12 10 L 21 10 C 21 14.632812 17.5 18.445312 13 18.941406 L 13 19.953125 C 18.054688 19.449219 22 15.183594 22 10 C 22 4.476562 17.523438 0 12 0 Z M 6 12 C 2.6875 12 0 12.894531 0 14 L 0 22 C 0 23.105469 2.6875 24 6 24 C 9.3125 24 12 23.105469 12 22 L 12 14 C 12 12.894531 9.3125 12 6 12 Z M 6 13 C 8.761719 13 11 13.449219 11 14 C 11 14.550781 8.761719 15 6 15 C 3.238281 15 1 14.550781 1 14 C 1 13.449219 3.238281 13 6 13 Z M 1 15.101562 C 2.109375 15.660156 3.988281 16 6 16 C 8.011719 16 9.890625 15.664062 11 15.105469 L 11 18 C 11 18.550781 8.761719 19 6 19 C 3.238281 19 1 18.550781 1 18 Z M 1 19.101562 C 2.109375 19.660156 3.988281 20 6 20 C 8.011719 20 9.890625 19.664062 11 19.105469 L 11 22 C 11 22.550781 8.761719 23 6 23 C 3.238281 23 1 22.550781 1 22 Z M 1 19.101562 "/>
</g>
</svg>
