<?xml version="1.0" encoding="UTF-8"?>
<svg xmlns="http://www.w3.org/2000/svg" xmlns:xlink="http://www.w3.org/1999/xlink" width="24pt" height="24pt" viewBox="0 0 24 24" version="1.1">
<g id="surface1">
<path style=" stroke:none;fill-rule:nonzero;fill:rgb(30.196078%,30.196078%,30.196078%);fill-opacity:1;" d="M 0 0 L 0 21 L 2 21 L 2 0 Z M 3 0 L 3 21 L 24 21 L 24 0 Z M 19.5 7 C 20.179688 9.339844 21.847656 11.351562 22.582031 12.964844 C 22.839844 13.445312 23 13.984375 23 14.5625 C 23 16.46875 21.441406 18 19.5 18 C 17.558594 18 16 16.46875 16 14.5625 C 16 13.980469 16.160156 13.445312 16.417969 12.964844 C 17.152344 11.351562 18.820312 9.339844 19.5 7 Z M 0 22 L 0 24 L 2 24 L 2 22 Z M 3 22 L 3 24 L 24 24 L 24 22 Z M 3 22 "/>
</g>
</svg>
