<?xml version="1.0" encoding="UTF-8"?>
<svg xmlns="http://www.w3.org/2000/svg" xmlns:xlink="http://www.w3.org/1999/xlink" width="26pt" height="23pt" viewBox="0 0 26 23" version="1.1">
<g id="surface1">
<path style=" stroke:none;fill-rule:nonzero;fill:rgb(30.196078%,30.196078%,30.196078%);fill-opacity:1;" d="M 0 0 L 0 7 L 8 7 L 8 0 Z M 9 0 L 9 7 L 17 7 L 17 0 Z M 18 0 L 18 7 L 26 7 L 26 0 Z M 1 1 L 7 1 L 7 6 L 1 6 Z M 10 1 L 16 1 L 16 6 L 10 6 Z M 19 1 L 25 1 L 25 6 L 19 6 Z M 0 8 L 0 15 L 8 15 L 8 8 Z M 9 8 L 9 15 L 17 15 L 17 8 Z M 18 8 L 18 12 L 19 12 L 19 9 L 25 9 L 25 13 L 26 13 L 26 8 Z M 1 9 L 7 9 L 7 14 L 1 14 Z M 10 9 L 16 9 L 16 14 L 10 14 Z M 21.398438 11 L 16.285156 16.109375 L 13 19.398438 L 13 23 L 16.601562 23 L 25 14.601562 Z M 19.347656 14.488281 L 21.511719 16.652344 L 18.335938 19.828125 L 18.335938 19.152344 L 17.324219 19.171875 L 16.285156 19.171875 L 16.285156 17.550781 Z M 0 16 L 0 23 L 8 23 L 8 16 Z M 9 16 L 9 23 L 12 23 L 12 22 L 10 22 L 10 17 L 14 17 L 14 16 Z M 1 17 L 7 17 L 7 22 L 1 22 Z M 15.273438 18.5625 L 15.273438 20.1875 L 17.300781 20.1875 L 17.324219 20.839844 L 16.242188 21.921875 L 14.800781 21.921875 L 14.078125 21.199219 L 14.078125 19.757812 Z M 15.273438 18.5625 "/>
</g>
</svg>
