<?xml version="1.0" encoding="UTF-8"?>
<svg xmlns="http://www.w3.org/2000/svg" xmlns:xlink="http://www.w3.org/1999/xlink" width="26pt" height="24pt" viewBox="0 0 26 24" version="1.1">
<g id="surface1">
<path style=" stroke:none;fill-rule:nonzero;fill:rgb(30.196078%,30.196078%,30.196078%);fill-opacity:1;" d="M 0 0 L 0 18 L 26 18 L 26 0 Z M 1 1 L 25 1 L 25 17 L 1 17 Z M 13 3 C 9.6875 3 7 5.6875 7 9 C 7 12.3125 9.6875 15 13 15 C 16.3125 15 19 12.3125 19 9 C 19 5.6875 16.3125 3 13 3 Z M 13 4 C 15.761719 4 18 6.238281 18 9 C 18 11.761719 15.761719 14 13 14 C 10.238281 14 8 11.761719 8 9 C 8 6.238281 10.238281 4 13 4 Z M 12 5 L 12 10 L 17 10 L 17 9 L 13 9 L 13 5 Z M 10 19 L 10 23 L 8 23 L 8 24 L 18 24 L 18 23 L 16 23 L 16 19 L 15 19 L 15 23 L 11 23 L 11 19 Z M 10 19 "/>
</g>
</svg>
