<?xml version="1.0" encoding="UTF-8"?>
<svg xmlns="http://www.w3.org/2000/svg" xmlns:xlink="http://www.w3.org/1999/xlink" width="24pt" height="24pt" viewBox="0 0 24 24" version="1.1">
<g id="surface1">
<path style=" stroke:none;fill-rule:nonzero;fill:rgb(30.196078%,30.196078%,30.196078%);fill-opacity:1;" d="M 10 0 L 6 3 L 10 6 Z M 14 0 L 14 6 L 18 3 Z M 5 5 L 5 8 L 0 8 L 0 19 L 5 19 L 5 24 L 6 24 L 6 19 L 11 19 L 11 8 L 6 8 L 6 5 Z M 18 5 L 18 8 L 13 8 L 13 21 L 18 21 L 18 24 L 19 24 L 19 21 L 24 21 L 24 8 L 19 8 L 19 5 Z M 1 9 L 10 9 L 10 18 L 1 18 Z M 14 9 L 23 9 L 23 20 L 14 20 Z M 14 9 "/>
</g>
</svg>
