<?xml version="1.0" encoding="UTF-8"?>
<svg xmlns="http://www.w3.org/2000/svg" xmlns:xlink="http://www.w3.org/1999/xlink" width="22pt" height="26pt" viewBox="0 0 22 26" version="1.1">
<g id="surface1">
<path style=" stroke:none;fill-rule:nonzero;fill:rgb(30.196078%,30.196078%,30.196078%);fill-opacity:1;" d="M 0 0 L 0 26 L 5 26 L 5 25 L 1 25 L 1 21 L 5 21 L 5 20 L 1 20 L 1 16 L 5 16 L 5 15 L 1 15 L 1 11 L 5 11 L 5 10 L 1 10 L 1 6 L 5 6 L 5 5 L 1 5 L 1 1 L 5 1 L 5 0 Z M 7 0 L 7 26 L 13 26 L 13 14 L 17 14 L 17 17 L 22 13 L 17 9 L 17 12 L 13 12 L 13 0 Z M 8 1 L 12 1 L 12 5 L 8 5 Z M 8 6 L 12 6 L 12 10 L 8 10 Z M 8 11 L 12 11 L 12 15 L 8 15 Z M 8 16 L 12 16 L 12 20 L 8 20 Z M 8 21 L 12 21 L 12 25 L 8 25 Z M 8 21 "/>
</g>
</svg>
