<?xml version="1.0" encoding="UTF-8"?>
<svg xmlns="http://www.w3.org/2000/svg" xmlns:xlink="http://www.w3.org/1999/xlink" width="26pt" height="22pt" viewBox="0 0 26 22" version="1.1">
<g id="surface1">
<path style=" stroke:none;fill-rule:nonzero;fill:rgb(30.196078%,30.196078%,30.196078%);fill-opacity:1;" d="M 0 0 L 0 5 L 1 5 L 1 1 L 5 1 L 5 5 L 6 5 L 6 1 L 10 1 L 10 5 L 11 5 L 11 1 L 15 1 L 15 5 L 16 5 L 16 1 L 20 1 L 20 5 L 21 5 L 21 1 L 25 1 L 25 5 L 26 5 L 26 0 Z M 0 7 L 0 13 L 12 13 L 12 17 L 9 17 L 13 22 L 17 17 L 14 17 L 14 13 L 26 13 L 26 7 Z M 1 8 L 5 8 L 5 12 L 1 12 Z M 6 8 L 10 8 L 10 12 L 6 12 Z M 11 8 L 15 8 L 15 12 L 11 12 Z M 16 8 L 20 8 L 20 12 L 16 12 Z M 21 8 L 25 8 L 25 12 L 21 12 Z M 21 8 "/>
</g>
</svg>
