<?xml version="1.0" encoding="UTF-8"?>
<svg xmlns="http://www.w3.org/2000/svg" xmlns:xlink="http://www.w3.org/1999/xlink" width="24pt" height="26pt" viewBox="0 0 24 26" version="1.1">
<g id="surface1">
<path style=" stroke:none;fill-rule:nonzero;fill:rgb(11.372549%,60%,95.294118%);fill-opacity:1;" d="M 19 17 L 19 21 L 15 21 L 15 22 L 19 22 L 19 26 L 20 26 L 20 22 L 24 22 L 24 21 L 20 21 L 20 17 Z M 19 17 "/>
<path style=" stroke:none;fill-rule:nonzero;fill:rgb(30.196078%,30.196078%,30.196078%);fill-opacity:1;" d="M 2 0 L 2 21 L 0 21 L 0 22 L 2 22 L 2 24 L 3 24 L 3 22 L 14 22 L 14 21 L 11 21 L 11 4 L 6 4 L 6 21 L 3 21 L 3 0 Z M 15 10 L 15 16 L 20 16 L 20 10 Z M 15 10 "/>
</g>
</svg>
