<?xml version="1.0" encoding="UTF-8"?>
<svg xmlns="http://www.w3.org/2000/svg" xmlns:xlink="http://www.w3.org/1999/xlink" width="25pt" height="24pt" viewBox="0 0 25 24" version="1.1">
<g id="surface1">
<path style=" stroke:none;fill-rule:nonzero;fill:rgb(30.196078%,30.196078%,30.196078%);fill-opacity:1;" d="M 2 0 L 2 21 L 0 21 L 0 22 L 2 22 L 2 24 L 3 24 L 3 22 L 21 22 L 21 24 L 22 24 L 22 22 L 25 22 L 25 21 L 22 21 L 22 0 L 21 0 L 21 21 L 3 21 L 3 0 Z M 5 2 L 5 4 L 11 4 L 11 19 L 13 19 L 13 4 L 19 4 L 19 2 Z M 5 2 "/>
</g>
</svg>
