<?xml version="1.0" encoding="UTF-8"?>
<svg xmlns="http://www.w3.org/2000/svg" xmlns:xlink="http://www.w3.org/1999/xlink" width="24pt" height="24pt" viewBox="0 0 24 24" version="1.1">
<g id="surface1">
<path style=" stroke:none;fill-rule:nonzero;fill:rgb(30.196078%,30.196078%,30.196078%);fill-opacity:1;" d="M 0 0 L 0 8 L 1 8 L 1 5 L 8 5 L 8 8 L 9 8 L 9 5 L 15 5 L 15 8 L 16 8 L 16 5 L 23 5 L 23 8 L 24 8 L 24 0 Z M 1 1 L 8 1 L 8 4 L 1 4 Z M 9 1 L 15 1 L 15 4 L 9 4 Z M 16 1 L 23 1 L 23 4 L 16 4 Z M 0 17 L 0 24 L 24 24 L 24 17 L 23 17 L 23 20 L 16 20 L 16 17 L 15 17 L 15 20 L 9 20 L 9 17 L 8 17 L 8 20 L 1 20 L 1 17 Z M 1 21 L 8 21 L 8 23 L 1 23 Z M 9 21 L 15 21 L 15 23 L 9 23 Z M 16 21 L 23 21 L 23 23 L 16 23 Z M 16 21 "/>
<path style=" stroke:none;fill-rule:nonzero;fill:rgb(11.372549%,60%,95.294118%);fill-opacity:1;" d="M 0 8 L 0 17 L 24 17 L 24 8 Z M 1.65625 9 L 4.34375 9 L 4.617188 9.324219 L 10.34375 16 L 7.660156 16 L 7.378906 15.671875 Z M 5.65625 9 L 8.34375 9 L 8.621094 9.324219 L 13 14.4375 L 13.886719 15.46875 L 14 15.601562 L 14.34375 16 L 11.660156 16 L 11.378906 15.671875 Z M 9.65625 9 L 12.34375 9 L 12.621094 9.324219 L 13 9.769531 L 14 10.9375 L 18.34375 16 L 15.660156 16 L 15.378906 15.671875 L 14 14.0625 L 13 12.898438 Z M 13.65625 9 L 16.34375 9 L 16.621094 9.324219 L 22.34375 16 L 19.660156 16 L 19.378906 15.671875 L 14 9.398438 Z M 17.65625 9 L 20.34375 9 L 20.621094 9.324219 L 23 12.101562 L 23 15.234375 Z M 21.65625 9 L 23 9 L 23 10.566406 Z M 1 9.769531 L 6.34375 16 L 3.660156 16 L 3.378906 15.671875 L 1 12.898438 Z M 1 14.4375 L 2.34375 16 L 1 16 Z M 1 14.4375 "/>
</g>
</svg>
