<?xml version="1.0" encoding="UTF-8"?>
<svg xmlns="http://www.w3.org/2000/svg" xmlns:xlink="http://www.w3.org/1999/xlink" width="22.015625pt" height="24pt" viewBox="0 0 22.015625 24" version="1.1">
<g id="surface1">
<path style=" stroke:none;fill-rule:nonzero;fill:rgb(30.196078%,30.196078%,30.196078%);fill-opacity:1;" d="M 16.5 0 C 9.8125 0 4.277344 4.328125 3.203125 10 L 0 10 L 0 11 L 3.054688 11 C 3.027344 11.332031 3 11.664062 3 12 C 3 12.335938 3.027344 12.667969 3.054688 13 L 0 13 L 0 14 L 3.203125 14 C 4.277344 19.671875 9.8125 24 16.5 24 C 18.402344 23.996094 20.28125 23.636719 22.015625 22.941406 L 21.628906 22.015625 C 20.019531 22.660156 18.269531 22.996094 16.5 23 C 10.375 23 5.285156 19.117188 4.21875 14 L 13 14 L 13 13 L 4.054688 13 C 4.023438 12.671875 4 12.335938 4 12 C 4 11.664062 4.023438 11.328125 4.054688 11 L 15 11 L 15 10 L 4.21875 10 C 5.285156 4.882812 10.375 1 16.5 1 C 18.269531 1.003906 20.019531 1.335938 21.628906 1.980469 L 22.015625 1.0625 C 20.28125 0.367188 18.402344 0.00390625 16.5 0 Z M 16.5 0 "/>
</g>
</svg>
