<?xml version="1.0" encoding="UTF-8"?>
<svg xmlns="http://www.w3.org/2000/svg" xmlns:xlink="http://www.w3.org/1999/xlink" width="20pt" height="24pt" viewBox="0 0 20 24" version="1.1">
<g id="surface1">
<path style=" stroke:none;fill-rule:nonzero;fill:rgb(30.196078%,30.196078%,30.196078%);fill-opacity:1;" d="M 0 0 L 0 24 L 13 24 L 20 17 L 20 0 Z M 1 1 L 19 1 L 19 16 L 12 16 L 12 23 L 1 23 Z M 3 3 L 3 9 L 9 9 L 9 3 Z M 10 4 L 10 5 L 17 5 L 17 4 Z M 10 7 L 10 8 L 15 8 L 15 7 Z M 3 11 L 3 12 L 17 12 L 17 11 Z M 3 15 L 3 16 L 10 16 L 10 15 Z M 3 19 L 3 20 L 10 20 L 10 19 Z M 3 19 "/>
</g>
</svg>
