<?xml version="1.0" encoding="UTF-8"?>
<svg xmlns="http://www.w3.org/2000/svg" xmlns:xlink="http://www.w3.org/1999/xlink" width="24pt" height="24pt" viewBox="0 0 24 24" version="1.1">
<g id="surface1">
<path style=" stroke:none;fill-rule:nonzero;fill:rgb(30.196078%,30.196078%,30.196078%);fill-opacity:1;" d="M 12 0 L 12 4 L 6 4 L 6 9 L 0 9 L 0 24 L 12 24 L 12 19 L 18 19 L 18 15 L 24 15 L 24 0 Z M 13 1 L 23 1 L 23 14 L 18 14 L 18 4 L 13 4 Z M 7 5 L 17 5 L 17 18 L 12 18 L 12 9 L 7 9 Z M 1 10 L 11 10 L 11 23 L 1 23 Z M 1 10 "/>
</g>
</svg>
