<?xml version="1.0" encoding="UTF-8"?>
<svg xmlns="http://www.w3.org/2000/svg" xmlns:xlink="http://www.w3.org/1999/xlink" width="23.039062pt" height="24pt" viewBox="0 0 23.039062 24" version="1.1">
<g id="surface1">
<path style=" stroke:none;fill-rule:nonzero;fill:rgb(30.196078%,30.196078%,30.196078%);fill-opacity:1;" d="M 0 0 L 0 19.5 L 8.085938 19.5 L 4.292969 23.292969 L 5 24 L 10 19 L 5 14 L 4.292969 14.707031 L 8.085938 18.5 L 1 18.5 L 1 1 L 19 1 L 19 23 L 10 23 L 10 24 L 20 24 L 20 0 Z M 0 0 "/>
<path style=" stroke:none;fill-rule:nonzero;fill:rgb(95.686275%,46.666667%,31.372549%);fill-opacity:1;" d="M 22.039062 13.875 C 21.488281 13.875 21.039062 14.324219 21.039062 14.875 C 21.039062 15.425781 21.488281 15.875 22.039062 15.875 C 22.589844 15.875 23.039062 15.425781 23.039062 14.875 C 23.039062 14.324219 22.589844 13.875 22.039062 13.875 Z M 22.039062 17.875 C 21.488281 17.875 21.039062 18.324219 21.039062 18.875 C 21.039062 19.425781 21.488281 19.875 22.039062 19.875 C 22.589844 19.875 23.039062 19.425781 23.039062 18.875 C 23.039062 18.324219 22.589844 17.875 22.039062 17.875 Z M 22.039062 21.875 C 21.488281 21.875 21.039062 22.324219 21.039062 22.875 C 21.039062 23.425781 21.488281 23.875 22.039062 23.875 C 22.589844 23.875 23.039062 23.425781 23.039062 22.875 C 23.039062 22.324219 22.589844 21.875 22.039062 21.875 Z M 22.039062 21.875 "/>
</g>
</svg>
