<?xml version="1.0" encoding="UTF-8"?>
<svg xmlns="http://www.w3.org/2000/svg" xmlns:xlink="http://www.w3.org/1999/xlink" width="24pt" height="24.5pt" viewBox="0 0 24 24.5" version="1.1">
<g id="surface1">
<path style=" stroke:none;fill-rule:nonzero;fill:rgb(30.196078%,30.196078%,30.196078%);fill-opacity:1;" d="M 9.5 1 C 9.222656 1 9 1.222656 9 1.5 C 9 1.777344 9.222656 2 9.5 2 C 9.777344 2 10 1.777344 10 1.5 C 10 1.222656 9.777344 1 9.5 1 Z M 13.5 1 C 13.222656 1 13 1.222656 13 1.5 C 13 1.777344 13.222656 2 13.5 2 C 13.777344 2 14 1.777344 14 1.5 C 14 1.222656 13.777344 1 13.5 1 Z M 6.5 2 C 6.222656 2 6 2.222656 6 2.5 C 6 2.777344 6.222656 3 6.5 3 C 6.777344 3 7 2.777344 7 2.5 C 7 2.222656 6.777344 2 6.5 2 Z M 16.5 2 C 16.222656 2 16 2.222656 16 2.5 C 16 2.777344 16.222656 3 16.5 3 C 16.777344 3 17 2.777344 17 2.5 C 17 2.222656 16.777344 2 16.5 2 Z M 3.5 4 C 3.222656 4 3 4.222656 3 4.5 C 3 4.777344 3.222656 5 3.5 5 C 3.777344 5 4 4.777344 4 4.5 C 4 4.222656 3.777344 4 3.5 4 Z M 1.5 7 C 1.222656 7 1 7.222656 1 7.5 C 1 7.777344 1.222656 8 1.5 8 C 1.777344 8 2 7.777344 2 7.5 C 2 7.222656 1.777344 7 1.5 7 Z M 0.5 10 C 0.222656 10 0 10.222656 0 10.5 C 0 10.777344 0.222656 11 0.5 11 C 0.777344 11 1 10.777344 1 10.5 C 1 10.222656 0.777344 10 0.5 10 Z M 1.5 13 C 1.222656 13 1 13.222656 1 13.5 C 1 13.777344 1.222656 14 1.5 14 C 1.777344 14 2 13.777344 2 13.5 C 2 13.222656 1.777344 13 1.5 13 Z M 19 14.5 L 18.292969 15.207031 L 22.085938 19 L 13 19 L 13 20 L 22.085938 20 L 18.292969 23.792969 L 19 24.5 L 24 19.5 Z M 3.5 16 C 3.222656 16 3 16.222656 3 16.5 C 3 16.777344 3.222656 17 3.5 17 C 3.777344 17 4 16.777344 4 16.5 C 4 16.222656 3.777344 16 3.5 16 Z M 6.5 18 C 6.222656 18 6 18.222656 6 18.5 C 6 18.777344 6.222656 19 6.5 19 C 6.777344 19 7 18.777344 7 18.5 C 7 18.222656 6.777344 18 6.5 18 Z M 9.5 19 C 9.222656 19 9 19.222656 9 19.5 C 9 19.777344 9.222656 20 9.5 20 C 9.777344 20 10 19.777344 10 19.5 C 10 19.222656 9.777344 19 9.5 19 Z M 9.5 19 "/>
<path style=" stroke:none;fill-rule:nonzero;fill:rgb(11.372549%,60%,95.294118%);fill-opacity:1;" d="M 11 0 L 11 24 L 12 24 L 12 0 Z M 11 0 "/>
</g>
</svg>
