<?xml version="1.0" encoding="UTF-8"?>
<svg xmlns="http://www.w3.org/2000/svg" xmlns:xlink="http://www.w3.org/1999/xlink" width="24.5pt" height="24pt" viewBox="0 0 24.5 24" version="1.1">
<g id="surface1">
<path style=" stroke:none;fill-rule:nonzero;fill:rgb(30.196078%,30.196078%,30.196078%);fill-opacity:1;" d="M 19.5 0 L 14.5 5 L 15.207031 5.707031 L 19 1.914062 L 19 11 L 20 11 L 20 1.914062 L 23.792969 5.707031 L 24.5 5 Z M 2.5 7 C 2.222656 7 2 7.222656 2 7.5 C 2 7.777344 2.222656 8 2.5 8 C 2.777344 8 3 7.777344 3 7.5 C 3 7.222656 2.777344 7 2.5 7 Z M 1.5 10 C 1.222656 10 1 10.222656 1 10.5 C 1 10.777344 1.222656 11 1.5 11 C 1.777344 11 2 10.777344 2 10.5 C 2 10.222656 1.777344 10 1.5 10 Z M 1.5 14 C 1.222656 14 1 14.222656 1 14.5 C 1 14.777344 1.222656 15 1.5 15 C 1.777344 15 2 14.777344 2 14.5 C 2 14.222656 1.777344 14 1.5 14 Z M 19.5 14 C 19.222656 14 19 14.222656 19 14.5 C 19 14.777344 19.222656 15 19.5 15 C 19.777344 15 20 14.777344 20 14.5 C 20 14.222656 19.777344 14 19.5 14 Z M 2.5 17 C 2.222656 17 2 17.222656 2 17.5 C 2 17.777344 2.222656 18 2.5 18 C 2.777344 18 3 17.777344 3 17.5 C 3 17.222656 2.777344 17 2.5 17 Z M 18.5 17 C 18.222656 17 18 17.222656 18 17.5 C 18 17.777344 18.222656 18 18.5 18 C 18.777344 18 19 17.777344 19 17.5 C 19 17.222656 18.777344 17 18.5 17 Z M 4.5 20 C 4.222656 20 4 20.222656 4 20.5 C 4 20.777344 4.222656 21 4.5 21 C 4.777344 21 5 20.777344 5 20.5 C 5 20.222656 4.777344 20 4.5 20 Z M 16.5 20 C 16.222656 20 16 20.222656 16 20.5 C 16 20.777344 16.222656 21 16.5 21 C 16.777344 21 17 20.777344 17 20.5 C 17 20.222656 16.777344 20 16.5 20 Z M 7.5 22 C 7.222656 22 7 22.222656 7 22.5 C 7 22.777344 7.222656 23 7.5 23 C 7.777344 23 8 22.777344 8 22.5 C 8 22.222656 7.777344 22 7.5 22 Z M 13.5 22 C 13.222656 22 13 22.222656 13 22.5 C 13 22.777344 13.222656 23 13.5 23 C 13.777344 23 14 22.777344 14 22.5 C 14 22.222656 13.777344 22 13.5 22 Z M 10.5 23 C 10.222656 23 10 23.222656 10 23.5 C 10 23.777344 10.222656 24 10.5 24 C 10.777344 24 11 23.777344 11 23.5 C 11 23.222656 10.777344 23 10.5 23 Z M 10.5 23 "/>
<path style=" stroke:none;fill-rule:nonzero;fill:rgb(11.372549%,60%,95.294118%);fill-opacity:1;" d="M 0 12 L 0 13 L 24 13 L 24 12 Z M 0 12 "/>
</g>
</svg>
