<?xml version="1.0" encoding="UTF-8"?>
<svg xmlns="http://www.w3.org/2000/svg" xmlns:xlink="http://www.w3.org/1999/xlink" width="24pt" height="24pt" viewBox="0 0 24 24" version="1.1">
<g id="surface1">
<path style=" stroke:none;fill-rule:nonzero;fill:rgb(70.196078%,70.196078%,70.196078%);fill-opacity:1;" d="M 9.882812 0 L 0 10 L 15 10 L 15 24 L 24 13.5 L 24 0 Z M 9.882812 0 "/>
<path style=" stroke:none;fill-rule:nonzero;fill:rgb(30.196078%,30.196078%,30.196078%);fill-opacity:1;" d="M 9 0 L 0 10 L 0 24 L 15 24 L 24 14 L 24 0 Z M 9.449219 1 L 22.324219 1 L 14.222656 10 L 8.824219 10 L 11.644531 7 L 14.46875 7 L 13.058594 4 L 6 7 L 8.824219 7 L 6 10 L 1.347656 10 Z M 23 1.746094 L 23 13.613281 L 15 22.503906 L 15 10.636719 Z M 1 11 L 14 11 L 14 23 L 1 23 Z M 1 11 "/>
</g>
</svg>
