<?xml version="1.0" encoding="UTF-8"?>
<svg xmlns="http://www.w3.org/2000/svg" xmlns:xlink="http://www.w3.org/1999/xlink" width="24pt" height="24pt" viewBox="0 0 24 24" version="1.1">
<g id="surface1">
<path style=" stroke:none;fill-rule:nonzero;fill:rgb(70.196078%,70.196078%,70.196078%);fill-opacity:1;" d="M 5 0 L 0 5 L 0 24 L 19 24 L 24 19 L 24 0 Z M 5 0 "/>
<path style=" stroke:none;fill-rule:nonzero;fill:rgb(30.196078%,30.196078%,30.196078%);fill-opacity:1;" d="M 4.648438 0 L 0 4.648438 L 0 24 L 19 24 L 24 19 L 24 0 Z M 6 1 L 22.292969 1 L 18.292969 5 L 6 5 Z M 5 1.0625 L 5 5 L 1.0625 5 Z M 23 1.707031 L 23 18 L 19 18 L 19 5.707031 Z M 1 6 L 5 6 L 5 18.292969 L 1 22.292969 Z M 6 6 L 18 6 L 18 18 L 6 18 Z M 5.707031 19 L 18 19 L 18 23 L 1.707031 23 Z M 19 19 L 22.585938 19 L 19 22.585938 Z M 19 19 "/>
</g>
</svg>
