<?xml version="1.0" encoding="UTF-8"?>
<svg xmlns="http://www.w3.org/2000/svg" xmlns:xlink="http://www.w3.org/1999/xlink" width="24pt" height="24.5pt" viewBox="0 0 24 24.5" version="1.1">
<g id="surface1">
<path style=" stroke:none;fill-rule:nonzero;fill:rgb(11.372549%,60%,95.294118%);fill-opacity:1;" d="M 12 0.5 L 12 24.5 L 13 24.5 L 13 0.5 Z M 12 0.5 "/>
<path style=" stroke:none;fill-rule:nonzero;fill:rgb(30.196078%,30.196078%,30.196078%);fill-opacity:1;" d="M 5 0 L 0 5 L 5 10 L 5.707031 9.292969 L 1.914062 5.5 L 11 5.5 L 11 4.5 L 1.914062 4.5 L 5.707031 0.707031 Z M 14.5 4.5 C 14.222656 4.5 14 4.722656 14 5 C 14 5.277344 14.222656 5.5 14.5 5.5 C 14.777344 5.5 15 5.277344 15 5 C 15 4.722656 14.777344 4.5 14.5 4.5 Z M 17.5 5.5 C 17.222656 5.5 17 5.722656 17 6 C 17 6.277344 17.222656 6.5 17.5 6.5 C 17.777344 6.5 18 6.277344 18 6 C 18 5.722656 17.777344 5.5 17.5 5.5 Z M 20.5 7.5 C 20.222656 7.5 20 7.722656 20 8 C 20 8.277344 20.222656 8.5 20.5 8.5 C 20.777344 8.5 21 8.277344 21 8 C 21 7.722656 20.777344 7.5 20.5 7.5 Z M 22.5 10.5 C 22.222656 10.5 22 10.722656 22 11 C 22 11.277344 22.222656 11.5 22.5 11.5 C 22.777344 11.5 23 11.277344 23 11 C 23 10.722656 22.777344 10.5 22.5 10.5 Z M 23.5 13.5 C 23.222656 13.5 23 13.722656 23 14 C 23 14.277344 23.222656 14.5 23.5 14.5 C 23.777344 14.5 24 14.277344 24 14 C 24 13.722656 23.777344 13.5 23.5 13.5 Z M 22.5 16.5 C 22.222656 16.5 22 16.722656 22 17 C 22 17.277344 22.222656 17.5 22.5 17.5 C 22.777344 17.5 23 17.277344 23 17 C 23 16.722656 22.777344 16.5 22.5 16.5 Z M 20.5 19.5 C 20.222656 19.5 20 19.722656 20 20 C 20 20.277344 20.222656 20.5 20.5 20.5 C 20.777344 20.5 21 20.277344 21 20 C 21 19.722656 20.777344 19.5 20.5 19.5 Z M 7.5 21.5 C 7.222656 21.5 7 21.722656 7 22 C 7 22.277344 7.222656 22.5 7.5 22.5 C 7.777344 22.5 8 22.277344 8 22 C 8 21.722656 7.777344 21.5 7.5 21.5 Z M 17.5 21.5 C 17.222656 21.5 17 21.722656 17 22 C 17 22.277344 17.222656 22.5 17.5 22.5 C 17.777344 22.5 18 22.277344 18 22 C 18 21.722656 17.777344 21.5 17.5 21.5 Z M 10.5 22.5 C 10.222656 22.5 10 22.722656 10 23 C 10 23.277344 10.222656 23.5 10.5 23.5 C 10.777344 23.5 11 23.277344 11 23 C 11 22.722656 10.777344 22.5 10.5 22.5 Z M 14.5 22.5 C 14.222656 22.5 14 22.722656 14 23 C 14 23.277344 14.222656 23.5 14.5 23.5 C 14.777344 23.5 15 23.277344 15 23 C 15 22.722656 14.777344 22.5 14.5 22.5 Z M 14.5 22.5 "/>
</g>
</svg>
