<?xml version="1.0" encoding="UTF-8"?>
<svg xmlns="http://www.w3.org/2000/svg" xmlns:xlink="http://www.w3.org/1999/xlink" width="24pt" height="24pt" viewBox="0 0 24 24" version="1.1">
<g id="surface1">
<path style=" stroke:none;fill-rule:nonzero;fill:rgb(70.196078%,70.196078%,70.196078%);fill-opacity:1;" d="M 24 0 L 18 6 L 0 6 L 0 24 L 19 24 L 24 19 Z M 24 0 "/>
<path style=" stroke:none;fill-rule:nonzero;fill:rgb(30.196078%,30.196078%,30.196078%);fill-opacity:1;" d="M 4.648438 0 L 0 4.648438 L 0 24 L 19 24 L 24 19 L 24 0 Z M 6 1 L 22.292969 1 L 18.292969 5 L 1.0625 5 L 5 1.0625 Z M 23 1.707031 L 23 18.621094 L 22.585938 19 L 19 22.585938 L 19 5.707031 Z M 1 6 L 18 6 L 18 23 L 12 23 L 12 15 L 14 15 L 10 10 L 6 15 L 8 15 L 8 23 L 1 23 Z M 1 6 "/>
</g>
</svg>
