<?xml version="1.0" encoding="UTF-8"?>
<svg xmlns="http://www.w3.org/2000/svg" xmlns:xlink="http://www.w3.org/1999/xlink" width="24.5pt" height="24pt" viewBox="0 0 24.5 24" version="1.1">
<g id="surface1">
<path style=" stroke:none;fill-rule:nonzero;fill:rgb(11.372549%,60%,95.294118%);fill-opacity:1;" d="M 0.5 11 L 0.5 12 L 24.5 12 L 24.5 11 Z M 0.5 11 "/>
<path style=" stroke:none;fill-rule:nonzero;fill:rgb(30.196078%,30.196078%,30.196078%);fill-opacity:1;" d="M 14 0 C 13.722656 0 13.5 0.222656 13.5 0.5 C 13.5 0.777344 13.722656 1 14 1 C 14.277344 1 14.5 0.777344 14.5 0.5 C 14.5 0.222656 14.277344 0 14 0 Z M 11 1 C 10.722656 1 10.5 1.222656 10.5 1.5 C 10.5 1.777344 10.722656 2 11 2 C 11.277344 2 11.5 1.777344 11.5 1.5 C 11.5 1.222656 11.277344 1 11 1 Z M 17 1 C 16.722656 1 16.5 1.222656 16.5 1.5 C 16.5 1.777344 16.722656 2 17 2 C 17.277344 2 17.5 1.777344 17.5 1.5 C 17.5 1.222656 17.277344 1 17 1 Z M 8 3 C 7.722656 3 7.5 3.222656 7.5 3.5 C 7.5 3.777344 7.722656 4 8 4 C 8.277344 4 8.5 3.777344 8.5 3.5 C 8.5 3.222656 8.277344 3 8 3 Z M 20 3 C 19.722656 3 19.5 3.222656 19.5 3.5 C 19.5 3.777344 19.722656 4 20 4 C 20.277344 4 20.5 3.777344 20.5 3.5 C 20.5 3.222656 20.277344 3 20 3 Z M 6 6 C 5.722656 6 5.5 6.222656 5.5 6.5 C 5.5 6.777344 5.722656 7 6 7 C 6.277344 7 6.5 6.777344 6.5 6.5 C 6.5 6.222656 6.277344 6 6 6 Z M 22 6 C 21.722656 6 21.5 6.222656 21.5 6.5 C 21.5 6.777344 21.722656 7 22 7 C 22.277344 7 22.5 6.777344 22.5 6.5 C 22.5 6.222656 22.277344 6 22 6 Z M 5 9 C 4.722656 9 4.5 9.222656 4.5 9.5 C 4.5 9.777344 4.722656 10 5 10 C 5.277344 10 5.5 9.777344 5.5 9.5 C 5.5 9.222656 5.277344 9 5 9 Z M 23 9 C 22.722656 9 22.5 9.222656 22.5 9.5 C 22.5 9.777344 22.722656 10 23 10 C 23.277344 10 23.5 9.777344 23.5 9.5 C 23.5 9.222656 23.277344 9 23 9 Z M 4.5 13 L 4.5 22.085938 L 0.707031 18.292969 L 0 19 L 5 24 L 10 19 L 9.292969 18.292969 L 5.5 22.085938 L 5.5 13 Z M 23 13 C 22.722656 13 22.5 13.222656 22.5 13.5 C 22.5 13.777344 22.722656 14 23 14 C 23.277344 14 23.5 13.777344 23.5 13.5 C 23.5 13.222656 23.277344 13 23 13 Z M 22 16 C 21.722656 16 21.5 16.222656 21.5 16.5 C 21.5 16.777344 21.722656 17 22 17 C 22.277344 17 22.5 16.777344 22.5 16.5 C 22.5 16.222656 22.277344 16 22 16 Z M 22 16 "/>
</g>
</svg>
