<?xml version="1.0" encoding="UTF-8"?>
<svg xmlns="http://www.w3.org/2000/svg" xmlns:xlink="http://www.w3.org/1999/xlink" width="24pt" height="24pt" viewBox="0 0 24 24" version="1.1">
<g id="surface1">
<path style=" stroke:none;fill-rule:nonzero;fill:rgb(30.196078%,30.196078%,30.196078%);fill-opacity:1;" d="M 11 0 L 11 3 L 13 3 L 13 0 Z M 4.222656 2.804688 L 2.804688 4.222656 L 4.929688 6.34375 L 6.34375 4.929688 Z M 19.777344 2.804688 L 17.65625 4.929688 L 19.070312 6.34375 L 21.191406 4.222656 Z M 12 4 C 7.582031 4 4 7.582031 4 12 C 4 16.417969 7.582031 20 12 20 C 16.417969 20 20 16.417969 20 12 C 20 7.582031 16.417969 4 12 4 Z M 12 5 C 15.867188 5 19 8.132812 19 12 C 19 15.867188 15.867188 19 12 19 C 8.132812 19 5 15.867188 5 12 C 5 8.132812 8.132812 5 12 5 Z M 0 11 L 0 13 L 3 13 L 3 11 Z M 21 11 L 21 13 L 24 13 L 24 11 Z M 4.929688 17.65625 L 2.804688 19.777344 L 4.222656 21.191406 L 6.34375 19.070312 Z M 19.070312 17.65625 L 17.65625 19.070312 L 19.777344 21.191406 L 21.191406 19.777344 Z M 11 21 L 11 24 L 13 24 L 13 21 Z M 11 21 "/>
</g>
</svg>
