<?xml version="1.0" encoding="UTF-8"?>
<svg xmlns="http://www.w3.org/2000/svg" xmlns:xlink="http://www.w3.org/1999/xlink" width="24pt" height="24pt" viewBox="0 0 24 24" version="1.1">
<g id="surface1">
<path style=" stroke:none;fill-rule:nonzero;fill:rgb(70.196078%,70.196078%,70.196078%);fill-opacity:1;" d="M 8 0 L 1 6 L 17 6 L 17 20 L 24 14 L 24 0 Z M 8 0 "/>
<path style=" stroke:none;fill-rule:nonzero;fill:rgb(30.196078%,30.196078%,30.196078%);fill-opacity:1;" d="M 7 0 L 0 6 L 0 20 L 17 20 L 24 14 L 24 0 Z M 7.371094 1 L 22.230469 1 L 16.394531 6 L 1.539062 6 Z M 23 1.65625 L 23 13.539062 L 17 18.683594 L 17 6.796875 Z M 1 7 L 16 7 L 16 19 L 1 19 Z M 0 22 L 0 24 L 24 24 L 24 22 Z M 0 22 "/>
</g>
</svg>
