<?xml version="1.0" encoding="UTF-8"?>
<svg xmlns="http://www.w3.org/2000/svg" xmlns:xlink="http://www.w3.org/1999/xlink" width="24pt" height="24pt" viewBox="0 0 24 24" version="1.1">
<g id="surface1">
<path style=" stroke:none;fill-rule:nonzero;fill:rgb(30.196078%,30.196078%,30.196078%);fill-opacity:1;" d="M 6 0 C 2.6875 0 0 5.371094 0 12 C 0 18.628906 2.6875 24 6 24 L 16.5 24 C 16.496094 23.984375 16.496094 23.964844 16.492188 23.949219 C 13.386719 23.421875 11.003906 18.230469 11 12 C 11 5.769531 13.386719 0.578125 16.492188 0.046875 C 16.496094 0.03125 16.496094 0.015625 16.5 0 Z M 18 0 C 14.6875 0 12 5.371094 12 12 C 12 18.628906 14.6875 24 18 24 C 21.3125 24 24 18.628906 24 12 C 24 5.371094 21.3125 0 18 0 Z M 18 0 "/>
</g>
</svg>
