<?xml version="1.0" encoding="UTF-8"?>
<svg xmlns="http://www.w3.org/2000/svg" xmlns:xlink="http://www.w3.org/1999/xlink" width="24pt" height="22pt" viewBox="0 0 24 22" version="1.1">
<g id="surface1">
<path style=" stroke:none;fill-rule:nonzero;fill:rgb(30.196078%,30.196078%,30.196078%);fill-opacity:1;" d="M 12 0 C 6.753906 0 2.234375 3.585938 0 8.828125 L 3.394531 10.914062 C 4.636719 7.109375 7.632812 4.351562 11.191406 3.949219 C 14.828125 3.535156 18.613281 5.96875 20.589844 10.921875 L 24 8.828125 C 23.738281 8.210938 23.441406 7.617188 23.117188 7.050781 C 23.078125 6.988281 23.042969 6.921875 23.003906 6.859375 C 22.976562 6.808594 22.945312 6.761719 22.917969 6.710938 C 21.085938 3.8125 18.480469 1.632812 15.609375 0.59375 C 14.464844 0.210938 13.253906 0 12 0 Z M 20.589844 11.078125 C 18.613281 16.03125 14.828125 18.464844 11.191406 18.050781 C 7.632812 17.648438 4.636719 14.890625 3.394531 11.085938 L 0 13.171875 C 2.234375 18.414062 6.753906 22 12 22 C 13.253906 22 14.464844 21.789062 15.609375 21.40625 C 18.480469 20.367188 21.085938 18.1875 22.917969 15.285156 C 22.945312 15.238281 22.976562 15.191406 23.003906 15.140625 C 23.042969 15.078125 23.078125 15.011719 23.117188 14.949219 C 23.441406 14.382812 23.738281 13.789062 24 13.171875 Z M 20.589844 11.078125 "/>
</g>
</svg>
