<?xml version="1.0" encoding="UTF-8"?>
<svg xmlns="http://www.w3.org/2000/svg" xmlns:xlink="http://www.w3.org/1999/xlink" width="26pt" height="24pt" viewBox="0 0 26 24" version="1.1">
<g id="surface1">
<path style=" stroke:none;fill-rule:nonzero;fill:rgb(30.196078%,30.196078%,30.196078%);fill-opacity:1;" d="M 0 0 L 0 1 L 26 1 L 26 0 Z M 5.726562 4 L 1.859375 14.964844 L 1.71875 15.425781 L 0 20 L 2 20 L 4.011719 14.625 L 10.082031 14.652344 L 12.03125 20 L 14 20 L 12.28125 15.425781 L 12.140625 14.964844 L 8.269531 4 Z M 6.960938 5.640625 L 9.824219 13.464844 L 4.390625 13.464844 Z M 20.667969 6.265625 C 18.773438 6.265625 17.066406 6.601562 15.546875 7.273438 L 16.152344 8.828125 C 16.804688 8.527344 17.546875 8.300781 18.375 8.140625 C 19.207031 7.96875 19.984375 7.882812 20.707031 7.882812 C 21.777344 7.882812 22.5625 8.125 23.050781 8.609375 C 23.554688 9.09375 23.800781 9.828125 23.800781 10.8125 L 23.800781 12.136719 L 21.539062 12.136719 C 19.261719 12.136719 17.601562 12.480469 16.554688 13.167969 C 15.519531 13.84375 15 14.914062 15 16.375 C 15 17.59375 15.394531 18.550781 16.179688 19.234375 C 16.976562 19.921875 18.023438 20.265625 19.328125 20.265625 C 21.273438 20.265625 22.855469 19.558594 24.070312 18.140625 L 24.3125 20 L 26 20 L 26 11.117188 C 26 9.402344 25.535156 8.167969 24.609375 7.410156 C 23.6875 6.648438 22.375 6.265625 20.667969 6.265625 Z M 22.101562 13.535156 L 23.800781 13.535156 L 23.800781 16.5 C 22.738281 17.984375 21.292969 18.726562 19.460938 18.726562 C 18.792969 18.726562 18.234375 18.523438 17.785156 18.117188 C 17.339844 17.710938 17.117188 17.132812 17.117188 16.386719 C 17.117188 15.96875 17.15625 15.621094 17.238281 15.34375 C 17.320312 15.054688 17.464844 14.789062 17.679688 14.550781 C 17.894531 14.308594 18.1875 14.117188 18.5625 13.980469 C 18.941406 13.835938 19.417969 13.726562 20 13.648438 C 20.578125 13.570312 21.28125 13.535156 22.101562 13.535156 Z M 0 23 L 0 24 L 26 24 L 26 23 Z M 0 23 "/>
</g>
</svg>
