<?xml version="1.0" encoding="UTF-8"?>
<svg xmlns="http://www.w3.org/2000/svg" xmlns:xlink="http://www.w3.org/1999/xlink" width="22pt" height="24pt" viewBox="0 0 22 24" version="1.1">
<g id="surface1">
<path style=" stroke:none;fill-rule:nonzero;fill:rgb(30.196078%,30.196078%,30.196078%);fill-opacity:1;" d="M 9 0 L 0.0703125 23.824219 L 0 24 L 2 24 L 5.390625 15 L 14.609375 15 L 18 24 L 20 24 L 19.929688 23.824219 L 11 0 Z M 10 2.402344 L 13.847656 13 L 6.152344 13 Z M 10 2.402344 "/>
<path style=" stroke:none;fill-rule:nonzero;fill:rgb(95.686275%,46.666667%,31.372549%);fill-opacity:1;" d="M 21 0 C 20.449219 0 20 0.449219 20 1 C 20 1.550781 20.449219 2 21 2 C 21.550781 2 22 1.550781 22 1 C 22 0.449219 21.550781 0 21 0 Z M 21 4 C 20.449219 4 20 4.449219 20 5 C 20 5.550781 20.449219 6 21 6 C 21.550781 6 22 5.550781 22 5 C 22 4.449219 21.550781 4 21 4 Z M 21 8 C 20.449219 8 20 8.449219 20 9 C 20 9.550781 20.449219 10 21 10 C 21.550781 10 22 9.550781 22 9 C 22 8.449219 21.550781 8 21 8 Z M 21 8 "/>
</g>
</svg>
