<?xml version="1.0" encoding="UTF-8"?>
<svg xmlns="http://www.w3.org/2000/svg" xmlns:xlink="http://www.w3.org/1999/xlink" width="24pt" height="14pt" viewBox="0 0 24 14" version="1.1">
<g id="surface1">
<path style=" stroke:none;fill-rule:nonzero;fill:rgb(30.196078%,30.196078%,30.196078%);fill-opacity:1;" d="M 12 0 C 6.753906 0 2.234375 3.585938 0 8.828125 L 3.394531 10.914062 C 4.636719 7.109375 7.632812 4.351562 11.191406 3.949219 C 14.828125 3.535156 18.613281 5.96875 20.589844 10.921875 L 24 8.828125 C 23.738281 8.210938 23.441406 7.617188 23.117188 7.050781 C 23.078125 6.988281 23.042969 6.921875 23.003906 6.859375 C 22.976562 6.808594 22.945312 6.761719 22.917969 6.714844 C 21.085938 3.8125 18.480469 1.632812 15.609375 0.59375 C 14.464844 0.210938 13.253906 0 12 0 Z M 6 12 L 6 14 L 17.996094 14 L 17.996094 12 Z M 6 12 "/>
</g>
</svg>
