<?xml version="1.0" encoding="UTF-8"?>
<svg xmlns="http://www.w3.org/2000/svg" xmlns:xlink="http://www.w3.org/1999/xlink" width="24pt" height="24pt" viewBox="0 0 24 24" version="1.1">
<g id="surface1">
<path style=" stroke:none;fill-rule:nonzero;fill:rgb(30.196078%,30.196078%,30.196078%);fill-opacity:1;" d="M 0 0 L 0 4 L 1 4 L 1 1 L 4 1 L 4 0 Z M 20 0 L 20 1 L 23 1 L 23 4 L 24 4 L 24 0 Z M 7 3 C 4.789062 3 3 4.789062 3 7 C 3 9.210938 4.789062 11 7 11 C 9.210938 11 11 9.210938 11 7 C 11 4.789062 9.210938 3 7 3 Z M 13 3 L 13 11 L 21 11 L 21 3 Z M 4 13 L 4 21 L 10 21 L 10 13 Z M 17 13 L 13 21 L 21 21 Z M 0 20 L 0 24 L 4 24 L 4 23 L 1 23 L 1 20 Z M 23 20 L 23 23 L 20 23 L 20 24 L 24 24 L 24 20 Z M 23 20 "/>
</g>
</svg>
