<?xml version="1.0" encoding="UTF-8"?>
<svg xmlns="http://www.w3.org/2000/svg" xmlns:xlink="http://www.w3.org/1999/xlink" width="23pt" height="25pt" viewBox="0 0 23 25" version="1.1">
<g id="surface1">
<path style=" stroke:none;fill-rule:nonzero;fill:rgb(30.196078%,30.196078%,30.196078%);fill-opacity:1;" d="M 11 0 C 8.789062 0 7 1.789062 7 4 L 7 8.515625 L 0 15.515625 L 8.484375 24 L 19.09375 13.390625 L 15 9.300781 L 15 4 C 15 1.789062 13.210938 0 11 0 Z M 11 1 C 12.65625 1 14 2.34375 14 4 L 14 8.300781 L 10.609375 4.90625 L 8 7.515625 L 8 4 C 8 2.34375 9.34375 1 11 1 Z M 10.609375 6.320312 L 17.640625 13.355469 C 12.855469 17.851562 8.671875 11.085938 2.476562 14.453125 Z M 20 15 C 19.417969 17.128906 17.988281 18.957031 17.359375 20.421875 C 17.136719 20.859375 17 21.347656 17 21.875 C 17 23.605469 18.335938 25 20 25 C 21.664062 25 23 23.605469 23 21.875 C 23 21.347656 22.863281 20.855469 22.640625 20.421875 C 22.011719 18.957031 20.582031 17.128906 20 15 Z M 20 15 "/>
</g>
</svg>
