<?xml version="1.0" encoding="UTF-8"?>
<svg xmlns="http://www.w3.org/2000/svg" xmlns:xlink="http://www.w3.org/1999/xlink" width="16pt" height="24pt" viewBox="0 0 16 24" version="1.1">
<g id="surface1">
<path style=" stroke:none;fill-rule:nonzero;fill:rgb(30.196078%,30.196078%,30.196078%);fill-opacity:1;" d="M 6 0 L 6 2.132812 C 4.519531 2.320312 3.15625 2.734375 2.082031 3.492188 C -1.445312 6.335938 -0.0195312 9.28125 3.097656 10.984375 C 4.027344 11.476562 5.027344 11.839844 6 12.152344 L 6 20.238281 C 4.375 20.035156 2.566406 19.605469 0.625 18.890625 L 0 20.390625 C 2.144531 21.179688 4.160156 21.664062 6 21.875 L 6 24 L 7 24 L 7 21.953125 C 7.695312 22 8.363281 22.003906 9 21.964844 L 9 24 L 10 24 L 10 21.875 C 10.355469 21.824219 10.699219 21.769531 11.03125 21.691406 C 16.363281 20.339844 16.832031 16.867188 15.089844 14.472656 C 14.542969 13.816406 13.808594 13.3125 13.015625 12.890625 C 12.023438 12.355469 10.976562 11.984375 10 11.675781 L 10 3.757812 C 11.851562 3.988281 13.710938 4.503906 15.199219 5.242188 L 16 3.820312 C 14.234375 2.9375 12.117188 2.351562 10 2.117188 L 10 0 L 9 0 L 9 2.039062 C 8.320312 2 7.65625 2 7 2.039062 L 7 0 Z M 7.546875 3.617188 C 8.019531 3.609375 8.507812 3.625 9 3.660156 L 9 11.371094 C 8.808594 11.3125 8.558594 11.230469 8.390625 11.183594 C 7.960938 11.0625 7.472656 10.90625 7 10.761719 L 7 3.65625 C 7.183594 3.640625 7.359375 3.625 7.546875 3.617188 Z M 6 3.761719 L 6 10.445312 C 5.277344 10.195312 4.5625 9.910156 3.941406 9.582031 C 1.753906 8.367188 1.15625 6.1875 3.109375 4.777344 C 3.8125 4.28125 4.828125 3.941406 6 3.761719 Z M 7 12.453125 C 7.296875 12.539062 7.628906 12.648438 7.898438 12.722656 C 8.210938 12.8125 8.625 12.949219 9 13.0625 L 9 20.347656 C 8.378906 20.386719 7.710938 20.382812 7 20.332031 Z M 10 13.375 C 10.746094 13.632812 11.507812 13.933594 12.171875 14.289062 C 12.839844 14.648438 13.398438 15.054688 13.734375 15.464844 C 14.824219 18.058594 12.867188 19.605469 10.632812 20.128906 C 10.433594 20.171875 10.214844 20.203125 10 20.238281 Z M 10 13.375 "/>
</g>
</svg>
