<?xml version="1.0" encoding="UTF-8"?>
<svg xmlns="http://www.w3.org/2000/svg" xmlns:xlink="http://www.w3.org/1999/xlink" width="23pt" height="24.003906pt" viewBox="0 0 23 24.003906" version="1.1">
<g id="surface1">
<path style=" stroke:none;fill-rule:nonzero;fill:rgb(30.196078%,30.196078%,30.196078%);fill-opacity:1;" d="M 1.292969 0 L 0 1.292969 L 0 3.832031 C 0.0546875 3.871094 8 14.5 8 14.5 L 8 19.507812 L 10 21.007812 L 10 19.757812 C 9.65625 19.5 9.320312 19.25 9 19.007812 L 9 14.167969 L 1 3.5 L 1 1.707031 L 1.707031 1 L 20.292969 1 L 21 1.707031 L 21 3.5 L 15.375 11.003906 L 16.621094 11.003906 L 22 3.832031 L 22 1.292969 L 20.707031 0 Z M 2 2 L 7 8.5 C 6.984375 8.503906 7 5 7 5 L 10 2 Z M 2 2 "/>
<path style=" stroke:none;fill-rule:nonzero;fill:rgb(11.372549%,60%,95.294118%);fill-opacity:1;" d="M 17 12.003906 C 13.6875 12.003906 11 14.691406 11 18.003906 C 11 21.316406 13.6875 24.003906 17 24.003906 C 20.3125 24.003906 23 21.316406 23 18.003906 C 23 14.691406 20.3125 12.003906 17 12.003906 Z M 17 13.003906 C 19.761719 13.003906 22 15.242188 22 18.003906 C 22 20.765625 19.761719 23.003906 17 23.003906 C 14.238281 23.003906 12 20.765625 12 18.003906 C 12 15.242188 14.238281 13.003906 17 13.003906 Z M 20 15.003906 L 17 16.003906 C 15.953125 16.003906 15 16.957031 15 18.003906 L 14 21.003906 L 17 20.003906 C 18.046875 20.003906 19 19.050781 19 18.003906 Z M 17 17.003906 C 17.523438 17.003906 18 17.480469 18 18.003906 C 18 18.527344 17.523438 19.003906 17 19.003906 C 16.476562 19.003906 16 18.527344 16 18.003906 C 16 17.480469 16.476562 17.003906 17 17.003906 Z M 17 17.003906 "/>
</g>
</svg>
