<?xml version="1.0" encoding="UTF-8"?>
<svg xmlns="http://www.w3.org/2000/svg" xmlns:xlink="http://www.w3.org/1999/xlink" width="23pt" height="24.003906pt" viewBox="0 0 23 24.003906" version="1.1">
<g id="surface1">
<path style=" stroke:none;fill-rule:nonzero;fill:rgb(30.196078%,30.196078%,30.196078%);fill-opacity:1;" d="M 1.292969 0 L 0 1.292969 L 0 3.832031 C 0.0546875 3.871094 8 14.5 8 14.5 L 8 19.507812 L 10 21.007812 L 10 19.757812 C 9.65625 19.5 9.320312 19.25 9 19.007812 L 9 14.167969 L 1 3.5 L 1 1.707031 L 1.707031 1 L 20.292969 1 L 21 1.707031 L 21 3.5 L 13 14.167969 L 13 17.003906 L 14 17.003906 L 14 14.5 L 22 3.832031 L 22 1.292969 L 20.707031 0 Z M 2 2 L 7 8.5 C 6.984375 8.503906 7 5 7 5 L 10 2 Z M 2 2 "/>
<path style=" stroke:none;fill-rule:nonzero;fill:rgb(11.372549%,60%,95.294118%);fill-opacity:1;" d="M 22.273438 15.003906 L 14.636719 22.566406 L 11.726562 19.683594 L 11 20.40625 L 13.90625 23.285156 L 14.636719 24.003906 L 15.726562 22.925781 L 23 15.722656 Z M 22.273438 15.003906 "/>
</g>
</svg>
