<?xml version="1.0" encoding="UTF-8"?>
<svg xmlns="http://www.w3.org/2000/svg" xmlns:xlink="http://www.w3.org/1999/xlink" width="24.000228pt" height="24.047083pt" viewBox="0 0 24.000228 24.047083" version="1.1">
<g id="surface1">
<path style=" stroke:none;fill-rule:nonzero;fill:rgb(30.196078%,30.196078%,30.196078%);fill-opacity:1;" d="M 13.4375 0 L 0 13.4375 L 0 19.09375 L 5.65625 19.09375 L 19.09375 5.65625 Z M 12.730469 2.125 L 16.96875 6.363281 L 9.902344 13.4375 L 5.65625 9.191406 Z M 4.949219 9.902344 L 9.191406 14.140625 L 7.777344 15.558594 L 3.535156 11.3125 L 4.242188 10.609375 Z M 2.828125 12.019531 L 7.070312 16.265625 L 5.65625 17.675781 L 1.414062 13.4375 Z M 20.25 16.546875 C 19.855469 16.546875 18.816406 16.617188 17.15625 17.390625 C 16.632812 17.632812 16.199219 17.90625 15.609375 18.234375 C 15.289062 18.410156 14.15625 18.976562 13.734375 19.171875 C 12.492188 19.746094 12.082031 19.890625 11.015625 20.296875 C 9.980469 20.6875 8.867188 21.046875 8.109375 21.328125 C 4.925781 22.519531 0 22.546875 0 22.546875 L 0 24.046875 C 0 24.046875 4.992188 24.09375 8.625 22.734375 C 9.105469 22.554688 9.945312 22.257812 10.734375 21.984375 C 11.945312 21.542969 13.25 21 14.34375 20.53125 C 14.796875 20.320312 15.859375 19.792969 16.3125 19.546875 C 16.972656 19.183594 17.410156 18.914062 17.765625 18.75 C 18.535156 18.296875 19.390625 18.027344 20.25 18.046875 C 20.179688 18.046875 20.507812 18.0625 20.8125 18.1875 C 21.113281 18.3125 21.449219 18.539062 21.703125 18.75 C 22.191406 19.246094 22.398438 19.628906 22.5 20.296875 C 22.460938 21.320312 22.105469 21.640625 21.375 22.21875 C 20.886719 22.539062 20.203125 22.597656 19.5 22.550781 L 19.5 24.003906 C 20.675781 24.007812 21.617188 23.773438 22.171875 23.484375 C 23.425781 22.769531 24.042969 21.480469 24 20.25 C 23.992188 19.816406 23.882812 19.460938 23.671875 18.984375 C 23.457031 18.507812 23.152344 17.96875 22.6875 17.578125 C 21.960938 16.941406 21.601562 16.664062 20.25 16.546875 Z M 20.25 16.546875 "/>
</g>
</svg>
