<?xml version="1.0" encoding="UTF-8"?>
<svg xmlns="http://www.w3.org/2000/svg" xmlns:xlink="http://www.w3.org/1999/xlink" width="24.000228pt" height="24.047084pt" viewBox="0 0 24.000228 24.047084" version="1.1">
<g id="surface1">
<path style=" stroke:none;fill-rule:nonzero;fill:rgb(30.196078%,30.196078%,30.196078%);fill-opacity:1;" d="M 13.4375 0 L 0 13.4375 L 0 19.09375 L 5.65625 19.09375 L 19.09375 5.65625 Z M 12.730469 2.125 L 16.96875 6.363281 L 9.902344 13.4375 L 5.65625 9.191406 Z M 4.949219 9.902344 L 9.191406 14.140625 L 7.777344 15.558594 L 3.535156 11.3125 L 4.242188 10.609375 Z M 2.828125 12.019531 L 7.070312 16.265625 L 5.65625 17.675781 L 1.414062 13.4375 Z M 20.25 16.546875 C 19.855469 16.550781 18.816406 16.617188 17.15625 17.390625 C 16.632812 17.632812 16.199219 17.90625 15.609375 18.234375 C 15.289062 18.410156 14.15625 18.976562 13.734375 19.171875 C 12.492188 19.746094 12.082031 19.890625 11.015625 20.296875 C 9.980469 20.6875 9.003906 21.03125 7.503906 21.03125 L 0.0078125 21.03125 L 0 24.046875 C 0 24.046875 4.992188 24.09375 8.625 22.734375 C 9.105469 22.554688 9.945312 22.257812 10.734375 21.984375 C 10.734375 21.984375 14.453125 23.128906 17.25 23.71875 C 19.535156 24.335938 21.296875 23.941406 22.171875 23.484375 C 23.425781 22.769531 24.042969 21.480469 24 20.25 C 23.992188 19.816406 23.882812 19.460938 23.671875 18.984375 C 23.457031 18.507812 23.152344 17.96875 22.6875 17.578125 C 21.960938 16.941406 21.601562 16.664062 20.25 16.546875 Z M 20.25 16.546875 "/>
</g>
</svg>
