<?xml version="1.0" encoding="UTF-8"?>
<svg xmlns="http://www.w3.org/2000/svg" xmlns:xlink="http://www.w3.org/1999/xlink" width="24pt" height="24pt" viewBox="0 0 24 24" version="1.1">
<g id="surface1">
<path style=" stroke:none;fill-rule:nonzero;fill:rgb(30.196078%,30.196078%,30.196078%);fill-opacity:1;" d="M 0 0 L 0 24 L 24 24 L 24 0 Z M 1 1 L 23 1 L 23 23 L 1 23 Z M 7 3 C 4.789062 3 3 4.789062 3 7 C 3 9.210938 4.789062 11 7 11 C 9.210938 11 11 9.210938 11 7 C 11 4.789062 9.210938 3 7 3 Z M 7 4 C 8.65625 4 10 5.34375 10 7 C 10 8.65625 8.65625 10 7 10 C 5.34375 10 4 8.65625 4 7 C 4 5.34375 5.34375 4 7 4 Z M 16.5 10.792969 L 11.5 15.792969 L 9.5 13.792969 L 3 20.292969 L 3.707031 21 L 9.5 15.207031 L 11.5 17.207031 L 16.5 12.207031 L 20.292969 16 L 21 15.292969 Z M 16.5 10.792969 "/>
</g>
</svg>
