<?xml version="1.0" encoding="UTF-8"?>
<svg xmlns="http://www.w3.org/2000/svg" xmlns:xlink="http://www.w3.org/1999/xlink" width="24pt" height="24pt" viewBox="0 0 24 24" version="1.1">
<g id="surface1">
<path style=" stroke:none;fill-rule:nonzero;fill:rgb(11.372549%,60%,95.294118%);fill-opacity:1;" d="M 12 7 C 9.238281 7 7 9.238281 7 12 C 7 14.761719 9.238281 17 12 17 C 14.761719 17 17 14.761719 17 12 C 17 9.238281 14.761719 7 12 7 Z M 12 8 C 14.210938 8 16 9.789062 16 12 C 16 14.210938 14.210938 16 12 16 C 9.789062 16 8 14.210938 8 12 C 8 9.789062 9.789062 8 12 8 Z M 12 8 "/>
<path style=" stroke:none;fill-rule:nonzero;fill:rgb(30.196078%,30.196078%,30.196078%);fill-opacity:1;" d="M 0 0 L 0 24 L 24 24 L 24 0 Z M 1 1 L 23 1 L 23 23 L 1 23 Z M 1 1 "/>
<path style=" stroke:none;fill-rule:nonzero;fill:rgb(85.490196%,26.666667%,32.54902%);fill-opacity:1;" d="M 11 1 L 11 8 L 13 8 L 13 1 Z M 11 1 "/>
</g>
</svg>
