<?xml version="1.0" encoding="UTF-8"?>
<svg xmlns="http://www.w3.org/2000/svg" xmlns:xlink="http://www.w3.org/1999/xlink" width="24pt" height="24.009766pt" viewBox="0 0 24 24.009766" version="1.1">
<g id="surface1">
<path style=" stroke:none;fill-rule:nonzero;fill:rgb(30.196078%,30.196078%,30.196078%);fill-opacity:1;" d="M 2.292969 0 L 1 1.292969 L 1 3.832031 C 1.050781 3.871094 7.949219 13.09375 8.625 14 L 9.875 14 L 2 3.5 L 2 1.707031 L 2.707031 1 L 21.292969 1 L 22 1.707031 L 22 3.5 L 14.125 14 L 15.375 14 L 23 3.832031 L 23 1.292969 L 21.707031 0 Z M 3 2 L 8 8.5 C 7.984375 8.503906 8 5 8 5 L 11 2 Z M 0 14 L 0 15 L 3 15 L 3 14 Z M 5 14 L 5 15 L 8 15 L 8 14 Z M 11 14 L 11 15 L 13 15 L 13 14 Z M 16 14 L 16 15 L 19 15 L 19 14 Z M 21 14 L 21 15 L 24 15 L 24 14 Z M 9 15 L 9 19.507812 L 15 24.011719 L 15 15 L 14 15 L 14 22.011719 C 12.839844 21.144531 11.285156 19.976562 10 19.011719 L 10 15 Z M 9 15 "/>
<path style=" stroke:none;fill-rule:nonzero;fill:rgb(95.686275%,46.666667%,31.372549%);fill-opacity:1;" d="M 23 16 C 22.449219 16 22 16.449219 22 17 C 22 17.550781 22.449219 18 23 18 C 23.550781 18 24 17.550781 24 17 C 24 16.449219 23.550781 16 23 16 Z M 23 19 C 22.449219 19 22 19.449219 22 20 C 22 20.550781 22.449219 21 23 21 C 23.550781 21 24 20.550781 24 20 C 24 19.449219 23.550781 19 23 19 Z M 23 22 C 22.449219 22 22 22.449219 22 23 C 22 23.550781 22.449219 24 23 24 C 23.550781 24 24 23.550781 24 23 C 24 22.449219 23.550781 22 23 22 Z M 23 22 "/>
</g>
</svg>
