<?xml version="1.0" encoding="UTF-8"?>
<svg xmlns="http://www.w3.org/2000/svg" xmlns:xlink="http://www.w3.org/1999/xlink" width="15pt" height="24pt" viewBox="0 0 15 24" version="1.1">
<defs>
<linearGradient id="linear0" gradientUnits="userSpaceOnUse" x1="6" y1="20.0015" x2="18" y2="8.0015" gradientTransform="matrix(1.5,0,0,1.5,-9,-6)">
<stop offset="0" style="stop-color:rgb(11.372549%,60%,95.294118%);stop-opacity:1;"/>
<stop offset="0.417" style="stop-color:rgb(28.235294%,67.45098%,96.078431%);stop-opacity:0.760784;"/>
<stop offset="0.667" style="stop-color:rgb(45.098039%,75.294118%,96.862745%);stop-opacity:0;"/>
<stop offset="1" style="stop-color:rgb(79.215686%,90.588235%,98.823529%);stop-opacity:0;"/>
</linearGradient>
</defs>
<g id="surface1">
<path style=" stroke:none;fill-rule:nonzero;fill:rgb(70.196078%,70.196078%,70.196078%);fill-opacity:1;" d="M 7.5 0 C 6.039062 5.105469 2.464844 9.515625 0.890625 13.03125 C 0.339844 14.074219 0 15.230469 0 16.5 C 0 20.65625 3.34375 24 7.5 24 C 11.65625 24 15 20.65625 15 16.5 C 15 15.230469 14.660156 14.074219 14.109375 13.03125 C 12.535156 9.515625 8.960938 5.109375 7.5 0 Z M 7.5 0 "/>
<path style=" stroke:none;fill-rule:nonzero;fill:rgb(46.666667%,46.666667%,46.666667%);fill-opacity:1;" d="M 7.5 0 C 7.050781 1.570312 6.402344 3.066406 5.671875 4.5 L 7.5 4.5 Z M 7.5 4.5 L 7.5 10.5 L 12.75 10.5 C 11.691406 8.679688 10.433594 6.671875 9.328125 4.5 Z M 7.5 10.5 L 2.25 10.5 C 2 10.929688 1.71875 11.355469 1.5 11.765625 L 1.5 16.5 L 7.5 16.5 Z M 7.5 16.5 L 7.5 22.5 L 12 22.5 C 12.570312 22.070312 13.070312 21.570312 13.5 21 L 13.5 16.5 Z M 7.5 16.5 "/>
<path style=" stroke:none;fill-rule:nonzero;fill:url(#linear0);" d="M 7.5 0 C 6.039062 5.109375 2.464844 9.515625 0.890625 13.03125 C 0.339844 14.074219 0 15.234375 0 16.5 C 0 20.65625 3.34375 24 7.5 24 C 11.65625 24 15 20.65625 15 16.5 C 15 15.234375 14.660156 14.074219 14.109375 13.03125 C 12.535156 9.515625 8.960938 5.109375 7.5 0 Z M 7.5 0 "/>
<path style=" stroke:none;fill-rule:nonzero;fill:rgb(30.196078%,30.196078%,30.196078%);fill-opacity:1;" d="M 7.5 0 C 6.039062 5.109375 2.464844 9.515625 0.890625 13.03125 C 0.339844 14.074219 0 15.230469 0 16.5 C 0 20.65625 3.34375 24 7.5 24 C 11.65625 24 15 20.65625 15 16.5 C 15 15.230469 14.660156 14.074219 14.109375 13.03125 C 12.535156 9.515625 8.960938 5.109375 7.5 0 Z M 7.5 3 C 8.667969 7.148438 11.535156 10.738281 12.796875 13.59375 C 13.03125 14.042969 13.1875 14.492188 13.3125 15 C 13.363281 15.210938 13.421875 15.441406 13.453125 15.65625 C 13.457031 15.6875 13.449219 15.71875 13.453125 15.75 C 13.476562 15.96875 13.5 16.179688 13.5 16.40625 L 13.5 16.5 C 13.492188 16.886719 13.433594 17.257812 13.359375 17.625 C 13.355469 17.65625 13.363281 17.6875 13.359375 17.71875 C 13.28125 18.085938 13.171875 18.460938 13.03125 18.796875 C 13.027344 18.808594 13.035156 18.828125 13.03125 18.84375 C 12.882812 19.191406 12.675781 19.511719 12.46875 19.828125 C 12.460938 19.835938 12.476562 19.863281 12.46875 19.875 C 12.261719 20.1875 12.027344 20.449219 11.765625 20.71875 C 11.484375 20.996094 11.203125 21.246094 10.875 21.46875 C 9.917969 22.121094 8.746094 22.496094 7.5 22.496094 C 7.085938 22.496094 6.671875 22.4375 6.28125 22.359375 C 6.003906 22.300781 5.746094 22.21875 5.484375 22.121094 C 5.4375 22.105469 5.390625 22.09375 5.34375 22.074219 C 5.285156 22.054688 5.214844 22.054688 5.15625 22.027344 C 5.058594 21.988281 4.96875 21.9375 4.875 21.890625 C 4.710938 21.808594 4.5625 21.703125 4.40625 21.609375 C 4.300781 21.542969 4.179688 21.492188 4.078125 21.421875 C 4.050781 21.402344 4.011719 21.394531 3.984375 21.375 C 3.714844 21.179688 3.464844 20.953125 3.234375 20.71875 C 3.007812 20.488281 2.8125 20.226562 2.625 19.96875 C 2.605469 19.953125 2.597656 19.933594 2.578125 19.921875 C 1.894531 18.929688 1.5 17.707031 1.5 16.402344 C 1.5 15.375 1.761719 14.441406 2.203125 13.59375 C 3.464844 10.738281 6.332031 7.148438 7.5 3 Z M 7.5 3 "/>
</g>
</svg>
