<?xml version="1.0" encoding="UTF-8"?>
<svg xmlns="http://www.w3.org/2000/svg" xmlns:xlink="http://www.w3.org/1999/xlink" width="25pt" height="25pt" viewBox="0 0 25 25" version="1.1">
<g id="surface1">
<path style=" stroke:none;fill-rule:nonzero;fill:rgb(95.686275%,46.666667%,31.372549%);fill-opacity:1;" d="M 5 0 L 5 5 L 10 5 L 10 0 Z M 15 5 L 15 10 L 20 10 L 20 5 Z M 5 10.019531 L 5 15 L 10 15 L 10 10.019531 Z M 15 15 L 15 20 L 20 20 L 20 15 Z M 20 20 L 20 24.980469 L 25 24.980469 L 25 20 Z M 20 20 "/>
<path style=" stroke:none;fill-rule:nonzero;fill:rgb(18.039216%,80%,44.313725%);fill-opacity:1;" d="M 10 0 L 10 5 L 15 5 L 15 0 Z M 20 5 L 20 10 L 25 10 L 25 5 Z M 0 10 L 0 15 L 5 15 L 5 10 Z M 20 15 L 20 20 L 25 20 L 25 15 Z M 10 20 L 10 25 L 15 25 L 15 20 Z M 10 20 "/>
<path style=" stroke:none;fill-rule:nonzero;fill:rgb(99.215686%,73.72549%,29.411765%);fill-opacity:1;" d="M 20 0 L 20 5 L 25 5 L 25 0 Z M 10 5 L 10 10 L 15 10 L 15 5 Z M 20 10.019531 L 20 15 L 25 15 L 25 10.019531 Z M 0 15 L 0 20 L 5 20 L 5 15 Z M 5 20 L 5 25 L 10 25 L 10 20 Z M 15 20.019531 L 15 25 L 20 25 L 20 20.019531 Z M 15 20.019531 "/>
<path style=" stroke:none;fill-rule:nonzero;fill:rgb(11.372549%,60%,95.294118%);fill-opacity:1;" d="M 0 0 L 0 5 L 5 5 L 5 0 Z M 5 5 L 5 10 L 10 10 L 10 5 Z M 15 10.019531 L 15 15 L 20 15 L 20 10.019531 Z M 15 15 L 10 15 L 10 20 L 15 20 Z M 0 20 L 0 25 L 5 25 L 5 20 Z M 0 20 "/>
<path style=" stroke:none;fill-rule:nonzero;fill:rgb(85.490196%,26.666667%,32.54902%);fill-opacity:1;" d="M 15 0 L 15 5 L 20 5 L 20 0 Z M 0 5 L 0 10 L 5 10 L 5 5 Z M 10 10.019531 L 10 15 L 15 15 L 15 10.019531 Z M 10 15 L 5 15 L 5 20 L 10 20 Z M 10 15 "/>
</g>
</svg>
