<?xml version="1.0" encoding="UTF-8"?>
<svg xmlns="http://www.w3.org/2000/svg" xmlns:xlink="http://www.w3.org/1999/xlink" width="19.5pt" height="24pt" viewBox="0 0 19.5 24" version="1.1">
<g id="surface1">
<path style=" stroke:none;fill-rule:nonzero;fill:rgb(30.196078%,30.196078%,30.196078%);fill-opacity:1;" d="M 7.5 0 C 6.039062 5.109375 2.46875 9.496094 0.894531 13.015625 C 0.34375 14.058594 0 15.230469 0 16.5 C 0 20.65625 3.34375 24 7.5 24 C 11.65625 24 15 20.65625 15 16.5 C 15 15.230469 14.65625 14.058594 14.105469 13.015625 C 12.53125 9.496094 8.960938 5.109375 7.5 0 Z M 10.925781 11.574219 C 12.480469 12.65625 13.5 14.453125 13.5 16.5 C 13.5 19.824219 10.824219 22.5 7.5 22.5 C 5.453125 22.5 3.65625 21.484375 2.574219 19.925781 C 3.542969 20.601562 4.722656 21 6 21 C 9.324219 21 12 18.324219 12 15 C 12 13.722656 11.601562 12.546875 10.925781 11.574219 Z M 10.925781 11.574219 "/>
<path style=" stroke:none;fill-rule:nonzero;fill:rgb(95.686275%,46.666667%,31.372549%);fill-opacity:1;" d="M 18.5 0 C 17.949219 0 17.5 0.449219 17.5 1 C 17.5 1.550781 17.949219 2 18.5 2 C 19.050781 2 19.5 1.550781 19.5 1 C 19.5 0.449219 19.050781 0 18.5 0 Z M 18.5 4 C 17.949219 4 17.5 4.449219 17.5 5 C 17.5 5.550781 17.949219 6 18.5 6 C 19.050781 6 19.5 5.550781 19.5 5 C 19.5 4.449219 19.050781 4 18.5 4 Z M 18.5 8 C 17.949219 8 17.5 8.449219 17.5 9 C 17.5 9.550781 17.949219 10 18.5 10 C 19.050781 10 19.5 9.550781 19.5 9 C 19.5 8.449219 19.050781 8 18.5 8 Z M 18.5 8 "/>
</g>
</svg>
