<?xml version="1.0" encoding="UTF-8"?>
<svg xmlns="http://www.w3.org/2000/svg" xmlns:xlink="http://www.w3.org/1999/xlink" width="24pt" height="24pt" viewBox="0 0 24 24" version="1.1">
<g id="surface1">
<path style=" stroke:none;fill-rule:nonzero;fill:rgb(30.196078%,30.196078%,30.196078%);fill-opacity:1;" d="M 0 0 L 0 24 L 24 24 L 24 0 Z M 23 1 L 23 23 L 1 23 L 6.703125 17.296875 C 5.347656 15.941406 4.5 14.070312 4.5 12 C 4.5 7.859375 7.859375 4.5 12 4.5 C 14.070312 4.5 15.941406 5.347656 17.296875 6.703125 Z M 17.296875 6.703125 L 6.703125 17.296875 C 8.058594 18.652344 9.929688 19.5 12 19.5 C 16.140625 19.5 19.5 16.140625 19.5 12 C 19.5 9.929688 18.652344 8.058594 17.296875 6.703125 Z M 17.296875 6.703125 "/>
</g>
</svg>
