<?xml version="1.0" encoding="UTF-8"?>
<svg xmlns="http://www.w3.org/2000/svg" xmlns:xlink="http://www.w3.org/1999/xlink" width="24pt" height="24pt" viewBox="0 0 24 24" version="1.1">
<g id="surface1">
<path style=" stroke:none;fill-rule:nonzero;fill:rgb(30.196078%,30.196078%,30.196078%);fill-opacity:1;" d="M 11.984375 0 L 5 7 L 4 8 L 4 16 L 12 24 L 13 24 L 13 0 Z M 17.265625 6.113281 L 16.632812 6.996094 C 18.136719 8.40625 18.996094 10.433594 19 12.5625 C 18.996094 14.453125 18.316406 16.273438 17.09375 17.648438 L 17.6875 18.472656 C 19.167969 16.882812 20 14.738281 20 12.5 C 19.996094 10.050781 19 7.722656 17.265625 6.113281 Z M 0 8 L 0 16 L 3 16 L 3 8 Z M 0 8 "/>
<path style=" stroke:none;fill-rule:nonzero;fill:rgb(70.196078%,70.196078%,70.196078%);fill-opacity:1;" d="M 16.367188 0.59375 L 16.125 1.546875 C 20.273438 3.023438 23.082031 7.242188 23.082031 12 C 23.078125 16.757812 20.269531 20.96875 16.125 22.441406 L 16.371094 23.417969 C 20.914062 21.824219 23.996094 17.210938 24 12 C 23.992188 6.792969 20.910156 2.183594 16.367188 0.59375 Z M 16.367188 0.59375 "/>
</g>
</svg>
