<?xml version="1.0" encoding="UTF-8"?>
<svg xmlns="http://www.w3.org/2000/svg" xmlns:xlink="http://www.w3.org/1999/xlink" width="24pt" height="24pt" viewBox="0 0 24 24" version="1.1">
<g id="surface1">
<path style=" stroke:none;fill-rule:nonzero;fill:rgb(30.196078%,30.196078%,30.196078%);fill-opacity:1;" d="M 0 0 L 0 24 L 24 24 L 24 0 Z M 1 1 L 23 1 L 23 17 L 17 11 L 11 17 L 9 15 L 1 23 Z M 6 3 C 4.34375 3 3 4.34375 3 6 C 3 7.65625 4.34375 9 6 9 C 7.65625 9 9 7.65625 9 6 C 9 4.34375 7.65625 3 6 3 Z M 6 3 "/>
<path style=" stroke:none;fill-rule:nonzero;fill:rgb(70.196078%,70.196078%,70.196078%);fill-opacity:1;" d="M 0 0 L 1 1 L 23 1 L 23 17 L 17 11 L 14 14 L 24 24 L 24 0 Z M 6 3 C 5.203125 3 4.441406 3.316406 3.882812 3.882812 L 8.121094 8.121094 C 8.683594 7.558594 9 6.796875 9 6 C 9 4.34375 7.65625 3 6 3 Z M 6 3 "/>
</g>
</svg>
