<?xml version="1.0" encoding="UTF-8"?>
<svg xmlns="http://www.w3.org/2000/svg" xmlns:xlink="http://www.w3.org/1999/xlink" width="24pt" height="24pt" viewBox="0 0 24 24" version="1.1">
<g id="surface1">
<path style=" stroke:none;fill-rule:nonzero;fill:rgb(30.196078%,30.196078%,30.196078%);fill-opacity:1;" d="M 11 0 L 11 3 L 13 3 L 13 0 Z M 4.222656 2.804688 L 2.804688 4.222656 L 4.929688 6.34375 L 6.34375 4.929688 Z M 19.777344 2.804688 L 17.65625 4.929688 L 19.070312 6.34375 L 21.191406 4.222656 Z M 12 4 C 7.582031 4 4 7.582031 4 12 C 4 16.417969 7.582031 20 12 20 C 16.417969 20 20 16.417969 20 12 C 20 7.582031 16.417969 4 12 4 Z M 0 11 L 0 13 L 3 13 L 3 11 Z M 21 11 L 21 13 L 24 13 L 24 11 Z M 4.929688 17.65625 L 2.804688 19.777344 L 4.222656 21.191406 L 6.34375 19.070312 Z M 19.070312 17.65625 L 17.65625 19.070312 L 19.777344 21.191406 L 21.191406 19.777344 Z M 11 21 L 11 24 L 13 24 L 13 21 Z M 11 21 "/>
<path style=" stroke:none;fill-rule:nonzero;fill:rgb(95.686275%,46.666667%,31.372549%);fill-opacity:1;" d="M 23 0 C 22.449219 0 22 0.449219 22 1 C 22 1.550781 22.449219 2 23 2 C 23.550781 2 24 1.550781 24 1 C 24 0.449219 23.550781 0 23 0 Z M 23 4 C 22.449219 4 22 4.449219 22 5 C 22 5.550781 22.449219 6 23 6 C 23.550781 6 24 5.550781 24 5 C 24 4.449219 23.550781 4 23 4 Z M 23 8 C 22.449219 8 22 8.449219 22 9 C 22 9.550781 22.449219 10 23 10 C 23.550781 10 24 9.550781 24 9 C 24 8.449219 23.550781 8 23 8 Z M 23 8 "/>
</g>
</svg>
