<?xml version="1.0" encoding="UTF-8"?>
<svg xmlns="http://www.w3.org/2000/svg" xmlns:xlink="http://www.w3.org/1999/xlink" width="24pt" height="24pt" viewBox="0 0 24 24" version="1.1">
<g id="surface1">
<path style=" stroke:none;fill-rule:nonzero;fill:rgb(99.215686%,73.72549%,29.411765%);fill-opacity:1;" d="M 12 0 L 12 12 L 24 12 L 24 0 Z M 12 0 "/>
<path style=" stroke:none;fill-rule:nonzero;fill:rgb(11.372549%,60%,95.294118%);fill-opacity:1;" d="M 0 0 L 0 12 L 12 12 L 12 0 Z M 0 0 "/>
<path style=" stroke:none;fill-rule:nonzero;fill:rgb(85.490196%,26.666667%,32.54902%);fill-opacity:1;" d="M 12 12 L 12 24 L 24 24 L 24 12 Z M 12 12 "/>
<path style=" stroke:none;fill-rule:nonzero;fill:rgb(18.039216%,80%,44.313725%);fill-opacity:1;" d="M 0 12 L 0 24 L 12 24 L 12 12 Z M 0 12 "/>
<path style=" stroke:none;fill-rule:nonzero;fill:rgb(100%,100%,100%);fill-opacity:0.301961;" d="M 0 0 L 0 1 L 12 1 L 12 0 Z M 12 23 L 12 24 L 24 24 L 24 23 Z M 12 23 "/>
<path style=" stroke:none;fill-rule:nonzero;fill:rgb(18.039216%,19.215686%,19.607843%);fill-opacity:0.301961;" d="M 12 0 L 12 1 L 24 1 L 24 0 Z M 0 23 L 0 24 L 12 24 L 12 23 Z M 0 23 "/>
</g>
</svg>
