<?xml version="1.0" encoding="UTF-8"?>
<svg xmlns="http://www.w3.org/2000/svg" xmlns:xlink="http://www.w3.org/1999/xlink" width="24pt" height="24pt" viewBox="0 0 24 24" version="1.1">
<g id="surface1">
<path style=" stroke:none;fill-rule:nonzero;fill:rgb(30.196078%,30.196078%,30.196078%);fill-opacity:1;" d="M 0 0 L 0 1 L 1 1 L 1 0 Z M 4 0 L 4 1 L 5 1 L 5 0 Z M 8 0 L 8 1 L 9 1 L 9 0 Z M 12 0 L 12 1 L 13 1 L 13 0 Z M 16 0 L 16 1 L 17 1 L 17 0 Z M 20 0 L 20 1 L 21 1 L 21 0 Z M 23 0 L 23 1 L 24 1 L 24 0 Z M 0 3 L 0 4 L 1 4 L 1 3 Z M 4 3 L 4 4 L 5 4 L 5 3 Z M 8 3 L 8 4 L 9 4 L 9 3 Z M 12 3 L 12 4 L 13 4 L 13 3 Z M 16 3 L 16 4 L 17 4 L 17 3 Z M 20 3 L 20 4 L 21 4 L 21 3 Z M 23 3 L 23 4 L 24 4 L 24 3 Z M 0 7 L 0 8 L 1 8 L 1 7 Z M 4 7 L 4 8 L 5 8 L 5 7 Z M 8 7 L 8 8 L 9 8 L 9 7 Z M 12 7 L 12 8 L 13 8 L 13 7 Z M 16 7 L 16 8 L 17 8 L 17 7 Z M 20 7 L 20 8 L 21 8 L 21 7 Z M 23 7 L 23 8 L 24 8 L 24 7 Z M 0 11 L 0 12 L 1 12 L 1 11 Z M 4 11 L 4 12 L 5 12 L 5 11 Z M 8 11 L 8 12 L 9 12 L 9 11 Z M 12 11 L 12 12 L 13 12 L 13 11 Z M 16 11 L 16 12 L 17 12 L 17 11 Z M 20 11 L 20 12 L 21 12 L 21 11 Z M 23 11 L 23 12 L 24 12 L 24 11 Z M 0 15 L 0 16 L 1 16 L 1 15 Z M 4 15 L 4 16 L 5 16 L 5 15 Z M 8 15 L 8 16 L 9 16 L 9 15 Z M 12 15 L 12 16 L 13 16 L 13 15 Z M 16 15 L 16 16 L 17 16 L 17 15 Z M 20 15 L 20 16 L 21 16 L 21 15 Z M 23 15 L 23 16 L 24 16 L 24 15 Z M 0 19 L 0 20 L 1 20 L 1 19 Z M 4 19 L 4 20 L 5 20 L 5 19 Z M 8 19 L 8 20 L 9 20 L 9 19 Z M 12 19 L 12 20 L 13 20 L 13 19 Z M 16 19 L 16 20 L 17 20 L 17 19 Z M 20 19 L 20 20 L 21 20 L 21 19 Z M 23 19 L 23 20 L 24 20 L 24 19 Z M 0 23 L 0 24 L 1 24 L 1 23 Z M 4 23 L 4 24 L 5 24 L 5 23 Z M 8 23 L 8 24 L 9 24 L 9 23 Z M 12 23 L 12 24 L 13 24 L 13 23 Z M 16 23 L 16 24 L 17 24 L 17 23 Z M 20 23 L 20 24 L 21 24 L 21 23 Z M 23 23 L 23 24 L 24 24 L 24 23 Z M 23 23 "/>
</g>
</svg>
