<?xml version="1.0" encoding="UTF-8"?>
<svg xmlns="http://www.w3.org/2000/svg" xmlns:xlink="http://www.w3.org/1999/xlink" width="24pt" height="24pt" viewBox="0 0 24 24" version="1.1">
<g id="surface1">
<path style=" stroke:none;fill-rule:nonzero;fill:rgb(30.196078%,30.196078%,30.196078%);fill-opacity:1;" d="M 0 0 L 0 24 L 24 24 L 24 0 Z M 1 1 L 23 1 L 23 23 L 1 23 Z M 3 4 L 3 21 L 21 21 L 21 4 Z M 4 5 L 9 5 L 9 8 L 4 8 Z M 10 5 L 14 5 L 14 8 L 10 8 Z M 15 5 L 20 5 L 20 8 L 15 8 Z M 4 9 L 9 9 L 9 12 L 4 12 Z M 10 9 L 14 9 L 14 12 L 10 12 Z M 15 9 L 20 9 L 20 12 L 15 12 Z M 4 13 L 9 13 L 9 16 L 4 16 Z M 10 13 L 14 13 L 14 16 L 10 16 Z M 15 13 L 20 13 L 20 16 L 15 16 Z M 4 17 L 9 17 L 9 20 L 4 20 Z M 10 17 L 14 17 L 14 20 L 10 20 Z M 15 17 L 20 17 L 20 20 L 15 20 Z M 15 17 "/>
</g>
</svg>
