<?xml version="1.0" encoding="UTF-8"?>
<svg xmlns="http://www.w3.org/2000/svg" xmlns:xlink="http://www.w3.org/1999/xlink" width="24pt" height="24pt" viewBox="0 0 24 24" version="1.1">
<g id="surface1">
<path style=" stroke:none;fill-rule:nonzero;fill:rgb(30.196078%,30.196078%,30.196078%);fill-opacity:1;" d="M 7 0 L 7 1 L 8 1 L 8 0 Z M 16 0 L 16 1 L 17 1 L 17 0 Z M 7 3 L 7 4 L 8 4 L 8 3 Z M 16 3 L 16 4 L 17 4 L 17 3 Z M 7 6 L 7 7 L 8 7 L 8 6 Z M 16 6 L 16 7 L 17 7 L 17 6 Z M 0 8 L 0 9 L 1 9 L 1 8 Z M 4 8 L 4 9 L 5 9 L 5 8 Z M 7 8 L 7 16 L 17 16 L 17 8 Z M 19 8 L 19 9 L 20 9 L 20 8 Z M 23 8 L 23 9 L 24 9 L 24 8 Z M 0 15 L 0 16 L 1 16 L 1 15 Z M 4 15 L 4 16 L 5 16 L 5 15 Z M 19 15 L 19 16 L 20 16 L 20 15 Z M 23 15 L 23 16 L 24 16 L 24 15 Z M 7 17 L 7 18 L 8 18 L 8 17 Z M 16 17 L 16 18 L 17 18 L 17 17 Z M 7 20 L 7 21 L 8 21 L 8 20 Z M 16 20 L 16 21 L 17 21 L 17 20 Z M 7 23 L 7 24 L 8 24 L 8 23 Z M 16 23 L 16 24 L 17 24 L 17 23 Z M 16 23 "/>
</g>
</svg>
