<?xml version="1.0" encoding="UTF-8"?>
<svg xmlns="http://www.w3.org/2000/svg" xmlns:xlink="http://www.w3.org/1999/xlink" width="23pt" height="23pt" viewBox="0 0 23 23" version="1.1">
<g id="surface1">
<path style=" stroke:none;fill-rule:nonzero;fill:rgb(30.196078%,30.196078%,30.196078%);fill-opacity:1;" d="M 2 0 L 2 1 L 3 1 L 3 0 Z M 18 0 C 16.34375 0 15 1.34375 15 3 L 15 6 L 13 6 L 13 12 L 23 12 L 23 6 L 21 6 L 21 3 C 21 1.34375 19.65625 0 18 0 Z M 18 1 C 19.105469 1 20 1.894531 20 3 L 20 6 L 16 6 L 16 3 C 16 1.894531 16.894531 1 18 1 Z M 2 2 L 2 3 L 3 3 L 3 2 Z M 2 4 L 2 5 L 3 5 L 3 4 Z M 2 6 L 2 7 L 3 7 L 3 6 Z M 14 7 L 22 7 L 22 11 L 14 11 Z M 2 8 L 2 9 L 3 9 L 3 8 Z M 2 10 L 2 11 L 3 11 L 3 10 Z M 2 12 L 2 13 L 3 13 L 3 12 Z M 2 14 L 2 15 L 3 15 L 3 14 Z M 2 16 L 2 17 L 3 17 L 3 16 Z M 2 18 L 2 19 L 3 19 L 3 18 Z M 0 20 L 0 21 L 1 21 L 1 20 Z M 2 20 L 2 21 L 3 21 L 3 20 Z M 4 20 L 4 21 L 5 21 L 5 20 Z M 6 20 L 6 21 L 7 21 L 7 20 Z M 8 20 L 8 21 L 9 21 L 9 20 Z M 10 20 L 10 21 L 11 21 L 11 20 Z M 12 20 L 12 21 L 13 21 L 13 20 Z M 14 20 L 14 21 L 15 21 L 15 20 Z M 16 20 L 16 21 L 17 21 L 17 20 Z M 18 20 L 18 21 L 19 21 L 19 20 Z M 20 20 L 20 21 L 21 21 L 21 20 Z M 22 20 L 22 21 L 23 21 L 23 20 Z M 2 22 L 2 23 L 3 23 L 3 22 Z M 2 22 "/>
</g>
</svg>
