<?xml version="1.0" encoding="UTF-8"?>
<svg xmlns="http://www.w3.org/2000/svg" xmlns:xlink="http://www.w3.org/1999/xlink" width="20pt" height="24pt" viewBox="0 0 20 24" version="1.1">
<g id="surface1">
<path style=" stroke:none;fill-rule:nonzero;fill:rgb(11.372549%,60%,95.294118%);fill-opacity:1;" d="M 9 0 L 9 5 L 7 5 L 10 9 L 13 5 L 11 5 L 11 0 Z M 10 15 L 7 19 L 9 19 L 9 24 L 11 24 L 11 19 L 13 19 Z M 10 15 "/>
<path style=" stroke:none;fill-rule:nonzero;fill:rgb(30.196078%,30.196078%,30.196078%);fill-opacity:1;" d="M 0 1 L 0 11 L 20 11 L 20 1 L 19 1 L 19 10 L 1 10 L 1 1 Z M 0 13 L 0 23 L 1 23 L 1 14 L 19 14 L 19 23 L 20 23 L 20 13 Z M 0 13 "/>
</g>
</svg>
