<?xml version="1.0" encoding="UTF-8"?>
<svg xmlns="http://www.w3.org/2000/svg" xmlns:xlink="http://www.w3.org/1999/xlink" width="24pt" height="24pt" viewBox="0 0 24 24" version="1.1">
<g id="surface1">
<path style=" stroke:none;fill-rule:nonzero;fill:rgb(30.196078%,30.196078%,30.196078%);fill-opacity:1;" d="M 9 0 L 9 10 L 14 10 C 15.65625 10 17 8.65625 17 7 C 17 5.828125 16.316406 4.765625 15.253906 4.277344 C 15.730469 3.808594 16 3.167969 16 2.5 C 16 1.121094 14.878906 0 13.5 0 Z M 10 1 L 13.5 1 C 14.328125 1 15 1.671875 15 2.5 C 15 3.328125 14.328125 4 13.5 4 L 10 4 Z M 10 5 L 14 5 C 15.105469 5 16 5.894531 16 7 C 16 8.105469 15.105469 9 14 9 L 10 9 Z M 5 14 C 2.238281 14 0 16.238281 0 19 C 0 21.761719 2.238281 24 5 24 L 6 24 L 6 23 L 5 23 C 2.789062 23 1 21.210938 1 19 C 1 16.789062 2.789062 15 5 15 L 6 15 L 6 14 Z M 9 14 L 9 24 L 13 24 C 14.65625 24 16 22.65625 16 21 L 16 17 C 16 15.34375 14.65625 14 13 14 Z M 10 15 L 13 15 C 14.105469 15 15 15.894531 15 17 L 15 21 C 15 22.105469 14.105469 23 13 23 L 10 23 Z M 10 15 "/>
<path style=" stroke:none;fill-rule:nonzero;fill:rgb(11.372549%,60%,95.294118%);fill-opacity:1;" d="M 19 4 L 19 5 L 24 5 L 24 4 Z M 19 4 "/>
</g>
</svg>
