<?xml version="1.0" encoding="UTF-8"?>
<svg xmlns="http://www.w3.org/2000/svg" xmlns:xlink="http://www.w3.org/1999/xlink" width="24pt" height="22.269531pt" viewBox="0 0 24 22.269531" version="1.1">
<g id="surface1">
<path style=" stroke:none;fill-rule:nonzero;fill:rgb(30.196078%,30.196078%,30.196078%);fill-opacity:1;" d="M 21.578125 10.734375 L 19.5 14 L 13 14 L 13 15 L 18.863281 15 L 16.953125 18 L 13 18 L 13 19 L 16.316406 19 L 14.578125 21.734375 L 15.421875 22.269531 L 17.503906 19 L 24 19 L 24 18 L 18.140625 18 L 20.046875 15 L 24 15 L 24 14 L 20.6875 14 L 22.421875 11.269531 Z M 21.578125 10.734375 "/>
<path style=" stroke:none;fill-rule:nonzero;fill:rgb(70.196078%,70.196078%,70.196078%);fill-opacity:1;" d="M 6 0 L 6 4 L 23.96875 4 L 23.96875 0 Z M 6 7 L 6 11 L 18 11 L 18 7 Z M 6 15 L 6 19 L 11.96875 19 L 11.96875 15 Z M 6 15 "/>
<path style=" stroke:none;fill-rule:nonzero;fill:rgb(85.490196%,26.666667%,32.54902%);fill-opacity:1;" d="M 0 0 L 0 4 L 4 4 L 4 0 Z M 0 0 "/>
<path style=" stroke:none;fill-rule:nonzero;fill:rgb(99.215686%,73.72549%,29.411765%);fill-opacity:1;" d="M 0 7 L 0 11 L 4 11 L 4 7 Z M 0 7 "/>
<path style=" stroke:none;fill-rule:nonzero;fill:rgb(18.039216%,80%,44.313725%);fill-opacity:1;" d="M 0 15 L 0 19 L 4 19 L 4 15 Z M 0 15 "/>
</g>
</svg>
