<?xml version="1.0" encoding="UTF-8"?>
<svg xmlns="http://www.w3.org/2000/svg" xmlns:xlink="http://www.w3.org/1999/xlink" width="24pt" height="24pt" viewBox="0 0 24 24" version="1.1">
<g id="surface1">
<path style=" stroke:none;fill-rule:nonzero;fill:rgb(30.196078%,30.196078%,30.196078%);fill-opacity:1;" d="M 2 0 L 2 21 L 0 21 L 0 22 L 2 22 L 2 24 L 3 24 L 3 22 L 21 22 L 21 24 L 22 24 L 22 22 L 24 22 L 24 21 L 22 21 L 22 0 L 21 0 L 21 15 L 17 11 L 11 17 L 9 15 L 3 21 L 3 0 Z M 8 2 C 6.34375 2 5 3.34375 5 5 C 5 6.65625 6.34375 8 8 8 C 9.65625 8 11 6.65625 11 5 C 11 3.34375 9.65625 2 8 2 Z M 8 2 "/>
</g>
</svg>
