<?xml version="1.0" encoding="UTF-8"?>
<svg xmlns="http://www.w3.org/2000/svg" xmlns:xlink="http://www.w3.org/1999/xlink" width="24pt" height="24pt" viewBox="0 0 24 24" version="1.1">
<g id="surface1">
<path style=" stroke:none;fill-rule:nonzero;fill:rgb(11.372549%,60%,95.294118%);fill-opacity:1;" d="M 0 0 L 0 24 L 13 24 L 13 13 L 23 13 L 23 21 L 24 21 L 24 0 Z M 1 1 L 12 1 L 12 12 L 1 12 Z M 13 1 L 23 1 L 23 12 L 13 12 Z M 1 13 L 12 13 L 12 23 L 1 23 Z M 15 22 C 14.449219 22 14 22.449219 14 23 C 14 23.550781 14.449219 24 15 24 C 15.550781 24 16 23.550781 16 23 C 16 22.449219 15.550781 22 15 22 Z M 19 22 C 18.449219 22 18 22.449219 18 23 C 18 23.550781 18.449219 24 19 24 C 19.550781 24 20 23.550781 20 23 C 20 22.449219 19.550781 22 19 22 Z M 23 22 C 22.449219 22 22 22.449219 22 23 C 22 23.550781 22.449219 24 23 24 C 23.550781 24 24 23.550781 24 23 C 24 22.449219 23.550781 22 23 22 Z M 23 22 "/>
<path style=" stroke:none;fill-rule:nonzero;fill:rgb(30.196078%,30.196078%,30.196078%);fill-opacity:1;" d="M 6 3 C 4.34375 3 3 4.34375 3 6 C 3 7.65625 4.34375 9 6 9 C 7.65625 9 9 7.65625 9 6 C 9 4.34375 7.65625 3 6 3 Z M 17 11 L 11 17 L 9 15 L 0 24 L 13 24 L 13 21 L 24 21 L 24 18 Z M 17 11 "/>
</g>
</svg>
