<?xml version="1.0" encoding="UTF-8"?>
<svg xmlns="http://www.w3.org/2000/svg" xmlns:xlink="http://www.w3.org/1999/xlink" width="23pt" height="24pt" viewBox="0 0 23 24" version="1.1">
<g id="surface1">
<path style=" stroke:none;fill-rule:nonzero;fill:rgb(30.196078%,30.196078%,30.196078%);fill-opacity:1;" d="M 3 0 L 3 24 L 13 24 L 13 23 L 4 23 L 4 1 L 22 1 L 22 18.5 L 14.914062 18.5 L 18.707031 14.707031 L 18 14 L 13 19 L 18 24 L 18.707031 23.292969 L 14.914062 19.5 L 23 19.5 L 23 0 Z M 3 0 "/>
<path style=" stroke:none;fill-rule:nonzero;fill:rgb(95.686275%,46.666667%,31.372549%);fill-opacity:1;" d="M 1 14 C 0.449219 14 0 14.449219 0 15 C 0 15.550781 0.449219 16 1 16 C 1.550781 16 2 15.550781 2 15 C 2 14.449219 1.550781 14 1 14 Z M 1 18 C 0.449219 18 0 18.449219 0 19 C 0 19.550781 0.449219 20 1 20 C 1.550781 20 2 19.550781 2 19 C 2 18.449219 1.550781 18 1 18 Z M 1 22 C 0.449219 22 0 22.449219 0 23 C 0 23.550781 0.449219 24 1 24 C 1.550781 24 2 23.550781 2 23 C 2 22.449219 1.550781 22 1 22 Z M 1 22 "/>
</g>
</svg>
