<?xml version="1.0" encoding="UTF-8"?>
<svg xmlns="http://www.w3.org/2000/svg" xmlns:xlink="http://www.w3.org/1999/xlink" width="24pt" height="24pt" viewBox="0 0 24 24" version="1.1">
<g id="surface1">
<path style=" stroke:none;fill-rule:nonzero;fill:rgb(30.196078%,30.196078%,30.196078%);fill-opacity:1;" d="M 0 0 L 0 24 L 18 24 L 14 20.035156 L 13.5 19.5 L 19 14 L 20 14 L 17 11 L 11 17 L 9 15 L 1 23 L 1 1 L 23 1 L 23 14 L 24 14 L 24 0 Z M 6 3 C 4.34375 3 3 4.34375 3 6 C 3 7.65625 4.34375 9 6 9 C 7.65625 9 9 7.65625 9 6 C 9 4.34375 7.65625 3 6 3 Z M 6 3 "/>
<path style=" stroke:none;fill-rule:nonzero;fill:rgb(11.372549%,60%,95.294118%);fill-opacity:1;" d="M 19 15 L 19 19 L 15 19 L 15 20 L 19 20 L 19 24 L 20 24 L 20 20 L 24 20 L 24 19 L 20 19 L 20 15 Z M 19 15 "/>
</g>
</svg>
