<?xml version="1.0" encoding="UTF-8"?>
<svg xmlns="http://www.w3.org/2000/svg" xmlns:xlink="http://www.w3.org/1999/xlink" width="24pt" height="24pt" viewBox="0 0 24 24" version="1.1">
<g id="surface1">
<path style=" stroke:none;fill-rule:nonzero;fill:rgb(30.196078%,30.196078%,30.196078%);fill-opacity:1;" d="M 0 0 L 0 24 L 14 24 L 14 23 L 9 23 L 9 20 L 14 20 L 14 19 L 9 19 L 9 16 L 14 16 L 14 15 L 9 15 L 9 12 L 15 12 L 15 11 L 9 11 L 9 8 L 15 8 L 15 7 L 9 7 L 9 4 L 15 4 L 15 3 L 9 3 L 9 1 L 15 1 L 15 0 Z M 1 1 L 8 1 L 8 3 L 1 3 Z M 1 4 L 8 4 L 8 7 L 1 7 Z M 1 8 L 8 8 L 8 11 L 1 11 Z M 1 12 L 8 12 L 8 15 L 1 15 Z M 19 15 L 19 19 L 15 19 L 15 20 L 19 20 L 19 24 L 20 24 L 20 20 L 24 20 L 24 19 L 20 19 L 20 15 Z M 1 16 L 8 16 L 8 19 L 1 19 Z M 1 20 L 8 20 L 8 23 L 1 23 Z M 1 20 "/>
<path style=" stroke:none;fill-rule:nonzero;fill:rgb(11.372549%,60%,95.294118%);fill-opacity:1;" d="M 15 0 L 15 14 L 16 14 L 16 13.65625 L 16.398438 14 L 17.9375 14 L 16.324219 12.621094 L 16 12.34375 L 16 9.65625 L 21.0625 14 L 22.601562 14 L 16.324219 8.621094 L 16 8.34375 L 16 5.65625 L 22.671875 11.378906 L 23 11.660156 L 23 14 L 24 14 L 24 0 Z M 16.769531 1 L 19.898438 1 L 22.671875 3.378906 L 23 3.660156 L 23 6.34375 Z M 21.4375 1 L 23 1 L 23 2.34375 Z M 16 1.65625 L 22.671875 7.378906 L 23 7.660156 L 23 10.34375 L 16.324219 4.617188 L 16 4.34375 Z M 16 1.65625 "/>
</g>
</svg>
