<?xml version="1.0" encoding="UTF-8"?>
<svg xmlns="http://www.w3.org/2000/svg" xmlns:xlink="http://www.w3.org/1999/xlink" width="24pt" height="24pt" viewBox="0 0 24 24" version="1.1">
<g id="surface1">
<path style=" stroke:none;fill-rule:nonzero;fill:rgb(11.372549%,60%,95.294118%);fill-opacity:1;" d="M 4 15 L 4 16 L 6.34375 16 L 4 18.734375 L 4 20.265625 L 7.378906 16.324219 L 7.65625 16 L 10.34375 16 L 10 16.398438 L 4.621094 22.671875 L 4.339844 23 L 4 23 L 4 24 L 14 24 L 14 23 L 13.65625 23 L 14 22.601562 L 14 21.0625 L 12.621094 22.671875 L 12.339844 23 L 9.65625 23 L 10 22.601562 L 10.113281 22.46875 L 11 21.4375 L 14 17.9375 L 14 16.398438 L 11 19.898438 L 10 21.0625 L 8.621094 22.671875 L 8.339844 23 L 5.65625 23 L 10 17.9375 L 11 16.769531 L 11.378906 16.324219 L 11.65625 16 L 14 16 L 14 15 Z M 4 15 "/>
<path style=" stroke:none;fill-rule:nonzero;fill:rgb(30.196078%,30.196078%,30.196078%);fill-opacity:1;" d="M 0 0 L 0 24 L 4 24 L 4 9 L 7 9 L 7 15 L 8 15 L 8 9 L 11 9 L 11 15 L 12 15 L 12 9 L 15 9 L 15 14 L 16 14 L 16 9 L 19 9 L 19 14 L 20 14 L 20 9 L 23 9 L 23 14 L 24 14 L 24 0 Z M 1 1 L 3 1 L 3 8 L 1 8 Z M 4 1 L 7 1 L 7 8 L 4 8 Z M 8 1 L 11 1 L 11 8 L 8 8 Z M 12 1 L 15 1 L 15 8 L 12 8 Z M 16 1 L 19 1 L 19 8 L 16 8 Z M 20 1 L 23 1 L 23 8 L 20 8 Z M 1 9 L 3 9 L 3 15 L 1 15 Z M 15 15 L 20 24 L 24 15 Z M 1 16 L 3 16 L 3 23 L 1 23 Z M 1 16 "/>
</g>
</svg>
