<?xml version="1.0" encoding="UTF-8"?>
<svg xmlns="http://www.w3.org/2000/svg" xmlns:xlink="http://www.w3.org/1999/xlink" width="24.00032pt" height="23.999492pt" viewBox="0 0 24.00032 23.999492" version="1.1">
<g id="surface1">
<path style=" stroke:none;fill-rule:nonzero;fill:rgb(11.372549%,60%,95.294118%);fill-opacity:1;" d="M 19 15 L 19 19 L 15 19 L 15 20 L 19 20 L 19 24 L 20 24 L 20 20 L 24 20 L 24 19 L 20 19 L 20 15 Z M 19 15 "/>
<path style=" stroke:none;fill-rule:nonzero;fill:rgb(30.196078%,30.196078%,30.196078%);fill-opacity:1;" d="M 23.347656 0.00390625 C 21.640625 -0.121094 16.992188 3.1875 12.339844 7.839844 C 10.261719 9.917969 8.378906 12.074219 6.96875 13.980469 C 8.480469 14.386719 9.613281 15.519531 10.019531 17.03125 C 11.929688 15.625 14.082031 13.738281 16.160156 11.664062 C 21.441406 6.378906 24.867188 1.242188 23.8125 0.1875 C 23.703125 0.0820312 23.546875 0.0195312 23.347656 0.00390625 Z M 6.109375 16.082031 C 0.320312 17.914062 4.414062 21.300781 0 24 C 5.710938 23.695312 8.714844 20.691406 8.8125 18.785156 C 8.863281 17.835938 9.054688 16.082031 6.109375 16.082031 Z M 6.109375 16.082031 "/>
</g>
</svg>
