<?xml version="1.0" encoding="UTF-8"?>
<svg xmlns="http://www.w3.org/2000/svg" xmlns:xlink="http://www.w3.org/1999/xlink" width="25pt" height="25pt" viewBox="0 0 25 25" version="1.1">
<g id="surface1">
<path style=" stroke:none;fill-rule:nonzero;fill:rgb(30.196078%,30.196078%,30.196078%);fill-opacity:1;" d="M 3 0 L 3 21 L 1 21 L 1 22 L 3 22 L 3 24 L 4 24 L 4 22 L 25 22 L 25 21 L 21 21 L 21 13 L 16 13 L 16 21 L 12 21 L 12 4 L 7 4 L 7 21 L 4 21 L 4 0 Z M 3 0 "/>
<path style=" stroke:none;fill-rule:nonzero;fill:rgb(11.372549%,60%,95.294118%);fill-opacity:1;" d="M 6 1 L 6 2 L 22 2 L 22 1 Z M 0 2 L 0 19 L 1 19 L 1 2 Z M 6 24 L 6 25 L 23 25 L 23 24 Z M 6 24 "/>
</g>
</svg>
