<?xml version="1.0" encoding="UTF-8"?>
<svg xmlns="http://www.w3.org/2000/svg" xmlns:xlink="http://www.w3.org/1999/xlink" width="20pt" height="24pt" viewBox="0 0 20 24" version="1.1">
<g id="surface1">
<path style=" stroke:none;fill-rule:nonzero;fill:rgb(30.196078%,30.196078%,30.196078%);fill-opacity:1;" d="M 0 0 L 0 24 L 13 24 L 20 17 L 20 0 Z M 1 1 L 19 1 L 19 16 L 12 16 L 12 23 L 1 23 Z M 5 6 L 5 7 L 17 7 L 17 6 Z M 5 9 L 5 10 L 17 10 L 17 9 Z M 5 12 L 5 13 L 17 13 L 17 12 Z M 5 15 L 5 16 L 11 16 L 11 15 Z M 5 18 L 5 19 L 11 19 L 11 18 Z M 5 18 "/>
<path style=" stroke:none;fill-rule:nonzero;fill:rgb(11.372549%,60%,95.294118%);fill-opacity:1;" d="M 3 3 L 3 21 L 11 21 L 11 20 L 4 20 L 4 4 L 17 4 L 17 3 Z M 3 3 "/>
</g>
</svg>
