<?xml version="1.0" encoding="UTF-8"?>
<svg xmlns="http://www.w3.org/2000/svg" xmlns:xlink="http://www.w3.org/1999/xlink" width="24pt" height="24pt" viewBox="0 0 24 24" version="1.1">
<g id="surface1">
<path style=" stroke:none;fill-rule:nonzero;fill:rgb(30.196078%,30.196078%,30.196078%);fill-opacity:1;" d="M 0 0 L 0 10 L 5 10 L 5 19 L 14 19 L 14 24 L 24 24 L 24 14 L 14 14 L 14 18 L 6 18 L 6 10 L 10 10 L 10 5 L 14 5 L 14 10 L 24 10 L 24 0 L 14 0 L 14 4 L 10 4 L 10 0 Z M 1 1 L 9 1 L 9 9 L 1 9 Z M 15 1 L 23 1 L 23 9 L 15 9 Z M 15 1 "/>
</g>
</svg>
