<?xml version="1.0" encoding="UTF-8"?>
<svg xmlns="http://www.w3.org/2000/svg" xmlns:xlink="http://www.w3.org/1999/xlink" width="22pt" height="24pt" viewBox="0 0 22 24" version="1.1">
<g id="surface1">
<path style=" stroke:none;fill-rule:nonzero;fill:rgb(30.196078%,30.196078%,30.196078%);fill-opacity:1;" d="M 0 0 L 0 24 L 20 24 L 20 23 L 1 23 L 1 1 L 12 1 L 12 8 L 19 8 L 19 13 L 20 13 L 20 7 L 13 0 Z M 5 14 C 4.445312 14 4 14.445312 4 15 L 4 21 C 4 21.554688 4.445312 22 5 22 L 11 22 C 11.554688 22 12 21.554688 12 21 L 12 20 L 14 20 L 14 21 C 14 21.554688 14.445312 22 15 22 L 21 22 C 21.554688 22 22 21.554688 22 21 L 22 15 C 22 14.445312 21.554688 14 21 14 L 15 14 C 14.445312 14 14 14.445312 14 15 L 14 16 L 12 16 L 12 15 C 12 14.445312 11.554688 14 11 14 Z M 5 15 L 11 15 L 11 16 C 10.445312 16 10 16.445312 10 17 L 10 19 C 10 19.554688 10.445312 20 11 20 L 11 21 L 5 21 Z M 15 15 L 21 15 L 21 21 L 15 21 L 15 20 C 15.554688 20 16 19.554688 16 19 L 16 17 C 16 16.445312 15.554688 16 15 16 Z M 11 17 L 15 17 L 15 19 L 11 19 Z M 11 17 "/>
</g>
</svg>
