<?xml version="1.0" encoding="UTF-8"?>
<svg xmlns="http://www.w3.org/2000/svg" xmlns:xlink="http://www.w3.org/1999/xlink" width="24pt" height="24pt" viewBox="0 0 24 24" version="1.1">
<g id="surface1">
<path style=" stroke:none;fill-rule:nonzero;fill:rgb(11.372549%,60%,95.294118%);fill-opacity:1;" d="M 15 4 L 15 14 L 16 14 L 16 11.65625 L 16.324219 11.378906 L 16.769531 11 L 17.9375 10 L 23 5.65625 L 23 8.339844 L 22.671875 8.621094 L 21.0625 10 L 19.898438 11 L 16.398438 14 L 17.9375 14 L 21.4375 11 L 22.46875 10.113281 L 22.601562 10 L 23 9.65625 L 23 12.339844 L 22.671875 12.621094 L 21.0625 14 L 22.601562 14 L 23 13.65625 L 23 14 L 24 14 L 24 4 L 23 4 L 23 4.339844 L 22.671875 4.621094 L 16.398438 10 L 16 10.34375 L 16 7.65625 L 16.324219 7.378906 L 20.265625 4 L 18.734375 4 L 16 6.34375 L 16 4 Z M 15 4 "/>
<path style=" stroke:none;fill-rule:nonzero;fill:rgb(30.196078%,30.196078%,30.196078%);fill-opacity:1;" d="M 0 0 L 0 24 L 14 24 L 14 23 L 9 23 L 9 20 L 14 20 L 14 19 L 9 19 L 9 16 L 14 16 L 14 15 L 9 15 L 9 12 L 15 12 L 15 11 L 9 11 L 9 8 L 15 8 L 15 7 L 9 7 L 9 4 L 24 4 L 24 0 Z M 1 1 L 8 1 L 8 3 L 1 3 Z M 9 1 L 15 1 L 15 3 L 9 3 Z M 16 1 L 23 1 L 23 3 L 16 3 Z M 1 4 L 8 4 L 8 7 L 1 7 Z M 1 8 L 8 8 L 8 11 L 1 11 Z M 1 12 L 8 12 L 8 15 L 1 15 Z M 15 15 L 15 24 L 24 20 Z M 1 16 L 8 16 L 8 19 L 1 19 Z M 1 20 L 8 20 L 8 23 L 1 23 Z M 1 20 "/>
</g>
</svg>
