<?xml version="1.0" encoding="UTF-8"?>
<svg xmlns="http://www.w3.org/2000/svg" xmlns:xlink="http://www.w3.org/1999/xlink" width="24pt" height="24pt" viewBox="0 0 24 24" version="1.1">
<g id="surface1">
<path style=" stroke:none;fill-rule:nonzero;fill:rgb(11.372549%,60%,95.294118%);fill-opacity:1;" d="M 0 0 L 0 9 L 24 9 L 24 0 Z M 1 1 L 2.34375 1 L 1 2.566406 Z M 3.65625 1 L 6.34375 1 L 1 7.234375 L 1 4.101562 L 3.382812 1.324219 Z M 7.65625 1 L 10.34375 1 L 10 1.398438 L 4.621094 7.671875 L 4.339844 8 L 1.65625 8 L 7.378906 1.324219 Z M 11.65625 1 L 14.34375 1 L 11 4.898438 L 10 6.0625 L 8.621094 7.671875 L 8.339844 8 L 5.65625 8 L 10 2.9375 L 11 1.769531 L 11.378906 1.324219 Z M 15.65625 1 L 18.34375 1 L 12.621094 7.671875 L 12.339844 8 L 9.65625 8 L 10 7.601562 L 10.113281 7.46875 L 11 6.4375 L 15.378906 1.324219 Z M 19.65625 1 L 22.34375 1 L 16.621094 7.671875 L 16.339844 8 L 13.65625 8 L 19.378906 1.324219 Z M 23 1.769531 L 23 4.898438 L 20.621094 7.671875 L 20.339844 8 L 17.65625 8 Z M 23 6.4375 L 23 8 L 21.65625 8 Z M 23 6.4375 "/>
<path style=" stroke:none;fill-rule:nonzero;fill:rgb(30.196078%,30.196078%,30.196078%);fill-opacity:1;" d="M 0 9 L 0 24 L 15 24 L 15 23 L 13 23 L 13 16 L 15 16 L 15 15 L 13 15 L 13 9 L 12 9 L 12 15 L 9 15 L 9 9 L 8 9 L 8 15 L 5 15 L 5 9 L 4 9 L 4 15 L 1 15 L 1 9 Z M 16 9 L 16 14 L 17 14 L 17 9 Z M 20 9 L 20 14 L 21 14 L 21 9 Z M 23 9 L 23 14 L 24 14 L 24 9 Z M 19 15 L 19 19 L 15 19 L 15 20 L 19 20 L 19 24 L 20 24 L 20 20 L 24 20 L 24 19 L 20 19 L 20 15 Z M 1 16 L 4 16 L 4 23 L 1 23 Z M 5 16 L 8 16 L 8 23 L 5 23 Z M 9 16 L 12 16 L 12 23 L 9 23 Z M 9 16 "/>
</g>
</svg>
