<?xml version="1.0" encoding="UTF-8"?>
<svg xmlns="http://www.w3.org/2000/svg" xmlns:xlink="http://www.w3.org/1999/xlink" width="20pt" height="24pt" viewBox="0 0 20 24" version="1.1">
<g id="surface1">
<path style=" stroke:none;fill-rule:nonzero;fill:rgb(11.372549%,60%,95.294118%);fill-opacity:1;" d="M 3 3 L 3 5 L 17 5 L 17 3 Z M 3 3 "/>
<path style=" stroke:none;fill-rule:nonzero;fill:rgb(30.196078%,30.196078%,30.196078%);fill-opacity:1;" d="M 0 0 L 0 24 L 13 24 L 20 17 L 20 0 Z M 1 1 L 19 1 L 19 16 L 12 16 L 12 23 L 1 23 Z M 3 8 L 3 9 L 17 9 L 17 8 Z M 3 11 L 3 12 L 14 12 L 14 11 Z M 3 14 L 3 15 L 10 15 L 10 14 Z M 3 17 L 3 18 L 10 18 L 10 17 Z M 3 20 L 3 21 L 10 21 L 10 20 Z M 3 20 "/>
</g>
</svg>
