<?xml version="1.0" encoding="UTF-8"?>
<svg xmlns="http://www.w3.org/2000/svg" xmlns:xlink="http://www.w3.org/1999/xlink" width="24pt" height="24pt" viewBox="0 0 24 24" version="1.1">
<g id="surface1">
<path style=" stroke:none;fill-rule:nonzero;fill:rgb(30.196078%,30.196078%,30.196078%);fill-opacity:1;" d="M 0 0 L 0 1 L 1 1 L 1 5 L 0 5 L 0 6 L 3 6 L 3 5 L 2 5 L 2 1 L 3 1 L 3 0 Z M 7 0 L 7 1 L 24 1 L 24 0 Z M 7 3 L 7 4 L 20 4 L 20 3 Z M 0 18 L 0 19 L 1 19 L 1 23 L 0 23 L 0 24 L 5 24 L 5 23 L 4 23 L 4 19 L 5 19 L 5 18 Z M 7 18 L 7 19 L 24 19 L 24 18 Z M 2 19 L 3 19 L 3 23 L 2 23 Z M 7 21 L 7 22 L 18 22 L 18 21 Z M 20 22 L 20 23 L 24 23 L 24 22 Z M 20 22 "/>
<path style=" stroke:none;fill-rule:nonzero;fill:rgb(11.372549%,60%,95.294118%);fill-opacity:1;" d="M 7 10 L 7 11 L 24 11 L 24 10 Z M 7 13 L 7 14 L 11 14 L 11 13 Z M 15 13 L 15 14 L 24 14 L 24 13 Z M 15 13 "/>
</g>
</svg>
