<?xml version="1.0" encoding="UTF-8"?>
<svg xmlns="http://www.w3.org/2000/svg" xmlns:xlink="http://www.w3.org/1999/xlink" width="24pt" height="21pt" viewBox="0 0 24 21" version="1.1">
<g id="surface1">
<path style=" stroke:none;fill-rule:nonzero;fill:rgb(30.196078%,30.196078%,30.196078%);fill-opacity:1;" d="M 0 0 L 0 21 L 24 21 L 24 0 Z M 1 2 L 3 2 L 3 4 L 1 4 Z M 4 2 L 20 2 L 20 19 L 4 19 Z M 21 2 L 23 2 L 23 4 L 21 4 Z M 1 5 L 3 5 L 3 7 L 1 7 Z M 21 5 L 23 5 L 23 7 L 21 7 Z M 1 8 L 3 8 L 3 10 L 1 10 Z M 21 8 L 23 8 L 23 10 L 21 10 Z M 1 11 L 3 11 L 3 13 L 1 13 Z M 21 11 L 23 11 L 23 13 L 21 13 Z M 1 14 L 3 14 L 3 16 L 1 16 Z M 21 14 L 23 14 L 23 16 L 21 16 Z M 1 17 L 3 17 L 3 19 L 1 19 Z M 21 17 L 23 17 L 23 19 L 21 19 Z M 21 17 "/>
</g>
</svg>
