<?xml version="1.0" encoding="UTF-8"?>
<svg xmlns="http://www.w3.org/2000/svg" xmlns:xlink="http://www.w3.org/1999/xlink" width="24pt" height="24pt" viewBox="0 0 24 24" version="1.1">
<g id="surface1">
<path style=" stroke:none;fill-rule:nonzero;fill:rgb(30.196078%,30.196078%,30.196078%);fill-opacity:1;" d="M 1 1 L 1 23 L 23 23 L 23 1 Z M 2 2 L 22 2 L 22 22 L 2 22 Z M 5 3 L 5 21 L 19 21 L 19 8 L 15 3 Z M 6 4 L 14 4 L 14 9 L 18 9 L 18 20 L 6 20 Z M 6 4 "/>
<path style=" stroke:none;fill-rule:nonzero;fill:rgb(95.686275%,46.666667%,31.372549%);fill-opacity:1;" d="M 0 0 L 0 24 L 24 24 L 24 0 Z M 1 1 L 23 1 L 23 23 L 1 23 Z M 1 1 "/>
</g>
</svg>
