<?xml version="1.0" encoding="UTF-8"?>
<svg xmlns="http://www.w3.org/2000/svg" xmlns:xlink="http://www.w3.org/1999/xlink" width="20pt" height="24pt" viewBox="0 0 20 24" version="1.1">
<g id="surface1">
<path style=" stroke:none;fill-rule:nonzero;fill:rgb(30.196078%,30.196078%,30.196078%);fill-opacity:1;" d="M 0 0 L 0 24 L 10 24 L 10 23 L 1 23 L 1 1 L 12 1 L 12 8 L 19 8 L 19 14 L 20 14 L 20 7 L 13 0 Z M 4 8 L 4 10 L 2 10 L 2 11 L 4 11 L 4 14 L 2 14 L 2 15 L 4 15 L 4 17 L 5 17 L 5 15 L 8 15 L 8 17 L 9 17 L 9 15 L 11 15 L 11 14 L 9 14 L 9 11 L 11 11 L 11 10 L 9 10 L 9 8 L 8 8 L 8 10 L 5 10 L 5 8 Z M 5 11 L 8 11 L 8 14 L 5 14 Z M 13 15 L 13 17 L 11 17 L 11 18 L 13 18 L 13 21 L 11 21 L 11 22 L 13 22 L 13 24 L 14 24 L 14 22 L 17 22 L 17 24 L 18 24 L 18 22 L 20 22 L 20 21 L 18 21 L 18 18 L 20 18 L 20 17 L 18 17 L 18 15 L 17 15 L 17 17 L 14 17 L 14 15 Z M 14 18 L 17 18 L 17 21 L 14 21 Z M 14 18 "/>
</g>
</svg>
