<?xml version="1.0" encoding="UTF-8"?>
<svg xmlns="http://www.w3.org/2000/svg" xmlns:xlink="http://www.w3.org/1999/xlink" width="22pt" height="24pt" viewBox="0 0 22 24" version="1.1">
<g id="surface1">
<path style=" stroke:none;fill-rule:nonzero;fill:rgb(30.196078%,30.196078%,30.196078%);fill-opacity:1;" d="M 0 0 C 0 7.265625 0 14.761719 0 21 L 7 21 L 7 24 L 17 24 L 17 23 L 8 23 L 8 21 L 16 21 L 16 4 L 21 4 L 21 15 L 22 15 L 22 3 L 16 3 L 16 0 C 10.667969 0 5.332031 0 0 0 Z M 1 1 C 5.667969 1 10.332031 1 15 1 L 15 20 L 1 20 C 1 13.667969 1 7.332031 1 1 Z M 3 3 L 3 4 L 13 4 L 13 3 Z M 3 6 L 3 7 L 9 7 L 9 6 Z M 3 11 L 3 12 L 11 12 L 11 11 Z M 3 11 "/>
<path style=" stroke:none;fill-rule:nonzero;fill:rgb(11.372549%,60%,95.294118%);fill-opacity:1;" d="M 19 16 L 19 17 L 20 17 L 20 16 Z M 3 17 L 3 18 L 8 18 L 8 17 Z M 19 18 L 19 24 L 20 24 L 20 18 Z M 19 18 "/>
</g>
</svg>
