<?xml version="1.0" encoding="UTF-8"?>
<svg xmlns="http://www.w3.org/2000/svg" xmlns:xlink="http://www.w3.org/1999/xlink" width="24pt" height="24pt" viewBox="0 0 24 24" version="1.1">
<g id="surface1">
<path style=" stroke:none;fill-rule:nonzero;fill:rgb(30.196078%,30.196078%,30.196078%);fill-opacity:1;" d="M 1 1 L 1 23 L 13 23 L 13 22 L 2 22 L 2 2 L 22 2 L 22 13 L 23 13 L 23 1 Z M 18 13 L 18 18 L 13 18 L 13 19 L 18 19 L 18 24 L 19 24 L 19 19 L 24 19 L 24 18 L 19 18 L 19 13 Z M 18 13 "/>
<path style=" stroke:none;fill-rule:nonzero;fill:rgb(95.686275%,46.666667%,31.372549%);fill-opacity:1;" d="M 0 0 L 0 24 L 13 24 L 13 23 L 1 23 L 1 1 L 23 1 L 23 13 L 24 13 L 24 0 Z M 0 0 "/>
</g>
</svg>
