<?xml version="1.0" encoding="UTF-8"?>
<svg xmlns="http://www.w3.org/2000/svg" xmlns:xlink="http://www.w3.org/1999/xlink" width="24pt" height="24pt" viewBox="0 0 24 24" version="1.1">
<g id="surface1">
<path style=" stroke:none;fill-rule:nonzero;fill:rgb(11.372549%,60%,95.294118%);fill-opacity:1;" d="M 0 11 L 0 12 L 6 12 L 6 11 Z M 9 11 L 9 12 L 15 12 L 15 11 Z M 18 11 L 18 12 L 24 12 L 24 11 Z M 18 11 "/>
<path style=" stroke:none;fill-rule:nonzero;fill:rgb(30.196078%,30.196078%,30.196078%);fill-opacity:1;" d="M 2 0 L 2 10 L 22 10 L 22 0 Z M 3 1 L 21 1 L 21 9 L 3 9 Z M 2 13 L 2 24 L 15 24 L 22 17 L 22 13 Z M 3 14 L 21 14 L 21 16 L 14 16 L 14 23 L 3 23 Z M 3 14 "/>
</g>
</svg>
