<?xml version="1.0" encoding="UTF-8"?>
<svg xmlns="http://www.w3.org/2000/svg" xmlns:xlink="http://www.w3.org/1999/xlink" width="26pt" height="22pt" viewBox="0 0 26 22" version="1.1">
<g id="surface1">
<path style=" stroke:none;fill-rule:nonzero;fill:rgb(30.196078%,30.196078%,30.196078%);fill-opacity:1;" d="M 5 0 L 5 4 L 0 4 L 0 5 L 5 5 L 5 9 L 11 9 L 11 8 L 6 8 L 6 1 L 11 1 L 11 0 Z M 15 0 L 15 1 L 20 1 L 20 8 L 15 8 L 15 9 L 21 9 L 21 5 L 26 5 L 26 4 L 21 4 L 21 0 Z M 11 4 L 11 5 L 15 5 L 15 4 Z M 11 4 "/>
<path style=" stroke:none;fill-rule:nonzero;fill:rgb(11.372549%,60%,95.294118%);fill-opacity:1;" d="M 20 13 L 20 17 L 16 17 L 16 18 L 20 18 L 20 22 L 21 22 L 21 18 L 25 18 L 25 17 L 21 17 L 21 13 Z M 20 13 "/>
</g>
</svg>
