<?xml version="1.0" encoding="UTF-8"?>
<svg xmlns="http://www.w3.org/2000/svg" xmlns:xlink="http://www.w3.org/1999/xlink" width="20pt" height="24pt" viewBox="0 0 20 24" version="1.1">
<g id="surface1">
<path style=" stroke:none;fill-rule:nonzero;fill:rgb(30.196078%,30.196078%,30.196078%);fill-opacity:1;" d="M 0 0 L 0 24 L 20 24 L 20 0 Z M 1 1 L 19 1 L 19 23 L 1 23 Z M 4 4 L 4 17 L 2 17 L 2 18 L 4 18 L 4 20 L 5 20 L 5 18 L 18 18 L 18 17 L 16 17 L 16 12 L 13 12 L 13 17 L 10 17 L 10 8 L 7 8 L 7 17 L 5 17 L 5 4 Z M 4 4 "/>
</g>
</svg>
