<?xml version="1.0" encoding="UTF-8"?>
<svg xmlns="http://www.w3.org/2000/svg" xmlns:xlink="http://www.w3.org/1999/xlink" width="24pt" height="24pt" viewBox="0 0 24 24" version="1.1">
<g id="surface1">
<path style=" stroke:none;fill-rule:nonzero;fill:rgb(30.196078%,30.196078%,30.196078%);fill-opacity:1;" d="M 0 0 L 0 1 L 24 1 L 24 0 Z M 0 3 L 0 4 L 24 4 L 24 3 Z M 0 7 L 0 8 L 24 8 L 24 7 Z M 0 11 L 0 12 L 24 12 L 24 11 Z M 0 15 L 0 16 L 24 16 L 24 15 Z M 0 19 L 0 20 L 14 20 L 14 19 Z M 22 19 L 22 20 L 24 20 L 24 19 Z M 0 23 L 0 24 L 24 24 L 24 23 Z M 0 23 "/>
<path style=" stroke:none;fill-rule:nonzero;fill:rgb(11.372549%,60%,95.294118%);fill-opacity:1;" d="M 15 18 L 15 21 L 21 21 L 21 18 Z M 15 18 "/>
</g>
</svg>
