<?xml version="1.0" encoding="UTF-8"?>
<svg xmlns="http://www.w3.org/2000/svg" xmlns:xlink="http://www.w3.org/1999/xlink" width="24pt" height="26pt" viewBox="0 0 24 26" version="1.1">
<g id="surface1">
<path style=" stroke:none;fill-rule:nonzero;fill:rgb(30.196078%,30.196078%,30.196078%);fill-opacity:1;" d="M 0 1 L 0 2 L 17 2 L 17 1 Z M 0 4 L 0 5 L 10 5 L 10 4 Z M 0 11 L 0 12 L 17 12 L 17 11 Z M 0 14 L 0 15 L 8 15 L 8 14 Z M 0 21 L 0 22 L 15 22 L 15 21 Z M 0 24 L 0 25 L 6 25 L 6 24 Z M 0 24 "/>
<path style=" stroke:none;fill-rule:nonzero;fill:rgb(11.372549%,60%,95.294118%);fill-opacity:1;" d="M 21 0 L 21 1 L 22 1 L 22 5 L 21 5 L 21 6 L 24 6 L 24 5 L 23 5 L 23 1 L 24 1 L 24 0 Z M 12 4 L 12 5 L 13 5 L 13 4 Z M 15 4 L 15 5 L 16 5 L 16 4 Z M 18 4 L 18 5 L 19 5 L 19 4 Z M 19 10 L 19 11 L 20 11 L 20 15 L 19 15 L 19 16 L 24 16 L 24 15 L 23 15 L 23 11 L 24 11 L 24 10 Z M 21 11 L 22 11 L 22 15 L 21 15 Z M 10 14 L 10 15 L 11 15 L 11 14 Z M 13 14 L 13 15 L 14 15 L 14 14 Z M 16 14 L 16 15 L 17 15 L 17 14 Z M 17 20 L 17 21 L 18 21 L 18 25 L 17 25 L 17 26 L 24 26 L 24 25 L 23 25 L 23 21 L 24 21 L 24 20 Z M 19 21 L 20 21 L 20 25 L 19 25 Z M 21 21 L 22 21 L 22 25 L 21 25 Z M 8 24 L 8 25 L 9 25 L 9 24 Z M 11 24 L 11 25 L 12 25 L 12 24 Z M 14 24 L 14 25 L 15 25 L 15 24 Z M 14 24 "/>
</g>
</svg>
