<?xml version="1.0" encoding="UTF-8"?>
<svg xmlns="http://www.w3.org/2000/svg" xmlns:xlink="http://www.w3.org/1999/xlink" width="26pt" height="24pt" viewBox="0 0 26 24" version="1.1">
<g id="surface1">
<path style=" stroke:none;fill-rule:nonzero;fill:rgb(30.196078%,30.196078%,30.196078%);fill-opacity:1;" d="M 12 0 C 5.371094 0 0 4.699219 0 10.5 C 0.0078125 14.261719 3.269531 18.132812 7 20 L 7 22 L 2 22 C 0.808594 21.679688 0.0507812 20.007812 0 19.6875 L 0 24 L 9 24 L 9 20.140625 L 8.8125 20.0625 C 6.183594 18.457031 3.003906 14.773438 3 11 C 3 5.613281 7.859375 1 12 1 C 16.140625 1 21 5.613281 21 11 C 21 12.019531 20.761719 13.03125 20.371094 14 L 23.105469 14 C 23.660156 12.863281 23.996094 11.679688 24 10.5 C 24 4.699219 18.628906 0 12 0 Z M 15 21 L 15 24 L 19 24 L 19 22 L 17 22 L 17 21 Z M 15 21 "/>
<path style=" stroke:none;fill-rule:nonzero;fill:rgb(11.372549%,60%,95.294118%);fill-opacity:1;" d="M 21 15 L 21 19 L 17 19 L 17 20 L 21 20 L 21 24 L 22 24 L 22 20 L 26 20 L 26 19 L 22 19 L 22 15 Z M 21 15 "/>
</g>
</svg>
