<?xml version="1.0" encoding="UTF-8"?>
<svg xmlns="http://www.w3.org/2000/svg" xmlns:xlink="http://www.w3.org/1999/xlink" width="24pt" height="24pt" viewBox="0 0 24 24" version="1.1">
<g id="surface1">
<path style=" stroke:none;fill-rule:nonzero;fill:rgb(30.196078%,30.196078%,30.196078%);fill-opacity:1;" d="M 9 0 L 9 1 L 15 1 L 15 3 L 9 3 L 9 4 L 15 4 L 15 7 L 9 7 L 9 8 L 15 8 L 15 11 L 9 11 L 9 12 L 15 12 L 15 14 L 16 14 L 16 12 L 23 12 L 23 14 L 24 14 L 24 0 Z M 16 1 L 23 1 L 23 3 L 16 3 Z M 16 4 L 23 4 L 23 7 L 16 7 Z M 16 8 L 23 8 L 23 11 L 16 11 Z M 9 15 L 9 16 L 14 16 L 14 15 Z M 19 15 L 19 19 L 15 19 L 15 20 L 19 20 L 19 24 L 20 24 L 20 20 L 24 20 L 24 19 L 20 19 L 20 15 Z M 9 19 L 9 20 L 14 20 L 14 19 Z M 9 23 L 9 24 L 14 24 L 14 23 Z M 9 23 "/>
<path style=" stroke:none;fill-rule:nonzero;fill:rgb(11.372549%,60%,95.294118%);fill-opacity:1;" d="M 0 0 L 0 24 L 9 24 L 9 0 Z M 1.769531 1 L 4.898438 1 L 7.671875 3.378906 L 8 3.660156 L 8 6.34375 Z M 6.4375 1 L 8 1 L 8 2.34375 Z M 1 1.65625 L 7.671875 7.378906 L 8 7.660156 L 8 10.34375 C 5.667969 8.34375 3.332031 6.339844 1 4.34375 Z M 1 5.65625 C 3.332031 7.660156 5.667969 9.65625 8 11.660156 L 8 14.34375 C 5.773438 12.433594 3.550781 10.527344 1.324219 8.621094 L 1 8.34375 Z M 1 9.65625 C 3.226562 11.566406 5.449219 13.472656 7.671875 15.378906 L 8 15.660156 L 8 18.34375 C 5.664062 16.34375 3.335938 14.339844 1 12.34375 Z M 1 13.65625 C 3.222656 15.566406 5.449219 17.472656 7.671875 19.378906 L 8 19.660156 L 8 22.34375 C 5.667969 20.34375 3.332031 18.339844 1 16.34375 Z M 1 17.65625 L 7.234375 23 L 4.101562 23 C 3.066406 22.113281 2.035156 21.226562 1 20.34375 Z M 1 21.65625 L 2.566406 23 L 1 23 Z M 1 21.65625 "/>
</g>
</svg>
