<?xml version="1.0" encoding="UTF-8"?>
<svg xmlns="http://www.w3.org/2000/svg" xmlns:xlink="http://www.w3.org/1999/xlink" width="20pt" height="24pt" viewBox="0 0 20 24" version="1.1">
<g id="surface1">
<path style=" stroke:none;fill-rule:nonzero;fill:rgb(11.372549%,60%,95.294118%);fill-opacity:1;" d="M 17 16 L 15 19 L 17 19 L 17 24 L 18 24 L 18 16 Z M 2 20 L 2 21 L 12 21 L 12 20 Z M 2 20 "/>
<path style=" stroke:none;fill-rule:nonzero;fill:rgb(30.196078%,30.196078%,30.196078%);fill-opacity:1;" d="M 0 0 L 0 24 L 14 24 L 14 23 L 1 23 L 1 1 L 19 1 L 19 15 L 20 15 L 20 0 Z M 3 4 L 3 5 L 17 5 L 17 4 Z M 3 7 L 3 8 L 17 8 L 17 7 Z M 2 17 L 2 18 L 12 18 L 12 17 Z M 2 17 "/>
</g>
</svg>
