<?xml version="1.0" encoding="UTF-8"?>
<svg xmlns="http://www.w3.org/2000/svg" xmlns:xlink="http://www.w3.org/1999/xlink" width="24pt" height="24pt" viewBox="0 0 24 24" version="1.1">
<g id="surface1">
<path style=" stroke:none;fill-rule:nonzero;fill:rgb(30.196078%,30.196078%,30.196078%);fill-opacity:1;" d="M 0 0 L 0 15 L 1 15 L 1 9 L 3 9 L 3 15 L 4 15 L 4 9 L 7 9 L 7 15 L 8 15 L 8 9 L 11 9 L 11 15 L 12 15 L 12 9 L 15 9 L 15 14 L 16 14 L 16 9 L 19 9 L 19 14 L 20 14 L 20 9 L 23 9 L 23 14 L 24 14 L 24 0 Z M 1 1 L 3 1 L 3 8 L 1 8 Z M 4 1 L 7 1 L 7 8 L 4 8 Z M 8 1 L 11 1 L 11 8 L 8 8 Z M 12 1 L 15 1 L 15 8 L 12 8 Z M 16 1 L 19 1 L 19 8 L 16 8 Z M 20 1 L 23 1 L 23 8 L 20 8 Z M 19 15 L 19 19 L 15 19 L 15 20 L 19 20 L 19 24 L 20 24 L 20 20 L 24 20 L 24 19 L 20 19 L 20 15 Z M 19 15 "/>
<path style=" stroke:none;fill-rule:nonzero;fill:rgb(11.372549%,60%,95.294118%);fill-opacity:1;" d="M 0 15 L 0 24 L 14 24 L 14 23 L 13.65625 23 L 14 22.601562 L 14 21.0625 C 13.449219 21.710938 12.894531 22.355469 12.339844 23 L 9.65625 23 C 11.105469 21.3125 12.554688 19.625 14 17.9375 L 14 16.398438 C 11.984375 18.75 10.105469 20.941406 8.339844 23 L 5.65625 23 C 7.875 20.414062 9.652344 18.34375 11.65625 16 L 14 16 L 14 15 Z M 1 16 L 2.34375 16 L 1 17.566406 Z M 3.65625 16 L 6.34375 16 L 1 22.234375 L 1 19.101562 C 1.886719 18.066406 2.773438 17.035156 3.65625 16 Z M 7.65625 16 L 10.34375 16 C 8.207031 18.488281 6.207031 20.824219 4.339844 23 L 1.65625 23 C 3.65625 20.667969 5.660156 18.332031 7.65625 16 Z M 7.65625 16 "/>
</g>
</svg>
