<?xml version="1.0" encoding="UTF-8"?>
<svg xmlns="http://www.w3.org/2000/svg" xmlns:xlink="http://www.w3.org/1999/xlink" width="24pt" height="24pt" viewBox="0 0 24 24" version="1.1">
<g id="surface1">
<path style=" stroke:none;fill-rule:nonzero;fill:rgb(30.196078%,30.196078%,30.196078%);fill-opacity:1;" d="M 7 0 L 7 17.359375 C 6.242188 16.496094 5.148438 16 4 16 C 1.789062 16 0 17.789062 0 20 C 0 22.210938 1.789062 24 4 24 C 6.210938 24 8 22.210938 8 20 L 8 6 L 23 6 L 23 13.359375 C 22.242188 12.496094 21.148438 12 20 12 C 17.789062 12 16 13.789062 16 16 C 16 18.210938 17.789062 20 20 20 C 22.210938 20 24 18.210938 24 16 L 24 0 Z M 8 3 L 23 3 L 23 5 L 8 5 Z M 8 3 "/>
</g>
</svg>
