<?xml version="1.0" encoding="UTF-8"?>
<svg xmlns="http://www.w3.org/2000/svg" xmlns:xlink="http://www.w3.org/1999/xlink" width="24.039062pt" height="24pt" viewBox="0 0 24.039062 24" version="1.1">
<g id="surface1">
<path style=" stroke:none;fill-rule:nonzero;fill:rgb(30.196078%,30.196078%,30.196078%);fill-opacity:1;" d="M 0 0 L 0 24 L 10 24 L 10 23 L 1 23 L 1 1 L 23 1 L 23 12 L 24 12 L 24 0 Z M 7 3 C 4.789062 3 3 4.789062 3 7 C 3 9.210938 4.789062 11 7 11 C 9.210938 11 11 9.210938 11 7 C 11 4.789062 9.210938 3 7 3 Z M 13 3 L 13 11 L 21 11 L 21 3 Z M 20.4375 12 L 12.039062 20.398438 L 12.039062 24 L 15.640625 24 L 24.039062 15.601562 Z M 4 13 L 4 21 L 10 21 L 10 13 Z M 18.390625 15.488281 L 20.550781 17.652344 L 17.375 20.828125 L 17.375 20.152344 L 16.363281 20.171875 L 15.328125 20.171875 L 15.328125 18.550781 L 16.765625 17.109375 Z M 14.3125 19.5625 L 14.3125 21.1875 L 16.339844 21.1875 L 16.359375 21.839844 L 15.28125 22.921875 L 13.839844 22.921875 L 13.121094 22.199219 L 13.121094 20.757812 Z M 23 20 L 23 23 L 20 23 L 20 24 L 24 24 L 24 20 Z M 23 20 "/>
</g>
</svg>
