<?xml version="1.0" encoding="UTF-8"?>
<svg xmlns="http://www.w3.org/2000/svg" xmlns:xlink="http://www.w3.org/1999/xlink" width="24pt" height="25pt" viewBox="0 0 24 25" version="1.1">
<g id="surface1">
<path style=" stroke:none;fill-rule:nonzero;fill:rgb(30.196078%,30.196078%,30.196078%);fill-opacity:1;" d="M 2 0 L 2 21 L 0 21 L 0 22 L 2 22 L 2 24 L 3 24 L 3 22 L 24 22 L 24 21 L 20 21 L 20 13 L 15 13 L 15 21 L 11 21 L 11 0 L 6 0 L 6 21 L 3 21 L 3 0 Z M 15 23 C 14.449219 23 14 23.449219 14 24 C 14 24.550781 14.449219 25 15 25 C 15.550781 25 16 24.550781 16 24 C 16 23.449219 15.550781 23 15 23 Z M 19 23 C 18.449219 23 18 23.449219 18 24 C 18 24.550781 18.449219 25 19 25 C 19.550781 25 20 24.550781 20 24 C 20 23.449219 19.550781 23 19 23 Z M 23 23 C 22.449219 23 22 23.449219 22 24 C 22 24.550781 22.449219 25 23 25 C 23.550781 25 24 24.550781 24 24 C 24 23.449219 23.550781 23 23 23 Z M 23 23 "/>
<path style=" stroke:none;fill-rule:nonzero;fill:rgb(11.372549%,60%,95.294118%);fill-opacity:1;" d="M 13 2 L 13 11 L 24 11 L 24 2 Z M 14 3 L 23 3 L 23 10 L 14 10 Z M 14 3 "/>
</g>
</svg>
