<?xml version="1.0" encoding="UTF-8"?>
<svg xmlns="http://www.w3.org/2000/svg" xmlns:xlink="http://www.w3.org/1999/xlink" width="22pt" height="24pt" viewBox="0 0 22 24" version="1.1">
<g id="surface1">
<path style=" stroke:none;fill-rule:nonzero;fill:rgb(30.196078%,30.196078%,30.196078%);fill-opacity:1;" d="M 0 0 L 0 2 L 22 2 L 22 0 Z M 0 5 L 0 6 L 22 6 L 22 5 Z M 0 9 L 0 11 L 2 11 L 2 9 Z M 4 9 L 4 11 L 6 11 L 6 9 Z M 8 9 L 8 11 L 10 11 L 10 9 Z M 12 9 L 12 11 L 14 11 L 14 9 Z M 16 9 L 16 11 L 18 11 L 18 9 Z M 20 9 L 20 11 L 22 11 L 22 9 Z M 0 14 L 0 15 L 22 15 L 22 14 Z M 0 18 L 0 19 L 1 19 L 1 18 Z M 3 18 L 3 19 L 4 19 L 4 18 Z M 6 18 L 6 19 L 7 19 L 7 18 Z M 9 18 L 9 19 L 10 19 L 10 18 Z M 12 18 L 12 19 L 13 19 L 13 18 Z M 15 18 L 15 19 L 16 19 L 16 18 Z M 18 18 L 18 19 L 19 19 L 19 18 Z M 21 18 L 21 19 L 22 19 L 22 18 Z M 0 22 L 0 24 L 22 24 L 22 22 Z M 0 22 "/>
</g>
</svg>
