<?xml version="1.0" encoding="UTF-8"?>
<svg xmlns="http://www.w3.org/2000/svg" xmlns:xlink="http://www.w3.org/1999/xlink" width="20pt" height="24pt" viewBox="0 0 20 24" version="1.1">
<g id="surface1">
<path style=" stroke:none;fill-rule:nonzero;fill:rgb(30.196078%,30.196078%,30.196078%);fill-opacity:1;" d="M 0 0 L 0 24 L 20 24 L 20 0 Z M 1 1 L 11 1 L 11 23 L 1 23 Z M 15.5 1.5 L 15.984375 2.0625 L 18.714844 4.96875 L 17.792969 6 L 15.5 3.5625 L 13.207031 6 L 12.285156 4.96875 L 15.015625 2.0625 Z M 3 3 L 3 4 L 9 4 L 9 3 Z M 3 7 L 3 8 L 9 8 L 9 7 Z M 3 11 L 3 12 L 9 12 L 9 11 Z M 3 15 L 3 16 L 9 16 L 9 15 Z M 13.207031 18 L 15.5 20.4375 L 17.792969 18 L 18.714844 19.03125 L 15.984375 21.9375 L 15.5 22.5 L 15.015625 21.9375 L 12.285156 19.03125 Z M 3 19 L 3 20 L 9 20 L 9 19 Z M 3 19 "/>
</g>
</svg>
