<?xml version="1.0" encoding="UTF-8"?>
<svg xmlns="http://www.w3.org/2000/svg" xmlns:xlink="http://www.w3.org/1999/xlink" width="21.72461pt" height="24pt" viewBox="0 0 21.72461 24" version="1.1">
<g id="surface1">
<path style=" stroke:none;fill-rule:nonzero;fill:rgb(30.196078%,30.196078%,30.196078%);fill-opacity:1;" d="M 4.046875 0 C 2.269531 0 1.523438 0.707031 1.523438 2.507812 L 1.523438 4.953125 C 1.523438 4.96875 1.523438 4.984375 1.523438 5 L 1.523438 8.953125 C 1.523438 10.066406 1.488281 11.355469 0.507812 11.355469 L 0 11.355469 L 0 12.644531 L 0.507812 12.644531 C 1.488281 12.644531 1.523438 13.933594 1.523438 15.046875 L 1.523438 19 C 1.523438 19.015625 1.523438 19.03125 1.523438 19.046875 L 1.523438 21.488281 C 1.523438 23.292969 2.269531 24 4.046875 24 L 4.046875 22.816406 C 2.859375 22.816406 2.84375 22.339844 2.84375 20.605469 L 2.84375 19 L 2.851562 19 C 2.851562 18.863281 2.84375 16.765625 2.84375 16.605469 L 2.84375 14.589844 C 2.84375 13.757812 2.640625 12.523438 1.640625 12.011719 C 2.640625 11.496094 2.84375 10.257812 2.84375 9.425781 L 2.84375 7.394531 C 2.84375 7.234375 2.851562 5.136719 2.851562 5 L 2.84375 5 L 2.84375 3.394531 C 2.84375 1.660156 2.859375 1.183594 4.046875 1.183594 Z M 17.679688 0 L 17.679688 1.183594 C 18.863281 1.183594 18.882812 1.660156 18.882812 3.394531 L 18.882812 5 L 18.871094 5 C 18.875 5.136719 18.882812 7.234375 18.882812 7.394531 L 18.882812 9.425781 C 18.882812 10.257812 19.085938 11.496094 20.085938 12.011719 C 19.085938 12.523438 18.882812 13.757812 18.882812 14.589844 L 18.882812 16.605469 C 18.882812 16.765625 18.875 18.863281 18.871094 19 L 18.882812 19 L 18.882812 20.605469 C 18.882812 22.339844 18.863281 22.816406 17.679688 22.816406 L 17.679688 24 C 19.457031 24 20.199219 23.292969 20.199219 21.488281 L 20.199219 19.046875 C 20.199219 19.03125 20.203125 19.015625 20.203125 19 L 20.199219 19 L 20.199219 15.046875 C 20.199219 13.933594 20.234375 12.644531 21.214844 12.644531 L 21.726562 12.644531 L 21.726562 11.355469 L 21.214844 11.355469 C 20.234375 11.355469 20.199219 10.066406 20.199219 8.953125 L 20.199219 5 L 20.203125 5 C 20.203125 4.984375 20.199219 4.96875 20.199219 4.953125 L 20.199219 2.507812 C 20.199219 0.707031 19.457031 0 17.679688 0 Z M 10.839844 8 L 10.839844 11 L 4.839844 11 L 4.839844 13 L 10.839844 13 L 10.839844 16 L 16.839844 12 Z M 10.839844 8 "/>
</g>
</svg>
