<?xml version="1.0" encoding="UTF-8"?>
<svg xmlns="http://www.w3.org/2000/svg" xmlns:xlink="http://www.w3.org/1999/xlink" width="24pt" height="24pt" viewBox="0 0 24 24" version="1.1">
<g id="surface1">
<path style=" stroke:none;fill-rule:nonzero;fill:rgb(11.372549%,60%,95.294118%);fill-opacity:1;" d="M 13 17 L 13 18 L 17 18 L 17 22 L 13 22 L 13 23 L 18 23 L 18 21 L 21 21 L 21 22 L 24 20 L 21 18 L 21 19 L 18 19 L 18 17 Z M 13 17 "/>
<path style=" stroke:none;fill-rule:nonzero;fill:rgb(30.196078%,30.196078%,30.196078%);fill-opacity:1;" d="M 7 0 L 0 7 L 0 20 L 7 20 L 7 24 L 12 24 L 12 23 L 8 23 L 8 20 L 12 20 L 12 19 L 1 19 L 1 8 L 8 8 L 8 1 L 14 1 L 14 16 L 15 16 L 15 5 L 21 5 L 21 16 L 22 16 L 22 4 L 15 4 L 15 0 Z M 7 0 "/>
</g>
</svg>
