<?xml version="1.0" encoding="UTF-8"?>
<svg xmlns="http://www.w3.org/2000/svg" xmlns:xlink="http://www.w3.org/1999/xlink" width="24pt" height="22pt" viewBox="0 0 24 22" version="1.1">
<g id="surface1">
<path style=" stroke:none;fill-rule:nonzero;fill:rgb(30.196078%,30.196078%,30.196078%);fill-opacity:1;" d="M 5 0 L 5 4 L 3 4 L 3 5 L 5 5 L 5 9 L 9 9 L 9 13 L 5 13 L 5 17 L 3 17 L 3 18 L 5 18 L 5 22 L 19 22 L 19 18 L 21 18 L 21 17 L 19 17 L 19 13 L 15 13 L 15 9 L 19 9 L 19 5 L 21 5 L 21 4 L 19 4 L 19 0 Z M 6 1 L 18 1 L 18 8 L 6 8 Z M 0 4 L 0 5 L 2 5 L 2 4 Z M 22 4 L 22 5 L 24 5 L 24 4 Z M 10 9 L 14 9 L 14 13 L 10 13 Z M 6 14 L 18 14 L 18 21 L 6 21 Z M 7 15 L 7 20 L 17 20 L 17 15 Z M 0 17 L 0 18 L 2 18 L 2 17 Z M 22 17 L 22 18 L 24 18 L 24 17 Z M 22 17 "/>
</g>
</svg>
