<?xml version="1.0" encoding="UTF-8"?>
<svg xmlns="http://www.w3.org/2000/svg" xmlns:xlink="http://www.w3.org/1999/xlink" width="22pt" height="24pt" viewBox="0 0 22 24" version="1.1">
<g id="surface1">
<path style=" stroke:none;fill-rule:nonzero;fill:rgb(30.196078%,30.196078%,30.196078%);fill-opacity:1;" d="M 4 0 L 4 2 L 5 2 L 5 0 Z M 17 0 L 17 2 L 18 2 L 18 0 Z M 4 3 L 4 5 L 0 5 L 0 19 L 4 19 L 4 21 L 5 21 L 5 19 L 9 19 L 9 15 L 13 15 L 13 19 L 17 19 L 17 21 L 18 21 L 18 19 L 22 19 L 22 5 L 18 5 L 18 3 L 17 3 L 17 5 L 13 5 L 13 9 L 9 9 L 9 5 L 5 5 L 5 3 Z M 1 6 L 8 6 L 8 18 L 1 18 Z M 14 6 L 21 6 L 21 18 L 14 18 Z M 15 7 L 15 17 L 20 17 L 20 7 Z M 9 10 L 13 10 L 13 14 L 9 14 Z M 4 22 L 4 24 L 5 24 L 5 22 Z M 17 22 L 17 24 L 18 24 L 18 22 Z M 17 22 "/>
</g>
</svg>
