<?xml version="1.0" encoding="UTF-8"?>
<svg xmlns="http://www.w3.org/2000/svg" xmlns:xlink="http://www.w3.org/1999/xlink" width="24pt" height="24pt" viewBox="0 0 24 24" version="1.1">
<g id="surface1">
<path style=" stroke:none;fill-rule:nonzero;fill:rgb(30.196078%,30.196078%,30.196078%);fill-opacity:1;" d="M 12 0 C 5.371094 0 0 5.371094 0 12 C 0 18.628906 5.371094 24 12 24 C 18.628906 24 24 18.628906 24 12 C 24 5.371094 18.628906 0 12 0 Z M 12 1 C 18.074219 1 23 5.925781 23 12 C 23 18.074219 18.074219 23 12 23 C 5.925781 23 1 18.074219 1 12 C 1 5.925781 5.925781 1 12 1 Z M 18 6 L 12 9 C 10.34375 9 9 10.34375 9 12 L 6 18 L 12 15 C 13.65625 15 15 13.65625 15 12 Z M 12 10 C 13.105469 10 14 10.894531 14 12 C 14 13.105469 13.105469 14 12 14 C 10.894531 14 10 13.105469 10 12 C 10 10.894531 10.894531 10 12 10 Z M 12 10 "/>
</g>
</svg>
