<?xml version="1.0" encoding="UTF-8"?>
<svg xmlns="http://www.w3.org/2000/svg" xmlns:xlink="http://www.w3.org/1999/xlink" width="24pt" height="20pt" viewBox="0 0 24 20" version="1.1">
<g id="surface1">
<path style=" stroke:none;fill-rule:nonzero;fill:rgb(30.196078%,30.196078%,30.196078%);fill-opacity:1;" d="M 0 0 L 0 13 L 7 20 L 11 20 L 11 19 L 8 19 L 8 12 L 1 12 L 1 1 L 23 1 L 23 9 L 24 9 L 24 0 Z M 20.398438 8 L 15.285156 13.109375 L 12 16.398438 L 12 20 L 15.601562 20 L 24 11.601562 Z M 18.347656 11.488281 L 20.511719 13.652344 L 17.335938 16.828125 L 17.335938 16.152344 L 16.324219 16.171875 L 15.285156 16.171875 L 15.285156 14.550781 Z M 14.273438 15.5625 L 14.273438 17.1875 L 16.300781 17.1875 L 16.324219 17.839844 L 15.242188 18.921875 L 13.800781 18.921875 L 13.078125 18.199219 L 13.078125 16.757812 Z M 14.273438 15.5625 "/>
</g>
</svg>
