<?xml version="1.0" encoding="UTF-8"?>
<svg xmlns="http://www.w3.org/2000/svg" xmlns:xlink="http://www.w3.org/1999/xlink" width="22pt" height="24pt" viewBox="0 0 22 24" version="1.1">
<g id="surface1">
<path style=" stroke:none;fill-rule:nonzero;fill:rgb(11.372549%,60%,95.294118%);fill-opacity:1;" d="M 0 0 L 0 24 L 9 24 L 9 23 L 1 23 L 1 1 L 19 1 L 19 11 L 20 11 L 20 0 Z M 2 2 L 2 11 L 18 11 L 18 2 Z M 3 3 L 17 3 L 17 10 L 3 10 Z M 18.398438 12 L 13.285156 17.109375 L 10 20.398438 L 10 24 L 13.601562 24 L 22 15.601562 Z M 2 13 L 2 14 L 14 14 L 14 13 Z M 2 15 L 2 16 L 10 16 L 10 15 Z M 16.347656 15.488281 L 18.511719 17.652344 L 15.335938 20.828125 L 15.335938 20.152344 L 14.324219 20.171875 L 13.285156 20.171875 L 13.285156 18.550781 Z M 2 18 L 2 19 L 9 19 L 9 18 Z M 12.273438 19.5625 L 12.273438 21.1875 L 14.300781 21.1875 L 14.324219 21.839844 L 13.242188 22.921875 L 11.800781 22.921875 L 11.078125 22.199219 L 11.078125 20.757812 Z M 2 20 L 2 21 L 6 21 L 6 20 Z M 8 20 L 8 21 L 9 21 L 9 20 Z M 8 20 "/>
</g>
</svg>
