<?xml version="1.0" encoding="UTF-8"?>
<svg xmlns="http://www.w3.org/2000/svg" xmlns:xlink="http://www.w3.org/1999/xlink" width="24pt" height="23pt" viewBox="0 0 24 23" version="1.1">
<g id="surface1">
<path style=" stroke:none;fill-rule:nonzero;fill:rgb(30.196078%,30.196078%,30.196078%);fill-opacity:1;" d="M 5 0 C 2.238281 0 0 2.238281 0 5 L 0 17 C 0 19.761719 2.238281 22 5 22 C 7.761719 22 10 19.761719 10 17 L 10 5 C 10 2.238281 7.761719 0 5 0 Z M 19 0 C 16.238281 0 14 2.238281 14 5 L 14 17 C 14 19.761719 16.238281 22 19 22 C 21.761719 22 24 19.761719 24 17 L 24 5 C 24 2.238281 21.761719 0 19 0 Z M 5 1 C 7.210938 1 9 2.789062 9 5 L 9 17 C 9 19.210938 7.210938 21 5 21 C 2.789062 21 1 19.210938 1 17 L 1 5 C 1 2.789062 2.789062 1 5 1 Z M 19 1 C 21.210938 1 23 2.789062 23 5 L 23 17 C 23 19.210938 21.210938 21 19 21 C 16.789062 21 15 19.210938 15 17 L 15 5 C 15 2.789062 16.789062 1 19 1 Z M 11 21 L 11 23 L 13 23 L 13 21 Z M 11 21 "/>
</g>
</svg>
