<?xml version="1.0" encoding="UTF-8"?>
<svg xmlns="http://www.w3.org/2000/svg" xmlns:xlink="http://www.w3.org/1999/xlink" width="24pt" height="25pt" viewBox="0 0 24 25" version="1.1">
<g id="surface1">
<path style=" stroke:none;fill-rule:nonzero;fill:rgb(11.372549%,60%,95.294118%);fill-opacity:1;" d="M 0 10 L 0 11 L 1 11 L 1 15 L 0 15 L 0 16 L 3 16 L 3 15 L 2 15 L 2 11 L 3 11 L 3 10 Z M 0 10 "/>
<path style=" stroke:none;fill-rule:nonzero;fill:rgb(30.196078%,30.196078%,30.196078%);fill-opacity:1;" d="M 0 0 L 0 1 L 1 1 L 1 5 L 0 5 L 0 6 L 5 6 L 5 5 L 4 5 L 4 1 L 5 1 L 5 0 Z M 7 0 L 7 1 L 24 1 L 24 0 Z M 2 1 L 3 1 L 3 5 L 2 5 Z M 7 3 L 7 4 L 20 4 L 20 3 Z M 7 10 L 7 11 L 24 11 L 24 10 Z M 7 13 L 7 14 L 11 14 L 11 13 Z M 15 13 L 15 14 L 24 14 L 24 13 Z M 7 20 L 7 21 L 24 21 L 24 20 Z M 7 23 L 7 24 L 18 24 L 18 23 Z M 20 24 L 20 25 L 24 25 L 24 24 Z M 20 24 "/>
</g>
</svg>
