<?xml version="1.0" encoding="UTF-8"?>
<svg xmlns="http://www.w3.org/2000/svg" xmlns:xlink="http://www.w3.org/1999/xlink" width="24pt" height="24.554688pt" viewBox="0 0 24 24.554688" version="1.1">
<g id="surface1">
<path style=" stroke:none;fill-rule:nonzero;fill:rgb(30.196078%,30.196078%,30.196078%);fill-opacity:1;" d="M 19.582031 0 L 3.585938 24 L 4.414062 24.554688 L 20.417969 0.554688 Z M 5 2.277344 C 2.238281 2.277344 0 4.515625 0 7.277344 C 0 10.039062 2.238281 12.277344 5 12.277344 C 7.761719 12.277344 10 10.039062 10 7.277344 C 10 4.515625 7.761719 2.277344 5 2.277344 Z M 5 3.277344 C 7.210938 3.277344 9 5.066406 9 7.277344 C 9 9.488281 7.210938 11.277344 5 11.277344 C 2.789062 11.277344 1 9.488281 1 7.277344 C 1 5.066406 2.789062 3.277344 5 3.277344 Z M 19 12.277344 C 16.238281 12.277344 14 14.515625 14 17.277344 C 14 20.039062 16.238281 22.277344 19 22.277344 C 21.761719 22.277344 24 20.039062 24 17.277344 C 24 14.515625 21.761719 12.277344 19 12.277344 Z M 19 13.277344 C 21.210938 13.277344 23 15.066406 23 17.277344 C 23 19.488281 21.210938 21.277344 19 21.277344 C 16.789062 21.277344 15 19.488281 15 17.277344 C 15 15.066406 16.789062 13.277344 19 13.277344 Z M 19 13.277344 "/>
</g>
</svg>
