<?xml version="1.0" encoding="UTF-8"?>
<svg xmlns="http://www.w3.org/2000/svg" xmlns:xlink="http://www.w3.org/1999/xlink" width="26pt" height="24pt" viewBox="0 0 26 24" version="1.1">
<g id="surface1">
<path style=" stroke:none;fill-rule:nonzero;fill:rgb(30.196078%,30.196078%,30.196078%);fill-opacity:1;" d="M 5 0 L 5 2.175781 C 3.804688 2.382812 2.699219 2.785156 1.820312 3.492188 C -1.265625 6.335938 -0.015625 9.28125 2.710938 10.984375 C 3.433594 11.421875 4.230469 11.683594 5 11.890625 L 5 20.460938 C 3.640625 20.226562 2.152344 19.804688 0.578125 19.140625 L 0 20.390625 C 1.78125 21.140625 3.457031 21.605469 5 21.832031 L 5 24 L 6 24 L 6 21.941406 C 6.703125 22 7.371094 22.003906 8 21.953125 L 8 24 L 9 24 L 9 21.824219 C 9.21875 21.785156 9.445312 21.746094 9.652344 21.691406 C 14.316406 20.339844 14.726562 16.867188 13.203125 14.472656 C 12.726562 13.816406 12.082031 13.3125 11.390625 12.890625 C 10.609375 12.414062 9.78125 12.058594 9 11.765625 L 9 3.496094 C 10.570312 3.777344 12.136719 4.316406 13.378906 5.023438 L 14 3.820312 C 12.523438 2.980469 10.769531 2.410156 9 2.15625 L 9 0 L 8 0 L 8 2.046875 C 7.320312 2 6.652344 2 6 2.050781 L 6 0 Z M 21 1 C 18.238281 1 16 3.238281 16 6 L 16 18 C 16 20.761719 18.238281 23 21 23 C 23.761719 23 26 20.761719 26 18 L 26 6 C 26 3.238281 23.761719 1 21 1 Z M 21 2 C 23.210938 2 25 3.789062 25 6 L 25 18 C 25 20.210938 23.210938 22 21 22 C 18.789062 22 17 20.210938 17 18 L 17 6 C 17 3.789062 18.789062 2 21 2 Z M 6.605469 3.28125 C 7.058594 3.273438 7.527344 3.304688 8 3.351562 L 8 11.414062 C 7.789062 11.34375 7.523438 11.242188 7.34375 11.183594 C 6.925781 11.046875 6.460938 10.9375 6 10.824219 L 6 3.320312 C 6.199219 3.304688 6.398438 3.285156 6.605469 3.28125 Z M 5 3.46875 L 5 10.535156 C 4.453125 10.371094 3.921875 10.179688 3.453125 9.894531 C 1.261719 9.085938 0.628906 6.0625 2.71875 4.464844 C 3.285156 4.007812 4.082031 3.664062 5 3.46875 Z M 6 12.152344 C 6.328125 12.234375 6.644531 12.316406 6.9375 12.410156 C 7.234375 12.507812 7.632812 12.65625 8 12.78125 L 8 20.652344 C 7.386719 20.691406 6.71875 20.675781 6 20.601562 Z M 9 13.144531 C 9.601562 13.386719 10.207031 13.65625 10.730469 13.976562 C 11.316406 14.335938 12.378906 15.523438 12.566406 17.027344 C 12.671875 18.308594 11.367188 19.917969 9.410156 20.441406 C 9.28125 20.476562 9.136719 20.496094 9 20.519531 Z M 9 13.144531 "/>
</g>
</svg>
