<?xml version="1.0" encoding="UTF-8"?>
<svg xmlns="http://www.w3.org/2000/svg" xmlns:xlink="http://www.w3.org/1999/xlink" width="25pt" height="26pt" viewBox="0 0 25 26" version="1.1">
<g id="surface1">
<path style=" stroke:none;fill-rule:nonzero;fill:rgb(70.196078%,70.196078%,70.196078%);fill-opacity:1;" d="M 20 0 C 17.238281 0 15 2.238281 15 5 L 15 11 C 15 13.761719 17.238281 16 20 16 C 22.761719 16 25 13.761719 25 11 L 25 5 C 25 2.238281 22.761719 0 20 0 Z M 20 1 C 22.210938 1 24 2.789062 24 5 L 24 11 C 24 13.210938 22.210938 15 20 15 C 17.789062 15 16 13.210938 16 11 L 16 5 C 16 2.789062 17.789062 1 20 1 Z M 20 1 "/>
<path style=" stroke:none;fill-rule:nonzero;fill:rgb(30.196078%,30.196078%,30.196078%);fill-opacity:1;" d="M 8 0 C 5.238281 0 3 2.238281 3 5 L 3 11 C 3 13.761719 5.238281 16 8 16 C 10.761719 16 13 13.761719 13 11 L 13 5 C 13 2.238281 10.761719 0 8 0 Z M 8 1 C 10.210938 1 12 2.789062 12 5 L 12 11 C 12 13.210938 10.210938 15 8 15 C 5.789062 15 4 13.210938 4 11 L 4 5 C 4 2.789062 5.789062 1 8 1 Z M 0 14 L 0 16 L 2 16 L 2 14 Z M 0 14 "/>
<path style=" stroke:none;fill-rule:nonzero;fill:rgb(85.490196%,26.666667%,32.54902%);fill-opacity:1;" d="M 15.886719 16 L 15 16.886719 L 19.113281 21 L 15 25.113281 C 15.015625 25.148438 15.886719 26 15.886719 26 L 20 21.886719 L 24.113281 26 L 25 25.113281 L 20.886719 21 L 25 16.886719 L 24.113281 16 L 20 20.113281 Z M 15.886719 16 "/>
</g>
</svg>
