<?xml version="1.0" encoding="UTF-8"?>
<svg xmlns="http://www.w3.org/2000/svg" xmlns:xlink="http://www.w3.org/1999/xlink" width="24pt" height="23pt" viewBox="0 0 24 23" version="1.1">
<g id="surface1">
<path style=" stroke:none;fill-rule:nonzero;fill:rgb(30.196078%,30.196078%,30.196078%);fill-opacity:1;" d="M 0 0 L 0 1 L 24 1 L 24 0 Z M 5.039062 3 L 0.0390625 8 L 0.746094 8.707031 L 4.539062 4.914062 L 4.539062 23 L 5.539062 23 L 5.539062 4.914062 L 9.332031 8.707031 L 10.039062 8 Z M 11 7 L 11 8 L 24 8 L 24 7 Z M 11 15 L 11 16 L 24 16 L 24 15 Z M 11 15 "/>
<path style=" stroke:none;fill-rule:nonzero;fill:rgb(95.686275%,46.666667%,31.372549%);fill-opacity:1;" d="M 15 21 C 14.449219 21 14 21.449219 14 22 C 14 22.550781 14.449219 23 15 23 C 15.550781 23 16 22.550781 16 22 C 16 21.449219 15.550781 21 15 21 Z M 19 21 C 18.449219 21 18 21.449219 18 22 C 18 22.550781 18.449219 23 19 23 C 19.550781 23 20 22.550781 20 22 C 20 21.449219 19.550781 21 19 21 Z M 23 21 C 22.449219 21 22 21.449219 22 22 C 22 22.550781 22.449219 23 23 23 C 23.550781 23 24 22.550781 24 22 C 24 21.449219 23.550781 21 23 21 Z M 23 21 "/>
</g>
</svg>
