<?xml version="1.0" encoding="UTF-8"?>
<svg xmlns="http://www.w3.org/2000/svg" xmlns:xlink="http://www.w3.org/1999/xlink" width="24pt" height="23pt" viewBox="0 0 24 23" version="1.1">
<g id="surface1">
<path style=" stroke:none;fill-rule:nonzero;fill:rgb(30.196078%,30.196078%,30.196078%);fill-opacity:1;" d="M 0 0 L 0 7 L 7 7 L 7 0 Z M 1 1 L 6 1 L 6 6 L 1 6 Z M 9 1 L 9 2 L 24 2 L 24 1 Z M 9 4 L 9 5 L 18 5 L 18 4 Z M 20 4 L 20 5 L 24 5 L 24 4 Z M 0 8 L 0 15 L 7 15 L 7 8 Z M 1 9 L 6 9 L 6 14 L 1 14 Z M 9 9 L 9 10 L 24 10 L 24 9 Z M 20.398438 11 L 15.285156 16.109375 L 12 19.398438 L 12 23 L 15.601562 23 L 24 14.601562 Z M 9 12 L 9 13 L 15 13 L 15 12 Z M 18.347656 14.488281 L 20.511719 16.652344 L 17.335938 19.828125 L 17.335938 19.152344 L 16.324219 19.171875 L 15.285156 19.171875 L 15.285156 17.550781 Z M 0 16 L 0 23 L 7 23 L 7 16 Z M 1 17 L 6 17 L 6 22 L 1 22 Z M 9 17 L 9 18 L 12 18 L 12 17 Z M 14.273438 18.5625 L 14.273438 20.1875 L 16.300781 20.1875 L 16.324219 20.839844 L 15.242188 21.921875 L 13.800781 21.921875 L 13.078125 21.199219 L 13.078125 19.757812 Z M 9 20 L 9 21 L 11 21 L 11 20 Z M 9 20 "/>
</g>
</svg>
