<?xml version="1.0" encoding="UTF-8"?>
<svg xmlns="http://www.w3.org/2000/svg" xmlns:xlink="http://www.w3.org/1999/xlink" width="24pt" height="24pt" viewBox="0 0 24 24" version="1.1">
<g id="surface1">
<path style=" stroke:none;fill-rule:nonzero;fill:rgb(11.372549%,60%,95.294118%);fill-opacity:1;" d="M 4 0 L 0 4 L 4 4 Z M 20 0 L 20 4 L 24 4 Z M 0 20 L 4 24 L 4 20 Z M 20 20 L 20 24 L 24 20 Z M 20 20 "/>
<path style=" stroke:none;fill-rule:nonzero;fill:rgb(30.196078%,30.196078%,30.196078%);fill-opacity:1;" d="M 5.5 5 C 4.671875 5 4 5.671875 4 6.5 C 4 7.328125 4.671875 8 5.5 8 C 6.328125 8 7 7.328125 7 6.5 C 7 5.671875 6.328125 5 5.5 5 Z M 9 6 L 9 7 L 20 7 L 20 6 Z M 5.5 10 C 4.671875 10 4 10.671875 4 11.5 C 4 12.328125 4.671875 13 5.5 13 C 6.328125 13 7 12.328125 7 11.5 C 7 10.671875 6.328125 10 5.5 10 Z M 9 11 L 9 12 L 20 12 L 20 11 Z M 5.5 15 C 4.671875 15 4 15.671875 4 16.5 C 4 17.328125 4.671875 18 5.5 18 C 6.328125 18 7 17.328125 7 16.5 C 7 15.671875 6.328125 15 5.5 15 Z M 9 16 L 9 17 L 20 17 L 20 16 Z M 9 16 "/>
</g>
</svg>
