<?xml version="1.0" encoding="UTF-8"?>
<svg xmlns="http://www.w3.org/2000/svg" xmlns:xlink="http://www.w3.org/1999/xlink" width="24pt" height="24pt" viewBox="0 0 24 24" version="1.1">
<g id="surface1">
<path style=" stroke:none;fill-rule:nonzero;fill:rgb(30.196078%,30.196078%,30.196078%);fill-opacity:1;" d="M 9 0 L 0.0703125 23.824219 L 0 24 L 2 24 L 5.390625 15 L 16.621094 15 L 11 0 Z M 10 2.402344 L 13.847656 13 L 6.152344 13 Z M 10 2.402344 "/>
<path style=" stroke:none;fill-rule:nonzero;fill:rgb(11.372549%,60%,95.294118%);fill-opacity:1;" d="M 20.398438 12 L 15.285156 17.109375 L 12 20.398438 L 12 24 L 15.601562 24 L 24 15.601562 Z M 18.347656 15.488281 L 20.511719 17.652344 L 17.335938 20.828125 L 17.335938 20.152344 L 16.324219 20.171875 L 15.285156 20.171875 L 15.285156 18.550781 Z M 14.273438 19.5625 L 14.273438 21.1875 L 16.300781 21.1875 L 16.324219 21.839844 L 15.242188 22.921875 L 13.800781 22.921875 L 13.078125 22.199219 L 13.078125 20.757812 Z M 14.273438 19.5625 "/>
</g>
</svg>
