<?xml version="1.0" encoding="UTF-8"?>
<svg xmlns="http://www.w3.org/2000/svg" xmlns:xlink="http://www.w3.org/1999/xlink" width="24pt" height="24pt" viewBox="0 0 24 24" version="1.1">
<g id="surface1">
<path style=" stroke:none;fill-rule:nonzero;fill:rgb(30.196078%,30.196078%,30.196078%);fill-opacity:1;" d="M 0 0 L 0 24 L 24 24 L 24 0 Z M 1 1 L 23 1 L 23 23 L 1 23 Z M 4.5 3 C 3.671875 3 3 3.671875 3 4.5 C 3 5.328125 3.671875 6 4.5 6 C 5.328125 6 6 5.328125 6 4.5 C 6 3.671875 5.328125 3 4.5 3 Z M 8 3 L 8 4 L 21 4 L 21 3 Z M 8 6 L 8 7 L 17 7 L 17 6 Z M 4.5 10 C 3.671875 10 3 10.671875 3 11.5 C 3 12.328125 3.671875 13 4.5 13 C 5.328125 13 6 12.328125 6 11.5 C 6 10.671875 5.328125 10 4.5 10 Z M 8 10 L 8 11 L 21 11 L 21 10 Z M 8 13 L 8 14 L 16 14 L 16 13 Z M 18 13 L 18 14 L 21 14 L 21 13 Z M 4.5 17 C 3.671875 17 3 17.671875 3 18.5 C 3 19.328125 3.671875 20 4.5 20 C 5.328125 20 6 19.328125 6 18.5 C 6 17.671875 5.328125 17 4.5 17 Z M 8 17 L 8 18 L 21 18 L 21 17 Z M 8 20 L 8 21 L 13 21 L 13 20 Z M 19 21 L 19 22 L 21 22 L 21 21 Z M 19 21 "/>
</g>
</svg>
