<?xml version="1.0" encoding="UTF-8"?>
<svg xmlns="http://www.w3.org/2000/svg" xmlns:xlink="http://www.w3.org/1999/xlink" width="18pt" height="26pt" viewBox="0 0 18 26" version="1.1">
<g id="surface1">
<path style=" stroke:none;fill-rule:nonzero;fill:rgb(30.196078%,30.196078%,30.196078%);fill-opacity:1;" d="M 0 0 L 0 1 L 18 1 L 18 0 Z M 9 2 C 5.132812 2 2 5.132812 2 9 L 2 19 C 2 22.867188 5.132812 26 9 26 C 12.867188 26 16 22.867188 16 19 L 16 9 C 16 5.132812 12.867188 2 9 2 Z M 10 5 C 12.210938 5 14 6.789062 14 9 L 14 19 C 14 21.210938 12.210938 23 10 23 C 7.789062 23 6 21.210938 6 19 L 6 9 C 6 6.789062 7.789062 5 10 5 Z M 10 5 "/>
</g>
</svg>
