<?xml version="1.0" encoding="UTF-8"?>
<svg xmlns="http://www.w3.org/2000/svg" xmlns:xlink="http://www.w3.org/1999/xlink" width="24pt" height="20pt" viewBox="0 0 24 20" version="1.1">
<g id="surface1">
<path style=" stroke:none;fill-rule:nonzero;fill:rgb(30.196078%,30.196078%,30.196078%);fill-opacity:1;" d="M 0 0 L 0 13 L 7 20 L 24 20 L 24 0 Z M 1 1 L 23 1 L 23 19 L 8 19 L 8 12 L 1 12 Z M 10.5 2 C 9.3125 2.003906 8.292969 2.835938 8.054688 4 L 4 4 L 4 5 L 8.050781 5 C 8.289062 6.164062 9.3125 7 10.5 7 C 11.6875 6.996094 12.707031 6.164062 12.945312 5 L 20 5 L 20 4 L 12.949219 4 C 12.710938 2.835938 11.6875 2 10.5 2 Z M 16.5 8 C 15.3125 8 14.289062 8.835938 14.050781 10 L 4 10 L 4 11 L 14.054688 11 C 14.292969 12.164062 15.3125 12.996094 16.5 13 C 17.6875 13 18.710938 12.164062 18.949219 11 L 20 11 L 20 10 L 18.945312 10 C 18.707031 8.835938 17.6875 8.003906 16.5 8 Z M 16.5 9 C 17.136719 9 17.699219 9.402344 17.910156 10 C 17.96875 10.160156 18 10.328125 18 10.5 C 18 10.671875 17.96875 10.839844 17.910156 11 C 17.699219 11.597656 17.136719 12 16.5 12 C 15.863281 12 15.300781 11.597656 15.089844 11 C 15.046875 10.886719 15.019531 10.769531 15.007812 10.652344 C 15.003906 10.601562 15 10.550781 15 10.5 C 15 10.480469 15 10.460938 15 10.4375 C 15.003906 10.394531 15.007812 10.351562 15.015625 10.308594 L 15.015625 10.292969 C 15.03125 10.191406 15.054688 10.09375 15.089844 10 C 15.300781 9.402344 15.863281 9 16.5 9 Z M 16.5 9 "/>
</g>
</svg>
