<?xml version="1.0" encoding="UTF-8"?>
<svg xmlns="http://www.w3.org/2000/svg" xmlns:xlink="http://www.w3.org/1999/xlink" width="24pt" height="25pt" viewBox="0 0 24 25" version="1.1">
<g id="surface1">
<path style=" stroke:none;fill-rule:nonzero;fill:rgb(30.196078%,30.196078%,30.196078%);fill-opacity:1;" d="M 0 0 L 0 1 L 24 1 L 24 0 Z M 0 3 L 0 4 L 14 4 L 14 3 Z M 0 6 L 0 7 L 11 7 L 11 6 Z M 0 9 L 0 10 L 14 10 L 14 9 Z M 0 14 L 0 15 L 14 15 L 14 14 Z M 0 17 L 0 18 L 13 18 L 13 17 Z M 0 20 L 0 21 L 14 21 L 14 20 Z M 0 23 L 0 24 L 18 24 L 18 23 Z M 20 24 L 20 25 L 24 25 L 24 24 Z M 20 24 "/>
<path style=" stroke:none;fill-rule:nonzero;fill:rgb(11.372549%,60%,95.294118%);fill-opacity:1;" d="M 16 4 L 20 10 L 24 4 Z M 20 14 L 16 20 L 24 20 Z M 20 14 "/>
</g>
</svg>
