<?xml version="1.0" encoding="UTF-8"?>
<svg xmlns="http://www.w3.org/2000/svg" xmlns:xlink="http://www.w3.org/1999/xlink" width="19pt" height="24pt" viewBox="0 0 19 24" version="1.1">
<g id="surface1">
<path style=" stroke:none;fill-rule:nonzero;fill:rgb(30.196078%,30.196078%,30.196078%);fill-opacity:1;" d="M 8 0 C 3.582031 0 0 3.359375 0 7.5 C 0 11.640625 3.582031 15 8 15 L 8 24 L 9 24 L 9 1 L 11 1 L 11 24 L 12 24 L 12 0 Z M 8 0 "/>
<path style=" stroke:none;fill-rule:nonzero;fill:rgb(95.686275%,46.666667%,31.372549%);fill-opacity:1;" d="M 18 14 C 17.449219 14 17 14.449219 17 15 C 17 15.550781 17.449219 16 18 16 C 18.550781 16 19 15.550781 19 15 C 19 14.449219 18.550781 14 18 14 Z M 18 18 C 17.449219 18 17 18.449219 17 19 C 17 19.550781 17.449219 20 18 20 C 18.550781 20 19 19.550781 19 19 C 19 18.449219 18.550781 18 18 18 Z M 18 22 C 17.449219 22 17 22.449219 17 23 C 17 23.550781 17.449219 24 18 24 C 18.550781 24 19 23.550781 19 23 C 19 22.449219 18.550781 22 18 22 Z M 18 22 "/>
</g>
</svg>
