<?xml version="1.0" encoding="UTF-8"?>
<svg xmlns="http://www.w3.org/2000/svg" xmlns:xlink="http://www.w3.org/1999/xlink" width="20pt" height="24pt" viewBox="0 0 20 24" version="1.1">
<g id="surface1">
<path style=" stroke:none;fill-rule:nonzero;fill:rgb(30.196078%,30.196078%,30.196078%);fill-opacity:1;" d="M 4 0 L 4 2 L 0 2 L 0 24 L 20 24 L 20 2 L 16 2 L 16 0 Z M 1 3 L 3 3 L 3 7 L 17 7 L 17 3 L 19 3 L 19 23 L 1 23 Z M 4 3 L 16 3 L 16 6 L 4 6 Z M 5 4 L 5 5 L 15 5 L 15 4 Z M 4 10 L 4 11 L 16 11 L 16 10 Z M 4 14 L 4 15 L 14 15 L 14 14 Z M 4 18 L 4 19 L 12 19 L 12 18 Z M 4 18 "/>
</g>
</svg>
