<?xml version="1.0" encoding="UTF-8"?>
<svg xmlns="http://www.w3.org/2000/svg" xmlns:xlink="http://www.w3.org/1999/xlink" width="25pt" height="24pt" viewBox="0 0 25 24" version="1.1">
<g id="surface1">
<path style=" stroke:none;fill-rule:nonzero;fill:rgb(30.196078%,30.196078%,30.196078%);fill-opacity:1;" d="M 2 0 L 2 21 L 0 21 L 0 22 L 2 22 L 2 24 L 3 24 L 3 22 L 21 22 L 21 24 L 22 24 L 22 22 L 25 22 L 25 21 L 22 21 L 22 0 L 21 0 L 21 21 L 3 21 L 3 0 Z M 7 4 L 7 6 L 5 6 L 5 7 L 7 7 L 7 15 L 5 15 L 5 16 L 7 16 L 7 18 L 8 18 L 8 16 L 16 16 L 16 18 L 17 18 L 17 16 L 19 16 L 19 15 L 17 15 L 17 7 L 19 7 L 19 6 L 17 6 L 17 4 L 16 4 L 16 6 L 8 6 L 8 4 Z M 8 7 L 16 7 L 16 15 L 8 15 Z M 8 7 "/>
</g>
</svg>
