<?xml version="1.0" encoding="UTF-8"?>
<svg xmlns="http://www.w3.org/2000/svg" xmlns:xlink="http://www.w3.org/1999/xlink" width="24pt" height="24pt" viewBox="0 0 24 24" version="1.1">
<g id="surface1">
<path style=" stroke:none;fill-rule:nonzero;fill:rgb(30.196078%,30.196078%,30.196078%);fill-opacity:1;" d="M 0 0 L 0 6 L 1 6 L 1 1 L 6 1 L 6 0 Z M 9 0 L 12 3 L 15 0 Z M 18 0 L 18 1 L 23 1 L 23 6 L 24 6 L 24 0 Z M 9 8 L 9 16 L 15 12 Z M 0 9 L 0 15 L 3 12 Z M 24 9 L 21 12 L 24 15 Z M 0 18 L 0 24 L 6 24 L 6 23 L 1 23 L 1 18 Z M 23 18 L 23 23 L 18 23 L 18 24 L 24 24 L 24 18 Z M 12 21 L 9 24 L 15 24 Z M 12 21 "/>
</g>
</svg>
