<?xml version="1.0" encoding="UTF-8"?>
<svg xmlns="http://www.w3.org/2000/svg" xmlns:xlink="http://www.w3.org/1999/xlink" width="26pt" height="24pt" viewBox="0 0 26 24" version="1.1">
<g id="surface1">
<path style=" stroke:none;fill-rule:nonzero;fill:rgb(30.196078%,30.196078%,30.196078%);fill-opacity:1;" d="M 0 0 L 0 18 L 26 18 L 26 0 Z M 1 1 L 25 1 L 25 17 L 1 17 Z M 9 5 L 9 13 L 11 13 L 11 5 Z M 15 5 L 15 13 L 17 13 L 17 5 Z M 10 19 L 10 23 L 8 23 L 8 24 L 18 24 L 18 23 L 16 23 L 16 19 L 15 19 L 15 23 L 11 23 L 11 19 Z M 10 19 "/>
</g>
</svg>
