<?xml version="1.0" encoding="UTF-8"?>
<svg xmlns="http://www.w3.org/2000/svg" xmlns:xlink="http://www.w3.org/1999/xlink" width="20pt" height="24pt" viewBox="0 0 20 24" version="1.1">
<g id="surface1">
<path style=" stroke:none;fill-rule:nonzero;fill:rgb(30.196078%,30.196078%,30.196078%);fill-opacity:1;" d="M 0 0 L 0 24 L 8 24 L 8 23 L 1 23 L 1 1 L 12 1 L 12 8 L 19 8 L 19 12 L 20 12 L 20 7 L 13 0 Z M 12.5 12 C 10.007812 12 8 14.007812 8 16.5 C 8 18.992188 10.007812 21 12.5 21 C 13.566406 21 14.53125 20.621094 15.296875 20.003906 L 19.292969 24 L 20 23.292969 L 16.003906 19.296875 C 16.621094 18.53125 17 17.566406 17 16.5 C 17 14.007812 14.992188 12 12.5 12 Z M 12.5 13 C 14.4375 13 16 14.5625 16 16.5 C 16 18.4375 14.4375 20 12.5 20 C 10.5625 20 9 18.4375 9 16.5 C 9 14.5625 10.5625 13 12.5 13 Z M 12.5 13 "/>
</g>
</svg>
