<?xml version="1.0" encoding="UTF-8"?>
<svg xmlns="http://www.w3.org/2000/svg" xmlns:xlink="http://www.w3.org/1999/xlink" width="24pt" height="24pt" viewBox="0 0 24 24" version="1.1">
<g id="surface1">
<path style=" stroke:none;fill-rule:nonzero;fill:rgb(30.196078%,30.196078%,30.196078%);fill-opacity:1;" d="M 3 0 L 3 8 L 0 8 L 0 20 L 6 20 L 6 24 L 18 24 L 18 20 L 24 20 L 24 8 L 21 8 L 21 0 Z M 4 1 L 20 1 L 20 8 L 4 8 Z M 6 3 L 6 4 L 18 4 L 18 3 Z M 6 6 L 6 7 L 18 7 L 18 6 Z M 1 9 L 23 9 L 23 19 L 20 19 L 20 15 L 4 15 L 4 19 L 1 19 Z M 18 11 L 18 12 L 22 12 L 22 11 Z M 7 20 L 17 20 L 17 23 L 7 23 Z M 7 20 "/>
</g>
</svg>
