<?xml version="1.0" encoding="UTF-8"?>
<svg xmlns="http://www.w3.org/2000/svg" xmlns:xlink="http://www.w3.org/1999/xlink" width="24pt" height="24pt" viewBox="0 0 24 24" version="1.1">
<g id="surface1">
<path style=" stroke:none;fill-rule:nonzero;fill:rgb(30.196078%,30.196078%,30.196078%);fill-opacity:1;" d="M 3 0 L 3 8 L 0 8 L 0 20 L 6 20 L 6 24 L 18 24 L 18 20 L 21 20 L 21 19 L 19 19 L 19 15 L 5 15 L 5 19 L 1 19 L 1 9 L 23 9 L 23 13 L 24 13 L 24 8 L 21 8 L 21 0 Z M 4 1 L 20 1 L 20 8 L 4 8 Z M 6 3 L 6 4 L 18 4 L 18 3 Z M 6 6 L 6 7 L 18 7 L 18 6 Z M 18 11 L 18 12 L 22 12 L 22 11 Z M 7 20 L 17 20 L 17 23 L 7 23 Z M 7 20 "/>
<path style=" stroke:none;fill-rule:nonzero;fill:rgb(95.686275%,46.666667%,31.372549%);fill-opacity:1;" d="M 23 14 C 22.449219 14 22 14.449219 22 15 C 22 15.550781 22.449219 16 23 16 C 23.550781 16 24 15.550781 24 15 C 24 14.449219 23.550781 14 23 14 Z M 23 18 C 22.449219 18 22 18.449219 22 19 C 22 19.550781 22.449219 20 23 20 C 23.550781 20 24 19.550781 24 19 C 24 18.449219 23.550781 18 23 18 Z M 23 22 C 22.449219 22 22 22.449219 22 23 C 22 23.550781 22.449219 24 23 24 C 23.550781 24 24 23.550781 24 23 C 24 22.449219 23.550781 22 23 22 Z M 23 22 "/>
</g>
</svg>
