<?xml version="1.0" encoding="UTF-8"?>
<svg xmlns="http://www.w3.org/2000/svg" xmlns:xlink="http://www.w3.org/1999/xlink" width="22pt" height="24pt" viewBox="0 0 22 24" version="1.1">
<g id="surface1">
<path style=" stroke:none;fill-rule:nonzero;fill:rgb(30.196078%,30.196078%,30.196078%);fill-opacity:1;" d="M 0 0 L 0 24 L 9 24 L 9 23 L 1 23 L 1 1 L 12 1 L 12 8 L 19 8 L 19 11 L 20 11 L 20 7 L 13 0 Z M 12 12 L 12 15 L 10 15 L 10 22 L 13 22 L 13 24 L 19 24 L 19 22 L 22 22 L 22 15 L 20 15 L 20 12 Z M 13 13 L 19 13 L 19 15 L 13 15 Z M 11 16 L 21 16 L 21 21 L 20 21 L 20 20 L 12 20 L 12 21 L 11 21 Z M 18 17 L 18 18 L 20 18 L 20 17 Z M 14 22 L 18 22 L 18 23 L 14 23 Z M 14 22 "/>
</g>
</svg>
