<?xml version="1.0" encoding="UTF-8"?>
<svg xmlns="http://www.w3.org/2000/svg" xmlns:xlink="http://www.w3.org/1999/xlink" width="18pt" height="24pt" viewBox="0 0 18 24" version="1.1">
<g id="surface1">
<path style=" stroke:none;fill-rule:nonzero;fill:rgb(30.196078%,30.196078%,30.196078%);fill-opacity:1;" d="M 9 0 C 5.6875 0 3 2.6875 3 6 L 3 12 L 0 12 L 0 24 L 18 24 L 18 12 L 15 12 L 15 6 C 15 2.6875 12.3125 0 9 0 Z M 9 1 C 11.761719 1 14 3.238281 14 6 L 14 12 L 4 12 L 4 6 C 4 3.238281 6.238281 1 9 1 Z M 1 13 L 17 13 L 17 23 L 1 23 Z M 1 13 "/>
</g>
</svg>
