<?xml version="1.0" encoding="UTF-8"?>
<svg xmlns="http://www.w3.org/2000/svg" xmlns:xlink="http://www.w3.org/1999/xlink" width="24pt" height="16pt" viewBox="0 0 24 16" version="1.1">
<g id="surface1">
<path style=" stroke:none;fill-rule:nonzero;fill:rgb(70.196078%,70.196078%,70.196078%);fill-opacity:1;" d="M 22.820312 1.179688 C 22.933594 1.429688 23 1.707031 23 2 L 23 13 C 23 14.109375 22.109375 15 21 15 L 2 15 C 1.707031 15 1.429688 14.933594 1.179688 14.820312 C 1.492188 15.515625 2.1875 16 3 16 L 22 16 C 23.109375 16 24 15.109375 24 14 L 24 3 C 24 2.1875 23.515625 1.492188 22.820312 1.179688 Z M 22.820312 1.179688 "/>
<path style=" stroke:none;fill-rule:nonzero;fill:rgb(30.196078%,30.196078%,30.196078%);fill-opacity:1;" d="M 2 0 C 0.890625 0 0 0.890625 0 2 L 0 13 C 0 14.109375 0.890625 15 2 15 L 21 15 C 22.109375 15 23 14.109375 23 13 L 23 2 C 23 0.890625 22.109375 0 21 0 Z M 16 2 L 18 2 L 18 9 L 9 9 L 9 12 L 4 8 L 9 4 L 9 7 L 16 7 Z M 16 2 "/>
</g>
</svg>
