<?xml version="1.0" encoding="UTF-8"?>
<svg xmlns="http://www.w3.org/2000/svg" xmlns:xlink="http://www.w3.org/1999/xlink" width="24pt" height="18pt" viewBox="0 0 24 18" version="1.1">
<g id="surface1">
<path style=" stroke:none;fill-rule:nonzero;fill:rgb(30.196078%,30.196078%,30.196078%);fill-opacity:1;" d="M 3 0 C 1.339844 0 0 1.339844 0 3 L 0 15 C 0 16.660156 1.339844 18 3 18 L 21 18 C 22.660156 18 24 16.660156 24 15 L 24 3 C 24 1.339844 22.660156 0 21 0 Z M 3 1 L 21 1 C 22.109375 1 23 1.890625 23 3 L 23 15 C 23 16.109375 22.109375 17 21 17 L 3 17 C 1.890625 17 1 16.109375 1 15 L 1 3 C 1 1.890625 1.890625 1 3 1 Z M 3 1 "/>
</g>
</svg>
