<?xml version="1.0" encoding="UTF-8"?>
<svg xmlns="http://www.w3.org/2000/svg" xmlns:xlink="http://www.w3.org/1999/xlink" width="24pt" height="24pt" viewBox="0 0 24 24" version="1.1">
<g id="surface1">
<path style=" stroke:none;fill-rule:nonzero;fill:rgb(30.196078%,30.196078%,30.196078%);fill-opacity:1;" d="M 12 0 C 9.859375 0.00390625 7.757812 0.582031 5.914062 1.671875 L 6.648438 2.40625 L 11.292969 7.046875 L 12 6.339844 L 7.59375 1.9375 C 8.984375 1.324219 10.484375 1.003906 12 1 C 18.074219 1 23 5.925781 23 12 C 22.996094 13.875 22.511719 15.714844 21.59375 17.351562 L 22.328125 18.082031 C 23.417969 16.242188 23.996094 14.140625 24 12 C 24 5.371094 18.628906 0 12 0 Z M 1.671875 5.914062 C 0.582031 7.757812 0.00390625 9.859375 0 12 C 0 18.628906 5.371094 24 12 24 C 14.140625 23.996094 16.242188 23.417969 18.082031 22.328125 L 17.351562 21.59375 L 12.707031 16.949219 L 12 17.65625 L 16.40625 22.0625 C 15.019531 22.675781 13.515625 22.996094 12 23 C 5.925781 23 1 18.074219 1 12 C 1.003906 10.125 1.488281 8.285156 2.40625 6.648438 Z M 1.671875 5.914062 "/>
</g>
</svg>
