<?xml version="1.0" encoding="UTF-8"?>
<svg xmlns="http://www.w3.org/2000/svg" xmlns:xlink="http://www.w3.org/1999/xlink" width="24pt" height="24pt" viewBox="0 0 24 24" version="1.1">
<g id="surface1">
<path style=" stroke:none;fill-rule:nonzero;fill:rgb(11.372549%,60%,95.294118%);fill-opacity:1;" d="M 1.5 0 C 0.671875 0 0 0.671875 0 1.5 C 0 2.328125 0.671875 3 1.5 3 C 2.328125 3 3 2.328125 3 1.5 C 3 0.671875 2.328125 0 1.5 0 Z M 1.5 10 C 0.671875 10 0 10.671875 0 11.5 C 0 12.328125 0.671875 13 1.5 13 C 2.328125 13 3 12.328125 3 11.5 C 3 10.671875 2.328125 10 1.5 10 Z M 1.5 20 C 0.671875 20 0 20.671875 0 21.5 C 0 22.328125 0.671875 23 1.5 23 C 2.328125 23 3 22.328125 3 21.5 C 3 20.671875 2.328125 20 1.5 20 Z M 1.5 20 "/>
<path style=" stroke:none;fill-rule:nonzero;fill:rgb(30.196078%,30.196078%,30.196078%);fill-opacity:1;" d="M 7 0 L 7 1 L 24 1 L 24 0 Z M 7 3 L 7 4 L 20 4 L 20 3 Z M 7 10 L 7 11 L 24 11 L 24 10 Z M 7 13 L 7 14 L 11 14 L 11 13 Z M 7 20 L 7 21 L 14 21 L 14 20 Z M 7 23 L 7 24 L 14 24 L 14 23 Z M 7 23 "/>
<path style=" stroke:none;fill-rule:nonzero;fill:rgb(85.490196%,26.666667%,32.54902%);fill-opacity:1;" d="M 16.707031 16 L 16 16.707031 L 19.292969 20 L 16 23.292969 C 16.011719 23.316406 16.707031 24 16.707031 24 L 20 20.707031 L 23.292969 24 L 24 23.292969 L 20.707031 20 L 24 16.707031 L 23.292969 16 L 20 19.292969 Z M 16.707031 16 "/>
</g>
</svg>
