<?xml version="1.0" encoding="UTF-8"?>
<svg xmlns="http://www.w3.org/2000/svg" xmlns:xlink="http://www.w3.org/1999/xlink" width="26pt" height="22pt" viewBox="0 0 26 22" version="1.1">
<g id="surface1">
<path style=" stroke:none;fill-rule:nonzero;fill:rgb(30.196078%,30.196078%,30.196078%);fill-opacity:1;" d="M 5 0 L 5 4 L 0 4 L 0 5 L 5 5 L 5 9 L 11 9 L 11 8 L 6 8 L 6 1 L 11 1 L 11 0 Z M 15 0 L 15 1 L 20 1 L 20 8 L 15 8 L 15 9 L 21 9 L 21 5 L 26 5 L 26 4 L 21 4 L 21 0 Z M 11 4 L 11 5 L 15 5 L 15 4 Z M 11 4 "/>
<path style=" stroke:none;fill-rule:nonzero;fill:rgb(85.490196%,26.666667%,32.54902%);fill-opacity:1;" d="M 16.796875 13 L 16 13.796875 L 19.703125 17.5 L 16 21.203125 L 16.796875 22 L 20.5 18.296875 L 24.203125 22 C 24.203125 22 24.984375 21.234375 25 21.203125 L 21.296875 17.5 L 25 13.796875 L 24.203125 13 L 20.5 16.703125 Z M 16.796875 13 "/>
</g>
</svg>
