<?xml version="1.0" encoding="UTF-8"?>
<svg xmlns="http://www.w3.org/2000/svg" xmlns:xlink="http://www.w3.org/1999/xlink" width="23pt" height="24.009766pt" viewBox="0 0 23 24.009766" version="1.1">
<g id="surface1">
<path style=" stroke:none;fill-rule:nonzero;fill:rgb(30.196078%,30.196078%,30.196078%);fill-opacity:1;" d="M 1.292969 0 L 0 1.292969 L 0 3.832031 C 0.0546875 3.871094 8 14.5 8 14.5 L 8 19.507812 L 14 24.011719 L 14 14.5 L 22 3.832031 L 22 1.292969 L 20.707031 0 Z M 1.707031 1 L 20.292969 1 L 21 1.707031 L 21 3.5 L 13 14.167969 L 13 22.011719 C 11.839844 21.144531 10.285156 19.976562 9 19.011719 L 9 14.167969 L 1 3.5 L 1 1.707031 Z M 2 2 L 7 8.5 C 6.984375 8.503906 7 5 7 5 L 10 2 Z M 2 2 "/>
<path style=" stroke:none;fill-rule:nonzero;fill:rgb(85.490196%,26.666667%,32.54902%);fill-opacity:1;" d="M 15.707031 16 L 15 16.707031 L 18.292969 20 L 15 23.292969 C 15.011719 23.316406 15.707031 24 15.707031 24 L 19 20.707031 L 22.292969 24 L 23 23.292969 L 19.707031 20 L 23 16.707031 L 22.292969 16 L 19 19.292969 Z M 15.707031 16 "/>
</g>
</svg>
