<?xml version="1.0" encoding="UTF-8"?>
<svg xmlns="http://www.w3.org/2000/svg" xmlns:xlink="http://www.w3.org/1999/xlink" width="22pt" height="24pt" viewBox="0 0 22 24" version="1.1">
<g id="surface1">
<path style=" stroke:none;fill-rule:nonzero;fill:rgb(11.372549%,60%,95.294118%);fill-opacity:1;" d="M 16 18 L 10 21 L 16 24 L 16 22 L 22 22 L 22 18 L 20 18 L 20 20 L 16 20 Z M 16 18 "/>
<path style=" stroke:none;fill-rule:nonzero;fill:rgb(30.196078%,30.196078%,30.196078%);fill-opacity:1;" d="M 4 0 L 4 2 L 0 2 L 0 24 L 10 24 L 10 23 L 1 23 L 1 3 L 3 3 L 3 7 L 17 7 L 17 3 L 19 3 L 19 17 L 20 17 L 20 2 L 16 2 L 16 0 Z M 4 3 L 16 3 L 16 6 L 4 6 Z M 5 4 L 5 5 L 15 5 L 15 4 Z M 4 10 L 4 11 L 16 11 L 16 10 Z M 4 14 L 4 15 L 14 15 L 14 14 Z M 4 18 L 4 19 L 10 19 L 10 18 Z M 4 18 "/>
</g>
</svg>
