<?xml version="1.0" encoding="UTF-8"?>
<svg xmlns="http://www.w3.org/2000/svg" xmlns:xlink="http://www.w3.org/1999/xlink" width="28pt" height="24.5pt" viewBox="0 0 28 24.5" version="1.1">
<g id="surface1">
<path style=" stroke:none;fill-rule:nonzero;fill:rgb(30.196078%,30.196078%,30.196078%);fill-opacity:1;" d="M 13 0 L 8 5 L 13 10 L 13.707031 9.292969 L 9.914062 5.5 L 19 5.5 L 19 4.5 L 9.914062 4.5 L 13.707031 0.707031 Z M 21.5 5.5 C 21.222656 5.5 21 5.722656 21 6 C 21 6.277344 21.222656 6.5 21.5 6.5 C 21.777344 6.5 22 6.277344 22 6 C 22 5.722656 21.777344 5.5 21.5 5.5 Z M 7.789062 7.5 L 0 15.292969 L 9.207031 24.5 L 17 16.707031 Z M 24.5 7.5 C 24.222656 7.5 24 7.722656 24 8 C 24 8.277344 24.222656 8.5 24.5 8.5 C 24.777344 8.5 25 8.277344 25 8 C 25 7.722656 24.777344 7.5 24.5 7.5 Z M 7.789062 8.917969 L 15.582031 16.707031 L 9.207031 23.082031 L 1.414062 15.292969 Z M 26.5 10.5 C 26.222656 10.5 26 10.722656 26 11 C 26 11.277344 26.222656 11.5 26.5 11.5 C 26.777344 11.5 27 11.277344 27 11 C 27 10.722656 26.777344 10.5 26.5 10.5 Z M 27.5 13.5 C 27.222656 13.5 27 13.722656 27 14 C 27 14.277344 27.222656 14.5 27.5 14.5 C 27.777344 14.5 28 14.277344 28 14 C 28 13.722656 27.777344 13.5 27.5 13.5 Z M 26.5 16.5 C 26.222656 16.5 26 16.722656 26 17 C 26 17.277344 26.222656 17.5 26.5 17.5 C 26.777344 17.5 27 17.277344 27 17 C 27 16.722656 26.777344 16.5 26.5 16.5 Z M 24.5 19.5 C 24.222656 19.5 24 19.722656 24 20 C 24 20.277344 24.222656 20.5 24.5 20.5 C 24.777344 20.5 25 20.277344 25 20 C 25 19.722656 24.777344 19.5 24.5 19.5 Z M 15.5 21.5 C 15.222656 21.5 15 21.722656 15 22 C 15 22.277344 15.222656 22.5 15.5 22.5 C 15.777344 22.5 16 22.277344 16 22 C 16 21.722656 15.777344 21.5 15.5 21.5 Z M 21.5 21.5 C 21.222656 21.5 21 21.722656 21 22 C 21 22.277344 21.222656 22.5 21.5 22.5 C 21.777344 22.5 22 22.277344 22 22 C 22 21.722656 21.777344 21.5 21.5 21.5 Z M 18.5 22.5 C 18.222656 22.5 18 22.722656 18 23 C 18 23.277344 18.222656 23.5 18.5 23.5 C 18.777344 23.5 19 23.277344 19 23 C 19 22.722656 18.777344 22.5 18.5 22.5 Z M 18.5 22.5 "/>
</g>
</svg>
