<?xml version="1.0" encoding="UTF-8"?>
<svg xmlns="http://www.w3.org/2000/svg" xmlns:xlink="http://www.w3.org/1999/xlink" width="28pt" height="24.5pt" viewBox="0 0 28 24.5" version="1.1">
<g id="surface1">
<path style=" stroke:none;fill-rule:nonzero;fill:rgb(30.196078%,30.196078%,30.196078%);fill-opacity:1;" d="M 15 0 L 14.292969 0.707031 L 18.085938 4.5 L 9 4.5 L 9 5.5 L 18.085938 5.5 L 14.292969 9.292969 L 15 10 L 20 5 Z M 6.5 5.5 C 6.222656 5.5 6 5.722656 6 6 C 6 6.277344 6.222656 6.5 6.5 6.5 C 6.777344 6.5 7 6.277344 7 6 C 7 5.722656 6.777344 5.5 6.5 5.5 Z M 3.5 7.5 C 3.222656 7.5 3 7.722656 3 8 C 3 8.277344 3.222656 8.5 3.5 8.5 C 3.777344 8.5 4 8.277344 4 8 C 4 7.722656 3.777344 7.5 3.5 7.5 Z M 20.207031 7.5 L 11 16.707031 L 18.792969 24.5 L 28 15.292969 Z M 20.207031 8.917969 L 26.582031 15.292969 L 18.792969 23.082031 L 12.417969 16.707031 Z M 1.5 10.5 C 1.222656 10.5 1 10.722656 1 11 C 1 11.277344 1.222656 11.5 1.5 11.5 C 1.777344 11.5 2 11.277344 2 11 C 2 10.722656 1.777344 10.5 1.5 10.5 Z M 0.5 13.5 C 0.222656 13.5 0 13.722656 0 14 C 0 14.277344 0.222656 14.5 0.5 14.5 C 0.777344 14.5 1 14.277344 1 14 C 1 13.722656 0.777344 13.5 0.5 13.5 Z M 1.5 16.5 C 1.222656 16.5 1 16.722656 1 17 C 1 17.277344 1.222656 17.5 1.5 17.5 C 1.777344 17.5 2 17.277344 2 17 C 2 16.722656 1.777344 16.5 1.5 16.5 Z M 3.5 19.5 C 3.222656 19.5 3 19.722656 3 20 C 3 20.277344 3.222656 20.5 3.5 20.5 C 3.777344 20.5 4 20.277344 4 20 C 4 19.722656 3.777344 19.5 3.5 19.5 Z M 6.5 21.5 C 6.222656 21.5 6 21.722656 6 22 C 6 22.277344 6.222656 22.5 6.5 22.5 C 6.777344 22.5 7 22.277344 7 22 C 7 21.722656 6.777344 21.5 6.5 21.5 Z M 12.5 21.5 C 12.222656 21.5 12 21.722656 12 22 C 12 22.277344 12.222656 22.5 12.5 22.5 C 12.777344 22.5 13 22.277344 13 22 C 13 21.722656 12.777344 21.5 12.5 21.5 Z M 9.5 22.5 C 9.222656 22.5 9 22.722656 9 23 C 9 23.277344 9.222656 23.5 9.5 23.5 C 9.777344 23.5 10 23.277344 10 23 C 10 22.722656 9.777344 22.5 9.5 22.5 Z M 9.5 22.5 "/>
</g>
</svg>
