<?xml version="1.0" encoding="UTF-8"?>
<svg xmlns="http://www.w3.org/2000/svg" xmlns:xlink="http://www.w3.org/1999/xlink" width="24pt" height="24pt" viewBox="0 0 24 24" version="1.1">
<g id="surface1">
<path style=" stroke:none;fill-rule:nonzero;fill:rgb(30.196078%,30.196078%,30.196078%);fill-opacity:1;" d="M 9 0 C 4.015625 0 0 4.015625 0 9 C 0 13.984375 4.015625 18 9 18 C 11.222656 18 13.246094 17.199219 14.8125 15.875 L 22.9375 24 L 24 22.9375 L 15.875 14.8125 C 17.199219 13.246094 18 11.222656 18 9 C 18 4.015625 13.984375 0 9 0 Z M 9 1 C 13.417969 1 17 4.582031 17 9 C 17 13.417969 13.417969 17 9 17 C 4.582031 17 1 13.417969 1 9 C 1 4.582031 4.582031 1 9 1 Z M 9 1 "/>
<path style=" stroke:none;fill-rule:nonzero;fill:rgb(95.686275%,46.666667%,31.372549%);fill-opacity:1;" d="M 1 22 C 0.449219 22 0 22.449219 0 23 C 0 23.550781 0.449219 24 1 24 C 1.550781 24 2 23.550781 2 23 C 2 22.449219 1.550781 22 1 22 Z M 5 22 C 4.449219 22 4 22.449219 4 23 C 4 23.550781 4.449219 24 5 24 C 5.550781 24 6 23.550781 6 23 C 6 22.449219 5.550781 22 5 22 Z M 9 22 C 8.449219 22 8 22.449219 8 23 C 8 23.550781 8.449219 24 9 24 C 9.550781 24 10 23.550781 10 23 C 10 22.449219 9.550781 22 9 22 Z M 9 22 "/>
</g>
</svg>
