<?xml version="1.0" encoding="UTF-8"?>
<svg xmlns="http://www.w3.org/2000/svg" xmlns:xlink="http://www.w3.org/1999/xlink" width="24pt" height="14pt" viewBox="0 0 24 14" version="1.1">
<g id="surface1">
<path style=" stroke:none;fill-rule:nonzero;fill:rgb(30.196078%,30.196078%,30.196078%);fill-opacity:1;" d="M 6 2 L 6 3 L 9 3 L 9 2 Z M 11 2 L 11 3 L 13 3 L 13 2 Z M 15 2 L 15 3 L 18 3 L 18 2 Z M 2 6 L 2 8 L 3 8 L 3 6 Z M 21 6 L 21 8 L 22 8 L 22 6 Z M 6 11 L 6 12 L 9 12 L 9 11 Z M 11 11 L 11 12 L 13 12 L 13 11 Z M 15 11 L 15 12 L 18 12 L 18 11 Z M 15 11 "/>
<path style=" stroke:none;fill-rule:nonzero;fill:rgb(11.372549%,60%,95.294118%);fill-opacity:1;" d="M 0 0 L 0 5 L 5 5 L 5 0 Z M 19 0 L 19 5 L 24 5 L 24 0 Z M 1 1 L 4 1 L 4 4 L 1 4 Z M 20 1 L 23 1 L 23 4 L 20 4 Z M 0 9 L 0 14 L 5 14 L 5 9 Z M 19 9 L 19 14 L 24 14 L 24 9 Z M 1 10 L 4 10 L 4 13 L 1 13 Z M 20 10 L 23 10 L 23 13 L 20 13 Z M 20 10 "/>
</g>
</svg>
