<?xml version="1.0" encoding="UTF-8"?>
<svg xmlns="http://www.w3.org/2000/svg" xmlns:xlink="http://www.w3.org/1999/xlink" width="24pt" height="18pt" viewBox="0 0 24 18" version="1.1">
<g id="surface1">
<path style=" stroke:none;fill-rule:nonzero;fill:rgb(30.196078%,30.196078%,30.196078%);fill-opacity:1;" d="M 0 0 L 0 5 L 5 5 L 5 0 Z M 19 0 L 19 5 L 24 5 L 24 0 Z M 1 1 L 4 1 L 4 4 L 1 4 Z M 20 1 L 23 1 L 23 4 L 20 4 Z M 6 2 L 6 3 L 9 3 L 9 2 Z M 11 2 L 11 3 L 13 3 L 13 2 Z M 15 2 L 15 3 L 18 3 L 18 2 Z M 2 6 L 2 8 L 3 8 L 3 6 Z M 21 6 L 21 8 L 22 8 L 22 6 Z M 2 10 L 2 12 L 3 12 L 3 10 Z M 21 10 L 21 12 L 22 12 L 22 10 Z M 6 15 L 6 16 L 9 16 L 9 15 Z M 11 15 L 11 16 L 13 16 L 13 15 Z M 15 15 L 15 16 L 18 16 L 18 15 Z M 15 15 "/>
<path style=" stroke:none;fill-rule:nonzero;fill:rgb(11.372549%,60%,95.294118%);fill-opacity:1;" d="M 0 13 L 0 18 L 5 18 L 5 13 Z M 19 13 L 19 18 L 24 18 L 24 13 Z M 1 14 L 4 14 L 4 17 L 1 17 Z M 20 14 L 23 14 L 23 17 L 20 17 Z M 20 14 "/>
</g>
</svg>
