<?xml version="1.0" encoding="UTF-8"?>
<svg xmlns="http://www.w3.org/2000/svg" xmlns:xlink="http://www.w3.org/1999/xlink" width="24pt" height="24pt" viewBox="0 0 24 24" version="1.1">
<g id="surface1">
<path style=" stroke:none;fill-rule:nonzero;fill:rgb(30.196078%,30.196078%,30.196078%);fill-opacity:1;" d="M 0 0 L 0 4 L 1 4 L 1 1 L 4 1 L 4 0 Z M 20 0 L 20 1 L 23 1 L 23 4 L 24 4 L 24 0 Z M 3 3 L 3 11 L 11 11 L 11 3 Z M 13 3 L 13 11 L 21 11 L 21 3 Z M 4 4 L 10 4 L 10 10 L 4 10 Z M 14 4 L 20 4 L 20 10 L 14 10 Z M 3 13 L 3 21 L 11 21 L 11 13 Z M 13 13 L 13 21 L 21 21 L 21 13 Z M 4 14 L 10 14 L 10 20 L 4 20 Z M 14 14 L 20 14 L 20 20 L 14 20 Z M 0 20 L 0 24 L 4 24 L 4 23 L 1 23 L 1 20 Z M 23 20 L 23 23 L 20 23 L 20 24 L 24 24 L 24 20 Z M 23 20 "/>
</g>
</svg>
