<?xml version="1.0" encoding="UTF-8"?>
<svg xmlns="http://www.w3.org/2000/svg" xmlns:xlink="http://www.w3.org/1999/xlink" width="29pt" height="22pt" viewBox="0 0 29 22" version="1.1">
<g id="surface1">
<path style=" stroke:none;fill-rule:nonzero;fill:rgb(30.196078%,30.196078%,30.196078%);fill-opacity:1;" d="M 9 0 L 9 1 L 27.0625 1 L 15 11.339844 L 9 6.199219 L 9 7.515625 L 12.0625 10.140625 L 9 12.761719 L 9 14.078125 L 12.828125 10.796875 L 15 12.65625 L 17.171875 10.796875 L 28 20.078125 L 28 21 L 9 21 L 9 22 L 29 22 L 29 0 Z M 28 1.515625 L 28 18.765625 L 17.9375 10.140625 Z M 0 7 L 0 8 L 8 8 L 8 7 Z M 1 10 L 1 11 L 8 11 L 8 10 Z M 2 13 L 2 14 L 8 14 L 8 13 Z M 2 13 "/>
</g>
</svg>
