<?xml version="1.0" encoding="UTF-8"?>
<svg xmlns="http://www.w3.org/2000/svg" xmlns:xlink="http://www.w3.org/1999/xlink" width="20pt" height="24pt" viewBox="0 0 20 24" version="1.1">
<g id="surface1">
<path style=" stroke:none;fill-rule:nonzero;fill:rgb(30.196078%,30.196078%,30.196078%);fill-opacity:1;" d="M 0 0 L 0 24 L 13 24 L 20 17 L 20 0 Z M 1 1 L 19 1 L 19 16 L 12 16 L 12 23 L 1 23 Z M 12.5 4 C 11.3125 4 10.289062 4.835938 10.050781 6 L 3 6 L 3 7 L 10.054688 7 C 10.292969 8.164062 11.3125 8.996094 12.5 9 C 13.6875 9 14.710938 8.164062 14.949219 7 L 17 7 L 17 6 L 14.945312 6 C 14.707031 4.835938 13.6875 4.003906 12.5 4 Z M 6.5 10 C 5.3125 10.003906 4.292969 10.835938 4.054688 12 L 3 12 L 3 13 L 4.050781 13 C 4.289062 14.164062 5.3125 15 6.5 15 C 7.6875 14.996094 8.707031 14.164062 8.945312 13 L 17 13 L 17 12 L 8.949219 12 C 8.710938 10.835938 7.6875 10 6.5 10 Z M 6.453125 11 C 6.46875 11 6.484375 11 6.5 11 C 7.136719 11 7.699219 11.402344 7.910156 12 C 7.945312 12.09375 7.96875 12.191406 7.984375 12.292969 C 7.984375 12.296875 7.984375 12.300781 7.984375 12.308594 C 7.992188 12.351562 7.996094 12.394531 8 12.4375 C 8 12.460938 8 12.480469 8 12.5 C 8 12.550781 7.996094 12.601562 7.992188 12.652344 C 7.980469 12.769531 7.953125 12.886719 7.910156 13 C 7.699219 13.597656 7.136719 14 6.5 14 C 5.863281 14 5.300781 13.597656 5.089844 13 C 5.03125 12.839844 5 12.671875 5 12.5 C 5 12.328125 5.03125 12.160156 5.089844 12 C 5.292969 11.417969 5.835938 11.019531 6.453125 11 Z M 6.453125 11 "/>
</g>
</svg>
