<?xml version="1.0" encoding="UTF-8"?>
<svg xmlns="http://www.w3.org/2000/svg" xmlns:xlink="http://www.w3.org/1999/xlink" width="24pt" height="26pt" viewBox="0 0 24 26" version="1.1">
<g id="surface1">
<path style=" stroke:none;fill-rule:nonzero;fill:rgb(30.196078%,30.196078%,30.196078%);fill-opacity:1;" d="M 9 0 L 9 12 L 5 12 L 5 9 L 0 13 L 5 17 L 5 14 L 9 14 L 9 26 L 15 26 L 15 14 L 19 14 L 19 17 L 24 13 L 19 9 L 19 12 L 15 12 L 15 0 Z M 10 1 L 14 1 L 14 5 L 10 5 Z M 10 6 L 14 6 L 14 10 L 10 10 Z M 10 11 L 14 11 L 14 15 L 10 15 Z M 10 16 L 14 16 L 14 20 L 10 20 Z M 10 21 L 14 21 L 14 25 L 10 25 Z M 10 21 "/>
</g>
</svg>
