<?xml version="1.0" encoding="UTF-8"?>
<svg xmlns="http://www.w3.org/2000/svg" xmlns:xlink="http://www.w3.org/1999/xlink" width="26pt" height="24pt" viewBox="0 0 26 24" version="1.1">
<g id="surface1">
<path style=" stroke:none;fill-rule:nonzero;fill:rgb(30.196078%,30.196078%,30.196078%);fill-opacity:1;" d="M 13 0 L 9 5 L 12 5 L 12 9 L 0 9 L 0 15 L 12 15 L 12 19 L 9 19 L 13 24 L 17 19 L 14 19 L 14 15 L 26 15 L 26 9 L 14 9 L 14 5 L 17 5 Z M 1 10 L 5 10 L 5 14 L 1 14 Z M 6 10 L 10 10 L 10 14 L 6 14 Z M 11 10 L 15 10 L 15 14 L 11 14 Z M 16 10 L 20 10 L 20 14 L 16 14 Z M 21 10 L 25 10 L 25 14 L 21 14 Z M 21 10 "/>
</g>
</svg>
