<?xml version="1.0" encoding="UTF-8"?>
<svg xmlns="http://www.w3.org/2000/svg" xmlns:xlink="http://www.w3.org/1999/xlink" width="22pt" height="26pt" viewBox="0 0 22 26" version="1.1">
<g id="surface1">
<path style=" stroke:none;fill-rule:nonzero;fill:rgb(70.196078%,70.196078%,70.196078%);fill-opacity:1;" d="M 11 0 L 0 24 L 2 26 L 4 26 L 7.390625 17 L 16.609375 17 L 18 24 L 20 26 L 22 26 L 21.929688 25.824219 L 13 2 Z M 12 4.402344 L 15.847656 15 L 8.152344 15 Z M 12 4.402344 "/>
<path style=" stroke:none;fill-rule:nonzero;fill:rgb(30.196078%,30.196078%,30.196078%);fill-opacity:1;" d="M 9 0 L 0.0703125 23.824219 L 0 24 L 2 24 L 5.390625 15 L 14.609375 15 L 18 24 L 20 24 L 19.929688 23.824219 L 11 0 Z M 10 2.402344 L 13.847656 13 L 6.152344 13 Z M 10 2.402344 "/>
</g>
</svg>
