<?xml version="1.0" encoding="UTF-8"?>
<svg xmlns="http://www.w3.org/2000/svg" xmlns:xlink="http://www.w3.org/1999/xlink" width="24pt" height="24pt" viewBox="0 0 24 24" version="1.1">
<g id="surface1">
<path style=" stroke:none;fill-rule:nonzero;fill:rgb(30.196078%,30.196078%,30.196078%);fill-opacity:1;" d="M 8 0 L 8 21 L 16 24 L 16 3 Z M 3 1 L 0 6 L 2 6 L 2 15 L 0 15 L 3 20 L 6 15 L 4 15 L 4 6 L 6 6 Z M 9 1.441406 L 15 3.691406 L 15 22.558594 L 9 20.308594 Z M 21 4 L 18 9 L 20 9 L 20 18 L 18 18 L 21 23 L 24 18 L 22 18 L 22 9 L 24 9 Z M 21 4 "/>
</g>
</svg>
