<?xml version="1.0" encoding="UTF-8"?>
<svg xmlns="http://www.w3.org/2000/svg" xmlns:xlink="http://www.w3.org/1999/xlink" width="26pt" height="24pt" viewBox="0 0 26 24" version="1.1">
<g id="surface1">
<path style=" stroke:none;fill-rule:nonzero;fill:rgb(30.196078%,30.196078%,30.196078%);fill-opacity:1;" d="M 0 0 L 0 18 L 26 18 L 26 0 Z M 1 1 L 25 1 L 25 17 L 1 17 Z M 18.273438 4.5 L 10.636719 12.0625 L 7.726562 9.179688 L 7 9.902344 L 9.90625 12.78125 L 10.636719 13.5 L 11.726562 12.421875 L 19 5.21875 Z M 10 19 L 10 23 L 8 23 L 8 24 L 18 24 L 18 23 L 16 23 L 16 19 L 15 19 L 15 23 L 11 23 L 11 19 Z M 10 19 "/>
</g>
</svg>
