<?xml version="1.0" encoding="UTF-8"?>
<svg xmlns="http://www.w3.org/2000/svg" xmlns:xlink="http://www.w3.org/1999/xlink" width="25.773438pt" height="13pt" viewBox="0 0 25.773438 13" version="1.1">
<g id="surface1">
<path style=" stroke:none;fill-rule:nonzero;fill:rgb(30.196078%,30.196078%,30.196078%);fill-opacity:1;" d="M 12.886719 0 C 7.792969 0.0078125 3.007812 2.285156 0 6.140625 C 0.1875 6.429688 0.378906 6.71875 0.585938 7 C 3.390625 3.242188 7.984375 1.003906 12.886719 1 C 9.574219 1 6.886719 3.6875 6.886719 7 C 6.886719 10.3125 9.574219 13 12.886719 13 C 16.199219 13 18.886719 10.3125 18.886719 7 C 18.886719 3.878906 16.488281 1.277344 13.375 1.023438 C 18.101562 1.171875 22.476562 3.386719 25.179688 7.007812 C 25.390625 6.726562 25.585938 6.433594 25.773438 6.140625 C 22.765625 2.285156 17.980469 0.0078125 12.886719 0 Z M 12.886719 2 C 15.648438 2 17.886719 4.238281 17.886719 7 C 17.886719 9.761719 15.648438 12 12.886719 12 C 10.125 12 7.886719 9.761719 7.886719 7 C 7.886719 4.238281 10.125 2 12.886719 2 Z M 12.886719 4 C 11.230469 4 9.886719 5.34375 9.886719 7 C 9.886719 8.65625 11.230469 10 12.886719 10 C 14.542969 10 15.886719 8.65625 15.886719 7 C 15.886719 6.699219 15.839844 6.402344 15.75 6.117188 C 15.507812 6.652344 14.976562 7 14.386719 7 C 13.558594 7 12.886719 6.328125 12.886719 5.5 C 12.886719 4.910156 13.234375 4.375 13.773438 4.136719 C 13.484375 4.046875 13.1875 4 12.886719 4 Z M 12.886719 4 "/>
</g>
</svg>
