<?xml version="1.0" encoding="UTF-8"?>
<svg xmlns="http://www.w3.org/2000/svg" xmlns:xlink="http://www.w3.org/1999/xlink" width="22pt" height="28pt" viewBox="0 0 22 28" version="1.1">
<g id="surface1">
<path style=" stroke:none;fill-rule:nonzero;fill:rgb(30.196078%,30.196078%,30.196078%);fill-opacity:1;" d="M 0 0 L 0 13 L 10 13 L 10 4 L 9 2.664062 L 7.75 1 L 7 0 Z M 12 0 L 12 13 L 22 13 L 22 4 L 21 2.664062 L 19.75 1 L 19 0 Z M 1 1 L 6 1 L 6 5 L 9 5 L 9 12 L 1 12 Z M 13 1 L 18 1 L 18 5 L 21 5 L 21 12 L 13 12 Z M 0 15 L 0 28 L 10 28 L 10 19 L 9 17.667969 L 7.75 16 L 7 15 Z M 12 15 L 12 28 L 22 28 L 22 19 L 21 17.667969 L 19.75 16 L 19 15 Z M 1 16 L 6 16 L 6 20 L 9 20 L 9 27 L 1 27 Z M 13 16 L 18 16 L 18 20 L 21 20 L 21 27 L 13 27 Z M 13 16 "/>
</g>
</svg>
