<?xml version="1.0" encoding="UTF-8"?>
<svg xmlns="http://www.w3.org/2000/svg" xmlns:xlink="http://www.w3.org/1999/xlink" width="24pt" height="24pt" viewBox="0 0 24 24" version="1.1">
<g id="surface1">
<path style=" stroke:none;fill-rule:nonzero;fill:rgb(30.196078%,30.196078%,30.196078%);fill-opacity:1;" d="M 0 0 L 0 24 L 12 24 L 12 23 L 1 23 L 1 5 L 23 5 L 23 12 L 24 12 L 24 0 Z M 18 12 C 14.6875 12 12 14.6875 12 18 C 12 21.3125 14.6875 24 18 24 C 21.3125 24 24 21.3125 24 18 C 24 14.6875 21.3125 12 18 12 Z M 18 13 C 20.761719 13 23 15.238281 23 18 C 23 20.761719 20.761719 23 18 23 C 15.238281 23 13 20.761719 13 18 C 13 15.238281 15.238281 13 18 13 Z M 21 15 L 18 16 C 16.953125 16 16 16.953125 16 18 L 15 21 L 18 20 C 19.046875 20 20 19.046875 20 18 Z M 18 17 C 18.523438 17 19 17.476562 19 18 C 19 18.523438 18.523438 19 18 19 C 17.476562 19 17 18.523438 17 18 C 17 17.476562 17.476562 17 18 17 Z M 18 17 "/>
</g>
</svg>
