<?xml version="1.0" encoding="UTF-8"?>
<svg xmlns="http://www.w3.org/2000/svg" xmlns:xlink="http://www.w3.org/1999/xlink" width="24pt" height="24pt" viewBox="0 0 24 24" version="1.1">
<g id="surface1">
<path style=" stroke:none;fill-rule:nonzero;fill:rgb(30.196078%,30.196078%,30.196078%);fill-opacity:1;" d="M 18 0 C 16.34375 0 15 1.34375 15 3 L 15 6 L 13 6 L 13 12 L 23 12 L 23 6 L 21 6 L 21 3 C 21 1.34375 19.65625 0 18 0 Z M 18 1 C 19.105469 1 20 1.894531 20 3 L 20 6 L 16 6 L 16 3 C 16 1.894531 16.894531 1 18 1 Z M 14 7 L 22 7 L 22 11 L 14 11 Z M 14 7 "/>
<path style=" stroke:none;fill-rule:nonzero;fill:rgb(95.686275%,46.666667%,31.372549%);fill-opacity:1;" d="M 0 0 L 0 24 L 24 24 L 24 13 L 23 13 L 23 23 L 1 23 L 1 1 L 13 1 L 13 0 Z M 0 0 "/>
</g>
</svg>
