<?xml version="1.0" encoding="UTF-8"?>
<svg xmlns="http://www.w3.org/2000/svg" xmlns:xlink="http://www.w3.org/1999/xlink" width="20pt" height="24pt" viewBox="0 0 20 24" version="1.1">
<g id="surface1">
<path style=" stroke:none;fill-rule:nonzero;fill:rgb(30.196078%,30.196078%,30.196078%);fill-opacity:1;" d="M 0 0 L 0 24 L 13 24 L 20 17 L 20 13 L 19 13 L 19 16 L 12 16 L 12 23 L 1 23 L 1 1 L 10 1 L 10 0 Z M 15 0 C 13.34375 0 12 1.34375 12 3 L 12 6 L 10 6 L 10 12 L 20 12 L 20 6 L 18 6 L 18 3 C 18 1.34375 16.65625 0 15 0 Z M 15 1 C 16.105469 1 17 1.894531 17 3 L 17 6 L 13 6 L 13 3 C 13 1.894531 13.894531 1 15 1 Z M 11 7 L 19 7 L 19 11 L 11 11 Z M 11 7 "/>
</g>
</svg>
