<?xml version="1.0" encoding="UTF-8"?>
<svg xmlns="http://www.w3.org/2000/svg" xmlns:xlink="http://www.w3.org/1999/xlink" width="18pt" height="24pt" viewBox="0 0 18 24" version="1.1">
<g id="surface1">
<path style=" stroke:none;fill-rule:nonzero;fill:rgb(30.196078%,30.196078%,30.196078%);fill-opacity:1;" d="M 0.175781 10 L 0.226562 10.902344 L 4.484375 10.902344 L 0 17.191406 L 0 18 L 6 18 L 5.96875 17.0625 L 1.523438 17.0625 L 5.925781 10.859375 L 5.925781 10 Z M 12.5 10 L 12.5 22.085938 L 8.707031 18.292969 L 8 19 L 13 24 L 18 19 L 17.292969 18.292969 L 13.5 22.085938 L 13.5 10 Z M 12.5 10 "/>
<path style=" stroke:none;fill-rule:nonzero;fill:rgb(11.372549%,60%,95.294118%);fill-opacity:1;" d="M 3.09375 0 C 2.058594 0 1.128906 0.191406 0.296875 0.574219 L 0.628906 1.460938 C 0.984375 1.292969 1.390625 1.160156 1.84375 1.070312 C 2.292969 0.972656 2.71875 0.921875 3.113281 0.921875 C 3.699219 0.921875 4.125 1.0625 4.390625 1.335938 C 4.664062 1.613281 4.800781 2.035156 4.800781 2.59375 L 4.800781 3.351562 L 3.566406 3.351562 C 2.324219 3.351562 1.417969 3.546875 0.847656 3.941406 C 0.28125 4.328125 0 4.941406 0 5.773438 C 0 6.472656 0.214844 7.015625 0.640625 7.410156 C 1.078125 7.804688 1.648438 8 2.359375 8 C 3.421875 8 4.285156 7.59375 4.949219 6.785156 L 5.078125 7.847656 L 6 7.847656 L 6 2.773438 C 6 1.792969 5.746094 1.085938 5.238281 0.65625 C 4.738281 0.21875 4.023438 0 3.09375 0 Z M 3.875 4.152344 L 4.800781 4.152344 L 4.800781 5.847656 C 4.222656 6.695312 3.433594 7.121094 2.433594 7.121094 C 2.066406 7.121094 1.761719 7.003906 1.519531 6.769531 C 1.277344 6.539062 1.15625 6.207031 1.15625 5.78125 C 1.15625 5.542969 1.175781 5.34375 1.21875 5.1875 C 1.265625 5.019531 1.34375 4.871094 1.460938 4.734375 C 1.578125 4.59375 1.738281 4.484375 1.945312 4.40625 C 2.148438 4.324219 2.410156 4.261719 2.726562 4.21875 C 3.042969 4.175781 3.425781 4.152344 3.875 4.152344 Z M 3.875 4.152344 "/>
</g>
</svg>
