<?xml version="1.0" encoding="UTF-8"?>
<svg xmlns="http://www.w3.org/2000/svg" xmlns:xlink="http://www.w3.org/1999/xlink" width="18pt" height="24pt" viewBox="0 0 18 24" version="1.1">
<g id="surface1">
<path style=" stroke:none;fill-rule:nonzero;fill:rgb(30.196078%,30.196078%,30.196078%);fill-opacity:1;" d="M 0.175781 0 L 0.226562 0.898438 L 4.484375 0.898438 L 0 7.191406 L 0 8 L 6 8 L 5.96875 7.0625 L 1.523438 7.0625 L 5.925781 0.859375 L 5.925781 0 Z M 12.5 10 L 12.5 22.085938 L 8.707031 18.292969 L 8 19 L 13 24 L 18 19 L 17.292969 18.292969 L 13.5 22.085938 L 13.5 10 Z M 12.5 10 "/>
<path style=" stroke:none;fill-rule:nonzero;fill:rgb(11.372549%,60%,95.294118%);fill-opacity:1;" d="M 3.09375 10 C 2.058594 10 1.128906 10.191406 0.296875 10.574219 L 0.628906 11.460938 C 0.984375 11.292969 1.390625 11.160156 1.84375 11.066406 C 2.292969 10.972656 2.71875 10.921875 3.113281 10.921875 C 3.699219 10.921875 4.125 11.0625 4.390625 11.339844 C 4.664062 11.613281 4.800781 12.035156 4.800781 12.59375 L 4.800781 13.355469 L 3.566406 13.355469 C 2.324219 13.355469 1.417969 13.546875 0.847656 13.941406 C 0.28125 14.328125 0 14.941406 0 15.777344 C 0 16.472656 0.214844 17.015625 0.640625 17.410156 C 1.078125 17.804688 1.648438 18 2.359375 18 C 3.421875 18 4.285156 17.59375 4.949219 16.785156 L 5.078125 17.847656 L 6 17.847656 L 6 12.769531 C 6 11.792969 5.746094 11.085938 5.238281 10.65625 C 4.738281 10.21875 4.023438 10 3.09375 10 Z M 3.875 14.152344 L 4.800781 14.152344 L 4.800781 15.847656 C 4.222656 16.695312 3.433594 17.121094 2.433594 17.121094 C 2.066406 17.121094 1.761719 17.003906 1.519531 16.769531 C 1.277344 16.539062 1.15625 16.207031 1.15625 15.78125 C 1.15625 15.542969 1.175781 15.34375 1.21875 15.1875 C 1.265625 15.019531 1.34375 14.871094 1.460938 14.734375 C 1.578125 14.59375 1.738281 14.484375 1.945312 14.40625 C 2.148438 14.324219 2.410156 14.261719 2.726562 14.21875 C 3.042969 14.175781 3.425781 14.152344 3.875 14.152344 Z M 3.875 14.152344 "/>
</g>
</svg>
