<?xml version="1.0" encoding="UTF-8"?>
<svg xmlns="http://www.w3.org/2000/svg" xmlns:xlink="http://www.w3.org/1999/xlink" width="24pt" height="20pt" viewBox="0 0 24 20" version="1.1">
<g id="surface1">
<path style=" stroke:none;fill-rule:nonzero;fill:rgb(30.196078%,30.196078%,30.196078%);fill-opacity:1;" d="M 0 0 L 0 1 L 17 1 L 17 0 Z M 0 3 L 0 4 L 14 4 L 14 3 Z M 0 8 L 0 9 L 17 9 L 17 8 Z M 0 11 L 0 12 L 8 12 L 8 11 Z M 0 16 L 0 17 L 17 17 L 17 16 Z M 0 19 L 0 20 L 16 20 L 16 19 Z M 0 19 "/>
<path style=" stroke:none;fill-rule:nonzero;fill:rgb(11.372549%,60%,95.294118%);fill-opacity:1;" d="M 21 0 L 18 4 L 20 4 L 20 16 L 18 16 L 21 20 L 24 16 L 22 16 L 22 4 L 24 4 Z M 21 0 "/>
</g>
</svg>
