<?xml version="1.0" encoding="UTF-8"?>
<svg xmlns="http://www.w3.org/2000/svg" xmlns:xlink="http://www.w3.org/1999/xlink" width="24pt" height="16pt" viewBox="0 0 24 16" version="1.1">
<g id="surface1">
<path style=" stroke:none;fill-rule:nonzero;fill:rgb(30.196078%,30.196078%,30.196078%);fill-opacity:1;" d="M 0 0 L 0 1 L 17 1 L 17 0 Z M 0 3 L 0 4 L 14 4 L 14 3 Z M 0 6 L 0 7 L 17 7 L 17 6 Z M 0 9 L 0 10 L 8 10 L 8 9 Z M 0 12 L 0 13 L 17 13 L 17 12 Z M 0 15 L 0 16 L 16 16 L 16 15 Z M 0 15 "/>
<path style=" stroke:none;fill-rule:nonzero;fill:rgb(11.372549%,60%,95.294118%);fill-opacity:1;" d="M 21 0 L 18 4 L 20 4 L 20 12 L 18 12 L 21 16 L 24 12 L 22 12 L 22 4 L 24 4 Z M 21 0 "/>
</g>
</svg>
