<?xml version="1.0" encoding="UTF-8"?>
<svg xmlns="http://www.w3.org/2000/svg" xmlns:xlink="http://www.w3.org/1999/xlink" width="24pt" height="24pt" viewBox="0 0 24 24" version="1.1">
<g id="surface1">
<path style=" stroke:none;fill-rule:nonzero;fill:rgb(30.196078%,30.196078%,30.196078%);fill-opacity:1;" d="M 0 0 L 0 11 L 6 11 C 7.65625 11 9 9.65625 9 8 C 9 6.746094 8.222656 5.625 7.046875 5.1875 C 7.652344 4.621094 8 3.832031 8 3 C 8 1.34375 6.65625 0 5 0 Z M 16 0 L 16 11 L 21 11 C 22.65625 11 24 9.65625 24 8 L 24 3 C 24 1.34375 22.65625 0 21 0 Z M 1 1 L 5 1 C 6.105469 1 7 1.894531 7 3 C 7 4.105469 6.105469 5 5 5 L 1 5 Z M 17 1 L 21 1 C 22.105469 1 23 1.894531 23 3 L 23 8 C 23 9.105469 22.105469 10 21 10 L 17 10 Z M 11 5 L 11 6 L 14 6 L 14 5 Z M 1 6 L 6 6 C 7.105469 6 8 6.894531 8 8 C 8 9.105469 7.105469 10 6 10 L 1 10 Z M 2 14 L 2 15 L 5 15 L 5 14 Z M 8 14 L 8 15 L 11 15 L 11 14 Z M 13 14 L 13 15 L 16 15 L 16 14 Z M 19 14 L 19 15 L 22 15 L 22 14 Z M 4 18 L 0 21 L 4 24 Z M 20 18 L 20 24 L 24 21 Z M 12 20 C 11.449219 20 11 20.449219 11 21 C 11 21.550781 11.449219 22 12 22 C 12.550781 22 13 21.550781 13 21 C 13 20.449219 12.550781 20 12 20 Z M 12 20 "/>
</g>
</svg>
