<?xml version="1.0" encoding="UTF-8"?>
<svg xmlns="http://www.w3.org/2000/svg" xmlns:xlink="http://www.w3.org/1999/xlink" width="24pt" height="24pt" viewBox="0 0 24 24" version="1.1">
<g id="surface1">
<path style=" stroke:none;fill-rule:nonzero;fill:rgb(11.372549%,60%,95.294118%);fill-opacity:1;" d="M 21 0 L 18 4 L 20 4 L 20 20 L 18 20 L 21 24 L 24 20 L 22 20 L 22 4 L 24 4 Z M 21 0 "/>
<path style=" stroke:none;fill-rule:nonzero;fill:rgb(30.196078%,30.196078%,30.196078%);fill-opacity:1;" d="M 0 0 L 0 1 L 17 1 L 17 0 Z M 0 3 L 0 4 L 14 4 L 14 3 Z M 0 10 L 0 11 L 17 11 L 17 10 Z M 0 13 L 0 14 L 8 14 L 8 13 Z M 0 20 L 0 21 L 17 21 L 17 20 Z M 0 23 L 0 24 L 16 24 L 16 23 Z M 0 23 "/>
</g>
</svg>
