<?xml version="1.0" encoding="UTF-8"?>
<svg xmlns="http://www.w3.org/2000/svg" xmlns:xlink="http://www.w3.org/1999/xlink" width="24pt" height="26pt" viewBox="0 0 24 26" version="1.1">
<g id="surface1">
<path style=" stroke:none;fill-rule:nonzero;fill:rgb(15.294118%,68.235294%,37.647059%);fill-opacity:1;" d="M 19 16 C 16.238281 16 14 18.238281 14 21 C 14 21.980469 14.289062 22.9375 14.832031 23.753906 L 15.558594 23.027344 C 15.195312 22.414062 15.003906 21.714844 15 21 C 15 18.789062 16.789062 17 19 17 C 19.714844 17.003906 20.414062 17.195312 21.027344 17.558594 L 21.753906 16.832031 C 20.9375 16.289062 19.980469 16 19 16 Z M 23.167969 18.246094 L 22.441406 18.972656 C 22.804688 19.585938 22.996094 20.285156 23 21 C 23 23.210938 21.210938 25 19 25 C 18.285156 24.996094 17.585938 24.804688 16.972656 24.441406 L 16.246094 25.167969 C 17.0625 25.710938 18.019531 26 19 26 C 21.761719 26 24 23.761719 24 21 C 24 20.019531 23.710938 19.0625 23.167969 18.246094 Z M 0 25 L 0 26 L 14 26 L 14 25 Z M 0 25 "/>
<path style=" stroke:none;fill-rule:nonzero;fill:rgb(30.196078%,30.196078%,30.196078%);fill-opacity:1;" d="M 9 0 L 0.0703125 23.824219 L 0 24 L 2 24 L 5.390625 15 L 16.621094 15 L 11 0 Z M 10 2.402344 L 13.847656 13 L 6.152344 13 Z M 10 2.402344 "/>
</g>
</svg>
