<?xml version="1.0" encoding="UTF-8"?>
<svg xmlns="http://www.w3.org/2000/svg" xmlns:xlink="http://www.w3.org/1999/xlink" width="22pt" height="27pt" viewBox="0 0 22 27" version="1.1">
<g id="surface1">
<path style=" stroke:none;fill-rule:nonzero;fill:rgb(30.196078%,30.196078%,30.196078%);fill-opacity:1;" d="M 9 0 L 0.0703125 23.824219 L 0 24 L 2 24 L 5.390625 15 L 14.609375 15 L 18 24 L 20 24 L 20 23.824219 L 11 0 Z M 10 2.402344 L 13.847656 13 L 6.152344 13 Z M 10 2.402344 "/>
<path style=" stroke:none;fill-rule:nonzero;fill:rgb(15.294118%,68.235294%,37.647059%);fill-opacity:1;" d="M 13 25 C 12.449219 25 12 25.449219 12 26 C 12 26.550781 12.449219 27 13 27 C 13.550781 27 14 26.550781 14 26 C 14 25.449219 13.550781 25 13 25 Z M 17 25 C 16.449219 25 16 25.449219 16 26 C 16 26.550781 16.449219 27 17 27 C 17.550781 27 18 26.550781 18 26 C 18 25.449219 17.550781 25 17 25 Z M 21 25 C 20.449219 25 20 25.449219 20 26 C 20 26.550781 20.449219 27 21 27 C 21.550781 27 22 26.550781 22 26 C 22 25.449219 21.550781 25 21 25 Z M 21 25 "/>
</g>
</svg>
