<?xml version="1.0" encoding="UTF-8"?>
<svg xmlns="http://www.w3.org/2000/svg" xmlns:xlink="http://www.w3.org/1999/xlink" width="24pt" height="24pt" viewBox="0 0 24 24" version="1.1">
<g id="surface1">
<path style=" stroke:none;fill-rule:nonzero;fill:rgb(30.196078%,30.196078%,30.196078%);fill-opacity:1;" d="M 6 0 C 6 0 7.117188 5.265625 6 7.5 C 4.882812 9.734375 0 12 0 12 C 0 12 4.882812 14.265625 6 16.5 C 7.117188 18.734375 6 24 6 24 C 6 24 9.5 19.5 12 19.5 C 14.5 19.5 18 24 18 24 C 18 24 16.882812 18.734375 18 16.5 C 19.117188 14.265625 24 12 24 12 C 24 12 19.117188 9.734375 18 7.5 C 16.882812 5.265625 18 0 18 0 C 18 0 14.5 4.5 12 4.5 C 9.5 4.5 6 0 6 0 Z M 6 0 "/>
</g>
</svg>
