<?xml version="1.0" encoding="UTF-8"?>
<svg xmlns="http://www.w3.org/2000/svg" xmlns:xlink="http://www.w3.org/1999/xlink" width="24.000096pt" height="24pt" viewBox="0 0 24.000096 24" version="1.1">
<g id="surface1">
<path style=" stroke:none;fill-rule:nonzero;fill:rgb(30.196078%,30.196078%,30.196078%);fill-opacity:1;" d="M 11.25 0 C 9.695312 0 9.386719 2.699219 7.953125 3.296875 C 6.519531 3.890625 4.394531 2.195312 3.296875 3.296875 C 2.195312 4.394531 3.890625 6.519531 3.296875 7.953125 C 2.699219 9.386719 0 9.695312 0 11.25 C 0 12.804688 2.699219 13.109375 3.296875 14.546875 C 3.890625 15.980469 2.195312 18.105469 3.296875 19.203125 C 4.394531 20.300781 6.519531 18.609375 7.953125 19.203125 C 9.386719 19.796875 9.695312 22.5 11.25 22.5 C 12.804688 22.5 13.109375 19.796875 14.546875 19.203125 C 14.574219 19.175781 14.640625 19.132812 14.679688 19.179688 L 19.5 24 L 21 21 L 24 19.5 C 24.019531 19.457031 21.140625 17.363281 19.160156 15.871094 C 19.078125 15.402344 19.039062 14.941406 19.203125 14.546875 C 19.796875 13.109375 22.5 12.804688 22.5 11.25 C 22.5 9.695312 19.796875 9.386719 19.203125 7.953125 C 18.609375 6.519531 20.300781 4.394531 19.203125 3.296875 C 18.105469 2.195312 15.980469 3.890625 14.546875 3.296875 C 13.109375 2.699219 12.804688 0 11.25 0 Z M 11.25 6 C 14.148438 6 16.5 8.351562 16.5 11.25 C 16.5 14.148438 14.148438 16.5 11.25 16.5 C 8.351562 16.5 6 14.148438 6 11.25 C 6 8.351562 8.351562 6 11.25 6 Z M 11.25 6 "/>
</g>
</svg>
