<?xml version="1.0" encoding="UTF-8"?>
<svg xmlns="http://www.w3.org/2000/svg" xmlns:xlink="http://www.w3.org/1999/xlink" width="24pt" height="24pt" viewBox="0 0 24 24" version="1.1">
<g id="surface1">
<path style=" stroke:none;fill-rule:nonzero;fill:rgb(30.196078%,30.196078%,30.196078%);fill-opacity:1;" d="M 12 0 L 11.203125 6.046875 L 8.90625 0.421875 L 9.703125 6.46875 L 6 1.59375 L 8.34375 7.21875 L 3.515625 3.515625 L 7.21875 8.34375 L 1.59375 6 L 6.46875 9.703125 L 0.421875 8.90625 L 6.046875 11.203125 L 0 12 L 6.046875 12.796875 L 0.421875 15.09375 L 6.46875 14.296875 L 1.59375 18 L 7.21875 15.65625 L 3.515625 20.484375 L 7.5 17.425781 L 7.5 13.5 L 9 12 L 24 12 L 17.953125 11.203125 L 23.578125 8.90625 L 17.53125 9.703125 L 22.40625 6 L 16.78125 8.34375 L 20.484375 3.515625 L 15.65625 7.21875 L 18 1.59375 L 14.296875 6.46875 L 15.09375 0.421875 L 12.796875 6.046875 Z M 11.734375 13.5 C 11.363281 13.5 10.953125 13.554688 10.503906 13.671875 C 10.058594 13.785156 9.558594 13.976562 9.046875 14.203125 L 9.046875 15.78125 C 9.550781 15.476562 10.101562 15.300781 10.546875 15.148438 C 10.992188 14.996094 11.339844 14.980469 11.738281 14.980469 C 12.304688 14.980469 12.648438 15.039062 13 15.382812 C 13.355469 15.726562 13.511719 15.964844 13.511719 16.515625 C 13.511719 16.851562 13.394531 17.136719 13.230469 17.484375 C 13.066406 17.832031 12.914062 18.027344 12.503906 18.53125 C 12.175781 18.890625 11.707031 19.488281 10.867188 20.410156 C 10.03125 21.332031 9.503906 21.972656 9.019531 22.519531 L 9 24 L 15 24 L 15 22.445312 L 10.859375 22.5 C 11.890625 21.355469 12.363281 20.789062 12.929688 20.152344 C 13.496094 19.511719 13.832031 19.125 13.9375 18.992188 C 14.320312 18.476562 14.585938 18.03125 14.730469 17.652344 C 14.875 17.269531 14.949219 16.867188 14.949219 16.441406 C 14.949219 15.550781 14.660156 14.835938 14.078125 14.300781 C 13.492188 13.765625 12.714844 13.5 11.734375 13.5 Z M 21 13.5 L 16.5 19.859375 L 16.5 21 L 21 21 L 21 24 L 22.5 24 L 22.5 21 L 24 21 L 24 19.5 L 22.5 19.5 L 22.5 13.5 Z M 21 15.714844 L 21 19.5 L 18.445312 19.5 Z M 21 15.714844 "/>
</g>
</svg>
