<?xml version="1.0" encoding="UTF-8"?>
<svg xmlns="http://www.w3.org/2000/svg" xmlns:xlink="http://www.w3.org/1999/xlink" width="24pt" height="24pt" viewBox="0 0 24 24" version="1.1">
<g id="surface1">
<path style=" stroke:none;fill-rule:nonzero;fill:rgb(30.196078%,30.196078%,30.196078%);fill-opacity:1;" d="M 12 0 L 10.453125 6.1875 L 6 1.59375 L 7.734375 7.734375 L 1.59375 6 L 6.1875 10.453125 L 0 12 L 6.1875 13.546875 L 1.59375 18 L 7.734375 16.265625 L 6 22.40625 L 10.453125 17.8125 L 10.5 18 L 10.5 13.5 L 12 12 L 24 12 L 17.8125 10.453125 L 22.40625 6 L 16.265625 7.734375 L 18 1.59375 L 13.546875 6.1875 Z M 13.941406 13.5 L 11.546875 14.234375 L 11.546875 15.300781 L 11.5625 16.03125 L 13.519531 15.4375 C 13.519531 15.773438 13.527344 24 13.527344 24 L 15.292969 24 C 15.292969 24 15.230469 16.9375 15.296875 13.5 Z M 20.734375 13.5 C 20.363281 13.5 19.953125 13.554688 19.503906 13.671875 C 19.058594 13.785156 18.558594 13.976562 18.046875 14.203125 L 18.046875 15.78125 C 18.550781 15.476562 19.101562 15.300781 19.546875 15.148438 C 19.992188 14.996094 20.339844 14.980469 20.738281 14.980469 C 21.304688 14.980469 21.648438 15.039062 22 15.382812 C 22.355469 15.726562 22.511719 15.964844 22.511719 16.515625 C 22.511719 16.851562 22.394531 17.136719 22.230469 17.484375 C 22.066406 17.832031 21.914062 18.027344 21.503906 18.53125 C 21.175781 18.890625 20.707031 19.488281 19.867188 20.410156 C 19.03125 21.332031 18.503906 21.972656 18.019531 22.519531 L 18 24 L 24 24 L 24 22.445312 L 19.859375 22.5 C 20.890625 21.355469 21.363281 20.789062 21.929688 20.152344 C 22.496094 19.511719 22.832031 19.125 22.9375 18.992188 C 23.320312 18.476562 23.585938 18.03125 23.730469 17.652344 C 23.875 17.269531 23.949219 16.867188 23.949219 16.441406 C 23.949219 15.550781 23.660156 14.835938 23.078125 14.300781 C 22.492188 13.765625 21.714844 13.5 20.734375 13.5 Z M 20.734375 13.5 "/>
</g>
</svg>
