<?xml version="1.0" encoding="UTF-8"?>
<svg xmlns="http://www.w3.org/2000/svg" xmlns:xlink="http://www.w3.org/1999/xlink" width="24pt" height="24pt" viewBox="0 0 24 24" version="1.1">
<g id="surface1">
<path style=" stroke:none;fill-rule:nonzero;fill:rgb(30.196078%,30.196078%,30.196078%);fill-opacity:1;" d="M 15.027344 0 L 12.453125 5.960938 L 10.71875 1.109375 L 9.226562 6.113281 L 5.859375 2.042969 L 9.550781 8.644531 L 3.335938 4.453125 L 8.121094 10.109375 L 2.066406 7.832031 L 5.671875 10.609375 L 0.078125 12.378906 L 6.535156 13.3125 L 0 16.246094 L 7.230469 15.15625 L 4.511719 20.578125 L 9.613281 16.308594 L 5.914062 22.378906 L 10.984375 18.15625 L 9.699219 22.875 L 12.277344 17.105469 L 14.007812 24 L 15.503906 16.953125 L 18.867188 20.832031 L 17.613281 16.65625 L 22.734375 19.640625 L 16.609375 15.1875 L 24 16.5625 L 19.054688 12.703125 L 23.550781 11.714844 L 18.195312 11.984375 L 23.632812 7.847656 L 17.5 10.140625 L 21.554688 5.558594 L 15.113281 6.761719 L 18.8125 2.921875 L 13.746094 7.445312 Z M 15.027344 0 "/>
</g>
</svg>
