<?xml version="1.0" encoding="UTF-8"?>
<svg xmlns="http://www.w3.org/2000/svg" xmlns:xlink="http://www.w3.org/1999/xlink" width="23.998047pt" height="24pt" viewBox="0 0 23.998047 24" version="1.1">
<g id="surface1">
<path style=" stroke:none;fill-rule:nonzero;fill:rgb(11.372549%,60%,95.294118%);fill-opacity:1;" d="M 19 14 C 16.238281 14 14 16.238281 14 19 C 14 19.890625 14.242188 20.765625 14.695312 21.535156 L 15.304688 20.925781 C 14.996094 20.332031 14.832031 19.671875 14.832031 19 C 14.832031 16.699219 16.699219 14.835938 19 14.832031 C 19.667969 14.835938 20.328125 14.996094 20.921875 15.308594 L 21.53125 14.699219 C 20.765625 14.242188 19.890625 14.003906 19 14 Z M 23.300781 16.464844 L 22.691406 17.074219 C 23 17.667969 23.164062 18.328125 23.164062 19 C 23.164062 21.300781 21.296875 23.164062 19 23.167969 C 18.328125 23.164062 17.667969 23.003906 17.074219 22.691406 L 16.464844 23.300781 C 17.230469 23.757812 18.105469 23.996094 19 24 C 21.757812 24 24 21.761719 24 19 C 23.996094 18.109375 23.753906 17.234375 23.300781 16.464844 Z M 23.300781 16.464844 "/>
<path style=" stroke:none;fill-rule:nonzero;fill:rgb(30.196078%,30.196078%,30.196078%);fill-opacity:1;" d="M 3.996094 0 L 3.996094 2 C 3.996094 2 4 2 4 2 L 10.996094 2 L 10.996094 16 L 12.996094 16 L 12.996094 2 L 19.996094 2 L 19.996094 0 L 4 0 C 4 0 3.996094 0 3.996094 0 Z M 13 16.957031 L 0 24 L 14 24 L 14 23 L 3.945312 23 L 13 18.09375 Z M 13 16.957031 "/>
</g>
</svg>
