<?xml version="1.0" encoding="UTF-8"?>
<svg xmlns="http://www.w3.org/2000/svg" xmlns:xlink="http://www.w3.org/1999/xlink" width="23.998047pt" height="24pt" viewBox="0 0 23.998047 24" version="1.1">
<g id="surface1">
<path style=" stroke:none;fill-rule:nonzero;fill:rgb(30.196078%,30.196078%,30.196078%);fill-opacity:1;" d="M 3.996094 0 L 3.996094 2 C 3.996094 2 4 2 4 2 L 10.996094 2 L 10.996094 16 C 10.996094 16 11 16 11 16 L 12.996094 16 L 12.996094 2 L 19.996094 2 L 19.996094 0 L 4 0 C 4 0 3.996094 0 3.996094 0 Z M 13 16.957031 L 0 24 L 16 24 L 16 23 L 3.945312 23 L 13 18.09375 Z M 13 16.957031 "/>
<path style=" stroke:none;fill-rule:nonzero;fill:rgb(11.372549%,60%,95.294118%);fill-opacity:1;" d="M 14 13 L 14 22 L 17 22 L 17 24 L 24 24 L 24 15 L 21 15 L 21 13 Z M 15 14 L 20 14 L 20 21 L 15 21 Z M 21 16 L 23 16 L 23 23 L 18 23 L 18 22 L 21 22 Z M 21 16 "/>
</g>
</svg>
