<?xml version="1.0" encoding="UTF-8"?>
<svg xmlns="http://www.w3.org/2000/svg" xmlns:xlink="http://www.w3.org/1999/xlink" width="24pt" height="26pt" viewBox="0 0 24 26" version="1.1">
<g id="surface1">
<path style=" stroke:none;fill-rule:nonzero;fill:rgb(11.372549%,60%,95.294118%);fill-opacity:1;" d="M 16 16 L 16 26 L 21 26 C 22.65625 26 24 24.65625 24 23 C 24 21.828125 23.316406 20.765625 22.253906 20.277344 C 22.730469 19.808594 23 19.167969 23 18.5 C 23 17.160156 21.941406 16.058594 20.597656 16.003906 L 20.597656 16 Z M 17 17 L 20.5 17 C 21.328125 17 22 17.671875 22 18.5 C 22 19.328125 21.328125 20 20.5 20 L 17 20 Z M 17 21 L 21 21 C 22.105469 21 23 21.894531 23 23 C 23 24.105469 22.105469 25 21 25 L 17 25 Z M 17 21 "/>
<path style=" stroke:none;fill-rule:nonzero;fill:rgb(30.196078%,30.196078%,30.196078%);fill-opacity:1;" d="M 9 0 L 0.0703125 23.824219 L 0 24 L 2 24 L 5.390625 15 L 16.621094 15 L 11 0 Z M 10 2.402344 L 13.847656 13 L 6.152344 13 Z M 10 2.402344 "/>
</g>
</svg>
