<?xml version="1.0" encoding="UTF-8"?>
<svg xmlns="http://www.w3.org/2000/svg" xmlns:xlink="http://www.w3.org/1999/xlink" width="24pt" height="26pt" viewBox="0 0 24 26" version="1.1">
<g id="surface1">
<path style=" stroke:none;fill-rule:nonzero;fill:rgb(30.196078%,30.196078%,30.196078%);fill-opacity:1;" d="M 9 2 L 0.0703125 25.824219 L 0 26 L 2 26 L 5.390625 17 L 14.609375 17 L 18 26 L 20 26 L 19.929688 25.824219 L 11 2 Z M 10 4.402344 L 13.847656 15 L 6.152344 15 Z M 10 4.402344 "/>
<path style=" stroke:none;fill-rule:nonzero;fill:rgb(11.372549%,60%,95.294118%);fill-opacity:1;" d="M 16 0 L 16 10 L 21 10 C 22.65625 10 24 8.65625 24 7 C 24 5.828125 23.316406 4.765625 22.253906 4.277344 C 22.730469 3.808594 23 3.167969 23 2.5 C 23 1.160156 21.941406 0.0585938 20.597656 0.00390625 L 20.597656 0 Z M 17 1 L 20.5 1 C 21.328125 1 22 1.671875 22 2.5 C 22 3.328125 21.328125 4 20.5 4 L 17 4 Z M 17 5 L 21 5 C 22.105469 5 23 5.894531 23 7 C 23 8.105469 22.105469 9 21 9 L 17 9 Z M 17 5 "/>
</g>
</svg>
