<?xml version="1.0" encoding="UTF-8"?>
<svg xmlns="http://www.w3.org/2000/svg" xmlns:xlink="http://www.w3.org/1999/xlink" width="24pt" height="24.037121pt" viewBox="0 0 24 24.037121" version="1.1">
<g id="surface1">
<path style=" stroke:none;fill-rule:nonzero;fill:rgb(70.196078%,70.196078%,70.196078%);fill-opacity:1;" d="M 7 0.0390625 L 0 7.039062 L 0 17.039062 L 7 24.039062 L 17 24.039062 L 24 17.039062 L 24 7.039062 L 17 0.0390625 Z M 7 0.0390625 "/>
<path style=" stroke:none;fill-rule:nonzero;fill:rgb(30.196078%,30.196078%,30.196078%);fill-opacity:1;" d="M 7.5 0.0390625 C 7.5 -0.0351562 7.496094 0.0117188 7.511719 0.0703125 C 7.527344 0.125 7.550781 0.207031 7.585938 0.316406 C 7.65625 0.527344 7.761719 0.820312 7.894531 1.179688 C 8.167969 1.894531 8.558594 2.875 9.027344 4.019531 C 9.027344 4.023438 9.03125 4.03125 9.03125 4.039062 L 15.128906 4.039062 C 15.132812 4.03125 15.132812 4.023438 15.136719 4.019531 C 15.605469 2.875 15.992188 1.894531 16.265625 1.179688 C 16.398438 0.820312 16.503906 0.527344 16.574219 0.316406 C 16.609375 0.207031 16.632812 0.125 16.648438 0.0703125 C 16.664062 0.0117188 16.660156 -0.0351562 16.660156 0.0390625 Z M 6.582031 0.453125 L 0.429688 6.609375 C 0.453125 6.617188 3.175781 7.789062 4.390625 8.3125 L 8.160156 4.542969 C 8.144531 4.5 8.117188 4.4375 8.097656 4.398438 C 7.628906 3.246094 7.238281 2.261719 6.960938 1.53125 C 6.824219 1.164062 6.714844 0.863281 6.636719 0.628906 C 6.613281 0.5625 6.601562 0.511719 6.582031 0.453125 Z M 17.539062 0.578125 C 17.53125 0.59375 17.53125 0.609375 17.523438 0.628906 C 17.445312 0.863281 17.335938 1.164062 17.199219 1.53125 C 16.921875 2.261719 16.53125 3.246094 16.0625 4.398438 C 16.03125 4.46875 15.984375 4.582031 15.953125 4.65625 L 19.617188 8.320312 L 23.617188 6.65625 Z M 0 7.511719 L 0 16.496094 L 4 14.828125 L 4 9.230469 C 2.777344 8.703125 0.0117188 7.515625 0 7.511719 Z M 24 7.578125 L 20 9.246094 L 20 14.9375 C 20.050781 14.957031 20.128906 14.992188 20.175781 15.011719 C 21.324219 15.480469 22.300781 15.867188 23.019531 16.140625 C 23.378906 16.273438 23.671875 16.378906 23.882812 16.449219 C 23.933594 16.464844 23.960938 16.472656 24 16.484375 Z M 4.382812 15.753906 L 0.382812 17.417969 L 6.734375 23.769531 C 6.742188 23.746094 7.929688 20.976562 8.4375 19.808594 Z M 19.542969 15.828125 L 15.675781 19.695312 C 16.191406 20.886719 17.351562 23.597656 17.378906 23.660156 L 23.625 17.414062 C 23.605469 17.40625 23.589844 17.40625 23.574219 17.398438 C 23.335938 17.320312 23.03125 17.210938 22.667969 17.074219 C 21.933594 16.796875 20.953125 16.40625 19.800781 15.9375 C 19.726562 15.90625 19.617188 15.859375 19.542969 15.828125 Z M 9.425781 20.039062 C 8.882812 21.296875 7.734375 23.96875 7.703125 24.039062 L 16.453125 24.039062 C 16.425781 23.96875 15.28125 21.300781 14.734375 20.039062 Z M 6.875 23.914062 L 7 24.039062 L 7.160156 24.039062 Z M 6.875 23.914062 "/>
</g>
</svg>
