<?xml version="1.0" encoding="UTF-8"?>
<svg xmlns="http://www.w3.org/2000/svg" xmlns:xlink="http://www.w3.org/1999/xlink" width="24pt" height="24pt" viewBox="0 0 24 24" version="1.1">
<g id="surface1">
<path style=" stroke:none;fill-rule:nonzero;fill:rgb(30.196078%,30.196078%,30.196078%);fill-opacity:1;" d="M 6.75 0 C 3.023438 0 0 3.023438 0 6.75 C 0 7.546875 0.0859375 8.355469 0.421875 9 C 3.84375 15.386719 7.980469 15.96875 11.953125 23.90625 L 11.953125 23.953125 C 11.964844 23.972656 11.988281 23.980469 12 24 C 12.015625 23.96875 12.03125 23.9375 12.046875 23.90625 C 16.019531 15.96875 20.15625 15.386719 23.578125 9 C 23.914062 8.355469 24 7.546875 24 6.75 C 24 3.023438 20.976562 0 17.25 0 C 15.140625 0 13.285156 0.96875 12.046875 2.484375 C 12.035156 2.5 12.011719 2.515625 12 2.53125 C 11.988281 2.515625 11.964844 2.5 11.953125 2.484375 C 10.714844 0.96875 8.859375 0 6.75 0 Z M 6.75 0 "/>
</g>
</svg>
