<?xml version="1.0" encoding="UTF-8"?>
<svg xmlns="http://www.w3.org/2000/svg" xmlns:xlink="http://www.w3.org/1999/xlink" width="4.044922pt" height="24pt" viewBox="0 0 4.044922 24" version="1.1">
<g id="surface1">
<path style=" stroke:none;fill-rule:nonzero;fill:rgb(30.196078%,30.196078%,30.196078%);fill-opacity:1;" d="M 4.046875 0 C 2.269531 0 1.523438 0.707031 1.523438 2.507812 L 1.523438 4.953125 C 1.523438 4.96875 1.523438 4.984375 1.519531 5 L 1.523438 5 L 1.523438 8.953125 C 1.523438 10.066406 1.488281 11.355469 0.507812 11.355469 L 0 11.355469 L 0 12.644531 L 0.507812 12.644531 C 1.488281 12.644531 1.523438 13.933594 1.523438 15.046875 L 1.523438 19 L 1.519531 19 C 1.523438 19.015625 1.523438 19.03125 1.523438 19.046875 L 1.523438 21.488281 C 1.523438 23.292969 2.269531 24 4.046875 24 L 4.046875 22.816406 C 2.859375 22.816406 2.84375 22.339844 2.84375 20.605469 L 2.84375 19 L 2.851562 19 C 2.851562 18.863281 2.84375 16.765625 2.84375 16.605469 L 2.84375 14.589844 C 2.84375 13.757812 2.640625 12.523438 1.640625 12.011719 C 2.640625 11.496094 2.84375 10.257812 2.84375 9.425781 L 2.84375 7.394531 C 2.84375 7.234375 2.851562 5.136719 2.851562 5 L 2.84375 5 L 2.84375 3.394531 C 2.84375 1.660156 2.859375 1.183594 4.046875 1.183594 Z M 4.046875 0 "/>
</g>
</svg>
