<?xml version="1.0" encoding="UTF-8"?>
<svg xmlns="http://www.w3.org/2000/svg" xmlns:xlink="http://www.w3.org/1999/xlink" width="24pt" height="24pt" viewBox="0 0 24 24" version="1.1">
<g id="surface1">
<path style=" stroke:none;fill-rule:nonzero;fill:rgb(30.196078%,30.196078%,30.196078%);fill-opacity:1;" d="M 12 0 C 5.371094 0 0 5.371094 0 12 C 0 18.628906 5.371094 24 12 24 C 18.628906 24 24 18.628906 24 12 C 24 5.371094 18.628906 0 12 0 Z M 7.5 6 C 8.332031 6 9 6.667969 9 7.5 C 9 8.332031 8.332031 9 7.5 9 C 6.667969 9 6 8.332031 6 7.5 C 6 6.667969 6.667969 6 7.5 6 Z M 16.5 6 C 17.332031 6 18 6.667969 18 7.5 C 18 8.332031 17.332031 9 16.5 9 C 15.667969 9 15 8.332031 15 7.5 C 15 6.667969 15.667969 6 16.5 6 Z M 6.234375 15 L 17.765625 15 C 17.101562 17.589844 14.804688 19.5 12 19.5 C 9.195312 19.5 6.898438 17.589844 6.234375 15 Z M 6.234375 15 "/>
</g>
</svg>
