<?xml version="1.0" encoding="UTF-8"?>
<svg xmlns="http://www.w3.org/2000/svg" xmlns:xlink="http://www.w3.org/1999/xlink" width="24pt" height="24pt" viewBox="0 0 24 24" version="1.1">
<g id="surface1">
<path style=" stroke:none;fill-rule:nonzero;fill:rgb(30.196078%,30.196078%,30.196078%);fill-opacity:1;" d="M 12 0 C 5.371094 0 0 5.371094 0 12 C 0 18.628906 5.371094 24 12 24 C 18.628906 24 24 18.628906 24 12 C 24 5.371094 18.628906 0 12 0 Z M 12 2 C 17.523438 2 22 6.476562 22 12 C 21.996094 14.304688 21.199219 16.539062 19.738281 18.324219 L 5.675781 4.261719 C 7.460938 2.800781 9.695312 2.003906 12 2 Z M 4.261719 5.675781 L 18.324219 19.738281 C 16.539062 21.199219 14.304688 21.996094 12 22 C 6.476562 22 2 17.523438 2 12 C 2.003906 9.695312 2.800781 7.460938 4.261719 5.675781 Z M 4.261719 5.675781 "/>
</g>
</svg>
