<?xml version="1.0" encoding="UTF-8"?>
<svg xmlns="http://www.w3.org/2000/svg" xmlns:xlink="http://www.w3.org/1999/xlink" width="10pt" height="24pt" viewBox="0 0 10 24" version="1.1">
<g id="surface1">
<path style=" stroke:none;fill-rule:nonzero;fill:rgb(30.196078%,30.196078%,30.196078%);fill-opacity:1;" d="M 4.046875 0 C 2.269531 0 1.523438 0.707031 1.523438 2.507812 L 1.523438 4.953125 C 1.523438 4.96875 1.523438 4.984375 1.519531 5 L 1.523438 5 L 1.523438 8.953125 C 1.523438 10.066406 1.488281 11.355469 0.507812 11.355469 L 0 11.355469 L 0 12.644531 L 0.507812 12.644531 C 1.488281 12.644531 1.523438 13.933594 1.523438 15.046875 L 1.523438 19 L 1.519531 19 C 1.523438 19.015625 1.523438 19.03125 1.523438 19.046875 L 1.523438 21.488281 C 1.523438 23.292969 2.269531 24 4.046875 24 L 4.046875 22.816406 C 2.859375 22.816406 2.84375 22.339844 2.84375 20.605469 L 2.84375 19 L 2.851562 19 C 2.851562 18.863281 2.84375 16.765625 2.84375 16.605469 L 2.84375 14.589844 C 2.84375 13.757812 2.640625 12.523438 1.640625 12.011719 C 2.640625 11.496094 2.84375 10.257812 2.84375 9.425781 L 2.84375 7.394531 C 2.84375 7.234375 2.851562 5.136719 2.851562 5 L 2.84375 5 L 2.84375 3.394531 C 2.84375 1.660156 2.859375 1.183594 4.046875 1.183594 Z M 5.9375 0 L 5.9375 1.183594 C 7.125 1.183594 7.15625 1.660156 7.15625 3.394531 L 7.15625 5 L 7.148438 5 C 7.148438 5.136719 7.15625 7.234375 7.15625 7.394531 L 7.15625 9.425781 C 7.15625 10.257812 7.359375 11.496094 8.359375 12.011719 C 7.359375 12.523438 7.15625 13.757812 7.15625 14.589844 L 7.15625 16.605469 C 7.15625 16.765625 7.148438 18.863281 7.148438 19 L 7.15625 19 L 7.15625 20.605469 C 7.15625 22.339844 7.125 22.816406 5.9375 22.816406 L 5.9375 24 C 7.714844 24 8.476562 23.292969 8.476562 21.488281 L 8.476562 19.046875 C 8.476562 19.03125 8.476562 19.015625 8.480469 19 L 8.476562 19 L 8.476562 15.046875 C 8.476562 13.933594 8.546875 12.644531 9.511719 12.644531 L 10 12.644531 L 10 11.355469 L 9.511719 11.355469 C 8.546875 11.355469 8.476562 10.066406 8.476562 8.953125 L 8.476562 5 L 8.480469 5 C 8.476562 4.984375 8.476562 4.96875 8.476562 4.953125 L 8.476562 2.507812 C 8.476562 0.707031 7.714844 0 5.9375 0 Z M 5.9375 0 "/>
</g>
</svg>
