<?xml version="1.0" encoding="UTF-8"?>
<svg xmlns="http://www.w3.org/2000/svg" xmlns:xlink="http://www.w3.org/1999/xlink" width="24pt" height="24pt" viewBox="0 0 24 24" version="1.1">
<g id="surface1">
<path style=" stroke:none;fill-rule:nonzero;fill:rgb(30.196078%,30.196078%,30.196078%);fill-opacity:1;" d="M 12 0 C 10.34375 0 8.484375 3.515625 8.484375 3.515625 C 8.484375 3.515625 4.6875 2.34375 3.515625 3.515625 C 2.34375 4.6875 3.515625 8.484375 3.515625 8.484375 C 3.515625 8.484375 0 10.34375 0 12 C 0 13.65625 3.515625 15.515625 3.515625 15.515625 C 3.515625 15.515625 2.34375 19.3125 3.515625 20.484375 C 4.6875 21.65625 8.484375 20.484375 8.484375 20.484375 C 8.484375 20.484375 10.34375 24 12 24 C 13.65625 24 15.515625 20.484375 15.515625 20.484375 C 15.515625 20.484375 19.3125 21.65625 20.484375 20.484375 C 21.65625 19.3125 20.484375 15.515625 20.484375 15.515625 C 20.484375 15.515625 24 13.65625 24 12 C 24 10.34375 20.484375 8.484375 20.484375 8.484375 C 20.484375 8.484375 21.65625 4.6875 20.484375 3.515625 C 19.3125 2.34375 15.515625 3.515625 15.515625 3.515625 C 15.515625 3.515625 13.65625 0 12 0 Z M 12 6 C 15.3125 6 18 8.6875 18 12 C 18 15.3125 15.3125 18 12 18 C 8.6875 18 6 15.3125 6 12 C 6 8.6875 8.6875 6 12 6 Z M 12 6 "/>
</g>
</svg>
