<?xml version="1.0" encoding="UTF-8"?>
<svg xmlns="http://www.w3.org/2000/svg" xmlns:xlink="http://www.w3.org/1999/xlink" width="4.060547pt" height="24pt" viewBox="0 0 4.060547 24" version="1.1">
<g id="surface1">
<path style=" stroke:none;fill-rule:nonzero;fill:rgb(30.196078%,30.196078%,30.196078%);fill-opacity:1;" d="M 0 0 L 0 1.183594 C 1.183594 1.183594 1.21875 1.660156 1.21875 3.394531 L 1.21875 5 L 1.210938 5 C 1.210938 5.136719 1.21875 7.234375 1.21875 7.394531 L 1.21875 9.425781 C 1.21875 10.257812 1.421875 11.496094 2.421875 12.011719 C 1.421875 12.523438 1.21875 13.757812 1.21875 14.589844 L 1.21875 16.605469 C 1.21875 16.765625 1.210938 18.863281 1.210938 19 L 1.21875 19 L 1.21875 20.605469 C 1.21875 22.339844 1.183594 22.816406 0 22.816406 L 0 24 C 1.777344 24 2.535156 23.292969 2.535156 21.488281 L 2.535156 19.046875 C 2.535156 19.03125 2.539062 19.015625 2.539062 19 L 2.535156 19 L 2.535156 15.046875 C 2.535156 13.933594 2.605469 12.644531 3.570312 12.644531 L 4.0625 12.644531 L 4.0625 11.355469 L 3.570312 11.355469 C 2.605469 11.355469 2.539062 10.066406 2.535156 8.953125 L 2.535156 5 L 2.539062 5 C 2.539062 4.984375 2.535156 4.96875 2.535156 4.953125 L 2.535156 2.507812 C 2.535156 0.707031 1.777344 0 0 0 Z M 0 0 "/>
</g>
</svg>
