<?xml version="1.0" encoding="UTF-8"?>
<svg xmlns="http://www.w3.org/2000/svg" xmlns:xlink="http://www.w3.org/1999/xlink" width="24pt" height="24.000612pt" viewBox="0 0 24 24.000612" version="1.1">
<g id="surface1">
<path style=" stroke:none;fill-rule:nonzero;fill:rgb(30.196078%,30.196078%,30.196078%);fill-opacity:1;" d="M 6.191406 0.0078125 C 6.238281 0.425781 6.386719 1.925781 6.480469 3.796875 C 6.535156 4.871094 6.566406 6.035156 6.527344 6.964844 C 6.507812 7.429688 6.445312 7.816406 6.386719 8.164062 C 6.324219 8.515625 6.277344 8.785156 6.144531 8.980469 C 5.921875 9.3125 5.734375 9.527344 5.519531 9.605469 C 5.304688 9.679688 5.105469 9.589844 4.898438 9.507812 C 4.476562 9.335938 3.941406 9.0625 2.929688 9.078125 C 1.914062 9.089844 1.195312 9.417969 0.71875 9.941406 C 0.246094 10.460938 0 11.199219 0 12.003906 C 0 12.808594 0.246094 13.5 0.71875 14.019531 C 1.195312 14.542969 1.914062 14.867188 2.929688 14.882812 C 3.941406 14.898438 4.476562 14.621094 4.898438 14.453125 C 5.105469 14.371094 5.304688 14.28125 5.519531 14.355469 C 5.734375 14.433594 5.921875 14.648438 6.144531 14.980469 C 6.277344 15.175781 6.324219 15.445312 6.386719 15.796875 C 6.445312 16.144531 6.507812 16.574219 6.527344 17.042969 C 6.566406 17.972656 6.535156 19.085938 6.480469 20.160156 C 6.386719 22.0625 6.234375 23.617188 6.191406 24 C 6.453125 24 6.722656 23.960938 6.957031 23.953125 C 7.417969 23.933594 7.832031 23.867188 8.160156 23.808594 C 8.488281 23.753906 8.707031 23.699219 8.832031 23.617188 C 9.140625 23.410156 9.273438 23.25 9.3125 23.136719 C 9.351562 23.023438 9.339844 22.894531 9.265625 22.707031 C 9.109375 22.324219 8.765625 21.71875 8.78125 20.640625 C 8.800781 19.5625 9.15625 18.78125 9.746094 18.242188 C 10.332031 17.707031 11.132812 17.425781 12 17.425781 C 12.867188 17.425781 13.667969 17.707031 14.253906 18.242188 C 14.84375 18.78125 15.199219 19.5625 15.21875 20.640625 C 15.234375 21.71875 14.890625 22.324219 14.734375 22.707031 C 14.660156 22.894531 14.648438 23.023438 14.6875 23.136719 C 14.726562 23.25 14.859375 23.410156 15.167969 23.617188 C 15.292969 23.699219 15.511719 23.753906 15.839844 23.808594 C 16.167969 23.867188 16.582031 23.933594 17.042969 23.953125 C 17.277344 23.964844 17.546875 24 17.808594 24 C 17.765625 23.617188 17.613281 22.0625 17.519531 20.160156 C 17.464844 19.085938 17.433594 17.972656 17.472656 17.042969 C 17.492188 16.574219 17.554688 16.144531 17.613281 15.796875 C 17.675781 15.445312 17.722656 15.175781 17.855469 14.980469 C 18.078125 14.648438 18.265625 14.429688 18.480469 14.355469 C 18.695312 14.28125 18.894531 14.371094 19.105469 14.453125 C 19.523438 14.621094 20.058594 14.898438 21.074219 14.882812 C 22.085938 14.867188 22.804688 14.542969 23.28125 14.019531 C 23.753906 13.5 24 12.808594 24 12.003906 C 24 11.199219 23.753906 10.460938 23.28125 9.941406 C 22.804688 9.417969 22.085938 9.09375 21.074219 9.078125 C 20.058594 9.0625 19.523438 9.335938 19.105469 9.507812 C 18.894531 9.589844 18.695312 9.679688 18.480469 9.605469 C 18.265625 9.527344 18.078125 9.3125 17.855469 8.980469 C 17.722656 8.785156 17.675781 8.515625 17.613281 8.164062 C 17.554688 7.816406 17.492188 7.429688 17.472656 6.964844 C 17.433594 6.035156 17.464844 4.871094 17.519531 3.796875 C 17.613281 1.925781 17.761719 0.425781 17.808594 0.0078125 C 17.546875 0.0078125 17.277344 -0.0078125 17.042969 0.0078125 C 16.582031 0.0273438 16.167969 0.09375 15.839844 0.152344 C 15.511719 0.207031 15.292969 0.261719 15.167969 0.34375 C 14.859375 0.550781 14.726562 0.710938 14.6875 0.824219 C 14.648438 0.933594 14.660156 1.0625 14.734375 1.253906 C 14.890625 1.636719 15.234375 2.242188 15.21875 3.320312 C 15.199219 4.398438 14.84375 5.179688 14.253906 5.71875 C 13.667969 6.253906 12.867188 6.535156 12 6.535156 C 11.132812 6.535156 10.332031 6.253906 9.746094 5.71875 C 9.15625 5.179688 8.800781 4.398438 8.78125 3.320312 C 8.765625 2.242188 9.109375 1.636719 9.265625 1.253906 C 9.339844 1.0625 9.351562 0.933594 9.3125 0.824219 C 9.273438 0.710938 9.140625 0.550781 8.832031 0.34375 C 8.707031 0.257812 8.488281 0.207031 8.160156 0.152344 C 7.832031 0.09375 7.417969 0.0273438 6.957031 0.0078125 C 6.722656 -0.0078125 6.453125 0.0078125 6.191406 0.0078125 Z M 6.191406 0.0078125 "/>
</g>
</svg>
