<?xml version="1.0" encoding="UTF-8"?>
<svg xmlns="http://www.w3.org/2000/svg" xmlns:xlink="http://www.w3.org/1999/xlink" width="10pt" height="24pt" viewBox="0 0 10 24" version="1.1">
<g id="surface1">
<path style=" stroke:none;fill-rule:nonzero;fill:rgb(30.196078%,30.196078%,30.196078%);fill-opacity:1;" d="M 2 0 C 0.894531 0 0 0.894531 0 2 L 0 22 C 0 23.105469 0.894531 24 2 24 L 4 24 L 4 23 L 2 23 C 1.449219 23 1 22.550781 1 22 L 1 2 C 1 1.449219 1.449219 1 2 1 L 4 1 L 4 0 Z M 6 0 L 6 1 L 8 1 C 8.550781 1 9 1.449219 9 2 L 9 22 C 9 22.550781 8.550781 23 8 23 L 6 23 L 6 24 L 8 24 C 9.105469 24 10 23.105469 10 22 L 10 2 C 10 0.894531 9.105469 0 8 0 Z M 6 0 "/>
</g>
</svg>
