<?xml version="1.0" encoding="UTF-8"?>
<svg xmlns="http://www.w3.org/2000/svg" xmlns:xlink="http://www.w3.org/1999/xlink" width="24pt" height="24pt" viewBox="0 0 24 24" version="1.1">
<g id="surface1">
<path style=" stroke:none;fill-rule:nonzero;fill:rgb(30.196078%,30.196078%,30.196078%);fill-opacity:1;" d="M 12 0 L 9.28125 5.4375 L 3.515625 3.515625 L 5.4375 9.28125 L 0 12 L 5.4375 14.71875 L 3.515625 20.484375 L 9.28125 18.5625 L 12 24 L 14.71875 18.5625 L 20.484375 20.484375 L 18.5625 14.71875 L 24 12 L 18.5625 9.28125 L 20.484375 3.515625 L 14.71875 5.4375 Z M 12 5 C 15.867188 5 19 8.132812 19 12 C 19 15.867188 15.867188 19 12 19 C 8.132812 19 5 15.867188 5 12 C 5 8.132812 8.132812 5 12 5 Z M 12 6 C 8.6875 6 6 8.6875 6 12 C 6 15.3125 8.6875 18 12 18 C 15.3125 18 18 15.3125 18 12 C 18 8.6875 15.3125 6 12 6 Z M 12 6 "/>
</g>
</svg>
