<?xml version="1.0" encoding="UTF-8"?>
<svg xmlns="http://www.w3.org/2000/svg" xmlns:xlink="http://www.w3.org/1999/xlink" width="24pt" height="21pt" viewBox="0 0 24 21" version="1.1">
<g id="surface1">
<path style=" stroke:none;fill-rule:nonzero;fill:rgb(30.196078%,30.196078%,30.196078%);fill-opacity:1;" d="M 12 0 C 9.839844 0 8.03125 1.535156 7.59375 3.5625 C 6.890625 3.214844 6.089844 3 5.25 3 C 2.351562 3 0 5.351562 0 8.25 C 0 10.0625 0.898438 11.664062 2.296875 12.609375 C 0.933594 13.382812 0 14.820312 0 16.5 C 0 18.984375 2.015625 21 4.5 21 C 5.660156 21 6.703125 20.546875 7.5 19.828125 C 8.296875 20.546875 9.339844 21 10.5 21 C 12.660156 21 14.46875 19.464844 14.90625 17.4375 C 15.609375 17.785156 16.410156 18 17.25 18 C 20.148438 18 22.5 15.648438 22.5 12.75 C 22.5 11.714844 22.171875 10.75 21.65625 9.9375 C 23.050781 9.171875 24 7.699219 24 6 C 24 3.515625 21.984375 1.5 19.5 1.5 C 18.1875 1.5 16.996094 2.054688 16.171875 2.953125 C 15.535156 1.246094 13.929688 0 12 0 Z M 12 0 "/>
</g>
</svg>
