<?xml version="1.0" encoding="UTF-8"?>
<svg xmlns="http://www.w3.org/2000/svg" xmlns:xlink="http://www.w3.org/1999/xlink" width="24pt" height="24pt" viewBox="0 0 24 24" version="1.1">
<g id="surface1">
<path style=" stroke:none;fill-rule:nonzero;fill:rgb(30.196078%,30.196078%,30.196078%);fill-opacity:1;" d="M 12 0 C 5.371094 0 0 5.371094 0 12 C 0 18.78125 6.800781 22.542969 11 23.558594 L 11 22.578125 C 6.039062 21.039062 1.023438 17.648438 1.023438 12.023438 C 1.023438 6.222656 5.386719 1 12 1 C 18.128906 1.003906 23 6.222656 23 11 C 23 15.054688 20.648438 16.316406 18 17 L 18 6 L 17 6 L 17 8.953125 C 16.269531 7.25 13.722656 6.003906 12 6 C 8.6875 6 6 8.6875 6 12 C 6 15.3125 8.6875 18 12 18 C 13.722656 17.996094 15.984375 16.964844 17 15.597656 L 17 18 L 18 18 C 21.492188 17.289062 24 15.042969 24 11 C 24 5.003906 18.042969 0.00390625 12 0 Z M 12 7 C 14.484375 7 17 9.058594 17 12 C 17 15.179688 14.484375 17 12 17 C 9.515625 17 7 15.179688 7 12 C 7 9.300781 8.914062 7 12 7 Z M 12 7 "/>
<path style=" stroke:none;fill-rule:nonzero;fill:rgb(95.686275%,46.666667%,31.372549%);fill-opacity:1;" d="M 15 22 C 14.449219 22 14 22.449219 14 23 C 14 23.550781 14.449219 24 15 24 C 15.550781 24 16 23.550781 16 23 C 16 22.449219 15.550781 22 15 22 Z M 19 22 C 18.449219 22 18 22.449219 18 23 C 18 23.550781 18.449219 24 19 24 C 19.550781 24 20 23.550781 20 23 C 20 22.449219 19.550781 22 19 22 Z M 23 22 C 22.449219 22 22 22.449219 22 23 C 22 23.550781 22.449219 24 23 24 C 23.550781 24 24 23.550781 24 23 C 24 22.449219 23.550781 22 23 22 Z M 23 22 "/>
</g>
</svg>
