<?xml version="1.0" encoding="UTF-8"?>
<svg xmlns="http://www.w3.org/2000/svg" xmlns:xlink="http://www.w3.org/1999/xlink" width="23.998047pt" height="24pt" viewBox="0 0 23.998047 24" version="1.1">
<g id="surface1">
<path style=" stroke:none;fill-rule:nonzero;fill:rgb(30.196078%,30.196078%,30.196078%);fill-opacity:1;" d="M 2 0 L 2 10.945312 L 3 11.484375 L 3 9 L 8 9 L 8 12 L 3.945312 12 L 5.792969 13 L 8 13 L 8 14.195312 L 9 14.734375 L 9 13 L 15 13 L 15 16 L 11.332031 16 L 13.175781 17 L 15 17 L 15 17.984375 L 16 18.527344 L 16 17 L 21 17 L 21 20 L 18.71875 20 L 20.5625 21 L 22 21 L 22 0 Z M 3 1 L 8 1 L 8 4 L 3 4 Z M 9 1 L 15 1 L 15 4 L 9 4 Z M 16 1 L 21 1 L 21 4 L 16 4 Z M 3 5 L 8 5 L 8 8 L 3 8 Z M 9 5 L 15 5 L 15 8 L 9 8 Z M 16 5 L 21 5 L 21 8 L 16 8 Z M 9 9 L 15 9 L 15 12 L 9 12 Z M 16 9 L 21 9 L 21 12 L 16 12 Z M 0 11 L 0 24 L 24 24 Z M 1 12.679688 L 20.054688 23 L 1 23 Z M 16 13 L 21 13 L 21 16 L 16 16 Z M 16 13 "/>
</g>
</svg>
