<?xml version="1.0" encoding="UTF-8"?>
<svg xmlns="http://www.w3.org/2000/svg" xmlns:xlink="http://www.w3.org/1999/xlink" width="24pt" height="24pt" viewBox="0 0 24 24" version="1.1">
<g id="surface1">
<path style=" stroke:none;fill-rule:nonzero;fill:rgb(30.196078%,30.196078%,30.196078%);fill-opacity:1;" d="M 11 0 L 11 2.050781 C 9.046875 2.25 7.195312 3.019531 5.675781 4.261719 L 4.222656 2.804688 L 2.804688 4.222656 L 4.261719 5.675781 C 3.023438 7.195312 2.257812 9.046875 2.0625 11 L 0 11 L 0 13 L 2.050781 13 C 2.25 14.953125 3.019531 16.804688 4.261719 18.324219 L 2.804688 19.777344 L 4.222656 21.191406 L 5.675781 19.738281 C 7.195312 20.976562 9.046875 21.742188 11 21.9375 L 11 24 L 13 24 L 13 21.949219 C 13.335938 21.914062 13.667969 21.863281 14 21.792969 L 14 20.761719 C 13.34375 20.914062 12.671875 20.996094 12 21 C 9.566406 21 7.238281 20.015625 5.542969 18.269531 C 3.914062 16.589844 3 14.339844 3 12 C 3 9.566406 3.984375 7.238281 5.730469 5.542969 C 7.410156 3.914062 9.660156 3 12 3 C 14.433594 3 16.761719 3.984375 18.457031 5.730469 C 20.085938 7.410156 21 9.660156 21 12 C 20.996094 12.671875 20.914062 13.34375 20.757812 14 L 21.777344 14 C 21.847656 13.667969 21.902344 13.335938 21.9375 13 L 24 13 L 24 11 L 21.949219 11 C 21.75 9.046875 20.980469 7.195312 19.738281 5.675781 L 21.191406 4.222656 L 19.777344 2.804688 L 18.324219 4.261719 C 16.804688 3.023438 14.953125 2.257812 13 2.0625 L 13 0 Z M 9 7.5 L 9 16.5 L 16 12 Z M 18.5 13 L 18.5 22.085938 L 14.707031 18.292969 L 14 19 L 19 24 L 24 19 L 23.292969 18.292969 L 19.5 22.085938 L 19.5 13 Z M 18.5 13 "/>
</g>
</svg>
