<?xml version="1.0" encoding="UTF-8"?>
<svg xmlns="http://www.w3.org/2000/svg" xmlns:xlink="http://www.w3.org/1999/xlink" width="24pt" height="24pt" viewBox="0 0 24 24" version="1.1">
<g id="surface1">
<path style=" stroke:none;fill-rule:nonzero;fill:rgb(30.196078%,30.196078%,30.196078%);fill-opacity:1;" d="M 4.382812 0 L 0 11 L 1.359375 11 L 2.546875 8 L 7.472656 8 L 8.625 11 L 10 11 L 5.75 0 Z M 21 0 L 21 6 L 24 3 Z M 9 1 L 9 2 L 20 2 L 20 1 Z M 5.0625 1.328125 C 5.175781 1.703125 5.773438 3.410156 6.859375 6.441406 L 7.082031 7 L 2.941406 7 Z M 10 4 L 10 5 L 20 5 L 20 4 Z M 11 7 L 11 8 L 20 8 L 20 7 Z M 21 9 L 21 15 L 24 12 Z M 12 10 L 12 11 L 20 11 L 20 10 Z M 0 13 L 0 14 L 20 14 L 20 13 Z M 0 16 L 0 17 L 20 17 L 20 16 Z M 21 18 L 21 24 L 24 21 Z M 0 19 L 0 20 L 20 20 L 20 19 Z M 0 22 L 0 23 L 20 23 L 20 22 Z M 0 22 "/>
</g>
</svg>
