<?xml version="1.0" encoding="UTF-8"?>
<svg xmlns="http://www.w3.org/2000/svg" xmlns:xlink="http://www.w3.org/1999/xlink" width="24pt" height="24pt" viewBox="0 0 24 24" version="1.1">
<g id="surface1">
<path style=" stroke:none;fill-rule:nonzero;fill:rgb(30.196078%,30.196078%,30.196078%);fill-opacity:1;" d="M 4.382812 0 L 0 11 L 1.359375 11 L 2.546875 8 L 7.472656 8 L 8.625 11 L 10 11 L 5.75 0 Z M 13 0 L 13 20 L 14 20 L 14 0 Z M 16 0 L 16 20 L 17 20 L 17 0 Z M 19 0 L 19 20 L 20 20 L 20 0 Z M 22 0 L 22 20 L 23 20 L 23 0 Z M 5.0625 1.328125 C 5.175781 1.703125 5.773438 3.410156 6.859375 6.441406 L 7.082031 7 L 2.941406 7 Z M 1 12 L 1 20 L 2 20 L 2 12 Z M 4 12 L 4 20 L 5 20 L 5 12 Z M 7 12 L 7 20 L 8 20 L 8 12 Z M 10 12 L 10 20 L 11 20 L 11 12 Z M 0 21 L 3 24 L 6 21 Z M 9 21 L 12 24 L 15 21 Z M 18 21 L 21 24 L 24 21 Z M 18 21 "/>
</g>
</svg>
