<?xml version="1.0" encoding="UTF-8"?>
<svg xmlns="http://www.w3.org/2000/svg" xmlns:xlink="http://www.w3.org/1999/xlink" width="24.507812pt" height="24pt" viewBox="0 0 24.507812 24" version="1.1">
<g id="surface1">
<path style=" stroke:none;fill-rule:nonzero;fill:rgb(30.196078%,30.196078%,30.196078%);fill-opacity:1;" d="M 4.171875 0 L 0 12 L 1.007812 12 L 2.503906 8 L 7.710938 8 L 9.199219 12 L 10.347656 12 L 6.117188 0 Z M 5.113281 1.03125 L 7.335938 7 L 2.878906 7 Z M 15.007812 12 L 15.007812 24 L 21.007812 24 C 22.941406 24 24.507812 22.433594 24.507812 20.5 C 24.507812 18.980469 23.523438 17.632812 22.074219 17.171875 C 22.667969 16.605469 23.007812 15.820312 23.007812 15 C 23.007812 13.34375 21.664062 12 20.007812 12 Z M 16.007812 13 L 20.007812 13 C 21.113281 13 22.007812 13.894531 22.007812 15 C 22.007812 16.105469 21.113281 17 20.007812 17 L 16.007812 17 Z M 16.007812 18 L 21.007812 18 C 22.386719 18 23.507812 19.121094 23.507812 20.5 C 23.507812 21.878906 22.386719 23 21.007812 23 L 16.007812 23 Z M 16.007812 18 "/>
<path style=" stroke:none;fill-rule:nonzero;fill:rgb(11.372549%,60%,95.294118%);fill-opacity:1;" d="M 12.457031 1.921875 C 11.21875 1.871094 9.980469 2.050781 8.808594 2.453125 L 9.132812 3.402344 L 10.757812 8.128906 L 11.703125 7.808594 L 10.101562 3.132812 C 14.21875 2.222656 18.417969 4.289062 20.203125 8.109375 C 20.582031 8.960938 20.84375 10.15625 20.941406 11 L 21.957031 11 C 21.773438 9.898438 21.421875 8.554688 21.160156 7.777344 C 19.597656 4.339844 16.230469 2.074219 12.457031 1.921875 Z M 2.058594 13 C 2.570312 18.109375 6.871094 22 12.007812 22 C 12.339844 22 12.675781 21.984375 13.007812 21.949219 L 13.007812 21.855469 L 13.011719 21.855469 L 13.015625 20.851562 L 13.007812 20.851562 L 13.007812 16 L 12.007812 16 L 12.007812 20.898438 C 8.1875 20.878906 4.792969 18.449219 3.546875 14.839844 C 3.363281 14.304688 3.164062 13.503906 3.074219 13 Z M 2.058594 13 "/>
</g>
</svg>
