<?xml version="1.0" encoding="UTF-8"?>
<svg xmlns="http://www.w3.org/2000/svg" xmlns:xlink="http://www.w3.org/1999/xlink" width="24pt" height="24pt" viewBox="0 0 24 24" version="1.1">
<g id="surface1">
<path style=" stroke:none;fill-rule:nonzero;fill:rgb(11.372549%,60%,95.294118%);fill-opacity:1;" d="M 0 4 L 0 5 L 24 5 L 24 4 Z M 0 9 L 0 10 L 24 10 L 24 9 Z M 0 13 L 0 14 L 24 14 L 24 13 Z M 0 17 L 0 18 L 24 18 L 24 17 Z M 0 17 "/>
<path style=" stroke:none;fill-rule:nonzero;fill:rgb(30.196078%,30.196078%,30.196078%);fill-opacity:1;" d="M 2 0 L 2 21 L 0 21 L 0 22 L 2 22 L 2 24 L 3 24 L 3 22 L 24 22 L 24 21 L 3 21 L 3 0 Z M 2 0 "/>
</g>
</svg>
