<?xml version="1.0" encoding="UTF-8"?>
<svg xmlns="http://www.w3.org/2000/svg" xmlns:xlink="http://www.w3.org/1999/xlink" width="24pt" height="24pt" viewBox="0 0 24 24" version="1.1">
<g id="surface1">
<path style=" stroke:none;fill-rule:nonzero;fill:rgb(30.196078%,30.196078%,30.196078%);fill-opacity:1;" d="M 0 0 L 0 24 L 24 24 L 24 0 Z M 1 1 L 8 1 L 8 3 L 1 3 Z M 9 1 L 15 1 L 15 3 L 9 3 Z M 16 1 L 23 1 L 23 3 L 16 3 Z M 1 4 L 8 4 L 8 6 L 9 6 L 9 4 L 15 4 L 15 6 L 16 6 L 16 4 L 23 4 L 23 7 L 17 7 L 17 8 L 23 8 L 23 11 L 17 11 L 17 12 L 23 12 L 23 15 L 17 15 L 17 16 L 23 16 L 23 19 L 16 19 L 16 17 L 15 17 L 15 19 L 9 19 L 9 17 L 8 17 L 8 19 L 1 19 L 1 16 L 7 16 L 7 15 L 1 15 L 1 12 L 7 12 L 7 11 L 1 11 L 1 8 L 7 8 L 7 7 L 1 7 Z M 11 9 L 8 11.5 L 11 14 Z M 13 9 L 13 14 L 16 11.5 Z M 1 20 L 8 20 L 8 23 L 1 23 Z M 9 20 L 15 20 L 15 23 L 9 23 Z M 16 20 L 23 20 L 23 23 L 16 23 Z M 16 20 "/>
</g>
</svg>
