<?xml version="1.0" encoding="UTF-8"?>
<svg xmlns="http://www.w3.org/2000/svg" xmlns:xlink="http://www.w3.org/1999/xlink" width="26.769531pt" height="24pt" viewBox="0 0 26.769531 24" version="1.1">
<g id="surface1">
<path style=" stroke:none;fill-rule:nonzero;fill:rgb(30.196078%,30.196078%,30.196078%);fill-opacity:1;" d="M 13.515625 0 C 11.855469 0 10.515625 1.34375 10.515625 3 C 10.511719 4.464844 11.570312 5.714844 13.015625 5.960938 L 13.015625 9 L 9.515625 9 L 9.515625 10 L 13.015625 10 L 13.015625 22.96875 C 9.054688 22.796875 5.417969 20.703125 3.320312 17.316406 L 5.515625 16 L 5 15.140625 L 0 18.140625 L 0.515625 19 L 2.46875 17.828125 C 4.835938 21.65625 9.011719 23.992188 13.515625 24 C 17.839844 23.996094 21.878906 21.839844 24.292969 18.25 L 26.257812 19.425781 L 26.769531 18.570312 L 21.769531 15.570312 L 21.257812 16.425781 L 23.441406 17.738281 C 21.304688 20.890625 17.800781 22.808594 14.015625 22.96875 L 14.015625 10 L 17.515625 10 L 17.515625 9 L 14.015625 9 L 14.015625 5.953125 C 15.457031 5.710938 16.511719 4.460938 16.515625 3 C 16.515625 1.34375 15.171875 0 13.515625 0 Z M 13.515625 1 C 14.617188 1 15.515625 1.894531 15.515625 3 C 15.515625 4.105469 14.617188 5 13.515625 5 C 12.410156 5 11.515625 4.105469 11.515625 3 C 11.515625 1.894531 12.410156 1 13.515625 1 Z M 13.515625 1 "/>
</g>
</svg>
