<?xml version="1.0" encoding="UTF-8"?>
<svg xmlns="http://www.w3.org/2000/svg" xmlns:xlink="http://www.w3.org/1999/xlink" width="24pt" height="24pt" viewBox="0 0 24 24" version="1.1">
<g id="surface1">
<path style=" stroke:none;fill-rule:nonzero;fill:rgb(30.196078%,30.196078%,30.196078%);fill-opacity:1;" d="M 0 0 L 0 24 L 1 24 L 1 20 L 9 20 L 9 12 L 16 12 L 16 8 L 24 8 L 24 0 Z M 1 1 L 8 1 L 8 3 L 1 3 Z M 9 1 L 15 1 L 15 3 L 9 3 Z M 16 1 L 23 1 L 23 3 L 16 3 Z M 1 4 L 8 4 L 8 7 L 1 7 Z M 9 4 L 15 4 L 15 7 L 9 7 Z M 16 4 L 23 4 L 23 7 L 16 7 Z M 1 8 L 8 8 L 8 11 L 1 11 Z M 9 8 L 15 8 L 15 11 L 9 11 Z M 1 12 L 8 12 L 8 15 L 1 15 Z M 1 16 L 8 16 L 8 19 L 1 19 Z M 1 16 "/>
<path style=" stroke:none;fill-rule:nonzero;fill:rgb(70.196078%,70.196078%,70.196078%);fill-opacity:1;" d="M 23 8 L 23 23 L 1 23 L 1 24 L 24 24 L 24 8 Z M 23 8 "/>
</g>
</svg>
