<?xml version="1.0" encoding="UTF-8"?>
<svg xmlns="http://www.w3.org/2000/svg" xmlns:xlink="http://www.w3.org/1999/xlink" width="24pt" height="24pt" viewBox="0 0 24 24" version="1.1">
<g id="surface1">
<path style=" stroke:none;fill-rule:nonzero;fill:rgb(30.196078%,30.196078%,30.196078%);fill-opacity:1;" d="M 2 0 L 2 21 L 0 21 L 0 22 L 2 22 L 2 24 L 3 24 L 3 22 L 24 22 L 24 21 L 20 21 L 20 13 L 15 13 L 15 21 L 11 21 L 11 0 L 6 0 L 6 21 L 3 21 L 3 0 Z M 2 0 "/>
<path style=" stroke:none;fill-rule:nonzero;fill:rgb(11.372549%,60%,95.294118%);fill-opacity:1;" d="M 13 2 L 13 11 L 24 11 L 24 2 Z M 14 3 L 23 3 L 23 10 L 14 10 Z M 14 3 "/>
</g>
</svg>
