<?xml version="1.0" encoding="UTF-8"?>
<svg xmlns="http://www.w3.org/2000/svg" xmlns:xlink="http://www.w3.org/1999/xlink" width="24pt" height="24pt" viewBox="0 0 24 24" version="1.1">
<g id="surface1">
<path style=" stroke:none;fill-rule:nonzero;fill:rgb(30.196078%,30.196078%,30.196078%);fill-opacity:1;" d="M 0 0 L 0 15 L 12 15 L 12 6 L 14 6 C 16.210938 6 18 7.789062 18 10 L 18 12 L 13.5 12 L 13.5 13 L 23 13 L 23 23 L 10 23 L 10 16.5 L 9 16.5 L 9 24 L 24 24 L 24 12 L 19 12 L 19 10 C 19 7.238281 16.761719 5 14 5 L 12 5 L 12 0 Z M 1 1 L 11 1 L 11 14 L 1 14 Z M 1 1 "/>
</g>
</svg>
