<?xml version="1.0" encoding="UTF-8"?>
<svg xmlns="http://www.w3.org/2000/svg" xmlns:xlink="http://www.w3.org/1999/xlink" width="24pt" height="24pt" viewBox="0 0 24 24" version="1.1">
<g id="surface1">
<path style=" stroke:none;fill-rule:nonzero;fill:rgb(30.196078%,30.196078%,30.196078%);fill-opacity:1;" d="M 0 0 L 0 24 L 24 24 L 24 5 L 23 5 L 23 23 L 1 23 L 1 5 L 17 5 L 17 0 Z M 9.046875 6 C 7.269531 6 6.523438 6.707031 6.523438 8.511719 L 6.523438 10.953125 C 6.523438 12.066406 6.488281 13.355469 5.507812 13.355469 L 5 13.355469 L 5 14.644531 L 5.507812 14.644531 C 6.488281 14.644531 6.523438 15.933594 6.523438 17.046875 L 6.523438 19.488281 C 6.523438 21.292969 7.269531 22 9.046875 22 L 9.046875 20.816406 C 7.859375 20.816406 7.84375 20.339844 7.84375 18.605469 L 7.84375 16.589844 C 7.84375 15.757812 7.640625 14.523438 6.640625 14.011719 C 7.640625 13.496094 7.84375 12.257812 7.84375 11.425781 L 7.84375 9.394531 C 7.84375 7.660156 7.859375 7.183594 9.046875 7.183594 Z M 14.9375 6 L 14.9375 7.183594 C 16.125 7.183594 16.15625 7.660156 16.15625 9.394531 L 16.15625 11.425781 C 16.15625 12.257812 16.359375 13.496094 17.359375 14.011719 C 16.359375 14.523438 16.15625 15.757812 16.15625 16.589844 L 16.15625 18.605469 C 16.15625 20.339844 16.125 20.816406 14.9375 20.816406 L 14.9375 22 C 16.714844 22 17.476562 21.292969 17.476562 19.488281 L 17.476562 17.046875 C 17.476562 15.933594 17.546875 14.644531 18.511719 14.644531 L 19 14.644531 L 19 13.355469 L 18.511719 13.355469 C 17.546875 13.355469 17.476562 12.066406 17.476562 10.953125 L 17.476562 8.511719 C 17.476562 6.707031 16.714844 6 14.9375 6 Z M 11 7 L 11 9 L 13 9 L 13 7 Z M 11 10 L 11 21 L 13 21 L 13 10 Z M 11 10 "/>
<path style=" stroke:none;fill-rule:nonzero;fill:rgb(95.686275%,46.666667%,31.372549%);fill-opacity:1;" d="M 18 0 L 21 5 L 24 0 Z M 18 0 "/>
</g>
</svg>
