<?xml version="1.0" encoding="UTF-8"?>
<svg xmlns="http://www.w3.org/2000/svg" xmlns:xlink="http://www.w3.org/1999/xlink" width="24pt" height="24pt" viewBox="0 0 24 24" version="1.1">
<g id="surface1">
<path style=" stroke:none;fill-rule:nonzero;fill:rgb(30.196078%,30.196078%,30.196078%);fill-opacity:1;" d="M 19.5 0 L 9 10.5 L 9.75 11.25 L 7.5 13.5 L 8.25 14.25 L 5.484375 17 L 4.960938 17 C 5.636719 14.824219 5.683594 12.753906 5.273438 10.90625 C 4.632812 7.984375 3 5.636719 1.425781 4 L 12 4 L 12 3 L 0 3 L 0 4 C 1.550781 5.417969 3.636719 8.316406 4.257812 11.152344 C 4.617188 12.765625 4.535156 14.824219 3.820312 17 L 0 17 L 0 24 L 7 24 L 7 21 L 17.042969 21 C 17.289062 22.71875 18.761719 23.996094 20.5 24 C 22.433594 24 24 22.433594 24 20.5 C 24 18.761719 22.722656 17.289062 21 17.039062 L 21 14 L 20 14 L 20 17.042969 C 18.46875 17.261719 17.261719 18.46875 17.039062 20 L 7 20 L 7 18.488281 L 9.75 15.75 L 10.5 16.5 L 12.75 14.25 L 13.5 15 L 24 4.5 Z M 1 18 L 6 18 L 6 23 L 1 23 Z M 20.5 18 C 21.878906 18 23 19.121094 23 20.5 C 23 21.878906 21.878906 23 20.5 23 C 19.121094 23 18 21.878906 18 20.5 C 18 19.121094 19.121094 18 20.5 18 Z M 20.5 18 "/>
</g>
</svg>
