<?xml version="1.0" encoding="UTF-8"?>
<svg xmlns="http://www.w3.org/2000/svg" xmlns:xlink="http://www.w3.org/1999/xlink" width="24pt" height="21.000039pt" viewBox="0 0 24 21.000039" version="1.1">
<defs>
<filter id="alpha" filterUnits="objectBoundingBox" x="0%" y="0%" width="100%" height="100%">
  <feColorMatrix type="matrix" in="SourceGraphic" values="0 0 0 0 1 0 0 0 0 1 0 0 0 0 1 0 0 0 1 0"/>
</filter>
<mask id="mask0">
  <g filter="url(#alpha)">
<rect x="0" y="0" width="24" height="21.000039" style="fill:rgb(0%,0%,0%);fill-opacity:0.717647;stroke:none;"/>
  </g>
</mask>
<radialGradient id="radial0" gradientUnits="userSpaceOnUse" cx="11" cy="1041.3622" fx="11" fy="1041.3622" r="8" gradientTransform="matrix(-1.5,0.0000141094,-0.00001614,-1.312517,32.516817,1383.305539)">
<stop offset="0" style="stop-color:rgb(70.196078%,70.196078%,70.196078%);stop-opacity:0;"/>
<stop offset="0.795008" style="stop-color:rgb(30.196078%,30.196078%,30.196078%);stop-opacity:1;"/>
<stop offset="1" style="stop-color:rgb(30.196078%,30.196078%,30.196078%);stop-opacity:0;"/>
</radialGradient>
<clipPath id="clip1">
  <rect width="33" height="33"/>
</clipPath>
<g id="surface6" clip-path="url(#clip1)">
<path style=" stroke:none;fill-rule:nonzero;fill:url(#radial0);" d="M 16 6 C 9.371094 6 4 10.699219 4 16.5 C 4 22.300781 9.371094 27 16 27 C 22.628906 27 28 22.300781 28 16.5 C 28 10.699219 22.628906 6 16 6 Z M 16 11.25 C 19.3125 11.25 22 13.601562 22 16.5 C 22 19.398438 19.3125 21.75 16 21.75 C 12.6875 21.75 10 19.398438 10 16.5 C 10 13.601562 12.6875 11.25 16 11.25 Z M 16 11.25 "/>
</g>
<radialGradient id="radial1" gradientUnits="userSpaceOnUse" cx="15" cy="1037.3622" fx="15" fy="1037.3622" r="8" gradientTransform="matrix(-0.96605,-0.641612,0.465574,-0.536701,-450.477765,571.627034)">
<stop offset="0" style="stop-color:rgb(70.196078%,70.196078%,70.196078%);stop-opacity:1;"/>
<stop offset="1" style="stop-color:rgb(30.196078%,30.196078%,30.196078%);stop-opacity:0;"/>
</radialGradient>
<radialGradient id="radial2" gradientUnits="userSpaceOnUse" cx="15" cy="1037.3622" fx="15" fy="1037.3622" r="8" gradientTransform="matrix(0.96605,0.641612,-0.465574,0.536701,474.477762,-550.626992)">
<stop offset="0" style="stop-color:rgb(70.196078%,70.196078%,70.196078%);stop-opacity:1;"/>
<stop offset="1" style="stop-color:rgb(30.196078%,30.196078%,30.196078%);stop-opacity:0;"/>
</radialGradient>
</defs>
<g id="surface1">
<path style=" stroke:none;fill-rule:nonzero;fill:rgb(30.196078%,30.196078%,30.196078%);fill-opacity:0.835294;" d="M 12 0 C 5.371094 0 0 4.699219 0 10.5 C 0 16.300781 5.371094 21 12 21 C 18.628906 21 24 16.300781 24 10.5 C 24 4.699219 18.628906 0 12 0 Z M 12 5.25 C 15.3125 5.25 18 7.601562 18 10.5 C 18 13.398438 15.3125 15.75 12 15.75 C 8.6875 15.75 6 13.398438 6 10.5 C 6 7.601562 8.6875 5.25 12 5.25 Z M 12 5.25 "/>
<path style=" stroke:none;fill-rule:nonzero;fill:rgb(30.196078%,30.196078%,30.196078%);fill-opacity:0.470588;" d="M 4.269531 2.484375 C 1.566406 4.476562 0.00390625 7.410156 0 10.5 C 0 16.300781 5.371094 21 12 21 C 15.574219 21 18.957031 19.605469 21.238281 17.199219 C 19.074219 18.800781 16.335938 19.683594 13.5 19.6875 C 6.871094 19.6875 1.5 14.988281 1.5 9.1875 C 1.5 6.738281 2.480469 4.367188 4.269531 2.484375 Z M 4.269531 2.484375 "/>
<use xlink:href="#surface6" transform="matrix(1,0,0,1,-4,-6)" mask="url(#mask0)"/>
<path style=" stroke:none;fill-rule:nonzero;fill:url(#radial1);" d="M 12 0 C 5.371094 0 0 4.699219 0 10.5 C 0 16.300781 5.371094 21 12 21 C 18.628906 21 24 16.300781 24 10.5 C 24 4.699219 18.628906 0 12 0 Z M 12 5.25 C 15.3125 5.25 18 7.601562 18 10.5 C 18 13.398438 15.3125 15.75 12 15.75 C 8.6875 15.75 6 13.398438 6 10.5 C 6 7.601562 8.6875 5.25 12 5.25 Z M 12 5.25 "/>
<path style=" stroke:none;fill-rule:nonzero;fill:url(#radial2);" d="M 12 0 C 5.371094 0 0 4.699219 0 10.5 C 0 16.300781 5.371094 21 12 21 C 18.628906 21 24 16.300781 24 10.5 C 24 4.699219 18.628906 0 12 0 Z M 12 5.25 C 15.3125 5.25 18 7.601562 18 10.5 C 18 13.398438 15.3125 15.75 12 15.75 C 8.6875 15.75 6 13.398438 6 10.5 C 6 7.601562 8.6875 5.25 12 5.25 Z M 12 5.25 "/>
<path style=" stroke:none;fill-rule:nonzero;fill:rgb(30.196078%,30.196078%,30.196078%);fill-opacity:0.470588;" d="M 12.75 3.9375 C 9.023438 3.9375 6 6.582031 6 9.84375 C 6 9.96875 6.007812 10.09375 6.015625 10.21875 C 6.1875 7.433594 8.8125 5.253906 12 5.25 C 15.3125 5.25 18 7.601562 18 10.5 C 18 13.25 15.574219 15.53125 12.4375 15.734375 C 12.542969 15.742188 12.644531 15.746094 12.75 15.75 C 16.476562 15.75 19.5 13.105469 19.5 9.84375 C 19.5 6.582031 16.476562 3.9375 12.75 3.9375 Z M 12.75 3.9375 "/>
</g>
</svg>
