<?xml version="1.0" encoding="UTF-8"?>
<svg xmlns="http://www.w3.org/2000/svg" xmlns:xlink="http://www.w3.org/1999/xlink" width="24pt" height="23pt" viewBox="0 0 24 23" version="1.1">
<g id="surface1">
<path style=" stroke:none;fill-rule:nonzero;fill:rgb(11.372549%,60%,95.294118%);fill-opacity:1;" d="M 19 14 L 19 18 L 15 18 L 15 19 L 19 19 L 19 23 L 20 23 L 20 19 L 24 19 L 24 18 L 20 18 L 20 14 Z M 19 14 "/>
<path style=" stroke:none;fill-rule:nonzero;fill:rgb(30.196078%,30.196078%,30.196078%);fill-opacity:1;" d="M 12 0 L 12 1 L 15 1 L 15 7 L 1 7 L 1 5 L 0 5 L 0 10 L 1 10 L 1 8 L 15 8 L 15 14 L 12 14 L 12 15 L 16 15 L 16 0 Z M 12 0 "/>
</g>
</svg>
