<?xml version="1.0" encoding="UTF-8"?>
<svg xmlns="http://www.w3.org/2000/svg" xmlns:xlink="http://www.w3.org/1999/xlink" width="24pt" height="24pt" viewBox="0 0 24 24" version="1.1">
<g id="surface1">
<path style=" stroke:none;fill-rule:nonzero;fill:rgb(30.196078%,30.196078%,30.196078%);fill-opacity:1;" d="M 2 0 L 2 9 L 22 9 L 22 0 Z M 3 1 L 8 1 L 8 4 L 3 4 Z M 9 1 L 15 1 L 15 4 L 9 4 Z M 16 1 L 21 1 L 21 4 L 16 4 Z M 3 5 L 8 5 L 8 8 L 3 8 Z M 9 5 L 15 5 L 15 8 L 9 8 Z M 16 5 L 21 5 L 21 8 L 16 8 Z M 12 11 C 5.371094 11 0 12.566406 0 14.5 L 0 21 C 0 22.65625 5.371094 24 12 24 C 18.628906 24 24 22.65625 24 21 L 24 14.5 C 24 12.566406 18.628906 11 12 11 Z M 12 12 C 18.074219 12 23 13.121094 23 14.5 C 23 15.8125 18.535156 16.902344 12.777344 16.996094 C 12.519531 17 12.257812 17 12 17 C 5.925781 17 1 15.878906 1 14.5 C 1 13.121094 5.925781 12 12 12 Z M 23 16.191406 L 23 21 C 23 22.105469 18.074219 23 12 23 C 5.925781 23 1 22.105469 1 21 L 1 16.195312 C 2.757812 17.203125 6.582031 17.890625 10.96875 17.984375 C 11.054688 17.988281 11.144531 17.992188 11.234375 17.992188 C 11.246094 17.992188 11.261719 17.992188 11.277344 17.996094 C 11.515625 18 11.757812 18 12 18 C 16.78125 18 21.101562 17.289062 23 16.191406 Z M 23 16.191406 "/>
</g>
</svg>
