<?xml version="1.0" encoding="UTF-8"?>
<svg xmlns="http://www.w3.org/2000/svg" xmlns:xlink="http://www.w3.org/1999/xlink" width="24pt" height="24pt" viewBox="0 0 24 24" version="1.1">
<g id="surface1">
<path style=" stroke:none;fill-rule:nonzero;fill:rgb(30.196078%,30.196078%,30.196078%);fill-opacity:1;" d="M 12 0 C 5.371094 0 0 1.34375 0 3 L 0 21 C 0 22.65625 5.371094 24 12 24 C 18.628906 24 24 22.65625 24 21 L 24 3 C 24 1.34375 18.628906 0 12 0 Z M 12 1 C 18.074219 1 23 1.894531 23 3 C 23 4.105469 18.074219 5 12 5 C 5.925781 5 1 4.105469 1 3 C 1 1.894531 5.925781 1 12 1 Z M 23 4.191406 L 23 9 C 23 10.105469 18.074219 11 12 11 C 5.925781 11 1 10.105469 1 9 L 1 4.195312 C 2.902344 5.289062 7.222656 6 12 6 C 16.78125 6 21.101562 5.289062 23 4.191406 Z M 23 10.191406 L 23 15 C 23 16.105469 18.074219 17 12 17 C 5.925781 17 1 16.105469 1 15 L 1 10.195312 C 2.902344 11.289062 7.222656 12 12 12 C 16.78125 12 21.101562 11.289062 23 10.191406 Z M 23 16.191406 L 23 21 C 23 22.105469 18.074219 23 12 23 C 5.925781 23 1 22.105469 1 21 L 1 16.195312 C 2.902344 17.289062 7.222656 18 12 18 C 16.78125 18 21.101562 17.289062 23 16.191406 Z M 23 16.191406 "/>
</g>
</svg>
