<?xml version="1.0" encoding="UTF-8"?>
<svg xmlns="http://www.w3.org/2000/svg" xmlns:xlink="http://www.w3.org/1999/xlink" width="24pt" height="24pt" viewBox="0 0 24 24" version="1.1">
<g id="surface1">
<path style=" stroke:none;fill-rule:nonzero;fill:rgb(30.196078%,30.196078%,30.196078%);fill-opacity:1;" d="M 0 0 L 0 1 L 2 1 L 2 8 L 0 8 L 0 9 L 5 9 L 5 8 L 3 8 L 3 1 L 5 1 L 5 0 Z M 7 5 L 7 6 L 9 6 L 9 13 L 7 13 L 7 14 L 14 14 L 14 13 L 12 13 L 12 6 L 14 6 L 14 5 Z M 10 6 L 11 6 L 11 13 L 10 13 Z M 17 15 L 17 17 L 15 17 L 15 18 L 17 18 L 17 21 L 15 21 L 15 22 L 17 22 L 17 24 L 18 24 L 18 22 L 21 22 L 21 24 L 22 24 L 22 22 L 24 22 L 24 21 L 22 21 L 22 18 L 24 18 L 24 17 L 22 17 L 22 15 L 21 15 L 21 17 L 18 17 L 18 15 Z M 18 18 L 21 18 L 21 21 L 18 21 Z M 18 18 "/>
</g>
</svg>
