<?xml version="1.0" encoding="UTF-8"?>
<svg xmlns="http://www.w3.org/2000/svg" xmlns:xlink="http://www.w3.org/1999/xlink" width="24pt" height="22pt" viewBox="0 0 24 22" version="1.1">
<g id="surface1">
<path style=" stroke:none;fill-rule:nonzero;fill:rgb(11.372549%,60%,95.294118%);fill-opacity:1;" d="M 17 4 L 10 11 L 17 18 L 24 11 Z M 17 4 "/>
<path style=" stroke:none;fill-rule:nonzero;fill:rgb(30.196078%,30.196078%,30.196078%);fill-opacity:1;" d="M 0 0 L 0 1 L 24 1 L 24 0 Z M 0 4 L 0 5 L 10 5 L 10 4 Z M 0 8 L 0 9 L 6 9 L 6 8 Z M 0 13 L 0 14 L 6 14 L 6 13 Z M 0 17 L 0 18 L 10 18 L 10 17 Z M 0 21 L 0 22 L 24 22 L 24 21 Z M 0 21 "/>
</g>
</svg>
