<?xml version="1.0" encoding="UTF-8"?>
<svg xmlns="http://www.w3.org/2000/svg" xmlns:xlink="http://www.w3.org/1999/xlink" width="24pt" height="22pt" viewBox="0 0 24 22" version="1.1">
<g id="surface1">
<path style=" stroke:none;fill-rule:nonzero;fill:rgb(11.372549%,60%,95.294118%);fill-opacity:1;" d="M 5 4 L 5 18 L 19 18 L 19 4 Z M 5 4 "/>
<path style=" stroke:none;fill-rule:nonzero;fill:rgb(30.196078%,30.196078%,30.196078%);fill-opacity:1;" d="M 0 0 L 0 1 L 24 1 L 24 0 Z M 0 4 L 0 5 L 3 5 L 3 4 Z M 21 4 L 21 5 L 24 5 L 24 4 Z M 0 8 L 0 9 L 3 9 L 3 8 Z M 21 8 L 21 9 L 24 9 L 24 8 Z M 0 13 L 0 14 L 3 14 L 3 13 Z M 21 13 L 21 14 L 24 14 L 24 13 Z M 0 17 L 0 18 L 3 18 L 3 17 Z M 21 17 L 21 18 L 24 18 L 24 17 Z M 0 21 L 0 22 L 24 22 L 24 21 Z M 0 21 "/>
</g>
</svg>
