<?xml version="1.0" encoding="UTF-8"?>
<svg xmlns="http://www.w3.org/2000/svg" xmlns:xlink="http://www.w3.org/1999/xlink" width="24pt" height="24pt" viewBox="0 0 24 24" version="1.1">
<g id="surface1">
<path style=" stroke:none;fill-rule:nonzero;fill:rgb(30.196078%,30.196078%,30.196078%);fill-opacity:1;" d="M 0 0 L 0 10 L 1 10 L 1 1 L 23 1 L 23 23 L 14 23 L 14 24 L 24 24 L 24 0 Z M 19.128906 4.164062 L 12 11.292969 L 12 5.929688 L 11 5.929688 L 11 13 L 18.070312 13 L 18.070312 12 L 12.707031 12 L 19.839844 4.867188 Z M 0 14 L 0 17 L 1 17 L 1 15 L 3 15 L 3 14 Z M 7 14 L 7 15 L 9 15 L 9 17 L 10 17 L 10 14 Z M 0 21 L 0 24 L 3 24 L 3 23 L 1 23 L 1 21 Z M 9 21 L 9 23 L 7 23 L 7 24 L 10 24 L 10 21 Z M 9 21 "/>
</g>
</svg>
