<?xml version="1.0" encoding="UTF-8"?>
<svg xmlns="http://www.w3.org/2000/svg" xmlns:xlink="http://www.w3.org/1999/xlink" width="24pt" height="24pt" viewBox="0 0 24 24" version="1.1">
<g id="surface1">
<path style=" stroke:none;fill-rule:nonzero;fill:rgb(30.196078%,30.196078%,30.196078%);fill-opacity:1;" d="M 0 0 L 0 6 L 1 6 L 1 1 L 6 1 L 6 0 Z M 12 0 L 9 3 L 15 3 Z M 18 0 L 18 1 L 23 1 L 23 6 L 24 6 L 24 0 Z M 5 5 L 5 19 L 19 19 L 19 5 Z M 6 6 L 18 6 L 18 18 L 6 18 Z M 3 9 L 0 12 L 3 15 Z M 21 9 L 21 15 L 24 12 Z M 0 18 L 0 24 L 6 24 L 6 23 L 1 23 L 1 18 Z M 23 18 L 23 23 L 18 23 L 18 24 L 24 24 L 24 18 Z M 9 21 L 12 24 L 15 21 Z M 9 21 "/>
</g>
</svg>
