<?xml version="1.0" encoding="UTF-8"?>
<svg xmlns="http://www.w3.org/2000/svg" xmlns:xlink="http://www.w3.org/1999/xlink" width="24pt" height="24pt" viewBox="0 0 24 24" version="1.1">
<g id="surface1">
<path style=" stroke:none;fill-rule:nonzero;fill:rgb(30.196078%,30.196078%,30.196078%);fill-opacity:1;" d="M 0 0 L 0 3 L 1 3 L 1 1 L 3 1 L 3 0 Z M 7 0 L 7 1 L 10 1 L 10 0 Z M 14 0 L 14 1 L 17 1 L 17 0 Z M 21 0 L 21 1 L 23 1 L 23 3 L 24 3 L 24 0 Z M 12.929688 4 L 12.929688 5 L 18.292969 5 L 11.160156 12.128906 L 11.871094 12.839844 L 19 5.707031 L 19 11.070312 L 20 11.070312 L 20 4 Z M 0 7 L 0 10 L 1 10 L 1 7 Z M 23 7 L 23 10 L 24 10 L 24 7 Z M 0 14 L 0 24 L 10 24 L 10 14 Z M 23 14 L 23 17 L 24 17 L 24 14 Z M 1 15 L 9 15 L 9 23 L 1 23 Z M 23 21 L 23 23 L 21 23 L 21 24 L 24 24 L 24 21 Z M 14 23 L 14 24 L 17 24 L 17 23 Z M 14 23 "/>
</g>
</svg>
