<?xml version="1.0" encoding="UTF-8"?>
<svg xmlns="http://www.w3.org/2000/svg" xmlns:xlink="http://www.w3.org/1999/xlink" width="24pt" height="24pt" viewBox="0 0 24 24" version="1.1">
<g id="surface1">
<path style=" stroke:none;fill-rule:nonzero;fill:rgb(30.196078%,30.196078%,30.196078%);fill-opacity:1;" d="M 0 0 L 0 4 L 1 4 L 1 1 L 4 1 L 4 0 Z M 20 0 L 20 1 L 23 1 L 23 4 L 24 4 L 24 0 Z M 9.25 6 L 9.121094 6.125 L 8.730469 6.5 L 8.5 6.71875 L 12.796875 10.84375 L 14.035156 12 L 12.796875 13.15625 L 8.5 17.28125 L 9.25 18 L 15.5 12 Z M 0 20 L 0 24 L 4 24 L 4 23 L 1 23 L 1 20 Z M 23 20 L 23 23 L 20 23 L 20 24 L 24 24 L 24 20 Z M 23 20 "/>
</g>
</svg>
