<?xml version="1.0" encoding="UTF-8"?>
<svg xmlns="http://www.w3.org/2000/svg" xmlns:xlink="http://www.w3.org/1999/xlink" width="96pt" height="37pt" viewBox="0 0 96 37" version="1.1">
<g id="surface1">
<path style=" stroke:none;fill-rule:nonzero;fill:rgb(30.196078%,30.196078%,30.196078%);fill-opacity:1;" d="M 20 0 L 20 6 L 10 6 L 10 12 L 0 12 L 0 37 L 21 37 L 21 31 L 31 31 L 31 25 L 41 25 L 41 6.25 L 35 0 Z M 75 0 L 75 6 L 65 6 L 65 12 L 55 12 L 55 37 L 76 37 L 76 31 L 86 31 L 86 25 L 96 25 L 96 6.25 L 90 0 Z M 21 1 L 34 1 L 34 7 L 40 7 L 40 24 L 31 24 L 31 12.25 L 25 6 L 21 6 Z M 76 1 L 89 1 L 89 7 L 95 7 L 95 24 L 86 24 L 86 12.25 L 80 6 L 76 6 Z M 11 7 L 24 7 L 24 13 L 30 13 L 30 30 L 21 30 L 21 18.238281 L 15.011719 12 L 15 12.015625 L 15 12 L 11 12 Z M 66 7 L 79 7 L 79 13 L 85 13 L 85 30 L 76 30 L 76 18.238281 L 70.011719 12 L 70 12.015625 L 70 12 L 66 12 Z M 35.367188 11 C 33.910156 11 32.792969 11.292969 32.015625 11.882812 L 32.453125 13.023438 C 32.777344 12.769531 33.164062 12.566406 33.617188 12.414062 C 34.070312 12.261719 34.554688 12.1875 35.070312 12.1875 C 36.503906 12.1875 37.21875 12.8125 37.21875 14.0625 C 37.21875 14.394531 37.160156 14.683594 37.046875 14.929688 C 36.933594 15.175781 36.785156 15.371094 36.601562 15.515625 C 36.417969 15.660156 36.1875 15.777344 35.90625 15.867188 C 35.628906 15.957031 35.351562 16.019531 35.070312 16.054688 C 34.792969 16.085938 34.472656 16.097656 34.109375 16.109375 L 33.71875 16.109375 L 33.71875 17.273438 C 33.769531 17.273438 33.847656 17.273438 33.953125 17.28125 L 34.1875 17.28125 C 34.609375 17.292969 34.980469 17.320312 35.296875 17.371094 C 35.621094 17.410156 35.933594 17.484375 36.234375 17.59375 C 36.542969 17.699219 36.792969 17.839844 36.984375 18.015625 C 37.183594 18.191406 37.339844 18.417969 37.453125 18.703125 C 37.574219 18.984375 37.632812 19.316406 37.632812 19.699219 C 37.632812 20.394531 37.402344 20.941406 36.9375 21.328125 C 36.480469 21.714844 35.859375 21.90625 35.078125 21.90625 C 34.0625 21.90625 33.1875 21.621094 32.453125 21.042969 L 32.015625 22.1875 C 32.265625 22.429688 32.660156 22.640625 33.203125 22.824219 C 33.75 23.003906 34.371094 23.09375 35.070312 23.09375 C 36.222656 23.09375 37.164062 22.785156 37.898438 22.171875 C 38.632812 21.558594 39 20.738281 39 19.710938 C 39 18.902344 38.792969 18.238281 38.375 17.710938 C 37.964844 17.183594 37.394531 16.84375 36.664062 16.6875 C 37.316406 16.484375 37.820312 16.148438 38.179688 15.679688 C 38.539062 15.210938 38.71875 14.613281 38.71875 13.882812 C 38.71875 13.285156 38.558594 12.761719 38.234375 12.320312 C 37.910156 11.871094 37.5 11.542969 37 11.328125 C 36.5 11.109375 35.957031 11 35.367188 11 Z M 90.367188 11 C 88.910156 11 87.792969 11.292969 87.015625 11.882812 L 87.453125 13.023438 C 87.777344 12.769531 88.164062 12.566406 88.617188 12.414062 C 89.070312 12.261719 89.554688 12.1875 90.070312 12.1875 C 91.503906 12.1875 92.21875 12.8125 92.21875 14.0625 C 92.21875 14.394531 92.160156 14.683594 92.046875 14.929688 C 91.933594 15.175781 91.785156 15.371094 91.601562 15.515625 C 91.417969 15.660156 91.1875 15.777344 90.90625 15.867188 C 90.628906 15.957031 90.351562 16.019531 90.070312 16.054688 C 89.792969 16.085938 89.472656 16.097656 89.109375 16.109375 L 88.71875 16.109375 L 88.71875 17.273438 C 88.769531 17.273438 88.847656 17.273438 88.953125 17.28125 L 89.1875 17.28125 C 89.609375 17.292969 89.980469 17.320312 90.296875 17.371094 C 90.621094 17.410156 90.933594 17.484375 91.234375 17.59375 C 91.542969 17.699219 91.792969 17.839844 91.984375 18.015625 C 92.183594 18.191406 92.339844 18.417969 92.453125 18.703125 C 92.574219 18.984375 92.632812 19.316406 92.632812 19.699219 C 92.632812 20.394531 92.402344 20.941406 91.9375 21.328125 C 91.480469 21.714844 90.859375 21.90625 90.078125 21.90625 C 89.0625 21.90625 88.1875 21.621094 87.453125 21.042969 L 87.015625 22.1875 C 87.265625 22.429688 87.660156 22.640625 88.203125 22.824219 C 88.75 23.003906 89.371094 23.09375 90.070312 23.09375 C 91.222656 23.09375 92.164062 22.785156 92.898438 22.171875 C 93.632812 21.558594 94 20.738281 94 19.710938 C 94 18.902344 93.792969 18.238281 93.375 17.710938 C 92.964844 17.183594 92.394531 16.84375 91.664062 16.6875 C 92.316406 16.484375 92.820312 16.148438 93.179688 15.679688 C 93.539062 15.210938 93.71875 14.613281 93.71875 13.882812 C 93.71875 13.285156 93.558594 12.761719 93.234375 12.320312 C 92.910156 11.871094 92.5 11.542969 92 11.328125 C 91.5 11.109375 90.957031 11 90.367188 11 Z M 1 13 L 14 13 L 14 19 L 20 19 L 20 36 L 1 36 Z M 56 13 L 69 13 L 69 19 L 75 19 L 75 36 L 56 36 Z M 25.578125 17 C 24.191406 17 23.140625 17.339844 22.421875 18.023438 L 22.875 19.203125 C 23.511719 18.558594 24.378906 18.234375 25.484375 18.234375 C 26.144531 18.234375 26.65625 18.414062 27.015625 18.777344 C 27.375 19.132812 27.554688 19.636719 27.554688 20.289062 L 27.375 20.785156 C 27.261719 21.121094 27.074219 21.527344 26.820312 22.011719 C 26.570312 22.496094 26.308594 22.890625 26.039062 23.191406 L 22 27.707031 L 22.179688 29 L 29.015625 29 L 29.101562 27.789062 L 23.6875 27.789062 L 26.984375 24.238281 C 27.222656 23.984375 27.457031 23.664062 27.6875 23.28125 C 27.921875 22.894531 28.113281 22.542969 28.265625 22.222656 C 28.417969 21.90625 28.558594 21.566406 28.695312 21.207031 C 28.835938 20.851562 28.925781 20.613281 28.96875 20.496094 C 29.011719 20.367188 29.042969 20.269531 29.0625 20.195312 C 29.0625 19.226562 28.746094 18.449219 28.117188 17.875 C 27.488281 17.289062 26.640625 17 25.578125 17 Z M 80.578125 17 C 79.191406 17 78.140625 17.339844 77.421875 18.023438 L 77.875 19.203125 C 78.511719 18.558594 79.378906 18.234375 80.484375 18.234375 C 81.144531 18.234375 81.65625 18.414062 82.015625 18.777344 C 82.375 19.132812 82.554688 19.636719 82.554688 20.289062 L 82.375 20.785156 C 82.261719 21.121094 82.074219 21.527344 81.820312 22.011719 C 81.570312 22.496094 81.308594 22.890625 81.039062 23.191406 L 77 27.707031 L 77.179688 29 L 84.015625 29 L 84.101562 27.789062 L 78.6875 27.789062 L 81.984375 24.238281 C 82.222656 23.984375 82.457031 23.664062 82.6875 23.28125 C 82.921875 22.894531 83.113281 22.542969 83.265625 22.222656 C 83.417969 21.90625 83.558594 21.566406 83.695312 21.207031 C 83.835938 20.851562 83.925781 20.613281 83.96875 20.496094 C 84.011719 20.367188 84.042969 20.269531 84.0625 20.195312 C 84.0625 19.226562 83.746094 18.449219 83.117188 17.875 C 82.488281 17.289062 81.640625 17 80.578125 17 Z M 16.757812 23 C 16.613281 23.105469 16.441406 23.214844 16.25 23.320312 C 16.058594 23.425781 15.894531 23.511719 15.765625 23.570312 C 15.640625 23.628906 15.449219 23.714844 15.195312 23.828125 C 14.941406 23.9375 14.769531 24.015625 14.6875 24.050781 L 14.6875 25.390625 C 15.449219 25.140625 16.089844 24.835938 16.617188 24.484375 L 16.617188 35 L 18 35 L 18 23 Z M 71.757812 23 C 71.613281 23.105469 71.441406 23.214844 71.25 23.320312 C 71.058594 23.425781 70.894531 23.511719 70.765625 23.570312 C 70.640625 23.628906 70.449219 23.714844 70.195312 23.828125 C 69.941406 23.9375 69.769531 24.015625 69.6875 24.050781 L 69.6875 25.390625 C 70.449219 25.140625 71.089844 24.835938 71.617188 24.484375 L 71.617188 35 L 73 35 L 73 23 Z M 71.757812 23 "/>
</g>
</svg>
