<?xml version="1.0" encoding="UTF-8"?>
<svg xmlns="http://www.w3.org/2000/svg" xmlns:xlink="http://www.w3.org/1999/xlink" width="26pt" height="26pt" viewBox="0 0 26 26" version="1.1">
<defs>
<linearGradient id="linear0" gradientUnits="userSpaceOnUse" x1="26.21154" y1="43.999989" x2="26.21154" y2="6.999989" gradientTransform="matrix(-0.702703,0,0,0.702703,30.91892,-4.9189)">
<stop offset="0" style="stop-color:rgb(77.647059%,7.843137%,13.72549%);stop-opacity:1;"/>
<stop offset="1" style="stop-color:rgb(86.27451%,16.862745%,25.490196%);stop-opacity:1;"/>
</linearGradient>
<filter id="alpha" filterUnits="objectBoundingBox" x="0%" y="0%" width="100%" height="100%">
  <feColorMatrix type="matrix" in="SourceGraphic" values="0 0 0 0 1 0 0 0 0 1 0 0 0 0 1 0 0 0 1 0"/>
</filter>
<mask id="mask0">
  <g filter="url(#alpha)">
<rect x="0" y="0" width="26" height="26" style="fill:rgb(0%,0%,0%);fill-opacity:0.2;stroke:none;"/>
  </g>
</mask>
<linearGradient id="linear1" gradientUnits="userSpaceOnUse" x1="9.999999" y1="1026.862199" x2="21.999998" y2="1038.8622" gradientTransform="matrix(1,0,0,1,0,-1020.3622)">
<stop offset="0" style="stop-color:rgb(0.784314%,1.176471%,1.176471%);stop-opacity:1;"/>
<stop offset="1" style="stop-color:rgb(25.882353%,27.45098%,28.627451%);stop-opacity:0;"/>
</linearGradient>
<clipPath id="clip1">
  <rect width="32" height="32"/>
</clipPath>
<g id="surface6" clip-path="url(#clip1)">
<path style=" stroke:none;fill-rule:evenodd;fill:url(#linear1);" d="M 22 7.207031 L 10.699219 18.460938 L 15.289062 23.035156 L 16.351562 21.972656 L 24.851562 21.972656 C 27.054688 19.921875 28.511719 17.085938 28.890625 14.097656 Z M 22 7.207031 "/>
</g>
<linearGradient id="linear2" gradientUnits="userSpaceOnUse" x1="16" y1="1038.862195" x2="16" y2="1026.862195" gradientTransform="matrix(1,0,0,1,-3,-1023.3622)">
<stop offset="0" style="stop-color:rgb(92.941176%,52.54902%,55.294118%);stop-opacity:1;"/>
<stop offset="1" style="stop-color:rgb(98.431373%,90.196078%,90.980392%);stop-opacity:1;"/>
</linearGradient>
</defs>
<g id="surface1">
<path style=" stroke:none;fill-rule:evenodd;fill:url(#linear0);" d="M 26 0 L 26 18.972656 L 13 19 L 6 26 L 6 19 L 0 18.972656 L 0 0 Z M 26 0 "/>
<use xlink:href="#surface6" transform="matrix(1,0,0,1,-3,-3)" mask="url(#mask0)"/>
<path style=" stroke:none;fill-rule:nonzero;fill:url(#linear2);" d="M 18.292969 3.5 L 19 4.207031 L 13.707031 9.5 L 19 14.792969 L 18.292969 15.5 L 13 10.207031 L 7.707031 15.5 L 7 14.792969 L 12.292969 9.5 L 7 4.207031 L 7.707031 3.5 L 13 8.792969 Z M 18.292969 3.5 "/>
<path style=" stroke:none;fill-rule:evenodd;fill:rgb(66.666667%,6.666667%,11.764706%);fill-opacity:1;" d="M 0 18 L 0 18.972656 L 6 19 L 6 18 Z M 13 18 L 6 25 L 6 26 L 13 19 L 26 18.972656 L 26 18 Z M 13 18 "/>
</g>
</svg>
