<?xml version="1.0" encoding="UTF-8"?>
<svg xmlns="http://www.w3.org/2000/svg" xmlns:xlink="http://www.w3.org/1999/xlink" width="101pt" height="31pt" viewBox="0 0 101 31" version="1.1">
<g id="surface1">
<path style=" stroke:none;fill-rule:nonzero;fill:rgb(30.196078%,30.196078%,30.196078%);fill-opacity:1;" d="M 10 0 L 10 6 L 0 6 L 0 31 L 21 31 L 21 25 L 31 25 L 31 6.25 L 25 0 Z M 45 0 L 45 6 L 35 6 L 35 31 L 56 31 L 56 25 L 66 25 L 66 6.25 L 60 0 Z M 80 0 L 80 6 L 70 6 L 70 31 L 91 31 L 91 25 L 101 25 L 101 6.25 L 95 0 Z M 11 1 L 24 1 L 24 7 L 30 7 L 30 24 L 21 24 L 21 12.238281 L 15.011719 6 L 15 6.015625 L 15 6 L 11 6 Z M 46 1 L 59 1 L 59 7 L 65 7 L 65 24 L 56 24 L 56 12.238281 L 50.011719 6 L 50 6.015625 L 50 6 L 46 6 Z M 81 1 L 94 1 L 94 7 L 100 7 L 100 24 L 91 24 L 91 12.238281 L 85.011719 6 L 85 6.015625 L 85 6 L 81 6 Z M 1 7 L 14 7 L 14 13 L 20 13 L 20 30 L 1 30 Z M 36 7 L 49 7 L 49 13 L 55 13 L 55 30 L 36 30 Z M 71 7 L 84 7 L 84 13 L 90 13 L 90 30 L 71 30 Z M 95.367188 10.90625 C 93.910156 10.90625 92.792969 11.199219 92.015625 11.785156 L 92.453125 12.925781 C 92.777344 12.671875 93.164062 12.46875 93.617188 12.316406 C 94.070312 12.167969 94.554688 12.09375 95.070312 12.09375 C 96.503906 12.09375 97.21875 12.71875 97.21875 13.96875 C 97.21875 14.300781 97.160156 14.589844 97.046875 14.832031 C 96.933594 15.078125 96.785156 15.273438 96.601562 15.421875 C 96.417969 15.566406 96.1875 15.683594 95.90625 15.769531 C 95.628906 15.859375 95.351562 15.921875 95.070312 15.957031 C 94.792969 15.992188 94.472656 16.003906 94.109375 16.015625 L 93.71875 16.015625 L 93.71875 17.175781 C 93.769531 17.175781 93.847656 17.175781 93.953125 17.1875 L 94.1875 17.1875 C 94.609375 17.199219 94.980469 17.226562 95.296875 17.273438 C 95.621094 17.316406 95.933594 17.390625 96.234375 17.5 C 96.542969 17.605469 96.792969 17.746094 96.984375 17.921875 C 97.183594 18.09375 97.339844 18.324219 97.453125 18.609375 C 97.574219 18.890625 97.632812 19.222656 97.632812 19.601562 C 97.632812 20.300781 97.402344 20.84375 96.9375 21.234375 C 96.480469 21.621094 95.859375 21.8125 95.078125 21.8125 C 94.0625 21.8125 93.1875 21.523438 92.453125 20.945312 L 92.015625 22.09375 C 92.265625 22.332031 92.660156 22.542969 93.203125 22.726562 C 93.75 22.910156 94.371094 23 95.070312 23 C 96.222656 23 97.164062 22.691406 97.898438 22.078125 C 98.632812 21.460938 99 20.640625 99 19.613281 C 99 18.808594 98.792969 18.140625 98.375 17.613281 C 97.964844 17.089844 97.394531 16.746094 96.664062 16.59375 C 97.316406 16.386719 97.820312 16.050781 98.179688 15.582031 C 98.539062 15.113281 98.71875 14.515625 98.71875 13.785156 C 98.71875 13.1875 98.558594 12.667969 98.234375 12.222656 C 97.910156 11.777344 97.5 11.445312 97 11.234375 C 96.5 11.015625 95.957031 10.90625 95.367188 10.90625 Z M 26.757812 11 C 26.613281 11.105469 26.441406 11.214844 26.25 11.320312 C 26.058594 11.425781 25.894531 11.511719 25.765625 11.570312 C 25.640625 11.628906 25.449219 11.714844 25.195312 11.828125 C 24.941406 11.9375 24.769531 12.015625 24.6875 12.050781 L 24.6875 13.390625 C 25.449219 13.140625 26.089844 12.835938 26.617188 12.484375 L 26.617188 23 L 28 23 L 28 11 Z M 60.578125 11 C 59.191406 11 58.140625 11.339844 57.421875 12.023438 L 57.875 13.203125 C 58.511719 12.558594 59.378906 12.234375 60.484375 12.234375 C 61.144531 12.234375 61.65625 12.414062 62.015625 12.777344 C 62.375 13.132812 62.554688 13.636719 62.554688 14.289062 L 62.375 14.785156 C 62.261719 15.121094 62.074219 15.527344 61.820312 16.011719 C 61.570312 16.496094 61.308594 16.890625 61.039062 17.191406 L 57 21.707031 L 57.179688 23 L 64.015625 23 L 64.101562 21.789062 L 58.6875 21.789062 L 61.984375 18.238281 C 62.222656 17.984375 62.457031 17.664062 62.6875 17.28125 C 62.921875 16.894531 63.113281 16.542969 63.265625 16.222656 C 63.417969 15.90625 63.558594 15.566406 63.695312 15.207031 C 63.835938 14.851562 63.925781 14.613281 63.96875 14.496094 C 64.011719 14.367188 64.042969 14.269531 64.0625 14.195312 C 64.0625 13.226562 63.746094 12.449219 63.117188 11.875 C 62.488281 11.289062 61.640625 11 60.578125 11 Z M 85.351562 16.90625 C 83.894531 16.90625 82.777344 17.199219 82 17.785156 L 82.4375 18.925781 C 82.761719 18.671875 83.148438 18.46875 83.601562 18.316406 C 84.054688 18.167969 84.539062 18.09375 85.054688 18.09375 C 86.488281 18.09375 87.203125 18.71875 87.203125 19.96875 C 87.203125 20.300781 87.144531 20.589844 87.03125 20.832031 C 86.917969 21.078125 86.769531 21.273438 86.585938 21.421875 C 86.402344 21.566406 86.171875 21.683594 85.890625 21.769531 C 85.613281 21.859375 85.335938 21.921875 85.054688 21.957031 C 84.777344 21.992188 84.457031 22.003906 84.09375 22.015625 L 83.703125 22.015625 L 83.703125 23.175781 C 83.753906 23.175781 83.832031 23.175781 83.9375 23.1875 L 84.171875 23.1875 C 84.59375 23.199219 84.964844 23.226562 85.28125 23.273438 C 85.605469 23.316406 85.917969 23.390625 86.21875 23.5 C 86.527344 23.605469 86.777344 23.746094 86.96875 23.921875 C 87.167969 24.09375 87.324219 24.324219 87.4375 24.609375 C 87.558594 24.890625 87.617188 25.222656 87.617188 25.601562 C 87.617188 26.300781 87.386719 26.84375 86.921875 27.234375 C 86.464844 27.621094 85.84375 27.8125 85.0625 27.8125 C 84.046875 27.8125 83.171875 27.523438 82.4375 26.945312 L 82 28.09375 C 82.25 28.332031 82.644531 28.542969 83.1875 28.726562 C 83.734375 28.910156 84.355469 29 85.054688 29 C 86.207031 29 87.148438 28.691406 87.882812 28.078125 C 88.617188 27.460938 88.984375 26.640625 88.984375 25.613281 C 88.984375 24.808594 88.777344 24.140625 88.359375 23.613281 C 87.949219 23.089844 87.378906 22.746094 86.648438 22.59375 C 87.300781 22.386719 87.804688 22.050781 88.164062 21.582031 C 88.523438 21.113281 88.703125 20.515625 88.703125 19.785156 C 88.703125 19.1875 88.542969 18.667969 88.21875 18.222656 C 87.894531 17.777344 87.484375 17.445312 86.984375 17.234375 C 86.484375 17.015625 85.941406 16.90625 85.351562 16.90625 Z M 16.757812 17 C 16.613281 17.105469 16.441406 17.214844 16.25 17.320312 C 16.058594 17.425781 15.894531 17.511719 15.765625 17.570312 C 15.640625 17.628906 15.449219 17.714844 15.195312 17.828125 C 14.941406 17.9375 14.769531 18.015625 14.6875 18.050781 L 14.6875 19.390625 C 15.449219 19.140625 16.089844 18.835938 16.617188 18.484375 L 16.617188 29 L 18 29 L 18 17 Z M 50.476562 17 C 49.089844 17 48.039062 17.339844 47.320312 18.023438 L 47.773438 19.203125 C 48.410156 18.558594 49.277344 18.234375 50.382812 18.234375 C 51.042969 18.234375 51.554688 18.414062 51.914062 18.777344 C 52.273438 19.132812 52.453125 19.636719 52.453125 20.289062 L 52.273438 20.785156 C 52.160156 21.121094 51.972656 21.527344 51.71875 22.011719 C 51.46875 22.496094 51.207031 22.890625 50.9375 23.191406 L 46.898438 27.707031 L 47.078125 29 L 53.914062 29 L 54 27.789062 L 48.585938 27.789062 L 51.882812 24.238281 C 52.121094 23.984375 52.355469 23.664062 52.585938 23.28125 C 52.820312 22.894531 53.011719 22.542969 53.164062 22.222656 C 53.316406 21.90625 53.457031 21.566406 53.59375 21.207031 C 53.734375 20.851562 53.824219 20.613281 53.867188 20.496094 C 53.910156 20.367188 53.941406 20.269531 53.960938 20.195312 C 53.960938 19.226562 53.644531 18.449219 53.015625 17.875 C 52.386719 17.289062 51.539062 17 50.476562 17 Z M 50.476562 17 "/>
</g>
</svg>
