<?xml version="1.0" encoding="UTF-8"?>
<svg xmlns="http://www.w3.org/2000/svg" xmlns:xlink="http://www.w3.org/1999/xlink" width="26pt" height="26pt" viewBox="0 0 26 26" version="1.1">
<defs>
<linearGradient id="linear0" gradientUnits="userSpaceOnUse" x1="400.57144" y1="545.79797" x2="400.57144" y2="517.79797" gradientTransform="matrix(0.821428,0,0,0.821428,-316.540544,-424.333478)">
<stop offset="0" style="stop-color:rgb(9.803922%,48.627451%,94.509804%);stop-opacity:1;"/>
<stop offset="1" style="stop-color:rgb(12.54902%,73.72549%,98.039216%);stop-opacity:1;"/>
</linearGradient>
<filter id="alpha" filterUnits="objectBoundingBox" x="0%" y="0%" width="100%" height="100%">
  <feColorMatrix type="matrix" in="SourceGraphic" values="0 0 0 0 1 0 0 0 0 1 0 0 0 0 1 0 0 0 1 0"/>
</filter>
<mask id="mask0">
  <g filter="url(#alpha)">
<rect x="0" y="0" width="26" height="26" style="fill:rgb(0%,0%,0%);fill-opacity:0.2;stroke:none;"/>
  </g>
</mask>
<linearGradient id="linear1" gradientUnits="userSpaceOnUse" x1="9.000011" y1="9" x2="23.000042" y2="23" gradientTransform="matrix(0.896552,0,0,0.896552,2.206897,1.206897)">
<stop offset="0" style="stop-color:rgb(16.078431%,17.254902%,18.431373%);stop-opacity:1;"/>
<stop offset="1" style="stop-color:rgb(0%,0%,0%);stop-opacity:0;"/>
</linearGradient>
<clipPath id="clip1">
  <rect width="33" height="33"/>
</clipPath>
<g id="surface6" clip-path="url(#clip1)">
<path style=" stroke:none;fill-rule:evenodd;fill:url(#linear1);" d="M 17.449219 9.277344 L 15.65625 11.070312 L 17.449219 12.863281 L 15.65625 21.828125 L 22.828125 29 L 30 29 L 30 21.828125 Z M 17.449219 9.277344 "/>
</g>
<linearGradient id="linear2" gradientUnits="userSpaceOnUse" x1="16" y1="29.999973" x2="16" y2="2" gradientTransform="matrix(0.896552,0,0,0.896552,-1.793103,-1.793103)">
<stop offset="0" style="stop-color:rgb(48.627451%,72.941176%,97.254902%);stop-opacity:1;"/>
<stop offset="1" style="stop-color:rgb(95.686275%,98.823529%,100%);stop-opacity:1;"/>
</linearGradient>
</defs>
<g id="surface1">
<path style=" stroke:none;fill-rule:nonzero;fill:url(#linear0);" d="M 12.5 1 C 18.851562 1 24 6.148438 24 12.5 C 24 18.851562 18.851562 24 12.5 24 C 6.148438 24 1 18.851562 1 12.5 C 1 6.148438 6.148438 1 12.5 1 Z M 12.5 1 "/>
<use xlink:href="#surface6" transform="matrix(1,0,0,1,-4,-3)" mask="url(#mask0)"/>
<path style=" stroke:none;fill-rule:nonzero;fill:url(#linear2);" d="M 12.550781 0 C 5.75 0 0.257812 5.359375 0.0234375 12.101562 C 0.015625 12.253906 0 12.398438 0 12.550781 C 0 19.503906 5.597656 25.101562 12.550781 25.101562 C 19.503906 25.101562 25.101562 19.503906 25.101562 12.550781 C 25.101562 12.398438 25.085938 12.253906 25.082031 12.101562 C 24.84375 5.359375 19.355469 0 12.550781 0 Z M 12.5 1 C 18.957031 1 24 6.042969 24 12.5 C 24 18.957031 18.957031 24 12.5 24 C 6.042969 24 1 18.957031 1 12.5 C 1 6.042969 6.042969 1 12.5 1 Z M 11.65625 6.277344 L 11.65625 8.070312 L 13.449219 8.070312 L 13.449219 6.277344 Z M 11.65625 9.863281 L 11.65625 18.828125 L 13.449219 18.828125 L 13.449219 9.863281 Z M 11.65625 9.863281 "/>
</g>
</svg>
