<?xml version="1.0" encoding="UTF-8"?>
<svg xmlns="http://www.w3.org/2000/svg" xmlns:xlink="http://www.w3.org/1999/xlink" width="26pt" height="26.00002pt" viewBox="0 0 26 26.00002" version="1.1">
<defs>
<linearGradient id="linear0" gradientUnits="userSpaceOnUse" x1="26.21154" y1="43.999989" x2="26.21154" y2="6.999989" gradientTransform="matrix(-0.702703,0,0,0.702703,30.91892,-4.91891)">
<stop offset="0" style="stop-color:rgb(98.039216%,68.235294%,16.470588%);stop-opacity:1;"/>
<stop offset="1" style="stop-color:rgb(100%,76.470588%,35.294118%);stop-opacity:1;"/>
</linearGradient>
<filter id="alpha" filterUnits="objectBoundingBox" x="0%" y="0%" width="100%" height="100%">
  <feColorMatrix type="matrix" in="SourceGraphic" values="0 0 0 0 1 0 0 0 0 1 0 0 0 0 1 0 0 0 1 0"/>
</filter>
<mask id="mask0">
  <g filter="url(#alpha)">
<rect x="0" y="0" width="26" height="26.00002" style="fill:rgb(0%,0%,0%);fill-opacity:0.2;stroke:none;"/>
  </g>
</mask>
<linearGradient id="linear1" gradientUnits="userSpaceOnUse" x1="17.000002" y1="12.999999" x2="45.000004" y2="41" gradientTransform="matrix(0.5,0,0,0.5,1,1)">
<stop offset="0" style="stop-color:rgb(16.078431%,17.254902%,18.431373%);stop-opacity:1;"/>
<stop offset="1" style="stop-color:rgb(0%,0%,0%);stop-opacity:0;"/>
</linearGradient>
<clipPath id="clip1">
  <rect width="33" height="33"/>
</clipPath>
<g id="surface6" clip-path="url(#clip1)">
<path style=" stroke:none;fill-rule:evenodd;fill:url(#linear1);" d="M 17 7.5 L 17 8.5 L 23 18.890625 L 23.351562 19.5 L 10.5 19.5 L 15.664062 24.664062 L 17 23 L 30 22.972656 L 30 20.5 Z M 17 7.5 "/>
</g>
<linearGradient id="linear2" gradientUnits="userSpaceOnUse" x1="16" y1="29.999973" x2="16" y2="2" gradientTransform="matrix(1,0,0,-1,-3,23.5)">
<stop offset="0" style="stop-color:rgb(98.823529%,85.098039%,58.039216%);stop-opacity:1;"/>
<stop offset="1" style="stop-color:rgb(100%,96.470588%,88.235294%);stop-opacity:1;"/>
</linearGradient>
</defs>
<g id="surface1">
<path style=" stroke:none;fill-rule:evenodd;fill:url(#linear0);" d="M 26 0 L 26 18.972656 L 13 19 L 6 26 L 6 19 L 0 18.972656 L 0 0 Z M 26 0 "/>
<path style=" stroke:none;fill-rule:evenodd;fill:rgb(89.803922%,57.647059%,1.960784%);fill-opacity:1;" d="M 0 18 L 0 19 L 6 19 L 6 18 Z M 13 18 L 6 25 L 6 26 L 13 19 L 26 18.972656 L 26 18 Z M 13 18 "/>
<use xlink:href="#surface6" transform="matrix(1,0,0,1,-4,-4)" mask="url(#mask0)"/>
<path style=" stroke:none;fill-rule:nonzero;fill:url(#linear2);" d="M 13 3.5 L 6.425781 15.5 L 6.996094 15.5 L 7 15.492188 L 7 15.5 L 19 15.5 L 19 15.492188 L 19.003906 15.5 L 19.574219 15.5 Z M 13 4.539062 L 18.730469 15 L 7.269531 15 Z M 12.5 7 L 12.5 12 L 13.5 12 L 13.5 7 Z M 12.5 13 L 12.5 14 L 13.5 14 L 13.5 13 Z M 12.5 13 "/>
</g>
</svg>
