<?xml version="1.0" encoding="UTF-8"?>
<svg xmlns="http://www.w3.org/2000/svg" xmlns:xlink="http://www.w3.org/1999/xlink" width="89.6pt" height="112pt" viewBox="0 0 89.6 112" version="1.1">
<defs>
<linearGradient id="linear0" gradientUnits="userSpaceOnUse" x1="560.78583" y1="785.70648" x2="560.78583" y2="727.70654" gradientTransform="matrix(2.036363,0,0,1.931036,-1097.163676,-1405.227516)">
<stop offset="0" style="stop-color:rgb(55.686275%,26.666667%,67.843137%);stop-opacity:1;"/>
<stop offset="1" style="stop-color:rgb(60.784314%,34.901961%,71.372549%);stop-opacity:1;"/>
</linearGradient>
<filter id="alpha" filterUnits="objectBoundingBox" x="0%" y="0%" width="100%" height="100%">
  <feColorMatrix type="matrix" in="SourceGraphic" values="0 0 0 0 1 0 0 0 0 1 0 0 0 0 1 0 0 0 1 0"/>
</filter>
<mask id="mask0">
  <g filter="url(#alpha)">
<rect x="0" y="0" width="89.6" height="112" style="fill:rgb(0%,0%,0%);fill-opacity:0.2;stroke:none;"/>
  </g>
</mask>
<linearGradient id="linear1" gradientUnits="userSpaceOnUse" x1="400.571441" y1="515.798" x2="416.571415" y2="531.797973" gradientTransform="matrix(2.8,0,0,2.8,-1079.200004,-1402.6344)">
<stop offset="0" style="stop-color:rgb(21.960784%,24.313725%,31.764706%);stop-opacity:1;"/>
<stop offset="1" style="stop-color:rgb(39.607843%,36.078431%,43.529412%);stop-opacity:0;"/>
</linearGradient>
<clipPath id="clip1">
  <rect width="129" height="128"/>
</clipPath>
<g id="surface6" clip-path="url(#clip1)">
<path style=" stroke:none;fill-rule:evenodd;fill:url(#linear1);" d="M 48 44.398438 L 42.398438 47.199219 L 42.398438 80.800781 L 79.0625 120 L 109.601562 120 L 109.601562 69.601562 L 84.398438 44.398438 L 82.902344 45.703125 L 81.601562 44.398438 Z M 48 44.398438 "/>
</g>
<linearGradient id="linear2" gradientUnits="userSpaceOnUse" x1="24" y1="32" x2="24" y2="16" gradientTransform="matrix(2.8,0,0,2.8,-22.4,-11.2)">
<stop offset="0" style="stop-color:rgb(72.54902%,52.156863%,80.784314%);stop-opacity:1;"/>
<stop offset="1" style="stop-color:rgb(88.627451%,80.392157%,92.156863%);stop-opacity:1;"/>
</linearGradient>
</defs>
<g id="surface1">
<path style=" stroke:none;fill-rule:nonzero;fill:url(#linear0);" d="M 0.0273438 0 C 0.0117188 0 0 9.992188 0 22.398438 L 0 89.601562 C 0 102.007812 0.0117188 112 0.0273438 112 L 89.574219 112 C 89.589844 112 89.601562 102.007812 89.601562 89.601562 L 89.601562 33.601562 L 56 0 Z M 0.0273438 0 "/>
<path style=" stroke:none;fill-rule:nonzero;fill:rgb(44.313725%,24.313725%,53.333333%);fill-opacity:1;" d="M 89.542969 28 C 89.5625 27.976562 89.574219 21.769531 89.574219 14.027344 C 89.574219 6.269531 89.5625 0.0273438 89.542969 0.0273438 L 61.597656 0.0273438 C 61.597656 0.0273438 61.597656 0.0546875 61.597656 0.0546875 Z M 89.542969 28 "/>
<path style=" stroke:none;fill-rule:nonzero;fill:rgb(18.039216%,19.215686%,19.607843%);fill-opacity:0.294118;" d="M 0 109.199219 L 89.601562 109.199219 L 89.601562 112 L 0 112 Z M 0 109.199219 "/>
<use xlink:href="#surface6" transform="matrix(1,0,0,1,-20,-8)" mask="url(#mask0)"/>
<path style=" stroke:none;fill-rule:nonzero;fill:url(#linear2);" d="M 44.800781 33.601562 C 32.429688 33.601562 22.398438 36.105469 22.398438 39.199219 L 22.398438 72.800781 C 22.398438 75.894531 32.429688 78.398438 44.800781 78.398438 C 57.171875 78.398438 67.199219 75.894531 67.199219 72.800781 L 67.199219 39.199219 C 67.199219 36.105469 57.171875 33.601562 44.800781 33.601562 Z M 44.800781 36.398438 C 55.625 36.398438 64.398438 37.652344 64.398438 39.199219 C 64.398438 40.746094 55.625 42 44.800781 42 C 33.976562 42 25.199219 40.746094 25.199219 39.199219 C 25.199219 37.652344 33.976562 36.398438 44.800781 36.398438 Z M 25.199219 41.859375 C 28.996094 43.601562 36.296875 44.800781 44.800781 44.800781 C 53.300781 44.800781 60.605469 43.601562 64.398438 41.859375 L 64.398438 50.398438 C 64.398438 51.945312 55.625 53.199219 44.800781 53.199219 C 33.976562 53.199219 25.199219 51.945312 25.199219 50.398438 Z M 25.199219 53.058594 C 28.996094 54.800781 36.296875 56 44.800781 56 C 53.300781 56 60.605469 54.800781 64.398438 53.058594 L 64.398438 61.601562 C 64.398438 63.144531 55.625 64.398438 44.800781 64.398438 C 33.976562 64.398438 25.199219 63.144531 25.199219 61.601562 Z M 25.199219 64.257812 C 28.996094 66.003906 36.296875 67.199219 44.800781 67.199219 C 53.300781 67.199219 60.605469 66.003906 64.398438 64.257812 L 64.398438 72.800781 C 64.398438 74.347656 55.625 75.601562 44.800781 75.601562 C 33.976562 75.601562 25.199219 74.347656 25.199219 72.800781 Z M 25.199219 64.257812 "/>
</g>
</svg>
