<?xml version="1.0" encoding="UTF-8"?>
<svg xmlns="http://www.w3.org/2000/svg" xmlns:xlink="http://www.w3.org/1999/xlink" width="17.375pt" height="9pt" viewBox="0 0 17.375 9" version="1.1">
<g id="surface1">
<path style=" stroke:none;fill-rule:nonzero;fill:rgb(30.196078%,30.196078%,30.196078%);fill-opacity:1;" d="M 8.6875 0 C 5.089844 0.00390625 1.773438 1.941406 0 5.070312 C 0.183594 5.363281 0.445312 5.597656 0.75 5.761719 C 2.316406 2.832031 5.367188 1 8.6875 1 C 6.476562 1 4.6875 2.789062 4.6875 5 C 4.6875 7.210938 6.476562 9 8.6875 9 C 10.894531 9 12.6875 7.210938 12.6875 5 C 12.683594 2.925781 11.097656 1.195312 9.03125 1.015625 C 12.222656 1.140625 15.109375 2.945312 16.617188 5.761719 C 16.925781 5.597656 17.1875 5.359375 17.375 5.0625 C 15.601562 1.9375 12.28125 0.00390625 8.6875 0 Z M 8.6875 2 C 10.34375 2 11.6875 3.34375 11.6875 5 C 11.6875 6.65625 10.34375 8 8.6875 8 C 7.027344 8 5.6875 6.65625 5.6875 5 C 5.6875 3.34375 7.027344 2 8.6875 2 Z M 8.6875 3 C 7.578125 3 6.6875 3.890625 6.6875 5 C 6.6875 6.109375 7.578125 7 8.6875 7 C 9.792969 7 10.6875 6.109375 10.6875 5 C 10.6875 4.796875 10.648438 4.601562 10.589844 4.417969 C 10.433594 4.757812 10.089844 5 9.6875 5 C 9.132812 5 8.6875 4.554688 8.6875 4 C 8.6875 3.59375 8.925781 3.253906 9.269531 3.09375 C 9.082031 3.039062 8.890625 3 8.6875 3 Z M 8.6875 3 "/>
</g>
</svg>
