<?xml version="1.0" encoding="UTF-8"?>
<svg xmlns="http://www.w3.org/2000/svg" xmlns:xlink="http://www.w3.org/1999/xlink" width="12pt" height="12pt" viewBox="0 0 12 12" version="1.1">
<g id="surface1">
<path style=" stroke:none;fill-rule:nonzero;fill:rgb(30.196078%,30.196078%,30.196078%);fill-opacity:1;" d="M 0 0 L 0 12 L 7 12 L 7 11 L 1 11 L 1 5 L 11 5 L 11 7 L 12 7 L 12 2 L 7 2 L 5 0 Z M 1 1 L 4.59375 1 L 5.59375 2 L 5 2 L 3 4 L 1 4 Z M 9.5 8 L 9.5 9.5 L 8 9.5 L 8 10.5 L 9.5 10.5 L 9.5 12 L 10.5 12 L 10.5 10.5 L 12 10.5 L 12 9.5 L 10.5 9.5 L 10.5 8 Z M 9.5 8 "/>
</g>
</svg>
