<?xml version="1.0" encoding="UTF-8"?>
<svg xmlns="http://www.w3.org/2000/svg" xmlns:xlink="http://www.w3.org/1999/xlink" width="12pt" height="12pt" viewBox="0 0 12 12" version="1.1">
<g id="surface1">
<path style=" stroke:none;fill-rule:nonzero;fill:rgb(30.196078%,30.196078%,30.196078%);fill-opacity:1;" d="M 0 0 L 0 12 L 12 12 L 12 0 Z M 1 1 L 11 1 L 11 9 L 6 9 L 6 10 L 4 10 L 4 9 L 1 9 Z M 2 2 L 2 8 L 10 8 L 10 2 Z M 3 3 L 4 3 L 4 5 L 8 5 L 8 3 L 9 3 L 9 7 L 3 7 Z M 1 10 L 3 10 L 3 11 L 1 11 Z M 7 10 L 10 10 L 10 11 L 7 11 Z M 7 10 "/>
</g>
</svg>
