<?xml version="1.0" encoding="UTF-8"?>
<svg xmlns="http://www.w3.org/2000/svg" xmlns:xlink="http://www.w3.org/1999/xlink" width="20pt" height="22pt" viewBox="0 0 20 22" version="1.1">
<g id="surface1">
<path style=" stroke:none;fill-rule:nonzero;fill:rgb(11.372549%,60%,95.294118%);fill-opacity:1;" d="M 4 4 L 4 18 L 16 18 L 16 16 L 6 16 L 6 6 L 10 6 L 10 4 Z M 4 4 "/>
<path style=" stroke:none;fill-rule:nonzero;fill:rgb(30.196078%,30.196078%,30.196078%);fill-opacity:1;" d="M 0 0 L 0 22 L 20 22 L 20 5 L 15 0 Z M 2 2 L 13 2 L 13 7 L 18 7 L 18 20 L 2 20 Z M 8 8 L 8 10 L 16 10 L 16 8 Z M 8 12 L 8 14 L 16 14 L 16 12 Z M 8 12 "/>
</g>
</svg>
