<?xml version="1.0" encoding="UTF-8"?>
<svg xmlns="http://www.w3.org/2000/svg" xmlns:xlink="http://www.w3.org/1999/xlink" width="22pt" height="22pt" viewBox="0 0 22 22" version="1.1">
<g id="surface1">
<path style=" stroke:none;fill-rule:nonzero;fill:rgb(30.196078%,30.196078%,30.196078%);fill-opacity:1;" d="M 11 0 C 4.925781 0 0 4.925781 0 11 C 0 17.074219 4.925781 22 11 22 C 17.074219 22 22 17.074219 22 11 C 22 4.925781 17.074219 0 11 0 Z M 11 2 C 12.554688 2 14.007812 2.402344 15.28125 3.09375 C 15.300781 3.105469 15.324219 3.113281 15.34375 3.125 C 15.355469 3.136719 15.359375 3.148438 15.375 3.15625 C 15.421875 3.183594 15.484375 3.191406 15.53125 3.21875 C 15.535156 3.222656 15.527344 3.246094 15.53125 3.25 C 15.539062 3.269531 15.566406 3.292969 15.5625 3.3125 C 15.546875 3.386719 15.425781 3.347656 15.375 3.40625 C 15.382812 3.511719 15.308594 3.554688 15.28125 3.625 C 15.296875 3.671875 15.367188 3.664062 15.375 3.71875 C 15.367188 3.777344 15.257812 3.78125 15.28125 3.84375 C 15.378906 3.921875 15.5 3.792969 15.59375 3.78125 C 15.796875 3.753906 16 3.847656 16.125 3.75 C 16.117188 3.710938 16.160156 3.683594 16.1875 3.65625 C 16.230469 3.6875 16.269531 3.71875 16.3125 3.75 C 16.289062 3.746094 16.269531 3.738281 16.25 3.75 C 16.199219 3.785156 16.183594 3.867188 16.125 3.90625 C 16.082031 3.933594 15.949219 4.0625 15.90625 4.0625 C 15.855469 4.0625 15.757812 3.988281 15.71875 4 C 15.664062 4.019531 15.71875 4.101562 15.65625 4.125 C 15.535156 4.167969 15.292969 4.035156 15.25 4.21875 C 15.300781 4.324219 15.472656 4.285156 15.5625 4.34375 C 15.621094 4.378906 15.703125 4.53125 15.71875 4.59375 C 15.734375 4.644531 15.738281 4.851562 15.71875 4.90625 C 15.664062 5.050781 15.511719 5.035156 15.34375 5.03125 L 15.21875 5.03125 C 14.933594 5.011719 14.660156 4.921875 14.53125 5.125 C 14.539062 5.28125 14.566406 5.367188 14.53125 5.5 C 14.507812 5.597656 14.402344 5.695312 14.40625 5.78125 C 14.410156 5.824219 14.457031 5.878906 14.46875 5.9375 C 14.476562 5.96875 14.453125 6.035156 14.46875 6.0625 C 14.515625 6.152344 14.667969 6.046875 14.75 6.0625 C 14.832031 6.078125 14.90625 6.25 14.90625 6.34375 C 14.90625 6.40625 14.855469 6.472656 14.8125 6.53125 C 14.734375 6.652344 14.582031 6.652344 14.46875 6.71875 C 14.371094 6.773438 14.367188 6.875 14.3125 6.96875 C 14.253906 7.070312 14.195312 7.132812 14.21875 7.28125 C 14.136719 7.441406 14.046875 7.546875 13.875 7.625 C 13.824219 7.648438 13.765625 7.6875 13.71875 7.71875 C 13.679688 7.746094 13.644531 7.785156 13.59375 7.84375 C 13.527344 7.914062 13.441406 7.945312 13.40625 8 C 13.378906 8.042969 13.402344 8.132812 13.375 8.1875 C 13.335938 8.265625 13.238281 8.328125 13.1875 8.40625 C 13.164062 8.441406 13.121094 8.484375 13.09375 8.53125 C 13.035156 8.636719 12.960938 8.71875 12.96875 8.8125 C 12.976562 8.902344 13.085938 8.921875 13.09375 9 C 13.097656 9.042969 13.058594 9.078125 13.0625 9.125 C 13.0625 9.195312 13.089844 9.226562 13.09375 9.28125 C 13.109375 9.417969 13.058594 9.46875 13.03125 9.5625 C 13.019531 9.605469 13.042969 9.652344 13.03125 9.6875 C 13.007812 9.757812 12.875 9.828125 12.875 9.90625 C 12.875 9.964844 12.964844 10.042969 12.96875 10.125 C 12.972656 10.179688 12.929688 10.199219 12.9375 10.25 C 12.957031 10.351562 13.171875 10.453125 13.25 10.53125 C 13.351562 10.632812 13.453125 10.734375 13.5 10.84375 C 13.539062 10.9375 13.550781 11.085938 13.625 11.15625 C 13.679688 11.207031 13.773438 11.226562 13.84375 11.28125 C 13.910156 11.332031 13.996094 11.351562 14.0625 11.40625 C 14.175781 11.496094 14.289062 11.667969 14.46875 11.65625 C 14.5625 11.640625 14.675781 11.582031 14.78125 11.5625 C 14.890625 11.542969 15.015625 11.519531 15.125 11.53125 C 15.207031 11.546875 15.285156 11.628906 15.375 11.625 C 15.46875 11.625 15.582031 11.546875 15.6875 11.5 C 15.867188 11.421875 16.140625 11.273438 16.40625 11.3125 C 16.605469 11.339844 16.609375 11.628906 16.75 11.71875 C 16.914062 11.734375 17.058594 11.625 17.1875 11.65625 C 17.285156 11.679688 17.398438 11.828125 17.40625 11.90625 C 17.414062 11.984375 17.324219 12.078125 17.3125 12.125 C 17.289062 12.230469 17.300781 12.367188 17.28125 12.4375 C 17.265625 12.488281 17.21875 12.539062 17.21875 12.59375 C 17.21875 12.640625 17.324219 12.8125 17.375 12.875 C 17.433594 12.953125 17.488281 13.011719 17.5625 13.09375 C 17.683594 13.242188 17.785156 13.402344 17.875 13.59375 C 17.898438 13.644531 17.851562 13.714844 17.875 13.78125 C 17.835938 14.089844 17.734375 14.285156 17.53125 14.625 C 17.4375 14.734375 17.308594 14.832031 17.3125 14.96875 C 17.304688 15.296875 17.515625 15.492188 17.5 15.8125 C 17.46875 16.242188 17.53125 16.269531 17.5 16.5 C 17.644531 16.574219 17.542969 16.847656 17.5 17 C 17.4375 17.179688 17.347656 17.222656 17.3125 17.34375 C 17.332031 17.351562 17.355469 17.339844 17.375 17.34375 C 17.371094 17.347656 17.378906 17.371094 17.375 17.375 C 15.746094 19.003906 13.484375 20 11 20 C 9.878906 20 8.804688 19.78125 7.8125 19.40625 C 7.878906 19.414062 7.933594 19.410156 7.96875 19.34375 C 8.003906 19.28125 7.921875 19.160156 7.96875 19.09375 C 8 19.050781 8.179688 19.011719 8.25 19 C 8.347656 18.984375 8.445312 18.996094 8.5 18.96875 C 8.558594 18.929688 8.664062 18.800781 8.65625 18.6875 C 8.652344 18.632812 8.605469 18.609375 8.5625 18.5625 C 8.527344 18.523438 8.523438 18.476562 8.5 18.4375 C 8.457031 18.371094 8.394531 18.371094 8.375 18.28125 C 8.507812 18.253906 8.714844 18.429688 8.90625 18.375 C 8.996094 18.347656 9.113281 18.117188 9.15625 18.03125 C 9.171875 18.003906 9.140625 17.96875 9.15625 17.9375 C 9.171875 17.902344 9.246094 17.863281 9.25 17.84375 C 9.265625 17.792969 9.238281 17.75 9.25 17.71875 C 9.28125 17.625 9.351562 17.601562 9.40625 17.53125 C 9.449219 17.480469 9.492188 17.425781 9.53125 17.375 C 9.574219 17.320312 9.597656 17.238281 9.625 17.1875 C 9.652344 17.019531 9.554688 16.929688 9.59375 16.78125 C 9.636719 16.617188 9.871094 16.542969 10.03125 16.46875 C 10.085938 16.441406 10.140625 16.394531 10.1875 16.375 C 10.296875 16.335938 10.429688 16.320312 10.53125 16.28125 C 10.703125 16.21875 10.757812 16.0625 10.84375 15.90625 C 10.882812 15.832031 10.929688 15.738281 10.9375 15.6875 C 10.945312 15.640625 10.929688 15.617188 10.9375 15.5625 C 10.945312 15.507812 10.953125 15.464844 10.96875 15.40625 C 10.988281 15.328125 11 15.183594 11 15.09375 C 11 15.019531 10.972656 14.972656 10.96875 14.90625 C 10.957031 14.667969 11.035156 14.628906 11.125 14.5 C 11.167969 14.433594 11.1875 14.359375 11.21875 14.3125 C 11.367188 14.089844 11.644531 13.992188 11.625 13.65625 C 11.617188 13.546875 11.550781 13.316406 11.46875 13.28125 C 11.421875 13.261719 11.347656 13.277344 11.28125 13.25 C 11.0625 13.167969 10.882812 12.859375 10.65625 12.84375 C 10.609375 12.84375 10.585938 12.90625 10.53125 12.90625 C 10.441406 12.90625 10.316406 12.828125 10.21875 12.8125 C 10.15625 12.796875 10.070312 12.832031 10.03125 12.8125 C 9.972656 12.785156 9.984375 12.65625 9.9375 12.625 C 9.898438 12.601562 9.804688 12.617188 9.75 12.59375 C 9.660156 12.558594 9.605469 12.511719 9.5 12.5 L 9.375 12.5 C 9.316406 12.484375 9.242188 12.46875 9.1875 12.4375 C 9.121094 12.398438 9.089844 12.339844 9.0625 12.28125 C 9.121094 12.082031 8.945312 12.050781 8.90625 11.9375 C 8.886719 11.882812 8.925781 11.828125 8.90625 11.78125 C 8.882812 11.710938 8.792969 11.648438 8.71875 11.59375 C 8.585938 11.492188 8.503906 11.429688 8.3125 11.40625 C 8.230469 11.390625 8.101562 11.40625 8 11.40625 C 7.894531 11.390625 7.765625 11.3125 7.6875 11.21875 C 7.609375 11.128906 7.597656 11.042969 7.53125 11 C 7.464844 10.960938 7.355469 10.949219 7.3125 10.90625 C 7.292969 10.886719 7.300781 10.886719 7.28125 10.84375 C 7.25 10.777344 7.175781 10.703125 7.21875 10.625 C 7.144531 10.589844 7.175781 10.730469 7.09375 10.71875 C 7.023438 10.617188 6.945312 10.535156 6.78125 10.5625 C 6.707031 10.578125 6.679688 10.652344 6.59375 10.65625 C 6.523438 10.65625 6.46875 10.578125 6.375 10.5625 C 6.304688 10.546875 6.207031 10.632812 6.15625 10.625 C 6.078125 10.609375 6.039062 10.546875 5.96875 10.5 C 5.917969 10.464844 5.839844 10.375 5.8125 10.375 C 5.71875 10.375 5.628906 10.566406 5.5 10.5 C 5.4375 10.421875 5.636719 10.386719 5.5625 10.3125 C 5.507812 10.257812 5.453125 10.347656 5.40625 10.375 C 5.355469 10.410156 5.304688 10.414062 5.25 10.4375 C 5.125 10.484375 5.035156 10.476562 4.9375 10.53125 C 4.847656 10.578125 4.832031 10.65625 4.78125 10.75 C 4.738281 10.828125 4.65625 10.964844 4.59375 10.96875 C 4.515625 10.96875 4.445312 10.875 4.375 10.84375 C 4.164062 10.753906 4.050781 10.871094 3.875 10.875 C 3.710938 10.875 3.492188 10.652344 3.5 10.5 C 3.503906 10.40625 3.550781 10.273438 3.5625 10.15625 C 3.570312 10.066406 3.65625 9.957031 3.65625 9.875 C 3.65625 9.761719 3.480469 9.699219 3.40625 9.6875 C 3.234375 9.65625 3.007812 9.773438 2.8125 9.6875 C 2.773438 9.625 2.851562 9.558594 2.875 9.5 C 2.886719 9.464844 2.863281 9.445312 2.875 9.40625 C 2.898438 9.347656 2.972656 9.3125 3 9.25 C 3.019531 9.203125 3.042969 9.121094 3.0625 9.0625 C 3.085938 8.996094 3.152344 8.953125 3.15625 8.90625 C 3.164062 8.84375 3.113281 8.761719 3.0625 8.71875 C 2.910156 8.734375 2.804688 8.738281 2.71875 8.78125 C 2.519531 8.871094 2.574219 9.121094 2.375 9.1875 C 2.324219 9.203125 2.253906 9.234375 2.1875 9.25 C 2.316406 8.597656 2.519531 7.96875 2.78125 7.375 C 2.8125 7.398438 2.839844 7.433594 2.875 7.4375 C 3.042969 7.453125 3.078125 7.292969 3.21875 7.21875 C 3.363281 7.238281 3.433594 7.203125 3.5625 7.21875 C 3.652344 7.234375 3.773438 7.339844 3.84375 7.34375 C 3.902344 7.34375 3.914062 7.273438 3.96875 7.28125 C 4.023438 7.296875 4.117188 7.402344 4.125 7.46875 C 4.132812 7.550781 4.070312 7.660156 4.09375 7.75 C 4.179688 7.839844 4.34375 7.824219 4.46875 7.875 C 4.550781 7.808594 4.480469 7.722656 4.46875 7.625 C 4.464844 7.582031 4.472656 7.507812 4.46875 7.46875 C 4.460938 7.402344 4.4375 7.367188 4.4375 7.3125 C 4.4375 7.050781 4.636719 6.882812 4.8125 6.78125 C 4.886719 6.734375 4.964844 6.691406 5.03125 6.65625 C 5.125 6.609375 5.171875 6.574219 5.25 6.53125 C 5.390625 6.453125 5.515625 6.398438 5.625 6.3125 C 5.675781 6.195312 5.621094 6.054688 5.625 5.9375 C 5.675781 5.90625 5.695312 5.9375 5.75 5.9375 C 5.832031 5.917969 5.890625 5.796875 5.9375 5.75 C 5.964844 5.722656 6.027344 5.714844 6.0625 5.6875 C 6.144531 5.621094 6.175781 5.527344 6.25 5.5 C 6.277344 5.484375 6.332031 5.488281 6.375 5.46875 C 6.429688 5.453125 6.503906 5.40625 6.59375 5.375 C 6.652344 5.355469 6.757812 5.367188 6.78125 5.34375 C 6.808594 5.316406 6.773438 5.199219 6.78125 5.15625 C 6.824219 4.949219 7.160156 4.945312 7.34375 4.875 C 7.472656 4.824219 7.609375 4.691406 7.75 4.71875 C 7.722656 4.816406 7.601562 4.785156 7.625 4.90625 C 7.65625 5.074219 7.847656 4.898438 7.90625 4.875 C 8.019531 4.828125 8.226562 4.773438 8.375 4.71875 C 8.503906 4.671875 8.714844 4.617188 8.59375 4.46875 C 8.492188 4.46875 8.464844 4.554688 8.375 4.59375 C 8.316406 4.609375 8.300781 4.570312 8.25 4.5625 C 8.199219 4.5625 8.175781 4.601562 8.125 4.59375 C 8.074219 4.578125 8.007812 4.496094 8 4.4375 C 7.980469 4.285156 8.15625 4.238281 8.21875 4.125 C 8.175781 3.984375 7.992188 4.085938 7.875 4.03125 C 7.886719 3.949219 7.933594 3.890625 8.03125 3.875 C 8.109375 3.859375 8.296875 3.878906 8.34375 3.90625 C 8.371094 3.929688 8.332031 3.992188 8.375 4.03125 C 8.421875 4.074219 8.503906 4.046875 8.5625 4.03125 C 8.585938 3.925781 8.421875 3.976562 8.4375 3.90625 C 8.5625 3.824219 8.785156 3.894531 8.9375 3.875 C 9.023438 3.859375 9.109375 3.792969 9.1875 3.75 C 9.261719 3.710938 9.328125 3.621094 9.40625 3.6875 C 9.429688 3.761719 9.355469 3.773438 9.3125 3.8125 C 9.171875 3.9375 9.046875 4.105469 8.9375 4.25 C 9.003906 4.316406 9.136719 4.300781 9.25 4.3125 C 9.292969 4.3125 9.328125 4.335938 9.375 4.34375 C 9.429688 4.359375 9.488281 4.328125 9.53125 4.34375 C 9.609375 4.363281 9.644531 4.46875 9.71875 4.46875 C 9.84375 4.46875 9.820312 4.304688 9.75 4.21875 C 9.773438 4.132812 9.84375 4.09375 9.8125 4.03125 C 9.757812 3.917969 9.511719 4.054688 9.5 3.90625 C 9.492188 3.8125 9.59375 3.820312 9.625 3.75 C 9.609375 3.574219 9.765625 3.5625 9.75 3.40625 C 9.742188 3.339844 9.671875 3.34375 9.625 3.28125 C 9.601562 3.25 9.621094 3.148438 9.59375 3.125 C 9.496094 3.042969 9.292969 3.09375 9.28125 2.9375 C 9.277344 2.847656 9.296875 2.757812 9.28125 2.65625 C 9.269531 2.5625 9.207031 2.300781 9.125 2.28125 C 9.023438 2.257812 8.9375 2.441406 8.8125 2.5 C 8.746094 2.53125 8.628906 2.542969 8.5625 2.53125 C 8.519531 2.515625 8.445312 2.492188 8.4375 2.40625 C 8.4375 2.390625 8.4375 2.386719 8.4375 2.375 C 9.246094 2.136719 10.113281 2 11 2 Z M 7.21875 2.84375 C 7.097656 3.058594 6.855469 3.1875 6.5625 3.1875 C 6.777344 3.066406 6.992188 2.949219 7.21875 2.84375 Z M 14.9375 3.0625 C 14.917969 3.070312 14.898438 3.082031 14.875 3.09375 C 14.804688 3.136719 14.804688 3.199219 14.75 3.21875 C 14.675781 3.246094 14.574219 3.238281 14.5625 3.3125 C 14.554688 3.367188 14.597656 3.382812 14.59375 3.4375 C 14.566406 3.503906 14.546875 3.542969 14.53125 3.625 C 14.625 3.777344 14.820312 3.589844 14.9375 3.5625 C 14.988281 3.546875 15.066406 3.574219 15.09375 3.53125 C 15.125 3.484375 15.101562 3.382812 15.125 3.3125 C 15.152344 3.234375 15.226562 3.257812 15.21875 3.1875 C 15.210938 3.125 15.074219 3.0625 14.96875 3.0625 Z M 6.53125 3.21875 C 6.472656 3.300781 6.480469 3.429688 6.4375 3.53125 C 6.398438 3.625 6.28125 3.695312 6.1875 3.6875 C 6.117188 3.6875 6.03125 3.59375 6.03125 3.53125 C 6.03125 3.519531 6.027344 3.511719 6.03125 3.5 C 6.191406 3.394531 6.367188 3.3125 6.53125 3.21875 Z M 5.03125 4.25 C 5.085938 4.332031 5.109375 4.421875 5 4.46875 C 4.988281 4.480469 4.871094 4.496094 4.78125 4.5 C 4.867188 4.417969 4.941406 4.328125 5.03125 4.25 Z M 5.25 4.5625 C 5.292969 4.5625 5.324219 4.648438 5.375 4.65625 C 5.425781 4.65625 5.46875 4.585938 5.5 4.59375 C 5.578125 4.613281 5.605469 4.757812 5.53125 4.8125 C 5.472656 4.8125 5.453125 4.773438 5.40625 4.78125 C 5.28125 4.804688 5.25 5.039062 5.15625 5.03125 C 5.066406 5.015625 5.035156 4.847656 5.125 4.78125 C 5.128906 4.726562 5.058594 4.710938 5.0625 4.65625 C 5.089844 4.621094 5.175781 4.558594 5.25 4.5625 Z M 4.8125 4.59375 L 4.84375 4.59375 C 4.832031 4.691406 4.792969 4.734375 4.71875 4.78125 C 4.589844 4.859375 4.511719 4.957031 4.46875 5.125 C 4.457031 5.175781 4.3125 5.292969 4.25 5.28125 C 4.175781 5.265625 4.179688 5.203125 4.21875 5.125 C 4.257812 5.046875 4.328125 4.957031 4.34375 4.9375 C 4.371094 4.902344 4.40625 4.875 4.4375 4.84375 C 4.449219 4.832031 4.457031 4.824219 4.46875 4.8125 C 4.523438 4.753906 4.566406 4.683594 4.625 4.625 C 4.683594 4.613281 4.753906 4.59375 4.8125 4.59375 Z M 17.21875 4.84375 C 17.363281 4.828125 17.464844 5.035156 17.53125 5.125 C 17.585938 5.199219 17.753906 5.261719 17.84375 5.3125 C 17.894531 5.339844 17.945312 5.382812 18 5.40625 C 18.019531 5.414062 18.039062 5.453125 18.0625 5.46875 C 18.148438 5.578125 18.261719 5.667969 18.34375 5.78125 C 18.332031 5.8125 18.304688 5.832031 18.3125 5.875 C 18.335938 5.878906 18.355469 5.851562 18.375 5.84375 C 18.617188 6.191406 18.839844 6.554688 19.03125 6.9375 C 19.023438 6.953125 19.003906 6.953125 19 6.96875 C 18.980469 7.070312 19.058594 7.199219 18.90625 7.21875 C 18.808594 7.234375 18.695312 7.121094 18.5625 7.09375 C 18.507812 7.078125 18.449219 7.113281 18.40625 7.09375 C 18.304688 7.058594 18.304688 6.933594 18.21875 6.875 C 18.167969 6.839844 18.046875 6.792969 17.96875 6.78125 L 17.84375 6.78125 C 17.78125 6.765625 17.675781 6.777344 17.625 6.75 C 17.574219 6.71875 17.449219 6.667969 17.4375 6.625 C 17.417969 6.558594 17.558594 6.464844 17.5625 6.40625 C 17.566406 6.363281 17.542969 6.347656 17.53125 6.28125 C 17.523438 6.242188 17.539062 6.183594 17.53125 6.15625 C 17.515625 6.109375 17.449219 6.066406 17.375 6.0625 C 17.308594 6.0625 17.242188 6.089844 17.1875 6.09375 C 17.105469 6.09375 16.945312 6.054688 16.84375 6.0625 C 16.785156 6.0625 16.742188 6.089844 16.6875 6.09375 C 16.527344 6.109375 16.40625 6.078125 16.28125 6.09375 C 16.191406 6.09375 16.019531 6.148438 15.9375 6.1875 C 15.894531 6.207031 15.867188 6.253906 15.8125 6.28125 C 15.789062 6.296875 15.75 6.296875 15.71875 6.3125 C 15.667969 6.335938 15.613281 6.390625 15.5625 6.40625 C 15.492188 6.425781 15.378906 6.40625 15.25 6.40625 C 15.15625 6.40625 15 6.390625 15 6.28125 C 15 6.113281 15.308594 6.1875 15.46875 6.15625 C 15.527344 6.140625 15.554688 6.074219 15.625 6.03125 C 15.660156 6.011719 15.6875 5.992188 15.71875 5.96875 C 15.773438 5.929688 15.898438 5.855469 15.90625 5.8125 C 15.914062 5.773438 15.839844 5.71875 15.84375 5.6875 C 15.851562 5.648438 15.949219 5.582031 16 5.53125 C 16.078125 5.457031 16.09375 5.394531 16.1875 5.34375 C 16.253906 5.308594 16.378906 5.304688 16.40625 5.25 C 16.414062 5.191406 16.40625 5.179688 16.40625 5.125 C 16.445312 5.089844 16.464844 5.039062 16.5 5.03125 C 16.597656 5.007812 16.695312 5.066406 16.8125 5.0625 C 16.863281 5.0625 16.914062 5.058594 16.96875 5.03125 C 17.015625 5 17.050781 4.960938 17.09375 4.9375 C 17.140625 4.914062 17.160156 4.851562 17.21875 4.84375 Z M 5.6875 4.9375 C 5.710938 4.933594 5.71875 4.941406 5.75 4.9375 L 5.90625 4.9375 C 5.953125 4.9375 6.011719 4.914062 6.03125 4.9375 C 6 5.058594 5.71875 5.011719 5.625 4.96875 C 5.628906 4.945312 5.664062 4.941406 5.6875 4.9375 Z M 5.34375 5.15625 C 5.375 5.15625 5.375 5.140625 5.40625 5.15625 C 5.320312 5.226562 5.207031 5.265625 5.0625 5.3125 C 4.992188 5.335938 4.917969 5.359375 4.90625 5.28125 C 4.890625 5.1875 4.964844 5.199219 5.03125 5.1875 C 5.109375 5.171875 5.25 5.160156 5.34375 5.15625 Z M 17.28125 5.15625 C 17.222656 5.175781 17.191406 5.296875 17.28125 5.3125 C 17.324219 5.289062 17.324219 5.234375 17.3125 5.15625 C 17.289062 5.132812 17.300781 5.15625 17.28125 5.15625 Z M 17.25 5.40625 C 17.222656 5.421875 17.1875 5.410156 17.15625 5.4375 C 17.15625 5.539062 17.175781 5.628906 17.15625 5.71875 C 17.214844 5.832031 17.34375 5.734375 17.375 5.65625 C 17.410156 5.464844 17.339844 5.382812 17.25 5.40625 Z M 17.9375 5.90625 C 17.898438 5.902344 17.867188 5.917969 17.84375 5.9375 C 17.910156 6.046875 18.039062 6.097656 18.1875 6.125 C 18.242188 6.085938 18.253906 6.007812 18.28125 5.9375 L 18.0625 5.9375 C 18.023438 5.9375 17.976562 5.910156 17.9375 5.90625 Z M 2.0625 9.84375 C 2.113281 9.910156 2.179688 9.964844 2.25 10 C 2.296875 10.023438 2.347656 10.019531 2.40625 10.03125 C 2.453125 10.046875 2.484375 10.078125 2.53125 10.09375 C 2.628906 10.125 2.765625 10.097656 2.84375 10.125 C 2.960938 10.175781 3.054688 10.410156 3.15625 10.46875 C 3.160156 10.527344 3.136719 10.613281 3.15625 10.65625 C 3.203125 10.722656 3.296875 10.738281 3.375 10.78125 C 3.46875 10.832031 3.472656 10.960938 3.5625 11 C 3.59375 11.015625 3.671875 10.984375 3.71875 11 C 3.839844 11.035156 3.863281 11.1875 3.96875 11.15625 C 4.039062 11.136719 4.050781 11.0625 4.0625 11 C 4.109375 10.949219 4.148438 10.875 4.21875 10.875 C 4.332031 10.875 4.363281 10.953125 4.40625 11.0625 C 4.429688 11.125 4.453125 11.214844 4.46875 11.28125 C 4.496094 11.394531 4.492188 11.742188 4.46875 11.8125 C 4.441406 11.898438 4.320312 11.9375 4.25 12.03125 C 4.21875 12.074219 4.214844 12.125 4.1875 12.15625 C 4.144531 12.210938 4.097656 12.230469 4.0625 12.28125 C 4.042969 12.308594 4.019531 12.367188 4 12.40625 C 3.945312 12.523438 3.859375 12.609375 3.90625 12.75 C 3.925781 12.808594 4 12.871094 4 12.9375 C 4 13.015625 3.859375 13.039062 3.84375 13.125 C 3.835938 13.191406 3.886719 13.320312 3.90625 13.40625 C 3.921875 13.472656 4.054688 13.519531 4.09375 13.5625 C 4.160156 13.636719 4.191406 13.71875 4.25 13.8125 C 4.367188 13.992188 4.449219 14.203125 4.5625 14.375 C 4.621094 14.464844 4.742188 14.5625 4.78125 14.65625 C 4.800781 14.703125 4.761719 14.769531 4.78125 14.8125 C 4.847656 14.960938 5.132812 15.113281 5.28125 15.1875 C 5.351562 15.222656 5.4375 15.207031 5.5 15.25 C 5.597656 15.304688 5.792969 15.445312 5.84375 15.53125 C 5.886719 15.609375 5.914062 15.816406 5.9375 15.9375 C 5.964844 16.097656 5.929688 16.230469 5.9375 16.40625 C 5.941406 16.5 5.96875 16.5625 5.96875 16.65625 C 5.96875 16.6875 5.96875 16.75 5.96875 16.78125 C 5.964844 16.894531 5.976562 17.007812 5.96875 17.125 C 5.964844 17.1875 5.964844 17.261719 5.96875 17.3125 C 5.972656 17.367188 6.027344 17.386719 6.03125 17.4375 C 6.035156 17.492188 5.964844 17.550781 5.96875 17.59375 C 5.980469 17.710938 6.101562 17.800781 6.125 17.90625 C 6.144531 17.992188 6.167969 18.179688 6.15625 18.28125 C 6.148438 18.335938 6.132812 18.410156 6.125 18.46875 C 6.121094 18.503906 6.125 18.53125 6.125 18.5625 C 3.644531 16.960938 2 14.171875 2 11 C 2 10.605469 2.011719 10.226562 2.0625 9.84375 Z M 5.46875 10.65625 C 5.558594 10.617188 5.574219 10.800781 5.5 10.8125 C 5.429688 10.828125 5.402344 10.6875 5.46875 10.65625 Z M 5.46875 10.65625 "/>
</g>
</svg>
