<?xml version="1.0" encoding="UTF-8"?>
<svg xmlns="http://www.w3.org/2000/svg" xmlns:xlink="http://www.w3.org/1999/xlink" width="12pt" height="12pt" viewBox="0 0 12 12" version="1.1">
<g id="surface1">
<path style=" stroke:none;fill-rule:nonzero;fill:rgb(8.627451%,56.470588%,49.019608%);fill-opacity:1;" d="M 5 0 L 5 3 L 6 3 L 6 0 Z M 3 1 L 3 3 L 4 3 L 4 1 Z M 7 1 L 7 3 L 8 3 L 8 1 Z M 1 2 L 1 3 L 2 3 L 2 2 Z M 0 4 L 0 8 C 0 9.8125 1.003906 11 3 11 L 1 11 L 1 12 L 9 12 L 9 11 L 7 11 C 8.574219 11 9.507812 10.273438 10 9 L 11 9 C 12 9 12 8.996094 12 7.90625 L 12 6.8125 C 12 4.996094 12 5 11 5 L 10 5 L 10 4 Z M 1 5 L 9 5 L 9 8 C 9 9.511719 7.660156 10 6 10 L 4 10 C 2.339844 10 1 9.511719 1 8 Z M 10 6 L 11 6 L 11 8 L 10 8 Z M 10 6 "/>
</g>
</svg>
