<?xml version="1.0" encoding="UTF-8"?>
<svg xmlns="http://www.w3.org/2000/svg" xmlns:xlink="http://www.w3.org/1999/xlink" width="16pt" height="16pt" viewBox="0 0 16 16" version="1.1">
<g id="surface1">
<path style=" stroke:none;fill-rule:nonzero;fill:rgb(30.196078%,30.196078%,30.196078%);fill-opacity:1;" d="M 8 0 C 3.582031 0 0 3.582031 0 8 C 0 12.417969 3.582031 16 8 16 C 12.417969 16 16 12.417969 16 8 C 16 3.582031 12.417969 0 8 0 Z M 8 1 C 11.867188 1 15 4.132812 15 8 C 15 11.867188 11.867188 15 8 15 C 4.132812 15 1 11.867188 1 8 C 1 4.132812 4.132812 1 8 1 Z M 10 4 C 9.449219 4 9 4.449219 9 5 C 9 5.550781 9.449219 6 10 6 C 10.550781 6 11 5.550781 11 5 C 11 4.449219 10.550781 4 10 4 Z M 7 6 C 6.722656 6 6.5 6.222656 6.5 6.5 C 6.5 6.777344 6.722656 7 7 7 C 7.277344 7 7.5 6.777344 7.5 6.5 C 7.5 6.222656 7.277344 6 7 6 Z M 4 7 C 3.449219 7 3 7.449219 3 8 C 3 8.550781 3.449219 9 4 9 C 4.550781 9 5 8.550781 5 8 C 5 7.449219 4.550781 7 4 7 Z M 7 9 C 6.722656 9 6.5 9.222656 6.5 9.5 C 6.5 9.777344 6.722656 10 7 10 C 7.277344 10 7.5 9.777344 7.5 9.5 C 7.5 9.222656 7.277344 9 7 9 Z M 10 10 C 9.449219 10 9 10.449219 9 11 C 9 11.550781 9.449219 12 10 12 C 10.550781 12 11 11.550781 11 11 C 11 10.449219 10.550781 10 10 10 Z M 10 10 "/>
</g>
</svg>
