<?xml version="1.0" encoding="UTF-8"?>
<svg xmlns="http://www.w3.org/2000/svg" xmlns:xlink="http://www.w3.org/1999/xlink" width="16pt" height="16pt" viewBox="0 0 16 16" version="1.1">
<g id="surface1">
<path style=" stroke:none;fill-rule:nonzero;fill:rgb(30.196078%,30.196078%,30.196078%);fill-opacity:1;" d="M 0 0 L 0 16 L 16 16 L 16 0 Z M 1 1 L 15 1 L 15 13 L 8 13 L 8 14 L 5 14 L 5 13 L 1 13 Z M 3 3 L 3 11 L 13 11 L 13 3 Z M 4 4 L 6 4 L 6 8 L 10 8 L 10 4 L 12 4 L 12 10 L 4 10 Z M 1 14 L 4 14 L 4 15 L 1 15 Z M 9 14 L 15 14 L 15 15 L 9 15 Z M 9 14 "/>
</g>
</svg>
