<?xml version="1.0" encoding="UTF-8"?>
<svg xmlns="http://www.w3.org/2000/svg" xmlns:xlink="http://www.w3.org/1999/xlink" width="22pt" height="22pt" viewBox="0 0 22 22" version="1.1">
<g id="surface1">
<path style=" stroke:none;fill-rule:nonzero;fill:rgb(1.568627%,53.72549%,41.568627%);fill-opacity:1;" d="M 11 0 C 4.90625 0 0 4.90625 0 11 C 0 17.09375 4.90625 22 11 22 C 17.09375 22 22 17.09375 22 11 C 22 4.90625 17.09375 0 11 0 Z M 11 1 C 12.660156 1 14.222656 1.40625 15.597656 2.117188 C 15.601562 2.160156 15.601562 2.1875 15.597656 2.234375 C 15.65625 2.257812 15.6875 2.367188 15.785156 2.421875 C 15.824219 2.441406 15.847656 2.449219 15.878906 2.46875 C 15.9375 2.5 15.988281 2.550781 15.972656 2.609375 C 15.957031 2.6875 15.84375 2.6875 15.785156 2.746094 C 15.796875 2.863281 15.722656 2.859375 15.691406 2.9375 C 15.710938 2.984375 15.777344 2.96875 15.785156 3.03125 C 15.777344 3.09375 15.667969 3.101562 15.691406 3.167969 C 15.800781 3.253906 15.917969 3.183594 16.019531 3.167969 C 16.246094 3.140625 16.445312 3.183594 16.582031 3.074219 C 16.5625 2.96875 16.734375 2.9375 16.722656 2.839844 C 16.710938 2.769531 16.589844 2.75 16.535156 2.703125 C 16.523438 2.691406 16.507812 2.664062 16.496094 2.640625 C 16.660156 2.75 16.816406 2.867188 16.972656 2.984375 C 16.9375 3.015625 16.902344 3.054688 16.863281 3.074219 C 16.820312 3.09375 16.761719 3.097656 16.722656 3.121094 C 16.667969 3.160156 16.644531 3.21875 16.582031 3.257812 C 16.535156 3.292969 16.394531 3.398438 16.347656 3.398438 C 16.289062 3.398438 16.203125 3.339844 16.160156 3.355469 C 16.101562 3.375 16.132812 3.46875 16.066406 3.492188 C 15.933594 3.542969 15.691406 3.390625 15.644531 3.585938 C 15.699219 3.703125 15.871094 3.667969 15.972656 3.726562 C 16.035156 3.769531 16.144531 3.941406 16.160156 4.007812 C 16.175781 4.066406 16.183594 4.277344 16.160156 4.335938 C 16.097656 4.496094 15.921875 4.484375 15.738281 4.476562 L 15.597656 4.476562 C 15.289062 4.457031 14.988281 4.351562 14.847656 4.570312 C 14.859375 4.742188 14.886719 4.847656 14.847656 4.992188 C 14.820312 5.101562 14.703125 5.179688 14.707031 5.277344 C 14.710938 5.324219 14.789062 5.398438 14.800781 5.464844 C 14.8125 5.5 14.785156 5.570312 14.800781 5.605469 C 14.855469 5.703125 14.992188 5.585938 15.082031 5.605469 C 15.171875 5.617188 15.273438 5.738281 15.273438 5.839844 C 15.273438 5.90625 15.222656 6.050781 15.175781 6.121094 C 15.089844 6.25 14.929688 6.234375 14.800781 6.308594 C 14.699219 6.367188 14.675781 6.484375 14.613281 6.589844 C 14.550781 6.703125 14.496094 6.757812 14.519531 6.917969 C 14.429688 7.097656 14.332031 7.207031 14.144531 7.292969 C 14.089844 7.316406 14.007812 7.351562 13.957031 7.386719 C 13.917969 7.414062 13.871094 7.464844 13.816406 7.527344 C 13.746094 7.605469 13.667969 7.65625 13.628906 7.714844 C 13.601562 7.761719 13.613281 7.839844 13.582031 7.902344 C 13.539062 7.988281 13.449219 8.050781 13.394531 8.136719 C 13.367188 8.175781 13.328125 8.226562 13.300781 8.277344 C 13.238281 8.394531 13.148438 8.503906 13.160156 8.605469 C 13.171875 8.703125 13.292969 8.707031 13.300781 8.792969 C 13.308594 8.839844 13.25 8.878906 13.253906 8.933594 C 13.257812 9.007812 13.292969 9.0625 13.300781 9.121094 C 13.316406 9.269531 13.234375 9.300781 13.207031 9.402344 C 13.191406 9.449219 13.21875 9.503906 13.207031 9.542969 C 13.183594 9.617188 13.070312 9.6875 13.066406 9.777344 C 13.0625 9.835938 13.152344 9.875 13.160156 9.964844 C 13.164062 10.023438 13.101562 10.097656 13.113281 10.152344 C 13.136719 10.261719 13.359375 10.394531 13.441406 10.480469 C 13.558594 10.59375 13.675781 10.6875 13.722656 10.808594 C 13.765625 10.910156 13.789062 11.0625 13.863281 11.136719 C 13.921875 11.191406 14.027344 11.21875 14.097656 11.277344 C 14.167969 11.328125 14.257812 11.359375 14.332031 11.417969 C 14.453125 11.511719 14.605469 11.710938 14.800781 11.699219 C 14.902344 11.6875 15.015625 11.625 15.128906 11.605469 C 15.246094 11.582031 15.382812 11.546875 15.503906 11.558594 C 15.597656 11.570312 15.691406 11.609375 15.785156 11.605469 C 15.886719 11.59375 16 11.558594 16.113281 11.511719 C 16.3125 11.421875 16.621094 11.28125 16.910156 11.324219 C 17.128906 11.355469 17.132812 11.597656 17.285156 11.699219 C 17.464844 11.714844 17.613281 11.664062 17.753906 11.699219 C 17.859375 11.722656 17.976562 11.894531 17.988281 11.980469 C 18 12.066406 17.90625 12.160156 17.894531 12.214844 C 17.867188 12.328125 17.867188 12.46875 17.847656 12.542969 C 17.832031 12.597656 17.800781 12.671875 17.800781 12.730469 C 17.800781 12.78125 17.890625 12.894531 17.941406 12.964844 C 18.007812 13.046875 18.097656 13.105469 18.175781 13.199219 C 18.320312 13.363281 18.402344 13.585938 18.503906 13.808594 C 18.53125 13.863281 18.480469 13.878906 18.503906 13.949219 C 18.460938 14.28125 18.347656 14.511719 18.128906 14.886719 C 18.023438 15.003906 17.890625 15.15625 17.894531 15.308594 C 17.886719 15.667969 18.097656 15.847656 18.082031 16.195312 C 18.046875 16.664062 18.074219 16.742188 18.035156 16.992188 C 18.195312 17.070312 18.128906 17.292969 18.082031 17.457031 C 18.015625 17.65625 17.933594 17.703125 17.894531 17.835938 C 18.019531 17.890625 18.15625 17.875 18.292969 17.84375 C 16.472656 19.789062 13.886719 21.003906 11 21.003906 C 9.773438 21.003906 8.601562 20.773438 7.515625 20.375 C 7.476562 20.355469 7.433594 20.347656 7.394531 20.328125 C 7.332031 20.289062 7.292969 20.214844 7.300781 20.140625 C 7.40625 20.09375 7.601562 20.238281 7.675781 20.09375 C 7.714844 20.023438 7.628906 19.878906 7.675781 19.8125 C 7.714844 19.761719 7.933594 19.730469 8.003906 19.71875 C 8.113281 19.699219 8.226562 19.707031 8.285156 19.671875 C 8.351562 19.628906 8.441406 19.511719 8.425781 19.390625 C 8.421875 19.332031 8.378906 19.300781 8.332031 19.25 C 8.296875 19.203125 8.3125 19.148438 8.285156 19.109375 C 8.238281 19.039062 8.167969 19.023438 8.144531 18.921875 C 8.289062 18.894531 8.5 19.074219 8.707031 19.015625 C 8.808594 18.988281 8.945312 18.78125 8.988281 18.6875 C 9.003906 18.660156 8.972656 18.582031 8.988281 18.546875 C 9.007812 18.507812 9.078125 18.472656 9.085938 18.453125 C 9.101562 18.398438 9.074219 18.394531 9.085938 18.359375 C 9.121094 18.257812 9.214844 18.199219 9.273438 18.125 C 9.320312 18.070312 9.371094 17.996094 9.414062 17.9375 C 9.460938 17.875 9.476562 17.851562 9.507812 17.796875 C 9.539062 17.613281 9.417969 17.488281 9.460938 17.328125 C 9.507812 17.148438 9.753906 17.035156 9.929688 16.953125 C 9.988281 16.925781 10.066406 16.878906 10.117188 16.859375 C 10.238281 16.816406 10.378906 16.804688 10.492188 16.765625 C 10.679688 16.695312 10.726562 16.515625 10.820312 16.34375 C 10.863281 16.265625 10.90625 16.167969 10.917969 16.109375 C 10.925781 16.058594 10.90625 16.027344 10.917969 15.96875 C 10.925781 15.910156 10.945312 15.847656 10.960938 15.78125 C 10.984375 15.695312 11.007812 15.550781 11.007812 15.453125 C 11.007812 15.375 10.964844 15.335938 10.960938 15.265625 C 10.945312 15.003906 11.050781 14.984375 11.148438 14.84375 C 11.195312 14.773438 11.207031 14.660156 11.242188 14.609375 C 11.402344 14.371094 11.683594 14.269531 11.664062 13.90625 C 11.65625 13.785156 11.613281 13.523438 11.527344 13.484375 C 11.476562 13.460938 11.363281 13.464844 11.292969 13.4375 C 11.054688 13.347656 10.878906 13.082031 10.636719 13.0625 L 10.496094 13.0625 C 10.398438 13.0625 10.277344 12.980469 10.167969 12.96875 C 10.101562 12.957031 9.972656 12.988281 9.933594 12.96875 C 9.871094 12.9375 9.890625 12.8125 9.839844 12.78125 C 9.800781 12.75 9.710938 12.753906 9.652344 12.734375 C 9.550781 12.695312 9.484375 12.648438 9.371094 12.640625 C 9.332031 12.640625 9.269531 12.648438 9.230469 12.640625 C 9.167969 12.628906 9.097656 12.582031 9.042969 12.546875 C 8.96875 12.5 8.929688 12.46875 8.902344 12.40625 C 8.964844 12.191406 8.757812 12.15625 8.714844 12.03125 C 8.691406 11.972656 8.734375 11.894531 8.714844 11.84375 C 8.6875 11.769531 8.605469 11.714844 8.527344 11.65625 C 8.382812 11.542969 8.261719 11.445312 8.058594 11.421875 C 7.964844 11.410156 7.839844 11.429688 7.730469 11.421875 C 7.613281 11.410156 7.488281 11.332031 7.402344 11.234375 C 7.316406 11.132812 7.285156 11.042969 7.214844 11 C 7.144531 10.953125 7.027344 10.949219 6.980469 10.90625 C 6.957031 10.882812 6.953125 10.855469 6.933594 10.8125 C 6.898438 10.738281 6.84375 10.710938 6.886719 10.621094 C 6.808594 10.582031 6.835938 10.683594 6.75 10.667969 C 6.671875 10.558594 6.597656 10.492188 6.421875 10.527344 C 6.339844 10.542969 6.28125 10.664062 6.1875 10.667969 C 6.109375 10.667969 6.054688 10.542969 5.953125 10.527344 C 5.875 10.515625 5.769531 10.585938 5.71875 10.574219 C 5.628906 10.558594 5.605469 10.484375 5.53125 10.433594 C 5.472656 10.394531 5.375 10.292969 5.34375 10.296875 C 5.242188 10.296875 5.152344 10.507812 5.015625 10.433594 C 4.945312 10.347656 5.136719 10.324219 5.058594 10.246094 C 5 10.1875 4.96875 10.261719 4.921875 10.292969 C 4.863281 10.332031 4.792969 10.363281 4.734375 10.386719 C 4.59375 10.4375 4.511719 10.425781 4.40625 10.480469 C 4.304688 10.53125 4.273438 10.613281 4.214844 10.714844 C 4.167969 10.800781 4.097656 10.941406 4.027344 10.949219 C 3.941406 10.957031 3.867188 10.839844 3.792969 10.808594 C 3.5625 10.707031 3.421875 10.851562 3.234375 10.855469 C 3.054688 10.855469 2.800781 10.597656 2.8125 10.433594 C 2.816406 10.328125 2.890625 10.183594 2.90625 10.058594 C 2.914062 9.957031 2.996094 9.867188 3 9.773438 C 3 9.652344 2.792969 9.554688 2.714844 9.542969 C 2.527344 9.507812 2.273438 9.625 2.0625 9.542969 C 2.019531 9.472656 2.128906 9.417969 2.15625 9.351562 C 2.167969 9.3125 2.140625 9.300781 2.15625 9.257812 C 2.179688 9.195312 2.261719 9.136719 2.292969 9.070312 C 2.316406 9.019531 2.316406 8.945312 2.339844 8.882812 C 2.367188 8.8125 2.425781 8.746094 2.433594 8.695312 C 2.441406 8.628906 2.394531 8.550781 2.339844 8.503906 C 2.175781 8.515625 2.058594 8.503906 1.960938 8.550781 C 1.746094 8.652344 1.804688 8.953125 1.585938 9.019531 C 1.515625 9.046875 1.390625 9.050781 1.304688 9.066406 C 1.269531 9.078125 1.226562 9.078125 1.1875 9.089844 C 1.328125 8.363281 1.542969 7.664062 1.828125 7.003906 C 1.878906 7.003906 1.929688 6.996094 1.960938 7.003906 C 2.035156 7.019531 2.085938 7.09375 2.148438 7.097656 C 2.335938 7.113281 2.375 6.945312 2.523438 6.863281 C 2.679688 6.886719 2.761719 6.847656 2.902344 6.863281 C 3 6.875 3.109375 7 3.183594 7.003906 C 3.246094 7.003906 3.265625 6.949219 3.324219 6.957031 C 3.382812 6.96875 3.5 7.074219 3.511719 7.144531 C 3.523438 7.238281 3.4375 7.328125 3.464844 7.429688 C 3.558594 7.527344 3.753906 7.5625 3.886719 7.617188 C 3.976562 7.546875 3.902344 7.394531 3.886719 7.289062 C 3.882812 7.242188 3.894531 7.191406 3.886719 7.148438 C 3.875 7.078125 3.84375 7.023438 3.84375 6.960938 C 3.84375 6.675781 4.070312 6.558594 4.265625 6.445312 C 4.34375 6.398438 4.425781 6.292969 4.5 6.257812 C 4.601562 6.207031 4.648438 6.210938 4.734375 6.164062 C 4.882812 6.078125 5.035156 5.980469 5.15625 5.878906 C 5.207031 5.75 5.148438 5.585938 5.15625 5.457031 C 5.207031 5.425781 5.234375 5.46875 5.292969 5.457031 C 5.386719 5.4375 5.429688 5.324219 5.484375 5.269531 C 5.511719 5.242188 5.585938 5.207031 5.621094 5.175781 C 5.714844 5.105469 5.730469 5.023438 5.808594 4.992188 C 5.835938 4.980469 5.90625 4.957031 5.949219 4.945312 C 6.007812 4.925781 6.085938 4.882812 6.183594 4.851562 C 6.246094 4.828125 6.394531 4.828125 6.417969 4.804688 C 6.449219 4.773438 6.410156 4.660156 6.417969 4.617188 C 6.464844 4.390625 6.824219 4.363281 7.027344 4.289062 C 7.167969 4.234375 7.292969 4.117188 7.449219 4.148438 C 7.417969 4.257812 7.28125 4.253906 7.308594 4.382812 C 7.34375 4.566406 7.574219 4.3125 7.636719 4.289062 C 7.757812 4.234375 7.992188 4.203125 8.152344 4.148438 C 8.292969 4.097656 8.519531 4.027344 8.386719 3.867188 C 8.277344 3.855469 8.25 3.964844 8.152344 4.003906 C 8.085938 4.015625 8.070312 3.964844 8.015625 3.960938 C 7.960938 3.960938 7.925781 4.015625 7.875 4.003906 C 7.820312 3.992188 7.742188 3.878906 7.734375 3.816406 C 7.710938 3.648438 7.898438 3.613281 7.96875 3.488281 C 7.921875 3.335938 7.71875 3.453125 7.59375 3.394531 C 7.605469 3.304688 7.671875 3.226562 7.78125 3.207031 C 7.867188 3.191406 8.054688 3.207031 8.109375 3.25 C 8.136719 3.277344 8.105469 3.351562 8.152344 3.390625 C 8.203125 3.4375 8.273438 3.402344 8.34375 3.390625 C 8.367188 3.277344 8.179688 3.324219 8.203125 3.25 C 8.335938 3.164062 8.597656 3.230469 8.765625 3.207031 C 8.859375 3.191406 8.957031 3.113281 9.046875 3.066406 C 9.125 3.019531 9.195312 2.945312 9.28125 3.023438 C 9.304688 3.101562 9.230469 3.167969 9.1875 3.210938 C 9.03125 3.34375 8.882812 3.472656 8.765625 3.632812 C 8.835938 3.703125 8.96875 3.660156 9.09375 3.675781 C 9.140625 3.6875 9.179688 3.714844 9.230469 3.722656 C 9.289062 3.734375 9.371094 3.710938 9.421875 3.722656 C 9.503906 3.742188 9.523438 3.863281 9.609375 3.863281 C 9.742188 3.863281 9.730469 3.722656 9.652344 3.628906 C 9.675781 3.535156 9.734375 3.460938 9.699219 3.394531 C 9.636719 3.269531 9.382812 3.410156 9.371094 3.253906 C 9.363281 3.152344 9.476562 3.140625 9.511719 3.066406 C 9.496094 2.875 9.671875 2.867188 9.652344 2.691406 C 9.640625 2.621094 9.5625 2.617188 9.511719 2.550781 C 9.484375 2.515625 9.496094 2.4375 9.464844 2.410156 C 9.359375 2.320312 9.148438 2.347656 9.136719 2.179688 C 9.128906 2.078125 9.152344 2.003906 9.136719 1.894531 C 9.121094 1.792969 9.039062 1.492188 8.949219 1.472656 C 8.835938 1.449219 8.753906 1.644531 8.621094 1.707031 C 8.550781 1.742188 8.414062 1.769531 8.339844 1.753906 C 8.292969 1.742188 8.207031 1.703125 8.199219 1.613281 C 8.1875 1.507812 8.273438 1.492188 8.292969 1.378906 C 9.15625 1.136719 10.058594 1 11 1 Z M 6.96875 1.847656 C 6.9375 2.257812 6.570312 2.472656 6.140625 2.460938 C 6.046875 2.550781 6.09375 2.714844 6.046875 2.835938 C 6.003906 2.9375 5.867188 3.035156 5.765625 3.023438 C 5.691406 3.015625 5.578125 2.90625 5.578125 2.835938 C 5.578125 2.75 5.695312 2.703125 5.621094 2.601562 C 5.625 2.582031 5.652344 2.5625 5.671875 2.539062 C 6.085938 2.28125 6.515625 2.046875 6.96875 1.847656 Z M 15.3125 2.324219 C 15.277344 2.335938 15.257812 2.351562 15.222656 2.367188 C 15.148438 2.414062 15.140625 2.488281 15.082031 2.507812 C 15.003906 2.539062 14.910156 2.53125 14.894531 2.601562 C 14.886719 2.664062 14.945312 2.6875 14.941406 2.742188 C 14.914062 2.816406 14.867188 2.839844 14.847656 2.929688 C 14.953125 3.09375 15.191406 2.917969 15.316406 2.882812 C 15.371094 2.867188 15.425781 2.886719 15.457031 2.835938 C 15.492188 2.785156 15.476562 2.679688 15.5 2.605469 C 15.53125 2.519531 15.605469 2.539062 15.59375 2.464844 C 15.585938 2.390625 15.4375 2.3125 15.3125 2.324219 Z M 4.367188 3.515625 C 4.464844 3.566406 4.628906 3.792969 4.441406 3.875 C 4.421875 3.882812 4.160156 3.929688 4.113281 3.917969 C 4.074219 3.90625 4.042969 3.875 4.007812 3.84375 C 4.125 3.730469 4.246094 3.625 4.367188 3.515625 Z M 4.71875 3.964844 C 4.769531 3.964844 4.804688 4.054688 4.859375 4.058594 C 4.914062 4.058594 4.96875 4 5 4.011719 C 5.085938 4.035156 5.125 4.183594 5.046875 4.246094 C 4.980469 4.257812 4.957031 4.191406 4.90625 4.203125 C 4.773438 4.226562 4.726562 4.492188 4.625 4.484375 C 4.527344 4.472656 4.480469 4.269531 4.578125 4.203125 C 4.582031 4.140625 4.527344 4.121094 4.53125 4.0625 C 4.5625 4.023438 4.640625 3.960938 4.71875 3.96875 Z M 4.253906 4.011719 C 4.28125 4.011719 4.289062 4 4.296875 4.011719 C 4.285156 4.117188 4.242188 4.152344 4.160156 4.203125 C 4.019531 4.289062 3.921875 4.390625 3.875 4.578125 C 3.863281 4.628906 3.710938 4.777344 3.644531 4.765625 C 3.488281 4.730469 3.703125 4.433594 3.738281 4.390625 C 3.777344 4.339844 3.832031 4.304688 3.875 4.25 C 3.921875 4.191406 3.925781 4.09375 3.96875 4.0625 C 4.019531 4.027344 4.167969 4.007812 4.253906 4.015625 Z M 18.402344 4.28125 C 18.464844 4.347656 18.53125 4.417969 18.59375 4.488281 C 18.527344 4.414062 18.425781 4.386719 18.402344 4.28125 Z M 17.792969 4.296875 C 17.949219 4.289062 18.046875 4.484375 18.121094 4.578125 C 18.179688 4.65625 18.347656 4.761719 18.449219 4.8125 C 18.503906 4.84375 18.574219 4.878906 18.636719 4.90625 C 18.765625 4.964844 19.003906 5.15625 19.011719 5.28125 C 19.011719 5.347656 18.953125 5.414062 18.964844 5.472656 C 19.0625 5.488281 19.148438 5.335938 19.152344 5.238281 C 19.152344 5.214844 19.144531 5.199219 19.136719 5.1875 C 19.417969 5.582031 19.671875 5.996094 19.894531 6.433594 C 19.808594 6.460938 19.734375 6.5 19.71875 6.589844 C 19.699219 6.699219 19.792969 6.847656 19.625 6.871094 C 19.519531 6.882812 19.394531 6.761719 19.25 6.730469 C 19.1875 6.714844 19.109375 6.746094 19.0625 6.730469 C 18.949219 6.691406 18.96875 6.5625 18.875 6.496094 C 18.820312 6.457031 18.675781 6.414062 18.589844 6.402344 C 18.535156 6.390625 18.507812 6.414062 18.453125 6.402344 C 18.382812 6.390625 18.273438 6.390625 18.21875 6.355469 C 18.164062 6.320312 18.042969 6.261719 18.03125 6.214844 C 18.007812 6.140625 18.164062 6.042969 18.167969 5.984375 C 18.171875 5.933594 18.132812 5.914062 18.125 5.84375 C 18.113281 5.796875 18.132812 5.730469 18.125 5.703125 C 18.109375 5.648438 18.015625 5.609375 17.933594 5.605469 C 17.863281 5.605469 17.808594 5.65625 17.746094 5.65625 C 17.65625 5.65625 17.480469 5.59375 17.371094 5.605469 C 17.304688 5.617188 17.242188 5.648438 17.183594 5.65625 C 17.007812 5.667969 16.894531 5.644531 16.761719 5.65625 C 16.660156 5.664062 16.476562 5.707031 16.386719 5.75 C 16.339844 5.769531 16.304688 5.8125 16.246094 5.84375 C 16.214844 5.855469 16.1875 5.871094 16.152344 5.886719 C 16.09375 5.914062 16.015625 5.96875 15.964844 5.984375 C 15.886719 6.003906 15.777344 5.972656 15.636719 5.984375 C 15.53125 5.992188 15.355469 5.964844 15.355469 5.84375 C 15.351562 5.65625 15.691406 5.734375 15.871094 5.703125 C 15.933594 5.6875 15.976562 5.609375 16.058594 5.5625 C 16.09375 5.539062 16.113281 5.539062 16.152344 5.515625 C 16.210938 5.472656 16.328125 5.375 16.339844 5.328125 C 16.347656 5.285156 16.285156 5.21875 16.292969 5.1875 C 16.300781 5.144531 16.378906 5.101562 16.433594 5.046875 C 16.515625 4.964844 16.5625 4.867188 16.667969 4.8125 C 16.734375 4.777344 16.867188 4.777344 16.902344 4.71875 C 16.910156 4.65625 16.898438 4.636719 16.902344 4.578125 C 16.945312 4.539062 16.957031 4.496094 16.996094 4.484375 C 17.101562 4.460938 17.195312 4.539062 17.324219 4.53125 C 17.375 4.53125 17.453125 4.519531 17.511719 4.484375 C 17.558594 4.453125 17.601562 4.417969 17.652344 4.390625 C 17.703125 4.363281 17.726562 4.300781 17.792969 4.296875 Z M 5.277344 4.394531 L 5.421875 4.394531 C 5.46875 4.394531 5.539062 4.375 5.558594 4.394531 C 5.527344 4.527344 5.242188 4.488281 5.136719 4.4375 C 5.144531 4.390625 5.214844 4.402344 5.277344 4.394531 Z M 18.59375 4.492188 C 18.648438 4.558594 18.707031 4.621094 18.765625 4.6875 C 18.753906 4.679688 18.742188 4.679688 18.734375 4.675781 C 18.675781 4.632812 18.648438 4.558594 18.59375 4.492188 Z M 4.808594 4.628906 C 4.84375 4.628906 4.867188 4.613281 4.90625 4.628906 C 4.8125 4.707031 4.6875 4.765625 4.527344 4.816406 C 4.453125 4.839844 4.355469 4.855469 4.339844 4.769531 C 4.324219 4.664062 4.414062 4.6875 4.480469 4.675781 C 4.570312 4.664062 4.703125 4.632812 4.804688 4.632812 L 4.808594 4.632812 Z M 17.839844 4.628906 C 17.773438 4.652344 17.738281 4.796875 17.839844 4.816406 C 17.882812 4.789062 17.898438 4.714844 17.886719 4.628906 C 17.859375 4.601562 17.859375 4.617188 17.839844 4.628906 Z M 17.792969 4.910156 C 17.761719 4.921875 17.734375 4.921875 17.699219 4.953125 C 17.703125 5.066406 17.722656 5.140625 17.699219 5.238281 C 17.761719 5.363281 17.898438 5.277344 17.933594 5.191406 C 17.96875 4.984375 17.890625 4.882812 17.792969 4.910156 Z M 18.683594 5.472656 C 18.59375 5.472656 18.5 5.472656 18.449219 5.515625 C 18.523438 5.636719 18.660156 5.675781 18.824219 5.703125 C 18.882812 5.660156 18.890625 5.546875 18.917969 5.472656 Z M 1.109375 9.59375 C 1.222656 9.695312 1.300781 9.863281 1.4375 9.933594 C 1.484375 9.957031 1.558594 9.964844 1.625 9.980469 C 1.675781 9.988281 1.714844 10.007812 1.765625 10.023438 C 1.871094 10.058594 2.007812 10.082031 2.09375 10.121094 C 2.21875 10.175781 2.308594 10.382812 2.421875 10.445312 C 2.425781 10.507812 2.398438 10.585938 2.421875 10.636719 C 2.472656 10.703125 2.570312 10.726562 2.65625 10.773438 C 2.757812 10.828125 2.789062 10.964844 2.886719 11.007812 C 2.921875 11.023438 2.976562 10.992188 3.027344 11.007812 C 3.160156 11.046875 3.195312 11.230469 3.3125 11.195312 C 3.382812 11.171875 3.390625 11.078125 3.40625 11.007812 C 3.453125 10.953125 3.515625 10.867188 3.59375 10.867188 C 3.714844 10.867188 3.734375 11.027344 3.78125 11.152344 C 3.804688 11.21875 3.855469 11.265625 3.875 11.339844 C 3.902344 11.460938 3.898438 11.828125 3.875 11.902344 C 3.839844 11.992188 3.714844 12.03125 3.640625 12.132812 C 3.601562 12.179688 3.574219 12.242188 3.546875 12.273438 C 3.496094 12.332031 3.441406 12.359375 3.40625 12.414062 C 3.386719 12.445312 3.378906 12.511719 3.359375 12.550781 C 3.300781 12.679688 3.214844 12.777344 3.265625 12.929688 C 3.285156 12.992188 3.359375 13.042969 3.359375 13.117188 C 3.359375 13.207031 3.1875 13.253906 3.171875 13.351562 C 3.160156 13.421875 3.242188 13.539062 3.265625 13.632812 C 3.28125 13.703125 3.410156 13.773438 3.453125 13.820312 C 3.523438 13.898438 3.578125 14.003906 3.640625 14.105469 C 3.769531 14.296875 3.84375 14.523438 3.96875 14.714844 C 4.035156 14.8125 4.160156 14.890625 4.203125 14.996094 C 4.226562 15.046875 4.183594 15.132812 4.203125 15.183594 C 4.273438 15.34375 4.605469 15.523438 4.765625 15.605469 C 4.839844 15.640625 4.929688 15.660156 5 15.703125 C 5.105469 15.761719 5.320312 15.886719 5.375 15.980469 C 5.421875 16.066406 5.445312 16.269531 5.46875 16.402344 C 5.5 16.578125 5.460938 16.726562 5.46875 16.917969 C 5.476562 17.023438 5.515625 17.097656 5.515625 17.203125 C 5.515625 17.238281 5.519531 17.304688 5.515625 17.339844 C 5.511719 17.464844 5.527344 17.589844 5.515625 17.714844 C 5.507812 17.78125 5.511719 17.847656 5.515625 17.90625 C 5.523438 17.964844 5.554688 17.988281 5.5625 18.042969 C 5.566406 18.101562 5.507812 18.1875 5.515625 18.234375 C 5.53125 18.359375 5.632812 18.441406 5.65625 18.558594 C 5.675781 18.652344 5.714844 18.871094 5.703125 18.980469 C 5.691406 19.039062 5.664062 19.109375 5.65625 19.171875 C 5.648438 19.222656 5.664062 19.261719 5.65625 19.308594 C 5.648438 19.355469 5.640625 19.390625 5.625 19.429688 C 2.84375 17.65625 1 14.554688 1 11 C 1 10.519531 1.042969 10.054688 1.109375 9.59375 Z M 5 10.6875 C 5.097656 10.644531 5.078125 10.816406 5 10.828125 C 4.925781 10.839844 4.929688 10.722656 5 10.6875 Z M 5 10.6875 "/>
</g>
</svg>
