<?xml version="1.0" encoding="UTF-8"?>
<svg xmlns="http://www.w3.org/2000/svg" xmlns:xlink="http://www.w3.org/1999/xlink" width="24pt" height="23pt" viewBox="0 0 24 23" version="1.1">
<g id="surface1">
<path style=" stroke:none;fill-rule:nonzero;fill:rgb(55.686275%,26.666667%,67.843137%);fill-opacity:1;" d="M 12 0 C 5.371094 0 0 1.789062 0 4 L 0 19 C 0 21.210938 5.371094 23 12 23 C 18.628906 23 24 21.210938 24 19 L 24 4 C 24 1.789062 18.628906 0 12 0 Z M 12 2 C 17.523438 2 22 2.894531 22 4 C 22 5.105469 17.523438 6 12 6 C 6.476562 6 2 5.105469 2 4 C 2 2.894531 6.476562 2 12 2 Z M 2 6.21875 C 4.148438 7.300781 7.816406 8 12 8 C 16.183594 8 19.851562 7.300781 22 6.21875 L 22 9 C 22 10.105469 17.523438 11 12 11 C 6.476562 11 2 10.105469 2 9 Z M 2 11.21875 C 4.148438 12.300781 7.816406 13 12 13 C 16.183594 13 19.851562 12.300781 22 11.21875 L 22 14 C 22 15.105469 17.523438 16 12 16 C 6.476562 16 2 15.105469 2 14 Z M 2 16.21875 C 4.148438 17.300781 7.816406 18 12 18 C 16.183594 18 19.851562 17.300781 22 16.21875 L 22 19 C 22 20.105469 17.523438 21 12 21 C 6.476562 21 2 20.105469 2 19 Z M 2 16.21875 "/>
</g>
</svg>
