<?xml version="1.0" encoding="UTF-8"?>
<svg xmlns="http://www.w3.org/2000/svg" xmlns:xlink="http://www.w3.org/1999/xlink" width="24pt" height="24pt" viewBox="0 0 24 24" version="1.1">
<g id="surface1">
<path style=" stroke:none;fill-rule:nonzero;fill:rgb(1.568627%,53.72549%,41.568627%);fill-opacity:1;" d="M 0 0 L 0 24 L 24 24 L 24 0 Z M 2 2 L 22 2 L 22 6 L 2 6 Z M 2 8 L 6 8 L 6 14 L 2 14 Z M 8 8 L 16 8 L 16 14 L 8 14 Z M 18 8 L 22 8 L 22 14 L 18 14 Z M 2 16 L 6 16 L 6 22 L 2 22 Z M 8 16 L 16 16 L 16 22 L 8 22 Z M 18 16 L 22 16 L 22 22 L 18 22 Z M 18 16 "/>
</g>
</svg>
