<?xml version="1.0" encoding="UTF-8"?>
<svg xmlns="http://www.w3.org/2000/svg" xmlns:xlink="http://www.w3.org/1999/xlink" width="89.601288pt" height="112pt" viewBox="0 0 89.601288 112" version="1.1">
<defs>
<linearGradient id="linear0" gradientUnits="userSpaceOnUse" x1="560.78583" y1="785.70648" x2="560.78583" y2="727.70654" gradientTransform="matrix(2.036363,0,0,1.931036,-1097.163032,-1405.227516)">
<stop offset="0" style="stop-color:rgb(42.352941%,47.843137%,53.72549%);stop-opacity:1;"/>
<stop offset="1" style="stop-color:rgb(46.27451%,51.764706%,57.254902%);stop-opacity:1;"/>
</linearGradient>
<filter id="alpha" filterUnits="objectBoundingBox" x="0%" y="0%" width="100%" height="100%">
  <feColorMatrix type="matrix" in="SourceGraphic" values="0 0 0 0 1 0 0 0 0 1 0 0 0 0 1 0 0 0 1 0"/>
</filter>
<mask id="mask0">
  <g filter="url(#alpha)">
<rect x="0" y="0" width="89.601288" height="112" style="fill:rgb(0%,0%,0%);fill-opacity:0.2;stroke:none;"/>
  </g>
</mask>
<linearGradient id="linear1" gradientUnits="userSpaceOnUse" x1="16" y1="15.999974" x2="32" y2="31.999973" gradientTransform="matrix(2.8,0,0,2.8,-2.399356,-3.2)">
<stop offset="0" style="stop-color:rgb(21.960784%,24.313725%,31.764706%);stop-opacity:1;"/>
<stop offset="1" style="stop-color:rgb(39.607843%,36.078431%,43.529412%);stop-opacity:0;"/>
</linearGradient>
<clipPath id="clip1">
  <rect width="129" height="128"/>
</clipPath>
<g id="surface6" clip-path="url(#clip1)">
<path style=" stroke:none;fill-rule:evenodd;fill:url(#linear1);" d="M 87.199219 50 L 84.402344 55.601562 L 84.402344 52.800781 L 64.800781 52.800781 L 53.601562 72.398438 L 50.800781 72.398438 L 48 66.800781 L 42.402344 66.800781 L 56.402344 80.800781 L 42.402344 80.800781 L 81.601562 120 L 109.574219 120 C 109.589844 120 109.601562 110.007812 109.601562 97.601562 L 109.601562 72.398438 Z M 87.199219 50 "/>
</g>
<linearGradient id="linear2" gradientUnits="userSpaceOnUse" x1="24.999998" y1="32" x2="24.999998" y2="19" gradientTransform="matrix(2.8,0,0,2.8,-22.399356,-11.2)">
<stop offset="0" style="stop-color:rgb(62.745098%,66.666667%,70.588235%);stop-opacity:1;"/>
<stop offset="1" style="stop-color:rgb(84.705882%,86.27451%,87.843137%);stop-opacity:1;"/>
</linearGradient>
</defs>
<g id="surface1">
<path style=" stroke:none;fill-rule:nonzero;fill:url(#linear0);" d="M 0.0273438 0 C 0.0117188 0 0 9.992188 0 22.398438 L 0 89.601562 C 0 102.007812 0.0117188 112 0.0273438 112 L 89.574219 112 C 89.589844 112 89.601562 102.007812 89.601562 89.601562 L 89.601562 33.601562 L 56 0 Z M 0.0273438 0 "/>
<path style=" stroke:none;fill-rule:nonzero;fill:rgb(18.039216%,19.215686%,19.607843%);fill-opacity:0.294118;" d="M 0 109.199219 L 89.601562 109.199219 L 89.601562 112 L 0 112 Z M 0 109.199219 "/>
<path style=" stroke:none;fill-rule:nonzero;fill:rgb(34.901961%,39.215686%,43.529412%);fill-opacity:1;" d="M 89.574219 27.972656 C 89.589844 27.949219 89.601562 21.742188 89.601562 14 C 89.601562 6.242188 89.589844 0 89.574219 0 L 61.628906 0 C 61.628906 0 61.628906 0.0273438 61.628906 0.0273438 Z M 89.574219 27.972656 "/>
<use xlink:href="#surface6" transform="matrix(1,0,0,1,-20,-8)" mask="url(#mask0)"/>
<path style=" stroke:none;fill-rule:nonzero;fill:url(#linear2);" d="M 67.199219 42.015625 L 44.800781 42.027344 L 32.363281 63.5625 L 28.011719 56.015625 L 22.402344 56.015625 L 22.402344 58.816406 L 26.398438 58.816406 L 32.371094 69.15625 L 33.984375 66.363281 L 46.425781 44.816406 L 64.402344 44.816406 L 64.402344 47.617188 L 67.199219 47.617188 Z M 53.199219 50.425781 C 48.546875 50.425781 44.800781 54.171875 44.800781 58.828125 C 44.800781 63.480469 48.546875 67.226562 53.199219 67.226562 C 55.367188 67.226562 57.3125 66.390625 58.800781 65.054688 L 58.800781 67.226562 L 61.601562 67.226562 L 61.601562 50.425781 L 58.800781 50.425781 L 58.800781 52.597656 C 57.3125 51.261719 55.367188 50.425781 53.199219 50.425781 Z M 53.199219 53.226562 C 56.304688 53.226562 58.800781 55.726562 58.800781 58.828125 C 58.800781 61.929688 56.304688 64.425781 53.199219 64.425781 C 50.097656 64.425781 47.601562 61.929688 47.601562 58.828125 C 47.601562 55.726562 50.097656 53.226562 53.199219 53.226562 Z M 22.429688 70 C 22.410156 70 22.402344 70.625 22.402344 71.398438 C 22.402344 72.175781 22.414062 72.800781 22.429688 72.800781 L 67.171875 72.800781 C 67.1875 72.800781 67.199219 72.175781 67.199219 71.398438 C 67.199219 70.625 67.1875 70 67.171875 70 Z M 42.027344 75.601562 C 42.011719 75.601562 42 76.222656 42 77 C 42 77.777344 42.011719 78.398438 42.027344 78.398438 L 47.574219 78.398438 C 47.589844 78.398438 47.601562 77.777344 47.601562 77 C 47.601562 76.222656 47.589844 75.601562 47.574219 75.601562 Z M 42.027344 75.601562 "/>
</g>
</svg>
