<?xml version="1.0" encoding="UTF-8"?>
<svg xmlns="http://www.w3.org/2000/svg" xmlns:xlink="http://www.w3.org/1999/xlink" width="36pt" height="36pt" viewBox="0 0 36 36" version="1.1">
<g id="surface1">
<path style=" stroke:none;fill-rule:nonzero;fill:rgb(55.686275%,26.666667%,67.843137%);fill-opacity:1;" d="M 18 0 C 8.058594 0 0 2.6875 0 6 L 0 30 C 0 33.3125 8.058594 36 18 36 C 27.941406 36 36 33.3125 36 30 L 36 6 C 36 2.6875 27.941406 0 18 0 Z M 18 3 C 26.285156 3 33 4.34375 33 6 C 33 7.65625 26.285156 9 18 9 C 9.714844 9 3 7.65625 3 6 C 3 4.34375 9.714844 3 18 3 Z M 3 9.3125 C 6.226562 10.925781 11.742188 12 18 12 C 24.257812 12 29.773438 10.925781 33 9.3125 L 33 14 C 33 15.65625 26.285156 17 18 17 C 9.714844 17 3 15.65625 3 14 Z M 3 17.3125 C 6.226562 18.925781 11.742188 20 18 20 C 24.257812 20 29.773438 18.925781 33 17.3125 L 33 22 C 33 23.65625 26.285156 25 18 25 C 9.714844 25 3 23.65625 3 22 Z M 3 25.3125 C 6.226562 26.925781 11.742188 28 18 28 C 24.257812 28 29.773438 26.925781 33 25.3125 L 33 30 C 33 31.65625 26.285156 33 18 33 C 9.714844 33 3 31.65625 3 30 Z M 3 25.3125 "/>
</g>
</svg>
