<?xml version="1.0" encoding="UTF-8"?>
<svg xmlns="http://www.w3.org/2000/svg" xmlns:xlink="http://www.w3.org/1999/xlink" width="60.000002pt" height="80.00003pt" viewBox="0 0 60.000002 80.00003" version="1.1">
<defs>
<linearGradient id="linear0" gradientUnits="userSpaceOnUse" x1="32" y1="61" x2="32" y2="3" gradientTransform="matrix(1.363636,0,0,1.37931,-13.636364,-4.13791)">
<stop offset="0" style="stop-color:rgb(55.686275%,26.666667%,67.843137%);stop-opacity:1;"/>
<stop offset="1" style="stop-color:rgb(60.784314%,34.901961%,71.372549%);stop-opacity:1;"/>
</linearGradient>
<linearGradient id="linear1" gradientUnits="userSpaceOnUse" x1="47" y1="61" x2="47" y2="47" gradientTransform="matrix(1.363636,0,0,1.37931,-13.636364,-4.13791)">
<stop offset="0" style="stop-color:rgb(82.745098%,74.117647%,84.313725%);stop-opacity:1;"/>
<stop offset="1" style="stop-color:rgb(90.980392%,85.098039%,92.156863%);stop-opacity:1;"/>
</linearGradient>
<filter id="alpha" filterUnits="objectBoundingBox" x="0%" y="0%" width="100%" height="100%">
  <feColorMatrix type="matrix" in="SourceGraphic" values="0 0 0 0 1 0 0 0 0 1 0 0 0 0 1 0 0 0 1 0"/>
</filter>
<mask id="mask0">
  <g filter="url(#alpha)">
<rect x="0" y="0" width="60.000002" height="80.00003" style="fill:rgb(0%,0%,0%);fill-opacity:0.2;stroke:none;"/>
  </g>
</mask>
<linearGradient id="linear2" gradientUnits="userSpaceOnUse" x1="54" y1="31" x2="40" y2="17" gradientTransform="matrix(1.363636,0,0,-1.37931,-14.727273,111.44832)">
<stop offset="0" style="stop-color:rgb(21.960784%,24.313725%,31.764706%);stop-opacity:1;"/>
<stop offset="1" style="stop-color:rgb(39.607843%,36.078431%,43.529412%);stop-opacity:0;"/>
</linearGradient>
<clipPath id="clip1">
  <rect width="96" height="97"/>
</clipPath>
<g id="surface6" clip-path="url(#clip1)">
<path style=" stroke:none;fill-rule:evenodd;fill:url(#linear2);" d="M 39.816406 88 L 58.910156 68.691406 L 58.910156 88 Z M 39.816406 88 "/>
</g>
</defs>
<g id="surface1">
<path style=" stroke:none;fill-rule:nonzero;fill:url(#linear0);" d="M 0 0 L 0 80 L 40.910156 80 L 60 60.691406 L 60 0 Z M 0 0 "/>
<path style=" stroke:none;fill-rule:nonzero;fill:rgb(18.039216%,19.215686%,19.607843%);fill-opacity:0.294118;" d="M 0 78.621094 L 40.910156 78.621094 L 40.910156 80 L 0 80 Z M 0 78.621094 "/>
<path style=" stroke:none;fill-rule:nonzero;fill:rgb(100%,100%,100%);fill-opacity:0.411765;" d="M 0 0 L 60 0 L 60 1.378906 L 0 1.378906 Z M 0 0 "/>
<path style=" stroke:none;fill-rule:evenodd;fill:url(#linear1);" d="M 60 60.691406 L 40.910156 80 L 40.910156 60.691406 Z M 60 60.691406 "/>
<use xlink:href="#surface6" transform="matrix(1,0,0,1,-18,-8)" mask="url(#mask0)"/>
<path style=" stroke:none;fill-rule:nonzero;fill:rgb(90.980392%,85.098039%,92.156863%);fill-opacity:1;" d="M 30 24.828125 C 21.714844 24.828125 15 26.679688 15 28.964844 L 15 51.035156 C 15 53.320312 21.714844 55.171875 30 55.171875 C 38.285156 55.171875 45 53.320312 45 51.035156 L 45 28.964844 C 45 26.679688 38.285156 24.828125 30 24.828125 Z M 30 26.207031 C 37.53125 26.207031 43.636719 27.441406 43.636719 28.964844 C 43.636719 30.488281 37.53125 31.722656 30 31.722656 C 22.46875 31.722656 16.363281 30.488281 16.363281 28.964844 C 16.363281 27.441406 22.46875 26.207031 30 26.207031 Z M 16.363281 30.679688 C 18.796875 32.152344 24.125 33.101562 30 33.101562 C 35.875 33.101562 41.203125 32.152344 43.636719 30.679688 L 43.636719 35.863281 C 43.636719 37.386719 37.53125 38.621094 30 38.621094 C 22.46875 38.621094 16.363281 37.386719 16.363281 35.863281 Z M 16.363281 37.574219 C 18.796875 39.050781 24.125 40 30 40 C 35.875 40 41.203125 39.050781 43.636719 37.574219 L 43.636719 44.136719 C 43.636719 45.660156 37.53125 46.898438 30 46.898438 C 22.46875 46.898438 16.363281 45.660156 16.363281 44.136719 Z M 16.363281 45.851562 C 18.796875 47.328125 24.125 48.273438 30 48.277344 C 35.875 48.273438 41.203125 47.328125 43.636719 45.851562 L 43.636719 51.035156 C 43.636719 52.558594 37.53125 53.792969 30 53.792969 C 22.46875 53.792969 16.363281 52.558594 16.363281 51.035156 Z M 16.363281 45.851562 "/>
</g>
</svg>
