<?xml version="1.0" encoding="UTF-8"?>
<svg xmlns="http://www.w3.org/2000/svg" xmlns:xlink="http://www.w3.org/1999/xlink" width="22.00002pt" height="28.00003pt" viewBox="0 0 22.00002 28.00003" version="1.1">
<defs>
<linearGradient id="linear0" gradientUnits="userSpaceOnUse" x1="32" y1="61" x2="32" y2="3" gradientTransform="matrix(0.5,0,0,0.482758,-5,-1.44823)">
<stop offset="0" style="stop-color:rgb(95.294118%,61.176471%,7.058824%);stop-opacity:1;"/>
<stop offset="1" style="stop-color:rgb(97.647059%,63.137255%,12.156863%);stop-opacity:1;"/>
</linearGradient>
<linearGradient id="linear1" gradientUnits="userSpaceOnUse" x1="407.950735" y1="545.556623" x2="407.950735" y2="538.798005" gradientTransform="matrix(1,0,0,1,-389.57144,-517.79797)">
<stop offset="0" style="stop-color:rgb(99.215686%,86.666667%,63.921569%);stop-opacity:1;"/>
<stop offset="1" style="stop-color:rgb(99.215686%,89.019608%,65.490196%);stop-opacity:1;"/>
</linearGradient>
<filter id="alpha" filterUnits="objectBoundingBox" x="0%" y="0%" width="100%" height="100%">
  <feColorMatrix type="matrix" in="SourceGraphic" values="0 0 0 0 1 0 0 0 0 1 0 0 0 0 1 0 0 0 1 0"/>
</filter>
<mask id="mask0">
  <g filter="url(#alpha)">
<rect x="0" y="0" width="22.00002" height="28.00003" style="fill:rgb(0%,0%,0%);fill-opacity:0.2;stroke:none;"/>
  </g>
</mask>
<linearGradient id="linear2" gradientUnits="userSpaceOnUse" x1="54" y1="31" x2="39.500008" y2="16.500048" gradientTransform="matrix(0.482758,0,0,-0.482758,-5.06897,37.96554)">
<stop offset="0" style="stop-color:rgb(21.960784%,24.313725%,31.764706%);stop-opacity:1;"/>
<stop offset="1" style="stop-color:rgb(39.607843%,36.078431%,43.529412%);stop-opacity:0;"/>
</linearGradient>
<clipPath id="clip1">
  <rect width="33" height="33"/>
</clipPath>
<g id="surface6" clip-path="url(#clip1)">
<path style=" stroke:none;fill-rule:evenodd;fill:url(#linear2);" d="M 14 30 L 21 23 L 21 30 Z M 14 30 "/>
</g>
</defs>
<g id="surface1">
<path style=" stroke:none;fill-rule:nonzero;fill:url(#linear0);" d="M 0 0 L 0 28 L 15 28 L 22 21 L 22 0 Z M 0 0 "/>
<path style=" stroke:none;fill-rule:nonzero;fill:rgb(18.039216%,19.215686%,19.607843%);fill-opacity:0.294118;" d="M 0 27 L 15 27 L 15 28 L 0 28 Z M 0 27 "/>
<path style=" stroke:none;fill-rule:nonzero;fill:rgb(100%,100%,100%);fill-opacity:0.411765;" d="M 0 0 L 22 0 L 22 1 L 0 1 Z M 0 0 "/>
<path style=" stroke:none;fill-rule:evenodd;fill:url(#linear1);" d="M 22 21 L 15 28 L 15 21 Z M 22 21 "/>
<use xlink:href="#surface6" transform="matrix(1,0,0,1,-6,-2)" mask="url(#mask0)"/>
<path style=" stroke:none;fill-rule:nonzero;fill:rgb(100%,97.254902%,92.156863%);fill-opacity:1;" d="M 7 7 C 5.890625 7 5 7.890625 5 9 C 5 10.109375 5.890625 11 7 11 C 7.503906 11 7.957031 10.808594 8.304688 10.507812 C 8.738281 11.238281 9 12.082031 9 13 C 9 13.917969 8.738281 14.761719 8.304688 15.496094 C 7.957031 15.191406 7.503906 15 7 15 C 5.890625 15 5 15.890625 5 17 C 5 18.109375 5.890625 19 7 19 C 7.742188 19 8.378906 18.597656 8.722656 18 L 14 18 L 14 19 L 17 19 L 17 16 L 14 16 L 14 17 L 9 17 C 9 16.804688 8.960938 16.617188 8.910156 16.4375 C 9.59375 15.464844 10 14.285156 10 13 C 10 11.71875 9.582031 10.554688 8.90625 9.582031 C 8.960938 9.398438 9 9.203125 9 9 L 13 9 L 13 11 L 17 11 L 17 7 L 13 7 L 13 8 L 8.726562 8 C 8.378906 7.402344 7.742188 7 7 7 Z M 7 8 C 7.554688 8 8 8.445312 8 9 C 8 9.554688 7.554688 10 7 10 C 6.445312 10 6 9.554688 6 9 C 6 8.445312 6.445312 8 7 8 Z M 14 8 L 16 8 L 16 10 L 14 10 Z M 7 16 C 7.554688 16 8 16.445312 8 17 C 8 17.554688 7.554688 18 7 18 C 6.445312 18 6 17.554688 6 17 C 6 16.445312 6.445312 16 7 16 Z M 15 17 L 16 17 L 16 18 L 15 18 Z M 15 17 "/>
</g>
</svg>
