<?xml version="1.0" encoding="UTF-8"?>
<svg xmlns="http://www.w3.org/2000/svg" xmlns:xlink="http://www.w3.org/1999/xlink" width="60.000002pt" height="80.00003pt" viewBox="0 0 60.000002 80.00003" version="1.1">
<defs>
<linearGradient id="linear0" gradientUnits="userSpaceOnUse" x1="32" y1="61" x2="32" y2="3" gradientTransform="matrix(1.363636,0,0,1.37931,-13.636364,-4.13791)">
<stop offset="0" style="stop-color:rgb(14.901961%,76.078431%,50.588235%);stop-opacity:1;"/>
<stop offset="1" style="stop-color:rgb(24.705882%,76.470588%,50.196078%);stop-opacity:1;"/>
</linearGradient>
<filter id="alpha" filterUnits="objectBoundingBox" x="0%" y="0%" width="100%" height="100%">
  <feColorMatrix type="matrix" in="SourceGraphic" values="0 0 0 0 1 0 0 0 0 1 0 0 0 0 1 0 0 0 1 0"/>
</filter>
<mask id="mask0">
  <g filter="url(#alpha)">
<rect x="0" y="0" width="60.000002" height="80.00003" style="fill:rgb(0%,0%,0%);fill-opacity:0.2;stroke:none;"/>
  </g>
</mask>
<linearGradient id="linear1" gradientUnits="userSpaceOnUse" x1="54" y1="31" x2="40" y2="17" gradientTransform="matrix(1.363636,0,0,-1.37931,-14.727273,111.44832)">
<stop offset="0" style="stop-color:rgb(21.960784%,24.313725%,31.764706%);stop-opacity:1;"/>
<stop offset="1" style="stop-color:rgb(39.607843%,36.078431%,43.529412%);stop-opacity:0;"/>
</linearGradient>
<clipPath id="clip1">
  <rect width="96" height="97"/>
</clipPath>
<g id="surface6" clip-path="url(#clip1)">
<path style=" stroke:none;fill-rule:evenodd;fill:url(#linear1);" d="M 39.816406 88 L 58.910156 68.691406 L 58.910156 88 Z M 39.816406 88 "/>
</g>
</defs>
<g id="surface1">
<path style=" stroke:none;fill-rule:nonzero;fill:url(#linear0);" d="M 0 0 L 0 80 L 40.910156 80 L 60 60.691406 L 60 0 Z M 0 0 "/>
<path style=" stroke:none;fill-rule:nonzero;fill:rgb(18.039216%,19.215686%,19.607843%);fill-opacity:0.294118;" d="M 0 78.621094 L 40.910156 78.621094 L 40.910156 80 L 0 80 Z M 0 78.621094 "/>
<path style=" stroke:none;fill-rule:nonzero;fill:rgb(100%,100%,100%);fill-opacity:0.411765;" d="M 0 0 L 60 0 L 60 1.378906 L 0 1.378906 Z M 0 0 "/>
<path style=" stroke:none;fill-rule:evenodd;fill:rgb(1.176471%,41.960784%,32.54902%);fill-opacity:1;" d="M 60 60.691406 L 40.910156 80 L 40.910156 60.691406 Z M 60 60.691406 "/>
<use xlink:href="#surface6" transform="matrix(1,0,0,1,-18,-8)" mask="url(#mask0)"/>
<path style=" stroke:none;fill-rule:nonzero;fill:rgb(1.176471%,41.960784%,32.54902%);fill-opacity:1;" d="M 18.410156 24.828125 C 16.519531 24.828125 15 26.367188 15 28.277344 C 15 30.1875 16.519531 31.722656 18.410156 31.722656 C 19.507812 31.722656 20.472656 31.195312 21.09375 30.386719 C 23.003906 33.09375 24.136719 36.40625 24.136719 40 C 24.136719 43.59375 23.003906 46.90625 21.09375 49.613281 C 20.472656 48.804688 19.507812 48.277344 18.410156 48.277344 C 16.519531 48.277344 15 49.8125 15 51.722656 C 15 53.632812 16.519531 55.171875 18.410156 55.171875 C 20.0625 55.171875 21.433594 53.992188 21.75 52.414062 L 38.183594 52.414062 L 38.183594 53.792969 L 42.273438 53.792969 L 42.273438 49.65625 L 38.183594 49.65625 L 38.183594 51.035156 L 21.75 51.035156 C 21.75 51.035156 21.75 51.023438 21.75 51.023438 C 24.09375 47.988281 25.5 44.167969 25.5 40 C 25.5 35.832031 24.09375 32.011719 21.75 28.972656 C 21.75 28.972656 21.75 28.96875 21.75 28.964844 L 38.183594 28.964844 L 38.183594 31.726562 L 45 31.726562 L 45 24.828125 L 38.183594 24.828125 L 38.183594 27.585938 L 21.75 27.585938 C 21.433594 26.007812 20.0625 24.828125 18.410156 24.828125 Z M 18.410156 26.207031 C 19.542969 26.207031 20.453125 27.128906 20.453125 28.277344 C 20.453125 29.421875 19.542969 30.34375 18.410156 30.34375 C 17.277344 30.34375 16.363281 29.421875 16.363281 28.277344 C 16.363281 27.128906 17.277344 26.207031 18.410156 26.207031 Z M 39.546875 26.207031 L 43.636719 26.207031 L 43.636719 30.34375 L 39.546875 30.34375 Z M 18.410156 49.65625 C 19.542969 49.65625 20.453125 50.578125 20.453125 51.722656 C 20.453125 52.871094 19.542969 53.792969 18.410156 53.792969 C 17.277344 53.792969 16.363281 52.871094 16.363281 51.722656 C 16.363281 50.578125 17.277344 49.65625 18.410156 49.65625 Z M 39.546875 51.035156 L 40.910156 51.035156 L 40.910156 52.414062 L 39.546875 52.414062 Z M 39.546875 51.035156 "/>
</g>
</svg>
