<?xml version="1.0" encoding="UTF-8"?>
<svg xmlns="http://www.w3.org/2000/svg" xmlns:xlink="http://www.w3.org/1999/xlink" width="25pt" height="16pt" viewBox="0 0 25 16" version="1.1">
<g id="surface1">
<path style=" stroke:none;fill-rule:nonzero;fill:rgb(30.196078%,30.196078%,30.196078%);fill-opacity:1;" d="M 3 0 C 1.339844 0 0 1.339844 0 3 L 0 13 C 0 14.660156 1.339844 16 3 16 L 8 16 C 9.660156 16 11 14.660156 11 13 L 11 12 L 14 12 L 14 13 C 14 14.660156 15.339844 16 17 16 L 22 16 C 23.660156 16 25 14.660156 25 13 L 25 3 C 25 1.339844 23.660156 0 22 0 L 17 0 C 15.339844 0 14 1.339844 14 3 L 14 4 L 11 4 L 11 3 C 11 1.339844 9.660156 0 8 0 Z M 3 2 L 8 2 C 8.554688 2 9 2.445312 9 3 L 9 4 C 7.339844 4 6 5.339844 6 7 L 6 9 C 6 10.660156 7.339844 12 9 12 L 9 13 C 9 13.554688 8.554688 14 8 14 L 3 14 C 2.445312 14 2 13.554688 2 13 L 2 3 C 2 2.445312 2.445312 2 3 2 Z M 17 2 L 22 2 C 22.554688 2 23 2.445312 23 3 L 23 13 C 23 13.554688 22.554688 14 22 14 L 17 14 C 16.445312 14 16 13.554688 16 13 L 16 12 C 17.660156 12 19 10.660156 19 9 L 19 7 C 19 5.339844 17.660156 4 16 4 L 16 3 C 16 2.445312 16.445312 2 17 2 Z M 9 6 L 16 6 C 16.554688 6 17 6.445312 17 7 L 17 9 C 17 9.554688 16.554688 10 16 10 L 9 10 C 8.445312 10 8 9.554688 8 9 L 8 7 C 8 6.445312 8.445312 6 9 6 Z M 9 6 "/>
</g>
</svg>
