<?xml version="1.0" encoding="UTF-8"?>
<svg xmlns="http://www.w3.org/2000/svg" xmlns:xlink="http://www.w3.org/1999/xlink" width="36pt" height="23.039062pt" viewBox="0 0 36 23.039062" version="1.1">
<g id="surface1">
<path style=" stroke:none;fill-rule:nonzero;fill:rgb(30.196078%,30.196078%,30.196078%);fill-opacity:1;" d="M 4.320312 0 C 1.925781 0 0 1.925781 0 4.320312 L 0 18.71875 C 0 21.113281 1.925781 23.039062 4.320312 23.039062 L 11.519531 23.039062 C 13.914062 23.039062 15.839844 21.113281 15.839844 18.71875 L 15.839844 17.28125 L 20.160156 17.28125 L 20.160156 18.71875 C 20.160156 21.113281 22.085938 23.039062 24.480469 23.039062 L 31.679688 23.039062 C 34.074219 23.039062 36 21.113281 36 18.71875 L 36 4.320312 C 36 1.925781 34.074219 0 31.679688 0 L 24.480469 0 C 22.085938 0 20.160156 1.925781 20.160156 4.320312 L 20.160156 5.757812 L 15.839844 5.757812 L 15.839844 4.320312 C 15.839844 1.925781 13.914062 0 11.519531 0 Z M 4.320312 2.878906 L 11.519531 2.878906 C 12.316406 2.878906 12.960938 3.523438 12.960938 4.320312 L 12.960938 5.757812 C 10.566406 5.757812 8.640625 7.6875 8.640625 10.078125 L 8.640625 12.957031 C 8.640625 15.351562 10.566406 17.28125 12.960938 17.28125 L 12.960938 18.71875 C 12.960938 19.515625 12.316406 20.160156 11.519531 20.160156 L 4.320312 20.160156 C 3.523438 20.160156 2.882812 19.515625 2.882812 18.71875 L 2.882812 4.320312 C 2.882812 3.523438 3.523438 2.878906 4.320312 2.878906 Z M 24.480469 2.878906 L 31.679688 2.878906 C 32.476562 2.878906 33.121094 3.523438 33.121094 4.320312 L 33.121094 18.71875 C 33.121094 19.515625 32.476562 20.160156 31.679688 20.160156 L 24.480469 20.160156 C 23.683594 20.160156 23.039062 19.515625 23.039062 18.71875 L 23.039062 17.28125 C 25.433594 17.28125 27.359375 15.351562 27.359375 12.957031 L 27.359375 10.078125 C 27.359375 7.6875 25.433594 5.757812 23.039062 5.757812 L 23.039062 4.320312 C 23.039062 3.523438 23.683594 2.878906 24.480469 2.878906 Z M 12.960938 8.640625 L 23.039062 8.640625 C 23.835938 8.640625 24.480469 9.28125 24.480469 10.078125 L 24.480469 12.957031 C 24.480469 13.757812 23.835938 14.398438 23.039062 14.398438 L 12.960938 14.398438 C 12.164062 14.398438 11.519531 13.757812 11.519531 12.957031 L 11.519531 10.078125 C 11.519531 9.28125 12.164062 8.640625 12.960938 8.640625 Z M 12.960938 8.640625 "/>
</g>
</svg>
