<?xml version="1.0" encoding="UTF-8"?>
<svg xmlns="http://www.w3.org/2000/svg" xmlns:xlink="http://www.w3.org/1999/xlink" width="60.000002pt" height="80.00003pt" viewBox="0 0 60.000002 80.00003" version="1.1">
<defs>
<linearGradient id="linear0" gradientUnits="userSpaceOnUse" x1="32" y1="61" x2="32" y2="3" gradientTransform="matrix(1.363636,0,0,1.37931,-13.636364,-4.13791)">
<stop offset="0" style="stop-color:rgb(13.333333%,65.490196%,94.117647%);stop-opacity:1;"/>
<stop offset="1" style="stop-color:rgb(9.803922%,70.980392%,99.607843%);stop-opacity:1;"/>
</linearGradient>
<linearGradient id="linear1" gradientUnits="userSpaceOnUse" x1="47" y1="61" x2="47" y2="47" gradientTransform="matrix(1.363636,0,0,1.37931,-13.636364,-4.13791)">
<stop offset="0" style="stop-color:rgb(78.431373%,89.019608%,99.607843%);stop-opacity:1;"/>
<stop offset="1" style="stop-color:rgb(100%,100%,100%);stop-opacity:1;"/>
</linearGradient>
<filter id="alpha" filterUnits="objectBoundingBox" x="0%" y="0%" width="100%" height="100%">
  <feColorMatrix type="matrix" in="SourceGraphic" values="0 0 0 0 1 0 0 0 0 1 0 0 0 0 1 0 0 0 1 0"/>
</filter>
<mask id="mask0">
  <g filter="url(#alpha)">
<rect x="0" y="0" width="60.000002" height="80.00003" style="fill:rgb(0%,0%,0%);fill-opacity:0.2;stroke:none;"/>
  </g>
</mask>
<linearGradient id="linear2" gradientUnits="userSpaceOnUse" x1="54" y1="31" x2="40" y2="17" gradientTransform="matrix(1.363636,0,0,-1.37931,-14.727273,111.44832)">
<stop offset="0" style="stop-color:rgb(21.960784%,24.313725%,31.764706%);stop-opacity:1;"/>
<stop offset="1" style="stop-color:rgb(39.607843%,36.078431%,43.529412%);stop-opacity:0;"/>
</linearGradient>
<clipPath id="clip1">
  <rect width="96" height="97"/>
</clipPath>
<g id="surface6" clip-path="url(#clip1)">
<path style=" stroke:none;fill-rule:evenodd;fill:url(#linear2);" d="M 39.816406 88 L 58.910156 68.691406 L 58.910156 88 Z M 39.816406 88 "/>
</g>
</defs>
<g id="surface1">
<path style=" stroke:none;fill-rule:nonzero;fill:url(#linear0);" d="M 0 0 L 0 80 L 40.910156 80 L 60 60.691406 L 60 0 Z M 0 0 "/>
<path style=" stroke:none;fill-rule:nonzero;fill:rgb(18.039216%,19.215686%,19.607843%);fill-opacity:0.294118;" d="M 0 78.621094 L 40.910156 78.621094 L 40.910156 80 L 0 80 Z M 0 78.621094 "/>
<path style=" stroke:none;fill-rule:nonzero;fill:rgb(100%,100%,100%);fill-opacity:0.411765;" d="M 0 0 L 60 0 L 60 1.378906 L 0 1.378906 Z M 0 0 "/>
<path style=" stroke:none;fill-rule:evenodd;fill:url(#linear1);" d="M 60 60.691406 L 40.910156 80 L 40.910156 60.691406 Z M 60 60.691406 "/>
<use xlink:href="#surface6" transform="matrix(1,0,0,1,-18,-8)" mask="url(#mask0)"/>
<path style=" stroke:none;fill-rule:nonzero;fill:rgb(100%,100%,100%);fill-opacity:1;" d="M 15 24.828125 L 15 26.207031 L 45 26.207031 L 45 24.828125 Z M 15 28.964844 L 15 30.34375 L 45 30.34375 L 45 28.964844 Z M 15 33.101562 L 15 34.484375 L 30 34.484375 L 30 33.101562 Z M 15 38.621094 L 15 40 L 45 40 L 45 38.621094 Z M 15 42.757812 L 15 44.136719 L 27.273438 44.136719 L 27.273438 42.757812 Z M 32.726562 42.757812 L 32.726562 55.171875 L 45 55.171875 L 45 42.757812 Z M 34.089844 44.136719 L 43.636719 44.136719 L 43.636719 53.792969 L 34.089844 53.792969 Z M 15 45.515625 L 15 46.898438 L 21.816406 46.898438 L 21.816406 45.515625 Z M 15 49.65625 L 15 51.035156 L 28.636719 51.035156 L 28.636719 49.65625 Z M 15 53.792969 L 15 55.171875 L 23.183594 55.171875 L 23.183594 53.792969 Z M 15 53.792969 "/>
</g>
</svg>
