<?xml version="1.0" encoding="UTF-8"?>
<svg xmlns="http://www.w3.org/2000/svg" xmlns:xlink="http://www.w3.org/1999/xlink" width="22.00002pt" height="28.00003pt" viewBox="0 0 22.00002 28.00003" version="1.1">
<defs>
<linearGradient id="linear0" gradientUnits="userSpaceOnUse" x1="32" y1="61" x2="32" y2="3" gradientTransform="matrix(0.5,0,0,0.482758,-5,-1.44823)">
<stop offset="0" style="stop-color:rgb(13.333333%,65.490196%,94.117647%);stop-opacity:1;"/>
<stop offset="1" style="stop-color:rgb(9.803922%,70.980392%,99.607843%);stop-opacity:1;"/>
</linearGradient>
<linearGradient id="linear1" gradientUnits="userSpaceOnUse" x1="407.950735" y1="545.556623" x2="407.950735" y2="538.798005" gradientTransform="matrix(1,0,0,1,-389.57144,-517.79797)">
<stop offset="0" style="stop-color:rgb(78.431373%,89.019608%,99.607843%);stop-opacity:1;"/>
<stop offset="1" style="stop-color:rgb(100%,100%,100%);stop-opacity:1;"/>
</linearGradient>
<filter id="alpha" filterUnits="objectBoundingBox" x="0%" y="0%" width="100%" height="100%">
  <feColorMatrix type="matrix" in="SourceGraphic" values="0 0 0 0 1 0 0 0 0 1 0 0 0 0 1 0 0 0 1 0"/>
</filter>
<mask id="mask0">
  <g filter="url(#alpha)">
<rect x="0" y="0" width="22.00002" height="28.00003" style="fill:rgb(0%,0%,0%);fill-opacity:0.2;stroke:none;"/>
  </g>
</mask>
<linearGradient id="linear2" gradientUnits="userSpaceOnUse" x1="54" y1="31" x2="39.500008" y2="16.500048" gradientTransform="matrix(0.482758,0,0,-0.482758,-5.06897,37.96554)">
<stop offset="0" style="stop-color:rgb(21.960784%,24.313725%,31.764706%);stop-opacity:1;"/>
<stop offset="1" style="stop-color:rgb(39.607843%,36.078431%,43.529412%);stop-opacity:0;"/>
</linearGradient>
<clipPath id="clip1">
  <rect width="33" height="33"/>
</clipPath>
<g id="surface6" clip-path="url(#clip1)">
<path style=" stroke:none;fill-rule:evenodd;fill:url(#linear2);" d="M 14 30 L 21 23 L 21 30 Z M 14 30 "/>
</g>
</defs>
<g id="surface1">
<path style=" stroke:none;fill-rule:nonzero;fill:url(#linear0);" d="M 0 0 L 0 28 L 15 28 L 22 21 L 22 0 Z M 0 0 "/>
<path style=" stroke:none;fill-rule:nonzero;fill:rgb(18.039216%,19.215686%,19.607843%);fill-opacity:0.294118;" d="M 0 27 L 15 27 L 15 28 L 0 28 Z M 0 27 "/>
<path style=" stroke:none;fill-rule:nonzero;fill:rgb(100%,100%,100%);fill-opacity:0.411765;" d="M 0 0 L 22 0 L 22 1 L 0 1 Z M 0 0 "/>
<path style=" stroke:none;fill-rule:evenodd;fill:url(#linear1);" d="M 22 21 L 15 28 L 15 21 Z M 22 21 "/>
<use xlink:href="#surface6" transform="matrix(1,0,0,1,-6,-2)" mask="url(#mask0)"/>
<path style=" stroke:none;fill-rule:nonzero;fill:rgb(92.156863%,96.078431%,100%);fill-opacity:1;" d="M 5 7 L 5 8 L 11 8 L 11 7 Z M 5 10 L 5 11 L 17 11 L 17 10 Z M 5 13 L 5 14 L 10 14 L 10 13 Z M 11 13 L 11 19 L 17 19 L 17 13 Z M 12 14 L 16 14 L 16 18 L 12 18 Z M 5 15 L 5 16 L 10 16 L 10 15 Z M 5 18 L 5 19 L 10 19 L 10 18 Z M 5 18 "/>
</g>
</svg>
