<?xml version="1.0" encoding="UTF-8"?>
<svg xmlns="http://www.w3.org/2000/svg" xmlns:xlink="http://www.w3.org/1999/xlink" width="36pt" height="36pt" viewBox="0 0 36 36" version="1.1">
<g id="surface1">
<path style=" stroke:none;fill-rule:nonzero;fill:rgb(70.196078%,70.196078%,70.196078%);fill-opacity:1;" d="M 6 0 C 2.6875 0 0 2.6875 0 6 C 0 9.3125 2.6875 12 6 12 C 7.207031 12 8.339844 11.628906 9.28125 11.015625 C 10.800781 13.523438 11.519531 15.742188 11.53125 17.90625 C 11.542969 20.082031 10.792969 22.355469 9.234375 24.9375 C 8.304688 24.347656 7.183594 24 6 24 C 2.6875 24 0 26.6875 0 30 C 0 33.3125 2.6875 36 6 36 C 8.21875 36 10.117188 34.789062 11.15625 33 L 27 33 L 27 36 L 36 36 L 36 27 L 27 27 L 27 30 L 12 30 C 12 29.039062 11.746094 28.132812 11.34375 27.328125 C 13.449219 24.078125 14.546875 21.019531 14.53125 17.90625 C 14.515625 14.832031 13.386719 11.851562 11.34375 8.71875 C 11.757812 7.902344 12 6.976562 12 6 L 24 6 L 24 12 L 36 12 L 36 0 L 24 0 L 24 3 L 11.15625 3 C 10.117188 1.210938 8.21875 0 6 0 Z M 6 3 C 7.464844 3 8.691406 4.046875 8.953125 5.4375 C 8.988281 5.617188 9 5.808594 9 6 C 9 6.269531 8.972656 6.503906 8.90625 6.75 C 8.839844 6.996094 8.746094 7.238281 8.625 7.453125 C 8.613281 7.472656 8.589844 7.480469 8.578125 7.5 C 8.335938 7.90625 8 8.277344 7.59375 8.53125 C 7.132812 8.820312 6.585938 9 6 9 C 4.34375 9 3 7.65625 3 6 C 3 4.34375 4.34375 3 6 3 Z M 27 3 L 33 3 L 33 9 L 27 9 Z M 6 27 C 7.65625 27 9 28.34375 9 30 C 9 31.65625 7.65625 33 6 33 C 4.34375 33 3 31.65625 3 30 C 3 28.34375 4.34375 27 6 27 Z M 30 30 L 33 30 L 33 33 L 30 33 Z M 30 30 "/>
</g>
</svg>
