<?xml version="1.0" encoding="UTF-8"?>
<svg xmlns="http://www.w3.org/2000/svg" xmlns:xlink="http://www.w3.org/1999/xlink" width="60.000002pt" height="79.999997pt" viewBox="0 0 60.000002 79.999997" version="1.1">
<defs>
<linearGradient id="linear0" gradientUnits="userSpaceOnUse" x1="32" y1="61" x2="32" y2="3" gradientTransform="matrix(1.363636,0,0,1.37931,-13.636364,-4.137931)">
<stop offset="0" style="stop-color:rgb(42.352941%,47.843137%,53.72549%);stop-opacity:1;"/>
<stop offset="1" style="stop-color:rgb(46.27451%,51.764706%,57.254902%);stop-opacity:1;"/>
</linearGradient>
<linearGradient id="linear1" gradientUnits="userSpaceOnUse" x1="47" y1="61" x2="47" y2="47" gradientTransform="matrix(1.363636,0,0,1.37931,-13.636364,-4.137931)">
<stop offset="0" style="stop-color:rgb(74.117647%,76.470588%,78.039216%);stop-opacity:1;"/>
<stop offset="1" style="stop-color:rgb(85.490196%,87.45098%,88.235294%);stop-opacity:1;"/>
</linearGradient>
<filter id="alpha" filterUnits="objectBoundingBox" x="0%" y="0%" width="100%" height="100%">
  <feColorMatrix type="matrix" in="SourceGraphic" values="0 0 0 0 1 0 0 0 0 1 0 0 0 0 1 0 0 0 1 0"/>
</filter>
<mask id="mask0">
  <g filter="url(#alpha)">
<rect x="0" y="0" width="60.000002" height="79.999997" style="fill:rgb(0%,0%,0%);fill-opacity:0.2;stroke:none;"/>
  </g>
</mask>
<linearGradient id="linear2" gradientUnits="userSpaceOnUse" x1="54" y1="31" x2="40" y2="17" gradientTransform="matrix(1.363636,0,0,-1.37931,-14.727274,112.448273)">
<stop offset="0" style="stop-color:rgb(21.960784%,24.313725%,31.764706%);stop-opacity:1;"/>
<stop offset="1" style="stop-color:rgb(39.607843%,36.078431%,43.529412%);stop-opacity:0;"/>
</linearGradient>
<clipPath id="clip1">
  <rect width="96" height="97"/>
</clipPath>
<g id="surface6" clip-path="url(#clip1)">
<path style=" stroke:none;fill-rule:evenodd;fill:url(#linear2);" d="M 39.816406 89 L 58.910156 69.691406 L 58.910156 89 Z M 39.816406 89 "/>
</g>
</defs>
<g id="surface1">
<path style=" stroke:none;fill-rule:nonzero;fill:url(#linear0);" d="M 0 0 L 0 80 L 40.910156 80 L 60 60.691406 L 60 0 Z M 0 0 "/>
<path style=" stroke:none;fill-rule:nonzero;fill:rgb(18.039216%,19.215686%,19.607843%);fill-opacity:0.294118;" d="M 0 78.621094 L 40.910156 78.621094 L 40.910156 80 L 0 80 Z M 0 78.621094 "/>
<path style=" stroke:none;fill-rule:nonzero;fill:rgb(100%,100%,100%);fill-opacity:0.411765;" d="M 0 0 L 60 0 L 60 1.378906 L 0 1.378906 Z M 0 0 "/>
<path style=" stroke:none;fill-rule:evenodd;fill:url(#linear1);" d="M 60 60.691406 L 40.910156 80 L 40.910156 60.691406 Z M 60 60.691406 "/>
<use xlink:href="#surface6" transform="matrix(1,0,0,1,-18,-9)" mask="url(#mask0)"/>
<path style=" stroke:none;fill-rule:nonzero;fill:rgb(83.529412%,85.490196%,86.27451%);fill-opacity:1;" d="M 15 24.828125 L 15 55.171875 L 45 55.171875 L 45 24.828125 Z M 16.363281 26.207031 L 43.636719 26.207031 L 43.636719 31.722656 L 16.363281 31.722656 Z M 16.363281 33.101562 L 23.183594 33.101562 L 23.183594 37.242188 L 16.363281 37.242188 Z M 24.546875 33.101562 L 35.453125 33.101562 L 35.453125 37.242188 L 24.546875 37.242188 Z M 36.816406 33.101562 L 43.636719 33.101562 L 43.636719 37.242188 L 36.816406 37.242188 Z M 16.363281 38.621094 L 23.183594 38.621094 L 23.183594 42.757812 L 16.363281 42.757812 Z M 24.546875 38.621094 L 35.453125 38.621094 L 35.453125 42.757812 L 24.546875 42.757812 Z M 36.816406 38.621094 L 43.636719 38.621094 L 43.636719 42.757812 L 36.816406 42.757812 Z M 16.363281 44.136719 L 23.183594 44.136719 L 23.183594 48.277344 L 16.363281 48.277344 Z M 24.546875 44.136719 L 35.453125 44.136719 L 35.453125 48.277344 L 24.546875 48.277344 Z M 36.816406 44.136719 L 43.636719 44.136719 L 43.636719 48.277344 L 36.816406 48.277344 Z M 16.363281 49.65625 L 23.183594 49.65625 L 23.183594 53.792969 L 16.363281 53.792969 Z M 24.546875 49.65625 L 35.453125 49.65625 L 35.453125 53.792969 L 24.546875 53.792969 Z M 36.816406 49.65625 L 43.636719 49.65625 L 43.636719 53.792969 L 36.816406 53.792969 Z M 36.816406 49.65625 "/>
</g>
</svg>
