<?xml version="1.0" encoding="UTF-8"?>
<svg xmlns="http://www.w3.org/2000/svg" xmlns:xlink="http://www.w3.org/1999/xlink" width="36pt" height="36pt" viewBox="0 0 36 36" version="1.1">
<g id="surface1">
<path style=" stroke:none;fill-rule:nonzero;fill:rgb(70.196078%,70.196078%,70.196078%);fill-opacity:1;" d="M 0 0 L 0 36 L 36 36 L 36 0 Z M 3 3 L 33 3 L 33 9 L 3 9 Z M 3 12 L 9 12 L 9 21 L 3 21 Z M 12 12 L 24 12 L 24 21 L 12 21 Z M 27 12 L 33 12 L 33 21 L 27 21 Z M 3 24 L 9 24 L 9 33 L 3 33 Z M 12 24 L 24 24 L 24 33 L 12 33 Z M 27 24 L 33 24 L 33 33 L 27 33 Z M 27 24 "/>
</g>
</svg>
