<?xml version="1.0" encoding="UTF-8"?>
<svg xmlns="http://www.w3.org/2000/svg" xmlns:xlink="http://www.w3.org/1999/xlink" width="36pt" height="33pt" viewBox="0 0 36 33" version="1.1">
<g id="surface1">
<path style=" stroke:none;fill-rule:nonzero;fill:rgb(70.196078%,70.196078%,70.196078%);fill-opacity:1;" d="M 0 0 L 0 3 L 21 3 L 21 0 Z M 0 7.5 L 0 10.5 L 36 10.5 L 36 7.5 Z M 0 15 L 0 18 L 13.5 18 L 13.5 15 Z M 18 15 L 18 33 L 36 33 L 36 15 Z M 21 18 L 33 18 L 33 30 L 21 30 Z M 0 22.5 L 0 25.5 L 13.5 25.5 L 13.5 22.5 Z M 0 30 L 0 33 L 13.5 33 L 13.5 30 Z M 0 30 "/>
</g>
</svg>
