<?xml version="1.0" encoding="UTF-8"?>
<svg xmlns="http://www.w3.org/2000/svg" xmlns:xlink="http://www.w3.org/1999/xlink" width="60.000001pt" height="80pt" viewBox="0 0 60.000001 80" version="1.1">
<defs>
<linearGradient id="linear0" gradientUnits="userSpaceOnUse" x1="-50.142857" y1="1052.25506" x2="-50.142857" y2="994.25506" gradientTransform="matrix(1.363636,0,0,1.379309,98.376623,-1371.38535)">
<stop offset="0" style="stop-color:rgb(42.352941%,47.843137%,53.72549%);stop-opacity:1;"/>
<stop offset="1" style="stop-color:rgb(46.27451%,51.764706%,57.254902%);stop-opacity:1;"/>
</linearGradient>
<linearGradient id="linear1" gradientUnits="userSpaceOnUse" x1="-35.142857" y1="1052.25506" x2="-35.142857" y2="1038.25506" gradientTransform="matrix(1.363636,0,0,1.379309,98.376623,-1371.38535)">
<stop offset="0" style="stop-color:rgb(74.117647%,76.470588%,78.039216%);stop-opacity:1;"/>
<stop offset="1" style="stop-color:rgb(85.490196%,87.45098%,88.235294%);stop-opacity:1;"/>
</linearGradient>
<filter id="alpha" filterUnits="objectBoundingBox" x="0%" y="0%" width="100%" height="100%">
  <feColorMatrix type="matrix" in="SourceGraphic" values="0 0 0 0 1 0 0 0 0 1 0 0 0 0 1 0 0 0 1 0"/>
</filter>
<mask id="mask0">
  <g filter="url(#alpha)">
<rect x="0" y="0" width="60.000001" height="80" style="fill:rgb(0%,0%,0%);fill-opacity:0.2;stroke:none;"/>
  </g>
</mask>
<linearGradient id="linear2" gradientUnits="userSpaceOnUse" x1="54" y1="31" x2="40" y2="17" gradientTransform="matrix(1.363636,0,0,-1.379309,-14.727267,112.44826)">
<stop offset="0" style="stop-color:rgb(21.960784%,24.313725%,31.764706%);stop-opacity:1;"/>
<stop offset="1" style="stop-color:rgb(39.607843%,36.078431%,43.529412%);stop-opacity:0;"/>
</linearGradient>
<clipPath id="clip1">
  <rect width="97" height="97"/>
</clipPath>
<g id="surface6" clip-path="url(#clip1)">
<path style=" stroke:none;fill-rule:evenodd;fill:url(#linear2);" d="M 39.816406 89 L 58.910156 69.691406 L 58.910156 89 Z M 39.816406 89 "/>
</g>
</defs>
<g id="surface1">
<path style=" stroke:none;fill-rule:nonzero;fill:url(#linear0);" d="M 0 0 L 0 80 L 40.910156 80 L 60 60.691406 L 60 0 Z M 0 0 "/>
<path style=" stroke:none;fill-rule:nonzero;fill:rgb(18.039216%,19.215686%,19.607843%);fill-opacity:0.294118;" d="M 0 78.621094 L 40.910156 78.621094 L 40.910156 80 L 0 80 Z M 0 78.621094 "/>
<path style=" stroke:none;fill-rule:nonzero;fill:rgb(100%,100%,100%);fill-opacity:0.411765;" d="M 0 0 L 60 0 L 60 1.378906 L 0 1.378906 Z M 0 0 "/>
<path style=" stroke:none;fill-rule:evenodd;fill:url(#linear1);" d="M 60 60.691406 L 40.910156 80 L 40.910156 60.691406 Z M 60 60.691406 "/>
<use xlink:href="#surface6" transform="matrix(1,0,0,1,-18,-9)" mask="url(#mask0)"/>
<path style=" stroke:none;fill-rule:nonzero;fill:rgb(83.529412%,85.490196%,86.27451%);fill-opacity:1;" d="M 15 24.828125 L 15 26.207031 L 45 26.207031 L 45 24.828125 Z M 15 28.964844 L 15 30.34375 L 45 30.34375 L 45 28.964844 Z M 15 33.101562 L 15 34.484375 L 30 34.484375 L 30 33.101562 Z M 15 38.621094 L 15 40 L 45 40 L 45 38.621094 Z M 15 42.757812 L 15 44.136719 L 27.273438 44.136719 L 27.273438 42.757812 Z M 32.726562 42.757812 L 32.726562 55.171875 L 45 55.171875 L 45 42.757812 Z M 34.089844 44.136719 L 43.636719 44.136719 L 43.636719 53.792969 L 34.089844 53.792969 Z M 15 45.515625 L 15 46.898438 L 21.816406 46.898438 L 21.816406 45.515625 Z M 15 49.65625 L 15 51.035156 L 28.636719 51.035156 L 28.636719 49.65625 Z M 15 53.792969 L 15 55.171875 L 23.183594 55.171875 L 23.183594 53.792969 Z M 15 53.792969 "/>
</g>
</svg>
