<?xml version="1.0" encoding="UTF-8"?>
<svg xmlns="http://www.w3.org/2000/svg" xmlns:xlink="http://www.w3.org/1999/xlink" width="12pt" height="12pt" viewBox="0 0 12 12" version="1.1">
<g id="surface1">
<path style=" stroke:none;fill-rule:nonzero;fill:rgb(70.196078%,70.196078%,70.196078%);fill-opacity:1;" d="M 0 0 L 0 1 L 6 1 L 6 0 Z M 0 3 L 0 4 L 12 4 L 12 3 Z M 0 6 L 0 7 L 5 7 L 5 6 Z M 6 6 L 6 12 L 12 12 L 12 6 Z M 7 7 L 11 7 L 11 11 L 7 11 Z M 0 8 L 0 9 L 5 9 L 5 8 Z M 0 11 L 0 12 L 5 12 L 5 11 Z M 0 11 "/>
</g>
</svg>
