<?xml version="1.0" encoding="UTF-8"?>
<svg xmlns="http://www.w3.org/2000/svg" xmlns:xlink="http://www.w3.org/1999/xlink" width="25pt" height="22pt" viewBox="0 0 25 22" version="1.1">
<g id="surface1">
<path style=" stroke:none;fill-rule:nonzero;fill:rgb(70.196078%,70.196078%,70.196078%);fill-opacity:1;" d="M 0 0 L 0 2 L 15 2 L 15 0 Z M 0 5 L 0 7 L 25 7 L 25 5 Z M 0 10 L 0 12 L 10 12 L 10 10 Z M 13 10 L 13 22 L 25 22 L 25 10 Z M 15 12 L 23 12 L 23 20 L 15 20 Z M 0 15 L 0 17 L 10 17 L 10 15 Z M 0 20 L 0 22 L 10 22 L 10 20 Z M 0 20 "/>
</g>
</svg>
