<?xml version="1.0" encoding="UTF-8"?>
<svg xmlns="http://www.w3.org/2000/svg" xmlns:xlink="http://www.w3.org/1999/xlink" width="20pt" height="20pt" viewBox="0 0 20 20" version="1.1">
<g id="surface1">
<path style=" stroke:none;fill-rule:nonzero;fill:rgb(85.490196%,26.666667%,32.54902%);fill-opacity:1;" d="M 3 0 L 3 6 L 0 6 L 0 16 L 5 16 L 5 20 L 15 20 L 15 16 L 20 16 L 20 6 L 17 6 L 17 0 Z M 4 1 L 16 1 L 16 6 L 4 6 Z M 5 2 L 5 3 L 15 3 L 15 2 Z M 5 4 L 5 5 L 15 5 L 15 4 Z M 1 7 L 19 7 L 19 15 L 16 15 L 16 13 L 4 13 L 4 15 L 1 15 Z M 15 9 L 15 10 L 18 10 L 18 9 Z M 6 16 L 14 16 L 14 19 L 6 19 Z M 6 16 "/>
</g>
</svg>
