<?xml version="1.0" encoding="UTF-8"?>
<svg xmlns="http://www.w3.org/2000/svg" xmlns:xlink="http://www.w3.org/1999/xlink" width="18pt" height="21pt" viewBox="0 0 18 21" version="1.1">
<g id="surface1">
<path style=" stroke:none;fill-rule:nonzero;fill:rgb(30.196078%,30.196078%,30.196078%);fill-opacity:1;" d="M 9 0 C 4 0 0 1.34375 0 3 L 0 18 C 0 19.65625 4.03125 21 9 21 C 13.96875 21 18 19.65625 18 18 L 18 3 C 18 1.34375 14 0 9 0 Z M 9 1 C 13.417969 1 17 1.894531 17 3 C 17 4.105469 13.417969 5 9 5 C 4.582031 5 1 4.105469 1 3 C 1 1.894531 4.582031 1 9 1 Z M 1 4.375 C 2.492188 5.34375 5.507812 6 9 6 C 12.492188 6 15.507812 5.34375 17 4.375 L 17 8 C 17 9.105469 13.417969 10 9 10 C 4.582031 10 1 9.105469 1 8 Z M 1 9.375 C 2.492188 10.34375 5.507812 11 9 11 C 12.492188 11 15.507812 10.34375 17 9.375 L 17 13 C 17 14.105469 13.417969 15 9 15 C 4.582031 15 1 14.105469 1 13 Z M 1 14.375 C 2.492188 15.34375 5.5 16 9 16 C 12.5 16 15.5 15.34375 17 14.375 L 17 18 C 17 19.105469 13.417969 20 9 20 C 4.582031 20 1 19.105469 1 18 Z M 1 14.375 "/>
</g>
</svg>
