<?xml version="1.0" encoding="UTF-8"?>
<svg xmlns="http://www.w3.org/2000/svg" xmlns:xlink="http://www.w3.org/1999/xlink" width="18pt" height="20pt" viewBox="0 0 18 20" version="1.1">
<g id="surface1">
<path style=" stroke:none;fill-rule:nonzero;fill:rgb(30.196078%,30.196078%,30.196078%);fill-opacity:1;" d="M 0 0 L 0 20 L 12 20 L 18 14 L 18 0 Z M 1 1 L 17 1 L 17 13 L 11 13 L 11 19 L 1 19 Z M 3 3 L 3 7 L 7 7 L 7 3 Z M 9 3 L 9 4 L 15 4 L 15 3 Z M 4 4 L 6 4 L 6 6 L 4 6 Z M 9 6 L 9 7 L 14 7 L 14 6 Z M 3 9 L 3 10 L 15 10 L 15 9 Z M 3 13 L 3 14 L 9 14 L 9 13 Z M 3 16 L 3 17 L 9 17 L 9 16 Z M 3 16 "/>
</g>
</svg>
