<?xml version="1.0" encoding="UTF-8"?>
<svg xmlns="http://www.w3.org/2000/svg" xmlns:xlink="http://www.w3.org/1999/xlink" width="24pt" height="24pt" viewBox="0 0 24 24" version="1.1">
<g id="surface1">
<path style=" stroke:none;fill-rule:nonzero;fill:rgb(30.196078%,30.196078%,30.196078%);fill-opacity:1;" d="M 0 0 L 0 24 L 13 24 L 13 23 L 6 23 L 6 16 L 13 16 L 13 15 L 5 15 L 5 23 L 1 23 L 1 1 L 6 1 L 6 9 L 17 9 L 17 1 L 17.585938 1 L 23 6.414062 L 23 13 L 24 13 L 24 6 L 18 0 Z M 7 1 L 13 1 L 13 8 L 7 8 Z M 7 1 "/>
<path style=" stroke:none;fill-rule:nonzero;fill:rgb(85.490196%,26.666667%,32.54902%);fill-opacity:1;" d="M 18.5 13 L 17.449219 15.957031 L 14.609375 14.609375 L 15.957031 17.449219 L 13 18.5 L 15.957031 19.550781 L 14.609375 22.390625 L 17.449219 21.042969 L 18.5 24 L 19.550781 21.042969 L 22.390625 22.390625 L 21.042969 19.550781 L 24 18.5 L 21.042969 17.449219 L 22.390625 14.609375 L 19.550781 15.957031 Z M 18.5 13 "/>
</g>
</svg>
