<?xml version="1.0" encoding="UTF-8"?>
<svg xmlns="http://www.w3.org/2000/svg" xmlns:xlink="http://www.w3.org/1999/xlink" width="12pt" height="12pt" viewBox="0 0 12 12" version="1.1">
<g id="surface1">
<path style=" stroke:none;fill-rule:nonzero;fill:rgb(30.196078%,30.196078%,30.196078%);fill-opacity:1;" d="M 0 0 L 0 12 L 6 12 L 6 11 L 3 11 L 3 8 L 6 8 L 6 7 L 1.96875 7 L 1.96875 11 L 1 11 L 1 1 L 3 1 L 3 5 L 9 5 L 9 1 L 9.28125 1 L 11 2.71875 L 11 6 L 12 6 L 12 2.28125 L 9.71875 0 Z M 4 1 L 5.90625 1 L 5.90625 4 L 4 4 Z M 4 1 "/>
<path style=" stroke:none;fill-rule:nonzero;fill:rgb(85.490196%,26.666667%,32.54902%);fill-opacity:1;" d="M 9 6 L 8.425781 7.613281 L 6.878906 6.878906 L 7.613281 8.425781 L 6 9 L 7.613281 9.574219 L 6.878906 11.121094 L 8.425781 10.386719 L 9 12 L 9.574219 10.386719 L 11.121094 11.121094 L 10.386719 9.574219 L 12 9 L 10.386719 8.425781 L 11.121094 6.878906 L 9.574219 7.613281 Z M 9 6 "/>
</g>
</svg>
