<?xml version="1.0" encoding="UTF-8"?>
<svg xmlns="http://www.w3.org/2000/svg" xmlns:xlink="http://www.w3.org/1999/xlink" width="16pt" height="16.001953pt" viewBox="0 0 16 16.001953" version="1.1">
<g id="surface1">
<path style=" stroke:none;fill-rule:nonzero;fill:rgb(30.196078%,30.196078%,30.196078%);fill-opacity:1;" d="M 0 0 L 0 16 L 10 16 L 10 15 L 4 15 L 4 9 L 13 9 L 13 8 L 3 8 L 3 15 L 1 15 L 1 1 L 4 1 L 4 6 L 12 6 L 12 1 L 12.292969 1 L 15 3.707031 L 15 9 L 16 9 L 16 3.300781 L 15.992188 3.300781 L 16 3.292969 L 12.707031 0 L 12.699219 0.0078125 L 12.699219 0 Z M 5 1 L 8.902344 1 L 8.902344 5 L 5 5 Z M 5 1 "/>
<path style=" stroke:none;fill-rule:nonzero;fill:rgb(85.490196%,26.666667%,32.54902%);fill-opacity:1;" d="M 13 10 L 12.425781 11.613281 L 10.878906 10.878906 L 11.613281 12.425781 L 10 13 L 11.613281 13.578125 L 10.878906 15.125 L 12.425781 14.390625 L 13 16 L 13.574219 14.390625 L 15.121094 15.125 L 14.386719 13.578125 L 16 13 L 14.386719 12.425781 L 15.121094 10.878906 L 13.574219 11.613281 Z M 13 10 "/>
</g>
</svg>
