<?xml version="1.0" encoding="UTF-8"?>
<svg xmlns="http://www.w3.org/2000/svg" xmlns:xlink="http://www.w3.org/1999/xlink" width="14pt" height="8pt" viewBox="0 0 14 8" version="1.1">
<g id="surface1">
<path style=" stroke:none;fill-rule:nonzero;fill:rgb(30.196078%,30.196078%,30.196078%);fill-opacity:1;" d="M 1 0 C 0.445312 0 0 0.445312 0 1 L 0 7 C 0 7.554688 0.445312 8 1 8 L 5 8 C 5.136719 8 5.253906 7.957031 5.375 7.90625 C 5.734375 7.753906 6 7.414062 6 7 L 6 6 L 8 6 L 8 7 C 8 7.554688 8.445312 8 9 8 L 13 8 C 13.554688 8 14 7.554688 14 7 L 14 1 C 14 0.445312 13.554688 0 13 0 L 9 0 C 8.863281 0 8.746094 0.0429688 8.625 0.09375 C 8.265625 0.246094 8 0.585938 8 1 L 8 2 L 6 2 L 6 1 C 6 0.863281 5.957031 0.746094 5.90625 0.625 C 5.753906 0.265625 5.414062 0 5 0 Z M 1 1 L 5 1 L 5 2 C 4.445312 2 4 2.445312 4 3 L 4 5 C 4 5.554688 4.445312 6 5 6 L 5 7 L 1 7 Z M 9 1 L 13 1 L 13 7 L 9 7 L 9 6 C 9.554688 6 10 5.554688 10 5 L 10 3 C 10 2.445312 9.554688 2 9 2 Z M 5 3 L 9 3 L 9 5 L 5 5 Z M 5 3 "/>
</g>
</svg>
