<?xml version="1.0" encoding="UTF-8"?>
<svg xmlns="http://www.w3.org/2000/svg" xmlns:xlink="http://www.w3.org/1999/xlink" width="12pt" height="12pt" viewBox="0 0 12 12" version="1.1">
<g id="surface1">
<path style=" stroke:none;fill-rule:nonzero;fill:rgb(1.568627%,53.72549%,41.568627%);fill-opacity:1;" d="M 2 0 C 0.890625 0 0 0.890625 0 2 C 0 3.109375 0.890625 4 2 4 C 2.503906 4 2.957031 3.808594 3.304688 3.507812 C 3.738281 4.238281 4 5.082031 4 6 C 4 6.917969 3.738281 7.761719 3.304688 8.496094 C 2.957031 8.191406 2.503906 8 2 8 C 0.890625 8 0 8.890625 0 10 C 0 11.109375 0.890625 12 2 12 C 2.742188 12 3.378906 11.597656 3.726562 11 L 9 11 L 9 12 L 12 12 L 12 9 L 9 9 L 9 10 L 4 10 C 4 9.804688 3.960938 9.617188 3.910156 9.4375 C 4.59375 8.464844 5 7.285156 5 6 C 5 4.71875 4.582031 3.550781 3.90625 2.582031 C 3.960938 2.398438 4 2.203125 4 2 L 8 2 L 8 4 L 12 4 L 12 0 L 8 0 L 8 1 L 3.726562 1 C 3.378906 0.402344 2.742188 0 2 0 Z M 2 1 C 2.554688 1 3 1.445312 3 2 C 3 2.554688 2.554688 3 2 3 C 1.445312 3 1 2.554688 1 2 C 1 1.445312 1.445312 1 2 1 Z M 9 1 L 11 1 L 11 3 L 9 3 Z M 2 9 C 2.554688 9 3 9.445312 3 10 C 3 10.554688 2.554688 11 2 11 C 1.445312 11 1 10.554688 1 10 C 1 9.445312 1.445312 9 2 9 Z M 10 10 L 11 10 L 11 11 L 10 11 Z M 10 10 "/>
</g>
</svg>
