<?xml version="1.0" encoding="UTF-8"?>
<svg xmlns="http://www.w3.org/2000/svg" xmlns:xlink="http://www.w3.org/1999/xlink" width="14pt" height="12pt" viewBox="0 0 14 12" version="1.1">
<g id="surface1">
<path style=" stroke:none;fill-rule:nonzero;fill:rgb(96.470588%,14.117647%,34.901961%);fill-opacity:1;" d="M 1 0 L 1 8.992188 L 0 9.992188 L 0 10 L 1 10 L 1 12 L 13 12 L 13 9 L 14 9 L 14 8.992188 L 13 7.992188 L 13 0 Z M 2 1 L 12 1 L 12 6.992188 L 8.007812 3 L 7.992188 3 L 5.5 5.492188 L 5.003906 5 L 4.996094 5 L 2 7.992188 Z M 4 2 C 3.445312 2 3 2.445312 3 3 C 3 3.554688 3.445312 4 4 4 C 4.554688 4 5 3.554688 5 3 C 5 2.445312 4.554688 2 4 2 Z M 8 4.410156 L 12 8.40625 L 12 9 L 9.007812 9 L 6.207031 6.203125 Z M 5 6.410156 L 7.589844 9 L 2.40625 9 Z M 2 10 L 12 10 L 12 11 L 2 11 Z M 2 10 "/>
</g>
</svg>
