<?xml version="1.0" encoding="UTF-8"?>
<svg xmlns="http://www.w3.org/2000/svg" xmlns:xlink="http://www.w3.org/1999/xlink" width="12pt" height="12pt" viewBox="0 0 12 12" version="1.1">
<g id="surface1">
<path style=" stroke:none;fill-rule:nonzero;fill:rgb(1.568627%,53.72549%,41.568627%);fill-opacity:1;" d="M 6 0 C 2.6875 0 0 2.6875 0 6 C 0 9.3125 2.6875 12 6 12 C 9.3125 12 12 9.3125 12 6 C 12 2.6875 9.3125 0 6 0 Z M 6 1 C 6.171875 1 6.332031 1.015625 6.5 1.03125 L 6.625 1.03125 C 6.675781 1.042969 6.730469 1.054688 6.78125 1.0625 C 6.925781 1.085938 7.046875 1.121094 7.1875 1.15625 C 7.445312 1.21875 7.699219 1.304688 7.9375 1.40625 C 8.070312 1.460938 8.1875 1.527344 8.3125 1.59375 C 8.3125 1.605469 8.3125 1.613281 8.3125 1.625 C 8.339844 1.636719 8.355469 1.691406 8.40625 1.71875 C 8.425781 1.730469 8.421875 1.742188 8.4375 1.75 C 8.464844 1.765625 8.507812 1.78125 8.5 1.8125 C 8.492188 1.851562 8.433594 1.84375 8.40625 1.875 C 8.410156 1.929688 8.359375 1.929688 8.34375 1.96875 C 8.351562 1.992188 8.402344 2 8.40625 2.03125 C 8.402344 2.0625 8.332031 2.058594 8.34375 2.09375 C 8.398438 2.132812 8.449219 2.101562 8.5 2.09375 C 8.613281 2.078125 8.710938 2.082031 8.78125 2.03125 C 8.773438 1.976562 8.882812 1.984375 8.875 1.9375 C 8.902344 1.957031 8.941406 1.976562 8.96875 2 C 8.957031 2.007812 8.949219 2.023438 8.9375 2.03125 C 8.917969 2.039062 8.894531 2.046875 8.875 2.058594 C 8.847656 2.078125 8.8125 2.101562 8.78125 2.121094 C 8.757812 2.136719 8.710938 2.214844 8.6875 2.214844 C 8.660156 2.214844 8.613281 2.175781 8.59375 2.183594 C 8.5625 2.195312 8.566406 2.234375 8.53125 2.246094 C 8.464844 2.269531 8.335938 2.210938 8.3125 2.308594 C 8.339844 2.367188 8.449219 2.339844 8.5 2.371094 C 8.53125 2.390625 8.585938 2.460938 8.59375 2.496094 C 8.601562 2.523438 8.605469 2.652344 8.59375 2.683594 C 8.5625 2.761719 8.46875 2.746094 8.375 2.742188 L 8.3125 2.742188 C 8.15625 2.734375 8.007812 2.664062 7.9375 2.773438 C 7.941406 2.859375 7.957031 2.921875 7.9375 2.992188 C 7.921875 3.046875 7.839844 3.105469 7.84375 3.148438 C 7.84375 3.175781 7.898438 3.210938 7.90625 3.242188 C 7.910156 3.261719 7.898438 3.289062 7.90625 3.304688 C 7.933594 3.355469 7.984375 3.296875 8.03125 3.304688 C 8.074219 3.316406 8.125 3.382812 8.125 3.429688 C 8.125 3.464844 8.117188 3.523438 8.09375 3.554688 C 8.050781 3.621094 7.96875 3.613281 7.90625 3.648438 C 7.855469 3.679688 7.84375 3.753906 7.8125 3.804688 C 7.78125 3.863281 7.738281 3.882812 7.75 3.960938 C 7.703125 4.050781 7.65625 4.105469 7.5625 4.148438 C 7.535156 4.164062 7.492188 4.164062 7.46875 4.179688 C 7.449219 4.195312 7.433594 4.242188 7.40625 4.273438 C 7.371094 4.3125 7.332031 4.339844 7.3125 4.367188 C 7.296875 4.390625 7.296875 4.433594 7.28125 4.464844 C 7.257812 4.507812 7.214844 4.515625 7.1875 4.558594 C 7.175781 4.578125 7.171875 4.625 7.15625 4.652344 C 7.125 4.710938 7.085938 4.757812 7.09375 4.808594 C 7.097656 4.855469 7.152344 4.859375 7.15625 4.902344 C 7.160156 4.925781 7.125 4.9375 7.125 4.964844 C 7.125 5.003906 7.152344 5.027344 7.15625 5.058594 C 7.164062 5.132812 7.109375 5.164062 7.09375 5.214844 C 7.085938 5.238281 7.101562 5.257812 7.09375 5.277344 C 7.082031 5.3125 7.03125 5.359375 7.03125 5.402344 C 7.03125 5.433594 7.089844 5.453125 7.09375 5.496094 C 7.097656 5.523438 7.054688 5.5625 7.0625 5.589844 C 7.074219 5.644531 7.175781 5.703125 7.21875 5.746094 C 7.277344 5.804688 7.351562 5.84375 7.375 5.902344 C 7.394531 5.953125 7.398438 6.050781 7.4375 6.089844 C 7.464844 6.117188 7.527344 6.125 7.5625 6.152344 C 7.597656 6.179688 7.621094 6.183594 7.65625 6.210938 C 7.71875 6.261719 7.808594 6.375 7.90625 6.367188 C 7.957031 6.359375 8.003906 6.316406 8.0625 6.308594 C 8.121094 6.296875 8.191406 6.273438 8.25 6.277344 C 8.296875 6.289062 8.359375 6.3125 8.40625 6.308594 C 8.457031 6.296875 8.503906 6.296875 8.5625 6.277344 C 8.660156 6.234375 8.824219 6.164062 8.96875 6.183594 C 9.078125 6.199219 9.078125 6.320312 9.15625 6.371094 C 9.246094 6.382812 9.304688 6.355469 9.375 6.371094 C 9.429688 6.382812 9.496094 6.453125 9.5 6.496094 C 9.503906 6.539062 9.445312 6.59375 9.4375 6.621094 C 9.421875 6.679688 9.449219 6.742188 9.4375 6.777344 C 9.429688 6.804688 9.40625 6.84375 9.40625 6.871094 C 9.40625 6.898438 9.441406 6.960938 9.46875 6.996094 C 9.5 7.039062 9.554688 7.074219 9.59375 7.121094 C 9.667969 7.207031 9.699219 7.292969 9.75 7.402344 C 9.761719 7.429688 9.738281 7.460938 9.75 7.496094 C 9.726562 7.664062 9.671875 7.777344 9.5625 7.964844 C 9.511719 8.023438 9.4375 8.078125 9.4375 8.152344 C 9.433594 8.332031 9.539062 8.445312 9.53125 8.621094 C 9.511719 8.855469 9.550781 8.871094 9.53125 8.996094 C 9.609375 9.035156 9.554688 9.164062 9.53125 9.246094 C 9.496094 9.34375 9.457031 9.367188 9.4375 9.433594 C 9.492188 9.457031 9.566406 9.449219 9.625 9.433594 C 9.59375 9.464844 9.5625 9.496094 9.53125 9.527344 C 9.304688 9.753906 9.046875 9.972656 8.78125 10.152344 C 8.265625 10.5 7.691406 10.765625 7.0625 10.902344 C 6.71875 10.976562 6.367188 10.996094 6 10.996094 C 5.808594 10.996094 5.621094 10.984375 5.4375 10.964844 C 5.289062 10.949219 5.144531 10.929688 5 10.902344 C 4.71875 10.84375 4.449219 10.726562 4.1875 10.621094 C 4.179688 10.605469 4.152344 10.582031 4.15625 10.5625 C 4.207031 10.539062 4.304688 10.632812 4.34375 10.5625 C 4.363281 10.527344 4.320312 10.4375 4.34375 10.40625 C 4.363281 10.378906 4.464844 10.378906 4.5 10.375 C 4.554688 10.363281 4.625 10.355469 4.65625 10.34375 C 4.6875 10.320312 4.726562 10.246094 4.71875 10.1875 C 4.714844 10.15625 4.679688 10.148438 4.65625 10.125 C 4.636719 10.101562 4.667969 10.082031 4.65625 10.0625 C 4.632812 10.027344 4.574219 10.019531 4.5625 9.96875 C 4.632812 9.953125 4.738281 10.027344 4.84375 10 C 4.894531 9.984375 4.976562 9.886719 5 9.84375 C 5.007812 9.828125 4.992188 9.800781 5 9.78125 C 5.007812 9.761719 5.027344 9.726562 5.03125 9.71875 C 5.039062 9.691406 5.023438 9.707031 5.03125 9.6875 C 5.050781 9.636719 5.09375 9.597656 5.125 9.5625 C 5.148438 9.535156 5.199219 9.496094 5.21875 9.46875 C 5.242188 9.4375 5.234375 9.433594 5.25 9.40625 C 5.265625 9.316406 5.195312 9.234375 5.21875 9.15625 C 5.242188 9.066406 5.382812 9.007812 5.46875 8.96875 C 5.5 8.953125 5.539062 8.945312 5.5625 8.9375 C 5.621094 8.917969 5.695312 8.894531 5.75 8.875 C 5.84375 8.839844 5.859375 8.773438 5.90625 8.6875 C 5.929688 8.648438 5.964844 8.589844 5.96875 8.5625 C 5.972656 8.535156 5.964844 8.53125 5.96875 8.5 C 5.972656 8.472656 5.960938 8.441406 5.96875 8.40625 C 5.980469 8.363281 6 8.269531 6 8.21875 C 6 8.179688 5.96875 8.160156 5.96875 8.125 C 5.960938 7.996094 6.015625 8.007812 6.0625 7.9375 C 6.085938 7.902344 6.109375 7.835938 6.125 7.8125 C 6.207031 7.691406 6.355469 7.652344 6.34375 7.46875 C 6.339844 7.410156 6.292969 7.269531 6.25 7.25 C 6.226562 7.238281 6.191406 7.234375 6.15625 7.21875 C 6.039062 7.175781 5.933594 7.042969 5.8125 7.03125 L 5.75 7.03125 C 5.703125 7.03125 5.648438 7.007812 5.59375 7 C 5.558594 6.992188 5.488281 7.011719 5.46875 7 C 5.4375 6.988281 5.429688 6.925781 5.40625 6.90625 C 5.386719 6.894531 5.34375 6.886719 5.3125 6.875 C 5.261719 6.859375 5.246094 6.816406 5.1875 6.8125 C 5.167969 6.8125 5.144531 6.824219 5.125 6.8125 C 5.09375 6.804688 5.058594 6.800781 5.03125 6.78125 C 4.996094 6.761719 4.953125 6.75 4.9375 6.71875 C 4.96875 6.613281 4.867188 6.597656 4.84375 6.53125 C 4.832031 6.503906 4.855469 6.433594 4.84375 6.40625 C 4.832031 6.371094 4.789062 6.34375 4.75 6.3125 C 4.679688 6.257812 4.632812 6.234375 4.53125 6.21875 C 4.484375 6.210938 4.429688 6.230469 4.375 6.21875 C 4.316406 6.210938 4.230469 6.175781 4.1875 6.125 C 4.144531 6.078125 4.128906 6.023438 4.09375 6 C 4.058594 5.980469 4.023438 5.960938 4 5.9375 C 3.988281 5.929688 3.980469 5.929688 3.96875 5.90625 C 3.949219 5.871094 3.914062 5.859375 3.9375 5.8125 C 3.898438 5.792969 3.917969 5.851562 3.875 5.84375 C 3.835938 5.789062 3.808594 5.734375 3.71875 5.75 C 3.679688 5.761719 3.640625 5.84375 3.59375 5.84375 C 3.554688 5.84375 3.519531 5.761719 3.46875 5.75 C 3.429688 5.742188 3.371094 5.789062 3.34375 5.78125 C 3.300781 5.773438 3.289062 5.746094 3.25 5.71875 C 3.222656 5.703125 3.171875 5.65625 3.15625 5.65625 C 3.105469 5.65625 3.070312 5.757812 3 5.71875 C 2.964844 5.675781 3.070312 5.667969 3.03125 5.625 C 3 5.597656 2.992188 5.644531 2.96875 5.65625 C 2.941406 5.675781 2.90625 5.679688 2.875 5.6875 C 2.804688 5.714844 2.742188 5.722656 2.6875 5.75 C 2.636719 5.777344 2.621094 5.792969 2.59375 5.84375 C 2.570312 5.886719 2.535156 5.96875 2.5 5.96875 C 2.457031 5.96875 2.445312 5.925781 2.40625 5.90625 C 2.292969 5.859375 2.21875 5.9375 2.125 5.9375 C 2.035156 5.9375 1.902344 5.804688 1.90625 5.71875 C 1.910156 5.667969 1.929688 5.597656 1.9375 5.53125 C 1.941406 5.484375 2 5.421875 2 5.375 C 2 5.316406 1.882812 5.289062 1.84375 5.28125 C 1.75 5.265625 1.636719 5.324219 1.53125 5.28125 C 1.511719 5.25 1.550781 5.222656 1.5625 5.1875 C 1.570312 5.167969 1.554688 5.148438 1.5625 5.125 C 1.574219 5.09375 1.640625 5.066406 1.65625 5.03125 C 1.667969 5.007812 1.644531 4.96875 1.65625 4.9375 C 1.667969 4.902344 1.714844 4.871094 1.71875 4.84375 C 1.722656 4.808594 1.683594 4.773438 1.65625 4.75 C 1.574219 4.761719 1.515625 4.761719 1.46875 4.78125 C 1.359375 4.832031 1.390625 4.964844 1.28125 5 C 1.246094 5.011719 1.199219 5.023438 1.15625 5.03125 C 1.136719 5.042969 1.113281 5.03125 1.09375 5.03125 C 1.09375 5.019531 1.089844 5.011719 1.09375 5 C 1.097656 4.976562 1.121094 4.960938 1.125 4.9375 C 1.195312 4.613281 1.304688 4.296875 1.4375 4 L 1.46875 4 C 1.507812 4.011719 1.53125 4.058594 1.5625 4.0625 C 1.65625 4.074219 1.675781 3.976562 1.75 3.9375 C 1.828125 3.949219 1.867188 3.925781 1.9375 3.9375 C 1.984375 3.949219 2.054688 3.996094 2.09375 4 C 2.125 4 2.125 3.964844 2.15625 3.96875 C 2.1875 3.980469 2.246094 4.027344 2.25 4.0625 C 2.253906 4.109375 2.207031 4.167969 2.21875 4.21875 C 2.265625 4.265625 2.371094 4.285156 2.4375 4.3125 C 2.480469 4.277344 2.445312 4.207031 2.4375 4.15625 C 2.4375 4.132812 2.441406 4.082031 2.4375 4.0625 C 2.433594 4.027344 2.40625 4 2.40625 3.96875 C 2.40625 3.824219 2.527344 3.773438 2.625 3.71875 C 2.664062 3.695312 2.714844 3.644531 2.75 3.625 C 2.800781 3.601562 2.832031 3.613281 2.875 3.59375 C 2.949219 3.550781 3.003906 3.484375 3.0625 3.4375 C 3.089844 3.371094 3.058594 3.28125 3.0625 3.21875 C 3.089844 3.203125 3.128906 3.21875 3.15625 3.21875 C 3.203125 3.207031 3.222656 3.152344 3.25 3.125 C 3.265625 3.109375 3.292969 3.109375 3.3125 3.09375 C 3.359375 3.058594 3.367188 3.015625 3.40625 3 C 3.421875 2.988281 3.445312 2.976562 3.46875 2.96875 C 3.5 2.957031 3.546875 2.957031 3.59375 2.9375 C 3.625 2.925781 3.707031 2.917969 3.71875 2.90625 C 3.734375 2.890625 3.714844 2.835938 3.71875 2.8125 C 3.742188 2.699219 3.898438 2.695312 4 2.65625 C 4.070312 2.628906 4.140625 2.546875 4.21875 2.5625 C 4.203125 2.617188 4.144531 2.621094 4.15625 2.6875 C 4.171875 2.777344 4.28125 2.667969 4.3125 2.65625 C 4.375 2.628906 4.484375 2.59375 4.5625 2.5625 C 4.632812 2.539062 4.753906 2.519531 4.6875 2.4375 C 4.632812 2.425781 4.609375 2.480469 4.5625 2.5 C 4.53125 2.511719 4.527344 2.472656 4.5 2.46875 C 4.472656 2.46875 4.464844 2.503906 4.4375 2.5 C 4.410156 2.488281 4.378906 2.4375 4.375 2.40625 C 4.363281 2.320312 4.433594 2.3125 4.46875 2.25 C 4.445312 2.175781 4.34375 2.214844 4.28125 2.1875 C 4.289062 2.140625 4.320312 2.105469 4.375 2.09375 C 4.417969 2.082031 4.535156 2.105469 4.5625 2.125 C 4.578125 2.136719 4.539062 2.164062 4.5625 2.1875 C 4.589844 2.207031 4.621094 2.195312 4.65625 2.1875 C 4.667969 2.128906 4.582031 2.160156 4.59375 2.125 C 4.660156 2.082031 4.792969 2.105469 4.875 2.09375 C 4.921875 2.082031 4.988281 2.054688 5.03125 2.03125 C 5.070312 2.007812 5.082031 1.960938 5.125 2 C 5.136719 2.039062 5.117188 2.070312 5.09375 2.09375 C 5.015625 2.160156 4.933594 2.234375 4.875 2.3125 C 4.910156 2.347656 4.96875 2.335938 5.03125 2.34375 C 5.054688 2.355469 5.101562 2.34375 5.125 2.34375 C 5.15625 2.355469 5.195312 2.332031 5.21875 2.34375 C 5.261719 2.355469 5.269531 2.4375 5.3125 2.4375 C 5.378906 2.4375 5.351562 2.359375 5.3125 2.3125 C 5.324219 2.265625 5.359375 2.21875 5.34375 2.1875 C 5.3125 2.125 5.195312 2.203125 5.1875 2.125 C 5.183594 2.074219 5.230469 2.070312 5.25 2.03125 C 5.242188 1.933594 5.324219 1.929688 5.3125 1.84375 C 5.308594 1.808594 5.273438 1.816406 5.25 1.78125 C 5.238281 1.765625 5.234375 1.703125 5.21875 1.6875 C 5.167969 1.644531 5.070312 1.679688 5.0625 1.59375 C 5.058594 1.542969 5.070312 1.492188 5.0625 1.4375 C 5.054688 1.386719 5.011719 1.230469 4.96875 1.21875 C 4.914062 1.207031 4.878906 1.3125 4.8125 1.34375 C 4.777344 1.359375 4.691406 1.382812 4.65625 1.375 C 4.632812 1.363281 4.597656 1.359375 4.59375 1.3125 C 4.589844 1.269531 4.640625 1.25 4.65625 1.21875 C 4.660156 1.207031 4.652344 1.199219 4.65625 1.1875 C 4.730469 1.167969 4.800781 1.144531 4.875 1.125 C 4.917969 1.117188 4.957031 1.105469 5 1.09375 C 5.03125 1.085938 5.0625 1.105469 5.09375 1.09375 C 5.226562 1.070312 5.363281 1.046875 5.5 1.03125 C 5.667969 1.015625 5.828125 1 6 1 Z M 3.96875 1.46875 C 3.9375 1.652344 3.765625 1.722656 3.5625 1.71875 C 3.515625 1.761719 3.554688 1.84375 3.53125 1.90625 C 3.511719 1.957031 3.425781 2.003906 3.375 2 C 3.339844 2 3.28125 1.941406 3.28125 1.90625 C 3.28125 1.863281 3.347656 1.863281 3.3125 1.8125 C 3.3125 1.800781 3.332031 1.792969 3.34375 1.78125 C 3.363281 1.769531 3.386719 1.761719 3.40625 1.75 C 3.585938 1.636719 3.773438 1.558594 3.96875 1.46875 Z M 8.15625 1.65625 C 8.136719 1.667969 8.140625 1.675781 8.125 1.6875 C 8.085938 1.710938 8.058594 1.738281 8.03125 1.75 C 7.992188 1.765625 7.945312 1.773438 7.9375 1.8125 C 7.933594 1.839844 7.96875 1.84375 7.96875 1.875 C 7.953125 1.910156 7.945312 1.921875 7.9375 1.96875 C 7.988281 2.050781 8.09375 1.949219 8.15625 1.9375 C 8.183594 1.925781 8.203125 1.925781 8.21875 1.90625 C 8.234375 1.878906 8.238281 1.847656 8.25 1.8125 C 8.265625 1.769531 8.316406 1.753906 8.3125 1.71875 C 8.308594 1.679688 8.21875 1.652344 8.15625 1.65625 Z M 2.6875 2.28125 C 2.734375 2.320312 2.800781 2.402344 2.71875 2.4375 C 2.707031 2.449219 2.585938 2.472656 2.5625 2.46875 C 2.554688 2.46875 2.539062 2.445312 2.53125 2.4375 C 2.582031 2.386719 2.632812 2.328125 2.6875 2.28125 Z M 2.875 2.46875 C 2.898438 2.472656 2.910156 2.53125 2.9375 2.53125 C 2.964844 2.53125 2.984375 2.496094 3 2.5 C 3.042969 2.511719 3.070312 2.59375 3.03125 2.625 C 3 2.636719 2.992188 2.589844 2.96875 2.59375 C 2.902344 2.605469 2.863281 2.753906 2.8125 2.75 C 2.765625 2.738281 2.730469 2.628906 2.78125 2.59375 C 2.78125 2.5625 2.777344 2.5625 2.78125 2.53125 C 2.796875 2.511719 2.835938 2.46875 2.875 2.46875 Z M 2.625 2.5 C 2.640625 2.5 2.652344 2.488281 2.65625 2.5 C 2.648438 2.554688 2.632812 2.570312 2.59375 2.59375 C 2.523438 2.636719 2.460938 2.691406 2.4375 2.78125 C 2.429688 2.808594 2.347656 2.882812 2.3125 2.875 C 2.234375 2.859375 2.355469 2.710938 2.375 2.6875 C 2.394531 2.664062 2.414062 2.652344 2.4375 2.625 C 2.460938 2.597656 2.476562 2.546875 2.5 2.53125 C 2.523438 2.515625 2.582031 2.496094 2.625 2.5 Z M 9.40625 2.65625 C 9.484375 2.644531 9.527344 2.734375 9.5625 2.78125 C 9.59375 2.820312 9.667969 2.878906 9.71875 2.90625 C 9.746094 2.921875 9.78125 2.957031 9.8125 2.96875 C 9.878906 2.996094 9.996094 3.09375 10 3.15625 C 10 3.1875 9.964844 3.21875 9.96875 3.25 C 10.019531 3.261719 10.0625 3.175781 10.0625 3.125 C 10.15625 3.253906 10.234375 3.394531 10.3125 3.53125 C 10.351562 3.597656 10.402344 3.652344 10.4375 3.71875 C 10.394531 3.730469 10.382812 3.738281 10.375 3.78125 C 10.363281 3.835938 10.398438 3.925781 10.3125 3.9375 C 10.257812 3.949219 10.199219 3.890625 10.125 3.875 C 10.09375 3.863281 10.054688 3.886719 10.03125 3.875 C 9.976562 3.855469 9.984375 3.78125 9.9375 3.75 C 9.910156 3.730469 9.824219 3.691406 9.78125 3.6875 C 9.753906 3.6875 9.746094 3.699219 9.71875 3.6875 C 9.683594 3.675781 9.621094 3.703125 9.59375 3.6875 C 9.566406 3.671875 9.507812 3.617188 9.5 3.59375 C 9.488281 3.558594 9.589844 3.53125 9.59375 3.5 C 9.597656 3.476562 9.566406 3.441406 9.5625 3.40625 C 9.558594 3.382812 9.566406 3.359375 9.5625 3.34375 C 9.554688 3.316406 9.507812 3.3125 9.46875 3.3125 L 9.09375 3.3125 C 9.007812 3.324219 8.941406 3.300781 8.875 3.3125 C 8.824219 3.3125 8.734375 3.355469 8.6875 3.375 C 8.664062 3.386719 8.65625 3.390625 8.625 3.40625 C 8.609375 3.417969 8.582031 3.429688 8.5625 3.4375 C 8.535156 3.449219 8.496094 3.488281 8.46875 3.5 C 8.429688 3.507812 8.382812 3.488281 8.3125 3.5 C 8.261719 3.5 8.1875 3.464844 8.1875 3.40625 C 8.1875 3.3125 8.347656 3.359375 8.4375 3.34375 C 8.46875 3.332031 8.492188 3.304688 8.53125 3.28125 C 8.550781 3.269531 8.542969 3.261719 8.5625 3.25 C 8.59375 3.230469 8.652344 3.179688 8.65625 3.15625 C 8.660156 3.132812 8.652344 3.109375 8.65625 3.09375 C 8.660156 3.074219 8.691406 3.058594 8.71875 3.03125 C 8.761719 2.988281 8.792969 2.933594 8.84375 2.90625 C 8.878906 2.886719 8.921875 2.871094 8.9375 2.84375 C 8.941406 2.8125 8.9375 2.8125 8.9375 2.78125 C 8.960938 2.761719 8.980469 2.757812 9 2.75 C 9.054688 2.738281 9.09375 2.75 9.15625 2.75 C 9.183594 2.75 9.222656 2.765625 9.25 2.75 C 9.273438 2.734375 9.289062 2.699219 9.3125 2.6875 C 9.339844 2.675781 9.375 2.660156 9.40625 2.65625 Z M 9.96875 3.25 L 9.84375 3.25 C 9.800781 3.25 9.746094 3.226562 9.71875 3.25 C 9.753906 3.308594 9.824219 3.328125 9.90625 3.34375 C 9.9375 3.320312 9.953125 3.289062 9.96875 3.25 Z M 3.125 2.6875 L 3.21875 2.6875 C 3.242188 2.6875 3.269531 2.675781 3.28125 2.6875 C 3.265625 2.753906 3.113281 2.742188 3.0625 2.71875 C 3.066406 2.695312 3.09375 2.691406 3.125 2.6875 Z M 2.90625 2.8125 C 2.863281 2.84375 2.820312 2.882812 2.75 2.90625 C 2.710938 2.917969 2.664062 2.917969 2.65625 2.875 C 2.648438 2.824219 2.714844 2.847656 2.75 2.84375 C 2.792969 2.832031 2.855469 2.816406 2.90625 2.8125 Z M 9.40625 2.8125 C 9.375 2.824219 9.355469 2.894531 9.40625 2.90625 C 9.429688 2.890625 9.445312 2.855469 9.4375 2.8125 C 9.425781 2.796875 9.417969 2.800781 9.40625 2.8125 Z M 9.34375 2.96875 C 9.34375 3.023438 9.355469 3.078125 9.34375 3.125 C 9.375 3.1875 9.453125 3.136719 9.46875 3.09375 C 9.488281 2.988281 9.453125 2.957031 9.40625 2.96875 C 9.390625 2.980469 9.359375 2.957031 9.34375 2.96875 Z M 1.0625 5.3125 C 1.117188 5.363281 1.152344 5.433594 1.21875 5.46875 C 1.242188 5.480469 1.28125 5.492188 1.3125 5.5 C 1.339844 5.511719 1.351562 5.488281 1.375 5.5 C 1.429688 5.519531 1.488281 5.542969 1.53125 5.5625 C 1.59375 5.589844 1.664062 5.6875 1.71875 5.71875 C 1.722656 5.75 1.707031 5.789062 1.71875 5.8125 C 1.746094 5.847656 1.769531 5.882812 1.8125 5.90625 C 1.863281 5.933594 1.890625 5.976562 1.9375 6 C 1.953125 6.011719 1.972656 5.988281 2 6 C 2.066406 6.019531 2.097656 6.109375 2.15625 6.09375 C 2.191406 6.082031 2.179688 6.035156 2.1875 6 C 2.210938 5.972656 2.242188 5.9375 2.28125 5.9375 C 2.34375 5.9375 2.351562 6.035156 2.375 6.09375 C 2.386719 6.128906 2.429688 6.152344 2.4375 6.1875 C 2.453125 6.25 2.449219 6.433594 2.4375 6.46875 C 2.421875 6.515625 2.351562 6.511719 2.3125 6.5625 C 2.292969 6.589844 2.296875 6.640625 2.28125 6.65625 C 2.257812 6.6875 2.238281 6.691406 2.21875 6.71875 C 2.207031 6.734375 2.195312 6.761719 2.1875 6.78125 C 2.15625 6.84375 2.101562 6.890625 2.125 6.96875 C 2.136719 7 2.1875 7.027344 2.1875 7.0625 C 2.1875 7.105469 2.101562 7.140625 2.09375 7.1875 C 2.089844 7.222656 2.113281 7.265625 2.125 7.3125 C 2.132812 7.347656 2.199219 7.382812 2.21875 7.40625 C 2.253906 7.445312 2.28125 7.511719 2.3125 7.5625 C 2.375 7.660156 2.40625 7.78125 2.46875 7.875 C 2.5 7.925781 2.570312 7.949219 2.59375 8 C 2.605469 8.027344 2.582031 8.070312 2.59375 8.09375 C 2.628906 8.175781 2.792969 8.273438 2.875 8.3125 C 2.914062 8.332031 2.964844 8.324219 3 8.34375 C 3.054688 8.375 3.160156 8.453125 3.1875 8.5 C 3.210938 8.542969 3.207031 8.652344 3.21875 8.71875 C 3.234375 8.808594 3.214844 8.875 3.21875 8.96875 C 3.222656 9.019531 3.25 9.042969 3.25 9.09375 C 3.25 9.113281 3.25 9.167969 3.25 9.1875 C 3.25 9.25 3.253906 9.3125 3.25 9.375 C 3.246094 9.410156 3.246094 9.441406 3.25 9.46875 C 3.253906 9.5 3.277344 9.503906 3.28125 9.53125 C 3.285156 9.558594 3.246094 9.601562 3.25 9.625 C 3.257812 9.6875 3.300781 9.722656 3.3125 9.78125 C 3.324219 9.828125 3.351562 9.945312 3.34375 10 C 3.339844 10.027344 3.316406 10.0625 3.3125 10.09375 C 3.308594 10.121094 3.316406 10.132812 3.3125 10.15625 C 3.308594 10.179688 3.320312 10.199219 3.3125 10.21875 C 3.28125 10.199219 3.25 10.175781 3.21875 10.15625 C 2.953125 9.976562 2.695312 9.757812 2.46875 9.53125 C 2.4375 9.5 2.40625 9.46875 2.375 9.4375 C 2.195312 9.246094 2.023438 9.027344 1.875 8.8125 C 1.863281 8.792969 1.855469 8.769531 1.84375 8.75 C 1.671875 8.492188 1.527344 8.226562 1.40625 7.9375 C 1.398438 7.917969 1.382812 7.898438 1.375 7.875 C 1.269531 7.617188 1.1875 7.34375 1.125 7.0625 C 1.113281 7.011719 1.105469 6.960938 1.09375 6.90625 C 1.070312 6.773438 1.046875 6.640625 1.03125 6.5 C 1.015625 6.332031 1 6.171875 1 6 C 1 5.761719 1.03125 5.542969 1.0625 5.3125 Z M 3 5.84375 C 3.046875 5.820312 3.039062 5.898438 3 5.90625 C 2.964844 5.917969 2.964844 5.863281 3 5.84375 Z M 3 5.84375 "/>
</g>
</svg>
