<?xml version="1.0" encoding="UTF-8"?>
<svg xmlns="http://www.w3.org/2000/svg" xmlns:xlink="http://www.w3.org/1999/xlink" width="12pt" height="12pt" viewBox="0 0 12 12" version="1.1">
<g id="surface1">
<path style=" stroke:none;fill-rule:nonzero;fill:rgb(1.568627%,53.72549%,41.568627%);fill-opacity:1;" d="M 0 0 L 0 12 L 12 12 L 12 0 Z M 1 1 L 11 1 L 11 3 L 1 3 Z M 1 4 L 3 4 L 3 7 L 1 7 Z M 4 4 L 8 4 L 8 7 L 4 7 Z M 9 4 L 11 4 L 11 7 L 9 7 Z M 1 8 L 3 8 L 3 11 L 1 11 Z M 4 8 L 8 8 L 8 11 L 4 11 Z M 9 8 L 11 8 L 11 11 L 9 11 Z M 9 8 "/>
</g>
</svg>
