<?xml version="1.0" encoding="UTF-8"?>
<svg xmlns="http://www.w3.org/2000/svg" xmlns:xlink="http://www.w3.org/1999/xlink" width="16pt" height="6pt" viewBox="0 0 16 6" version="1.1">
<g id="surface1">
<path style=" stroke:none;fill-rule:nonzero;fill:rgb(30.196078%,30.196078%,30.196078%);fill-opacity:1;" d="M 2.289062 0 L 0 6 L 0.855469 6 L 1.402344 4.460938 L 4.109375 4.460938 L 4.65625 6 L 5.5 6 L 3.210938 0 Z M 6 0 L 6 6 L 9 6 C 10.105469 6 11 5.230469 11 4.285156 C 11 3.535156 10.4375 2.910156 9.65625 2.679688 C 9.871094 2.402344 10 2.070312 10 1.714844 C 10 0.769531 9.105469 0 8 0 Z M 14.171875 0 C 12.4375 0 11.03125 1.34375 11.03125 3 C 11.03125 4.65625 12.4375 6 14.171875 6 C 14.855469 6 15.484375 5.789062 16 5.4375 L 15.382812 4.796875 C 15.035156 5.007812 14.617188 5.140625 14.171875 5.140625 C 12.933594 5.140625 11.925781 4.183594 11.925781 3 C 11.925781 1.816406 12.933594 0.859375 14.171875 0.859375 C 14.617188 0.859375 15.035156 0.992188 15.382812 1.203125 L 16 0.5625 C 15.484375 0.210938 14.855469 0 14.171875 0 Z M 2.75 0.796875 L 3.695312 3.484375 L 1.765625 3.484375 Z M 7 0.859375 L 8 0.859375 C 8.550781 0.859375 9 1.242188 9 1.714844 C 9 2.1875 8.550781 2.570312 8 2.570312 L 7 2.570312 Z M 7 3.429688 L 9 3.429688 C 9.550781 3.429688 10 3.8125 10 4.285156 C 10 4.757812 9.550781 5.140625 9 5.140625 L 7 5.140625 Z M 7 3.429688 "/>
</g>
</svg>
