<?xml version="1.0" encoding="UTF-8"?>
<svg xmlns="http://www.w3.org/2000/svg" xmlns:xlink="http://www.w3.org/1999/xlink" width="20pt" height="20pt" viewBox="0 0 20 20" version="1.1">
<g id="surface1">
<path style=" stroke:none;fill-rule:nonzero;fill:rgb(11.372549%,60%,95.294118%);fill-opacity:1;" d="M 1 1 L 1 7 L 6 7 L 6 1 Z M 1 1 "/>
<path style=" stroke:none;fill-rule:nonzero;fill:rgb(30.196078%,30.196078%,30.196078%);fill-opacity:1;" d="M 0 0 L 0 20 L 20 20 L 20 0 Z M 1 1 L 6 1 L 6 7 L 1 7 Z M 7 1 L 13 1 L 13 3 L 7 3 Z M 14 1 L 19 1 L 19 3 L 14 3 Z M 7 4 L 13 4 L 13 7 L 7 7 Z M 14 4 L 19 4 L 19 7 L 14 7 Z M 1 8 L 6 8 L 6 11 L 1 11 Z M 7 8 L 13 8 L 13 11 L 7 11 Z M 14 8 L 19 8 L 19 11 L 14 11 Z M 1 12 L 6 12 L 6 15 L 1 15 Z M 7 12 L 13 12 L 13 15 L 7 15 Z M 14 12 L 19 12 L 19 15 L 14 15 Z M 1 16 L 6 16 L 6 19 L 1 19 Z M 7 16 L 13 16 L 13 19 L 7 19 Z M 14 16 L 19 16 L 19 19 L 14 19 Z M 14 16 "/>
</g>
</svg>
