<?xml version="1.0" encoding="UTF-8"?>
<svg xmlns="http://www.w3.org/2000/svg" xmlns:xlink="http://www.w3.org/1999/xlink" width="15pt" height="15pt" viewBox="0 0 15 15" version="1.1">
<g id="surface1">
<path style=" stroke:none;fill-rule:nonzero;fill:rgb(30.196078%,30.196078%,30.196078%);fill-opacity:1;" d="M 7 0 L 7 2.023438 C 4.363281 2.261719 2.261719 4.363281 2.023438 7 L 0 7 L 0 8 L 2.023438 8 C 2.261719 10.636719 4.363281 12.738281 7 12.972656 L 7 15 L 8 15 L 8 12.976562 C 10.636719 12.738281 12.738281 10.636719 12.972656 8 L 15 8 L 15 7 L 12.972656 7 C 12.738281 4.363281 10.636719 2.261719 8 2.023438 L 8 0 Z M 8 3.148438 C 10.023438 3.378906 11.617188 4.976562 11.847656 7 L 10 7 L 10 8 L 11.847656 8 C 11.617188 10.023438 10.023438 11.621094 8 11.855469 L 8 10 L 7 10 L 7 11.847656 C 4.976562 11.617188 3.382812 10.023438 3.148438 8 L 5 8 L 5 7 L 3.148438 7 C 3.382812 4.976562 4.976562 3.382812 7 3.148438 L 7 5 L 8 5 Z M 7.5 7 C 7.222656 7 7 7.222656 7 7.5 C 7 7.777344 7.222656 8 7.5 8 C 7.777344 8 8 7.777344 8 7.5 C 8 7.222656 7.777344 7 7.5 7 Z M 7.5 7 "/>
</g>
</svg>
