<?xml version="1.0" encoding="UTF-8"?>
<svg xmlns="http://www.w3.org/2000/svg" xmlns:xlink="http://www.w3.org/1999/xlink" width="17pt" height="14pt" viewBox="0 0 17 14" version="1.1">
<g id="surface1">
<path style=" stroke:none;fill-rule:nonzero;fill:rgb(30.196078%,30.196078%,30.196078%);fill-opacity:1;" d="M 3.5 0 C 1.566406 0 0 1.789062 0 4 L 0 7 C 0 9.210938 1.566406 11 3.5 11 C 5.433594 11 7 9.210938 7 7 L 7 4 C 7 1.789062 5.433594 0 3.5 0 Z M 13.5 0 C 11.566406 0 10 1.789062 10 4 L 10 7 C 10 9.210938 11.566406 11 13.5 11 C 15.433594 11 17 9.210938 17 7 L 17 4 C 17 1.789062 15.433594 0 13.5 0 Z M 3.5 1 C 4.878906 1 6 2.34375 6 4 L 6 7 C 6 8.65625 4.878906 10 3.5 10 C 2.121094 10 1 8.65625 1 7 L 1 4 C 1 2.34375 2.121094 1 3.5 1 Z M 13.5 1 C 14.878906 1 16 2.34375 16 4 L 16 7 C 16 8.65625 14.878906 10 13.5 10 C 12.121094 10 11 8.65625 11 7 L 11 4 C 11 2.34375 12.121094 1 13.5 1 Z M 8 10 L 8 14 L 9 14 L 9 10 Z M 8 10 "/>
</g>
</svg>
