<?xml version="1.0" encoding="UTF-8"?>
<svg xmlns="http://www.w3.org/2000/svg" xmlns:xlink="http://www.w3.org/1999/xlink" width="13pt" height="10pt" viewBox="0 0 13 10" version="1.1">
<g id="surface1">
<path style=" stroke:none;fill-rule:nonzero;fill:rgb(30.196078%,30.196078%,30.196078%);fill-opacity:1;" d="M 2.5 0 C 1.121094 0 0 1.121094 0 2.5 L 0 5.5 C 0 6.878906 1.121094 8 2.5 8 C 3.878906 8 5 6.878906 5 5.5 L 5 2.5 C 5 1.121094 3.878906 0 2.5 0 Z M 10.5 0 C 9.121094 0 8 1.121094 8 2.5 L 8 5.5 C 8 6.878906 9.121094 8 10.5 8 C 11.878906 8 13 6.878906 13 5.5 L 13 2.5 C 13 1.121094 11.878906 0 10.5 0 Z M 2.5 1 C 3.328125 1 4 1.671875 4 2.5 L 4 5.5 C 4 6.328125 3.328125 7 2.5 7 C 1.671875 7 1 6.328125 1 5.5 L 1 2.5 C 1 1.671875 1.671875 1 2.5 1 Z M 10.5 1 C 11.328125 1 12 1.671875 12 2.5 L 12 5.5 C 12 6.328125 11.328125 7 10.5 7 C 9.671875 7 9 6.328125 9 5.5 L 9 2.5 C 9 1.671875 9.671875 1 10.5 1 Z M 6 7 L 6 10 L 7 10 L 7 7 Z M 6 7 "/>
</g>
</svg>
