<?xml version="1.0" encoding="UTF-8"?>
<svg xmlns="http://www.w3.org/2000/svg" xmlns:xlink="http://www.w3.org/1999/xlink" width="12pt" height="11pt" viewBox="0 0 12 11" version="1.1">
<g id="surface1">
<path style=" stroke:none;fill-rule:nonzero;fill:rgb(30.196078%,30.196078%,30.196078%);fill-opacity:1;" d="M 3 0 C 1.894531 0 1 0.894531 1 2 C 1 3.105469 1.894531 4 3 4 C 4.105469 4 5 3.105469 5 2 C 5 0.894531 4.105469 0 3 0 Z M 6 0 L 6 1 L 11 1 L 11 0 Z M 6 2 L 6 3 L 9 3 L 9 2 Z M 7 5 C 7 5 4.667969 7.382812 4.65625 7.34375 L 3.3125 6 L 3.28125 6 L 0 9.28125 L 0 11 L 12 11 L 12 10 Z M 8.5 5 L 8.5 6 L 12 6 L 12 5 Z M 10.5 7 L 10.5 8 L 12 8 L 12 7 Z M 10.5 7 "/>
</g>
</svg>
