<?xml version="1.0" encoding="UTF-8"?>
<svg xmlns="http://www.w3.org/2000/svg" xmlns:xlink="http://www.w3.org/1999/xlink" width="16pt" height="15pt" viewBox="0 0 16 15" version="1.1">
<g id="surface1">
<path style=" stroke:none;fill-rule:nonzero;fill:rgb(30.196078%,30.196078%,30.196078%);fill-opacity:1;" d="M 3.5 0 C 2.121094 0 1 1.121094 1 2.5 C 1 3.878906 2.121094 5 3.5 5 C 4.878906 5 6 3.878906 6 2.5 C 6 1.121094 4.878906 0 3.5 0 Z M 7 0 L 7 1 L 13 1 L 13 0 Z M 7 2 L 7 3 L 11 3 L 11 2 Z M 7 4 L 7 5 L 9 5 L 9 4 Z M 10 6 L 6 10 L 5 9 L 0 14 L 0 15 L 16 15 L 16 12 Z M 11.5 6 L 11.5 7 L 16 7 L 16 6 Z M 13.5 8 L 13.5 9 L 16 9 L 16 8 Z M 15.5 10 L 15.5 11 L 16 11 L 16 10 Z M 15.5 10 "/>
</g>
</svg>
