<?xml version="1.0" encoding="UTF-8"?>
<svg xmlns="http://www.w3.org/2000/svg" xmlns:xlink="http://www.w3.org/1999/xlink" width="15pt" height="15pt" viewBox="0 0 15 15" version="1.1">
<g id="surface1">
<path style=" stroke:none;fill-rule:nonzero;fill:rgb(70.196078%,70.196078%,70.196078%);fill-opacity:1;" d="M 1 1 L 1 7 L 7 7 L 7 1 Z M 8 1 L 8 7 L 14 7 L 14 1 Z M 1 8 L 1 14 L 7 14 L 7 8 Z M 8 8 L 8 14 L 14 14 L 14 8 Z M 8 8 "/>
<path style=" stroke:none;fill-rule:nonzero;fill:rgb(30.196078%,30.196078%,30.196078%);fill-opacity:1;" d="M 0 0 L 0 15 L 15 15 L 15 0 Z M 1 1 L 7 1 L 7 7 L 1 7 Z M 8 1 L 14 1 L 14 7 L 8 7 Z M 1 8 L 7 8 L 7 14 L 1 14 Z M 8 8 L 14 8 L 14 14 L 8 14 Z M 8 8 "/>
</g>
</svg>
