<?xml version="1.0" encoding="UTF-8"?>
<svg xmlns="http://www.w3.org/2000/svg" xmlns:xlink="http://www.w3.org/1999/xlink" width="12pt" height="12pt" viewBox="0 0 12 12" version="1.1">
<g id="surface1">
<path style=" stroke:none;fill-rule:nonzero;fill:rgb(30.196078%,30.196078%,30.196078%);fill-opacity:1;" d="M 1.5 0 C 0.671875 0 0 0.671875 0 1.5 C 0 2.15625 0.414062 2.703125 1 2.90625 L 1 9.09375 C 0.414062 9.296875 0 9.84375 0 10.5 C 0 11.328125 0.671875 12 1.5 12 C 2.328125 12 3 11.328125 3 10.5 C 3 9.84375 2.585938 9.296875 2 9.09375 L 2 2.90625 C 2.078125 2.878906 2.148438 2.851562 2.21875 2.8125 L 5.09375 4.96875 C 5.035156 5.128906 5 5.316406 5 5.5 C 5 6.328125 5.671875 7 6.5 7 C 7.328125 7 8 6.328125 8 5.5 C 8 4.671875 7.328125 4 6.5 4 C 6.214844 4 5.945312 4.082031 5.71875 4.21875 L 2.875 2.09375 C 2.949219 1.914062 3 1.707031 3 1.5 C 3 0.671875 2.328125 0 1.5 0 Z M 1.5 1 C 1.777344 1 2 1.222656 2 1.5 C 2 1.777344 1.777344 2 1.5 2 C 1.222656 2 1 1.777344 1 1.5 C 1 1.222656 1.222656 1 1.5 1 Z M 6.5 5 C 6.777344 5 7 5.222656 7 5.5 C 7 5.777344 6.777344 6 6.5 6 C 6.222656 6 6 5.777344 6 5.5 C 6 5.222656 6.222656 5 6.5 5 Z M 9 5.78125 L 9 10.09375 L 7 8.0625 L 7 9.5 L 9.5 12 L 12 9.5 L 12 8.0625 L 10 10.09375 L 10 5.78125 Z M 1.5 10 C 1.777344 10 2 10.222656 2 10.5 C 2 10.777344 1.777344 11 1.5 11 C 1.222656 11 1 10.777344 1 10.5 C 1 10.222656 1.222656 10 1.5 10 Z M 1.5 10 "/>
</g>
</svg>
