<?xml version="1.0" encoding="UTF-8"?>
<svg xmlns="http://www.w3.org/2000/svg" xmlns:xlink="http://www.w3.org/1999/xlink" width="17pt" height="16.207031pt" viewBox="0 0 17 16.207031" version="1.1">
<g id="surface1">
<path style=" stroke:none;fill-rule:nonzero;fill:rgb(30.196078%,30.196078%,30.196078%);fill-opacity:1;" d="M 7.5 0 C 6.847656 0 6.296875 0.417969 6.09375 1 L 1 1 L 1 13.09375 C 0.417969 13.296875 0 13.847656 0 14.5 C 0 15.332031 0.667969 16 1.5 16 C 2.332031 16 3 15.332031 3 14.5 C 3 13.847656 2.582031 13.296875 2 13.09375 L 2 2 L 6.09375 2 C 6.242188 2.425781 6.574219 2.757812 7 2.90625 L 7 10 L 8.09375 10 C 8.296875 10.582031 8.847656 11 9.5 11 C 10.332031 11 11 10.332031 11 9.5 C 11 8.667969 10.332031 8 9.5 8 C 8.847656 8 8.296875 8.417969 8.09375 9 L 8 9 L 8 2.90625 C 8.582031 2.703125 9 2.152344 9 1.5 C 9 0.667969 8.332031 0 7.5 0 Z M 7.5 1 C 7.777344 1 8 1.222656 8 1.5 C 8 1.777344 7.777344 2 7.5 2 C 7.222656 2 7 1.777344 7 1.5 C 7 1.222656 7.222656 1 7.5 1 Z M 9.5 9 C 9.777344 9 10 9.222656 10 9.5 C 10 9.777344 9.777344 10 9.5 10 C 9.222656 10 9 9.777344 9 9.5 C 9 9.222656 9.222656 9 9.5 9 Z M 13 10 L 13 14.292969 L 10.707031 12 L 10 12.707031 L 13.5 16.207031 L 17 12.707031 L 16.292969 12 L 14 14.292969 L 14 10 Z M 1.5 14 C 1.777344 14 2 14.222656 2 14.5 C 2 14.777344 1.777344 15 1.5 15 C 1.222656 15 1 14.777344 1 14.5 C 1 14.222656 1.222656 14 1.5 14 Z M 1.5 14 "/>
</g>
</svg>
