<?xml version="1.0" encoding="UTF-8"?>
<svg xmlns="http://www.w3.org/2000/svg" xmlns:xlink="http://www.w3.org/1999/xlink" width="28.00001pt" height="29.10963pt" viewBox="0 0 28.00001 29.10963" version="1.1">
<defs>
<linearGradient id="linear0" gradientUnits="userSpaceOnUse" x1="24" y1="43.999973" x2="24" y2="11" gradientTransform="matrix(0.76923,0,0,0.8,-4.61538,-3.2)">
<stop offset="0" style="stop-color:rgb(9.803922%,48.627451%,94.509804%);stop-opacity:1;"/>
<stop offset="1" style="stop-color:rgb(12.54902%,73.72549%,98.039216%);stop-opacity:1;"/>
</linearGradient>
<linearGradient id="linear1" gradientUnits="userSpaceOnUse" x1="409.90469" y1="543.79797" x2="409.90469" y2="517.54797" gradientTransform="matrix(0.875001,0,0,0.8,-343.500449,-406.0384)">
<stop offset="0" style="stop-color:rgb(9.803922%,48.627451%,94.509804%);stop-opacity:1;"/>
<stop offset="1" style="stop-color:rgb(12.54902%,73.72549%,98.039216%);stop-opacity:1;"/>
</linearGradient>
<filter id="alpha" filterUnits="objectBoundingBox" x="0%" y="0%" width="100%" height="100%">
  <feColorMatrix type="matrix" in="SourceGraphic" values="0 0 0 0 1 0 0 0 0 1 0 0 0 0 1 0 0 0 1 0"/>
</filter>
<mask id="mask0">
  <g filter="url(#alpha)">
<rect x="0" y="0" width="28.00001" height="29.10963" style="fill:rgb(0%,0%,0%);fill-opacity:0.2;stroke:none;"/>
  </g>
</mask>
<linearGradient id="linear2" gradientUnits="userSpaceOnUse" x1="16.000011" y1="23" x2="32" y2="38.999729" gradientTransform="matrix(0.781268,0,0,0.8,-2.81326,-5.4)">
<stop offset="0" style="stop-color:rgb(16.078431%,17.254902%,18.431373%);stop-opacity:1;"/>
<stop offset="1" style="stop-color:rgb(0%,0%,0%);stop-opacity:0;"/>
</linearGradient>
<clipPath id="clip1">
  <rect width="32" height="32"/>
</clipPath>
<g id="surface6" clip-path="url(#clip1)">
<path style=" stroke:none;fill-rule:nonzero;fill:url(#linear2);" d="M 13.96875 14.648438 L 13.203125 15.589844 L 17.597656 19.792969 L 17.707031 20.585938 L 26.476562 29.933594 L 29.144531 29.933594 L 30 29.800781 L 30 25.882812 L 26.0625 22.503906 L 20.832031 17.648438 L 18.566406 19.058594 Z M 12.703125 18.503906 L 11.488281 19.820312 L 14.84375 23.628906 L 13.960938 24.121094 L 18.535156 30.109375 L 22.726562 29.683594 Z M 12.703125 18.503906 "/>
</g>
<linearGradient id="linear3" gradientUnits="userSpaceOnUse" x1="24" y1="14" x2="24.200022" y2="10.25" gradientTransform="matrix(0.76923,0,0,0.8,-4.61538,-3.2)">
<stop offset="0" style="stop-color:rgb(9.803922%,48.627451%,94.509804%);stop-opacity:1;"/>
<stop offset="1" style="stop-color:rgb(12.54902%,73.72549%,98.039216%);stop-opacity:1;"/>
</linearGradient>
<mask id="mask1">
  <g filter="url(#alpha)">
<rect x="0" y="0" width="28.00001" height="29.10963" style="fill:rgb(0%,0%,0%);fill-opacity:0.6;stroke:none;"/>
  </g>
</mask>
<linearGradient id="linear4" gradientUnits="userSpaceOnUse" x1="24.200022" y1="10.25" x2="24.200006" y2="13.999968" gradientTransform="matrix(0.76923,0,0,0.8,-2.61538,-2.2)">
<stop offset="0" style="stop-color:rgb(11.372549%,11.764706%,11.764706%);stop-opacity:1;"/>
<stop offset="1" style="stop-color:rgb(26.666667%,28.235294%,29.803922%);stop-opacity:1;"/>
</linearGradient>
<clipPath id="clip2">
  <rect width="32" height="32"/>
</clipPath>
<g id="surface9" clip-path="url(#clip2)">
<path style=" stroke:none;fill-rule:evenodd;fill:url(#linear4);" d="M 5 6 L 4 7 L 5 7 L 2 9 L 30 9 L 27 7 L 28 7 L 27 6 Z M 5 6 "/>
</g>
<mask id="mask2">
  <g filter="url(#alpha)">
<rect x="0" y="0" width="28.00001" height="29.10963" style="fill:rgb(0%,0%,0%);fill-opacity:0.2;stroke:none;"/>
  </g>
</mask>
<clipPath id="clip3">
  <rect width="32" height="32"/>
</clipPath>
<g id="surface12" clip-path="url(#clip3)">
<path style=" stroke:none;fill-rule:nonzero;fill:rgb(0%,0%,0%);fill-opacity:1;" d="M 5 6 L 4 7 L 28 7 L 27 6 Z M 5 6 "/>
</g>
<linearGradient id="linear5" gradientUnits="userSpaceOnUse" x1="408.77145" y1="516.29797" x2="408.77145" y2="503.798" gradientTransform="matrix(0.76923,0,0,0.8,-300.439365,-403.0384)">
<stop offset="0" style="stop-color:rgb(9.803922%,48.627451%,94.509804%);stop-opacity:1;"/>
<stop offset="1" style="stop-color:rgb(12.54902%,73.72549%,98.039216%);stop-opacity:1;"/>
</linearGradient>
<linearGradient id="linear6" gradientUnits="userSpaceOnUse" x1="10.99999" y1="19.00004" x2="10.99999" y2="3.00004" gradientTransform="matrix(0.600961,0,0,0.625,7.38943,10.37494)">
<stop offset="0" style="stop-color:rgb(48.627451%,72.941176%,97.254902%);stop-opacity:1;"/>
<stop offset="1" style="stop-color:rgb(95.686275%,98.823529%,100%);stop-opacity:1;"/>
</linearGradient>
<linearGradient id="linear7" gradientUnits="userSpaceOnUse" x1="10" y1="13" x2="10" y2="10" gradientTransform="matrix(1,0,0,1,-2,-1)">
<stop offset="0" style="stop-color:rgb(77.647059%,80.392157%,81.960784%);stop-opacity:1;"/>
<stop offset="1" style="stop-color:rgb(87.843137%,89.803922%,90.588235%);stop-opacity:1;"/>
</linearGradient>
<linearGradient id="linear8" gradientUnits="userSpaceOnUse" x1="405.57143" y1="528.798" x2="405.57143" y2="525.798" gradientTransform="matrix(1,0,0,1,-386.57143,-516.798)">
<stop offset="0" style="stop-color:rgb(77.647059%,80.392157%,81.960784%);stop-opacity:1;"/>
<stop offset="1" style="stop-color:rgb(87.843137%,89.803922%,90.588235%);stop-opacity:1;"/>
</linearGradient>
</defs>
<g id="surface1">
<path style=" stroke:none;fill-rule:evenodd;fill:url(#linear0);" d="M 2 6 L 3 7 L 3 6 Z M 26 6 L 25 6 L 25 7 Z M 26 6 "/>
<path style=" stroke:none;fill-rule:nonzero;fill:url(#linear1);" d="M 0 8 L 28 8 L 28 29 L 0 29 Z M 0 8 "/>
<use xlink:href="#surface6" transform="matrix(1,0,0,1,-2,-1)" mask="url(#mask0)"/>
<path style=" stroke:none;fill-rule:nonzero;fill:rgb(10.980392%,33.333333%,57.647059%);fill-opacity:1;" d="M 0 28 L 28 28 L 28 29 L 0 29 Z M 0 28 "/>
<path style=" stroke:none;fill-rule:evenodd;fill:url(#linear3);" d="M 3 5 L 2 6 L 3 6 L 0 8 L 28 8 L 25 6 L 26 6 L 25 5 Z M 3 5 "/>
<use xlink:href="#surface9" transform="matrix(1,0,0,1,-2,-1)" mask="url(#mask1)"/>
<use xlink:href="#surface12" transform="matrix(1,0,0,1,-2,-1)" mask="url(#mask2)"/>
<path style=" stroke:none;fill-rule:nonzero;fill:url(#linear5);" d="M 8 11 L 8 6 C 8 2.453125 10.589844 0 14 0 C 17.410156 0 19.980469 2.460938 19.988281 6.007812 L 20 11 L 19 11 L 19 6 C 19 2.898438 16.984375 1 14 1 C 11.015625 1 9 3 9 6 L 9 11 Z M 8 11 "/>
<path style=" stroke:none;fill-rule:nonzero;fill:url(#linear6);" d="M 11.597656 13.5 C 11.261719 13.5 10.996094 13.777344 10.996094 14.125 C 10.996094 14.472656 11.261719 14.75 11.597656 14.75 C 11.929688 14.75 12.195312 14.472656 12.195312 14.125 C 12.195312 13.777344 11.929688 13.5 11.597656 13.5 Z M 15.804688 13.5 L 14.601562 14.75 L 16.402344 16.625 L 14.601562 18.5 L 15.804688 19.75 L 17.605469 17.875 L 18.808594 16.625 Z M 10.09375 17.25 C 9.59375 17.25 9.191406 17.667969 9.191406 18.1875 C 9.191406 18.707031 9.59375 19.125 10.09375 19.125 C 10.59375 19.125 10.996094 18.707031 10.996094 18.1875 C 10.996094 17.667969 10.59375 17.25 10.09375 17.25 Z M 12.796875 21 C 12.132812 21 11.597656 21.558594 11.597656 22.25 C 11.597656 22.941406 12.132812 23.5 12.796875 23.5 C 13.464844 23.5 14 22.941406 14 22.25 C 14 21.558594 13.464844 21 12.796875 21 Z M 12.796875 21 "/>
<path style=" stroke:none;fill-rule:nonzero;fill:url(#linear7);" d="M 8.5 9 C 7.671875 9 7 9.671875 7 10.5 C 7 11.328125 7.671875 12 8.5 12 C 9.328125 12 10 11.328125 10 10.5 C 10 9.671875 9.328125 9 8.5 9 Z M 8.5 10 C 8.777344 10 9 10.222656 9 10.5 C 9 10.777344 8.777344 11 8.5 11 C 8.222656 11 8 10.777344 8 10.5 C 8 10.222656 8.222656 10 8.5 10 Z M 8.5 10 "/>
<path style=" stroke:none;fill-rule:nonzero;fill:url(#linear8);" d="M 19.5 9 C 18.671875 9 18 9.671875 18 10.5 C 18 11.328125 18.671875 12 19.5 12 C 20.328125 12 21 11.328125 21 10.5 C 21 9.671875 20.328125 9 19.5 9 Z M 19.5 10 C 19.777344 10 20 10.222656 20 10.5 C 20 10.777344 19.777344 11 19.5 11 C 19.222656 11 19 10.777344 19 10.5 C 19 10.222656 19.222656 10 19.5 10 Z M 19.5 10 "/>
</g>
</svg>
