<?xml version="1.0" encoding="UTF-8"?>
<svg xmlns="http://www.w3.org/2000/svg" xmlns:xlink="http://www.w3.org/1999/xlink" width="29pt" height="29pt" viewBox="0 0 29 29" version="1.1">
<defs>
<linearGradient id="linear0" gradientUnits="userSpaceOnUse" x1="400.57144" y1="545.79797" x2="400.57144" y2="517.79797" gradientTransform="matrix(0.928571,0,0,0.928571,-357.959076,-479.811858)">
<stop offset="0" style="stop-color:rgb(9.803922%,48.627451%,94.509804%);stop-opacity:1;"/>
<stop offset="1" style="stop-color:rgb(12.54902%,73.72549%,98.039216%);stop-opacity:1;"/>
</linearGradient>
<filter id="alpha" filterUnits="objectBoundingBox" x="0%" y="0%" width="100%" height="100%">
  <feColorMatrix type="matrix" in="SourceGraphic" values="0 0 0 0 1 0 0 0 0 1 0 0 0 0 1 0 0 0 1 0"/>
</filter>
<mask id="mask0">
  <g filter="url(#alpha)">
<rect x="0" y="0" width="29" height="29" style="fill:rgb(0%,0%,0%);fill-opacity:0.2;stroke:none;"/>
  </g>
</mask>
<linearGradient id="linear1" gradientUnits="userSpaceOnUse" x1="9.000011" y1="9" x2="23.000042" y2="23" >
<stop offset="0" style="stop-color:rgb(16.078431%,17.254902%,18.431373%);stop-opacity:1;"/>
<stop offset="1" style="stop-color:rgb(0%,0%,0%);stop-opacity:0;"/>
</linearGradient>
<clipPath id="clip1">
  <rect width="32" height="32"/>
</clipPath>
<g id="surface6" clip-path="url(#clip1)">
<path style=" stroke:none;fill-rule:evenodd;fill:url(#linear1);" d="M 17 9 L 15 11 L 17 13 L 15 23 L 23 31 L 31 31 L 31 23 Z M 17 9 "/>
</g>
<linearGradient id="linear2" gradientUnits="userSpaceOnUse" x1="16" y1="29.999973" x2="16" y2="2" gradientTransform="matrix(1,0,0,1,-2,-2)">
<stop offset="0" style="stop-color:rgb(48.627451%,72.941176%,97.254902%);stop-opacity:1;"/>
<stop offset="1" style="stop-color:rgb(95.686275%,98.823529%,100%);stop-opacity:1;"/>
</linearGradient>
</defs>
<g id="surface1">
<path style=" stroke:none;fill-rule:nonzero;fill:url(#linear0);" d="M 14 1 C 21.179688 1 27 6.820312 27 14 C 27 21.179688 21.179688 27 14 27 C 6.820312 27 1 21.179688 1 14 C 1 6.820312 6.820312 1 14 1 Z M 14 1 "/>
<use xlink:href="#surface6" transform="matrix(1,0,0,1,-2,-2)" mask="url(#mask0)"/>
<path style=" stroke:none;fill-rule:nonzero;fill:url(#linear2);" d="M 14 0 C 6.414062 0 0.289062 5.980469 0.0234375 13.5 C 0.0195312 13.667969 0 13.832031 0 14 C 0 21.757812 6.242188 28 14 28 C 21.757812 28 28 21.757812 28 14 C 28 13.832031 27.980469 13.667969 27.976562 13.5 C 27.710938 5.980469 21.585938 0 14 0 Z M 14 1 C 21.203125 1 27 6.796875 27 14 C 27 21.203125 21.203125 27 14 27 C 6.796875 27 1 21.203125 1 14 C 1 6.796875 6.796875 1 14 1 Z M 13 7 L 13 9 L 15 9 L 15 7 Z M 13 11 L 13 21 L 15 21 L 15 11 Z M 13 11 "/>
</g>
</svg>
