<?xml version="1.0" encoding="UTF-8"?>
<svg xmlns="http://www.w3.org/2000/svg" xmlns:xlink="http://www.w3.org/1999/xlink" width="153pt" height="63pt" viewBox="0 0 153 63" version="1.1">
<g id="surface1">
<path style=" stroke:none;fill-rule:nonzero;fill:rgb(100%,100%,100%);fill-opacity:1;" d="M 90 0 L 90 63 L 153 61 L 153 0 Z M 101 11 L 142 11 L 142 52 L 101 52 Z M 101 11 "/>
<path style=" stroke:none;fill-rule:nonzero;fill:rgb(100%,100%,100%);fill-opacity:1;" d="M 39 0 L 39 51 L 90 51 L 90 0 Z M 48 9 L 81 9 L 81 42 L 48 42 Z M 48 9 "/>
<path style=" stroke:none;fill-rule:nonzero;fill:rgb(100%,100%,100%);fill-opacity:1;" d="M 0 0 L 0 39 L 39 39 L 39 0 Z M 7.378906 7 L 32 7 L 32 32 L 7 32 Z M 7.378906 7 "/>
<path style=" stroke:none;fill-rule:nonzero;fill:rgb(11.372549%,60%,95.294118%);fill-opacity:1;" d="M 1 1 L 1 12 L 6 12 L 6 6 L 12 6 L 12 1 Z M 1 1 "/>
<path style=" stroke:none;fill-rule:nonzero;fill:rgb(11.372549%,60%,95.294118%);fill-opacity:1;" d="M 14 1 L 25 1 L 25 6 L 14 6 Z M 14 1 "/>
<path style=" stroke:none;fill-rule:nonzero;fill:rgb(11.372549%,60%,95.294118%);fill-opacity:1;" d="M 33 14 L 38 14 L 38 25 L 33 25 Z M 33 14 "/>
<path style=" stroke:none;fill-rule:nonzero;fill:rgb(11.372549%,60%,95.294118%);fill-opacity:1;" d="M 14 33 L 25 33 L 25 38 L 14 38 Z M 14 33 "/>
<path style=" stroke:none;fill-rule:nonzero;fill:rgb(11.372549%,60%,95.294118%);fill-opacity:1;" d="M 1 14 L 6 14 L 6 25 L 1 25 Z M 1 14 "/>
<path style=" stroke:none;fill-rule:nonzero;fill:rgb(11.372549%,60%,95.294118%);fill-opacity:1;" d="M 1 27 L 1 38 L 12 38 L 12 33 L 6 33 L 6 27 Z M 1 27 "/>
<path style=" stroke:none;fill-rule:nonzero;fill:rgb(11.372549%,60%,95.294118%);fill-opacity:1;" d="M 38 1 L 38 12 L 33 12 L 33 6 L 27 6 L 27 1 Z M 38 1 "/>
<path style=" stroke:none;fill-rule:nonzero;fill:rgb(11.372549%,60%,95.294118%);fill-opacity:1;" d="M 38 27 L 38 38 L 27 38 L 27 33 L 33 33 L 33 27 Z M 38 27 "/>
<path style=" stroke:none;fill-rule:nonzero;fill:rgb(11.372549%,60%,95.294118%);fill-opacity:1;" d="M 74 1 L 74 8 L 82 8 L 82 16 L 89 16 L 89 1 Z M 74 1 "/>
<path style=" stroke:none;fill-rule:nonzero;fill:rgb(11.372549%,60%,95.294118%);fill-opacity:1;" d="M 82 18 L 89 18 L 89 33 L 82 33 Z M 82 18 "/>
<path style=" stroke:none;fill-rule:nonzero;fill:rgb(11.372549%,60%,95.294118%);fill-opacity:1;" d="M 57 1 L 72 1 L 72 8 L 57 8 Z M 57 1 "/>
<path style=" stroke:none;fill-rule:nonzero;fill:rgb(11.372549%,60%,95.294118%);fill-opacity:1;" d="M 82 35 L 82 43 L 74 43 L 74 50 L 89 50 L 89 35 Z M 82 35 "/>
<path style=" stroke:none;fill-rule:nonzero;fill:rgb(11.372549%,60%,95.294118%);fill-opacity:1;" d="M 55 1 L 55 8 L 47 8 L 47 16 L 40 16 L 40 1 Z M 55 1 "/>
<path style=" stroke:none;fill-rule:nonzero;fill:rgb(11.372549%,60%,95.294118%);fill-opacity:1;" d="M 47 18 L 40 18 L 40 33 L 47 33 Z M 47 18 "/>
<path style=" stroke:none;fill-rule:nonzero;fill:rgb(11.372549%,60%,95.294118%);fill-opacity:1;" d="M 47 35 L 47 43 L 55 43 L 55 50 L 40 50 L 40 35 Z M 47 35 "/>
<path style=" stroke:none;fill-rule:nonzero;fill:rgb(11.372549%,60%,95.294118%);fill-opacity:1;" d="M 91 1 L 91 20 L 100 20 L 100 10 L 110 10 L 110 1 Z M 91 1 "/>
<path style=" stroke:none;fill-rule:nonzero;fill:rgb(11.372549%,60%,95.294118%);fill-opacity:1;" d="M 112 1 L 131 1 L 131 10 L 112 10 Z M 112 1 "/>
<path style=" stroke:none;fill-rule:nonzero;fill:rgb(11.372549%,60%,95.294118%);fill-opacity:1;" d="M 133 1 L 133 10 L 143 10 L 143 20 L 152 20 L 152 1 Z M 133 1 "/>
<path style=" stroke:none;fill-rule:nonzero;fill:rgb(11.372549%,60%,95.294118%);fill-opacity:1;" d="M 91 22 L 100 22 L 100 41 L 91 41 Z M 91 22 "/>
<path style=" stroke:none;fill-rule:nonzero;fill:rgb(11.372549%,60%,95.294118%);fill-opacity:1;" d="M 143 22 L 152 22 L 152 41 L 143 41 Z M 143 22 "/>
<path style=" stroke:none;fill-rule:nonzero;fill:rgb(11.372549%,60%,95.294118%);fill-opacity:1;" d="M 91 62 L 91 43 L 100 43 L 100 53 L 110 53 L 110 62 Z M 91 62 "/>
<path style=" stroke:none;fill-rule:nonzero;fill:rgb(11.372549%,60%,95.294118%);fill-opacity:1;" d="M 112 62 L 131 62 L 131 53 L 112 53 Z M 112 62 "/>
<path style=" stroke:none;fill-rule:nonzero;fill:rgb(11.372549%,60%,95.294118%);fill-opacity:1;" d="M 133 62 L 133 53 L 143 53 L 143 43 L 152 43 L 152 62 Z M 133 62 "/>
<path style=" stroke:none;fill-rule:nonzero;fill:rgb(11.372549%,60%,95.294118%);fill-opacity:1;" d="M 57 43 L 72 43 L 72 50 L 57 50 Z M 57 43 "/>
</g>
</svg>
