<?xml version="1.0" encoding="UTF-8"?>
<svg xmlns="http://www.w3.org/2000/svg" xmlns:xlink="http://www.w3.org/1999/xlink" width="12pt" height="12pt" viewBox="0 0 12 12" version="1.1">
<g id="surface1">
<path style=" stroke:none;fill-rule:nonzero;fill:rgb(30.196078%,30.196078%,30.196078%);fill-opacity:1;" d="M 3 0 L 0 2 L 3 4 Z M 5 0 L 5 4 L 8 2 Z M 0 4 L 0 12 L 1 12 L 1 10 L 5 10 L 5 5 L 1 5 L 1 4 Z M 7 4 L 7 12 L 8 12 L 8 11 L 12 11 L 12 5 L 8 5 L 8 4 Z M 1 6 L 4 6 L 4 9 L 1 9 Z M 8 6 L 11 6 L 11 10 L 8 10 Z M 8 6 "/>
</g>
</svg>
