<?xml version="1.0" encoding="UTF-8"?>
<svg xmlns="http://www.w3.org/2000/svg" xmlns:xlink="http://www.w3.org/1999/xlink" width="12pt" height="12pt" viewBox="0 0 12 12" version="1.1">
<g id="surface1">
<path style=" stroke:none;fill-rule:nonzero;fill:rgb(30.196078%,30.196078%,30.196078%);fill-opacity:1;" d="M 7 0 L 4 2 L 7 4 Z M 9 0 L 9 4 L 12 2 Z M 4 4 L 4 5 L 0 5 L 0 11 L 4 11 L 4 12 L 5 12 L 5 4 Z M 11 4 L 11 5 L 7 5 L 7 10 L 11 10 L 11 12 L 12 12 L 12 4 Z M 1 6 L 4 6 L 4 10 L 1 10 Z M 8 6 L 11 6 L 11 9 L 8 9 Z M 8 6 "/>
</g>
</svg>
