<?xml version="1.0" encoding="UTF-8"?>
<svg xmlns="http://www.w3.org/2000/svg" xmlns:xlink="http://www.w3.org/1999/xlink" width="11pt" height="12pt" viewBox="0 0 11 12" version="1.1">
<g id="surface1">
<path style=" stroke:none;fill-rule:nonzero;fill:rgb(30.196078%,30.196078%,30.196078%);fill-opacity:1;" d="M 0 0 L 0 5 L 6 5 L 6 0 Z M 1 1 L 5 1 L 5 4 L 1 4 Z M 7 4 L 7 5 L 8 5 L 8 7 L 7 7 L 7 8 L 11 8 L 11 7 L 10 7 L 10 5 L 11 5 L 11 4 Z M 0 7 L 0 12 L 6 12 L 6 7 Z M 1 8 L 5 8 L 5 11 L 1 11 Z M 1 8 "/>
</g>
</svg>
