<?xml version="1.0" encoding="UTF-8"?>
<svg xmlns="http://www.w3.org/2000/svg" xmlns:xlink="http://www.w3.org/1999/xlink" width="12pt" height="12pt" viewBox="0 0 12 12" version="1.1">
<g id="surface1">
<path style=" stroke:none;fill-rule:nonzero;fill:rgb(30.196078%,30.196078%,30.196078%);fill-opacity:1;" d="M 1 0 L 1 4 L 0 4 L 0 5 L 8 5 L 8 4 L 7 4 L 7 0 Z M 2 1 L 6 1 L 6 4 L 2 4 Z M 10 5 L 8 8 L 12 8 Z M 1 7 L 1 11 L 0 11 L 0 12 L 8 12 L 8 11 L 6 11 L 6 7 Z M 2 8 L 5 8 L 5 11 L 2 11 Z M 8 9 L 10 12 L 12 9 Z M 8 9 "/>
</g>
</svg>
