<?xml version="1.0" encoding="UTF-8"?>
<svg xmlns="http://www.w3.org/2000/svg" xmlns:xlink="http://www.w3.org/1999/xlink" width="12pt" height="12pt" viewBox="0 0 12 12" version="1.1">
<g id="surface1">
<path style=" stroke:none;fill-rule:nonzero;fill:rgb(30.196078%,30.196078%,30.196078%);fill-opacity:1;" d="M 0 0 L 0 1 L 2 1 L 2 5 L 7 5 L 7 1 L 8 1 L 8 0 Z M 3 1 L 6 1 L 6 4 L 3 4 Z M 10 1 L 8 4 L 12 4 Z M 8 5 L 10 8 L 12 5 Z M 0 7 L 0 8 L 1 8 L 1 12 L 7 12 L 7 8 L 8 8 L 8 7 Z M 2 8 L 6 8 L 6 11 L 2 11 Z M 2 8 "/>
</g>
</svg>
