<?xml version="1.0" encoding="UTF-8"?>
<svg xmlns="http://www.w3.org/2000/svg" xmlns:xlink="http://www.w3.org/1999/xlink" width="12pt" height="12pt" viewBox="0 0 12 12" version="1.1">
<g id="surface1">
<path style=" stroke:none;fill-rule:nonzero;fill:rgb(30.196078%,30.196078%,30.196078%);fill-opacity:1;" d="M 0 0 L 0 5 L 5 5 L 5 0 Z M 6 0 L 6 1 L 12 1 L 12 0 Z M 1 1 L 4 1 L 4 4 L 1 4 Z M 6 3 L 6 4 L 12 4 L 12 3 Z M 0 7 L 0 12 L 5 12 L 5 7 Z M 6 7 L 6 8 L 10 8 L 10 7 Z M 6 10 L 6 11 L 10 11 L 10 10 Z M 6 10 "/>
</g>
</svg>
