<?xml version="1.0" encoding="UTF-8"?>
<svg xmlns="http://www.w3.org/2000/svg" xmlns:xlink="http://www.w3.org/1999/xlink" width="54pt" height="70.000023pt" viewBox="0 0 54 70.000023" version="1.1">
<defs>
<linearGradient id="linear0" gradientUnits="userSpaceOnUse" x1="32" y1="61" x2="32" y2="3" gradientTransform="matrix(1.227273,0,0,1.206896,-12.272727,-3.62069)">
<stop offset="0" style="stop-color:rgb(55.686275%,26.666667%,67.843137%);stop-opacity:1;"/>
<stop offset="1" style="stop-color:rgb(60.784314%,34.901961%,71.372549%);stop-opacity:1;"/>
</linearGradient>
<linearGradient id="linear1" gradientUnits="userSpaceOnUse" x1="60" y1="1044.36214" x2="60" y2="1030.36214" gradientTransform="matrix(1,0,0,1,-13,-977.36218)">
<stop offset="0" style="stop-color:rgb(82.745098%,74.117647%,84.313725%);stop-opacity:1;"/>
<stop offset="1" style="stop-color:rgb(86.27451%,77.647059%,87.843137%);stop-opacity:1;"/>
</linearGradient>
<filter id="alpha" filterUnits="objectBoundingBox" x="0%" y="0%" width="100%" height="100%">
  <feColorMatrix type="matrix" in="SourceGraphic" values="0 0 0 0 1 0 0 0 0 1 0 0 0 0 1 0 0 0 1 0"/>
</filter>
<mask id="mask0">
  <g filter="url(#alpha)">
<rect x="0" y="0" width="54" height="70.000023" style="fill:rgb(0%,0%,0%);fill-opacity:0.2;stroke:none;"/>
  </g>
</mask>
<linearGradient id="linear2" gradientUnits="userSpaceOnUse" x1="54" y1="31" x2="40" y2="17" gradientTransform="matrix(1.214286,0,0,-1.214284,-14.571429,95.64282)">
<stop offset="0" style="stop-color:rgb(21.960784%,24.313725%,31.764706%);stop-opacity:1;"/>
<stop offset="1" style="stop-color:rgb(39.607843%,36.078431%,43.529412%);stop-opacity:0;"/>
</linearGradient>
<clipPath id="clip1">
  <rect width="80" height="80"/>
</clipPath>
<g id="surface6" clip-path="url(#clip1)">
<path style=" stroke:none;fill-rule:evenodd;fill:url(#linear2);" d="M 34 75 L 51 58 L 51 75 Z M 34 75 "/>
</g>
</defs>
<g id="surface1">
<path style=" stroke:none;fill-rule:nonzero;fill:url(#linear0);" d="M 0 0 L 0 70 L 38 70 L 54 53 L 54 0 Z M 0 0 "/>
<path style=" stroke:none;fill-rule:nonzero;fill:rgb(18.039216%,19.215686%,19.607843%);fill-opacity:0.294118;" d="M 0 68 L 38 68 L 38 70 L 0 70 Z M 0 68 "/>
<path style=" stroke:none;fill-rule:nonzero;fill:rgb(100%,100%,100%);fill-opacity:0.411765;" d="M 0 0 L 54 0 L 54 2 L 0 2 Z M 0 0 "/>
<path style=" stroke:none;fill-rule:evenodd;fill:url(#linear1);" d="M 54 53 L 38 70 L 38 53 Z M 54 53 "/>
<use xlink:href="#surface6" transform="matrix(1,0,0,1,-13,-5)" mask="url(#mask0)"/>
<path style=" stroke:none;fill-rule:nonzero;fill:rgb(86.27451%,77.647059%,87.843137%);fill-opacity:1;" d="M 21 22 L 21 39.75 C 20.289062 39.277344 19.417969 39 18.5 39 C 16.015625 39 14 41.015625 14 43.5 C 14 45.984375 16.015625 48 18.5 48 C 20.984375 48 23 45.984375 23 43.5 L 23 31 L 38 31 L 38 37.75 C 37.289062 37.277344 36.417969 37 35.5 37 C 33.015625 37 31 39.015625 31 41.5 C 31 43.984375 33.015625 46 35.5 46 C 37.984375 46 40 43.984375 40 41.5 L 40 22 Z M 23 25 L 38 25 L 38 29 L 23 29 Z M 23 25 "/>
</g>
</svg>
