<?xml version="1.0" encoding="UTF-8"?>
<svg xmlns="http://www.w3.org/2000/svg" xmlns:xlink="http://www.w3.org/1999/xlink" width="11pt" height="11pt" viewBox="0 0 11 11" version="1.1">
<g id="surface1">
<path style=" stroke:none;fill-rule:nonzero;fill:rgb(99.215686%,73.72549%,29.411765%);fill-opacity:1;" d="M 0 0 L 0 11 L 11 11 L 11 0 Z M 5 1 L 6 1 L 6 5 L 10 5 L 10 6 L 6 6 L 6 10 L 5 10 L 5 6 L 1 6 L 1 5 L 5 5 Z M 5 1 "/>
<path style=" stroke:none;fill-rule:nonzero;fill:rgb(30.196078%,30.196078%,30.196078%);fill-opacity:1;" d="M 5 1 L 5 5 L 1 5 L 1 6 L 5 6 L 5 10 L 6 10 L 6 6 L 10 6 L 10 5 L 6 5 L 6 1 Z M 5 1 "/>
</g>
</svg>
