<?xml version="1.0" encoding="UTF-8"?>
<svg xmlns="http://www.w3.org/2000/svg" xmlns:xlink="http://www.w3.org/1999/xlink" width="11pt" height="11pt" viewBox="0 0 11 11" version="1.1">
<g id="surface1">
<path style=" stroke:none;fill-rule:nonzero;fill:rgb(100%,100%,100%);fill-opacity:1;" d="M 5.5 0 C 2.460938 0 0 2.460938 0 5.5 C 0 8.539062 2.460938 11 5.5 11 C 8.539062 11 11 8.539062 11 5.5 C 11 2.460938 8.539062 0 5.5 0 Z M 5.5 1 C 7.984375 1 10 3.015625 10 5.5 C 10 7.984375 7.984375 10 5.5 10 C 3.015625 10 1 7.984375 1 5.5 C 1 3.015625 3.015625 1 5.5 1 Z M 5.5 1 "/>
<path style=" stroke:none;fill-rule:nonzero;fill:rgb(95.686275%,46.666667%,31.372549%);fill-opacity:1;" d="M 10 5.5 C 10 7.984375 7.984375 10 5.5 10 C 3.015625 10 1 7.984375 1 5.5 C 1 3.015625 3.015625 1 5.5 1 C 7.984375 1 10 3.015625 10 5.5 Z M 10 5.5 "/>
</g>
</svg>
