<?xml version="1.0" encoding="UTF-8"?>
<svg xmlns="http://www.w3.org/2000/svg" xmlns:xlink="http://www.w3.org/1999/xlink" width="9pt" height="9.00002pt" viewBox="0 0 9 9.00002" version="1.1">
<g id="surface1">
<path style=" stroke:none;fill-rule:nonzero;fill:rgb(85.490196%,26.666667%,32.54902%);fill-opacity:1;" d="M 0 0 L 0 9 L 9 9 L 9 0 Z M 4 1 L 5 1 L 5 4 L 8 4 L 8 5 L 5 5 L 5 8 L 4 8 L 4 5 L 1 5 L 1 4 L 4 4 Z M 4 1 "/>
<path style=" stroke:none;fill-rule:nonzero;fill:rgb(100%,100%,100%);fill-opacity:1;" d="M 4 1 L 4 4 L 1 4 L 1 5 L 4 5 L 4 8 L 5 8 L 5 5 L 8 5 L 8 4 L 5 4 L 5 1 Z M 4 1 "/>
</g>
</svg>
