<?xml version="1.0" encoding="UTF-8"?>
<svg xmlns="http://www.w3.org/2000/svg" xmlns:xlink="http://www.w3.org/1999/xlink" width="117pt" height="91.000003pt" viewBox="0 0 117 91.000003" version="1.1">
<defs>
<filter id="alpha" filterUnits="objectBoundingBox" x="0%" y="0%" width="100%" height="100%">
  <feColorMatrix type="matrix" in="SourceGraphic" values="0 0 0 0 1 0 0 0 0 1 0 0 0 0 1 0 0 0 1 0"/>
</filter>
<mask id="mask0">
  <g filter="url(#alpha)">
<rect x="0" y="0" width="117" height="91.000003" style="fill:rgb(0%,0%,0%);fill-opacity:0.2;stroke:none;"/>
  </g>
</mask>
<clipPath id="clip1">
  <rect width="117" height="92"/>
</clipPath>
<g id="surface6" clip-path="url(#clip1)">
<path style=" stroke:none;fill-rule:nonzero;fill:rgb(30.196078%,30.196078%,30.196078%);fill-opacity:1;" d="M 25 68 L 47 68 L 47 90 L 25 90 Z M 25 68 "/>
</g>
<mask id="mask1">
  <g filter="url(#alpha)">
<rect x="0" y="0" width="117" height="91.000003" style="fill:rgb(0%,0%,0%);fill-opacity:0.8;stroke:none;"/>
  </g>
</mask>
<clipPath id="clip2">
  <rect width="117" height="92"/>
</clipPath>
<g id="surface9" clip-path="url(#clip2)">
<path style=" stroke:none;fill-rule:nonzero;fill:rgb(30.196078%,30.196078%,30.196078%);fill-opacity:1;" d="M 49 68 L 49 90 L 71 90 L 71 68 Z M 60 71 C 61.105469 71 62 71.894531 62 73 C 62 73.933594 61.363281 74.714844 60.5 74.9375 L 60.5 77 L 63 77 L 63 78 L 60.5 78 L 60.5 85.96875 C 63.039062 85.804688 65.25 84.457031 66.59375 82.46875 L 66.40625 82.375 L 65.5 81.875 L 66 81 C 66 81 69 82.625 69 82.625 L 68.5 83.5 L 67.46875 82.9375 C 65.863281 85.375 63.132812 87 60 87 C 56.867188 87 54.136719 85.375 52.53125 82.9375 L 51.5 83.5 L 51 82.625 C 51 82.625 54 81 54 81 L 54.5 81.875 L 53.59375 82.375 L 53.40625 82.46875 C 54.75 84.457031 56.960938 85.804688 59.5 85.96875 L 59.5 78 L 57 78 L 57 77 L 59.5 77 L 59.5 74.9375 C 58.636719 74.714844 58 73.933594 58 73 C 58 71.894531 58.894531 71 60 71 Z M 60 72 C 59.449219 72 59 72.449219 59 73 C 59 73.550781 59.449219 74 60 74 C 60.550781 74 61 73.550781 61 73 C 61 72.449219 60.550781 72 60 72 Z M 60 72 "/>
</g>
</defs>
<g id="surface1">
<path style=" stroke:none;fill-rule:nonzero;fill:rgb(30.196078%,30.196078%,30.196078%);fill-opacity:1;" d="M 99 67 L 110 67 L 110 78 L 99 78 Z M 99 67 "/>
<use xlink:href="#surface6" mask="url(#mask0)"/>
<path style=" stroke:none;fill-rule:evenodd;fill:rgb(30.196078%,30.196078%,30.196078%);fill-opacity:1;" d="M 36 71 C 34.894531 71 34 71.894531 34 73 C 34 73.933594 34.636719 74.714844 35.5 74.9375 L 35.5 77 L 33 77 L 33 78 L 35.5 78 L 35.5 85.96875 C 32.960938 85.804688 30.75 84.457031 29.40625 82.46875 L 29.59375 82.375 L 30.5 81.875 L 30 81 C 30 81 27 82.625 27 82.625 L 27.5 83.5 L 28.53125 82.9375 C 30.136719 85.371094 32.867188 87 36 87 C 39.132812 87 41.863281 85.371094 43.46875 82.9375 L 44.5 83.5 L 45 82.625 C 45 82.625 42 81 42 81 L 41.5 81.875 L 42.40625 82.375 L 42.59375 82.46875 C 41.25 84.457031 39.039062 85.804688 36.5 85.96875 L 36.5 78 L 39 78 L 39 77 L 36.5 77 L 36.5 74.9375 C 37.363281 74.714844 38 73.933594 38 73 C 38 71.894531 37.105469 71 36 71 Z M 36 72 C 36.550781 72 37 72.449219 37 73 C 37 73.550781 36.550781 74 36 74 C 35.449219 74 35 73.550781 35 73 C 35 72.449219 35.449219 72 36 72 Z M 36 72 "/>
<path style=" stroke:none;fill-rule:nonzero;fill:rgb(15.294118%,68.235294%,37.647059%);fill-opacity:1;" d="M 0 22 L 7 22 L 7 29 L 0 29 Z M 0 22 "/>
<path style=" stroke:none;fill-rule:nonzero;fill:rgb(15.294118%,68.235294%,37.647059%);fill-opacity:1;" d="M 8 23 L 15 23 L 15 30 L 8 30 Z M 8 23 "/>
<path style=" stroke:none;fill-rule:nonzero;fill:rgb(15.294118%,68.235294%,37.647059%);fill-opacity:1;" d="M 17 23 L 26 23 L 26 32 L 17 32 Z M 17 23 "/>
<path style=" stroke:none;fill-rule:nonzero;fill:rgb(15.294118%,68.235294%,37.647059%);fill-opacity:1;" d="M 34 25.5 C 34 27.433594 32.433594 29 30.5 29 C 28.566406 29 27 27.433594 27 25.5 C 27 23.566406 28.566406 22 30.5 22 C 32.433594 22 34 23.566406 34 25.5 Z M 34 25.5 "/>
<path style=" stroke:none;fill-rule:nonzero;fill:rgb(15.294118%,68.235294%,37.647059%);fill-opacity:1;" d="M 42 26.5 C 42 28.433594 40.433594 30 38.5 30 C 36.566406 30 35 28.433594 35 26.5 C 35 24.566406 36.566406 23 38.5 23 C 40.433594 23 42 24.566406 42 26.5 Z M 42 26.5 "/>
<path style=" stroke:none;fill-rule:nonzero;fill:rgb(15.294118%,68.235294%,37.647059%);fill-opacity:1;" d="M 53 27.5 C 53 29.984375 50.984375 32 48.5 32 C 46.015625 32 44 29.984375 44 27.5 C 44 25.015625 46.015625 23 48.5 23 C 50.984375 23 53 25.015625 53 27.5 Z M 53 27.5 "/>
<path style=" stroke:none;fill-rule:nonzero;fill:rgb(15.294118%,68.235294%,37.647059%);fill-opacity:1;" d="M 61 27 C 61 29.761719 59.433594 32 57.5 32 C 55.566406 32 54 29.761719 54 27 C 54 24.238281 55.566406 22 57.5 22 C 59.433594 22 61 24.238281 61 27 Z M 61 27 "/>
<path style=" stroke:none;fill-rule:nonzero;fill:rgb(15.294118%,68.235294%,37.647059%);fill-opacity:1;" d="M 69 27.5 C 69 29.984375 67.433594 32 65.5 32 C 63.566406 32 62 29.984375 62 27.5 C 62 25.015625 63.566406 23 65.5 23 C 67.433594 23 69 25.015625 69 27.5 Z M 69 27.5 "/>
<path style=" stroke:none;fill-rule:nonzero;fill:rgb(15.294118%,68.235294%,37.647059%);fill-opacity:1;" d="M 79 25.5 C 79 27.433594 76.984375 29 74.5 29 C 72.015625 29 70 27.433594 70 25.5 C 70 23.566406 72.015625 22 74.5 22 C 76.984375 22 79 23.566406 79 25.5 Z M 79 25.5 "/>
<path style=" stroke:none;fill-rule:nonzero;fill:rgb(15.294118%,68.235294%,37.647059%);fill-opacity:1;" d="M 89 26.5 C 89 28.433594 86.984375 30 84.5 30 C 82.015625 30 80 28.433594 80 26.5 C 80 24.566406 82.015625 23 84.5 23 C 86.984375 23 89 24.566406 89 26.5 Z M 89 26.5 "/>
<path style=" stroke:none;fill-rule:nonzero;fill:rgb(15.294118%,68.235294%,37.647059%);fill-opacity:1;" d="M 90 22 L 90 29 L 97 29 L 97 22 Z M 93 23 L 94 23 L 94 25 L 96 25 L 96 26 L 94 26 L 94 28 L 93 28 L 93 26 L 91 26 L 91 25 L 93 25 Z M 93 23 "/>
<path style=" stroke:none;fill-rule:nonzero;fill:rgb(15.294118%,68.235294%,37.647059%);fill-opacity:1;" d="M 97 22 L 97 31 L 106 31 L 106 22 Z M 101 23 L 102 23 L 102 26 L 105 26 L 105 27 L 102 27 L 102 30 L 101 30 L 101 27 L 98 27 L 98 26 L 101 26 Z M 101 23 "/>
<path style=" stroke:none;fill-rule:nonzero;fill:rgb(15.294118%,68.235294%,37.647059%);fill-opacity:1;" d="M 106 22 L 106 33 L 117 33 L 117 22 Z M 111 23 L 112 23 L 112 27 L 116 27 L 116 28 L 112 28 L 112 32 L 111 32 L 111 28 L 107 28 L 107 27 L 111 27 Z M 111 23 "/>
<path style=" stroke:none;fill-rule:nonzero;fill:rgb(11.372549%,60%,95.294118%);fill-opacity:1;" d="M 97 0 L 97 9 L 106 9 L 106 0 Z M 101 2 L 102 2 L 102 4 L 104 4 L 104 5 L 102 5 L 102 7 L 101 7 L 101 5 L 99 5 L 99 4 L 101 4 Z M 101 2 "/>
<path style=" stroke:none;fill-rule:nonzero;fill:rgb(11.372549%,60%,95.294118%);fill-opacity:1;" d="M 106 0 L 106 11 L 117 11 L 117 0 Z M 111 2 L 112 2 L 112 5 L 115 5 L 115 6 L 112 6 L 112 9 L 111 9 L 111 6 L 108 6 L 108 5 L 111 5 Z M 111 2 "/>
<path style=" stroke:none;fill-rule:nonzero;fill:rgb(11.372549%,60%,95.294118%);fill-opacity:1;" d="M 90 0 L 90 7 L 97 7 L 97 0 Z M 93 2 L 94 2 L 94 3 L 95 3 L 95 4 L 94 4 L 94 5 L 93 5 L 93 4 L 92 4 L 92 3 L 93 3 Z M 93 2 "/>
<path style=" stroke:none;fill-rule:nonzero;fill:rgb(11.372549%,60%,95.294118%);fill-opacity:1;" d="M 0 0 L 0 7 L 7 7 L 7 0 Z M 0 0 "/>
<path style=" stroke:none;fill-rule:nonzero;fill:rgb(11.372549%,60%,95.294118%);fill-opacity:1;" d="M 8 1 L 8 8 L 15 8 L 15 1 Z M 8 1 "/>
<path style=" stroke:none;fill-rule:nonzero;fill:rgb(11.372549%,60%,95.294118%);fill-opacity:1;" d="M 17 1 L 17 10 L 26 10 L 26 1 Z M 17 1 "/>
<path style=" stroke:none;fill-rule:nonzero;fill:rgb(11.372549%,60%,95.294118%);fill-opacity:1;" d="M 30.5 0 C 28.566406 0 27 1.566406 27 3.5 C 27 5.433594 28.566406 7 30.5 7 C 32.433594 7 34 5.433594 34 3.5 C 34 1.566406 32.433594 0 30.5 0 Z M 30.5 0 "/>
<path style=" stroke:none;fill-rule:nonzero;fill:rgb(11.372549%,60%,95.294118%);fill-opacity:1;" d="M 38.5 1 C 36.566406 1 35 2.566406 35 4.5 C 35 6.433594 36.566406 8 38.5 8 C 40.433594 8 42 6.433594 42 4.5 C 42 2.566406 40.433594 1 38.5 1 Z M 38.5 1 "/>
<path style=" stroke:none;fill-rule:nonzero;fill:rgb(11.372549%,60%,95.294118%);fill-opacity:1;" d="M 48.5 1 C 46.015625 1 44 3.015625 44 5.5 C 44 7.984375 46.015625 10 48.5 10 C 50.984375 10 53 7.984375 53 5.5 C 53 3.015625 50.984375 1 48.5 1 Z M 48.5 1 "/>
<path style=" stroke:none;fill-rule:nonzero;fill:rgb(11.372549%,60%,95.294118%);fill-opacity:1;" d="M 57.5 0 C 55.566406 0 54 2.238281 54 5 C 54 7.761719 55.566406 10 57.5 10 C 59.433594 10 61 7.761719 61 5 C 61 2.238281 59.433594 0 57.5 0 Z M 57.5 0 "/>
<path style=" stroke:none;fill-rule:nonzero;fill:rgb(11.372549%,60%,95.294118%);fill-opacity:1;" d="M 65.5 1 C 63.566406 1 62 3.015625 62 5.5 C 62 7.984375 63.566406 10 65.5 10 C 67.433594 10 69 7.984375 69 5.5 C 69 3.015625 67.433594 1 65.5 1 Z M 65.5 1 "/>
<path style=" stroke:none;fill-rule:nonzero;fill:rgb(11.372549%,60%,95.294118%);fill-opacity:1;" d="M 84.5 1 C 82.015625 1 80 2.566406 80 4.5 C 80 6.433594 82.015625 8 84.5 8 C 86.984375 8 89 6.433594 89 4.5 C 89 2.566406 86.984375 1 84.5 1 Z M 84.5 1 "/>
<path style=" stroke:none;fill-rule:nonzero;fill:rgb(11.372549%,60%,95.294118%);fill-opacity:1;" d="M 74.5 0 C 72.015625 0 70 1.566406 70 3.5 C 70 5.433594 72.015625 7 74.5 7 C 76.984375 7 79 5.433594 79 3.5 C 79 1.566406 76.984375 0 74.5 0 Z M 74.5 0 "/>
<path style=" stroke:none;fill-rule:nonzero;fill:rgb(100%,100%,100%);fill-opacity:1;" d="M 93 1 L 93 3 L 91 3 L 91 4 L 93 4 L 93 6 L 94 6 L 94 4 L 96 4 L 96 3 L 94 3 L 94 1 Z M 93 1 "/>
<path style=" stroke:none;fill-rule:nonzero;fill:rgb(100%,100%,100%);fill-opacity:1;" d="M 101 1 L 101 4 L 98 4 L 98 5 L 101 5 L 101 8 L 102 8 L 102 5 L 105 5 L 105 4 L 102 4 L 102 1 Z M 101 1 "/>
<path style=" stroke:none;fill-rule:nonzero;fill:rgb(100%,100%,100%);fill-opacity:1;" d="M 111 1 L 111 5 L 107 5 L 107 6 L 111 6 L 111 10 L 112 10 L 112 6 L 116 6 L 116 5 L 112 5 L 112 1 Z M 111 1 "/>
<path style=" stroke:none;fill-rule:nonzero;fill:rgb(99.215686%,73.72549%,29.411765%);fill-opacity:1;" d="M 0 11 L 7 11 L 7 18 L 0 18 Z M 0 11 "/>
<path style=" stroke:none;fill-rule:nonzero;fill:rgb(99.215686%,73.72549%,29.411765%);fill-opacity:1;" d="M 8 12 L 15 12 L 15 19 L 8 19 Z M 8 12 "/>
<path style=" stroke:none;fill-rule:nonzero;fill:rgb(99.215686%,73.72549%,29.411765%);fill-opacity:1;" d="M 17 12 L 26 12 L 26 21 L 17 21 Z M 17 12 "/>
<path style=" stroke:none;fill-rule:nonzero;fill:rgb(99.215686%,73.72549%,29.411765%);fill-opacity:1;" d="M 34 14.5 C 34 16.433594 32.433594 18 30.5 18 C 28.566406 18 27 16.433594 27 14.5 C 27 12.566406 28.566406 11 30.5 11 C 32.433594 11 34 12.566406 34 14.5 Z M 34 14.5 "/>
<path style=" stroke:none;fill-rule:nonzero;fill:rgb(99.215686%,73.72549%,29.411765%);fill-opacity:1;" d="M 42 15.5 C 42 17.433594 40.433594 19 38.5 19 C 36.566406 19 35 17.433594 35 15.5 C 35 13.566406 36.566406 12 38.5 12 C 40.433594 12 42 13.566406 42 15.5 Z M 42 15.5 "/>
<path style=" stroke:none;fill-rule:nonzero;fill:rgb(99.215686%,73.72549%,29.411765%);fill-opacity:1;" d="M 53 16.5 C 53 18.984375 50.984375 21 48.5 21 C 46.015625 21 44 18.984375 44 16.5 C 44 14.015625 46.015625 12 48.5 12 C 50.984375 12 53 14.015625 53 16.5 Z M 53 16.5 "/>
<path style=" stroke:none;fill-rule:nonzero;fill:rgb(99.215686%,73.72549%,29.411765%);fill-opacity:1;" d="M 61 16 C 61 18.761719 59.433594 21 57.5 21 C 55.566406 21 54 18.761719 54 16 C 54 13.238281 55.566406 11 57.5 11 C 59.433594 11 61 13.238281 61 16 Z M 61 16 "/>
<path style=" stroke:none;fill-rule:nonzero;fill:rgb(30.196078%,30.196078%,30.196078%);fill-opacity:1;" d="M 65.5 11 C 63.015625 11 61 13.460938 61 16.5 C 61 19.539062 63.015625 22 65.5 22 C 67.984375 22 70 19.539062 70 16.5 C 70 13.460938 67.984375 11 65.5 11 Z M 65.5 12 C 67.433594 12 69 14.015625 69 16.5 C 69 18.984375 67.433594 21 65.5 21 C 63.566406 21 62 18.984375 62 16.5 C 62 14.015625 63.566406 12 65.5 12 Z M 65.5 12 "/>
<path style=" stroke:none;fill-rule:nonzero;fill:rgb(99.215686%,73.72549%,29.411765%);fill-opacity:1;" d="M 69 16.5 C 69 18.984375 67.433594 21 65.5 21 C 63.566406 21 62 18.984375 62 16.5 C 62 14.015625 63.566406 12 65.5 12 C 67.433594 12 69 14.015625 69 16.5 Z M 69 16.5 "/>
<path style=" stroke:none;fill-rule:nonzero;fill:rgb(99.215686%,73.72549%,29.411765%);fill-opacity:1;" d="M 79 14.5 C 79 16.433594 76.984375 18 74.5 18 C 72.015625 18 70 16.433594 70 14.5 C 70 12.566406 72.015625 11 74.5 11 C 76.984375 11 79 12.566406 79 14.5 Z M 79 14.5 "/>
<path style=" stroke:none;fill-rule:nonzero;fill:rgb(99.215686%,73.72549%,29.411765%);fill-opacity:1;" d="M 89 15.5 C 89 17.433594 86.984375 19 84.5 19 C 82.015625 19 80 17.433594 80 15.5 C 80 13.566406 82.015625 12 84.5 12 C 86.984375 12 89 13.566406 89 15.5 Z M 89 15.5 "/>
<path style=" stroke:none;fill-rule:nonzero;fill:rgb(99.215686%,73.72549%,29.411765%);fill-opacity:1;" d="M 90 11 L 90 18 L 97 18 L 97 11 Z M 93 12 L 94 12 L 94 14 L 96 14 L 96 15 L 94 15 L 94 17 L 93 17 L 93 15 L 91 15 L 91 14 L 93 14 Z M 93 12 "/>
<path style=" stroke:none;fill-rule:nonzero;fill:rgb(99.215686%,73.72549%,29.411765%);fill-opacity:1;" d="M 97 11 L 97 20 L 106 20 L 106 11 Z M 101 12 L 102 12 L 102 15 L 105 15 L 105 16 L 102 16 L 102 19 L 101 19 L 101 16 L 98 16 L 98 15 L 101 15 Z M 101 12 "/>
<path style=" stroke:none;fill-rule:nonzero;fill:rgb(99.215686%,73.72549%,29.411765%);fill-opacity:1;" d="M 106 11 L 106 22 L 117 22 L 117 11 Z M 111 12 L 112 12 L 112 16 L 116 16 L 116 17 L 112 17 L 112 21 L 111 21 L 111 17 L 107 17 L 107 16 L 111 16 Z M 111 12 "/>
<path style=" stroke:none;fill-rule:nonzero;fill:rgb(30.196078%,30.196078%,30.196078%);fill-opacity:1;" d="M 0 55 L 7 55 L 7 62 L 0 62 Z M 0 55 "/>
<path style=" stroke:none;fill-rule:nonzero;fill:rgb(30.196078%,30.196078%,30.196078%);fill-opacity:1;" d="M 8 56 L 15 56 L 15 63 L 8 63 Z M 8 56 "/>
<path style=" stroke:none;fill-rule:nonzero;fill:rgb(30.196078%,30.196078%,30.196078%);fill-opacity:1;" d="M 17 56 L 26 56 L 26 65 L 17 65 Z M 17 56 "/>
<path style=" stroke:none;fill-rule:nonzero;fill:rgb(30.196078%,30.196078%,30.196078%);fill-opacity:1;" d="M 34 58.5 C 34 60.433594 32.433594 62 30.5 62 C 28.566406 62 27 60.433594 27 58.5 C 27 56.566406 28.566406 55 30.5 55 C 32.433594 55 34 56.566406 34 58.5 Z M 34 58.5 "/>
<path style=" stroke:none;fill-rule:nonzero;fill:rgb(30.196078%,30.196078%,30.196078%);fill-opacity:1;" d="M 42 59.5 C 42 61.433594 40.433594 63 38.5 63 C 36.566406 63 35 61.433594 35 59.5 C 35 57.566406 36.566406 56 38.5 56 C 40.433594 56 42 57.566406 42 59.5 Z M 42 59.5 "/>
<path style=" stroke:none;fill-rule:nonzero;fill:rgb(30.196078%,30.196078%,30.196078%);fill-opacity:1;" d="M 53 60.5 C 53 62.984375 50.984375 65 48.5 65 C 46.015625 65 44 62.984375 44 60.5 C 44 58.015625 46.015625 56 48.5 56 C 50.984375 56 53 58.015625 53 60.5 Z M 53 60.5 "/>
<path style=" stroke:none;fill-rule:nonzero;fill:rgb(30.196078%,30.196078%,30.196078%);fill-opacity:1;" d="M 61 60 C 61 62.761719 59.433594 65 57.5 65 C 55.566406 65 54 62.761719 54 60 C 54 57.238281 55.566406 55 57.5 55 C 59.433594 55 61 57.238281 61 60 Z M 61 60 "/>
<path style=" stroke:none;fill-rule:nonzero;fill:rgb(30.196078%,30.196078%,30.196078%);fill-opacity:1;" d="M 69 60.5 C 69 62.984375 67.433594 65 65.5 65 C 63.566406 65 62 62.984375 62 60.5 C 62 58.015625 63.566406 56 65.5 56 C 67.433594 56 69 58.015625 69 60.5 Z M 69 60.5 "/>
<path style=" stroke:none;fill-rule:nonzero;fill:rgb(30.196078%,30.196078%,30.196078%);fill-opacity:1;" d="M 79 58.5 C 79 60.433594 76.984375 62 74.5 62 C 72.015625 62 70 60.433594 70 58.5 C 70 56.566406 72.015625 55 74.5 55 C 76.984375 55 79 56.566406 79 58.5 Z M 79 58.5 "/>
<path style=" stroke:none;fill-rule:nonzero;fill:rgb(30.196078%,30.196078%,30.196078%);fill-opacity:1;" d="M 89 59.5 C 89 61.433594 86.984375 63 84.5 63 C 82.015625 63 80 61.433594 80 59.5 C 80 57.566406 82.015625 56 84.5 56 C 86.984375 56 89 57.566406 89 59.5 Z M 89 59.5 "/>
<path style=" stroke:none;fill-rule:nonzero;fill:rgb(30.196078%,30.196078%,30.196078%);fill-opacity:1;" d="M 90 55 L 90 62 L 97 62 L 97 55 Z M 93 56 L 94 56 L 94 58 L 96 58 L 96 59 L 94 59 L 94 61 L 93 61 L 93 59 L 91 59 L 91 58 L 93 58 Z M 93 56 "/>
<path style=" stroke:none;fill-rule:nonzero;fill:rgb(30.196078%,30.196078%,30.196078%);fill-opacity:1;" d="M 97 55 L 97 64 L 106 64 L 106 55 Z M 101 56 L 102 56 L 102 59 L 105 59 L 105 60 L 102 60 L 102 63 L 101 63 L 101 60 L 98 60 L 98 59 L 101 59 Z M 101 56 "/>
<path style=" stroke:none;fill-rule:nonzero;fill:rgb(30.196078%,30.196078%,30.196078%);fill-opacity:1;" d="M 106 55 L 106 66 L 117 66 L 117 55 Z M 111 56 L 112 56 L 112 60 L 116 60 L 116 61 L 112 61 L 112 65 L 111 65 L 111 61 L 107 61 L 107 60 L 111 60 Z M 111 56 "/>
<path style=" stroke:none;fill-rule:nonzero;fill:rgb(95.686275%,46.666667%,31.372549%);fill-opacity:1;" d="M 0 44 L 7 44 L 7 51 L 0 51 Z M 0 44 "/>
<path style=" stroke:none;fill-rule:nonzero;fill:rgb(95.686275%,46.666667%,31.372549%);fill-opacity:1;" d="M 8 45 L 15 45 L 15 52 L 8 52 Z M 8 45 "/>
<path style=" stroke:none;fill-rule:nonzero;fill:rgb(95.686275%,46.666667%,31.372549%);fill-opacity:1;" d="M 17 45 L 26 45 L 26 54 L 17 54 Z M 17 45 "/>
<path style=" stroke:none;fill-rule:nonzero;fill:rgb(95.686275%,46.666667%,31.372549%);fill-opacity:1;" d="M 34 47.5 C 34 49.433594 32.433594 51 30.5 51 C 28.566406 51 27 49.433594 27 47.5 C 27 45.566406 28.566406 44 30.5 44 C 32.433594 44 34 45.566406 34 47.5 Z M 34 47.5 "/>
<path style=" stroke:none;fill-rule:nonzero;fill:rgb(95.686275%,46.666667%,31.372549%);fill-opacity:1;" d="M 42 48.5 C 42 50.433594 40.433594 52 38.5 52 C 36.566406 52 35 50.433594 35 48.5 C 35 46.566406 36.566406 45 38.5 45 C 40.433594 45 42 46.566406 42 48.5 Z M 42 48.5 "/>
<path style=" stroke:none;fill-rule:nonzero;fill:rgb(95.686275%,46.666667%,31.372549%);fill-opacity:1;" d="M 53 49.5 C 53 51.984375 50.984375 54 48.5 54 C 46.015625 54 44 51.984375 44 49.5 C 44 47.015625 46.015625 45 48.5 45 C 50.984375 45 53 47.015625 53 49.5 Z M 53 49.5 "/>
<path style=" stroke:none;fill-rule:nonzero;fill:rgb(95.686275%,46.666667%,31.372549%);fill-opacity:1;" d="M 61 49 C 61 51.761719 59.433594 54 57.5 54 C 55.566406 54 54 51.761719 54 49 C 54 46.238281 55.566406 44 57.5 44 C 59.433594 44 61 46.238281 61 49 Z M 61 49 "/>
<path style=" stroke:none;fill-rule:nonzero;fill:rgb(100%,100%,100%);fill-opacity:1;" d="M 65.5 44 C 63.015625 44 61 46.460938 61 49.5 C 61 52.539062 63.015625 55 65.5 55 C 67.984375 55 70 52.539062 70 49.5 C 70 46.460938 67.984375 44 65.5 44 Z M 65.5 45 C 67.433594 45 69 47.015625 69 49.5 C 69 51.984375 67.433594 54 65.5 54 C 63.566406 54 62 51.984375 62 49.5 C 62 47.015625 63.566406 45 65.5 45 Z M 65.5 45 "/>
<path style=" stroke:none;fill-rule:nonzero;fill:rgb(95.686275%,46.666667%,31.372549%);fill-opacity:1;" d="M 69 49.5 C 69 51.984375 67.433594 54 65.5 54 C 63.566406 54 62 51.984375 62 49.5 C 62 47.015625 63.566406 45 65.5 45 C 67.433594 45 69 47.015625 69 49.5 Z M 69 49.5 "/>
<path style=" stroke:none;fill-rule:nonzero;fill:rgb(95.686275%,46.666667%,31.372549%);fill-opacity:1;" d="M 79 47.5 C 79 49.433594 76.984375 51 74.5 51 C 72.015625 51 70 49.433594 70 47.5 C 70 45.566406 72.015625 44 74.5 44 C 76.984375 44 79 45.566406 79 47.5 Z M 79 47.5 "/>
<path style=" stroke:none;fill-rule:nonzero;fill:rgb(95.686275%,46.666667%,31.372549%);fill-opacity:1;" d="M 89 48.5 C 89 50.433594 86.984375 52 84.5 52 C 82.015625 52 80 50.433594 80 48.5 C 80 46.566406 82.015625 45 84.5 45 C 86.984375 45 89 46.566406 89 48.5 Z M 89 48.5 "/>
<path style=" stroke:none;fill-rule:nonzero;fill:rgb(95.686275%,46.666667%,31.372549%);fill-opacity:1;" d="M 90 44 L 90 51 L 97 51 L 97 44 Z M 93 45 L 94 45 L 94 47 L 96 47 L 96 48 L 94 48 L 94 50 L 93 50 L 93 48 L 91 48 L 91 47 L 93 47 Z M 93 45 "/>
<path style=" stroke:none;fill-rule:nonzero;fill:rgb(95.686275%,46.666667%,31.372549%);fill-opacity:1;" d="M 97 44 L 97 53 L 106 53 L 106 44 Z M 101 45 L 102 45 L 102 48 L 105 48 L 105 49 L 102 49 L 102 52 L 101 52 L 101 49 L 98 49 L 98 48 L 101 48 Z M 101 45 "/>
<path style=" stroke:none;fill-rule:nonzero;fill:rgb(95.686275%,46.666667%,31.372549%);fill-opacity:1;" d="M 106 44 L 106 55 L 117 55 L 117 44 Z M 111 45 L 112 45 L 112 49 L 116 49 L 116 50 L 112 50 L 112 54 L 111 54 L 111 50 L 107 50 L 107 49 L 111 49 Z M 111 45 "/>
<path style=" stroke:none;fill-rule:nonzero;fill:rgb(100%,100%,100%);fill-opacity:1;" d="M 93 45 L 93 47 L 91 47 L 91 48 L 93 48 L 93 50 L 94 50 L 94 48 L 96 48 L 96 47 L 94 47 L 94 45 Z M 93 45 "/>
<path style=" stroke:none;fill-rule:nonzero;fill:rgb(100%,100%,100%);fill-opacity:1;" d="M 101 45 L 101 48 L 98 48 L 98 49 L 101 49 L 101 52 L 102 52 L 102 49 L 105 49 L 105 48 L 102 48 L 102 45 Z M 101 45 "/>
<path style=" stroke:none;fill-rule:nonzero;fill:rgb(100%,100%,100%);fill-opacity:1;" d="M 111 45 L 111 49 L 107 49 L 107 50 L 111 50 L 111 54 L 112 54 L 112 50 L 116 50 L 116 49 L 112 49 L 112 45 Z M 111 45 "/>
<path style=" stroke:none;fill-rule:nonzero;fill:rgb(85.490196%,26.666667%,32.54902%);fill-opacity:1;" d="M 0 33 L 7 33 L 7 40 L 0 40 Z M 0 33 "/>
<path style=" stroke:none;fill-rule:nonzero;fill:rgb(85.490196%,26.666667%,32.54902%);fill-opacity:1;" d="M 8 34 L 15 34 L 15 41 L 8 41 Z M 8 34 "/>
<path style=" stroke:none;fill-rule:nonzero;fill:rgb(85.490196%,26.666667%,32.54902%);fill-opacity:1;" d="M 17 34 L 26 34 L 26 43 L 17 43 Z M 17 34 "/>
<path style=" stroke:none;fill-rule:nonzero;fill:rgb(85.490196%,26.666667%,32.54902%);fill-opacity:1;" d="M 34 36.5 C 34 38.433594 32.433594 40 30.5 40 C 28.566406 40 27 38.433594 27 36.5 C 27 34.566406 28.566406 33 30.5 33 C 32.433594 33 34 34.566406 34 36.5 Z M 34 36.5 "/>
<path style=" stroke:none;fill-rule:nonzero;fill:rgb(85.490196%,26.666667%,32.54902%);fill-opacity:1;" d="M 42 37.5 C 42 39.433594 40.433594 41 38.5 41 C 36.566406 41 35 39.433594 35 37.5 C 35 35.566406 36.566406 34 38.5 34 C 40.433594 34 42 35.566406 42 37.5 Z M 42 37.5 "/>
<path style=" stroke:none;fill-rule:nonzero;fill:rgb(85.490196%,26.666667%,32.54902%);fill-opacity:1;" d="M 53 38.5 C 53 40.984375 50.984375 43 48.5 43 C 46.015625 43 44 40.984375 44 38.5 C 44 36.015625 46.015625 34 48.5 34 C 50.984375 34 53 36.015625 53 38.5 Z M 53 38.5 "/>
<path style=" stroke:none;fill-rule:nonzero;fill:rgb(85.490196%,26.666667%,32.54902%);fill-opacity:1;" d="M 61 38 C 61 40.761719 59.433594 43 57.5 43 C 55.566406 43 54 40.761719 54 38 C 54 35.238281 55.566406 33 57.5 33 C 59.433594 33 61 35.238281 61 38 Z M 61 38 "/>
<path style=" stroke:none;fill-rule:nonzero;fill:rgb(85.490196%,26.666667%,32.54902%);fill-opacity:1;" d="M 69 38.5 C 69 40.984375 67.433594 43 65.5 43 C 63.566406 43 62 40.984375 62 38.5 C 62 36.015625 63.566406 34 65.5 34 C 67.433594 34 69 36.015625 69 38.5 Z M 69 38.5 "/>
<path style=" stroke:none;fill-rule:nonzero;fill:rgb(85.490196%,26.666667%,32.54902%);fill-opacity:1;" d="M 79 36.5 C 79 38.433594 76.984375 40 74.5 40 C 72.015625 40 70 38.433594 70 36.5 C 70 34.566406 72.015625 33 74.5 33 C 76.984375 33 79 34.566406 79 36.5 Z M 79 36.5 "/>
<path style=" stroke:none;fill-rule:nonzero;fill:rgb(85.490196%,26.666667%,32.54902%);fill-opacity:1;" d="M 89 37.5 C 89 39.433594 86.984375 41 84.5 41 C 82.015625 41 80 39.433594 80 37.5 C 80 35.566406 82.015625 34 84.5 34 C 86.984375 34 89 35.566406 89 37.5 Z M 89 37.5 "/>
<path style=" stroke:none;fill-rule:nonzero;fill:rgb(85.490196%,26.666667%,32.54902%);fill-opacity:1;" d="M 90 33 L 90 40 L 97 40 L 97 33 Z M 93 34 L 94 34 L 94 36 L 96 36 L 96 37 L 94 37 L 94 39 L 93 39 L 93 37 L 91 37 L 91 36 L 93 36 Z M 93 34 "/>
<path style=" stroke:none;fill-rule:nonzero;fill:rgb(85.490196%,26.666667%,32.54902%);fill-opacity:1;" d="M 97 33 L 97 42 L 106 42 L 106 33 Z M 101 34 L 102 34 L 102 37 L 105 37 L 105 38 L 102 38 L 102 41 L 101 41 L 101 38 L 98 38 L 98 37 L 101 37 Z M 101 34 "/>
<path style=" stroke:none;fill-rule:nonzero;fill:rgb(85.490196%,26.666667%,32.54902%);fill-opacity:1;" d="M 106 33 L 106 44 L 117 44 L 117 33 Z M 111 34 L 112 34 L 112 38 L 116 38 L 116 39 L 112 39 L 112 43 L 111 43 L 111 39 L 107 39 L 107 38 L 111 38 Z M 111 34 "/>
<path style=" stroke:none;fill-rule:nonzero;fill:rgb(100%,100%,100%);fill-opacity:1;" d="M 16 33 L 16 44 L 27 44 L 27 33 Z M 17 34 L 26 34 L 26 43 L 17 43 Z M 17 34 "/>
<path style=" stroke:none;fill-rule:nonzero;fill:rgb(100%,100%,100%);fill-opacity:1;" d="M 7 33 L 7 42 L 16 42 L 16 33 Z M 8 34 L 15 34 L 15 41 L 8 41 Z M 8 34 "/>
<path style=" stroke:none;fill-rule:nonzero;fill:rgb(100%,100%,100%);fill-opacity:1;" d="M 38.5 33 C 36.015625 33 34 35.015625 34 37.5 C 34 39.984375 36.015625 42 38.5 42 C 40.984375 42 43 39.984375 43 37.5 C 43 35.015625 40.984375 33 38.5 33 Z M 38.5 34 C 40.433594 34 42 35.566406 42 37.5 C 42 39.433594 40.433594 41 38.5 41 C 36.566406 41 35 39.433594 35 37.5 C 35 35.566406 36.566406 34 38.5 34 Z M 38.5 34 "/>
<path style=" stroke:none;fill-rule:nonzero;fill:rgb(100%,100%,100%);fill-opacity:1;" d="M 48.5 33 C 45.460938 33 43 35.460938 43 38.5 C 43 41.539062 45.460938 44 48.5 44 C 51.539062 44 54 41.539062 54 38.5 C 54 35.460938 51.539062 33 48.5 33 Z M 48.5 34 C 50.984375 34 53 36.015625 53 38.5 C 53 40.984375 50.984375 43 48.5 43 C 46.015625 43 44 40.984375 44 38.5 C 44 36.015625 46.015625 34 48.5 34 Z M 48.5 34 "/>
<path style=" stroke:none;fill-rule:nonzero;fill:rgb(100%,100%,100%);fill-opacity:1;" d="M 84.5 33 C 81.460938 33 79 35.015625 79 37.5 C 79 39.984375 81.460938 42 84.5 42 C 87.539062 42 90 39.984375 90 37.5 C 90 35.015625 87.539062 33 84.5 33 Z M 84.5 34 C 86.984375 34 89 35.566406 89 37.5 C 89 39.433594 86.984375 41 84.5 41 C 82.015625 41 80 39.433594 80 37.5 C 80 35.566406 82.015625 34 84.5 34 Z M 84.5 34 "/>
<path style=" stroke:none;fill-rule:nonzero;fill:rgb(100%,100%,100%);fill-opacity:1;" d="M 93 34 L 93 36 L 91 36 L 91 37 L 93 37 L 93 39 L 94 39 L 94 37 L 96 37 L 96 36 L 94 36 L 94 34 Z M 93 34 "/>
<path style=" stroke:none;fill-rule:nonzero;fill:rgb(100%,100%,100%);fill-opacity:1;" d="M 101 34 L 101 37 L 98 37 L 98 38 L 101 38 L 101 41 L 102 41 L 102 38 L 105 38 L 105 37 L 102 37 L 102 34 Z M 101 34 "/>
<path style=" stroke:none;fill-rule:nonzero;fill:rgb(100%,100%,100%);fill-opacity:1;" d="M 111 34 L 111 38 L 107 38 L 107 39 L 111 39 L 111 43 L 112 43 L 112 39 L 116 39 L 116 38 L 112 38 L 112 34 Z M 111 34 "/>
<path style=" stroke:none;fill-rule:nonzero;fill:rgb(11.372549%,60%,95.294118%);fill-opacity:1;" d="M 73 67 L 84 67 L 84 78 L 73 78 Z M 73 67 "/>
<path style=" stroke:none;fill-rule:nonzero;fill:rgb(85.490196%,26.666667%,32.54902%);fill-opacity:1;" d="M 86 67 L 97 67 L 97 78 L 86 78 Z M 86 67 "/>
<path style=" stroke:none;fill-rule:nonzero;fill:rgb(18.039216%,80%,44.313725%);fill-opacity:1;" d="M 73 80 L 84 80 L 84 91 L 73 91 Z M 73 80 "/>
<path style=" stroke:none;fill-rule:nonzero;fill:rgb(95.686275%,46.666667%,31.372549%);fill-opacity:1;" d="M 86 80 L 97 80 L 97 91 L 86 91 Z M 86 80 "/>
<path style=" stroke:none;fill-rule:nonzero;fill:rgb(99.215686%,73.72549%,29.411765%);fill-opacity:1;" d="M 99 80 L 110 80 L 110 91 L 99 91 Z M 99 80 "/>
<path style=" stroke:none;fill-rule:nonzero;fill:rgb(95.686275%,46.666667%,31.372549%);fill-opacity:1;" d="M 7.5 71 C 5.015625 71 3 73.015625 3 75.5 C 3 77.984375 5.015625 80 7.5 80 C 9.984375 80 12 77.984375 12 75.5 C 12 73.015625 9.984375 71 7.5 71 Z M 7.5 71 "/>
<use xlink:href="#surface9" mask="url(#mask1)"/>
<path style=" stroke:none;fill-rule:nonzero;fill:rgb(100%,100%,100%);fill-opacity:1;" d="M 7 0 L 7 9 L 16 9 L 16 0 Z M 8 1 L 15 1 L 15 8 L 8 8 Z M 8 1 "/>
<path style=" stroke:none;fill-rule:nonzero;fill:rgb(100%,100%,100%);fill-opacity:1;" d="M 16 0 L 16 11 L 27 11 L 27 0 Z M 17 1 L 26 1 L 26 10 L 17 10 Z M 17 1 "/>
<path style=" stroke:none;fill-rule:nonzero;fill:rgb(100%,100%,100%);fill-opacity:1;" d="M 38.5 0 C 36.015625 0 34 2.015625 34 4.5 C 34 6.984375 36.015625 9 38.5 9 C 40.984375 9 43 6.984375 43 4.5 C 43 2.015625 40.984375 0 38.5 0 Z M 38.5 1 C 40.433594 1 42 2.566406 42 4.5 C 42 6.433594 40.433594 8 38.5 8 C 36.566406 8 35 6.433594 35 4.5 C 35 2.566406 36.566406 1 38.5 1 Z M 38.5 1 "/>
<path style=" stroke:none;fill-rule:nonzero;fill:rgb(100%,100%,100%);fill-opacity:1;" d="M 48.5 0 C 45.460938 0 43 2.460938 43 5.5 C 43 8.539062 45.460938 11 48.5 11 C 51.539062 11 54 8.539062 54 5.5 C 54 2.460938 51.539062 0 48.5 0 Z M 48.5 1 C 50.984375 1 53 3.015625 53 5.5 C 53 7.984375 50.984375 10 48.5 10 C 46.015625 10 44 7.984375 44 5.5 C 44 3.015625 46.015625 1 48.5 1 Z M 48.5 1 "/>
<path style=" stroke:none;fill-rule:nonzero;fill:rgb(100%,100%,100%);fill-opacity:1;" d="M 84.5 0 C 81.460938 0 79 2.015625 79 4.5 C 79 6.984375 81.460938 9 84.5 9 C 87.539062 9 90 6.984375 90 4.5 C 90 2.015625 87.539062 0 84.5 0 Z M 84.5 1 C 86.984375 1 89 2.566406 89 4.5 C 89 6.433594 86.984375 8 84.5 8 C 82.015625 8 80 6.433594 80 4.5 C 80 2.566406 82.015625 1 84.5 1 Z M 84.5 1 "/>
<path style=" stroke:none;fill-rule:nonzero;fill:rgb(100%,100%,100%);fill-opacity:1;" d="M 93 23 L 93 25 L 91 25 L 91 26 L 93 26 L 93 28 L 94 28 L 94 26 L 96 26 L 96 25 L 94 25 L 94 23 Z M 93 23 "/>
<path style=" stroke:none;fill-rule:nonzero;fill:rgb(100%,100%,100%);fill-opacity:1;" d="M 101 23 L 101 26 L 98 26 L 98 27 L 101 27 L 101 30 L 102 30 L 102 27 L 105 27 L 105 26 L 102 26 L 102 23 Z M 101 23 "/>
<path style=" stroke:none;fill-rule:nonzero;fill:rgb(100%,100%,100%);fill-opacity:1;" d="M 111 23 L 111 27 L 107 27 L 107 28 L 111 28 L 111 32 L 112 32 L 112 28 L 116 28 L 116 27 L 112 27 L 112 23 Z M 111 23 "/>
<path style=" stroke:none;fill-rule:nonzero;fill:rgb(100%,100%,100%);fill-opacity:1;" d="M 93 56 L 93 58 L 91 58 L 91 59 L 93 59 L 93 61 L 94 61 L 94 59 L 96 59 L 96 58 L 94 58 L 94 56 Z M 93 56 "/>
<path style=" stroke:none;fill-rule:nonzero;fill:rgb(100%,100%,100%);fill-opacity:1;" d="M 101 56 L 101 59 L 98 59 L 98 60 L 101 60 L 101 63 L 102 63 L 102 60 L 105 60 L 105 59 L 102 59 L 102 56 Z M 101 56 "/>
<path style=" stroke:none;fill-rule:nonzero;fill:rgb(100%,100%,100%);fill-opacity:1;" d="M 111 56 L 111 60 L 107 60 L 107 61 L 111 61 L 111 65 L 112 65 L 112 61 L 116 61 L 116 60 L 112 60 L 112 56 Z M 111 56 "/>
<path style=" stroke:none;fill-rule:nonzero;fill:rgb(100%,100%,100%);fill-opacity:1;" d="M 7 68 L 7 70.03125 C 4.363281 70.269531 2.269531 72.363281 2.03125 75 L 0 75 L 0 76 L 2.03125 76 C 2.269531 78.636719 4.363281 80.730469 7 80.96875 L 7 83 L 8 83 L 8 80.96875 C 10.636719 80.730469 12.730469 78.636719 12.96875 76 L 15 76 L 15 75 L 12.96875 75 C 12.730469 72.363281 10.636719 70.269531 8 70.03125 L 8 68 Z M 7 71.0625 L 7 72 L 8 72 L 8 71.0625 C 10.078125 71.296875 11.703125 72.921875 11.9375 75 L 11 75 L 11 76 L 11.9375 76 C 11.703125 78.078125 10.078125 79.703125 8 79.9375 L 8 79 L 7 79 L 7 79.9375 C 4.921875 79.703125 3.296875 78.078125 3.0625 76 L 4 76 L 4 75 L 3.0625 75 C 3.296875 72.921875 4.921875 71.296875 7 71.0625 Z M 7 71.0625 "/>
<path style=" stroke:none;fill-rule:nonzero;fill:rgb(100%,100%,100%);fill-opacity:1;" d="M 93 45 L 93 47 L 91 47 L 91 48 L 93 48 L 93 50 L 94 50 L 94 48 L 96 48 L 96 47 L 94 47 L 94 45 Z M 93 45 "/>
<path style=" stroke:none;fill-rule:nonzero;fill:rgb(100%,100%,100%);fill-opacity:1;" d="M 101 45 L 101 48 L 98 48 L 98 49 L 101 49 L 101 52 L 102 52 L 102 49 L 105 49 L 105 48 L 102 48 L 102 45 Z M 101 45 "/>
<path style=" stroke:none;fill-rule:nonzero;fill:rgb(100%,100%,100%);fill-opacity:1;" d="M 111 45 L 111 49 L 107 49 L 107 50 L 111 50 L 111 54 L 112 54 L 112 50 L 116 50 L 116 49 L 112 49 L 112 45 Z M 111 45 "/>
<path style=" stroke:none;fill-rule:nonzero;fill:rgb(100%,100%,100%);fill-opacity:1;" d="M 7 44 L 7 53 L 16 53 L 16 44 Z M 8 45 L 15 45 L 15 52 L 8 52 Z M 8 45 "/>
<path style=" stroke:none;fill-rule:nonzero;fill:rgb(100%,100%,100%);fill-opacity:1;" d="M 16 44 L 16 55 L 27 55 L 27 44 Z M 17 45 L 26 45 L 26 54 L 17 54 Z M 17 45 "/>
<path style=" stroke:none;fill-rule:nonzero;fill:rgb(100%,100%,100%);fill-opacity:1;" d="M 38.5 44 C 36.015625 44 34 46.015625 34 48.5 C 34 50.984375 36.015625 53 38.5 53 C 40.984375 53 43 50.984375 43 48.5 C 43 46.015625 40.984375 44 38.5 44 Z M 38.5 45 C 40.433594 45 42 46.566406 42 48.5 C 42 50.433594 40.433594 52 38.5 52 C 36.566406 52 35 50.433594 35 48.5 C 35 46.566406 36.566406 45 38.5 45 Z M 38.5 45 "/>
<path style=" stroke:none;fill-rule:nonzero;fill:rgb(100%,100%,100%);fill-opacity:1;" d="M 48.5 44 C 45.460938 44 43 46.460938 43 49.5 C 43 52.539062 45.460938 55 48.5 55 C 51.539062 55 54 52.539062 54 49.5 C 54 46.460938 51.539062 44 48.5 44 Z M 48.5 45 C 50.984375 45 53 47.015625 53 49.5 C 53 51.984375 50.984375 54 48.5 54 C 46.015625 54 44 51.984375 44 49.5 C 44 47.015625 46.015625 45 48.5 45 Z M 48.5 45 "/>
<path style=" stroke:none;fill-rule:nonzero;fill:rgb(100%,100%,100%);fill-opacity:1;" d="M 84.5 44 C 81.460938 44 79 46.015625 79 48.5 C 79 50.984375 81.460938 53 84.5 53 C 87.539062 53 90 50.984375 90 48.5 C 90 46.015625 87.539062 44 84.5 44 Z M 84.5 45 C 86.984375 45 89 46.566406 89 48.5 C 89 50.433594 86.984375 52 84.5 52 C 82.015625 52 80 50.433594 80 48.5 C 80 46.566406 82.015625 45 84.5 45 Z M 84.5 45 "/>
<path style=" stroke:none;fill-rule:nonzero;fill:rgb(30.196078%,30.196078%,30.196078%);fill-opacity:1;" d="M 93 12 L 93 14 L 91 14 L 91 15 L 93 15 L 93 17 L 94 17 L 94 15 L 96 15 L 96 14 L 94 14 L 94 12 Z M 93 12 "/>
<path style=" stroke:none;fill-rule:nonzero;fill:rgb(30.196078%,30.196078%,30.196078%);fill-opacity:1;" d="M 101 12 L 101 15 L 98 15 L 98 16 L 101 16 L 101 19 L 102 19 L 102 16 L 105 16 L 105 15 L 102 15 L 102 12 Z M 101 12 "/>
<path style=" stroke:none;fill-rule:nonzero;fill:rgb(30.196078%,30.196078%,30.196078%);fill-opacity:1;" d="M 111 12 L 111 16 L 107 16 L 107 17 L 111 17 L 111 21 L 112 21 L 112 17 L 116 17 L 116 16 L 112 16 L 112 12 Z M 111 12 "/>
<path style=" stroke:none;fill-rule:nonzero;fill:rgb(30.196078%,30.196078%,30.196078%);fill-opacity:1;" d="M 7 11 L 7 20 L 16 20 L 16 11 Z M 8 12 L 15 12 L 15 19 L 8 19 Z M 8 12 "/>
<path style=" stroke:none;fill-rule:nonzero;fill:rgb(30.196078%,30.196078%,30.196078%);fill-opacity:1;" d="M 16 11 L 16 22 L 27 22 L 27 11 Z M 17 12 L 26 12 L 26 21 L 17 21 Z M 17 12 "/>
<path style=" stroke:none;fill-rule:nonzero;fill:rgb(30.196078%,30.196078%,30.196078%);fill-opacity:1;" d="M 38.5 11 C 36.015625 11 34 13.015625 34 15.5 C 34 17.984375 36.015625 20 38.5 20 C 40.984375 20 43 17.984375 43 15.5 C 43 13.015625 40.984375 11 38.5 11 Z M 38.5 12 C 40.433594 12 42 13.566406 42 15.5 C 42 17.433594 40.433594 19 38.5 19 C 36.566406 19 35 17.433594 35 15.5 C 35 13.566406 36.566406 12 38.5 12 Z M 38.5 12 "/>
<path style=" stroke:none;fill-rule:nonzero;fill:rgb(30.196078%,30.196078%,30.196078%);fill-opacity:1;" d="M 48.5 11 C 45.460938 11 43 13.460938 43 16.5 C 43 19.539062 45.460938 22 48.5 22 C 51.539062 22 54 19.539062 54 16.5 C 54 13.460938 51.539062 11 48.5 11 Z M 48.5 12 C 50.984375 12 53 14.015625 53 16.5 C 53 18.984375 50.984375 21 48.5 21 C 46.015625 21 44 18.984375 44 16.5 C 44 14.015625 46.015625 12 48.5 12 Z M 48.5 12 "/>
<path style=" stroke:none;fill-rule:nonzero;fill:rgb(30.196078%,30.196078%,30.196078%);fill-opacity:1;" d="M 84.5 11 C 81.460938 11 79 13.015625 79 15.5 C 79 17.984375 81.460938 20 84.5 20 C 87.539062 20 90 17.984375 90 15.5 C 90 13.015625 87.539062 11 84.5 11 Z M 84.5 12 C 86.984375 12 89 13.566406 89 15.5 C 89 17.433594 86.984375 19 84.5 19 C 82.015625 19 80 17.433594 80 15.5 C 80 13.566406 82.015625 12 84.5 12 Z M 84.5 12 "/>
<path style=" stroke:none;fill-rule:nonzero;fill:rgb(100%,100%,100%);fill-opacity:1;" d="M 65.5 33 C 63.015625 33 61 35.460938 61 38.5 C 61 41.539062 63.015625 44 65.5 44 C 67.984375 44 70 41.539062 70 38.5 C 70 35.460938 67.984375 33 65.5 33 Z M 65.5 34 C 67.433594 34 69 36.015625 69 38.5 C 69 40.984375 67.433594 43 65.5 43 C 63.566406 43 62 40.984375 62 38.5 C 62 36.015625 63.566406 34 65.5 34 Z M 65.5 34 "/>
<path style=" stroke:none;fill-rule:nonzero;fill:rgb(100%,100%,100%);fill-opacity:1;" d="M 65.5 0 C 63.015625 0 61 2.460938 61 5.5 C 61 8.539062 63.015625 11 65.5 11 C 67.984375 11 70 8.539062 70 5.5 C 70 2.460938 67.984375 0 65.5 0 Z M 65.5 1 C 67.433594 1 69 3.015625 69 5.5 C 69 7.984375 67.433594 10 65.5 10 C 63.566406 10 62 7.984375 62 5.5 C 62 3.015625 63.566406 1 65.5 1 Z M 65.5 1 "/>
<path style=" stroke:none;fill-rule:nonzero;fill:rgb(100%,100%,100%);fill-opacity:1;" d="M 16 22 L 16 33 L 27 33 L 27 22 Z M 17 23 L 26 23 L 26 32 L 17 32 Z M 17 23 "/>
<path style=" stroke:none;fill-rule:nonzero;fill:rgb(100%,100%,100%);fill-opacity:1;" d="M 7 22 L 7 31 L 16 31 L 16 22 Z M 8 23 L 15 23 L 15 30 L 8 30 Z M 8 23 "/>
<path style=" stroke:none;fill-rule:nonzero;fill:rgb(100%,100%,100%);fill-opacity:1;" d="M 38.5 22 C 36.015625 22 34 24.015625 34 26.5 C 34 28.984375 36.015625 31 38.5 31 C 40.984375 31 43 28.984375 43 26.5 C 43 24.015625 40.984375 22 38.5 22 Z M 38.5 23 C 40.433594 23 42 24.566406 42 26.5 C 42 28.433594 40.433594 30 38.5 30 C 36.566406 30 35 28.433594 35 26.5 C 35 24.566406 36.566406 23 38.5 23 Z M 38.5 23 "/>
<path style=" stroke:none;fill-rule:nonzero;fill:rgb(100%,100%,100%);fill-opacity:1;" d="M 48.5 22 C 45.460938 22 43 24.460938 43 27.5 C 43 30.539062 45.460938 33 48.5 33 C 51.539062 33 54 30.539062 54 27.5 C 54 24.460938 51.539062 22 48.5 22 Z M 48.5 23 C 50.984375 23 53 25.015625 53 27.5 C 53 29.984375 50.984375 32 48.5 32 C 46.015625 32 44 29.984375 44 27.5 C 44 25.015625 46.015625 23 48.5 23 Z M 48.5 23 "/>
<path style=" stroke:none;fill-rule:nonzero;fill:rgb(100%,100%,100%);fill-opacity:1;" d="M 84.5 22 C 81.460938 22 79 24.015625 79 26.5 C 79 28.984375 81.460938 31 84.5 31 C 87.539062 31 90 28.984375 90 26.5 C 90 24.015625 87.539062 22 84.5 22 Z M 84.5 23 C 86.984375 23 89 24.566406 89 26.5 C 89 28.433594 86.984375 30 84.5 30 C 82.015625 30 80 28.433594 80 26.5 C 80 24.566406 82.015625 23 84.5 23 Z M 84.5 23 "/>
<path style=" stroke:none;fill-rule:nonzero;fill:rgb(100%,100%,100%);fill-opacity:1;" d="M 65.5 22 C 63.015625 22 61 24.460938 61 27.5 C 61 30.539062 63.015625 33 65.5 33 C 67.984375 33 70 30.539062 70 27.5 C 70 24.460938 67.984375 22 65.5 22 Z M 65.5 23 C 67.433594 23 69 25.015625 69 27.5 C 69 29.984375 67.433594 32 65.5 32 C 63.566406 32 62 29.984375 62 27.5 C 62 25.015625 63.566406 23 65.5 23 Z M 65.5 23 "/>
<path style=" stroke:none;fill-rule:nonzero;fill:rgb(100%,100%,100%);fill-opacity:1;" d="M 16 55 L 16 66 L 27 66 L 27 55 Z M 17 56 L 26 56 L 26 65 L 17 65 Z M 17 56 "/>
<path style=" stroke:none;fill-rule:nonzero;fill:rgb(100%,100%,100%);fill-opacity:1;" d="M 7 55 L 7 64 L 16 64 L 16 55 Z M 8 56 L 15 56 L 15 63 L 8 63 Z M 8 56 "/>
<path style=" stroke:none;fill-rule:nonzero;fill:rgb(100%,100%,100%);fill-opacity:1;" d="M 38.5 55 C 36.015625 55 34 57.015625 34 59.5 C 34 61.984375 36.015625 64 38.5 64 C 40.984375 64 43 61.984375 43 59.5 C 43 57.015625 40.984375 55 38.5 55 Z M 38.5 56 C 40.433594 56 42 57.566406 42 59.5 C 42 61.433594 40.433594 63 38.5 63 C 36.566406 63 35 61.433594 35 59.5 C 35 57.566406 36.566406 56 38.5 56 Z M 38.5 56 "/>
<path style=" stroke:none;fill-rule:nonzero;fill:rgb(100%,100%,100%);fill-opacity:1;" d="M 48.5 55 C 45.460938 55 43 57.460938 43 60.5 C 43 63.539062 45.460938 66 48.5 66 C 51.539062 66 54 63.539062 54 60.5 C 54 57.460938 51.539062 55 48.5 55 Z M 48.5 56 C 50.984375 56 53 58.015625 53 60.5 C 53 62.984375 50.984375 65 48.5 65 C 46.015625 65 44 62.984375 44 60.5 C 44 58.015625 46.015625 56 48.5 56 Z M 48.5 56 "/>
<path style=" stroke:none;fill-rule:nonzero;fill:rgb(100%,100%,100%);fill-opacity:1;" d="M 84.5 55 C 81.460938 55 79 57.015625 79 59.5 C 79 61.984375 81.460938 64 84.5 64 C 87.539062 64 90 61.984375 90 59.5 C 90 57.015625 87.539062 55 84.5 55 Z M 84.5 56 C 86.984375 56 89 57.566406 89 59.5 C 89 61.433594 86.984375 63 84.5 63 C 82.015625 63 80 61.433594 80 59.5 C 80 57.566406 82.015625 56 84.5 56 Z M 84.5 56 "/>
<path style=" stroke:none;fill-rule:nonzero;fill:rgb(100%,100%,100%);fill-opacity:1;" d="M 65.5 55 C 63.015625 55 61 57.460938 61 60.5 C 61 63.539062 63.015625 66 65.5 66 C 67.984375 66 70 63.539062 70 60.5 C 70 57.460938 67.984375 55 65.5 55 Z M 65.5 56 C 67.433594 56 69 58.015625 69 60.5 C 69 62.984375 67.433594 65 65.5 65 C 63.566406 65 62 62.984375 62 60.5 C 62 58.015625 63.566406 56 65.5 56 Z M 65.5 56 "/>
<path style=" stroke:none;fill-rule:nonzero;fill:rgb(100%,100%,100%);fill-opacity:1;" d="M 24 71.5 C 24 73.984375 21.984375 76 19.5 76 C 17.015625 76 15 73.984375 15 71.5 C 15 69.015625 17.015625 67 19.5 67 C 21.984375 67 24 69.015625 24 71.5 Z M 24 71.5 "/>
<path style=" stroke:none;fill-rule:nonzero;fill:rgb(85.490196%,26.666667%,32.54902%);fill-opacity:1;" d="M 23 71.5 C 23 73.433594 21.433594 75 19.5 75 C 17.566406 75 16 73.433594 16 71.5 C 16 69.566406 17.566406 68 19.5 68 C 21.433594 68 23 69.566406 23 71.5 Z M 23 71.5 "/>
<path style=" stroke:none;fill-rule:nonzero;fill:rgb(100%,100%,100%);fill-opacity:1;" d="M 19 69 L 20 69 L 20 74 L 19 74 Z M 19 69 "/>
<path style=" stroke:none;fill-rule:nonzero;fill:rgb(100%,100%,100%);fill-opacity:1;" d="M 17 71 L 22 71 L 22 72 L 17 72 Z M 17 71 "/>
<path style=" stroke:none;fill-rule:nonzero;fill:rgb(100%,100%,100%);fill-opacity:1;" d="M 24 80.5 C 24 82.984375 21.984375 85 19.5 85 C 17.015625 85 15 82.984375 15 80.5 C 15 78.015625 17.015625 76 19.5 76 C 21.984375 76 24 78.015625 24 80.5 Z M 24 80.5 "/>
<path style=" stroke:none;fill-rule:nonzero;fill:rgb(18.039216%,80%,44.313725%);fill-opacity:1;" d="M 23 80.5 C 23 82.433594 21.433594 84 19.5 84 C 17.566406 84 16 82.433594 16 80.5 C 16 78.566406 17.566406 77 19.5 77 C 21.433594 77 23 78.566406 23 80.5 Z M 23 80.5 "/>
<path style=" stroke:none;fill-rule:nonzero;fill:rgb(100%,100%,100%);fill-opacity:1;" d="M 19 78 L 20 78 L 20 83 L 19 83 Z M 19 78 "/>
<path style=" stroke:none;fill-rule:nonzero;fill:rgb(100%,100%,100%);fill-opacity:1;" d="M 17 80 L 22 80 L 22 81 L 17 81 Z M 17 80 "/>
<path style=" stroke:none;fill-rule:evenodd;fill:rgb(100%,100%,100%);fill-opacity:1;" d="M 60 71 C 58.894531 71 58 71.894531 58 73 C 58 73.933594 58.636719 74.714844 59.5 74.9375 L 59.5 77 L 57 77 L 57 78 L 59.5 78 L 59.5 85.96875 C 56.960938 85.804688 54.75 84.457031 53.40625 82.46875 L 53.59375 82.375 L 54.5 81.875 L 54 81 C 54 81 51 82.625 51 82.625 L 51.5 83.5 L 52.53125 82.9375 C 54.136719 85.371094 56.867188 87 60 87 C 63.132812 87 65.863281 85.371094 67.46875 82.9375 L 68.5 83.5 L 69 82.625 C 69 82.625 66 81 66 81 L 65.5 81.875 L 66.40625 82.375 L 66.59375 82.46875 C 65.25 84.457031 63.039062 85.804688 60.5 85.96875 L 60.5 78 L 63 78 L 63 77 L 60.5 77 L 60.5 74.9375 C 61.363281 74.714844 62 73.933594 62 73 C 62 71.894531 61.105469 71 60 71 Z M 60 72 C 60.550781 72 61 72.449219 61 73 C 61 73.550781 60.550781 74 60 74 C 59.449219 74 59 73.550781 59 73 C 59 72.449219 59.449219 72 60 72 Z M 60 72 "/>
</g>
</svg>
