<?xml version="1.0" encoding="UTF-8"?>
<svg xmlns="http://www.w3.org/2000/svg" xmlns:xlink="http://www.w3.org/1999/xlink" width="15pt" height="15pt" viewBox="0 0 15 15" version="1.1">
<g id="surface1">
<path style=" stroke:none;fill-rule:nonzero;fill:rgb(95.686275%,46.666667%,31.372549%);fill-opacity:1;" d="M 7.5 3 C 5.015625 3 3 5.015625 3 7.5 C 3 9.984375 5.015625 12 7.5 12 C 9.984375 12 12 9.984375 12 7.5 C 12 5.015625 9.984375 3 7.5 3 Z M 7.5 3 "/>
<path style=" stroke:none;fill-rule:nonzero;fill:rgb(100%,100%,100%);fill-opacity:1;" d="M 7 0 L 7 2.03125 C 4.363281 2.269531 2.269531 4.363281 2.03125 7 L 0 7 L 0 8 L 2.03125 8 C 2.269531 10.636719 4.363281 12.730469 7 12.96875 L 7 15 L 8 15 L 8 12.96875 C 10.636719 12.730469 12.730469 10.636719 12.96875 8 L 15 8 L 15 7 L 12.96875 7 C 12.730469 4.363281 10.636719 2.269531 8 2.03125 L 8 0 Z M 7 3.0625 L 7 4 L 8 4 L 8 3.0625 C 10.078125 3.296875 11.703125 4.921875 11.9375 7 L 11 7 L 11 8 L 11.9375 8 C 11.703125 10.078125 10.078125 11.703125 8 11.9375 L 8 11 L 7 11 L 7 11.9375 C 4.921875 11.703125 3.296875 10.078125 3.0625 8 L 4 8 L 4 7 L 3.0625 7 C 3.296875 4.921875 4.921875 3.296875 7 3.0625 Z M 7 3.0625 "/>
</g>
</svg>
