<?xml version="1.0" encoding="UTF-8"?>
<svg xmlns="http://www.w3.org/2000/svg" xmlns:xlink="http://www.w3.org/1999/xlink" width="11pt" height="11.00002pt" viewBox="0 0 11 11.00002" version="1.1">
<g id="surface1">
<path style=" stroke:none;fill-rule:nonzero;fill:rgb(85.490196%,26.666667%,32.54902%);fill-opacity:1;" d="M 0 0 L 0 11 L 11 11 L 11 0 Z M 5 1 L 6 1 L 6 5 L 10 5 L 10 6 L 6 6 L 6 10 L 5 10 L 5 6 L 1 6 L 1 5 L 5 5 Z M 5 1 "/>
<path style=" stroke:none;fill-rule:nonzero;fill:rgb(100%,100%,100%);fill-opacity:1;" d="M 5 1 L 5 5 L 1 5 L 1 6 L 5 6 L 5 10 L 6 10 L 6 6 L 10 6 L 10 5 L 6 5 L 6 1 Z M 5 1 "/>
</g>
</svg>
