<?xml version="1.0" encoding="UTF-8"?>
<svg xmlns="http://www.w3.org/2000/svg" xmlns:xlink="http://www.w3.org/1999/xlink" width="22pt" height="22pt" viewBox="0 0 22 22" version="1.1">
<defs>
<filter id="alpha" filterUnits="objectBoundingBox" x="0%" y="0%" width="100%" height="100%">
  <feColorMatrix type="matrix" in="SourceGraphic" values="0 0 0 0 1 0 0 0 0 1 0 0 0 0 1 0 0 0 1 0"/>
</filter>
<mask id="mask0">
  <g filter="url(#alpha)">
<rect x="0" y="0" width="22" height="22" style="fill:rgb(0%,0%,0%);fill-opacity:0.8;stroke:none;"/>
  </g>
</mask>
<clipPath id="clip1">
  <rect width="22" height="23"/>
</clipPath>
<g id="surface6" clip-path="url(#clip1)">
<path style=" stroke:none;fill-rule:nonzero;fill:rgb(30.196078%,30.196078%,30.196078%);fill-opacity:1;" d="M 0 1 L 0 23 L 22 23 L 22 1 Z M 11 4 C 12.105469 4 13 4.894531 13 6 C 13 6.933594 12.363281 7.714844 11.5 7.9375 L 11.5 10 L 14 10 L 14 11 L 11.5 11 L 11.5 18.96875 C 14.039062 18.804688 16.25 17.457031 17.59375 15.46875 L 17.40625 15.375 L 16.5 14.875 L 17 14 C 17 14 20 15.625 20 15.625 L 19.5 16.5 L 18.46875 15.9375 C 16.863281 18.375 14.132812 20 11 20 C 7.867188 20 5.136719 18.375 3.53125 15.9375 L 2.5 16.5 L 2 15.625 C 2 15.625 5 14 5 14 L 5.5 14.875 L 4.59375 15.375 L 4.40625 15.46875 C 5.75 17.457031 7.960938 18.804688 10.5 18.96875 L 10.5 11 L 8 11 L 8 10 L 10.5 10 L 10.5 7.9375 C 9.636719 7.714844 9 6.933594 9 6 C 9 4.894531 9.894531 4 11 4 Z M 11 5 C 10.449219 5 10 5.449219 10 6 C 10 6.550781 10.449219 7 11 7 C 11.550781 7 12 6.550781 12 6 C 12 5.449219 11.550781 5 11 5 Z M 11 5 "/>
</g>
</defs>
<g id="surface1">
<use xlink:href="#surface6" transform="matrix(1,0,0,1,0,-1)" mask="url(#mask0)"/>
<path style=" stroke:none;fill-rule:evenodd;fill:rgb(100%,100%,100%);fill-opacity:1;" d="M 11 3 C 9.894531 3 9 3.894531 9 5 C 9 5.933594 9.636719 6.714844 10.5 6.9375 L 10.5 9 L 8 9 L 8 10 L 10.5 10 L 10.5 17.96875 C 7.960938 17.804688 5.75 16.457031 4.40625 14.46875 L 4.59375 14.375 L 5.5 13.875 L 5 13 C 5 13 2 14.625 2 14.625 L 2.5 15.5 L 3.53125 14.9375 C 5.136719 17.371094 7.867188 19 11 19 C 14.132812 19 16.863281 17.371094 18.46875 14.9375 L 19.5 15.5 L 20 14.625 C 20 14.625 17 13 17 13 L 16.5 13.875 L 17.40625 14.375 L 17.59375 14.46875 C 16.25 16.457031 14.039062 17.804688 11.5 17.96875 L 11.5 10 L 14 10 L 14 9 L 11.5 9 L 11.5 6.9375 C 12.363281 6.714844 13 5.933594 13 5 C 13 3.894531 12.105469 3 11 3 Z M 11 4 C 11.550781 4 12 4.449219 12 5 C 12 5.550781 11.550781 6 11 6 C 10.449219 6 10 5.550781 10 5 C 10 4.449219 10.449219 4 11 4 Z M 11 4 "/>
</g>
</svg>
