<?xml version="1.0" encoding="UTF-8"?>
<svg xmlns="http://www.w3.org/2000/svg" xmlns:xlink="http://www.w3.org/1999/xlink" width="7pt" height="7pt" viewBox="0 0 7 7" version="1.1">
<g id="surface1">
<path style=" stroke:none;fill-rule:nonzero;fill:rgb(95.686275%,46.666667%,31.372549%);fill-opacity:1;" d="M 0 0 L 0 7 L 7 7 L 7 0 Z M 3 1 L 4 1 L 4 3 L 6 3 L 6 4 L 4 4 L 4 6 L 3 6 L 3 4 L 1 4 L 1 3 L 3 3 Z M 3 1 "/>
<path style=" stroke:none;fill-rule:nonzero;fill:rgb(100%,100%,100%);fill-opacity:1;" d="M 3 1 L 3 3 L 1 3 L 1 4 L 3 4 L 3 6 L 4 6 L 4 4 L 6 4 L 6 3 L 4 3 L 4 1 Z M 3 1 "/>
</g>
</svg>
