<?xml version="1.0" encoding="UTF-8"?>
<svg xmlns="http://www.w3.org/2000/svg" xmlns:xlink="http://www.w3.org/1999/xlink" width="9pt" height="9pt" viewBox="0 0 9 9" version="1.1">
<g id="surface1">
<path style=" stroke:none;fill-rule:nonzero;fill:rgb(100%,100%,100%);fill-opacity:1;" d="M 9 4.5 C 9 6.984375 6.984375 9 4.5 9 C 2.015625 9 0 6.984375 0 4.5 C 0 2.015625 2.015625 0 4.5 0 C 6.984375 0 9 2.015625 9 4.5 Z M 9 4.5 "/>
<path style=" stroke:none;fill-rule:nonzero;fill:rgb(85.490196%,26.666667%,32.54902%);fill-opacity:1;" d="M 8 4.5 C 8 6.433594 6.433594 8 4.5 8 C 2.566406 8 1 6.433594 1 4.5 C 1 2.566406 2.566406 1 4.5 1 C 6.433594 1 8 2.566406 8 4.5 Z M 8 4.5 "/>
<path style=" stroke:none;fill-rule:nonzero;fill:rgb(100%,100%,100%);fill-opacity:1;" d="M 4 2 L 5 2 L 5 7 L 4 7 Z M 4 2 "/>
<path style=" stroke:none;fill-rule:nonzero;fill:rgb(100%,100%,100%);fill-opacity:1;" d="M 2 4 L 7 4 L 7 5 L 2 5 Z M 2 4 "/>
</g>
</svg>
