<?xml version="1.0" encoding="UTF-8"?>
<svg xmlns="http://www.w3.org/2000/svg" xmlns:xlink="http://www.w3.org/1999/xlink" width="8pt" height="8pt" viewBox="0 0 8 8" version="1.1">
<g id="surface1">
<path style=" stroke:none;fill-rule:nonzero;fill:rgb(93.72549%,94.117647%,94.509804%);fill-opacity:1;" d="M 4 1 C 2.34375 1 1 2.34375 1 4 C 1 5.65625 2.34375 7 4 7 C 5.65625 7 7 5.65625 7 4 C 7 2.34375 5.65625 1 4 1 Z M 4 1 "/>
<path style=" stroke:none;fill-rule:nonzero;fill:rgb(30.196078%,30.196078%,30.196078%);fill-opacity:1;" d="M 4 0 C 1.789062 0 0 1.789062 0 4 C 0 6.210938 1.789062 8 4 8 C 6.210938 8 8 6.210938 8 4 C 8 1.789062 6.210938 0 4 0 Z M 4 1 C 5.65625 1 7 2.34375 7 4 C 7 5.65625 5.65625 7 4 7 C 2.34375 7 1 5.65625 1 4 C 1 2.34375 2.34375 1 4 1 Z M 4 1 "/>
</g>
</svg>
