<?xml version="1.0" encoding="UTF-8"?>
<svg xmlns="http://www.w3.org/2000/svg" xmlns:xlink="http://www.w3.org/1999/xlink" width="28pt" height="28pt" viewBox="0 0 28 28" version="1.1">
<defs>
<linearGradient id="linear0" gradientUnits="userSpaceOnUse" x1="26.21154" y1="43.999989" x2="26.21154" y2="6.999989" gradientTransform="matrix(-0.756757,0,0,0.756757,33.2973,-5.29728)">
<stop offset="0" style="stop-color:rgb(25.882353%,65.098039%,1.176471%);stop-opacity:1;"/>
<stop offset="1" style="stop-color:rgb(47.058824%,85.490196%,2.352941%);stop-opacity:1;"/>
</linearGradient>
<linearGradient id="linear1" gradientUnits="userSpaceOnUse" x1="770.85718" y1="199.93361" x2="770.85718" y2="175.93361" gradientTransform="matrix(1,0,0,1,-688.68387,-174.21249)">
<stop offset="0" style="stop-color:rgb(73.72549%,99.215686%,57.647059%);stop-opacity:1;"/>
<stop offset="1" style="stop-color:rgb(98.039216%,100%,96.078431%);stop-opacity:1;"/>
</linearGradient>
<filter id="alpha" filterUnits="objectBoundingBox" x="0%" y="0%" width="100%" height="100%">
  <feColorMatrix type="matrix" in="SourceGraphic" values="0 0 0 0 1 0 0 0 0 1 0 0 0 0 1 0 0 0 1 0"/>
</filter>
<mask id="mask0">
  <g filter="url(#alpha)">
<rect x="0" y="0" width="28" height="28" style="fill:rgb(0%,0%,0%);fill-opacity:0.2;stroke:none;"/>
  </g>
</mask>
<linearGradient id="linear2" gradientUnits="userSpaceOnUse" x1="9.000011" y1="9" x2="23.000042" y2="23" gradientTransform="matrix(1.244444,0,0,1.076923,-4.04444,-3)">
<stop offset="0" style="stop-color:rgb(16.078431%,17.254902%,18.431373%);stop-opacity:1;"/>
<stop offset="1" style="stop-color:rgb(0%,0%,0%);stop-opacity:0;"/>
</linearGradient>
<clipPath id="clip1">
  <rect width="32" height="32"/>
</clipPath>
<g id="surface6" clip-path="url(#clip1)">
<path style=" stroke:none;fill-rule:nonzero;fill:url(#linear2);" d="M 24 7 L 13 19 L 17 23 L 30 23 L 30 13 Z M 24 7 "/>
</g>
</defs>
<g id="surface1">
<path style=" stroke:none;fill-rule:nonzero;fill:url(#linear0);" d="M 0 0 L 0 21 L 7 21 L 7 28 L 14 21 L 28 21 L 28 0 Z M 0 0 "/>
<path style=" stroke:none;fill-rule:evenodd;fill:rgb(21.176471%,53.72549%,0.784314%);fill-opacity:1;" d="M 0 19.894531 L 0 21 L 7 21 L 7 20 Z M 14 20 L 7 27 L 7 28 L 14 21 L 28 21 L 28 20 Z M 14 20 "/>
<path style=" stroke:none;fill-rule:nonzero;fill:url(#linear1);" d="M 21 4 L 10.855469 15.300781 L 6.707031 10.902344 L 6 11.675781 C 7.648438 13.417969 11 17 11 17 L 22 5 Z M 21 4 "/>
<use xlink:href="#surface6" transform="matrix(1,0,0,1,-2,-2)" mask="url(#mask0)"/>
</g>
</svg>
