<?xml version="1.0" encoding="UTF-8"?>
<svg xmlns="http://www.w3.org/2000/svg" xmlns:xlink="http://www.w3.org/1999/xlink" width="28pt" height="28pt" viewBox="0 0 28 28" version="1.1">
<defs>
<linearGradient id="linear0" gradientUnits="userSpaceOnUse" x1="26.21154" y1="43.999989" x2="26.21154" y2="6.999989" gradientTransform="matrix(-0.756757,0,0,0.756757,33.2973,-5.29728)">
<stop offset="0" style="stop-color:rgb(9.803922%,48.627451%,94.509804%);stop-opacity:1;"/>
<stop offset="1" style="stop-color:rgb(12.54902%,73.72549%,98.039216%);stop-opacity:1;"/>
</linearGradient>
<filter id="alpha" filterUnits="objectBoundingBox" x="0%" y="0%" width="100%" height="100%">
  <feColorMatrix type="matrix" in="SourceGraphic" values="0 0 0 0 1 0 0 0 0 1 0 0 0 0 1 0 0 0 1 0"/>
</filter>
<mask id="mask0">
  <g filter="url(#alpha)">
<rect x="0" y="0" width="28" height="28" style="fill:rgb(0%,0%,0%);fill-opacity:0.2;stroke:none;"/>
  </g>
</mask>
<linearGradient id="linear1" gradientUnits="userSpaceOnUse" x1="9.000011" y1="9" x2="23.000042" y2="23" gradientTransform="matrix(1.076923,0,0,1.076923,-1.76923,-3.92308)">
<stop offset="0" style="stop-color:rgb(16.078431%,17.254902%,18.431373%);stop-opacity:1;"/>
<stop offset="1" style="stop-color:rgb(0%,0%,0%);stop-opacity:0;"/>
</linearGradient>
<clipPath id="clip1">
  <rect width="32" height="32"/>
</clipPath>
<g id="surface6" clip-path="url(#clip1)">
<path style=" stroke:none;fill-rule:nonzero;fill:url(#linear1);" d="M 17 6 L 15 8 L 17 10 L 15 19 L 19 23 L 30 23 L 30 19 Z M 17 6 "/>
</g>
<linearGradient id="linear2" gradientUnits="userSpaceOnUse" x1="16" y1="29.999973" x2="16" y2="2" gradientTransform="matrix(1.076923,0,0,1.076923,-3.76922,-5.92307)">
<stop offset="0" style="stop-color:rgb(48.627451%,72.941176%,97.254902%);stop-opacity:1;"/>
<stop offset="1" style="stop-color:rgb(95.686275%,98.823529%,100%);stop-opacity:1;"/>
</linearGradient>
</defs>
<g id="surface1">
<path style=" stroke:none;fill-rule:nonzero;fill:url(#linear0);" d="M 0 0 L 0 21 L 7 21 L 7 28 L 14 21 L 28 21 L 28 0 Z M 0 0 "/>
<path style=" stroke:none;fill-rule:nonzero;fill:rgb(4.705882%,41.176471%,81.176471%);fill-opacity:1;" d="M 0 19.894531 L 0 21 L 7 21 L 7 20 Z M 14 20 L 7 27 L 7 28 L 14 21 L 28 21 L 28 20 Z M 14 20 "/>
<use xlink:href="#surface6" transform="matrix(1,0,0,1,-2,-2)" mask="url(#mask0)"/>
<path style=" stroke:none;fill-rule:nonzero;fill:url(#linear2);" d="M 13 4 L 13 6 L 15 6 L 15 4 Z M 13 8 L 13 17 L 15 17 L 15 8 Z M 13 8 "/>
</g>
</svg>
