<?xml version="1.0" encoding="UTF-8"?>
<svg xmlns="http://www.w3.org/2000/svg" xmlns:xlink="http://www.w3.org/1999/xlink" width="60pt" height="52pt" viewBox="0 0 60 52" version="1.1">
<defs>
<linearGradient id="linear0" gradientUnits="userSpaceOnUse" x1="16.026314" y1="1046.3621" x2="16.026314" y2="958.36206" gradientTransform="matrix(4.222222,0,0,0.5,-37.666659,-480.18102)">
<stop offset="0" style="stop-color:rgb(13.333333%,65.490196%,94.117647%);stop-opacity:1;"/>
<stop offset="1" style="stop-color:rgb(9.803922%,70.980392%,99.607843%);stop-opacity:1;"/>
</linearGradient>
<linearGradient id="linear1" gradientUnits="userSpaceOnUse" x1="16.026314" y1="1046.3621" x2="16.026314" y2="958.36206" gradientTransform="matrix(4.222222,0,0,0.5,-42.666659,-476.18102)">
<stop offset="0" style="stop-color:rgb(96.470588%,14.117647%,34.901961%);stop-opacity:1;"/>
<stop offset="1" style="stop-color:rgb(96.862745%,21.568627%,40.784314%);stop-opacity:1;"/>
</linearGradient>
</defs>
<g id="surface1">
<rect x="0" y="0" width="60" height="52" style="fill:rgb(100%,100%,100%);fill-opacity:1;stroke:none;"/>
<path style="fill:none;stroke-width:1;stroke-linecap:butt;stroke-linejoin:miter;stroke:rgb(30.196078%,30.196078%,30.196078%);stroke-opacity:1;stroke-miterlimit:4;" d="M 14 1037.3622 L 2 1049.3622 " transform="matrix(1,0,0,1,0,-1000.3622)"/>
<path style=" stroke:none;fill-rule:nonzero;fill:rgb(30.196078%,30.196078%,30.196078%);fill-opacity:1;" d="M 13 37 L 59 37 L 59 37.988281 L 13 37.988281 Z M 13 37 "/>
<path style=" stroke:none;fill-rule:nonzero;fill:rgb(30.196078%,30.196078%,30.196078%);fill-opacity:1;" d="M 13 2 L 14 2 L 14 38 L 13 38 Z M 13 2 "/>
<path style=" stroke:none;fill-rule:evenodd;fill:rgb(38.431373%,75.686275%,95.686275%);fill-opacity:1;" d="M 33 22 L 13 10 L 16 7 L 36 19 Z M 33 22 "/>
<path style=" stroke:none;fill-rule:evenodd;fill:rgb(38.431373%,75.686275%,95.686275%);fill-opacity:1;" d="M 51 13 L 51 43 L 54 40 L 54 10 Z M 51 13 "/>
<path style=" stroke:none;fill-rule:nonzero;fill:url(#linear0);" d="M 13 10 L 33 22 L 51 13 L 51 43 L 13 43 Z M 13 10 "/>
<path style=" stroke:none;fill-rule:evenodd;fill:rgb(97.254902%,33.72549%,49.803922%);fill-opacity:1;" d="M 46 22 L 46 47 L 49 44 L 49 19 Z M 46 22 "/>
<path style=" stroke:none;fill-rule:evenodd;fill:rgb(54.509804%,81.960784%,96.862745%);fill-opacity:1;" d="M 51 13 L 33 22 L 36 19 L 54 10 Z M 51 13 "/>
<path style=" stroke:none;fill-rule:evenodd;fill:rgb(97.254902%,33.72549%,49.803922%);fill-opacity:1;" d="M 28 32 L 8 25 L 11 22 L 31 29 Z M 28 32 "/>
<path style=" stroke:none;fill-rule:nonzero;fill:url(#linear1);" d="M 8 25 L 28 32 L 46 22 L 46 47 L 8 47 Z M 8 25 "/>
<path style=" stroke:none;fill-rule:evenodd;fill:rgb(98.039216%,52.54902%,64.313725%);fill-opacity:1;" d="M 46 22 L 28 32 L 31 29 L 49 19 Z M 46 22 "/>
</g>
</svg>
