<?xml version="1.0" encoding="UTF-8"?>
<svg xmlns="http://www.w3.org/2000/svg" xmlns:xlink="http://www.w3.org/1999/xlink" width="60pt" height="52pt" viewBox="0 0 60 52" version="1.1">
<defs>
<linearGradient id="linear0" gradientUnits="userSpaceOnUse" x1="50" y1="1066.3621" x2="50" y2="1006.3621" gradientTransform="matrix(5,0,0,0.7,-218,-701.45346)">
<stop offset="0" style="stop-color:rgb(13.333333%,65.490196%,94.117647%);stop-opacity:1;"/>
<stop offset="1" style="stop-color:rgb(9.803922%,70.980392%,99.607843%);stop-opacity:1;"/>
</linearGradient>
<linearGradient id="linear1" gradientUnits="userSpaceOnUse" x1="16" y1="1046.3622" x2="16" y2="1009.505" gradientTransform="matrix(5,0,0,1.166667,-53,-1174.7558)">
<stop offset="0" style="stop-color:rgb(96.470588%,14.117647%,34.901961%);stop-opacity:1;"/>
<stop offset="1" style="stop-color:rgb(96.862745%,21.568627%,40.784314%);stop-opacity:1;"/>
</linearGradient>
</defs>
<g id="surface1">
<rect x="0" y="0" width="60" height="52" style="fill:rgb(100%,100%,100%);fill-opacity:1;stroke:none;"/>
<path style=" stroke:none;fill-rule:nonzero;fill:url(#linear0);" d="M 7 4 L 7 25 L 27 19 L 52 31 L 52 4 Z M 7 4 "/>
<path style=" stroke:none;fill-rule:nonzero;fill:url(#linear1);" d="M 7 25 L 27 19 L 52 31 L 52 46 L 7 46 Z M 7 25 "/>
<path style=" stroke:none;fill-rule:nonzero;fill:rgb(30.196078%,30.196078%,30.196078%);fill-opacity:1;" d="M 3 45 L 55 45 L 55 46 L 3 46 Z M 3 45 "/>
<path style=" stroke:none;fill-rule:nonzero;fill:rgb(30.196078%,30.196078%,30.196078%);fill-opacity:1;" d="M 6 3 L 7 3 L 7 49 L 6 49 Z M 6 3 "/>
<path style=" stroke:none;fill-rule:nonzero;fill:rgb(100%,100%,100%);fill-opacity:1;" d="M 44 6 C 42.894531 6 42 6.894531 42 8 C 42 9.105469 42.894531 10 44 10 C 45.105469 10 46 9.105469 46 8 C 46 6.894531 45.105469 6 44 6 Z M 44 7 C 44.550781 7 45 7.449219 45 8 C 45 8.550781 44.550781 9 44 9 C 43.449219 9 43 8.550781 43 8 C 43 7.449219 43.449219 7 44 7 Z M 44 7 "/>
<path style=" stroke:none;fill-rule:nonzero;fill:rgb(100%,100%,100%);fill-opacity:1;" d="M 48 10 C 46.894531 10 46 10.894531 46 12 C 46 13.105469 46.894531 14 48 14 C 49.105469 14 50 13.105469 50 12 C 50 10.894531 49.105469 10 48 10 Z M 48 11 C 48.550781 11 49 11.449219 49 12 C 49 12.550781 48.550781 13 48 13 C 47.449219 13 47 12.550781 47 12 C 47 11.449219 47.449219 11 48 11 Z M 48 11 "/>
<path style=" stroke:none;fill-rule:evenodd;fill:rgb(100%,100%,100%);fill-opacity:1;" d="M 48.601562 5.699219 L 42.601562 13.699219 L 43.398438 14.300781 L 49.398438 6.300781 Z M 48.601562 5.699219 "/>
</g>
</svg>
