<?xml version="1.0" encoding="UTF-8"?>
<svg xmlns="http://www.w3.org/2000/svg" xmlns:xlink="http://www.w3.org/1999/xlink" width="60pt" height="52pt" viewBox="0 0 60 52" version="1.1">
<defs>
<linearGradient id="linear0" gradientUnits="userSpaceOnUse" x1="49.5" y1="1046.3621" x2="49.5" y2="1016.3621" gradientTransform="matrix(0,0.888889,-0.8,0,842.08967,-24)">
<stop offset="0" style="stop-color:rgb(13.333333%,65.490196%,94.117647%);stop-opacity:1;"/>
<stop offset="1" style="stop-color:rgb(9.803922%,70.980392%,99.607843%);stop-opacity:1;"/>
</linearGradient>
<linearGradient id="linear1" gradientUnits="userSpaceOnUse" x1="16.500004" y1="1046.3622" x2="16.500004" y2="1028.3622" gradientTransform="matrix(0,0.888889,-0.833333,0,876.9685,-2.6667)">
<stop offset="0" style="stop-color:rgb(96.470588%,14.117647%,34.901961%);stop-opacity:1;"/>
<stop offset="1" style="stop-color:rgb(96.862745%,21.568627%,40.784314%);stop-opacity:1;"/>
</linearGradient>
<linearGradient id="linear2" gradientUnits="userSpaceOnUse" x1="49.5" y1="1046.3621" x2="49.5" y2="1016.3621" gradientTransform="matrix(0,0.888889,-1.2,0,1260.6345,-3)">
<stop offset="0" style="stop-color:rgb(13.333333%,65.490196%,94.117647%);stop-opacity:1;"/>
<stop offset="1" style="stop-color:rgb(9.803922%,70.980392%,99.607843%);stop-opacity:1;"/>
</linearGradient>
<linearGradient id="linear3" gradientUnits="userSpaceOnUse" x1="16.500004" y1="1046.3622" x2="16.500004" y2="1028.3622" gradientTransform="matrix(0,0.888889,-1.666667,0,1748.937,18.3333)">
<stop offset="0" style="stop-color:rgb(96.470588%,14.117647%,34.901961%);stop-opacity:1;"/>
<stop offset="1" style="stop-color:rgb(96.862745%,21.568627%,40.784314%);stop-opacity:1;"/>
</linearGradient>
</defs>
<g id="surface1">
<rect x="0" y="0" width="60" height="52" style="fill:rgb(100%,100%,100%);fill-opacity:1;stroke:none;"/>
<path style=" stroke:none;fill-rule:evenodd;fill:rgb(30.196078%,30.196078%,30.196078%);fill-opacity:1;" d="M 11.644531 39.644531 L 2.648438 48.644531 L 3.351562 49.351562 L 12.355469 40.351562 Z M 11.644531 39.644531 "/>
<path style=" stroke:none;fill-rule:nonzero;fill:rgb(30.196078%,30.196078%,30.196078%);fill-opacity:1;" d="M 11 40.007812 L 57 40.007812 L 57 40.992188 L 11 40.992188 Z M 11 40.007812 "/>
<path style=" stroke:none;fill-rule:nonzero;fill:rgb(30.196078%,30.196078%,30.196078%);fill-opacity:1;" d="M 9 3 L 10 3 L 10 41 L 9 41 Z M 9 3 "/>
<path style=" stroke:none;fill-rule:evenodd;fill:rgb(98.039216%,52.54902%,64.313725%);fill-opacity:1;" d="M 20 8 L 5 8 L 8 5 L 23 5 Z M 20 8 "/>
<path style=" stroke:none;fill-rule:nonzero;fill:url(#linear0);" d="M 29 16 L 29 24 L 5 24 L 5 16 Z M 29 16 "/>
<path style=" stroke:none;fill-rule:evenodd;fill:rgb(54.509804%,81.960784%,96.862745%);fill-opacity:1;" d="M 41 37 L 32 37 L 35 34 L 44 34 Z M 41 37 "/>
<path style=" stroke:none;fill-rule:evenodd;fill:rgb(38.431373%,75.686275%,95.686275%);fill-opacity:1;" d="M 29 16 L 29 24 L 32 21 L 32 13 Z M 29 16 "/>
<path style=" stroke:none;fill-rule:nonzero;fill:url(#linear1);" d="M 20 8 L 20 16 L 5 16 L 5 8 Z M 20 8 "/>
<path style=" stroke:none;fill-rule:nonzero;fill:url(#linear2);" d="M 41 37 L 41 45 L 5 45 L 5 37 Z M 41 37 "/>
<path style=" stroke:none;fill-rule:evenodd;fill:rgb(38.431373%,75.686275%,95.686275%);fill-opacity:1;" d="M 41 37 L 41 45 L 44 42 L 44 34 Z M 41 37 "/>
<path style=" stroke:none;fill-rule:nonzero;fill:url(#linear3);" d="M 35 29 L 35 37 L 5 37 L 5 29 Z M 35 29 "/>
<path style=" stroke:none;fill-rule:evenodd;fill:rgb(97.254902%,33.72549%,49.803922%);fill-opacity:1;" d="M 20 8 L 20 16 L 23 13 L 23 5 Z M 20 8 "/>
<path style=" stroke:none;fill-rule:evenodd;fill:rgb(97.254902%,33.72549%,49.803922%);fill-opacity:1;" d="M 35 29 L 35 37 L 38 34 L 38 26 Z M 35 29 "/>
<path style=" stroke:none;fill-rule:evenodd;fill:rgb(98.039216%,52.54902%,64.313725%);fill-opacity:1;" d="M 35 29 L 5 29 L 8 26 L 38 26 Z M 35 29 "/>
<path style=" stroke:none;fill-rule:evenodd;fill:rgb(54.509804%,81.960784%,96.862745%);fill-opacity:1;" d="M 29 16 L 20 16 L 23 13 L 32 13 Z M 29 16 "/>
</g>
</svg>
