<?xml version="1.0" encoding="UTF-8"?>
<svg xmlns="http://www.w3.org/2000/svg" xmlns:xlink="http://www.w3.org/1999/xlink" width="60pt" height="52pt" viewBox="0 0 60 52" version="1.1">
<defs>
<linearGradient id="linear0" gradientUnits="userSpaceOnUse" x1="49.5" y1="1046.3621" x2="49.5" y2="1016.3621" gradientTransform="matrix(0,1.333333,-1.1,0,1158.9983,-30.9999)">
<stop offset="0" style="stop-color:rgb(13.333333%,65.490196%,94.117647%);stop-opacity:1;"/>
<stop offset="1" style="stop-color:rgb(9.803922%,70.980392%,99.607843%);stop-opacity:1;"/>
</linearGradient>
<linearGradient id="linear1" gradientUnits="userSpaceOnUse" x1="16.500004" y1="1046.3622" x2="16.500004" y2="1028.3621" gradientTransform="matrix(0,1.333333,-1.166667,0,1224.7558,17)">
<stop offset="0" style="stop-color:rgb(96.470588%,14.117647%,34.901961%);stop-opacity:1;"/>
<stop offset="1" style="stop-color:rgb(96.862745%,21.568627%,40.784314%);stop-opacity:1;"/>
</linearGradient>
<linearGradient id="linear2" gradientUnits="userSpaceOnUse" x1="49.5" y1="1046.3621" x2="49.5" y2="1016.3621" gradientTransform="matrix(0,1.333333,-0.9,0,949.72588,-48.9999)">
<stop offset="0" style="stop-color:rgb(13.333333%,65.490196%,94.117647%);stop-opacity:1;"/>
<stop offset="1" style="stop-color:rgb(9.803922%,70.980392%,99.607843%);stop-opacity:1;"/>
</linearGradient>
<linearGradient id="linear3" gradientUnits="userSpaceOnUse" x1="16.500004" y1="1046.3622" x2="16.500004" y2="1028.3621" gradientTransform="matrix(0,1.333333,-0.5,0,527.18104,-0.99995)">
<stop offset="0" style="stop-color:rgb(96.470588%,14.117647%,34.901961%);stop-opacity:1;"/>
<stop offset="1" style="stop-color:rgb(96.862745%,21.568627%,40.784314%);stop-opacity:1;"/>
</linearGradient>
</defs>
<g id="surface1">
<rect x="0" y="0" width="60" height="52" style="fill:rgb(100%,100%,100%);fill-opacity:1;stroke:none;"/>
<path style="fill:none;stroke-width:1;stroke-linecap:butt;stroke-linejoin:miter;stroke:rgb(30.196078%,30.196078%,30.196078%);stroke-opacity:1;stroke-miterlimit:4;" d="M 14 1037.3621 L 2 1049.3621 " transform="matrix(1,0,0,1,0,-1000.3621)"/>
<path style=" stroke:none;fill-rule:nonzero;fill:rgb(30.196078%,30.196078%,30.196078%);fill-opacity:1;" d="M 13 37 L 59 37 L 59 37.988281 L 13 37.988281 Z M 13 37 "/>
<path style=" stroke:none;fill-rule:nonzero;fill:rgb(30.196078%,30.196078%,30.196078%);fill-opacity:1;" d="M 13 2 L 14 2 L 14 38 L 13 38 Z M 13 2 "/>
<path style=" stroke:none;fill-rule:nonzero;fill:url(#linear0);" d="M 41 29 L 41 41 L 8 41 L 8 29 Z M 41 29 "/>
<path style=" stroke:none;fill-rule:nonzero;fill:url(#linear1);" d="M 25 33 L 25 45 L 4 45 L 4 33 Z M 25 33 "/>
<path style=" stroke:none;fill-rule:nonzero;fill:url(#linear2);" d="M 35 11 L 35 23 L 8 23 L 8 11 Z M 35 11 "/>
<path style=" stroke:none;fill-rule:evenodd;fill:rgb(54.509804%,81.960784%,96.862745%);fill-opacity:1;" d="M 41 29 L 8 29 L 11 26 L 44 26 Z M 41 29 "/>
<path style=" stroke:none;fill-rule:nonzero;fill:url(#linear3);" d="M 13 15 L 13 27 L 4 27 L 4 15 Z M 13 15 "/>
<path style=" stroke:none;fill-rule:evenodd;fill:rgb(98.039216%,52.54902%,64.313725%);fill-opacity:1;" d="M 25 33 L 4 33 L 7 30 L 28 30 Z M 25 33 "/>
<path style=" stroke:none;fill-rule:evenodd;fill:rgb(38.431373%,75.686275%,95.686275%);fill-opacity:1;" d="M 41 29 L 41 41 L 44 38 L 44 26 Z M 41 29 "/>
<path style=" stroke:none;fill-rule:evenodd;fill:rgb(97.254902%,33.72549%,49.803922%);fill-opacity:1;" d="M 25 33 L 25 45 L 28 42 L 28 30 Z M 25 33 "/>
<path style=" stroke:none;fill-rule:evenodd;fill:rgb(98.039216%,52.54902%,64.313725%);fill-opacity:1;" d="M 13 15 L 4 15 L 7 12 L 16 12 Z M 13 15 "/>
<path style=" stroke:none;fill-rule:evenodd;fill:rgb(97.254902%,33.72549%,49.803922%);fill-opacity:1;" d="M 13 15 L 13 27 L 16 24 L 16 12 Z M 13 15 "/>
<path style=" stroke:none;fill-rule:evenodd;fill:rgb(54.509804%,81.960784%,96.862745%);fill-opacity:1;" d="M 35 11 L 8 11 L 11 8 L 38 8 Z M 35 11 "/>
<path style=" stroke:none;fill-rule:evenodd;fill:rgb(38.431373%,75.686275%,95.686275%);fill-opacity:1;" d="M 35 11 L 35 23 L 38 20 L 38 8 Z M 35 11 "/>
</g>
</svg>
