<?xml version="1.0" encoding="UTF-8"?>
<svg xmlns="http://www.w3.org/2000/svg" xmlns:xlink="http://www.w3.org/1999/xlink" width="60pt" height="52pt" viewBox="0 0 60 52" version="1.1">
<defs>
<linearGradient id="linear0" gradientUnits="userSpaceOnUse" x1="16.499928" y1="1046.3622" x2="16.499928" y2="1014.3622" gradientTransform="matrix(0,-0.888889,-1.5,0,1576.5433,44.6666)">
<stop offset="0" style="stop-color:rgb(96.470588%,14.117647%,34.901961%);stop-opacity:1;"/>
<stop offset="1" style="stop-color:rgb(96.862745%,21.568627%,40.784314%);stop-opacity:1;"/>
</linearGradient>
<linearGradient id="linear1" gradientUnits="userSpaceOnUse" x1="49.5" y1="1046.3621" x2="49.5" y2="1006.3621" gradientTransform="matrix(0,-0.888889,-1.2,0,1262.6345,82)">
<stop offset="0" style="stop-color:rgb(13.333333%,65.490196%,94.117647%);stop-opacity:1;"/>
<stop offset="1" style="stop-color:rgb(9.803922%,70.980392%,99.607843%);stop-opacity:1;"/>
</linearGradient>
<linearGradient id="linear2" gradientUnits="userSpaceOnUse" x1="16.500038" y1="1046.3622" x2="16.500038" y2="1010.3621" gradientTransform="matrix(0,-0.888889,-1.333333,0,1402.1495,24.6667)">
<stop offset="0" style="stop-color:rgb(96.470588%,14.117647%,34.901961%);stop-opacity:1;"/>
<stop offset="1" style="stop-color:rgb(96.862745%,21.568627%,40.784314%);stop-opacity:1;"/>
</linearGradient>
<linearGradient id="linear3" gradientUnits="userSpaceOnUse" x1="49.5" y1="1046.3621" x2="49.5" y2="998.36212" gradientTransform="matrix(0,-0.888889,-1,0,1053.3621,62)">
<stop offset="0" style="stop-color:rgb(13.333333%,65.490196%,94.117647%);stop-opacity:1;"/>
<stop offset="1" style="stop-color:rgb(9.803922%,70.980392%,99.607843%);stop-opacity:1;"/>
</linearGradient>
</defs>
<g id="surface1">
<rect x="0" y="0" width="60" height="52" style="fill:rgb(100%,100%,100%);fill-opacity:1;stroke:none;"/>
<path style=" stroke:none;fill-rule:nonzero;fill:url(#linear0);" d="M 34 34 L 34 26 L 7 26 L 7 34 Z M 34 34 "/>
<path style=" stroke:none;fill-rule:nonzero;fill:url(#linear1);" d="M 43 42 L 43 34 L 7 34 L 7 42 Z M 43 42 "/>
<path style=" stroke:none;fill-rule:nonzero;fill:url(#linear2);" d="M 31 14 L 31 6 L 7 6 L 7 14 Z M 31 14 "/>
<path style=" stroke:none;fill-rule:nonzero;fill:url(#linear3);" d="M 37 22 L 37 14 L 7 14 L 7 22 Z M 37 22 "/>
<path style=" stroke:none;fill-rule:nonzero;fill:rgb(30.196078%,30.196078%,30.196078%);fill-opacity:1;" d="M 3 45 L 55 45 L 55 46 L 3 46 Z M 3 45 "/>
<path style=" stroke:none;fill-rule:nonzero;fill:rgb(30.196078%,30.196078%,30.196078%);fill-opacity:1;" d="M 6 3 L 7 3 L 7 49 L 6 49 Z M 6 3 "/>
<path style=" stroke:none;fill-rule:nonzero;fill:rgb(100%,100%,100%);fill-opacity:1;" d="M 10 34 C 8.894531 34 8 34.894531 8 36 C 8 37.105469 8.894531 38 10 38 C 11.105469 38 12 37.105469 12 36 C 12 34.894531 11.105469 34 10 34 Z M 10 35 C 10.550781 35 11 35.449219 11 36 C 11 36.550781 10.550781 37 10 37 C 9.449219 37 9 36.550781 9 36 C 9 35.449219 9.449219 35 10 35 Z M 10 35 "/>
<path style=" stroke:none;fill-rule:nonzero;fill:rgb(100%,100%,100%);fill-opacity:1;" d="M 14 38 C 12.894531 38 12 38.894531 12 40 C 12 41.105469 12.894531 42 14 42 C 15.105469 42 16 41.105469 16 40 C 16 38.894531 15.105469 38 14 38 Z M 14 39 C 14.550781 39 15 39.449219 15 40 C 15 40.550781 14.550781 41 14 41 C 13.449219 41 13 40.550781 13 40 C 13 39.449219 13.449219 39 14 39 Z M 14 39 "/>
<path style=" stroke:none;fill-rule:evenodd;fill:rgb(100%,100%,100%);fill-opacity:1;" d="M 14.601562 33.699219 L 8.601562 41.699219 L 9.398438 42.300781 L 15.398438 34.300781 Z M 14.601562 33.699219 "/>
</g>
</svg>
