<?xml version="1.0" encoding="UTF-8"?>
<svg xmlns="http://www.w3.org/2000/svg" xmlns:xlink="http://www.w3.org/1999/xlink" width="60pt" height="52pt" viewBox="0 0 60 52" version="1.1">
<defs>
<linearGradient id="linear0" gradientUnits="userSpaceOnUse" x1="16" y1="1046.3622" x2="16" y2="994.76221" gradientTransform="matrix(2,0,0,0.833333,-14,-825.96847)">
<stop offset="0" style="stop-color:rgb(96.470588%,14.117647%,34.901961%);stop-opacity:1;"/>
<stop offset="1" style="stop-color:rgb(96.862745%,21.568627%,40.784314%);stop-opacity:1;"/>
</linearGradient>
<linearGradient id="linear1" gradientUnits="userSpaceOnUse" x1="50" y1="1066.3621" x2="50" y2="1006.3621" gradientTransform="matrix(2,0,0,0.7,-80,-701.45346)">
<stop offset="0" style="stop-color:rgb(13.333333%,65.490196%,94.117647%);stop-opacity:1;"/>
<stop offset="1" style="stop-color:rgb(9.803922%,70.980392%,99.607843%);stop-opacity:1;"/>
</linearGradient>
<linearGradient id="linear2" gradientUnits="userSpaceOnUse" x1="16" y1="1046.3622" x2="16" y2="1009.505" gradientTransform="matrix(2,0,0,1.166667,10,-1174.75578)">
<stop offset="0" style="stop-color:rgb(96.470588%,14.117647%,34.901961%);stop-opacity:1;"/>
<stop offset="1" style="stop-color:rgb(96.862745%,21.568627%,40.784314%);stop-opacity:1;"/>
</linearGradient>
<linearGradient id="linear3" gradientUnits="userSpaceOnUse" x1="50" y1="949.69568" x2="50" y2="1089.6957" gradientTransform="matrix(2,0,0,-0.3,-56,329.90872)">
<stop offset="0" style="stop-color:rgb(13.333333%,65.490196%,94.117647%);stop-opacity:1;"/>
<stop offset="1" style="stop-color:rgb(9.803922%,70.980392%,99.607843%);stop-opacity:1;"/>
</linearGradient>
</defs>
<g id="surface1">
<rect x="0" y="0" width="60" height="52" style="fill:rgb(100%,100%,100%);fill-opacity:1;stroke:none;"/>
<path style=" stroke:none;fill-rule:nonzero;fill:url(#linear0);" d="M 10 31 L 28 31 L 28 46 L 10 46 Z M 10 31 "/>
<path style=" stroke:none;fill-rule:nonzero;fill:url(#linear1);" d="M 10 10 L 28 10 L 28 31 L 10 31 Z M 10 10 "/>
<path style=" stroke:none;fill-rule:nonzero;fill:url(#linear2);" d="M 34 25 L 52 25 L 52 46 L 34 46 Z M 34 25 "/>
<path style=" stroke:none;fill-rule:nonzero;fill:url(#linear3);" d="M 34 25 L 52 25 L 52 16 L 34 16 Z M 34 25 "/>
<path style=" stroke:none;fill-rule:nonzero;fill:rgb(30.196078%,30.196078%,30.196078%);fill-opacity:1;" d="M 3 45 L 55 45 L 55 46 L 3 46 Z M 3 45 "/>
<path style=" stroke:none;fill-rule:nonzero;fill:rgb(30.196078%,30.196078%,30.196078%);fill-opacity:1;" d="M 6 3 L 7 3 L 7 49 L 6 49 Z M 6 3 "/>
<path style=" stroke:none;fill-rule:evenodd;fill:rgb(30.196078%,30.196078%,30.196078%);fill-opacity:1;" d="M 18.117188 3.515625 L 17.882812 4.484375 L 42.882812 10.484375 L 43.117188 9.515625 Z M 18.117188 3.515625 "/>
</g>
</svg>
