<?xml version="1.0" encoding="UTF-8"?>
<svg xmlns="http://www.w3.org/2000/svg" xmlns:xlink="http://www.w3.org/1999/xlink" width="60pt" height="52pt" viewBox="0 0 60 52" version="1.1">
<defs>
<linearGradient id="linear0" gradientUnits="userSpaceOnUse" x1="16" y1="1046.3622" x2="16" y2="1017.6956" gradientTransform="matrix(1,0,0,1.5,-2,-1523.5433)">
<stop offset="0" style="stop-color:rgb(96.470588%,14.117647%,34.901961%);stop-opacity:1;"/>
<stop offset="1" style="stop-color:rgb(96.862745%,21.568627%,40.784314%);stop-opacity:1;"/>
</linearGradient>
<linearGradient id="linear1" gradientUnits="userSpaceOnUse" x1="101" y1="959.69543" x2="36" y2="947.19543" gradientTransform="matrix(1,0,0,1.2,-26,-1209.6345)">
<stop offset="0" style="stop-color:rgb(13.333333%,65.490196%,94.117647%);stop-opacity:1;"/>
<stop offset="1" style="stop-color:rgb(9.803922%,70.980392%,99.607843%);stop-opacity:1;"/>
</linearGradient>
<linearGradient id="linear2" gradientUnits="userSpaceOnUse" x1="16" y1="1046.3622" x2="16" y2="1020.5621" gradientTransform="matrix(1,0,0,1.666667,22,-1697.9368)">
<stop offset="0" style="stop-color:rgb(96.470588%,14.117647%,34.901961%);stop-opacity:1;"/>
<stop offset="1" style="stop-color:rgb(96.862745%,21.568627%,40.784314%);stop-opacity:1;"/>
</linearGradient>
<linearGradient id="linear3" gradientUnits="userSpaceOnUse" x1="50" y1="1046.3622" x2="50" y2="984.93353" gradientTransform="matrix(1,0,0,0.7,-2,-686.45346)">
<stop offset="0" style="stop-color:rgb(13.333333%,65.490196%,94.117647%);stop-opacity:1;"/>
<stop offset="1" style="stop-color:rgb(9.803922%,70.980392%,99.607843%);stop-opacity:1;"/>
</linearGradient>
</defs>
<g id="surface1">
<rect x="0" y="0" width="60" height="52" style="fill:rgb(100%,100%,100%);fill-opacity:1;stroke:none;"/>
<path style=" stroke:none;fill-rule:nonzero;fill:url(#linear0);" d="M 10 19 L 19 19 L 19 46 L 10 46 Z M 10 19 "/>
<path style=" stroke:none;fill-rule:nonzero;fill:url(#linear1);" d="M 19 10 L 28 10 L 28 46 L 19 46 Z M 19 10 "/>
<path style=" stroke:none;fill-rule:nonzero;fill:url(#linear2);" d="M 34 16 L 43 16 L 43 46 L 34 46 Z M 34 16 "/>
<path style=" stroke:none;fill-rule:nonzero;fill:url(#linear3);" d="M 43 25 L 52 25 L 52 46 L 43 46 Z M 43 25 "/>
<path style=" stroke:none;fill-rule:nonzero;fill:rgb(30.196078%,30.196078%,30.196078%);fill-opacity:1;" d="M 3 45 L 55 45 L 55 46 L 3 46 Z M 3 45 "/>
<path style=" stroke:none;fill-rule:nonzero;fill:rgb(30.196078%,30.196078%,30.196078%);fill-opacity:1;" d="M 6 3 L 7 3 L 7 49 L 6 49 Z M 6 3 "/>
<path style=" stroke:none;fill-rule:nonzero;fill:rgb(100%,100%,100%);fill-opacity:1;" d="M 45.5 36 C 44.394531 36 43.5 36.894531 43.5 38 C 43.5 39.105469 44.394531 40 45.5 40 C 46.605469 40 47.5 39.105469 47.5 38 C 47.5 36.894531 46.605469 36 45.5 36 Z M 45.5 37 C 46.050781 37 46.5 37.449219 46.5 38 C 46.5 38.550781 46.050781 39 45.5 39 C 44.949219 39 44.5 38.550781 44.5 38 C 44.5 37.449219 44.949219 37 45.5 37 Z M 45.5 37 "/>
<path style=" stroke:none;fill-rule:nonzero;fill:rgb(100%,100%,100%);fill-opacity:1;" d="M 49.5 40 C 48.394531 40 47.5 40.894531 47.5 42 C 47.5 43.105469 48.394531 44 49.5 44 C 50.605469 44 51.5 43.105469 51.5 42 C 51.5 40.894531 50.605469 40 49.5 40 Z M 49.5 41 C 50.050781 41 50.5 41.449219 50.5 42 C 50.5 42.550781 50.050781 43 49.5 43 C 48.949219 43 48.5 42.550781 48.5 42 C 48.5 41.449219 48.949219 41 49.5 41 Z M 49.5 41 "/>
<path style=" stroke:none;fill-rule:evenodd;fill:rgb(100%,100%,100%);fill-opacity:1;" d="M 50.101562 35.699219 L 44.101562 43.699219 L 44.898438 44.300781 L 50.898438 36.300781 Z M 50.101562 35.699219 "/>
</g>
</svg>
