<?xml version="1.0" encoding="UTF-8"?>
<svg xmlns="http://www.w3.org/2000/svg" xmlns:xlink="http://www.w3.org/1999/xlink" width="60pt" height="52pt" viewBox="0 0 60 52" version="1.1">
<defs>
<linearGradient id="linear0" gradientUnits="userSpaceOnUse" x1="15.9375" y1="1046.3622" x2="15.9375" y2="1028.3622" gradientTransform="matrix(1.777778,0,0,0.833333,-11.333333,-825.96848)">
<stop offset="0" style="stop-color:rgb(96.470588%,14.117647%,34.901961%);stop-opacity:1;"/>
<stop offset="1" style="stop-color:rgb(96.862745%,21.568627%,40.784314%);stop-opacity:1;"/>
</linearGradient>
<linearGradient id="linear1" gradientUnits="userSpaceOnUse" x1="15.9375" y1="1046.3622" x2="15.9375" y2="1028.3621" gradientTransform="matrix(1.777778,0,0,1.222222,10.666666,-1233.88694)">
<stop offset="0" style="stop-color:rgb(96.470588%,14.117647%,34.901961%);stop-opacity:1;"/>
<stop offset="1" style="stop-color:rgb(96.862745%,21.568627%,40.784314%);stop-opacity:1;"/>
</linearGradient>
<linearGradient id="linear2" gradientUnits="userSpaceOnUse" x1="50" y1="1046.3622" x2="50.0625" y2="1016.3621" gradientTransform="matrix(1.777778,0,0,0.5,-48,-500.18102)">
<stop offset="0" style="stop-color:rgb(13.333333%,65.490196%,94.117647%);stop-opacity:1;"/>
<stop offset="1" style="stop-color:rgb(9.803922%,70.980392%,99.607843%);stop-opacity:1;"/>
</linearGradient>
<linearGradient id="linear3" gradientUnits="userSpaceOnUse" x1="50.0625" y1="1046.3621" x2="50.0625" y2="1016.3621" gradientTransform="matrix(1.777778,0,0,0.766667,-70,-771.2109)">
<stop offset="0" style="stop-color:rgb(13.333333%,65.490196%,94.117647%);stop-opacity:1;"/>
<stop offset="1" style="stop-color:rgb(9.803922%,70.980392%,99.607843%);stop-opacity:1;"/>
</linearGradient>
</defs>
<g id="surface1">
<rect x="0" y="0" width="60" height="52" style="fill:rgb(100%,100%,100%);fill-opacity:1;stroke:none;"/>
<path style="fill:none;stroke-width:1;stroke-linecap:butt;stroke-linejoin:miter;stroke:rgb(30.196078%,30.196078%,30.196078%);stroke-opacity:1;stroke-miterlimit:4;" d="M 12 1040.3622 L 3 1049.3622 " transform="matrix(1,0,0,1,0,-1000.3622)"/>
<path style=" stroke:none;fill-rule:nonzero;fill:rgb(30.196078%,30.196078%,30.196078%);fill-opacity:1;" d="M 11 40.007812 L 57 40.007812 L 57 40.992188 L 11 40.992188 Z M 11 40.007812 "/>
<path style=" stroke:none;fill-rule:nonzero;fill:rgb(30.196078%,30.196078%,30.196078%);fill-opacity:1;" d="M 11 3 L 12 3 L 12 41 L 11 41 Z M 11 3 "/>
<path style=" stroke:none;fill-rule:nonzero;fill:url(#linear0);" d="M 10 31 L 26 31 L 26 46 L 10 46 Z M 10 31 "/>
<path style=" stroke:none;fill-rule:nonzero;fill:url(#linear1);" d="M 32 23 L 48 23 L 48 45 L 32 45 Z M 32 23 "/>
<path style=" stroke:none;fill-rule:nonzero;fill:url(#linear2);" d="M 32 8 L 48 8 L 48 23 L 32 23 Z M 32 8 "/>
<path style=" stroke:none;fill-rule:nonzero;fill:url(#linear3);" d="M 10 8 L 26 8 L 26 31 L 10 31 Z M 10 8 "/>
<path style=" stroke:none;fill-rule:evenodd;fill:rgb(54.509804%,81.960784%,96.862745%);fill-opacity:1;" d="M 26 8 L 10 8 L 14 5 L 29 5 Z M 26 8 "/>
<path style=" stroke:none;fill-rule:evenodd;fill:rgb(54.509804%,81.960784%,96.862745%);fill-opacity:1;" d="M 48 8 L 32 8 L 35 5 L 51 5 Z M 48 8 "/>
<path style=" stroke:none;fill-rule:evenodd;fill:rgb(38.431373%,75.686275%,95.686275%);fill-opacity:1;" d="M 26 8 L 26 31 L 29 28 L 29 5 Z M 26 8 "/>
<path style=" stroke:none;fill-rule:evenodd;fill:rgb(38.431373%,75.686275%,95.686275%);fill-opacity:1;" d="M 48 8 L 48 23 L 51 20 L 51 5 Z M 48 8 "/>
<path style=" stroke:none;fill-rule:evenodd;fill:rgb(97.254902%,33.72549%,49.803922%);fill-opacity:1;" d="M 48 23 L 48 45 L 51 42 L 51 20 Z M 48 23 "/>
<path style=" stroke:none;fill-rule:evenodd;fill:rgb(97.254902%,33.72549%,49.803922%);fill-opacity:1;" d="M 26 31 L 26 46 L 29 43 L 29 28 Z M 26 31 "/>
<path style=" stroke:none;fill-rule:nonzero;fill:rgb(100%,100%,100%);fill-opacity:1;" d="M 38 11.5 C 36.894531 11.5 36 12.394531 36 13.5 C 36 14.605469 36.894531 15.5 38 15.5 C 39.105469 15.5 40 14.605469 40 13.5 C 40 12.394531 39.105469 11.5 38 11.5 Z M 38 12.5 C 38.550781 12.5 39 12.949219 39 13.5 C 39 14.050781 38.550781 14.5 38 14.5 C 37.449219 14.5 37 14.050781 37 13.5 C 37 12.949219 37.449219 12.5 38 12.5 Z M 38 12.5 "/>
<path style=" stroke:none;fill-rule:nonzero;fill:rgb(100%,100%,100%);fill-opacity:1;" d="M 42 15.5 C 40.894531 15.5 40 16.394531 40 17.5 C 40 18.605469 40.894531 19.5 42 19.5 C 43.105469 19.5 44 18.605469 44 17.5 C 44 16.394531 43.105469 15.5 42 15.5 Z M 42 16.5 C 42.550781 16.5 43 16.949219 43 17.5 C 43 18.050781 42.550781 18.5 42 18.5 C 41.449219 18.5 41 18.050781 41 17.5 C 41 16.949219 41.449219 16.5 42 16.5 Z M 42 16.5 "/>
<path style=" stroke:none;fill-rule:evenodd;fill:rgb(100%,100%,100%);fill-opacity:1;" d="M 42.601562 11.199219 L 36.601562 19.199219 L 37.398438 19.800781 L 43.398438 11.800781 Z M 42.601562 11.199219 "/>
</g>
</svg>
