<?xml version="1.0" encoding="UTF-8"?>
<svg xmlns="http://www.w3.org/2000/svg" xmlns:xlink="http://www.w3.org/1999/xlink" width="60pt" height="52pt" viewBox="0 0 60 52" version="1.1">
<defs>
<linearGradient id="linear0" gradientUnits="userSpaceOnUse" x1="15.9375" y1="1046.3622" x2="15.9375" y2="1028.3622" gradientTransform="matrix(1.777778,0,0,0.833333,-11.33333,-825.96846)">
<stop offset="0" style="stop-color:rgb(96.470588%,14.117647%,34.901961%);stop-opacity:1;"/>
<stop offset="1" style="stop-color:rgb(96.862745%,21.568627%,40.784314%);stop-opacity:1;"/>
</linearGradient>
<linearGradient id="linear1" gradientUnits="userSpaceOnUse" x1="15.9375" y1="1046.3622" x2="15.9375" y2="1028.3621" gradientTransform="matrix(1.777778,0,0,0.5,10.66667,-478.181)">
<stop offset="0" style="stop-color:rgb(96.470588%,14.117647%,34.901961%);stop-opacity:1;"/>
<stop offset="1" style="stop-color:rgb(96.862745%,21.568627%,40.784314%);stop-opacity:1;"/>
</linearGradient>
<linearGradient id="linear2" gradientUnits="userSpaceOnUse" x1="50" y1="1046.3622" x2="50.0625" y2="1016.3621" gradientTransform="matrix(1.777778,0,0,0.5,-48,-487.181)">
<stop offset="0" style="stop-color:rgb(13.333333%,65.490196%,94.117647%);stop-opacity:1;"/>
<stop offset="1" style="stop-color:rgb(9.803922%,70.980392%,99.607843%);stop-opacity:1;"/>
</linearGradient>
<linearGradient id="linear3" gradientUnits="userSpaceOnUse" x1="50.0625" y1="1046.3621" x2="50.0625" y2="1016.3621" gradientTransform="matrix(1.777778,0,0,0.6,-70,-596.81721)">
<stop offset="0" style="stop-color:rgb(13.333333%,65.490196%,94.117647%);stop-opacity:1;"/>
<stop offset="1" style="stop-color:rgb(9.803922%,70.980392%,99.607843%);stop-opacity:1;"/>
</linearGradient>
</defs>
<g id="surface1">
<rect x="0" y="0" width="60" height="52" style="fill:rgb(100%,100%,100%);fill-opacity:1;stroke:none;"/>
<path style="fill:none;stroke-width:1;stroke-linecap:butt;stroke-linejoin:miter;stroke:rgb(30.196078%,30.196078%,30.196078%);stroke-opacity:1;stroke-miterlimit:4;" d="M 72 720.36218 L 63 729.36218 " transform="matrix(1,0,0,1,-60,-680.36218)"/>
<path style=" stroke:none;fill-rule:nonzero;fill:rgb(30.196078%,30.196078%,30.196078%);fill-opacity:1;" d="M 11 40.007812 L 57 40.007812 L 57 40.992188 L 11 40.992188 Z M 11 40.007812 "/>
<path style=" stroke:none;fill-rule:nonzero;fill:rgb(30.196078%,30.196078%,30.196078%);fill-opacity:1;" d="M 11 3 L 12 3 L 12 41 L 11 41 Z M 11 3 "/>
<path style=" stroke:none;fill-rule:nonzero;fill:url(#linear0);" d="M 10 31 L 26 31 L 26 46 L 10 46 Z M 10 31 "/>
<path style=" stroke:none;fill-rule:nonzero;fill:url(#linear1);" d="M 32 36 L 48 36 L 48 45 L 32 45 Z M 32 36 "/>
<path style=" stroke:none;fill-rule:nonzero;fill:url(#linear2);" d="M 32 21 L 48 21 L 48 36 L 32 36 Z M 32 21 "/>
<path style=" stroke:none;fill-rule:nonzero;fill:url(#linear3);" d="M 10 13 L 26 13 L 26 31 L 10 31 Z M 10 13 "/>
<path style=" stroke:none;fill-rule:evenodd;fill:rgb(54.509804%,81.960784%,96.862745%);fill-opacity:1;" d="M 26 13 L 10 13 L 14 10 L 29 10 Z M 26 13 "/>
<path style=" stroke:none;fill-rule:evenodd;fill:rgb(54.509804%,81.960784%,96.862745%);fill-opacity:1;" d="M 48 21 L 32 21 L 35 18 L 51 18 Z M 48 21 "/>
<path style=" stroke:none;fill-rule:evenodd;fill:rgb(38.431373%,75.686275%,95.686275%);fill-opacity:1;" d="M 26 13 L 26 31 L 29 28 L 29 10 Z M 26 13 "/>
<path style=" stroke:none;fill-rule:evenodd;fill:rgb(38.431373%,75.686275%,95.686275%);fill-opacity:1;" d="M 48 21 L 48 36 L 51 33 L 51 18 Z M 48 21 "/>
<path style=" stroke:none;fill-rule:evenodd;fill:rgb(97.254902%,33.72549%,49.803922%);fill-opacity:1;" d="M 48 36 L 48 45 L 51 42 L 51 33 Z M 48 36 "/>
<path style=" stroke:none;fill-rule:evenodd;fill:rgb(97.254902%,33.72549%,49.803922%);fill-opacity:1;" d="M 26 31 L 26 46 L 29 43 L 29 28 Z M 26 31 "/>
</g>
</svg>
