<?xml version="1.0" encoding="UTF-8"?>
<svg xmlns="http://www.w3.org/2000/svg" xmlns:xlink="http://www.w3.org/1999/xlink" width="60pt" height="52pt" viewBox="0 0 60 52" version="1.1">
<defs>
<linearGradient id="linear0" gradientUnits="userSpaceOnUse" x1="8" y1="1043.8622" x2="26" y2="1043.8622" gradientTransform="matrix(0.888889,0,0,0.521207,7.888904,-510.02074)">
<stop offset="0" style="stop-color:rgb(13.333333%,65.490196%,94.117647%);stop-opacity:1;"/>
<stop offset="1" style="stop-color:rgb(38.431373%,75.686275%,95.686275%);stop-opacity:1;"/>
</linearGradient>
<linearGradient id="linear1" gradientUnits="userSpaceOnUse" x1="8" y1="1043.8622" x2="26" y2="1043.8622" gradientTransform="matrix(0.888889,0,0,0.521207,5.888901,-504.01919)">
<stop offset="0" style="stop-color:rgb(96.470588%,14.117647%,34.901961%);stop-opacity:1;"/>
<stop offset="1" style="stop-color:rgb(97.254902%,33.72549%,49.803922%);stop-opacity:1;"/>
</linearGradient>
<linearGradient id="linear2" gradientUnits="userSpaceOnUse" x1="8" y1="1043.8622" x2="26" y2="1043.8622" gradientTransform="matrix(0.888889,0,0,0.521207,30.888747,-510.02075)">
<stop offset="0" style="stop-color:rgb(13.333333%,65.490196%,94.117647%);stop-opacity:1;"/>
<stop offset="1" style="stop-color:rgb(38.431373%,75.686275%,95.686275%);stop-opacity:1;"/>
</linearGradient>
<linearGradient id="linear3" gradientUnits="userSpaceOnUse" x1="8" y1="1043.8622" x2="26" y2="1043.8622" gradientTransform="matrix(0.888889,0,0,0.521207,28.888841,-504.04517)">
<stop offset="0" style="stop-color:rgb(96.470588%,14.117647%,34.901961%);stop-opacity:1;"/>
<stop offset="1" style="stop-color:rgb(97.254902%,33.72549%,49.803922%);stop-opacity:1;"/>
</linearGradient>
</defs>
<g id="surface1">
<rect x="0" y="0" width="60" height="52" style="fill:rgb(100%,100%,100%);fill-opacity:1;stroke:none;"/>
<path style="fill:none;stroke-width:1;stroke-linecap:butt;stroke-linejoin:miter;stroke:rgb(30.196078%,30.196078%,30.196078%);stroke-opacity:1;stroke-miterlimit:4;" d="M 14 1037.3622 L 2 1049.3622 " transform="matrix(1,0,0,1,0,-1000.3622)"/>
<path style=" stroke:none;fill-rule:nonzero;fill:rgb(30.196078%,30.196078%,30.196078%);fill-opacity:1;" d="M 13 37 L 59 37 L 59 37.988281 L 13 37.988281 Z M 13 37 "/>
<path style=" stroke:none;fill-rule:nonzero;fill:rgb(30.196078%,30.196078%,30.196078%);fill-opacity:1;" d="M 13 2 L 14 2 L 14 38 L 13 38 Z M 13 2 "/>
<path style=" stroke:none;fill-rule:nonzero;fill:url(#linear0);" d="M 15 39 L 15 39.027344 L 15 39 C 15.03125 41.195312 18.605469 43 23 43 C 27.398438 43 30.96875 41.222656 31 39.023438 L 31 39 L 23 17 Z M 15 39 "/>
<path style=" stroke:none;fill-rule:nonzero;fill:url(#linear1);" d="M 21 33 L 13 45 L 13 45.027344 L 13.003906 45.027344 C 13.003906 45.140625 13.019531 45.253906 13.042969 45.367188 C 13.050781 45.421875 13.066406 45.480469 13.082031 45.535156 C 13.101562 45.609375 13.125 45.683594 13.152344 45.757812 C 13.171875 45.8125 13.195312 45.867188 13.222656 45.917969 C 13.261719 46 13.300781 46.078125 13.351562 46.160156 C 13.378906 46.203125 13.40625 46.25 13.441406 46.292969 C 13.492188 46.375 13.550781 46.453125 13.617188 46.53125 C 13.660156 46.582031 13.703125 46.632812 13.753906 46.683594 C 13.8125 46.75 13.878906 46.816406 13.945312 46.878906 C 14 46.929688 14.058594 46.984375 14.121094 47.035156 C 14.203125 47.101562 14.285156 47.171875 14.375 47.238281 C 14.429688 47.277344 14.488281 47.316406 14.550781 47.359375 C 14.640625 47.421875 14.734375 47.484375 14.832031 47.542969 C 14.914062 47.59375 14.996094 47.640625 15.085938 47.6875 C 15.179688 47.738281 15.277344 47.792969 15.382812 47.84375 C 15.460938 47.882812 15.539062 47.917969 15.625 47.957031 C 15.742188 48.007812 15.859375 48.0625 15.984375 48.113281 C 16.066406 48.144531 16.148438 48.175781 16.234375 48.207031 C 16.359375 48.253906 16.492188 48.300781 16.628906 48.347656 C 16.722656 48.375 16.816406 48.40625 16.914062 48.433594 C 17.042969 48.472656 17.171875 48.507812 17.308594 48.546875 C 17.421875 48.574219 17.539062 48.601562 17.65625 48.628906 C 17.773438 48.65625 17.890625 48.683594 18.007812 48.707031 C 18.132812 48.734375 18.261719 48.757812 18.390625 48.777344 C 18.523438 48.800781 18.65625 48.824219 18.792969 48.84375 C 18.90625 48.859375 19.023438 48.871094 19.140625 48.886719 C 19.285156 48.902344 19.429688 48.917969 19.574219 48.933594 C 19.683594 48.941406 19.792969 48.949219 19.90625 48.957031 C 20.054688 48.96875 20.203125 48.976562 20.351562 48.984375 C 20.566406 48.992188 20.785156 49 21 49 C 21.226562 49 21.449219 48.988281 21.675781 48.984375 C 21.820312 48.972656 21.960938 48.96875 22.105469 48.957031 C 22.226562 48.945312 22.347656 48.941406 22.46875 48.929688 C 22.601562 48.917969 22.730469 48.902344 22.863281 48.886719 C 23 48.867188 23.132812 48.851562 23.265625 48.832031 C 23.367188 48.816406 23.472656 48.800781 23.574219 48.78125 C 23.726562 48.757812 23.878906 48.730469 24.027344 48.699219 C 24.132812 48.675781 24.238281 48.652344 24.34375 48.628906 C 24.472656 48.601562 24.605469 48.566406 24.734375 48.535156 C 24.851562 48.503906 24.96875 48.46875 25.082031 48.433594 C 25.195312 48.402344 25.304688 48.367188 25.410156 48.332031 C 25.527344 48.292969 25.640625 48.253906 25.75 48.210938 C 25.855469 48.175781 25.960938 48.132812 26.0625 48.09375 C 26.160156 48.050781 26.261719 48.007812 26.359375 47.964844 C 26.457031 47.917969 26.558594 47.875 26.65625 47.824219 C 26.746094 47.777344 26.839844 47.726562 26.925781 47.679688 C 27.019531 47.628906 27.105469 47.578125 27.191406 47.527344 C 27.265625 47.480469 27.339844 47.433594 27.410156 47.382812 C 27.503906 47.320312 27.59375 47.257812 27.679688 47.195312 C 27.730469 47.15625 27.78125 47.113281 27.832031 47.070312 C 27.921875 47 28.003906 46.925781 28.082031 46.851562 C 28.128906 46.808594 28.175781 46.761719 28.21875 46.714844 C 28.289062 46.640625 28.355469 46.566406 28.421875 46.488281 C 28.457031 46.441406 28.492188 46.390625 28.523438 46.34375 C 28.578125 46.269531 28.632812 46.191406 28.675781 46.113281 C 28.707031 46.058594 28.734375 46.007812 28.757812 45.953125 C 28.796875 45.878906 28.832031 45.804688 28.859375 45.730469 C 28.878906 45.675781 28.898438 45.617188 28.910156 45.558594 C 28.9375 45.480469 28.953125 45.402344 28.96875 45.324219 C 28.984375 45.222656 28.996094 45.125 28.996094 45.023438 L 29 45.023438 L 28.996094 45.015625 L 29 45.003906 L 21 33.003906 Z M 21 33 "/>
<path style=" stroke:none;fill-rule:nonzero;fill:url(#linear2);" d="M 38 39 L 38 39.027344 L 38.003906 39.027344 C 38.03125 41.226562 41.605469 43 46 43 C 50.398438 43 53.96875 41.222656 54 39.027344 L 54 39 L 47 9 C 47 9 38 39 38 39 Z M 38 39 "/>
<path style=" stroke:none;fill-rule:nonzero;fill:url(#linear3);" d="M 36 44.976562 L 36 45 L 36.003906 45 C 36.03125 47.199219 39.601562 48.976562 44 48.976562 C 48.398438 48.976562 51.96875 47.199219 52 45 L 52 44.976562 L 44 29 C 44 29 36 45 36 44.976562 Z M 36 44.976562 "/>
</g>
</svg>
