<?xml version="1.0" encoding="UTF-8"?>
<svg xmlns="http://www.w3.org/2000/svg" xmlns:xlink="http://www.w3.org/1999/xlink" width="60pt" height="52pt" viewBox="0 0 60 52" version="1.1">
<defs>
<linearGradient id="linear0" gradientUnits="userSpaceOnUse" x1="11" y1="34" x2="30" y2="34" gradientTransform="matrix(0,0.925902,-1,0,51,-5.14688)">
<stop offset="0" style="stop-color:rgb(96.470588%,14.117647%,34.901961%);stop-opacity:1;"/>
<stop offset="1" style="stop-color:rgb(97.254902%,33.72549%,49.803922%);stop-opacity:1;"/>
</linearGradient>
<linearGradient id="linear1" gradientUnits="userSpaceOnUse" x1="11" y1="34" x2="30" y2="34" gradientTransform="matrix(0,0.925902,-1,0,51,15.223)">
<stop offset="0" style="stop-color:rgb(96.470588%,14.117647%,34.901961%);stop-opacity:1;"/>
<stop offset="1" style="stop-color:rgb(97.254902%,33.72549%,49.803922%);stop-opacity:1;"/>
</linearGradient>
<linearGradient id="linear2" gradientUnits="userSpaceOnUse" x1="11" y1="34" x2="30" y2="34" gradientTransform="matrix(0,0.925902,-1,0,51,15.223)">
<stop offset="0" style="stop-color:rgb(13.333333%,65.490196%,94.117647%);stop-opacity:1;"/>
<stop offset="1" style="stop-color:rgb(38.431373%,75.686275%,95.686275%);stop-opacity:1;"/>
</linearGradient>
<linearGradient id="linear3" gradientUnits="userSpaceOnUse" x1="11" y1="34" x2="30" y2="34" gradientTransform="matrix(0,0.925902,-1,0,51,-5.14688)">
<stop offset="0" style="stop-color:rgb(13.333333%,65.490196%,94.117647%);stop-opacity:1;"/>
<stop offset="1" style="stop-color:rgb(38.431373%,75.686275%,95.686275%);stop-opacity:1;"/>
</linearGradient>
</defs>
<g id="surface1">
<rect x="0" y="0" width="60" height="52" style="fill:rgb(100%,100%,100%);fill-opacity:1;stroke:none;"/>
<path style=" stroke:none;fill-rule:evenodd;fill:rgb(30.196078%,30.196078%,30.196078%);fill-opacity:1;" d="M 11.644531 39.644531 L 2.648438 48.644531 L 3.351562 49.351562 L 12.355469 40.351562 Z M 11.644531 39.644531 "/>
<path style=" stroke:none;fill-rule:nonzero;fill:rgb(30.196078%,30.196078%,30.196078%);fill-opacity:1;" d="M 11 40.007812 L 57 40.007812 L 57 40.992188 L 11 40.992188 Z M 11 40.007812 "/>
<path style=" stroke:none;fill-rule:nonzero;fill:rgb(30.196078%,30.196078%,30.196078%);fill-opacity:1;" d="M 11 3 L 12 3 L 12 41 L 11 41 Z M 11 3 "/>
<path style=" stroke:none;fill-rule:nonzero;fill:url(#linear0);" d="M 32 14.5 L 8 5.039062 C 5.953125 4.230469 4 8.976562 4 13.835938 C 4 18.691406 5.789062 22.628906 8 22.628906 Z M 32 14.5 "/>
<path style=" stroke:none;fill-rule:nonzero;fill:url(#linear1);" d="M 43 34.667969 L 8 25.40625 C 5.875 24.84375 4 29.347656 4 34.203125 C 4 39.0625 5.789062 43 8 43 Z M 43 34.667969 "/>
<path style=" stroke:none;fill-rule:nonzero;fill:url(#linear2);" d="M 53 34.667969 L 21 28.828125 L 21 28.816406 C 19.34375 28.816406 18 31.074219 18 34.351562 C 18 37.632812 19.34375 39.941406 21 39.941406 Z M 53 34.667969 "/>
<path style=" stroke:none;fill-rule:nonzero;fill:url(#linear3);" d="M 53 14.5 L 14 7.363281 L 14 7.34375 C 13.976562 7.34375 13.949219 7.308594 13.925781 7.308594 C 12.269531 7.308594 10.925781 9.773438 10.925781 13.914062 C 10.925781 18.050781 12.359375 20.625 14.015625 20.625 C 14.039062 19.824219 13.996094 20.617188 13.976562 20.617188 L 14 20.636719 Z M 53 14.5 "/>
<path style=" stroke:none;fill-rule:nonzero;fill:rgb(100%,100%,100%);fill-opacity:1;" d="M 9.5 31 C 8.394531 31 7.5 31.894531 7.5 33 C 7.5 34.105469 8.394531 35 9.5 35 C 10.605469 35 11.5 34.105469 11.5 33 C 11.5 31.894531 10.605469 31 9.5 31 Z M 9.5 32 C 10.050781 32 10.5 32.449219 10.5 33 C 10.5 33.550781 10.050781 34 9.5 34 C 8.949219 34 8.5 33.550781 8.5 33 C 8.5 32.449219 8.949219 32 9.5 32 Z M 9.5 32 "/>
<path style=" stroke:none;fill-rule:nonzero;fill:rgb(100%,100%,100%);fill-opacity:1;" d="M 13.5 35 C 12.394531 35 11.5 35.894531 11.5 37 C 11.5 38.105469 12.394531 39 13.5 39 C 14.605469 39 15.5 38.105469 15.5 37 C 15.5 35.894531 14.605469 35 13.5 35 Z M 13.5 36 C 14.050781 36 14.5 36.449219 14.5 37 C 14.5 37.550781 14.050781 38 13.5 38 C 12.949219 38 12.5 37.550781 12.5 37 C 12.5 36.449219 12.949219 36 13.5 36 Z M 13.5 36 "/>
<path style=" stroke:none;fill-rule:evenodd;fill:rgb(100%,100%,100%);fill-opacity:1;" d="M 14.101562 30.699219 L 8.101562 38.699219 L 8.898438 39.300781 L 14.898438 31.300781 Z M 14.101562 30.699219 "/>
</g>
</svg>
