<?xml version="1.0" encoding="UTF-8"?>
<svg xmlns="http://www.w3.org/2000/svg" xmlns:xlink="http://www.w3.org/1999/xlink" width="60pt" height="52pt" viewBox="0 0 60 52" version="1.1">
<defs>
<linearGradient id="linear0" gradientUnits="userSpaceOnUse" x1="45" y1="1032.1954" x2="54" y2="1032.1954" gradientTransform="matrix(1.111111,0,0,1.2,-39.000002,-1203.6345)">
<stop offset="0" style="stop-color:rgb(96.470588%,14.117647%,34.901961%);stop-opacity:1;"/>
<stop offset="1" style="stop-color:rgb(97.254902%,33.72549%,49.803922%);stop-opacity:1;"/>
</linearGradient>
<linearGradient id="linear1" gradientUnits="userSpaceOnUse" x1="45" y1="1032.1954" x2="54" y2="1032.1954" gradientTransform="matrix(1.111111,0,0,1.2,-14,-1203.6345)">
<stop offset="0" style="stop-color:rgb(96.470588%,14.117647%,34.901961%);stop-opacity:1;"/>
<stop offset="1" style="stop-color:rgb(97.254902%,33.72549%,49.803922%);stop-opacity:1;"/>
</linearGradient>
<linearGradient id="linear2" gradientUnits="userSpaceOnUse" x1="45" y1="1032.1954" x2="54" y2="1032.1954" gradientTransform="matrix(1.111111,0,0,1.2,-4,-1203.6345)">
<stop offset="0" style="stop-color:rgb(13.333333%,65.490196%,94.117647%);stop-opacity:1;"/>
<stop offset="1" style="stop-color:rgb(38.431373%,75.686275%,95.686275%);stop-opacity:1;"/>
</linearGradient>
<linearGradient id="linear3" gradientUnits="userSpaceOnUse" x1="45" y1="1032.1954" x2="54" y2="1032.1954" gradientTransform="matrix(1.111111,0,0,1.2,-29.000002,-1203.6345)">
<stop offset="0" style="stop-color:rgb(13.333333%,65.490196%,94.117647%);stop-opacity:1;"/>
<stop offset="1" style="stop-color:rgb(38.431373%,75.686275%,95.686275%);stop-opacity:1;"/>
</linearGradient>
</defs>
<g id="surface1">
<rect x="0" y="0" width="60" height="52" style="fill:rgb(100%,100%,100%);fill-opacity:1;stroke:none;"/>
<path style="fill:none;stroke-width:1;stroke-linecap:butt;stroke-linejoin:miter;stroke:rgb(30.196078%,30.196078%,30.196078%);stroke-opacity:1;stroke-miterlimit:4;" d="M 12 1040.3622 L 3 1049.3622 " transform="matrix(1,0,0,1,0,-1000.3622)"/>
<path style=" stroke:none;fill-rule:nonzero;fill:rgb(30.196078%,30.196078%,30.196078%);fill-opacity:1;" d="M 11 40.007812 L 57 40.007812 L 57 40.992188 L 11 40.992188 Z M 11 40.007812 "/>
<path style=" stroke:none;fill-rule:nonzero;fill:rgb(30.196078%,30.196078%,30.196078%);fill-opacity:1;" d="M 11 3 L 12 3 L 12 41 L 11 41 Z M 11 3 "/>
<path style=" stroke:none;fill-rule:nonzero;fill:url(#linear0);" d="M 16 24 L 11.042969 42.75 C 11.015625 42.832031 11 42.917969 11 43 C 11 44.105469 13.238281 45 16 45 C 18.761719 45 21 44.105469 21 43 C 20.996094 42.917969 20.984375 42.835938 20.957031 42.753906 Z M 16 24 "/>
<path style=" stroke:none;fill-rule:nonzero;fill:url(#linear1);" d="M 41 14 L 36.046875 42.75 C 36.015625 42.832031 36 42.917969 36 43 C 36 44.105469 38.238281 45 41 45 C 43.761719 45 46 44.105469 46 43 C 45.996094 42.917969 45.984375 42.835938 45.957031 42.753906 Z M 41 14 "/>
<path style=" stroke:none;fill-rule:nonzero;fill:url(#linear2);" d="M 51 5 L 46.046875 42.75 C 46.015625 42.832031 46 42.917969 46 43 C 46 44.105469 48.238281 45 51 45 C 53.761719 45 56 44.105469 56 43 C 55.996094 42.917969 55.984375 42.835938 55.957031 42.753906 Z M 51 5 "/>
<path style=" stroke:none;fill-rule:nonzero;fill:url(#linear3);" d="M 26 17 L 21.042969 42.75 C 21.015625 42.832031 21 42.917969 21 43 C 21 44.105469 23.238281 45 26 45 C 28.761719 45 31 44.105469 31 43 C 30.996094 42.917969 30.984375 42.835938 30.957031 42.753906 Z M 26 17 "/>
</g>
</svg>
