<?xml version="1.0" encoding="UTF-8"?>
<svg xmlns="http://www.w3.org/2000/svg" xmlns:xlink="http://www.w3.org/1999/xlink" width="60pt" height="52pt" viewBox="0 0 60 52" version="1.1">
<defs>
<linearGradient id="linear0" gradientUnits="userSpaceOnUse" x1="11" y1="34" x2="30" y2="34" >
<stop offset="0" style="stop-color:rgb(96.470588%,14.117647%,34.901961%);stop-opacity:1;"/>
<stop offset="1" style="stop-color:rgb(97.254902%,33.72549%,49.803922%);stop-opacity:1;"/>
</linearGradient>
<linearGradient id="linear1" gradientUnits="userSpaceOnUse" x1="33" y1="1034.3622" x2="52" y2="1034.3622" gradientTransform="matrix(1,0,0,1,0,-1000.3622)">
<stop offset="0" style="stop-color:rgb(96.470588%,14.117647%,34.901961%);stop-opacity:1;"/>
<stop offset="1" style="stop-color:rgb(97.254902%,33.72549%,49.803922%);stop-opacity:1;"/>
</linearGradient>
<linearGradient id="linear2" gradientUnits="userSpaceOnUse" x1="33" y1="1034.3622" x2="52" y2="1034.3622" gradientTransform="matrix(1,0,0,1,0,-1000.3622)">
<stop offset="0" style="stop-color:rgb(13.333333%,65.490196%,94.117647%);stop-opacity:1;"/>
<stop offset="1" style="stop-color:rgb(38.431373%,75.686275%,95.686275%);stop-opacity:1;"/>
</linearGradient>
<linearGradient id="linear3" gradientUnits="userSpaceOnUse" x1="11" y1="34" x2="30" y2="34" >
<stop offset="0" style="stop-color:rgb(13.333333%,65.490196%,94.117647%);stop-opacity:1;"/>
<stop offset="1" style="stop-color:rgb(38.431373%,75.686275%,95.686275%);stop-opacity:1;"/>
</linearGradient>
</defs>
<g id="surface1">
<rect x="0" y="0" width="60" height="52" style="fill:rgb(100%,100%,100%);fill-opacity:1;stroke:none;"/>
<path style=" stroke:none;fill-rule:nonzero;fill:rgb(30.196078%,30.196078%,30.196078%);fill-opacity:1;" d="M 11 40.007812 L 57 40.007812 L 57 40.992188 L 11 40.992188 Z M 11 40.007812 "/>
<path style="fill:none;stroke-width:1;stroke-linecap:butt;stroke-linejoin:miter;stroke:rgb(30.196078%,30.196078%,30.196078%);stroke-opacity:1;stroke-miterlimit:4;" d="M 12 1040.3622 L 3 1049.3622 " transform="matrix(1,0,0,1,0,-1000.3622)"/>
<path style=" stroke:none;fill-rule:nonzero;fill:rgb(30.196078%,30.196078%,30.196078%);fill-opacity:1;" d="M 11 3 L 12 3 L 12 41 L 11 41 Z M 11 3 "/>
<path style=" stroke:none;fill-rule:nonzero;fill:url(#linear0);" d="M 21 3 L 11 43 C 10.464844 45.144531 15.253906 47 20.5 47 C 25.746094 47 30 45.210938 30 43 Z M 21 3 "/>
<path style=" stroke:none;fill-rule:nonzero;fill:url(#linear1);" d="M 43 3 L 33 43 C 32.464844 45.144531 37.253906 47 42.5 47 C 47.746094 47 52 45.210938 52 43 Z M 43 3 "/>
<path style=" stroke:none;fill-rule:nonzero;fill:url(#linear2);" d="M 43 3 L 36.25 30 L 36.246094 30 C 36.246094 31.65625 39.117188 33 42.660156 33 C 46.203125 33 49.070312 31.65625 49.070312 30 L 49.074219 30 Z M 43 3 "/>
<path style=" stroke:none;fill-rule:nonzero;fill:rgb(100%,100%,100%);fill-opacity:1;" d="M 40.480469 37 C 39.375 37 38.480469 37.894531 38.480469 39 C 38.480469 40.105469 39.375 41 40.480469 41 C 41.585938 41 42.480469 40.105469 42.480469 39 C 42.480469 37.894531 41.585938 37 40.480469 37 Z M 40.480469 38 C 41.03125 38 41.480469 38.449219 41.480469 39 C 41.480469 39.550781 41.03125 40 40.480469 40 C 39.925781 40 39.480469 39.550781 39.480469 39 C 39.480469 38.449219 39.925781 38 40.480469 38 Z M 40.480469 38 "/>
<path style=" stroke:none;fill-rule:nonzero;fill:rgb(100%,100%,100%);fill-opacity:1;" d="M 44.480469 41 C 43.375 41 42.480469 41.894531 42.480469 43 C 42.480469 44.105469 43.375 45 44.480469 45 C 45.585938 45 46.480469 44.105469 46.480469 43 C 46.480469 41.894531 45.585938 41 44.480469 41 Z M 44.480469 42 C 45.03125 42 45.480469 42.449219 45.480469 43 C 45.480469 43.550781 45.03125 44 44.480469 44 C 43.925781 44 43.480469 43.550781 43.480469 43 C 43.480469 42.449219 43.925781 42 44.480469 42 Z M 44.480469 42 "/>
<path style=" stroke:none;fill-rule:evenodd;fill:rgb(100%,100%,100%);fill-opacity:1;" d="M 45.078125 36.699219 L 39.078125 44.699219 L 39.878906 45.300781 L 45.878906 37.300781 Z M 45.078125 36.699219 "/>
<path style=" stroke:none;fill-rule:nonzero;fill:url(#linear3);" d="M 21 3 L 12.5 37 L 12.503906 37 C 12.5 37.023438 12.496094 37.050781 12.496094 37.074219 C 12.496094 38.730469 16.117188 40.074219 20.589844 40.074219 C 25.058594 40.074219 28.683594 38.730469 28.683594 37.074219 C 28.683594 37.050781 28.679688 37.023438 28.675781 37 L 28.652344 37 Z M 21 3 "/>
</g>
</svg>
