<?xml version="1.0" encoding="UTF-8"?>
<svg xmlns="http://www.w3.org/2000/svg" xmlns:xlink="http://www.w3.org/1999/xlink" width="60pt" height="52pt" viewBox="0 0 60 52" version="1.1">
<defs>
<linearGradient id="linear0" gradientUnits="userSpaceOnUse" x1="8" y1="1043.8622" x2="26" y2="1043.8622" gradientTransform="matrix(0.888889,0,0,0.521207,8.888904,-510.02074)">
<stop offset="0" style="stop-color:rgb(13.333333%,65.490196%,94.117647%);stop-opacity:1;"/>
<stop offset="1" style="stop-color:rgb(38.431373%,75.686275%,95.686275%);stop-opacity:1;"/>
</linearGradient>
<linearGradient id="linear1" gradientUnits="userSpaceOnUse" x1="8" y1="1043.8622" x2="26" y2="1043.8622" gradientTransform="matrix(0.888889,0,0,0.521207,4.888901,-504.01919)">
<stop offset="0" style="stop-color:rgb(96.470588%,14.117647%,34.901961%);stop-opacity:1;"/>
<stop offset="1" style="stop-color:rgb(97.254902%,33.72549%,49.803922%);stop-opacity:1;"/>
</linearGradient>
<linearGradient id="linear2" gradientUnits="userSpaceOnUse" x1="8" y1="1043.8622" x2="26" y2="1043.8622" gradientTransform="matrix(0.888889,0,0,0.521207,31.888747,-510.02075)">
<stop offset="0" style="stop-color:rgb(13.333333%,65.490196%,94.117647%);stop-opacity:1;"/>
<stop offset="1" style="stop-color:rgb(38.431373%,75.686275%,95.686275%);stop-opacity:1;"/>
</linearGradient>
<linearGradient id="linear3" gradientUnits="userSpaceOnUse" x1="8" y1="1043.8622" x2="26" y2="1043.8622" gradientTransform="matrix(0.888889,0,0,0.521207,27.886888,-504.04517)">
<stop offset="0" style="stop-color:rgb(96.470588%,14.117647%,34.901961%);stop-opacity:1;"/>
<stop offset="1" style="stop-color:rgb(97.254902%,33.72549%,49.803922%);stop-opacity:1;"/>
</linearGradient>
</defs>
<g id="surface1">
<rect x="0" y="0" width="60" height="52" style="fill:rgb(100%,100%,100%);fill-opacity:1;stroke:none;"/>
<path style="fill:none;stroke-width:1;stroke-linecap:butt;stroke-linejoin:miter;stroke:rgb(30.196078%,30.196078%,30.196078%);stroke-opacity:1;stroke-miterlimit:4;" d="M 14 1037.3622 L 2 1049.3622 " transform="matrix(1,0,0,1,0,-1000.3622)"/>
<path style=" stroke:none;fill-rule:nonzero;fill:rgb(30.196078%,30.196078%,30.196078%);fill-opacity:1;" d="M 13 37 L 59 37 L 59 37.988281 L 13 37.988281 Z M 13 37 "/>
<path style=" stroke:none;fill-rule:nonzero;fill:rgb(30.196078%,30.196078%,30.196078%);fill-opacity:1;" d="M 13 2 L 14 2 L 14 38 L 13 38 Z M 13 2 "/>
<path style=" stroke:none;fill-rule:nonzero;fill:url(#linear0);" d="M 16 17 C 16 17.003906 16 17.007812 16 17.015625 C 16 17.019531 16 17.023438 16 17.027344 L 16 25 C 16 25.003906 16 25.007812 16 25.015625 C 16 25.019531 16 25.023438 16 25.027344 L 16 31 C 16 31.003906 16 31.011719 16 31.015625 C 16 31.019531 16 31.023438 16 31.027344 L 16 33 C 16 33.003906 16 33.007812 16 33.015625 C 16 33.019531 16 33.023438 16 33.027344 L 16 39 C 16 39.007812 16 39.011719 16 39.015625 C 16 39.019531 16 39.023438 16 39.027344 C 16.03125 41.226562 19.605469 43 24 43 C 28.398438 43 31.96875 41.222656 32 39.027344 C 32 39.019531 32 39.015625 32 39.011719 C 32 39.007812 32 39.003906 32 39 L 32 17 Z M 16 17 "/>
<path style=" stroke:none;fill-rule:nonzero;fill:url(#linear1);" d="M 12 37 L 12 45 C 12 45.003906 12 45.007812 12 45.015625 C 12 45.019531 12 45.023438 12 45.027344 L 12.003906 45.027344 C 12.03125 47.222656 15.601562 49 20 49 C 24.398438 49 27.96875 47.222656 28 45.027344 C 28 45.019531 28 45.015625 28 45.011719 C 28 45.007812 28 45.003906 28 45 L 28 37 Z M 12 37 "/>
<path style=" stroke:none;fill-rule:nonzero;fill:rgb(54.509804%,81.960784%,96.862745%);fill-opacity:1;" d="M 32 17 C 32 14.789062 28.417969 13 24 13 C 19.582031 13 16 14.789062 16 17 C 16 19.207031 19.582031 21 24 21 C 28.417969 21 32 19.207031 32 17 Z M 32 17 "/>
<path style=" stroke:none;fill-rule:nonzero;fill:rgb(98.039216%,52.54902%,64.313725%);fill-opacity:1;" d="M 28 37 C 28 34.789062 24.417969 33 20 33 C 15.582031 33 12 34.789062 12 37 C 12 39.210938 15.582031 41 20 41 C 24.417969 41 28 39.210938 28 37 Z M 28 37 "/>
<path style=" stroke:none;fill-rule:nonzero;fill:url(#linear2);" d="M 39 9 L 39 16.996094 C 39 17.003906 39 17.007812 39 17.015625 C 39 17.019531 39 17.023438 39 17.027344 L 39 25 C 39 25.003906 39 25.011719 39 25.015625 C 39 25.019531 39 25.023438 39 25.027344 L 39 31 C 39 31.003906 39 31.011719 39 31.015625 C 39 31.019531 39 31.023438 39 31.027344 L 39 39 C 39 39.007812 39 39.011719 39 39.015625 C 39 39.019531 39 39.023438 39 39.027344 L 39.003906 39.027344 C 39.03125 41.226562 42.605469 43 47 43 C 51.398438 43 54.96875 41.222656 55 39.027344 C 55 39.019531 55 39.015625 55 39.011719 C 55 39.007812 55 39.003906 55 39 L 55 9 Z M 39 9 "/>
<path style=" stroke:none;fill-rule:nonzero;fill:url(#linear3);" d="M 35 28.972656 L 35 36.972656 C 34.996094 36.980469 34.996094 36.984375 35 36.988281 C 34.996094 36.992188 34.996094 36.996094 35 37 L 35 44.976562 C 34.996094 44.980469 34.996094 44.984375 35 44.988281 C 34.996094 44.992188 34.996094 44.996094 35 45 C 35.027344 47.199219 38.601562 48.976562 43 48.976562 C 47.394531 48.976562 50.96875 47.199219 50.996094 45 L 51 45 C 50.996094 44.996094 50.996094 44.992188 50.996094 44.988281 C 50.996094 44.984375 50.996094 44.980469 51 44.976562 L 51 28.976562 L 35 28.976562 Z M 35 28.972656 "/>
<path style=" stroke:none;fill-rule:nonzero;fill:rgb(54.509804%,81.960784%,96.862745%);fill-opacity:1;" d="M 55 9 C 55 6.789062 51.417969 5 47 5 C 42.582031 5 39 6.789062 39 9 C 39 11.207031 42.582031 13 47 13 C 51.417969 13 55 11.207031 55 9 Z M 55 9 "/>
<path style=" stroke:none;fill-rule:nonzero;fill:rgb(98.039216%,52.54902%,64.313725%);fill-opacity:1;" d="M 50.996094 28.972656 C 50.996094 26.765625 47.417969 24.972656 42.996094 24.972656 C 38.578125 24.972656 34.996094 26.765625 34.996094 28.972656 C 34.996094 31.183594 38.578125 32.972656 42.996094 32.972656 C 47.417969 32.972656 50.996094 31.183594 50.996094 28.972656 Z M 50.996094 28.972656 "/>
</g>
</svg>
