<?xml version="1.0" encoding="UTF-8"?>
<svg xmlns="http://www.w3.org/2000/svg" xmlns:xlink="http://www.w3.org/1999/xlink" width="60pt" height="52pt" viewBox="0 0 60 52" version="1.1">
<defs>
<radialGradient id="radial0" gradientUnits="userSpaceOnUse" cx="30" cy="1026.3622" fx="30" fy="1026.3622" r="23" gradientTransform="matrix(1,0,0,1,0,-1000.3622)">
<stop offset="0" style="stop-color:rgb(13.333333%,65.490196%,94.117647%);stop-opacity:1;"/>
<stop offset="1" style="stop-color:rgb(9.803922%,70.980392%,99.607843%);stop-opacity:1;"/>
</radialGradient>
<radialGradient id="radial1" gradientUnits="userSpaceOnUse" cx="30" cy="1026.3622" fx="30" fy="1026.3622" r="14" gradientTransform="matrix(1,0,0,1,0,-1000.3622)">
<stop offset="0" style="stop-color:rgb(96.470588%,14.117647%,34.901961%);stop-opacity:1;"/>
<stop offset="1" style="stop-color:rgb(96.862745%,21.568627%,40.784314%);stop-opacity:1;"/>
</radialGradient>
<radialGradient id="radial2" gradientUnits="userSpaceOnUse" cx="30" cy="-31.107422" fx="30" fy="-31.107422" r="9.892578" gradientTransform="matrix(1.415202,-0.00000009,0.00000009,1.415202,-12.45607,70.0233)">
<stop offset="0" style="stop-color:rgb(13.333333%,65.490196%,94.117647%);stop-opacity:1;"/>
<stop offset="1" style="stop-color:rgb(9.803922%,70.980392%,99.607843%);stop-opacity:1;"/>
</radialGradient>
<radialGradient id="radial3" gradientUnits="userSpaceOnUse" cx="30" cy="21.246092" fx="30" fy="21.246092" r="16.253906" gradientTransform="matrix(-1.415045,0,0,-1.415044,72.45133,56.0642)">
<stop offset="0" style="stop-color:rgb(96.470588%,14.117647%,34.901961%);stop-opacity:1;"/>
<stop offset="1" style="stop-color:rgb(96.862745%,21.568627%,40.784314%);stop-opacity:1;"/>
</radialGradient>
</defs>
<g id="surface1">
<rect x="0" y="0" width="60" height="52" style="fill:rgb(100%,100%,100%);fill-opacity:1;stroke:none;"/>
<path style=" stroke:none;fill-rule:nonzero;fill:url(#radial0);" d="M 30 3 C 17.296875 3 7 13.296875 7 26 C 7 38.703125 17.296875 49 30 49 C 42.703125 49 53 38.703125 53 26 C 53 13.296875 42.703125 3 30 3 Z M 30 12 C 37.730469 12 44 18.269531 44 26 C 44 33.730469 37.730469 40 30 40 C 22.269531 40 16 33.730469 16 26 C 16 18.269531 22.269531 12 30 12 Z M 30 12 "/>
<path style=" stroke:none;fill-rule:nonzero;fill:url(#radial1);" d="M 20.8125 16.8125 C 18.375 19.25 17.003906 22.554688 17 26 C 17 33.179688 22.820312 39 30 39 C 37.179688 39 43 33.179688 43 26 C 42.996094 22.554688 41.625 19.25 39.1875 16.8125 L 33.53125 22.46875 C 34.472656 23.402344 35 24.675781 35 26 C 35 28.761719 32.761719 31 30 31 C 27.238281 31 25 28.761719 25 26 C 25 24.675781 25.527344 23.402344 26.46875 22.46875 Z M 18.425781 18.148438 C 18.398438 18.1875 18.371094 18.222656 18.347656 18.261719 C 18.371094 18.222656 18.398438 18.183594 18.425781 18.148438 Z M 17.78125 19.207031 C 17.730469 19.292969 17.675781 19.378906 17.625 19.46875 C 17.675781 19.378906 17.726562 19.292969 17.78125 19.207031 Z M 17.210938 20.34375 C 17.15625 20.472656 17.09375 20.601562 17.039062 20.730469 C 17.09375 20.601562 17.152344 20.472656 17.210938 20.34375 Z M 16.730469 21.59375 C 16.679688 21.742188 16.625 21.890625 16.582031 22.039062 C 16.628906 21.890625 16.675781 21.742188 16.730469 21.59375 Z M 16.375 22.859375 C 16.332031 23.042969 16.285156 23.222656 16.25 23.40625 C 16.289062 23.222656 16.332031 23.042969 16.375 22.859375 Z M 16.136719 24.183594 C 16.109375 24.386719 16.078125 24.589844 16.0625 24.792969 C 16.082031 24.589844 16.105469 24.386719 16.136719 24.183594 Z M 43.9375 27.203125 C 43.917969 27.449219 43.886719 27.691406 43.851562 27.9375 C 43.882812 27.691406 43.917969 27.449219 43.9375 27.203125 Z M 43.75 28.578125 C 43.699219 28.84375 43.640625 29.113281 43.574219 29.378906 C 43.636719 29.113281 43.703125 28.847656 43.75 28.578125 Z M 16.28125 28.78125 C 16.363281 29.203125 16.472656 29.613281 16.59375 30.023438 C 16.472656 29.613281 16.367188 29.199219 16.28125 28.78125 Z M 16.59375 30.023438 C 16.625 30.121094 16.660156 30.21875 16.691406 30.316406 C 16.660156 30.21875 16.625 30.121094 16.59375 30.023438 Z M 16.691406 30.316406 C 16.796875 30.640625 16.910156 30.960938 17.039062 31.277344 C 16.910156 30.960938 16.796875 30.640625 16.691406 30.316406 Z M 17.039062 31.277344 C 17.078125 31.371094 17.113281 31.464844 17.152344 31.558594 C 17.113281 31.464844 17.078125 31.371094 17.039062 31.277344 Z M 17.152344 31.558594 C 17.324219 31.949219 17.507812 32.335938 17.710938 32.710938 C 17.507812 32.335938 17.320312 31.949219 17.152344 31.558594 Z M 43.4375 29.898438 C 43.351562 30.1875 43.257812 30.480469 43.148438 30.765625 C 43.253906 30.480469 43.355469 30.191406 43.4375 29.898438 Z M 42.992188 31.199219 C 42.875 31.488281 42.746094 31.773438 42.605469 32.058594 C 42.742188 31.773438 42.875 31.492188 42.992188 31.199219 Z M 42.414062 32.460938 C 42.273438 32.722656 42.128906 32.976562 41.972656 33.230469 C 42.125 32.976562 42.277344 32.722656 42.414062 32.460938 Z M 17.738281 32.753906 C 17.953125 33.140625 18.183594 33.519531 18.433594 33.886719 C 18.183594 33.519531 17.953125 33.140625 17.738281 32.753906 Z M 41.703125 33.671875 C 41.550781 33.898438 41.394531 34.121094 41.226562 34.335938 C 41.390625 34.117188 41.554688 33.902344 41.703125 33.671875 Z M 18.589844 34.097656 C 18.804688 34.394531 19.023438 34.691406 19.257812 34.96875 C 19.023438 34.6875 18.800781 34.398438 18.589844 34.097656 Z M 40.882812 34.792969 C 40.710938 35.007812 40.527344 35.214844 40.339844 35.414062 C 40.527344 35.210938 40.710938 35.007812 40.882812 34.792969 Z M 19.574219 35.320312 C 19.773438 35.542969 19.972656 35.769531 20.1875 35.980469 C 19.976562 35.765625 19.773438 35.546875 19.574219 35.320312 Z M 39.980469 35.8125 C 39.765625 36.023438 39.546875 36.226562 39.320312 36.425781 C 39.542969 36.226562 39.769531 36.027344 39.980469 35.8125 Z M 20.582031 36.339844 C 20.789062 36.527344 20.992188 36.710938 21.207031 36.886719 C 20.992188 36.710938 20.785156 36.527344 20.582031 36.339844 Z M 38.96875 36.746094 C 38.6875 36.976562 38.398438 37.199219 38.097656 37.40625 C 38.394531 37.195312 38.691406 36.976562 38.96875 36.746094 Z M 21.664062 37.226562 C 21.882812 37.390625 22.097656 37.554688 22.324219 37.703125 C 22.101562 37.550781 21.878906 37.394531 21.664062 37.226562 Z M 37.886719 37.566406 C 37.519531 37.816406 37.140625 38.046875 36.75 38.261719 C 37.140625 38.046875 37.519531 37.816406 37.886719 37.566406 Z M 22.769531 37.972656 C 23.023438 38.125 23.277344 38.277344 23.539062 38.414062 C 23.277344 38.273438 23.023438 38.128906 22.769531 37.972656 Z M 36.710938 38.289062 C 36.335938 38.492188 35.949219 38.679688 35.554688 38.84375 C 35.949219 38.675781 36.335938 38.492188 36.710938 38.289062 Z M 35.554688 38.84375 C 35.464844 38.886719 35.371094 38.921875 35.273438 38.960938 C 35.371094 38.921875 35.464844 38.886719 35.554688 38.84375 Z M 35.273438 38.960938 C 34.960938 39.089844 34.640625 39.203125 34.316406 39.308594 C 34.640625 39.203125 34.960938 39.089844 35.273438 38.960938 Z M 34.316406 39.308594 C 34.21875 39.339844 34.121094 39.375 34.019531 39.40625 C 34.121094 39.375 34.21875 39.339844 34.316406 39.308594 Z M 34.019531 39.40625 C 33.613281 39.527344 33.199219 39.632812 32.78125 39.722656 C 33.203125 39.636719 33.613281 39.527344 34.019531 39.40625 Z M 23.945312 38.609375 C 24.226562 38.742188 24.507812 38.875 24.800781 38.992188 C 24.511719 38.875 24.226562 38.746094 23.945312 38.609375 Z M 25.234375 39.152344 C 25.519531 39.253906 25.808594 39.355469 26.105469 39.441406 C 25.8125 39.351562 25.519531 39.257812 25.234375 39.152344 Z M 26.621094 39.574219 C 26.886719 39.636719 27.152344 39.703125 27.425781 39.753906 C 27.15625 39.699219 26.886719 39.640625 26.621094 39.574219 Z M 28.0625 39.851562 C 28.308594 39.882812 28.550781 39.917969 28.800781 39.941406 C 28.550781 39.917969 28.308594 39.886719 28.0625 39.851562 Z M 28.0625 39.851562 "/>
<path style=" stroke:none;fill-rule:nonzero;fill:url(#radial2);" d="M 31.105469 12.046875 C 31.269531 12.066406 31.4375 12.085938 31.605469 12.109375 C 31.4375 12.085938 31.269531 12.066406 31.105469 12.046875 Z M 32.515625 12.234375 C 32.652344 12.261719 32.789062 12.292969 32.925781 12.328125 C 32.789062 12.292969 32.652344 12.261719 32.515625 12.234375 Z M 33.875 12.554688 C 34 12.59375 34.125 12.636719 34.25 12.679688 C 34.125 12.636719 34 12.59375 33.875 12.554688 Z M 30 13 C 26.554688 13.003906 23.25 14.375 20.8125 16.8125 L 26.46875 22.46875 C 27.402344 21.527344 28.675781 21 30 21 C 31.324219 21 32.597656 21.527344 33.53125 22.46875 L 39.1875 16.8125 C 36.75 14.375 33.445312 13.003906 30 13 Z M 35.226562 13.019531 C 35.296875 13.050781 35.371094 13.082031 35.441406 13.117188 C 35.371094 13.082031 35.296875 13.050781 35.226562 13.019531 Z M 36.488281 13.601562 C 36.566406 13.644531 36.640625 13.6875 36.714844 13.730469 C 36.640625 13.6875 36.566406 13.644531 36.488281 13.601562 Z M 36.488281 13.601562 "/>
<path style=" stroke:none;fill-rule:evenodd;fill:url(#radial3);" d="M 20.105469 35.894531 L 13.746094 42.253906 C 13.75 42.257812 13.75 42.261719 13.753906 42.265625 C 14.25 42.753906 14.765625 43.222656 15.304688 43.667969 C 15.359375 43.71875 15.417969 43.769531 15.480469 43.820312 C 16.003906 44.246094 16.546875 44.644531 17.105469 45.023438 C 17.179688 45.078125 17.257812 45.132812 17.335938 45.1875 C 17.859375 45.527344 18.398438 45.847656 18.949219 46.144531 C 19.078125 46.222656 19.207031 46.296875 19.339844 46.371094 C 19.851562 46.632812 20.375 46.875 20.90625 47.101562 C 21.085938 47.183594 21.261719 47.261719 21.445312 47.339844 C 21.945312 47.535156 22.457031 47.714844 22.972656 47.875 C 23.191406 47.949219 23.410156 48.023438 23.632812 48.09375 C 24.121094 48.226562 24.609375 48.34375 25.105469 48.445312 C 25.363281 48.507812 25.621094 48.566406 25.882812 48.621094 C 26.359375 48.703125 26.839844 48.765625 27.320312 48.816406 C 27.605469 48.855469 27.894531 48.890625 28.183594 48.921875 C 28.785156 48.972656 29.394531 49 30 49.003906 C 36.050781 48.996094 41.859375 46.601562 46.160156 42.34375 C 46.191406 42.316406 46.222656 42.285156 46.253906 42.257812 L 39.894531 35.894531 C 37.269531 38.519531 33.710938 39.996094 30 40 C 26.289062 39.996094 22.730469 38.519531 20.109375 35.894531 Z M 20.105469 35.894531 "/>
</g>
</svg>
