<?xml version="1.0" encoding="UTF-8"?>
<svg xmlns="http://www.w3.org/2000/svg" xmlns:xlink="http://www.w3.org/1999/xlink" width="60pt" height="52pt" viewBox="0 0 60 52" version="1.1">
<defs>
<linearGradient id="linear0" gradientUnits="userSpaceOnUse" x1="18.748123" y1="1014.938492" x2="47.0625" y2="1021.567618" gradientTransform="matrix(1,0,0,1,0,-1000.3622)">
<stop offset="0" style="stop-color:rgb(54.509804%,81.960784%,96.862745%);stop-opacity:1;"/>
<stop offset="1" style="stop-color:rgb(38.431373%,75.686275%,95.686275%);stop-opacity:1;"/>
</linearGradient>
<linearGradient id="linear1" gradientUnits="userSpaceOnUse" x1="54.897167" y1="1034.593344" x2="25.655069" y2="1041.752798" gradientTransform="matrix(1,0,0,1,0,-1000.3622)">
<stop offset="0" style="stop-color:rgb(97.254902%,33.72549%,49.803922%);stop-opacity:1;"/>
<stop offset="1" style="stop-color:rgb(98.039216%,52.54902%,64.313725%);stop-opacity:1;"/>
</linearGradient>
<radialGradient id="radial0" gradientUnits="userSpaceOnUse" cx="30" cy="-34" fx="30" fy="-34" r="14" gradientTransform="matrix(1,0,0,0.935315,0,56.3217)">
<stop offset="0" style="stop-color:rgb(96.470588%,14.117647%,34.901961%);stop-opacity:1;"/>
<stop offset="1" style="stop-color:rgb(96.862745%,21.568627%,40.784314%);stop-opacity:1;"/>
</radialGradient>
<radialGradient id="radial1" gradientUnits="userSpaceOnUse" cx="30" cy="-31.107422" fx="30" fy="-31.107422" r="9.892578" gradientTransform="matrix(1.415202,-0.00000009,0.00000009,1.32366,-12.45607,65.6967)">
<stop offset="0" style="stop-color:rgb(13.333333%,65.490196%,94.117647%);stop-opacity:1;"/>
<stop offset="1" style="stop-color:rgb(9.803922%,70.980392%,99.607843%);stop-opacity:1;"/>
</radialGradient>
<radialGradient id="radial2" gradientUnits="userSpaceOnUse" cx="30" cy="26" fx="30" fy="26" r="23" gradientTransform="matrix(0.444999,0.837604,-0.895531,0.416214,41.92627,-11.43656)">
<stop offset="0" style="stop-color:rgb(13.333333%,65.490196%,94.117647%);stop-opacity:1;"/>
<stop offset="1" style="stop-color:rgb(9.803922%,70.980392%,99.607843%);stop-opacity:1;"/>
</radialGradient>
<radialGradient id="radial3" gradientUnits="userSpaceOnUse" cx="30" cy="21.246092" fx="30" fy="21.246092" r="16.253906" gradientTransform="matrix(-0.720794,-1.138939,1.217705,-0.67417,23.7718,73.0351)">
<stop offset="0" style="stop-color:rgb(96.470588%,14.117647%,34.901961%);stop-opacity:1;"/>
<stop offset="1" style="stop-color:rgb(96.862745%,21.568627%,40.784314%);stop-opacity:1;"/>
</radialGradient>
</defs>
<g id="surface1">
<rect x="0" y="0" width="60" height="52" style="fill:rgb(100%,100%,100%);fill-opacity:1;stroke:none;"/>
<path style=" stroke:none;fill-rule:nonzero;fill:url(#linear0);" d="M 32.03125 10.125 C 25.859375 10.125 20.316406 13.703125 18.050781 19.144531 L 18.039062 19.144531 L 18.039062 22.226562 C 18.050781 22.203125 18.058594 22.175781 18.070312 22.152344 L 18.148438 22.175781 C 19.527344 19.039062 22.074219 16.46875 25.320312 14.953125 C 32.738281 11.503906 41.738281 14.335938 45.425781 21.273438 C 46.214844 22.804688 46.59375 24.226562 46.96875 25.925781 C 47.03125 25.410156 47.0625 24.894531 47.0625 24.378906 C 47.0625 16.507812 40.332031 10.128906 32.03125 10.128906 Z M 32.03125 10.125 "/>
<path style=" stroke:none;fill-rule:nonzero;fill:rgb(38.431373%,75.686275%,95.686275%);fill-opacity:1;" d="M 10.59375 16.777344 C 10.59375 16.777344 10.554688 19.828125 10.5625 19.789062 L 17.234375 21.886719 C 17.078125 22.707031 17 23.539062 17 24.375 C 17.003906 24.859375 17.035156 25.34375 17.09375 25.828125 C 17.242188 24.59375 17.5625 23.382812 18.042969 22.222656 L 18.042969 19.140625 Z M 10.59375 16.777344 "/>
<path style=" stroke:none;fill-rule:nonzero;fill:url(#linear1);" d="M 54.964844 25.179688 C 54.703125 33.101562 49.808594 40.246094 42.226562 43.777344 C 37.074219 46.15625 31.160156 46.644531 25.640625 45.148438 L 25.640625 47.832031 C 27.855469 48.5625 30.171875 48.933594 32.5 48.9375 C 44.925781 48.9375 55 38.640625 55 25.9375 C 54.992188 25.683594 54.980469 25.433594 54.960938 25.179688 Z M 54.964844 25.179688 "/>
<path style=" stroke:none;fill-rule:nonzero;fill:rgb(98.039216%,52.54902%,64.313725%);fill-opacity:1;" d="M 17.035156 25.210938 C 17.019531 25.472656 17.003906 25.734375 17 26 C 17 27.722656 17.296875 29.433594 17.871094 31.042969 C 19.808594 36.441406 24.628906 40 30 40 C 35.359375 39.992188 40.164062 36.449219 42.105469 31.070312 C 42.691406 29.453125 42.996094 27.734375 43 26 C 42.996094 25.734375 42.988281 25.472656 42.972656 25.210938 C 42.582031 31.644531 36.890625 36.675781 30 36.679688 C 23.113281 36.671875 17.425781 31.640625 17.035156 25.210938 Z M 43.9375 25.644531 C 43.917969 25.875 43.882812 26.105469 43.851562 26.335938 C 43.886719 26.105469 43.917969 25.875 43.9375 25.644531 Z M 43.75 26.929688 C 43.703125 27.183594 43.636719 27.433594 43.574219 27.679688 C 43.640625 27.433594 43.699219 27.183594 43.75 26.929688 Z M 43.4375 28.164062 C 43.355469 28.441406 43.253906 28.710938 43.152344 28.976562 C 43.257812 28.710938 43.351562 28.441406 43.4375 28.164062 Z M 42.992188 29.386719 C 42.875 29.65625 42.742188 29.921875 42.609375 30.183594 C 42.746094 29.921875 42.875 29.65625 42.992188 29.386719 Z M 42.992188 29.386719 "/>
<path style=" stroke:none;fill-rule:nonzero;fill:rgb(97.254902%,33.72549%,49.803922%);fill-opacity:1;" d="M 26.4375 21.222656 C 25.640625 21.960938 24.011719 23.042969 25 27 C 25.039062 26.984375 25.078125 26.949219 25.121094 26.933594 C 25.320312 26.015625 25.777344 25.171875 26.4375 24.503906 Z M 33.59375 21.253906 L 33.59375 24.527344 C 34.199219 25.15625 34.628906 25.929688 34.84375 26.773438 C 34.898438 26.855469 34.945312 26.917969 35 27 C 35.976562 23.085938 34.398438 21.988281 33.59375 21.253906 Z M 29.621094 23.019531 C 29.546875 23.023438 29.476562 23.03125 29.40625 23.039062 C 29.476562 23.03125 29.546875 23.023438 29.621094 23.019531 Z M 29.117188 23.082031 C 29.054688 23.09375 28.988281 23.109375 28.925781 23.121094 C 28.988281 23.109375 29.054688 23.09375 29.117188 23.082031 Z M 28.601562 23.203125 C 28.5625 23.214844 28.523438 23.226562 28.484375 23.242188 C 28.523438 23.226562 28.5625 23.214844 28.601562 23.203125 Z M 28.109375 23.378906 C 28.085938 23.386719 28.0625 23.398438 28.039062 23.40625 C 28.0625 23.398438 28.085938 23.386719 28.109375 23.378906 Z M 27.660156 23.585938 C 27.636719 23.601562 27.609375 23.617188 27.582031 23.628906 C 27.609375 23.617188 27.636719 23.601562 27.660156 23.585938 Z M 27.230469 23.847656 C 27.207031 23.859375 27.1875 23.875 27.167969 23.886719 C 27.1875 23.875 27.207031 23.859375 27.230469 23.847656 Z M 27.230469 23.847656 "/>
<path style=" stroke:none;fill-rule:nonzero;fill:rgb(38.431373%,75.686275%,95.686275%);fill-opacity:1;" d="M 30 19.828125 C 28.675781 19.828125 27.402344 20.320312 26.46875 21.199219 C 26.457031 21.207031 26.445312 21.214844 26.4375 21.222656 L 26.4375 24.503906 C 27.375 23.542969 28.660156 23.003906 30 23 C 31.355469 23 32.652344 23.554688 33.59375 24.53125 L 33.59375 21.253906 C 33.574219 21.238281 33.550781 21.214844 33.53125 21.195312 C 32.597656 20.320312 31.324219 19.828125 30 19.824219 Z M 30 19.828125 "/>
<path style=" stroke:none;fill-rule:nonzero;fill:url(#radial0);" d="M 20.8125 15.929688 C 18.375 18.207031 17.003906 21.296875 17 24.519531 C 17 31.234375 22.820312 36.679688 30 36.679688 C 37.179688 36.679688 43 31.234375 43 24.519531 C 42.996094 21.296875 41.625 18.207031 39.1875 15.929688 L 33.53125 21.214844 C 34.472656 22.09375 35 23.28125 35 24.519531 C 35 27.105469 32.761719 29.199219 30 29.199219 C 27.238281 29.199219 25 27.105469 25 24.519531 C 25 23.28125 25.527344 22.09375 26.46875 21.214844 Z M 18.425781 17.175781 C 18.398438 17.214844 18.371094 17.246094 18.347656 17.28125 C 18.371094 17.246094 18.398438 17.210938 18.425781 17.175781 Z M 17.78125 18.164062 C 17.730469 18.25 17.675781 18.328125 17.625 18.414062 C 17.675781 18.328125 17.726562 18.246094 17.78125 18.164062 Z M 17.210938 19.234375 C 17.15625 19.351562 17.09375 19.46875 17.039062 19.59375 C 17.09375 19.472656 17.152344 19.351562 17.210938 19.234375 Z M 16.730469 20.402344 C 16.679688 20.539062 16.625 20.679688 16.582031 20.816406 C 16.628906 20.679688 16.675781 20.539062 16.730469 20.402344 Z M 16.375 21.582031 C 16.332031 21.753906 16.285156 21.925781 16.25 22.097656 C 16.289062 21.925781 16.332031 21.753906 16.375 21.582031 Z M 16.136719 22.820312 C 16.109375 23.011719 16.078125 23.199219 16.0625 23.390625 C 16.082031 23.203125 16.105469 23.011719 16.136719 22.820312 Z M 43.9375 25.644531 C 43.917969 25.875 43.886719 26.105469 43.851562 26.332031 C 43.882812 26.105469 43.917969 25.875 43.9375 25.644531 Z M 43.75 26.929688 C 43.699219 27.183594 43.640625 27.433594 43.574219 27.679688 C 43.636719 27.433594 43.703125 27.183594 43.75 26.929688 Z M 16.28125 27.121094 C 16.363281 27.515625 16.472656 27.902344 16.59375 28.28125 C 16.472656 27.902344 16.367188 27.511719 16.28125 27.121094 Z M 16.59375 28.28125 C 16.625 28.375 16.660156 28.464844 16.691406 28.558594 C 16.660156 28.464844 16.625 28.375 16.59375 28.28125 Z M 16.691406 28.558594 C 16.796875 28.863281 16.910156 29.160156 17.039062 29.457031 C 16.910156 29.160156 16.796875 28.859375 16.691406 28.558594 Z M 17.039062 29.457031 C 17.078125 29.542969 17.113281 29.632812 17.152344 29.71875 C 17.113281 29.632812 17.078125 29.542969 17.039062 29.457031 Z M 17.152344 29.71875 C 17.324219 30.085938 17.507812 30.449219 17.710938 30.796875 C 17.507812 30.445312 17.320312 30.085938 17.152344 29.71875 Z M 43.4375 28.164062 C 43.351562 28.4375 43.257812 28.710938 43.148438 28.976562 C 43.253906 28.710938 43.355469 28.441406 43.4375 28.164062 Z M 42.992188 29.382812 C 42.875 29.65625 42.746094 29.921875 42.605469 30.1875 C 42.742188 29.921875 42.875 29.65625 42.992188 29.382812 Z M 42.414062 30.5625 C 42.273438 30.808594 42.128906 31.046875 41.972656 31.285156 C 42.125 31.046875 42.277344 30.808594 42.414062 30.5625 Z M 17.738281 30.835938 C 17.953125 31.199219 18.183594 31.554688 18.433594 31.898438 C 18.183594 31.554688 17.953125 31.199219 17.738281 30.835938 Z M 41.703125 31.699219 C 41.550781 31.910156 41.394531 32.117188 41.226562 32.316406 C 41.390625 32.113281 41.554688 31.910156 41.703125 31.699219 Z M 18.589844 32.09375 C 18.804688 32.375 19.023438 32.648438 19.257812 32.910156 C 19.023438 32.648438 18.800781 32.375 18.589844 32.09375 Z M 40.882812 32.746094 C 40.710938 32.945312 40.527344 33.140625 40.339844 33.328125 C 40.527344 33.136719 40.710938 32.949219 40.882812 32.746094 Z M 19.574219 33.238281 C 19.773438 33.449219 19.972656 33.660156 20.1875 33.855469 C 19.976562 33.65625 19.773438 33.449219 19.574219 33.238281 Z M 39.980469 33.699219 C 39.765625 33.898438 39.546875 34.085938 39.320312 34.273438 C 39.542969 34.085938 39.769531 33.898438 39.980469 33.699219 Z M 20.582031 34.191406 C 20.789062 34.367188 20.992188 34.539062 21.203125 34.703125 C 20.992188 34.539062 20.785156 34.367188 20.582031 34.191406 Z M 38.96875 34.570312 C 38.6875 34.789062 38.398438 34.996094 38.097656 35.191406 C 38.394531 34.992188 38.691406 34.789062 38.96875 34.570312 Z M 21.664062 35.023438 C 21.882812 35.175781 22.097656 35.328125 22.324219 35.46875 C 22.101562 35.324219 21.878906 35.175781 21.664062 35.023438 Z M 37.886719 35.335938 C 37.519531 35.570312 37.140625 35.789062 36.75 35.988281 C 37.140625 35.789062 37.519531 35.570312 37.886719 35.335938 Z M 22.769531 35.71875 C 23.023438 35.863281 23.277344 36.003906 23.539062 36.132812 C 23.277344 36.003906 23.023438 35.863281 22.769531 35.71875 Z M 36.710938 36.015625 C 36.335938 36.207031 35.949219 36.378906 35.554688 36.535156 C 35.949219 36.375 36.335938 36.207031 36.710938 36.015625 Z M 35.554688 36.535156 C 35.464844 36.574219 35.371094 36.609375 35.273438 36.644531 C 35.371094 36.609375 35.464844 36.574219 35.554688 36.535156 Z M 35.273438 36.644531 C 34.960938 36.761719 34.640625 36.871094 34.316406 36.96875 C 34.640625 36.871094 34.960938 36.761719 35.273438 36.644531 Z M 34.316406 36.96875 C 34.21875 37 34.121094 37.03125 34.019531 37.058594 C 34.121094 37.03125 34.21875 37 34.316406 36.96875 Z M 34.019531 37.058594 C 33.613281 37.175781 33.199219 37.273438 32.78125 37.355469 C 33.203125 37.273438 33.613281 37.171875 34.019531 37.058594 Z M 23.945312 36.3125 C 24.226562 36.441406 24.507812 36.5625 24.800781 36.671875 C 24.511719 36.5625 24.226562 36.441406 23.945312 36.3125 Z M 25.234375 36.820312 C 25.519531 36.917969 25.808594 37.011719 26.105469 37.089844 C 25.8125 37.011719 25.519531 36.921875 25.234375 36.820312 Z M 26.621094 37.214844 C 26.886719 37.277344 27.152344 37.335938 27.425781 37.382812 C 27.15625 37.335938 26.886719 37.277344 26.621094 37.214844 Z M 28.0625 37.476562 C 28.308594 37.507812 28.550781 37.539062 28.800781 37.558594 C 28.550781 37.539062 28.308594 37.507812 28.0625 37.476562 Z M 28.0625 37.476562 "/>
<path style=" stroke:none;fill-rule:nonzero;fill:url(#radial1);" d="M 31.105469 11.472656 C 31.269531 11.488281 31.4375 11.507812 31.605469 11.53125 C 31.4375 11.507812 31.269531 11.488281 31.105469 11.472656 Z M 32.515625 11.644531 C 32.652344 11.671875 32.789062 11.703125 32.925781 11.730469 C 32.789062 11.703125 32.652344 11.671875 32.515625 11.644531 Z M 33.875 11.945312 C 34 11.980469 34.125 12.019531 34.25 12.058594 C 34.125 12.019531 34 11.980469 33.875 11.945312 Z M 30 12.363281 C 26.554688 12.363281 23.25 13.648438 20.8125 15.929688 L 26.46875 21.214844 C 27.402344 20.339844 28.675781 19.84375 30 19.84375 C 31.324219 19.84375 32.597656 20.339844 33.53125 21.214844 L 39.1875 15.929688 C 36.75 13.648438 33.445312 12.363281 30 12.363281 Z M 35.226562 12.378906 C 35.296875 12.410156 35.371094 12.441406 35.441406 12.472656 C 35.371094 12.441406 35.296875 12.410156 35.226562 12.378906 Z M 36.488281 12.925781 C 36.566406 12.964844 36.640625 13.003906 36.714844 13.046875 C 36.640625 13.003906 36.566406 12.964844 36.488281 12.925781 Z M 36.488281 12.925781 "/>
<path style=" stroke:none;fill-rule:nonzero;fill:url(#radial2);" d="M 39 4.023438 C 33.300781 2.316406 27.117188 2.757812 21.757812 5.246094 C 16.613281 7.652344 12.621094 11.769531 10.5625 16.789062 L 18.148438 19.175781 C 19.523438 16.035156 22.070312 13.46875 25.316406 11.949219 C 32.738281 8.503906 41.738281 11.332031 45.425781 18.269531 C 49.113281 25.210938 46.085938 33.628906 38.667969 37.078125 C 35.414062 38.582031 31.6875 38.933594 28.175781 38.066406 L 25.632812 45.148438 C 31.152344 46.644531 37.074219 46.15625 42.226562 43.777344 C 53.601562 38.492188 58.242188 25.578125 52.589844 14.941406 C 49.824219 9.734375 44.921875 5.792969 39 4.023438 Z M 9.570312 19.78125 C 9.433594 20.359375 9.324219 20.9375 9.238281 21.523438 C 9.324219 20.9375 9.433594 20.359375 9.570312 19.78125 Z M 9.171875 21.914062 C 9.105469 22.453125 9.0625 22.996094 9.039062 23.542969 C 9.0625 22.996094 9.105469 22.453125 9.171875 21.914062 Z M 9.007812 24.074219 C 9 24.570312 9.015625 25.070312 9.046875 25.566406 C 9.015625 25.070312 9 24.570312 9.007812 24.074219 Z M 9.074219 26.246094 C 9.121094 26.714844 9.1875 27.175781 9.265625 27.636719 C 9.1875 27.175781 9.121094 26.714844 9.074219 26.246094 Z M 9.378906 28.40625 C 9.472656 28.835938 9.578125 29.265625 9.695312 29.691406 C 9.578125 29.265625 9.472656 28.835938 9.378906 28.40625 Z M 9.910156 30.496094 C 10.039062 30.898438 10.183594 31.296875 10.339844 31.691406 C 10.183594 31.296875 10.039062 30.898438 9.910156 30.496094 Z M 10.664062 32.550781 C 10.863281 33.011719 11.078125 33.460938 11.308594 33.90625 C 11.078125 33.460938 10.863281 33.011719 10.664062 32.550781 Z M 10.664062 32.550781 "/>
<path style=" stroke:none;fill-rule:evenodd;fill:rgb(97.254902%,33.72549%,49.803922%);fill-opacity:1;" d="M 13.257812 21.96875 L 13.28125 21.980469 L 13.28125 21.96875 Z M 13.28125 22.027344 C 12.960938 23.679688 12.960938 25.371094 13.28125 27.019531 L 13.28125 24.929688 C 13.285156 24.914062 13.289062 24.894531 13.292969 24.878906 L 13.28125 24.878906 Z M 23.324219 37.902344 L 21.351562 45.097656 L 21.351562 48 L 23.339844 40.753906 C 23.332031 40.753906 23.328125 40.75 23.324219 40.746094 L 23.324219 37.898438 Z M 23.324219 37.902344 "/>
<path style=" stroke:none;fill-rule:evenodd;fill:rgb(98.039216%,52.54902%,64.313725%);fill-opacity:1;" d="M 5.09375 26.011719 C 5.089844 26.050781 5.085938 26.089844 5.082031 26.128906 C 5.074219 26.214844 5.066406 26.304688 5.058594 26.390625 C 5.03125 26.976562 5.03125 27.5625 5.054688 28.148438 C 5.054688 28.289062 5.058594 28.429688 5.058594 28.570312 C 5.09375 29.109375 5.152344 29.644531 5.226562 30.179688 C 5.25 30.363281 5.273438 30.542969 5.296875 30.722656 C 5.382812 31.222656 5.492188 31.71875 5.613281 32.210938 C 5.660156 32.425781 5.710938 32.636719 5.761719 32.847656 C 5.894531 33.300781 6.046875 33.753906 6.210938 34.199219 C 6.289062 34.4375 6.371094 34.671875 6.453125 34.90625 C 6.628906 35.328125 6.816406 35.746094 7.015625 36.15625 C 7.128906 36.40625 7.246094 36.65625 7.367188 36.902344 C 7.632812 37.414062 7.917969 37.914062 8.222656 38.40625 C 11.164062 43.023438 15.847656 46.449219 21.351562 48 L 21.351562 45.097656 C 15.847656 43.546875 11.164062 40.121094 8.226562 35.503906 C 7.917969 35.011719 7.632812 34.511719 7.367188 34 C 7.246094 33.753906 7.128906 33.503906 7.015625 33.253906 C 6.816406 32.84375 6.628906 32.425781 6.453125 32.007812 C 6.371094 31.769531 6.289062 31.535156 6.210938 31.292969 C 6.046875 30.851562 5.894531 30.398438 5.761719 29.945312 C 5.710938 29.734375 5.660156 29.523438 5.617188 29.308594 C 5.492188 28.816406 5.382812 28.320312 5.296875 27.824219 C 5.273438 27.640625 5.25 27.460938 5.230469 27.277344 C 5.171875 26.855469 5.125 26.433594 5.097656 26.011719 Z M 5.09375 26.011719 "/>
<path style=" stroke:none;fill-rule:evenodd;fill:url(#radial3);" d="M 5.550781 20.121094 C 5.46875 20.457031 5.394531 20.792969 5.332031 21.128906 C 5.316406 21.203125 5.300781 21.273438 5.285156 21.34375 C 5.191406 21.96875 5.121094 22.597656 5.082031 23.226562 C 5.074219 23.3125 5.066406 23.402344 5.058594 23.488281 C 5.03125 24.074219 5.03125 24.660156 5.054688 25.246094 C 5.054688 25.386719 5.058594 25.527344 5.0625 25.667969 C 5.09375 26.207031 5.152344 26.742188 5.230469 27.277344 C 5.25 27.460938 5.273438 27.640625 5.296875 27.824219 C 5.382812 28.320312 5.492188 28.816406 5.617188 29.308594 C 5.660156 29.519531 5.710938 29.734375 5.761719 29.945312 C 5.894531 30.398438 6.046875 30.851562 6.210938 31.296875 C 6.289062 31.535156 6.371094 31.769531 6.457031 32.007812 C 6.628906 32.429688 6.816406 32.84375 7.019531 33.253906 C 7.128906 33.503906 7.246094 33.753906 7.367188 34 C 7.632812 34.511719 7.917969 35.011719 8.226562 35.503906 C 11.164062 40.125 15.847656 43.546875 21.351562 45.097656 L 23.335938 37.851562 C 19.890625 36.796875 16.964844 34.609375 15.109375 31.695312 C 13.265625 28.769531 12.621094 25.316406 13.289062 21.976562 Z M 5.550781 20.121094 "/>
</g>
</svg>
