<?xml version="1.0" encoding="UTF-8"?>
<svg xmlns="http://www.w3.org/2000/svg" xmlns:xlink="http://www.w3.org/1999/xlink" width="60pt" height="52pt" viewBox="0 0 60 52" version="1.1">
<defs>
<radialGradient id="radial0" gradientUnits="userSpaceOnUse" cx="30" cy="-34" fx="30" fy="-34" r="14" gradientTransform="matrix(1,0,0,0.93474,0,56.2802)">
<stop offset="0" style="stop-color:rgb(96.470588%,14.117647%,34.901961%);stop-opacity:1;"/>
<stop offset="1" style="stop-color:rgb(96.862745%,21.568627%,40.784314%);stop-opacity:1;"/>
</radialGradient>
<radialGradient id="radial1" gradientUnits="userSpaceOnUse" cx="30" cy="-31.107422" fx="30" fy="-31.107422" r="9.892578" gradientTransform="matrix(1.415202,-0.00000009,0.00000009,1.322846,-12.45607,65.6494)">
<stop offset="0" style="stop-color:rgb(13.333333%,65.490196%,94.117647%);stop-opacity:1;"/>
<stop offset="1" style="stop-color:rgb(9.803922%,70.980392%,99.607843%);stop-opacity:1;"/>
</radialGradient>
<radialGradient id="radial2" gradientUnits="userSpaceOnUse" cx="30" cy="26" fx="30" fy="26" r="23" gradientTransform="matrix(1,0,0,0.93474,0,0.1958)">
<stop offset="0" style="stop-color:rgb(13.333333%,65.490196%,94.117647%);stop-opacity:1;"/>
<stop offset="1" style="stop-color:rgb(9.803922%,70.980392%,99.607843%);stop-opacity:1;"/>
</radialGradient>
<radialGradient id="radial3" gradientUnits="userSpaceOnUse" cx="30" cy="21.246092" fx="30" fy="21.246092" r="16.253906" gradientTransform="matrix(-1.415045,0,0,-1.322698,72.45133,52.6012)">
<stop offset="0" style="stop-color:rgb(96.470588%,14.117647%,34.901961%);stop-opacity:1;"/>
<stop offset="1" style="stop-color:rgb(96.862745%,21.568627%,40.784314%);stop-opacity:1;"/>
</radialGradient>
</defs>
<g id="surface1">
<rect x="0" y="0" width="60" height="52" style="fill:rgb(100%,100%,100%);fill-opacity:1;stroke:none;"/>
<path style=" stroke:none;fill-rule:nonzero;fill:rgb(54.509804%,81.960784%,96.862745%);fill-opacity:1;" d="M 52.96875 25.089844 C 52.796875 30.566406 50.394531 35.777344 46.25 39.65625 L 46.25 42.257812 C 50.566406 37.945312 52.996094 32.097656 53 26 C 52.996094 25.695312 52.984375 25.394531 52.96875 25.089844 Z M 46.25 42.257812 C 41.941406 46.570312 36.097656 48.996094 30 49 C 36.097656 48.996094 41.941406 46.570312 46.25 42.257812 Z M 30 49 C 29.402344 48.996094 28.800781 48.972656 28.203125 48.921875 C 28.800781 48.972656 29.402344 48.996094 30 49 Z M 7.03125 25.359375 C 7.019531 25.574219 7.007812 25.785156 7 26 C 7.003906 32.097656 9.433594 37.945312 13.75 42.253906 L 13.75 39.683594 C 9.664062 35.867188 7.269531 30.753906 7.03125 25.359375 Z M 13.75 42.253906 C 14.261719 42.765625 14.804688 43.257812 15.363281 43.71875 C 14.804688 43.257812 14.261719 42.765625 13.75 42.253906 Z M 44.613281 41.050781 C 44.574219 41.082031 44.535156 41.113281 44.496094 41.144531 C 44.535156 41.113281 44.574219 41.082031 44.613281 41.050781 Z M 42.78125 42.328125 C 42.734375 42.359375 42.683594 42.390625 42.636719 42.421875 C 42.683594 42.390625 42.734375 42.359375 42.78125 42.328125 Z M 40.90625 43.390625 C 40.796875 43.445312 40.6875 43.5 40.578125 43.554688 C 40.6875 43.5 40.796875 43.445312 40.90625 43.390625 Z M 15.46875 43.808594 C 16.015625 44.253906 16.582031 44.675781 17.171875 45.066406 C 16.582031 44.675781 16.015625 44.253906 15.46875 43.808594 Z M 38.917969 44.28125 C 38.75 44.347656 38.582031 44.410156 38.417969 44.472656 C 38.582031 44.410156 38.75 44.347656 38.917969 44.28125 Z M 36.832031 44.996094 C 36.621094 45.058594 36.40625 45.121094 36.191406 45.175781 C 36.40625 45.121094 36.621094 45.058594 36.832031 44.996094 Z M 17.324219 45.175781 C 17.867188 45.53125 18.429688 45.863281 19 46.171875 C 18.429688 45.863281 17.867188 45.53125 17.324219 45.175781 Z M 34.679688 45.523438 C 34.414062 45.574219 34.144531 45.625 33.875 45.667969 C 34.144531 45.625 34.414062 45.574219 34.679688 45.523438 Z M 32.507812 45.84375 C 32.160156 45.882812 31.8125 45.914062 31.464844 45.9375 C 31.8125 45.914062 32.160156 45.882812 32.507812 45.84375 Z M 19.328125 46.363281 C 19.863281 46.636719 20.40625 46.890625 20.957031 47.121094 C 20.40625 46.890625 19.863281 46.636719 19.328125 46.363281 Z M 21.4375 47.335938 C 21.957031 47.535156 22.480469 47.71875 23.011719 47.886719 C 22.480469 47.71875 21.957031 47.535156 21.4375 47.335938 Z M 23.628906 48.089844 C 24.125 48.226562 24.628906 48.347656 25.132812 48.453125 C 24.628906 48.347656 24.125 48.226562 23.628906 48.089844 Z M 25.878906 48.617188 C 26.335938 48.695312 26.792969 48.757812 27.25 48.804688 C 26.792969 48.757812 26.335938 48.695312 25.878906 48.617188 Z M 25.878906 48.617188 "/>
<path style=" stroke:none;fill-rule:nonzero;fill:rgb(38.431373%,75.686275%,95.686275%);fill-opacity:1;" d="M 30 11.410156 C 25.359375 11.417969 21.023438 13.570312 18.421875 17.160156 C 18.398438 17.195312 18.371094 17.226562 18.34375 17.265625 C 18.085938 17.628906 17.847656 18.003906 17.628906 18.390625 C 17.628906 18.390625 17.628906 18.390625 17.628906 18.398438 C 17.480469 18.667969 17.339844 18.941406 17.214844 19.21875 C 17.15625 19.335938 17.09375 19.457031 17.039062 19.578125 C 16.925781 19.84375 16.824219 20.113281 16.730469 20.386719 C 16.589844 20.773438 16.472656 21.167969 16.375 21.566406 C 16.273438 21.976562 16.195312 22.390625 16.136719 22.804688 C 16.109375 22.996094 16.078125 23.183594 16.0625 23.375 C 16.023438 23.75 16.003906 24.125 16 24.496094 C 16.003906 26.152344 16.34375 27.789062 17 29.324219 L 17 24 L 17.023438 24 C 17.15625 20.953125 18.507812 18.066406 20.8125 15.910156 C 23.25 13.632812 26.554688 12.351562 30 12.347656 C 33.445312 12.351562 36.75 13.632812 39.1875 15.910156 C 41.488281 18.066406 42.839844 20.957031 42.972656 24 L 43 24 L 43 29.339844 C 43.050781 29.210938 43.101562 29.082031 43.148438 28.953125 C 43.257812 28.683594 43.351562 28.414062 43.4375 28.140625 C 43.488281 27.980469 43.53125 27.820312 43.570312 27.65625 C 43.691406 27.214844 43.78125 26.765625 43.847656 26.308594 C 43.886719 26.082031 43.917969 25.851562 43.9375 25.621094 C 43.976562 25.246094 43.996094 24.871094 44 24.496094 C 43.992188 19.71875 41.199219 15.324219 36.714844 13.03125 C 36.699219 13.023438 36.683594 13.015625 36.667969 13.007812 C 36.609375 12.976562 36.550781 12.941406 36.488281 12.910156 C 36.148438 12.746094 35.796875 12.59375 35.441406 12.457031 C 35.390625 12.433594 35.34375 12.414062 35.292969 12.394531 C 35.277344 12.386719 35.265625 12.382812 35.25 12.375 C 35.25 12.375 35.25 12.375 35.246094 12.375 C 34.863281 12.230469 34.46875 12.105469 34.070312 11.992188 C 34.015625 11.972656 33.960938 11.957031 33.902344 11.9375 C 33.515625 11.835938 33.121094 11.746094 32.722656 11.675781 C 32.65625 11.660156 32.585938 11.644531 32.515625 11.628906 C 32.214844 11.582031 31.910156 11.542969 31.605469 11.515625 C 31.4375 11.492188 31.269531 11.472656 31.101562 11.457031 C 30.738281 11.429688 30.367188 11.414062 30 11.410156 Z M 30 19.828125 C 29.691406 19.828125 29.382812 19.851562 29.078125 19.90625 C 29.382812 19.851562 29.691406 19.828125 30 19.828125 Z M 30.996094 19.921875 C 31.484375 20.015625 31.957031 20.175781 32.394531 20.402344 C 31.957031 20.175781 31.484375 20.015625 30.996094 19.921875 Z M 26.203125 21.464844 C 26.113281 21.566406 26.027344 21.667969 25.949219 21.773438 C 26.027344 21.667969 26.113281 21.566406 26.203125 21.464844 Z M 25.890625 21.839844 C 25.828125 21.929688 25.769531 22.019531 25.710938 22.113281 C 25.769531 22.019531 25.828125 21.929688 25.890625 21.839844 Z M 25.625 22.242188 C 25.566406 22.34375 25.511719 22.449219 25.460938 22.558594 C 25.511719 22.449219 25.566406 22.34375 25.625 22.242188 Z M 25.410156 22.65625 C 25.355469 22.777344 25.304688 22.898438 25.261719 23.023438 C 25.304688 22.898438 25.355469 22.777344 25.410156 22.65625 Z M 25.234375 23.09375 C 25.195312 23.214844 25.160156 23.335938 25.128906 23.460938 C 25.160156 23.335938 25.195312 23.214844 25.234375 23.09375 Z M 25.109375 23.546875 C 25.074219 23.695312 25.046875 23.847656 25.03125 24 C 25.046875 23.847656 25.074219 23.695312 25.109375 23.546875 Z M 42.992188 29.359375 C 42.875 29.632812 42.742188 29.898438 42.609375 30.160156 C 42.746094 29.898438 42.875 29.628906 42.992188 29.359375 Z M 42.414062 30.539062 C 42.277344 30.785156 42.125 31.019531 41.972656 31.257812 C 42.128906 31.023438 42.273438 30.78125 42.414062 30.539062 Z M 17.738281 30.8125 C 17.953125 31.175781 18.183594 31.527344 18.4375 31.871094 C 18.183594 31.53125 17.953125 31.175781 17.738281 30.8125 Z M 18.59375 32.070312 C 18.800781 32.347656 19.023438 32.621094 19.253906 32.886719 C 19.023438 32.625 18.804688 32.347656 18.59375 32.070312 Z M 19.574219 33.210938 C 19.773438 33.421875 19.976562 33.628906 20.1875 33.828125 C 19.972656 33.632812 19.773438 33.421875 19.574219 33.210938 Z M 20.582031 34.164062 C 20.785156 34.339844 20.992188 34.511719 21.203125 34.675781 C 20.992188 34.511719 20.789062 34.339844 20.582031 34.164062 Z M 21.664062 34.996094 C 21.878906 35.148438 22.101562 35.296875 22.328125 35.4375 C 22.097656 35.296875 21.882812 35.144531 21.664062 34.996094 Z M 22.769531 35.691406 C 23.023438 35.835938 23.277344 35.972656 23.542969 36.105469 C 23.277344 35.976562 23.023438 35.832031 22.769531 35.691406 Z M 23.941406 36.285156 C 24.226562 36.414062 24.511719 36.535156 24.800781 36.644531 C 24.507812 36.535156 24.226562 36.414062 23.941406 36.285156 Z M 25.234375 36.792969 C 25.519531 36.890625 25.8125 36.980469 26.105469 37.0625 C 25.808594 36.984375 25.519531 36.886719 25.234375 36.792969 Z M 26.621094 37.1875 C 26.886719 37.25 27.15625 37.304688 27.421875 37.355469 C 27.152344 37.308594 26.886719 37.246094 26.621094 37.1875 Z M 28.0625 37.445312 C 28.308594 37.480469 28.550781 37.507812 28.796875 37.53125 C 28.550781 37.507812 28.308594 37.476562 28.0625 37.445312 Z M 28.0625 37.445312 "/>
<path style=" stroke:none;fill-rule:nonzero;fill:rgb(98.039216%,52.54902%,64.313725%);fill-opacity:1;" d="M 18.421875 17.160156 C 18.398438 17.195312 18.371094 17.230469 18.34375 17.265625 C 18.371094 17.230469 18.398438 17.195312 18.421875 17.160156 Z M 17.78125 18.148438 C 17.726562 18.230469 17.675781 18.3125 17.625 18.394531 C 17.675781 18.308594 17.730469 18.230469 17.78125 18.148438 Z M 17.214844 19.214844 C 17.152344 19.332031 17.09375 19.453125 17.039062 19.574219 C 17.09375 19.453125 17.15625 19.332031 17.214844 19.214844 Z M 16.730469 20.382812 C 16.675781 20.519531 16.628906 20.660156 16.582031 20.796875 C 16.625 20.660156 16.679688 20.523438 16.730469 20.382812 Z M 16.375 21.5625 C 16.332031 21.734375 16.289062 21.902344 16.25 22.078125 C 16.285156 21.902344 16.332031 21.734375 16.375 21.5625 Z M 16.136719 22.800781 C 16.105469 22.992188 16.082031 23.179688 16.058594 23.371094 C 16.078125 23.179688 16.109375 22.992188 16.136719 22.800781 Z M 17 24 L 17 24.496094 C 17.003906 24.332031 17.011719 24.164062 17.023438 24 Z M 17 24.496094 L 17 29.324219 C 17.339844 30.121094 17.761719 30.882812 18.261719 31.601562 C 18.269531 31.621094 18.28125 31.636719 18.296875 31.65625 C 18.542969 32.011719 18.808594 32.355469 19.09375 32.683594 C 19.097656 32.691406 19.105469 32.699219 19.113281 32.707031 C 19.382812 33.019531 19.667969 33.320312 19.972656 33.609375 C 20 33.640625 20.027344 33.667969 20.058594 33.699219 C 20.339844 33.964844 20.636719 34.21875 20.945312 34.460938 C 21 34.503906 21.054688 34.550781 21.109375 34.59375 C 21.402344 34.820312 21.707031 35.03125 22.023438 35.234375 C 22.09375 35.28125 22.164062 35.332031 22.234375 35.378906 C 22.542969 35.566406 22.855469 35.742188 23.179688 35.90625 C 23.265625 35.957031 23.355469 36.003906 23.449219 36.050781 C 23.757812 36.207031 24.074219 36.347656 24.398438 36.476562 C 24.507812 36.523438 24.617188 36.570312 24.726562 36.613281 C 25.019531 36.722656 25.316406 36.820312 25.617188 36.910156 C 25.761719 36.957031 25.910156 37.003906 26.0625 37.046875 C 26.347656 37.125 26.640625 37.191406 26.933594 37.25 C 27.363281 37.339844 27.800781 37.414062 28.242188 37.464844 C 28.824219 37.539062 29.410156 37.582031 30 37.585938 C 35.675781 37.582031 40.785156 34.375 42.9375 29.46875 C 42.957031 29.433594 42.976562 29.398438 42.992188 29.359375 C 42.996094 29.355469 42.996094 29.347656 43 29.34375 L 43 24.496094 C 43 31.210938 37.179688 36.652344 30 36.652344 C 22.820312 36.652344 17 31.210938 17 24.496094 Z M 43 24.496094 L 43 24 L 42.972656 24 C 42.984375 24.164062 42.996094 24.332031 43 24.496094 Z M 43.9375 25.621094 C 43.917969 25.851562 43.882812 26.082031 43.851562 26.308594 C 43.886719 26.082031 43.917969 25.851562 43.9375 25.621094 Z M 43.75 26.90625 C 43.703125 27.160156 43.636719 27.410156 43.574219 27.65625 C 43.640625 27.410156 43.699219 27.160156 43.75 26.90625 Z M 43.4375 28.140625 C 43.355469 28.417969 43.253906 28.683594 43.152344 28.953125 C 43.257812 28.683594 43.351562 28.414062 43.4375 28.140625 Z M 42.414062 30.535156 C 42.277344 30.785156 42.125 31.019531 41.972656 31.257812 C 42.128906 31.023438 42.273438 30.78125 42.414062 30.535156 Z M 41.703125 31.671875 C 41.554688 31.882812 41.390625 32.085938 41.230469 32.289062 C 41.394531 32.089844 41.550781 31.882812 41.703125 31.671875 Z M 40.886719 32.71875 C 40.710938 32.921875 40.527344 33.109375 40.339844 33.300781 C 40.527344 33.113281 40.710938 32.917969 40.886719 32.71875 Z M 39.980469 33.671875 C 39.769531 33.871094 39.542969 34.054688 39.320312 34.242188 C 39.546875 34.058594 39.765625 33.871094 39.980469 33.671875 Z M 38.96875 34.542969 C 38.691406 34.761719 38.394531 34.964844 38.097656 35.160156 C 38.398438 34.964844 38.6875 34.761719 38.96875 34.542969 Z M 37.886719 35.308594 C 37.519531 35.542969 37.140625 35.761719 36.75 35.960938 C 37.140625 35.761719 37.519531 35.542969 37.886719 35.308594 Z M 37.886719 35.308594 "/>
<path style=" stroke:none;fill-rule:nonzero;fill:rgb(97.254902%,33.72549%,49.803922%);fill-opacity:1;" d="M 26.4375 21.226562 C 25.640625 21.960938 24.011719 23.042969 25 27 C 25.039062 26.984375 25.078125 26.949219 25.121094 26.933594 C 25.320312 26.015625 25.777344 25.175781 26.4375 24.503906 Z M 33.59375 21.253906 L 33.59375 24.53125 C 34.199219 25.15625 34.628906 25.929688 34.84375 26.777344 C 34.898438 26.855469 34.945312 26.917969 35 27 C 35.976562 23.085938 34.398438 21.988281 33.59375 21.253906 Z M 29.621094 23.019531 C 29.546875 23.023438 29.476562 23.03125 29.402344 23.039062 C 29.476562 23.03125 29.546875 23.023438 29.621094 23.019531 Z M 29.117188 23.082031 C 29.054688 23.09375 28.988281 23.109375 28.925781 23.121094 C 28.988281 23.109375 29.054688 23.09375 29.117188 23.082031 Z M 28.601562 23.203125 C 28.5625 23.21875 28.523438 23.230469 28.484375 23.242188 C 28.523438 23.230469 28.5625 23.21875 28.601562 23.203125 Z M 28.109375 23.378906 C 28.085938 23.386719 28.0625 23.398438 28.039062 23.40625 C 28.0625 23.398438 28.085938 23.386719 28.109375 23.378906 Z M 27.660156 23.585938 C 27.636719 23.601562 27.609375 23.617188 27.585938 23.628906 C 27.609375 23.617188 27.636719 23.601562 27.660156 23.585938 Z M 27.226562 23.847656 C 27.207031 23.859375 27.1875 23.875 27.167969 23.886719 C 27.1875 23.875 27.207031 23.859375 27.226562 23.847656 Z M 27.226562 23.847656 "/>
<path style=" stroke:none;fill-rule:nonzero;fill:url(#radial0);" d="M 20.8125 15.910156 C 18.375 18.1875 17.003906 21.277344 17 24.5 C 17 31.210938 22.820312 36.652344 30 36.652344 C 37.179688 36.652344 43 31.210938 43 24.5 C 42.996094 21.277344 41.625 18.1875 39.1875 15.910156 L 33.53125 21.195312 C 34.472656 22.070312 35 23.261719 35 24.5 C 35 27.082031 32.761719 29.171875 30 29.171875 C 27.238281 29.171875 25 27.082031 25 24.5 C 25 23.261719 25.527344 22.070312 26.46875 21.195312 Z M 18.425781 17.160156 C 18.398438 17.195312 18.371094 17.230469 18.347656 17.265625 C 18.371094 17.230469 18.398438 17.195312 18.425781 17.160156 Z M 17.78125 18.148438 C 17.730469 18.230469 17.675781 18.308594 17.625 18.394531 C 17.675781 18.3125 17.726562 18.230469 17.78125 18.148438 Z M 17.210938 19.214844 C 17.15625 19.335938 17.09375 19.453125 17.039062 19.574219 C 17.09375 19.453125 17.152344 19.332031 17.210938 19.214844 Z M 16.730469 20.382812 C 16.679688 20.519531 16.625 20.65625 16.582031 20.796875 C 16.628906 20.660156 16.675781 20.519531 16.730469 20.382812 Z M 16.375 21.5625 C 16.332031 21.734375 16.285156 21.902344 16.25 22.078125 C 16.289062 21.90625 16.332031 21.734375 16.375 21.5625 Z M 16.136719 22.800781 C 16.109375 22.992188 16.078125 23.179688 16.0625 23.371094 C 16.082031 23.179688 16.105469 22.992188 16.136719 22.800781 Z M 43.9375 25.621094 C 43.917969 25.851562 43.886719 26.082031 43.851562 26.308594 C 43.882812 26.082031 43.917969 25.855469 43.9375 25.621094 Z M 43.75 26.90625 C 43.699219 27.160156 43.640625 27.410156 43.574219 27.65625 C 43.636719 27.410156 43.703125 27.160156 43.75 26.90625 Z M 16.28125 27.097656 C 16.363281 27.492188 16.472656 27.878906 16.59375 28.257812 C 16.472656 27.875 16.367188 27.488281 16.28125 27.097656 Z M 16.59375 28.257812 C 16.625 28.351562 16.660156 28.441406 16.691406 28.535156 C 16.660156 28.441406 16.625 28.351562 16.59375 28.257812 Z M 16.691406 28.535156 C 16.796875 28.835938 16.910156 29.136719 17.039062 29.429688 C 16.910156 29.136719 16.796875 28.835938 16.691406 28.535156 Z M 17.039062 29.429688 C 17.078125 29.519531 17.113281 29.605469 17.152344 29.691406 C 17.113281 29.605469 17.078125 29.519531 17.039062 29.429688 Z M 17.152344 29.691406 C 17.324219 30.058594 17.507812 30.421875 17.710938 30.773438 C 17.507812 30.421875 17.320312 30.058594 17.152344 29.691406 Z M 43.4375 28.140625 C 43.351562 28.414062 43.257812 28.6875 43.148438 28.953125 C 43.253906 28.6875 43.355469 28.417969 43.4375 28.140625 Z M 42.992188 29.359375 C 42.875 29.628906 42.746094 29.898438 42.605469 30.160156 C 42.742188 29.898438 42.875 29.632812 42.992188 29.359375 Z M 42.414062 30.535156 C 42.273438 30.78125 42.128906 31.023438 41.972656 31.257812 C 42.125 31.019531 42.277344 30.78125 42.414062 30.535156 Z M 17.738281 30.808594 C 17.953125 31.175781 18.183594 31.527344 18.433594 31.871094 C 18.183594 31.527344 17.953125 31.175781 17.738281 30.808594 Z M 41.703125 31.671875 C 41.550781 31.882812 41.394531 32.089844 41.226562 32.289062 C 41.390625 32.085938 41.554688 31.882812 41.703125 31.671875 Z M 18.589844 32.066406 C 18.804688 32.347656 19.023438 32.621094 19.257812 32.882812 C 19.023438 32.621094 18.800781 32.347656 18.589844 32.066406 Z M 40.882812 32.71875 C 40.710938 32.917969 40.527344 33.113281 40.339844 33.300781 C 40.527344 33.109375 40.710938 32.921875 40.882812 32.71875 Z M 19.574219 33.210938 C 19.773438 33.421875 19.972656 33.632812 20.1875 33.828125 C 19.976562 33.628906 19.773438 33.421875 19.574219 33.210938 Z M 39.980469 33.671875 C 39.765625 33.867188 39.546875 34.058594 39.320312 34.246094 C 39.542969 34.058594 39.769531 33.871094 39.980469 33.671875 Z M 20.582031 34.164062 C 20.789062 34.335938 20.992188 34.511719 21.207031 34.671875 C 20.992188 34.507812 20.785156 34.339844 20.582031 34.164062 Z M 38.96875 34.542969 C 38.6875 34.757812 38.398438 34.964844 38.097656 35.164062 C 38.394531 34.964844 38.691406 34.761719 38.96875 34.542969 Z M 21.664062 34.996094 C 21.882812 35.144531 22.097656 35.296875 22.324219 35.4375 C 22.101562 35.296875 21.878906 35.148438 21.664062 34.996094 Z M 37.886719 35.308594 C 37.519531 35.542969 37.140625 35.761719 36.75 35.960938 C 37.140625 35.757812 37.519531 35.542969 37.886719 35.308594 Z M 22.769531 35.691406 C 23.023438 35.832031 23.277344 35.972656 23.539062 36.101562 C 23.277344 35.972656 23.023438 35.835938 22.769531 35.691406 Z M 36.710938 35.984375 C 36.335938 36.175781 35.949219 36.347656 35.554688 36.507812 C 35.949219 36.347656 36.335938 36.175781 36.710938 35.984375 Z M 35.554688 36.507812 C 35.464844 36.542969 35.371094 36.578125 35.273438 36.613281 C 35.371094 36.578125 35.464844 36.542969 35.554688 36.507812 Z M 35.273438 36.613281 C 34.960938 36.734375 34.640625 36.839844 34.316406 36.9375 C 34.640625 36.839844 34.960938 36.734375 35.273438 36.613281 Z M 34.316406 36.9375 C 34.21875 36.96875 34.121094 37 34.019531 37.027344 C 34.121094 37 34.21875 36.96875 34.316406 36.9375 Z M 34.019531 37.027344 C 33.613281 37.144531 33.199219 37.242188 32.78125 37.324219 C 33.203125 37.246094 33.613281 37.144531 34.019531 37.027344 Z M 23.945312 36.285156 C 24.226562 36.410156 24.507812 36.535156 24.800781 36.644531 C 24.511719 36.53125 24.226562 36.414062 23.945312 36.285156 Z M 25.234375 36.792969 C 25.519531 36.890625 25.808594 36.980469 26.105469 37.0625 C 25.8125 36.980469 25.519531 36.890625 25.234375 36.792969 Z M 26.621094 37.1875 C 26.886719 37.25 27.152344 37.308594 27.425781 37.355469 C 27.15625 37.304688 26.886719 37.25 26.621094 37.1875 Z M 28.0625 37.445312 C 28.308594 37.476562 28.550781 37.507812 28.800781 37.53125 C 28.550781 37.507812 28.308594 37.480469 28.0625 37.445312 Z M 28.0625 37.445312 "/>
<path style=" stroke:none;fill-rule:nonzero;fill:rgb(38.431373%,75.686275%,95.686275%);fill-opacity:1;" d="M 30 19.828125 C 28.675781 19.828125 27.402344 20.320312 26.464844 21.199219 C 26.457031 21.207031 26.445312 21.21875 26.4375 21.226562 L 26.4375 24.503906 C 27.375 23.546875 28.660156 23.003906 30 23 C 31.355469 23 32.652344 23.554688 33.59375 24.53125 L 33.59375 21.253906 C 33.574219 21.238281 33.550781 21.214844 33.53125 21.199219 C 32.597656 20.320312 31.324219 19.828125 30 19.828125 Z M 30 19.828125 "/>
<path style=" stroke:none;fill-rule:nonzero;fill:url(#radial1);" d="M 31.105469 11.457031 C 31.269531 11.472656 31.4375 11.492188 31.605469 11.515625 C 31.4375 11.492188 31.269531 11.472656 31.105469 11.457031 Z M 32.515625 11.632812 C 32.652344 11.660156 32.789062 11.6875 32.925781 11.71875 C 32.789062 11.6875 32.652344 11.660156 32.515625 11.632812 Z M 33.875 11.929688 C 34 11.96875 34.125 12.007812 34.25 12.046875 C 34.125 12.007812 34 11.96875 33.875 11.929688 Z M 30 12.347656 C 26.554688 12.351562 23.25 13.632812 20.8125 15.910156 L 26.46875 21.195312 C 27.402344 20.320312 28.675781 19.828125 30 19.824219 C 31.324219 19.828125 32.597656 20.320312 33.53125 21.195312 L 39.1875 15.910156 C 36.75 13.632812 33.445312 12.351562 30 12.347656 Z M 35.226562 12.367188 C 35.296875 12.394531 35.371094 12.425781 35.441406 12.457031 C 35.371094 12.425781 35.296875 12.394531 35.226562 12.367188 Z M 36.488281 12.910156 C 36.566406 12.949219 36.640625 12.992188 36.714844 13.03125 C 36.640625 12.992188 36.566406 12.949219 36.488281 12.910156 Z M 36.488281 12.910156 "/>
<path style=" stroke:none;fill-rule:nonzero;fill:url(#radial2);" d="M 30 3 C 17.296875 3 7 12.625 7 24.496094 C 7 36.371094 17.296875 45.996094 30 45.996094 C 42.703125 45.996094 53 36.371094 53 24.496094 C 53 12.625 42.703125 3 30 3 Z M 30 11.410156 C 30.386719 11.414062 30.777344 11.433594 31.164062 11.464844 C 31.640625 11.503906 32.117188 11.5625 32.585938 11.648438 C 33.035156 11.726562 33.476562 11.824219 33.914062 11.945312 C 34.371094 12.066406 34.824219 12.214844 35.265625 12.382812 C 35.6875 12.542969 36.101562 12.722656 36.503906 12.921875 C 41.109375 15.179688 43.996094 19.636719 44 24.5 C 43.996094 24.875 43.976562 25.246094 43.9375 25.621094 C 43.917969 25.832031 43.890625 26.046875 43.855469 26.257812 C 43.828125 26.476562 43.792969 26.691406 43.75 26.910156 C 43.707031 27.117188 43.660156 27.324219 43.601562 27.527344 C 43.550781 27.746094 43.492188 27.964844 43.425781 28.179688 C 43.355469 28.390625 43.28125 28.597656 43.203125 28.804688 C 43.128906 29.011719 43.046875 29.21875 42.960938 29.425781 C 42.871094 29.625 42.777344 29.824219 42.675781 30.019531 C 42.582031 30.214844 42.480469 30.410156 42.375 30.601562 C 42.269531 30.785156 42.15625 30.96875 42.042969 31.148438 C 39.527344 35.132812 34.949219 37.578125 30 37.585938 C 29.359375 37.582031 28.722656 37.535156 28.089844 37.449219 C 28.078125 37.449219 28.070312 37.445312 28.0625 37.449219 C 27.847656 37.421875 27.636719 37.390625 27.425781 37.355469 C 27.195312 37.3125 26.964844 37.265625 26.742188 37.210938 C 26.511719 37.164062 26.28125 37.109375 26.058594 37.050781 C 25.828125 36.984375 25.597656 36.914062 25.371094 36.835938 C 25.15625 36.765625 24.9375 36.695312 24.726562 36.613281 C 24.519531 36.53125 24.3125 36.445312 24.109375 36.355469 C 23.898438 36.265625 23.691406 36.175781 23.488281 36.074219 C 23.261719 35.964844 23.042969 35.84375 22.824219 35.71875 C 22.640625 35.621094 22.457031 35.515625 22.28125 35.40625 C 22.074219 35.277344 21.867188 35.140625 21.671875 35 C 21.667969 35 21.667969 35 21.664062 35 C 21.488281 34.882812 21.316406 34.757812 21.148438 34.632812 C 20.964844 34.488281 20.785156 34.34375 20.609375 34.191406 C 20.601562 34.179688 20.59375 34.175781 20.582031 34.167969 C 20.421875 34.035156 20.265625 33.898438 20.109375 33.757812 C 19.933594 33.585938 19.757812 33.410156 19.589844 33.230469 C 19.585938 33.222656 19.578125 33.222656 19.574219 33.214844 C 19.4375 33.078125 19.304688 32.9375 19.175781 32.792969 C 19.019531 32.613281 18.871094 32.425781 18.726562 32.238281 C 18.597656 32.078125 18.472656 31.917969 18.355469 31.753906 C 18.214844 31.554688 18.082031 31.355469 17.957031 31.148438 C 16.679688 29.136719 16.003906 26.839844 16 24.496094 C 16.003906 24.121094 16.023438 23.746094 16.0625 23.371094 C 16.183594 22.066406 16.511719 20.789062 17.039062 19.578125 C 17.214844 19.175781 17.410156 18.78125 17.628906 18.398438 C 17.847656 18.007812 18.085938 17.632812 18.347656 17.265625 C 20.9375 13.613281 25.3125 11.417969 30 11.410156 Z M 16.730469 20.382812 C 16.679688 20.523438 16.625 20.660156 16.582031 20.796875 C 16.628906 20.660156 16.675781 20.519531 16.730469 20.382812 Z M 16.375 21.5625 C 16.332031 21.734375 16.285156 21.902344 16.25 22.078125 C 16.289062 21.902344 16.332031 21.734375 16.375 21.5625 Z M 16.375 21.5625 "/>
<path style=" stroke:none;fill-rule:evenodd;fill:url(#radial3);" d="M 20.105469 33.746094 L 13.746094 39.691406 C 13.75 39.695312 13.75 39.699219 13.753906 39.703125 C 14.25 40.160156 14.765625 40.597656 15.304688 41.011719 C 15.359375 41.0625 15.417969 41.109375 15.480469 41.15625 C 16.003906 41.554688 16.546875 41.929688 17.105469 42.28125 C 17.179688 42.332031 17.257812 42.382812 17.335938 42.433594 C 17.859375 42.753906 18.398438 43.050781 18.949219 43.328125 C 19.078125 43.402344 19.207031 43.472656 19.339844 43.539062 C 19.851562 43.785156 20.375 44.011719 20.90625 44.222656 C 21.085938 44.300781 21.261719 44.375 21.445312 44.445312 C 21.945312 44.628906 22.457031 44.796875 22.972656 44.945312 C 23.191406 45.015625 23.410156 45.085938 23.632812 45.152344 C 24.121094 45.277344 24.609375 45.386719 25.105469 45.480469 C 25.363281 45.539062 25.621094 45.59375 25.882812 45.644531 C 26.359375 45.71875 26.839844 45.78125 27.320312 45.828125 C 27.605469 45.863281 27.894531 45.898438 28.183594 45.925781 C 28.785156 45.972656 29.394531 45.996094 30 46 C 36.050781 45.992188 41.859375 43.757812 46.160156 39.777344 C 46.191406 39.75 46.222656 39.722656 46.253906 39.695312 L 39.894531 33.75 C 37.269531 36.203125 33.710938 37.582031 30 37.585938 C 26.289062 37.582031 22.730469 36.203125 20.109375 33.746094 Z M 20.105469 33.746094 "/>
<path style=" stroke:none;fill-rule:nonzero;fill:rgb(98.039216%,52.54902%,64.313725%);fill-opacity:1;" d="M 46.25 39.65625 C 41.949219 43.703125 36.101562 45.984375 30 46 C 23.902344 45.992188 18.054688 43.71875 13.75 39.683594 L 13.75 42.253906 C 18.058594 46.566406 23.902344 48.996094 30 49 C 36.097656 48.996094 41.941406 46.570312 46.25 42.257812 Z M 46.25 39.65625 "/>
</g>
</svg>
