<?xml version="1.0" encoding="UTF-8"?>
<svg xmlns="http://www.w3.org/2000/svg" xmlns:xlink="http://www.w3.org/1999/xlink" width="16pt" height="16pt" viewBox="0 0 16 16" version="1.1">
<g id="surface1">
<path style=" stroke:none;fill-rule:nonzero;fill:rgb(30.196078%,30.196078%,30.196078%);fill-opacity:1;" d="M 1 0 L 1 14 L 0 14 L 0 15 L 1 15 L 1 16 L 2 16 L 2 15 L 16 15 L 16 14 L 2 14 L 2 0 Z M 5.5 1 C 4.121094 1 3 2.121094 3 3.5 C 3 4.878906 4.121094 6 5.5 6 C 6.878906 6 8 4.878906 8 3.5 C 8 2.121094 6.878906 1 5.5 1 Z M 13.5 2 C 12.671875 2 12 2.671875 12 3.5 C 12 4.328125 12.671875 5 13.5 5 C 14.328125 5 15 4.328125 15 3.5 C 15 2.671875 14.328125 2 13.5 2 Z M 11 8 C 9.894531 8 9 8.894531 9 10 C 9 11.105469 9.894531 12 11 12 C 12.105469 12 13 11.105469 13 10 C 13 8.894531 12.105469 8 11 8 Z M 4 10 C 3.449219 10 3 10.449219 3 11 C 3 11.550781 3.449219 12 4 12 C 4.550781 12 5 11.550781 5 11 C 5 10.449219 4.550781 10 4 10 Z M 4 10 "/>
</g>
</svg>
