<?xml version="1.0" encoding="UTF-8"?>
<svg xmlns="http://www.w3.org/2000/svg" xmlns:xlink="http://www.w3.org/1999/xlink" width="16pt" height="16pt" viewBox="0 0 16 16" version="1.1">
<g id="surface1">
<path style=" stroke:none;fill-rule:nonzero;fill:rgb(30.196078%,30.196078%,30.196078%);fill-opacity:1;" d="M 1 0 L 1 14 L 0 14 L 0 15 L 1 15 L 1 16 L 2 16 L 2 15 L 16 15 L 16 14 L 2 14 L 2 13 L 5 13 L 5 12.992188 L 5.007812 13 L 7.007812 11 L 8.597656 11 L 10.597656 13 L 16 13 L 16 12 L 11.015625 12 L 9.015625 10 L 6.59375 10 L 4.59375 12 L 2 12 L 2 7 L 5.875 7 L 10 2.875 L 12.121094 5 L 12.125 4.996094 L 12.128906 5 L 14.957031 2.171875 L 16 1.132812 L 15.292969 0.421875 L 12.125 3.589844 L 10 1.464844 L 10 1.46875 L 9.996094 1.464844 L 8.46875 2.992188 L 2 2.992188 L 2 0 Z M 2 3 L 8.460938 3 L 5.460938 6 L 2 6 Z M 2 3 "/>
<path style=" stroke:none;fill-rule:nonzero;fill:rgb(70.196078%,70.196078%,70.196078%);fill-opacity:1;" d="M 15.933594 1.0625 L 16 1.132812 L 16 1.125 Z M 16 1.132812 L 14.957031 2.171875 L 12.128906 5 L 12.125 4.996094 L 12.121094 5 L 10 2.875 L 5.875 7 L 2 7 L 2 12 L 4.59375 12 L 6.59375 10 L 7 10 L 9 9.992188 L 9.007812 10 L 9.015625 10 L 11.003906 11.992188 L 16 12 Z M 7 11 L 5 13 L 2 13 L 2 14 L 16 14 L 16 13 L 10.597656 13 L 8.597656 11 Z M 7 11 "/>
</g>
</svg>
