<?xml version="1.0" encoding="UTF-8"?>
<svg xmlns="http://www.w3.org/2000/svg" xmlns:xlink="http://www.w3.org/1999/xlink" width="16.021484pt" height="16.001953pt" viewBox="0 0 16.021484 16.001953" version="1.1">
<g id="surface1">
<path style=" stroke:none;fill-rule:nonzero;fill:rgb(30.196078%,30.196078%,30.196078%);fill-opacity:1;" d="M 8.007812 0 L 8.007812 1.3125 L 4.457031 5.304688 L 2.742188 4.453125 L 0.46875 3.242188 L 0 4.117188 L 2.304688 5.359375 L 4.007812 6.21875 L 4.007812 11.707031 L 2.179688 13.546875 L 0.390625 15.371094 L 1.039062 16 L 2.867188 14.265625 L 4.601562 12.53125 L 14.328125 14.472656 L 15.335938 15.496094 L 16.023438 14.71875 L 15.007812 13.6875 L 15.007812 5.234375 L 16.007812 4.765625 L 15.554688 3.835938 L 14.445312 4.382812 L 9.007812 1.210938 L 9.007812 0 Z M 9.007812 2.371094 L 13.371094 4.914062 L 9.023438 7.078125 L 9.023438 7 L 9.007812 5 Z M 8.007812 2.8125 L 8.007812 7.070312 L 5.382812 5.765625 Z M 14.007812 5.726562 L 14.007812 12.6875 L 9.367188 8.046875 Z M 5.007812 6.71875 L 7.648438 8.046875 L 5.007812 10.703125 Z M 8.523438 8.609375 L 13.070312 13.203125 L 5.453125 11.679688 Z M 8.523438 8.609375 "/>
</g>
</svg>
