<?xml version="1.0" encoding="UTF-8"?>
<svg xmlns="http://www.w3.org/2000/svg" xmlns:xlink="http://www.w3.org/1999/xlink" width="17pt" height="16pt" viewBox="0 0 17 16" version="1.1">
<g id="surface1">
<path style=" stroke:none;fill-rule:nonzero;fill:rgb(11.372549%,60%,95.294118%);fill-opacity:1;" d="M 9.734375 0 L 9.277344 0.265625 L 4.351562 3.3125 L 5.007812 4.339844 L 9.503906 1.5625 L 14.082031 6.660156 L 15.003906 5.863281 L 10.082031 0.382812 Z M 9.734375 0 "/>
<path style=" stroke:none;fill-rule:nonzero;fill:rgb(30.196078%,30.196078%,30.196078%);fill-opacity:1;" d="M 1 0 L 1 14 L 0 14 L 0 15 L 1 15 L 1 16 L 2 16 L 2 15 L 17 15 L 17 14 L 16 14 L 16 8 L 13 8 L 13 14 L 11 14 L 11 4 L 8 4 L 8 14 L 6 14 L 6 6 L 3 6 L 3 14 L 2 14 L 2 0 Z M 1 0 "/>
</g>
</svg>
