<?xml version="1.0" encoding="UTF-8"?>
<svg xmlns="http://www.w3.org/2000/svg" xmlns:xlink="http://www.w3.org/1999/xlink" width="17pt" height="17pt" viewBox="0 0 17 17" version="1.1">
<g id="surface1">
<path style=" stroke:none;fill-rule:nonzero;fill:rgb(30.196078%,30.196078%,30.196078%);fill-opacity:1;" d="M 1 1 L 1 15 L 0 15 L 0 16 L 1 16 L 1 17 L 2 17 L 2 16 L 17 16 L 17 15 L 16 15 L 16 5 L 13 5 L 13 15 L 11 15 L 11 9 L 8 9 L 8 15 L 6 15 L 6 7 L 3 7 L 3 15 L 2 15 L 2 1 Z M 1 1 "/>
<path style=" stroke:none;fill-rule:nonzero;fill:rgb(11.372549%,60%,95.294118%);fill-opacity:1;" d="M 14 0 L 14 3 L 15 3 L 15 2 L 16 2 L 16 1 L 15 1 L 15 0 Z M 4 2 L 4 5 L 5 5 L 5 4 L 6 4 L 6 3 L 5 3 L 5 2 Z M 9 4 L 9 7 L 10 7 L 10 6 L 11 6 L 11 5 L 10 5 L 10 4 Z M 9 4 "/>
</g>
</svg>
