<?xml version="1.0" encoding="UTF-8"?>
<svg xmlns="http://www.w3.org/2000/svg" xmlns:xlink="http://www.w3.org/1999/xlink" width="16pt" height="16.003906pt" viewBox="0 0 16 16.003906" version="1.1">
<g id="surface1">
<path style=" stroke:none;fill-rule:nonzero;fill:rgb(30.196078%,30.196078%,30.196078%);fill-opacity:1;" d="M 1 0 L 1 14.003906 L 0 14.003906 L 0 15.003906 L 1 15.003906 L 1 16.003906 L 2 16.003906 L 2 15.003906 L 16 15.003906 L 16 14.003906 L 2 14.003906 L 2 0 Z M 14 0.00390625 L 14 1.003906 L 15 1.003906 L 15 0.00390625 Z M 15 1.003906 L 15 2.003906 L 16 2.003906 L 16 1.003906 Z M 15 2.003906 L 14 2.003906 L 14 3.003906 L 15 3.003906 Z M 14 2.003906 L 14 1.003906 L 13 1.003906 L 13 2.003906 Z M 3 1.003906 L 3 2.003906 L 4 2.003906 L 4 1.003906 Z M 5 1.003906 L 5 2.003906 L 6 2.003906 L 6 1.003906 Z M 3 3.003906 L 3 4.003906 L 4 4.003906 L 4 3.003906 Z M 5 3.003906 L 5 4.003906 L 6 4.003906 L 6 3.003906 Z M 8 4.003906 L 8 5.003906 L 9 5.003906 L 9 4.003906 Z M 10 4.003906 L 10 5.003906 L 11 5.003906 L 11 4.003906 Z M 8 6.003906 L 8 7.003906 L 9 7.003906 L 9 6.003906 Z M 10 6.003906 L 10 7.003906 L 11 7.003906 L 11 6.003906 Z M 4 10.003906 L 4 11.003906 L 5 11.003906 L 5 10.003906 Z M 5 11.003906 L 5 12.003906 L 6 12.003906 L 6 11.003906 Z M 5 12.003906 L 4 12.003906 L 4 13.003906 L 5 13.003906 Z M 4 12.003906 L 4 11.003906 L 3 11.003906 L 3 12.003906 Z M 4 12.003906 "/>
</g>
</svg>
