<?xml version="1.0" encoding="UTF-8"?>
<svg xmlns="http://www.w3.org/2000/svg" xmlns:xlink="http://www.w3.org/1999/xlink" width="60pt" height="52pt" viewBox="0 0 60 52" version="1.1">
<g id="surface1">
<rect x="0" y="0" width="60" height="52" style="fill:rgb(100%,100%,100%);fill-opacity:1;stroke:none;"/>
<path style=" stroke:none;fill-rule:nonzero;fill:rgb(30.196078%,30.196078%,30.196078%);fill-opacity:1;" d="M 29 6 L 29 28.632812 L 9.832031 17.566406 L 9.332031 18.433594 L 28.5 29.5 L 28.5 29.792969 L 12.882812 45.410156 L 13.589844 46.117188 L 29.5 30.207031 L 45.410156 46.117188 L 46.117188 45.410156 L 30.5 29.792969 L 30.5 29.5 L 49.667969 18.433594 L 49.167969 17.566406 L 30 28.632812 L 30 6 Z M 29 6 "/>
<path style=" stroke:none;fill-rule:nonzero;fill:rgb(96.470588%,14.117647%,34.901961%);fill-opacity:1;" d="M 19 24 L 20 24 L 20 25 L 19 25 Z M 19 24 "/>
<path style=" stroke:none;fill-rule:nonzero;fill:rgb(96.470588%,14.117647%,34.901961%);fill-opacity:1;" d="M 20 23 L 21 23 L 21 24 L 20 24 Z M 20 23 "/>
<path style=" stroke:none;fill-rule:nonzero;fill:rgb(96.470588%,14.117647%,34.901961%);fill-opacity:1;" d="M 19 22 L 20 22 L 20 23 L 19 23 Z M 19 22 "/>
<path style=" stroke:none;fill-rule:nonzero;fill:rgb(96.470588%,14.117647%,34.901961%);fill-opacity:1;" d="M 18 23 L 19 23 L 19 24 L 18 24 Z M 18 23 "/>
<path style=" stroke:none;fill-rule:nonzero;fill:rgb(100%,100%,100%);fill-opacity:1;" d="M 19 23 L 20 23 L 20 24 L 19 24 Z M 19 23 "/>
<path style=" stroke:none;fill-rule:nonzero;fill:rgb(13.333333%,65.490196%,94.117647%);fill-opacity:1;" d="M 47 17 L 50 17 L 50 20 L 47 20 Z M 47 17 "/>
<path style=" stroke:none;fill-rule:nonzero;fill:rgb(100%,100%,100%);fill-opacity:1;" d="M 48 18 L 49 18 L 49 19 L 48 19 Z M 48 18 "/>
<path style=" stroke:none;fill-rule:nonzero;fill:rgb(13.333333%,65.490196%,94.117647%);fill-opacity:1;" d="M 41 41 L 44 41 L 44 44 L 41 44 Z M 41 41 "/>
<path style=" stroke:none;fill-rule:nonzero;fill:rgb(100%,100%,100%);fill-opacity:1;" d="M 42 42 L 43 42 L 43 43 L 42 43 Z M 42 42 "/>
<path style=" stroke:none;fill-rule:nonzero;fill:rgb(13.333333%,65.490196%,94.117647%);fill-opacity:1;" d="M 18 38 L 21 38 L 21 41 L 18 41 Z M 18 38 "/>
<path style=" stroke:none;fill-rule:nonzero;fill:rgb(100%,100%,100%);fill-opacity:1;" d="M 19 39 L 20 39 L 20 40 L 19 40 Z M 19 39 "/>
<path style=" stroke:none;fill-rule:nonzero;fill:rgb(13.333333%,65.490196%,94.117647%);fill-opacity:1;" d="M 9 17 L 12 17 L 12 20 L 9 20 Z M 9 17 "/>
<path style=" stroke:none;fill-rule:nonzero;fill:rgb(100%,100%,100%);fill-opacity:1;" d="M 10 18 L 11 18 L 11 19 L 10 19 Z M 10 18 "/>
<path style=" stroke:none;fill-rule:nonzero;fill:rgb(13.333333%,65.490196%,94.117647%);fill-opacity:1;" d="M 28 7 L 31 7 L 31 10 L 28 10 Z M 28 7 "/>
<path style=" stroke:none;fill-rule:nonzero;fill:rgb(100%,100%,100%);fill-opacity:1;" d="M 29 8 L 30 8 L 30 9 L 29 9 Z M 29 8 "/>
<path style=" stroke:none;fill-rule:nonzero;fill:rgb(96.470588%,14.117647%,34.901961%);fill-opacity:1;" d="M 29 15 L 30 15 L 30 16 L 29 16 Z M 29 15 "/>
<path style=" stroke:none;fill-rule:nonzero;fill:rgb(96.470588%,14.117647%,34.901961%);fill-opacity:1;" d="M 30 14 L 31 14 L 31 15 L 30 15 Z M 30 14 "/>
<path style=" stroke:none;fill-rule:nonzero;fill:rgb(96.470588%,14.117647%,34.901961%);fill-opacity:1;" d="M 29 13 L 30 13 L 30 14 L 29 14 Z M 29 13 "/>
<path style=" stroke:none;fill-rule:nonzero;fill:rgb(96.470588%,14.117647%,34.901961%);fill-opacity:1;" d="M 28 14 L 29 14 L 29 15 L 28 15 Z M 28 14 "/>
<path style=" stroke:none;fill-rule:nonzero;fill:rgb(100%,100%,100%);fill-opacity:1;" d="M 29 14 L 30 14 L 30 15 L 29 15 Z M 29 14 "/>
<path style=" stroke:none;fill-rule:nonzero;fill:rgb(96.470588%,14.117647%,34.901961%);fill-opacity:1;" d="M 43 22 L 44 22 L 44 23 L 43 23 Z M 43 22 "/>
<path style=" stroke:none;fill-rule:nonzero;fill:rgb(96.470588%,14.117647%,34.901961%);fill-opacity:1;" d="M 44 21 L 45 21 L 45 22 L 44 22 Z M 44 21 "/>
<path style=" stroke:none;fill-rule:nonzero;fill:rgb(96.470588%,14.117647%,34.901961%);fill-opacity:1;" d="M 43 20 L 44 20 L 44 21 L 43 21 Z M 43 20 "/>
<path style=" stroke:none;fill-rule:nonzero;fill:rgb(96.470588%,14.117647%,34.901961%);fill-opacity:1;" d="M 42 21 L 43 21 L 43 22 L 42 22 Z M 42 21 "/>
<path style=" stroke:none;fill-rule:nonzero;fill:rgb(100%,100%,100%);fill-opacity:1;" d="M 43 21 L 44 21 L 44 22 L 43 22 Z M 43 21 "/>
<path style=" stroke:none;fill-rule:nonzero;fill:rgb(96.470588%,14.117647%,34.901961%);fill-opacity:1;" d="M 38 39 L 39 39 L 39 40 L 38 40 Z M 38 39 "/>
<path style=" stroke:none;fill-rule:nonzero;fill:rgb(96.470588%,14.117647%,34.901961%);fill-opacity:1;" d="M 39 38 L 40 38 L 40 39 L 39 39 Z M 39 38 "/>
<path style=" stroke:none;fill-rule:nonzero;fill:rgb(96.470588%,14.117647%,34.901961%);fill-opacity:1;" d="M 38 37 L 39 37 L 39 38 L 38 38 Z M 38 37 "/>
<path style=" stroke:none;fill-rule:nonzero;fill:rgb(96.470588%,14.117647%,34.901961%);fill-opacity:1;" d="M 37 38 L 38 38 L 38 39 L 37 39 Z M 37 38 "/>
<path style=" stroke:none;fill-rule:nonzero;fill:rgb(100%,100%,100%);fill-opacity:1;" d="M 38 38 L 39 38 L 39 39 L 38 39 Z M 38 38 "/>
<path style=" stroke:none;fill-rule:nonzero;fill:rgb(96.470588%,14.117647%,34.901961%);fill-opacity:1;" d="M 22 37 L 23 37 L 23 38 L 22 38 Z M 22 37 "/>
<path style=" stroke:none;fill-rule:nonzero;fill:rgb(96.470588%,14.117647%,34.901961%);fill-opacity:1;" d="M 23 36 L 24 36 L 24 37 L 23 37 Z M 23 36 "/>
<path style=" stroke:none;fill-rule:nonzero;fill:rgb(96.470588%,14.117647%,34.901961%);fill-opacity:1;" d="M 22 35 L 23 35 L 23 36 L 22 36 Z M 22 35 "/>
<path style=" stroke:none;fill-rule:nonzero;fill:rgb(96.470588%,14.117647%,34.901961%);fill-opacity:1;" d="M 21 36 L 22 36 L 22 37 L 21 37 Z M 21 36 "/>
<path style=" stroke:none;fill-rule:nonzero;fill:rgb(100%,100%,100%);fill-opacity:1;" d="M 22 36 L 23 36 L 23 37 L 22 37 Z M 22 36 "/>
</g>
</svg>
