<?xml version="1.0" encoding="UTF-8"?>
<svg xmlns="http://www.w3.org/2000/svg" xmlns:xlink="http://www.w3.org/1999/xlink" width="60pt" height="52pt" viewBox="0 0 60 52" version="1.1">
<g id="surface1">
<rect x="0" y="0" width="60" height="52" style="fill:rgb(100%,100%,100%);fill-opacity:1;stroke:none;"/>
<path style=" stroke:none;fill-rule:nonzero;fill:rgb(30.196078%,30.196078%,30.196078%);fill-opacity:1;" d="M 3 45 L 55 45 L 55 46 L 3 46 Z M 3 45 "/>
<path style=" stroke:none;fill-rule:nonzero;fill:rgb(30.196078%,30.196078%,30.196078%);fill-opacity:1;" d="M 6 3 L 7 3 L 7 49 L 6 49 Z M 6 3 "/>
<path style=" stroke:none;fill-rule:nonzero;fill:rgb(54.509804%,81.960784%,96.862745%);fill-opacity:1;" d="M 14.191406 8.300781 C 16.863281 6.519531 16.691406 5.078125 28.695312 2.976562 L 25.71875 5.933594 C 20.367188 6.222656 15.921875 8.835938 11.285156 10.957031 Z M 14.191406 8.300781 "/>
<path style=" stroke:none;fill-rule:nonzero;fill:rgb(38.431373%,75.686275%,95.686275%);fill-opacity:1;" d="M 28.636719 3 C 28.933594 3.054688 29.285156 3.804688 29.433594 4.113281 C 34.21875 13.882812 37.914062 25.808594 43.617188 32.664062 L 40.570312 35.800781 C 35.566406 37.921875 32.84375 19.101562 29.019531 10.375 L 25.667969 5.933594 Z M 28.636719 3 "/>
<path style=" stroke:none;fill-rule:nonzero;fill:rgb(54.509804%,81.960784%,96.862745%);fill-opacity:1;" d="M 43.582031 32.644531 C 45.632812 33.449219 48.105469 29.558594 51.007812 27.421875 L 51.152344 27.589844 C 47.066406 37.765625 43.496094 36.816406 40.222656 36.089844 Z M 43.582031 32.644531 "/>
<path style=" stroke:none;fill-rule:nonzero;fill:rgb(97.254902%,33.72549%,49.803922%);fill-opacity:1;" d="M 44.292969 5.945312 C 49.902344 7.230469 53.019531 10.992188 54.96875 13.460938 L 51.84375 15.386719 C 49.332031 12.453125 46.605469 9.410156 41.292969 8.945312 Z M 44.292969 5.945312 "/>
<path style=" stroke:none;fill-rule:nonzero;fill:rgb(98.039216%,52.54902%,64.313725%);fill-opacity:1;" d="M 20.433594 30.230469 C 21.382812 29.71875 22.035156 30.109375 22.785156 29.429688 C 23.617188 28.671875 24.472656 28.253906 25.230469 27.480469 C 35.273438 17.265625 39.121094 5.816406 44.285156 5.929688 L 41.441406 8.992188 L 37.761719 11.410156 C 31.988281 17.625 26.21875 24.554688 20.445312 29.792969 Z M 20.433594 30.230469 "/>
<path style=" stroke:none;fill-rule:nonzero;fill:rgb(97.254902%,33.72549%,49.803922%);fill-opacity:1;" d="M 15.777344 19.410156 L 23.570312 26.839844 L 20.441406 30.089844 C 14.90625 29.921875 13.035156 26.082031 11.976562 21.433594 Z M 15.777344 19.410156 "/>
<path style="fill:none;stroke-width:1;stroke-linecap:butt;stroke-linejoin:miter;stroke:rgb(13.333333%,65.490196%,94.117647%);stroke-opacity:1;stroke-miterlimit:4;" d="M 11.5 1011.760638 C 11.5 1011.760638 18.015625 1003.752825 25.5 1006.760638 C 32.984375 1009.76845 32.730469 1035.077044 40.5 1036.760638 C 48.269531 1038.444231 51.5 1027.8622 51.5 1027.8622 " transform="matrix(1,0,0,1,0,-1000.3622)"/>
<path style="fill:none;stroke-width:1;stroke-linecap:butt;stroke-linejoin:miter;stroke:rgb(96.470588%,14.117647%,34.901961%);stroke-opacity:1;stroke-miterlimit:4;" d="M 11.5 1021.8622 C 11.5 1021.8622 13.429688 1030.8622 20.5 1030.8622 C 27.570312 1030.8622 34.660156 1010.70595 41.5 1009.8622 C 48.339844 1009.01845 51.5 1015.8622 51.5 1015.8622 " transform="matrix(1,0,0,1,0,-1000.3622)"/>
</g>
</svg>
