<?xml version="1.0" encoding="UTF-8"?>
<svg xmlns="http://www.w3.org/2000/svg" xmlns:xlink="http://www.w3.org/1999/xlink" width="60pt" height="52pt" viewBox="0 0 60 52" version="1.1">
<g id="surface1">
<rect x="0" y="0" width="60" height="52" style="fill:rgb(100%,100%,100%);fill-opacity:1;stroke:none;"/>
<path style=" stroke:none;fill-rule:nonzero;fill:rgb(30.196078%,30.196078%,30.196078%);fill-opacity:1;" d="M 3 45 L 55 45 L 55 46 L 3 46 Z M 3 45 "/>
<path style=" stroke:none;fill-rule:nonzero;fill:rgb(30.196078%,30.196078%,30.196078%);fill-opacity:1;" d="M 6 3 L 7 3 L 7 49 L 6 49 Z M 6 3 "/>
<path style=" stroke:none;fill-rule:nonzero;fill:rgb(13.333333%,65.490196%,94.117647%);fill-opacity:1;" d="M 11 11 L 26 11 L 26 12 L 11 12 Z M 11 11 "/>
<path style=" stroke:none;fill-rule:nonzero;fill:rgb(13.333333%,65.490196%,94.117647%);fill-opacity:1;" d="M 25 6 L 26 6 L 26 11 L 25 11 Z M 25 6 "/>
<path style=" stroke:none;fill-rule:nonzero;fill:rgb(13.333333%,65.490196%,94.117647%);fill-opacity:1;" d="M 36 6 L 37 6 L 37 37 L 36 37 Z M 36 6 "/>
<path style=" stroke:none;fill-rule:nonzero;fill:rgb(13.333333%,65.490196%,94.117647%);fill-opacity:1;" d="M 26 6 L 38 6 L 38 7 L 26 7 Z M 26 6 "/>
<path style=" stroke:none;fill-rule:nonzero;fill:rgb(13.333333%,65.490196%,94.117647%);fill-opacity:1;" d="M 37 36 L 52 36 L 52 37 L 37 37 Z M 37 36 "/>
<path style=" stroke:none;fill-rule:nonzero;fill:rgb(13.333333%,65.490196%,94.117647%);fill-opacity:1;" d="M 51 27 L 52 27 L 52 36 L 51 36 Z M 51 27 "/>
<path style=" stroke:none;fill-rule:nonzero;fill:rgb(96.470588%,14.117647%,34.901961%);fill-opacity:1;" d="M 11 21 L 21 21 L 21 22 L 11 22 Z M 11 21 "/>
<path style=" stroke:none;fill-rule:nonzero;fill:rgb(96.470588%,14.117647%,34.901961%);fill-opacity:1;" d="M 20 22 L 21 22 L 21 31 L 20 31 Z M 20 22 "/>
<path style=" stroke:none;fill-rule:nonzero;fill:rgb(96.470588%,14.117647%,34.901961%);fill-opacity:1;" d="M 41 9 L 52 9 L 52 10 L 41 10 Z M 41 9 "/>
<path style=" stroke:none;fill-rule:nonzero;fill:rgb(96.470588%,14.117647%,34.901961%);fill-opacity:1;" d="M 51 9 L 52 9 L 52 16 L 51 16 Z M 51 9 "/>
<path style=" stroke:none;fill-rule:evenodd;fill:rgb(54.509804%,81.960784%,96.862745%);fill-opacity:1;" d="M 51 36 L 37 36 L 40 33 L 51 33 Z M 51 36 "/>
<path style=" stroke:none;fill-rule:evenodd;fill:rgb(97.254902%,33.72549%,49.803922%);fill-opacity:1;" d="M 42 10 L 42 31 L 45 28 L 45 10 Z M 42 10 "/>
<path style=" stroke:none;fill-rule:evenodd;fill:rgb(38.431373%,75.686275%,95.686275%);fill-opacity:1;" d="M 37 6 L 37 36 L 40 33 L 40 3 Z M 37 6 "/>
<path style=" stroke:none;fill-rule:evenodd;fill:rgb(98.039216%,52.54902%,64.313725%);fill-opacity:1;" d="M 41 30 L 21 30 L 24 27 L 41 27 Z M 41 30 "/>
<path style=" stroke:none;fill-rule:evenodd;fill:rgb(97.254902%,33.72549%,49.803922%);fill-opacity:1;" d="M 21 21 L 21 30 L 24 27 L 24 18 Z M 21 21 "/>
<path style=" stroke:none;fill-rule:evenodd;fill:rgb(97.254902%,33.72549%,49.803922%);fill-opacity:1;" d="M 52 9 L 52 16 L 55 13 L 55 6 Z M 52 9 "/>
<path style=" stroke:none;fill-rule:evenodd;fill:rgb(54.509804%,81.960784%,96.862745%);fill-opacity:1;" d="M 37 6 L 25 6 L 28 3 L 40 3 Z M 37 6 "/>
<path style=" stroke:none;fill-rule:evenodd;fill:rgb(54.509804%,81.960784%,96.862745%);fill-opacity:1;" d="M 25 11 L 11 11 L 14 8 L 25 8 Z M 25 11 "/>
<path style=" stroke:none;fill-rule:evenodd;fill:rgb(38.431373%,75.686275%,95.686275%);fill-opacity:1;" d="M 26 7 L 26 12 L 29 9 L 29 7 Z M 26 7 "/>
<path style=" stroke:none;fill-rule:evenodd;fill:rgb(38.431373%,75.686275%,95.686275%);fill-opacity:1;" d="M 52 27 L 52 37 L 55 34 L 55 27 Z M 52 27 "/>
<path style=" stroke:none;fill-rule:evenodd;fill:rgb(98.039216%,52.54902%,64.313725%);fill-opacity:1;" d="M 21 21 L 11 21 L 14 18 L 24 18 Z M 21 21 "/>
<path style=" stroke:none;fill-rule:evenodd;fill:rgb(98.039216%,52.54902%,64.313725%);fill-opacity:1;" d="M 52 9 L 41 9 L 44 6 L 55 6 Z M 52 9 "/>
<path style=" stroke:none;fill-rule:nonzero;fill:rgb(96.470588%,14.117647%,34.901961%);fill-opacity:1;" d="M 21 30 L 42 30 L 42 31 L 21 31 Z M 21 30 "/>
<path style=" stroke:none;fill-rule:nonzero;fill:rgb(96.470588%,14.117647%,34.901961%);fill-opacity:1;" d="M 41 9 L 42 9 L 42 31 L 41 31 Z M 41 9 "/>
</g>
</svg>
