<?xml version="1.0" encoding="UTF-8"?>
<svg xmlns="http://www.w3.org/2000/svg" xmlns:xlink="http://www.w3.org/1999/xlink" width="60pt" height="52pt" viewBox="0 0 60 52" version="1.1">
<g id="surface1">
<rect x="0" y="0" width="60" height="52" style="fill:rgb(100%,100%,100%);fill-opacity:1;stroke:none;"/>
<path style=" stroke:none;fill-rule:nonzero;fill:rgb(30.196078%,30.196078%,30.196078%);fill-opacity:1;" d="M 3 45 L 55 45 L 55 46 L 3 46 Z M 3 45 "/>
<path style=" stroke:none;fill-rule:nonzero;fill:rgb(30.196078%,30.196078%,30.196078%);fill-opacity:1;" d="M 6 3 L 7 3 L 7 49 L 6 49 Z M 6 3 "/>
<path style="fill:none;stroke-width:1;stroke-linecap:butt;stroke-linejoin:miter;stroke:rgb(13.333333%,65.490196%,94.117647%);stroke-opacity:1;stroke-miterlimit:4;" d="M 11.5 1011.760638 C 11.5 1011.760638 18.015625 1003.752825 25.5 1006.760638 C 32.984375 1009.76845 32.730469 1035.077044 40.5 1036.760638 C 48.269531 1038.444231 51.5 1027.8622 51.5 1027.8622 " transform="matrix(1,0,0,1,0,-1000.3622)"/>
<path style="fill:none;stroke-width:1;stroke-linecap:butt;stroke-linejoin:miter;stroke:rgb(96.470588%,14.117647%,34.901961%);stroke-opacity:1;stroke-miterlimit:4;" d="M 11.5 1021.8622 C 11.5 1021.8622 13.429688 1030.8622 20.5 1030.8622 C 27.570312 1030.8622 34.660156 1010.70595 41.5 1009.8622 C 48.339844 1009.01845 51.5 1015.8622 51.5 1015.8622 " transform="matrix(1,0,0,1,0,-1000.3622)"/>
</g>
</svg>
