<?xml version="1.0" encoding="UTF-8"?>
<svg xmlns="http://www.w3.org/2000/svg" xmlns:xlink="http://www.w3.org/1999/xlink" width="60pt" height="52pt" viewBox="0 0 60 52" version="1.1">
<defs>
<radialGradient id="radial0" gradientUnits="userSpaceOnUse" cx="30" cy="1026.3622" fx="30" fy="1026.3622" r="23" gradientTransform="matrix(1,0,0,0.934783,0,-934.92552)">
<stop offset="0" style="stop-color:rgb(13.333333%,65.490196%,94.117647%);stop-opacity:1;"/>
<stop offset="1" style="stop-color:rgb(9.803922%,70.980392%,99.607843%);stop-opacity:1;"/>
</radialGradient>
<radialGradient id="radial1" gradientUnits="userSpaceOnUse" cx="30" cy="21.246092" fx="30" fy="21.246092" r="16.253906" gradientTransform="matrix(-1.415045,0,0,-1.322759,72.45133,52.6035)">
<stop offset="0" style="stop-color:rgb(96.470588%,14.117647%,34.901961%);stop-opacity:1;"/>
<stop offset="1" style="stop-color:rgb(96.862745%,21.568627%,40.784314%);stop-opacity:1;"/>
</radialGradient>
</defs>
<g id="surface1">
<rect x="0" y="0" width="60" height="52" style="fill:rgb(100%,100%,100%);fill-opacity:1;stroke:none;"/>
<path style=" stroke:none;fill-rule:nonzero;fill:rgb(54.509804%,81.960784%,96.862745%);fill-opacity:1;" d="M 7.03125 25.085938 C 7.015625 25.390625 7.003906 25.695312 7 26 C 7.003906 32.097656 9.433594 37.945312 13.75 42.257812 L 13.75 39.691406 L 13.746094 39.691406 C 9.59375 35.800781 7.191406 30.574219 7.03125 25.085938 Z M 52.964844 25.277344 C 52.753906 30.703125 50.355469 35.851562 46.253906 39.695312 L 46.25 39.695312 L 46.25 42.261719 C 50.566406 37.949219 52.996094 32.101562 53 26.003906 C 52.992188 25.761719 52.980469 25.519531 52.964844 25.277344 Z M 52.964844 25.277344 "/>
<path style=" stroke:none;fill-rule:nonzero;fill:rgb(98.039216%,52.54902%,64.313725%);fill-opacity:1;" d="M 13.75 38.566406 L 13.75 42.257812 C 18.058594 46.570312 23.902344 48.996094 30 49 C 36.097656 48.996094 41.941406 46.570312 46.25 42.257812 L 46.25 38.566406 Z M 13.75 38.566406 "/>
<path style=" stroke:none;fill-rule:nonzero;fill:url(#radial0);" d="M 30 3 C 17.296875 3 7 12.625 7 24.5 C 7.003906 30.199219 9.429688 35.664062 13.746094 39.695312 L 30 24.5 L 46.253906 39.695312 C 50.570312 35.664062 52.996094 30.199219 53 24.5 C 53 12.625 42.703125 3 30 3 Z M 46.246094 39.703125 C 45.902344 40.015625 45.546875 40.320312 45.183594 40.613281 C 45.546875 40.320312 45.902344 40.015625 46.246094 39.703125 Z M 13.792969 39.734375 C 14.3125 40.21875 14.859375 40.679688 15.425781 41.117188 C 14.859375 40.679688 14.3125 40.21875 13.792969 39.734375 Z M 44.679688 41.023438 C 44.253906 41.355469 43.8125 41.667969 43.355469 41.96875 C 43.8125 41.667969 44.253906 41.355469 44.679688 41.023438 Z M 15.597656 41.238281 C 16.132812 41.644531 16.6875 42.027344 17.261719 42.386719 C 16.6875 42.027344 16.132812 41.644531 15.597656 41.238281 Z M 42.8125 42.335938 C 42.367188 42.609375 41.917969 42.867188 41.457031 43.113281 C 41.917969 42.867188 42.367188 42.609375 42.8125 42.335938 Z M 17.5625 42.558594 C 18.09375 42.886719 18.644531 43.1875 19.203125 43.472656 C 18.644531 43.1875 18.09375 42.886719 17.5625 42.558594 Z M 40.832031 43.449219 C 40.378906 43.671875 39.917969 43.878906 39.453125 44.070312 C 39.917969 43.878906 40.378906 43.671875 40.832031 43.449219 Z M 19.746094 43.714844 C 20.242188 43.953125 20.75 44.175781 21.265625 44.378906 C 20.75 44.175781 20.242188 43.953125 19.746094 43.714844 Z M 38.734375 44.371094 C 38.28125 44.542969 37.820312 44.699219 37.359375 44.84375 C 37.820312 44.699219 38.28125 44.542969 38.734375 44.371094 Z M 21.9375 44.605469 C 22.425781 44.785156 22.921875 44.945312 23.421875 45.09375 C 22.921875 44.945312 22.425781 44.785156 21.9375 44.605469 Z M 36.550781 45.09375 C 36.097656 45.214844 35.640625 45.324219 35.175781 45.421875 C 35.640625 45.324219 36.097656 45.214844 36.550781 45.09375 Z M 24.203125 45.277344 C 24.675781 45.398438 25.152344 45.507812 25.636719 45.601562 C 25.152344 45.507812 24.675781 45.398438 24.203125 45.277344 Z M 34.308594 45.605469 C 33.875 45.675781 33.4375 45.738281 33 45.789062 C 33.4375 45.738281 33.875 45.675781 34.308594 45.605469 Z M 26.554688 45.730469 C 27 45.800781 27.449219 45.855469 27.902344 45.902344 C 27.449219 45.855469 27 45.800781 26.554688 45.730469 Z M 31.980469 45.90625 C 31.320312 45.964844 30.660156 45.996094 30 46 C 30.660156 45.996094 31.320312 45.964844 31.980469 45.90625 Z M 31.980469 45.90625 "/>
<path style=" stroke:none;fill-rule:evenodd;fill:url(#radial1);" d="M 30 24.5 L 13.746094 39.695312 C 18.054688 43.726562 23.902344 45.996094 30 46 C 36.097656 45.996094 41.945312 43.726562 46.253906 39.695312 Z M 30 24.5 "/>
</g>
</svg>
