<?xml version="1.0" encoding="UTF-8"?>
<svg xmlns="http://www.w3.org/2000/svg" xmlns:xlink="http://www.w3.org/1999/xlink" width="60pt" height="52pt" viewBox="0 0 60 52" version="1.1">
<defs>
<radialGradient id="radial0" gradientUnits="userSpaceOnUse" cx="30" cy="1026.3622" fx="30" fy="1026.3622" r="23" gradientTransform="matrix(1,0,0,0.926719,0,-926.834791)">
<stop offset="0" style="stop-color:rgb(13.333333%,65.490196%,94.117647%);stop-opacity:1;"/>
<stop offset="1" style="stop-color:rgb(9.803922%,70.980392%,99.607843%);stop-opacity:1;"/>
</radialGradient>
<radialGradient id="radial1" gradientUnits="userSpaceOnUse" cx="30" cy="21.246092" fx="30" fy="21.246092" r="16.253906" gradientTransform="matrix(-1.415045,0,0,-1.311349,72.45133,52.1756)">
<stop offset="0" style="stop-color:rgb(96.470588%,14.117647%,34.901961%);stop-opacity:1;"/>
<stop offset="1" style="stop-color:rgb(96.862745%,21.568627%,40.784314%);stop-opacity:1;"/>
</radialGradient>
</defs>
<g id="surface1">
<rect x="0" y="0" width="60" height="52" style="fill:rgb(100%,100%,100%);fill-opacity:1;stroke:none;"/>
<path style=" stroke:none;fill-rule:nonzero;fill:rgb(54.509804%,81.960784%,96.862745%);fill-opacity:1;" d="M 7.03125 25.363281 C 7.019531 25.574219 7.003906 25.789062 7 26.003906 C 7.007812 31.738281 9.128906 37.222656 13 41.457031 L 13 38.617188 C 9.410156 34.964844 7.304688 30.277344 7.03125 25.363281 Z M 13 41.457031 L 13.003906 41.457031 L 29.226562 26.492188 L 29.933594 25.855469 L 30.640625 26.492188 L 47.007812 41.4375 C 47.445312 40.992188 47.707031 40.617188 48.105469 40.144531 C 50.917969 36.539062 52.59375 32.179688 52.917969 27.617188 C 52.921875 27.460938 52.929688 27.304688 52.933594 27.148438 C 52.933594 26.816406 52.921875 26.488281 52.90625 26.160156 C 52.457031 30.777344 50.390625 35.152344 47 38.601562 L 47 41.425781 L 30.640625 26.488281 L 29.933594 25.851562 L 29.226562 26.488281 L 13.003906 41.453125 L 13 41.453125 Z M 13 41.457031 "/>
<path style=" stroke:none;fill-rule:nonzero;fill:rgb(98.039216%,52.54902%,64.313725%);fill-opacity:1;" d="M 14.5 40 L 14.5 42.933594 C 18.726562 46.820312 24.257812 48.984375 30 49 C 35.742188 48.988281 41.269531 46.828125 45.5 42.945312 L 45.5 40 Z M 14.5 40 "/>
<path style=" stroke:none;fill-rule:nonzero;fill:url(#radial0);" d="M 30 3 C 17.296875 3 7 12.542969 7 24.316406 C 7.011719 29.640625 9.175781 34.773438 13.070312 38.695312 L 29.292969 23.660156 L 30 23.023438 L 30.707031 23.660156 L 46.925781 38.691406 C 50.816406 34.769531 52.984375 29.640625 53 24.316406 C 53 12.542969 42.703125 3 30 3 Z M 30 3 "/>
<path style=" stroke:none;fill-rule:evenodd;fill:url(#radial1);" d="M 30 25.625 L 14.488281 40 C 18.71875 43.605469 24.253906 45.613281 30 45.628906 C 35.75 45.617188 41.285156 43.613281 45.519531 40.003906 Z M 30 25.625 "/>
<path style=" stroke:none;fill-rule:nonzero;fill:rgb(38.431373%,75.686275%,95.686275%);fill-opacity:1;" d="M 30 23.027344 L 29.292969 23.660156 L 13.070312 38.695312 C 13.042969 38.671875 13.023438 38.644531 13 38.621094 L 13 41.457031 L 13.003906 41.457031 L 29.226562 26.492188 L 29.933594 25.859375 L 30.640625 26.492188 L 47 41.429688 L 47 38.605469 C 46.972656 38.628906 46.953125 38.660156 46.925781 38.6875 L 30.707031 23.660156 Z M 30 23.027344 "/>
</g>
</svg>
