<?xml version="1.0" encoding="UTF-8"?>
<svg xmlns="http://www.w3.org/2000/svg" xmlns:xlink="http://www.w3.org/1999/xlink" width="60pt" height="52pt" viewBox="0 0 60 52" version="1.1">
<defs>
<radialGradient id="radial0" gradientUnits="userSpaceOnUse" cx="30" cy="1026.3622" fx="30" fy="1026.3622" r="23" gradientTransform="matrix(1,0,0,1,0,-1000.3622)">
<stop offset="0" style="stop-color:rgb(13.333333%,65.490196%,94.117647%);stop-opacity:1;"/>
<stop offset="1" style="stop-color:rgb(9.803922%,70.980392%,99.607843%);stop-opacity:1;"/>
</radialGradient>
<radialGradient id="radial1" gradientUnits="userSpaceOnUse" cx="30" cy="21.246092" fx="30" fy="21.246092" r="16.253906" gradientTransform="matrix(-1.415045,0,0,-1.415044,72.45133,56.0642)">
<stop offset="0" style="stop-color:rgb(96.470588%,14.117647%,34.901961%);stop-opacity:1;"/>
<stop offset="1" style="stop-color:rgb(96.862745%,21.568627%,40.784314%);stop-opacity:1;"/>
</radialGradient>
</defs>
<g id="surface1">
<rect x="0" y="0" width="60" height="52" style="fill:rgb(100%,100%,100%);fill-opacity:1;stroke:none;"/>
<path style=" stroke:none;fill-rule:nonzero;fill:url(#radial0);" d="M 30 3 C 17.296875 3 7 13.296875 7 26 C 7.003906 32.097656 9.429688 37.945312 13.746094 42.253906 L 30 26 L 46.253906 42.253906 C 50.570312 37.945312 52.996094 32.097656 53 26 C 53 13.296875 42.703125 3 30 3 Z M 46.246094 42.261719 C 45.902344 42.597656 45.546875 42.925781 45.183594 43.238281 C 45.546875 42.925781 45.902344 42.597656 46.246094 42.261719 Z M 13.792969 42.296875 C 14.3125 42.816406 14.859375 43.308594 15.425781 43.777344 C 14.859375 43.308594 14.3125 42.816406 13.792969 42.296875 Z M 44.679688 43.675781 C 44.253906 44.03125 43.8125 44.367188 43.355469 44.6875 C 43.8125 44.367188 44.253906 44.03125 44.679688 43.675781 Z M 15.597656 43.90625 C 16.132812 44.339844 16.6875 44.75 17.261719 45.132812 C 16.6875 44.75 16.132812 44.339844 15.597656 43.90625 Z M 42.8125 45.078125 C 42.367188 45.371094 41.917969 45.648438 41.457031 45.910156 C 41.917969 45.648438 42.367188 45.371094 42.8125 45.078125 Z M 17.5625 45.320312 C 18.09375 45.667969 18.644531 45.992188 19.203125 46.292969 C 18.644531 45.992188 18.09375 45.667969 17.5625 45.320312 Z M 40.832031 46.269531 C 40.378906 46.507812 39.917969 46.730469 39.453125 46.9375 C 39.917969 46.730469 40.378906 46.507812 40.832031 46.269531 Z M 19.746094 46.554688 C 20.242188 46.8125 20.75 47.046875 21.265625 47.265625 C 20.75 47.046875 20.242188 46.8125 19.746094 46.554688 Z M 38.734375 47.257812 C 38.28125 47.441406 37.820312 47.609375 37.359375 47.761719 C 37.820312 47.609375 38.28125 47.441406 38.734375 47.257812 Z M 21.9375 47.507812 C 22.425781 47.699219 22.921875 47.871094 23.421875 48.027344 C 22.921875 47.871094 22.425781 47.699219 21.9375 47.507812 Z M 36.550781 48.027344 C 36.097656 48.160156 35.640625 48.277344 35.175781 48.378906 C 35.640625 48.277344 36.097656 48.160156 36.550781 48.027344 Z M 24.203125 48.226562 C 24.675781 48.359375 25.152344 48.472656 25.636719 48.570312 C 25.152344 48.472656 24.675781 48.359375 24.203125 48.226562 Z M 34.308594 48.574219 C 33.875 48.65625 33.4375 48.722656 33 48.777344 C 33.4375 48.722656 33.875 48.65625 34.308594 48.578125 Z M 26.554688 48.710938 C 27 48.785156 27.449219 48.847656 27.902344 48.894531 C 27.449219 48.847656 27 48.785156 26.554688 48.710938 Z M 31.980469 48.898438 C 31.320312 48.960938 30.660156 48.996094 30 49 C 30.660156 48.996094 31.320312 48.960938 31.980469 48.898438 Z M 31.980469 48.898438 "/>
<path style=" stroke:none;fill-rule:evenodd;fill:url(#radial1);" d="M 30 26 L 13.746094 42.253906 C 18.054688 46.570312 23.902344 48.996094 30 49 C 36.097656 48.996094 41.945312 46.570312 46.253906 42.253906 Z M 30 26 "/>
</g>
</svg>
