<?xml version="1.0" encoding="UTF-8"?>
<svg xmlns="http://www.w3.org/2000/svg" xmlns:xlink="http://www.w3.org/1999/xlink" width="60pt" height="52pt" viewBox="0 0 60 52" version="1.1">
<defs>
<linearGradient id="linear0" gradientUnits="userSpaceOnUse" x1="49.5" y1="1046.3621" x2="49.5" y2="1016.3621" gradientTransform="matrix(0,1.666667,-1.4,0,1469.9069,-45)">
<stop offset="0" style="stop-color:rgb(13.333333%,65.490196%,94.117647%);stop-opacity:1;"/>
<stop offset="1" style="stop-color:rgb(9.803922%,70.980392%,99.607843%);stop-opacity:1;"/>
</linearGradient>
<linearGradient id="linear1" gradientUnits="userSpaceOnUse" x1="16.500004" y1="1046.3622" x2="16.500004" y2="1028.3622" gradientTransform="matrix(0,2,-1.5,0,1574.5433,2.9996)">
<stop offset="0" style="stop-color:rgb(96.470588%,14.117647%,34.901961%);stop-opacity:1;"/>
<stop offset="1" style="stop-color:rgb(96.862745%,21.568627%,40.784314%);stop-opacity:1;"/>
</linearGradient>
<linearGradient id="linear2" gradientUnits="userSpaceOnUse" x1="49.5" y1="1046.3621" x2="49.5" y2="1016.3621" gradientTransform="matrix(0,1.666667,-1.4,0,1469.9069,-65)">
<stop offset="0" style="stop-color:rgb(13.333333%,65.490196%,94.117647%);stop-opacity:1;"/>
<stop offset="1" style="stop-color:rgb(9.803922%,70.980392%,99.607843%);stop-opacity:1;"/>
</linearGradient>
<linearGradient id="linear3" gradientUnits="userSpaceOnUse" x1="16.500004" y1="1046.3622" x2="16.500004" y2="1028.3622" gradientTransform="matrix(0,2,-0.944444,0,993.23097,-17.0004)">
<stop offset="0" style="stop-color:rgb(96.470588%,14.117647%,34.901961%);stop-opacity:1;"/>
<stop offset="1" style="stop-color:rgb(96.862745%,21.568627%,40.784314%);stop-opacity:1;"/>
</linearGradient>
</defs>
<g id="surface1">
<rect x="0" y="0" width="60" height="52" style="fill:rgb(100%,100%,100%);fill-opacity:1;stroke:none;"/>
<path style="fill:none;stroke-width:1;stroke-linecap:butt;stroke-linejoin:miter;stroke:rgb(30.196078%,30.196078%,30.196078%);stroke-opacity:1;stroke-miterlimit:4;" d="M 12 1040.3622 L 3 1049.3622 " transform="matrix(1,0,0,1,0,-1000.3622)"/>
<path style=" stroke:none;fill-rule:nonzero;fill:rgb(30.196078%,30.196078%,30.196078%);fill-opacity:1;" d="M 11 40.007812 L 57 40.007812 L 57 40.992188 L 11 40.992188 Z M 11 40.007812 "/>
<path style=" stroke:none;fill-rule:nonzero;fill:rgb(30.196078%,30.196078%,30.196078%);fill-opacity:1;" d="M 11 1 L 12 1 L 12 41 L 11 41 Z M 11 1 "/>
<path style=" stroke:none;fill-rule:nonzero;fill:url(#linear0);" d="M 53 37 L 5 45 L 5 30 Z M 53 37 "/>
<path style=" stroke:none;fill-rule:evenodd;fill:rgb(54.509804%,81.960784%,96.862745%);fill-opacity:1;" d="M 53 37 L 5 30 L 8 27 Z M 53 37 "/>
<path style=" stroke:none;fill-rule:nonzero;fill:url(#linear1);" d="M 5 30 L 5 45 L 32 40.5 L 32 33.9375 Z M 5 30 "/>
<path style=" stroke:none;fill-rule:evenodd;fill:rgb(98.039216%,52.54902%,64.313725%);fill-opacity:1;" d="M 8 27 L 5 30 L 32.054688 33.945312 L 33.363281 32.636719 Z M 8 27 "/>
<path style=" stroke:none;fill-rule:nonzero;fill:url(#linear2);" d="M 53 17 L 5 25 L 5 10 Z M 53 17 "/>
<path style=" stroke:none;fill-rule:evenodd;fill:rgb(54.509804%,81.960784%,96.862745%);fill-opacity:1;" d="M 53 17 L 5 10 L 8 7 Z M 53 17 "/>
<path style=" stroke:none;fill-rule:evenodd;fill:rgb(98.039216%,52.54902%,64.313725%);fill-opacity:1;" d="M 8 7 L 5 10 L 19 12 L 21.09375 9.90625 Z M 8 7 "/>
<path style=" stroke:none;fill-rule:nonzero;fill:url(#linear3);" d="M 5 10 L 5 25 L 19 22.667969 L 19 12.042969 Z M 5 10 "/>
<path style=" stroke:none;fill-rule:nonzero;fill:rgb(100%,100%,100%);fill-opacity:1;" d="M 9 33.5 C 7.894531 33.5 7 34.394531 7 35.5 C 7 36.605469 7.894531 37.5 9 37.5 C 10.105469 37.5 11 36.605469 11 35.5 C 11 34.394531 10.105469 33.5 9 33.5 Z M 9 34.5 C 9.550781 34.5 10 34.949219 10 35.5 C 10 36.050781 9.550781 36.5 9 36.5 C 8.449219 36.5 8 36.050781 8 35.5 C 8 34.949219 8.449219 34.5 9 34.5 Z M 9 34.5 "/>
<path style=" stroke:none;fill-rule:nonzero;fill:rgb(100%,100%,100%);fill-opacity:1;" d="M 13 37.5 C 11.894531 37.5 11 38.394531 11 39.5 C 11 40.605469 11.894531 41.5 13 41.5 C 14.105469 41.5 15 40.605469 15 39.5 C 15 38.394531 14.105469 37.5 13 37.5 Z M 13 38.5 C 13.550781 38.5 14 38.949219 14 39.5 C 14 40.050781 13.550781 40.5 13 40.5 C 12.449219 40.5 12 40.050781 12 39.5 C 12 38.949219 12.449219 38.5 13 38.5 Z M 13 38.5 "/>
<path style=" stroke:none;fill-rule:evenodd;fill:rgb(100%,100%,100%);fill-opacity:1;" d="M 13.601562 33.199219 L 7.601562 41.199219 L 8.398438 41.800781 L 14.398438 33.800781 Z M 13.601562 33.199219 "/>
</g>
</svg>
