<?xml version="1.0" encoding="UTF-8"?>
<svg xmlns="http://www.w3.org/2000/svg" xmlns:xlink="http://www.w3.org/1999/xlink" width="60pt" height="52pt" viewBox="0 0 60 52" version="1.1">
<defs>
<linearGradient id="linear0" gradientUnits="userSpaceOnUse" x1="16.500004" y1="1046.3622" x2="16.500004" y2="1028.3622" gradientTransform="matrix(0.888889,0,0,1.5,-0.66667,-1524.5433)">
<stop offset="0" style="stop-color:rgb(96.470588%,14.117647%,34.901961%);stop-opacity:1;"/>
<stop offset="1" style="stop-color:rgb(96.862745%,21.568627%,40.784314%);stop-opacity:1;"/>
</linearGradient>
<linearGradient id="linear1" gradientUnits="userSpaceOnUse" x1="16.500004" y1="1046.3622" x2="17.625004" y2="1028.3621" gradientTransform="matrix(0.888889,0,0,1.666667,21.33333,-1698.9368)">
<stop offset="0" style="stop-color:rgb(96.470588%,14.117647%,34.901961%);stop-opacity:1;"/>
<stop offset="1" style="stop-color:rgb(96.862745%,21.568627%,40.784314%);stop-opacity:1;"/>
</linearGradient>
<linearGradient id="linear2" gradientUnits="userSpaceOnUse" x1="49.5" y1="1046.3621" x2="50.625" y2="1016.3621" gradientTransform="matrix(0.888889,0,0,1.2,-22,-1210.6345)">
<stop offset="0" style="stop-color:rgb(13.333333%,65.490196%,94.117647%);stop-opacity:1;"/>
<stop offset="1" style="stop-color:rgb(9.803922%,70.980392%,99.607843%);stop-opacity:1;"/>
</linearGradient>
<linearGradient id="linear3" gradientUnits="userSpaceOnUse" x1="49.5" y1="1046.3621" x2="50.625" y2="1016.3621" gradientTransform="matrix(0.888889,0,0,0.7,0,-687.45342)">
<stop offset="0" style="stop-color:rgb(13.333333%,65.490196%,94.117647%);stop-opacity:1;"/>
<stop offset="1" style="stop-color:rgb(9.803922%,70.980392%,99.607843%);stop-opacity:1;"/>
</linearGradient>
</defs>
<g id="surface1">
<rect x="0" y="0" width="60" height="52" style="fill:rgb(100%,100%,100%);fill-opacity:1;stroke:none;"/>
<path style="fill:none;stroke-width:1;stroke-linecap:butt;stroke-linejoin:miter;stroke:rgb(30.196078%,30.196078%,30.196078%);stroke-opacity:1;stroke-miterlimit:4;" d="M 12 1040.3622 L 3 1049.3622 " transform="matrix(1,0,0,1,0,-1000.3622)"/>
<path style=" stroke:none;fill-rule:nonzero;fill:rgb(30.196078%,30.196078%,30.196078%);fill-opacity:1;" d="M 11 40.007812 L 57 40.007812 L 57 40.992188 L 11 40.992188 Z M 11 40.007812 "/>
<path style=" stroke:none;fill-rule:nonzero;fill:rgb(30.196078%,30.196078%,30.196078%);fill-opacity:1;" d="M 11 3 L 12 3 L 12 41 L 11 41 Z M 11 3 "/>
<path style=" stroke:none;fill-rule:nonzero;fill:url(#linear0);" d="M 15 16 L 18 45 L 10 45 Z M 15 16 "/>
<path style=" stroke:none;fill-rule:nonzero;fill:url(#linear1);" d="M 37 15 L 40 45 L 32 45 Z M 37 15 "/>
<path style=" stroke:none;fill-rule:evenodd;fill:rgb(38.431373%,75.686275%,95.686275%);fill-opacity:1;" d="M 23 9 L 26 45 L 29 42 Z M 23 9 "/>
<path style=" stroke:none;fill-rule:evenodd;fill:rgb(38.431373%,75.686275%,95.686275%);fill-opacity:1;" d="M 45 24 L 48 45 L 51 42 Z M 45 24 "/>
<path style=" stroke:none;fill-rule:evenodd;fill:rgb(97.254902%,33.72549%,49.803922%);fill-opacity:1;" d="M 37 15 L 40 45 L 43 42 Z M 37 15 "/>
<path style=" stroke:none;fill-rule:evenodd;fill:rgb(97.254902%,33.72549%,49.803922%);fill-opacity:1;" d="M 15 16 L 18 45 L 21 42 Z M 15 16 "/>
<path style=" stroke:none;fill-rule:nonzero;fill:url(#linear2);" d="M 23 9 L 26 45 L 18 45 Z M 23 9 "/>
<path style=" stroke:none;fill-rule:nonzero;fill:url(#linear3);" d="M 45 24 L 48 45 L 40 45 Z M 45 24 "/>
</g>
</svg>
