<?xml version="1.0" encoding="UTF-8"?>
<svg xmlns="http://www.w3.org/2000/svg" xmlns:xlink="http://www.w3.org/1999/xlink" width="60pt" height="52pt" viewBox="0 0 60 52" version="1.1">
<g id="surface1">
<rect x="0" y="0" width="60" height="52" style="fill:rgb(100%,100%,100%);fill-opacity:1;stroke:none;"/>
<path style=" stroke:none;fill-rule:evenodd;fill:rgb(96.470588%,14.117647%,34.901961%);fill-opacity:1;" d="M 36 25 L 36 29 L 23 29 L 23 37 L 11 37 L 11 38 L 24 38 L 24 30 L 37 30 L 37 26 L 50 26 L 50 25 Z M 36 25 "/>
<path style=" stroke:none;fill-rule:nonzero;fill:rgb(13.333333%,65.490196%,94.117647%);fill-opacity:1;" d="M 49 6 L 49 15 L 37 15 L 37 11 L 23 11 L 23 23 L 11 23 L 11 24 L 24 24 L 24 12 L 36 12 L 36 16 L 50 16 L 50 6 Z M 49 6 "/>
<path style=" stroke:none;fill-rule:nonzero;fill:rgb(30.196078%,30.196078%,30.196078%);fill-opacity:1;" d="M 3 45 L 55 45 L 55 46 L 3 46 Z M 3 45 "/>
<path style=" stroke:none;fill-rule:nonzero;fill:rgb(30.196078%,30.196078%,30.196078%);fill-opacity:1;" d="M 6 3 L 7 3 L 7 49 L 6 49 Z M 6 3 "/>
<path style=" stroke:none;fill-rule:nonzero;fill:rgb(96.470588%,14.117647%,34.901961%);fill-opacity:1;" d="M 48 25 L 49 25 L 49 26 L 48 26 Z M 48 25 "/>
<path style=" stroke:none;fill-rule:nonzero;fill:rgb(96.470588%,14.117647%,34.901961%);fill-opacity:1;" d="M 49 24 L 50 24 L 50 25 L 49 25 Z M 49 24 "/>
<path style=" stroke:none;fill-rule:nonzero;fill:rgb(96.470588%,14.117647%,34.901961%);fill-opacity:1;" d="M 49 26 L 50 26 L 50 27 L 49 27 Z M 49 26 "/>
<path style=" stroke:none;fill-rule:nonzero;fill:rgb(96.470588%,14.117647%,34.901961%);fill-opacity:1;" d="M 50 25 L 51 25 L 51 26 L 50 26 Z M 50 25 "/>
<path style=" stroke:none;fill-rule:nonzero;fill:rgb(100%,100%,100%);fill-opacity:1;" d="M 49 25 L 50 25 L 50 26 L 49 26 Z M 49 25 "/>
<path style=" stroke:none;fill-rule:nonzero;fill:rgb(96.470588%,14.117647%,34.901961%);fill-opacity:1;" d="M 35 25 L 36 25 L 36 26 L 35 26 Z M 35 25 "/>
<path style=" stroke:none;fill-rule:nonzero;fill:rgb(96.470588%,14.117647%,34.901961%);fill-opacity:1;" d="M 36 24 L 37 24 L 37 25 L 36 25 Z M 36 24 "/>
<path style=" stroke:none;fill-rule:nonzero;fill:rgb(96.470588%,14.117647%,34.901961%);fill-opacity:1;" d="M 36 26 L 37 26 L 37 27 L 36 27 Z M 36 26 "/>
<path style=" stroke:none;fill-rule:nonzero;fill:rgb(96.470588%,14.117647%,34.901961%);fill-opacity:1;" d="M 37 25 L 38 25 L 38 26 L 37 26 Z M 37 25 "/>
<path style=" stroke:none;fill-rule:nonzero;fill:rgb(100%,100%,100%);fill-opacity:1;" d="M 36 25 L 37 25 L 37 26 L 36 26 Z M 36 25 "/>
<path style=" stroke:none;fill-rule:nonzero;fill:rgb(96.470588%,14.117647%,34.901961%);fill-opacity:1;" d="M 10 37 L 11 37 L 11 38 L 10 38 Z M 10 37 "/>
<path style=" stroke:none;fill-rule:nonzero;fill:rgb(96.470588%,14.117647%,34.901961%);fill-opacity:1;" d="M 11 36 L 12 36 L 12 37 L 11 37 Z M 11 36 "/>
<path style=" stroke:none;fill-rule:nonzero;fill:rgb(96.470588%,14.117647%,34.901961%);fill-opacity:1;" d="M 11 38 L 12 38 L 12 39 L 11 39 Z M 11 38 "/>
<path style=" stroke:none;fill-rule:nonzero;fill:rgb(96.470588%,14.117647%,34.901961%);fill-opacity:1;" d="M 12 37 L 13 37 L 13 38 L 12 38 Z M 12 37 "/>
<path style=" stroke:none;fill-rule:nonzero;fill:rgb(100%,100%,100%);fill-opacity:1;" d="M 11 37 L 12 37 L 12 38 L 11 38 Z M 11 37 "/>
<path style=" stroke:none;fill-rule:nonzero;fill:rgb(96.470588%,14.117647%,34.901961%);fill-opacity:1;" d="M 22 29 L 23 29 L 23 30 L 22 30 Z M 22 29 "/>
<path style=" stroke:none;fill-rule:nonzero;fill:rgb(96.470588%,14.117647%,34.901961%);fill-opacity:1;" d="M 23 28 L 24 28 L 24 29 L 23 29 Z M 23 28 "/>
<path style=" stroke:none;fill-rule:nonzero;fill:rgb(96.470588%,14.117647%,34.901961%);fill-opacity:1;" d="M 23 30 L 24 30 L 24 31 L 23 31 Z M 23 30 "/>
<path style=" stroke:none;fill-rule:nonzero;fill:rgb(96.470588%,14.117647%,34.901961%);fill-opacity:1;" d="M 24 29 L 25 29 L 25 30 L 24 30 Z M 24 29 "/>
<path style=" stroke:none;fill-rule:nonzero;fill:rgb(100%,100%,100%);fill-opacity:1;" d="M 23 29 L 24 29 L 24 30 L 23 30 Z M 23 29 "/>
<path style=" stroke:none;fill-rule:nonzero;fill:rgb(13.333333%,65.490196%,94.117647%);fill-opacity:1;" d="M 22 10 L 23 10 L 23 11 L 22 11 Z M 22 10 "/>
<path style=" stroke:none;fill-rule:nonzero;fill:rgb(13.333333%,65.490196%,94.117647%);fill-opacity:1;" d="M 24 10 L 25 10 L 25 11 L 24 11 Z M 24 10 "/>
<path style=" stroke:none;fill-rule:nonzero;fill:rgb(13.333333%,65.490196%,94.117647%);fill-opacity:1;" d="M 22 12 L 23 12 L 23 13 L 22 13 Z M 22 12 "/>
<path style=" stroke:none;fill-rule:nonzero;fill:rgb(13.333333%,65.490196%,94.117647%);fill-opacity:1;" d="M 24 12 L 25 12 L 25 13 L 24 13 Z M 24 12 "/>
<path style=" stroke:none;fill-rule:nonzero;fill:rgb(100%,100%,100%);fill-opacity:1;" d="M 23 10 L 23 11 L 22 11 L 22 12 L 23 12 L 23 13 L 24 13 L 24 12 L 25 12 L 25 11 L 24 11 L 24 10 Z M 23 10 "/>
<path style=" stroke:none;fill-rule:nonzero;fill:rgb(13.333333%,65.490196%,94.117647%);fill-opacity:1;" d="M 48 5 L 49 5 L 49 6 L 48 6 Z M 48 5 "/>
<path style=" stroke:none;fill-rule:nonzero;fill:rgb(13.333333%,65.490196%,94.117647%);fill-opacity:1;" d="M 50 5 L 51 5 L 51 6 L 50 6 Z M 50 5 "/>
<path style=" stroke:none;fill-rule:nonzero;fill:rgb(13.333333%,65.490196%,94.117647%);fill-opacity:1;" d="M 48 7 L 49 7 L 49 8 L 48 8 Z M 48 7 "/>
<path style=" stroke:none;fill-rule:nonzero;fill:rgb(13.333333%,65.490196%,94.117647%);fill-opacity:1;" d="M 50 7 L 51 7 L 51 8 L 50 8 Z M 50 7 "/>
<path style=" stroke:none;fill-rule:nonzero;fill:rgb(100%,100%,100%);fill-opacity:1;" d="M 49 5 L 49 6 L 48 6 L 48 7 L 49 7 L 49 8 L 50 8 L 50 7 L 51 7 L 51 6 L 50 6 L 50 5 Z M 49 5 "/>
<path style=" stroke:none;fill-rule:nonzero;fill:rgb(13.333333%,65.490196%,94.117647%);fill-opacity:1;" d="M 35 14 L 36 14 L 36 15 L 35 15 Z M 35 14 "/>
<path style=" stroke:none;fill-rule:nonzero;fill:rgb(13.333333%,65.490196%,94.117647%);fill-opacity:1;" d="M 37 14 L 38 14 L 38 15 L 37 15 Z M 37 14 "/>
<path style=" stroke:none;fill-rule:nonzero;fill:rgb(13.333333%,65.490196%,94.117647%);fill-opacity:1;" d="M 35 16 L 36 16 L 36 17 L 35 17 Z M 35 16 "/>
<path style=" stroke:none;fill-rule:nonzero;fill:rgb(13.333333%,65.490196%,94.117647%);fill-opacity:1;" d="M 37 16 L 38 16 L 38 17 L 37 17 Z M 37 16 "/>
<path style=" stroke:none;fill-rule:nonzero;fill:rgb(100%,100%,100%);fill-opacity:1;" d="M 36 14 L 36 15 L 35 15 L 35 16 L 36 16 L 36 17 L 37 17 L 37 16 L 38 16 L 38 15 L 37 15 L 37 14 Z M 36 14 "/>
<path style=" stroke:none;fill-rule:nonzero;fill:rgb(13.333333%,65.490196%,94.117647%);fill-opacity:1;" d="M 10 22 L 11 22 L 11 23 L 10 23 Z M 10 22 "/>
<path style=" stroke:none;fill-rule:nonzero;fill:rgb(13.333333%,65.490196%,94.117647%);fill-opacity:1;" d="M 12 22 L 13 22 L 13 23 L 12 23 Z M 12 22 "/>
<path style=" stroke:none;fill-rule:nonzero;fill:rgb(13.333333%,65.490196%,94.117647%);fill-opacity:1;" d="M 10 24 L 11 24 L 11 25 L 10 25 Z M 10 24 "/>
<path style=" stroke:none;fill-rule:nonzero;fill:rgb(13.333333%,65.490196%,94.117647%);fill-opacity:1;" d="M 12 24 L 13 24 L 13 25 L 12 25 Z M 12 24 "/>
<path style=" stroke:none;fill-rule:nonzero;fill:rgb(100%,100%,100%);fill-opacity:1;" d="M 11 22 L 11 23 L 10 23 L 10 24 L 11 24 L 11 25 L 12 25 L 12 24 L 13 24 L 13 23 L 12 23 L 12 22 Z M 11 22 "/>
</g>
</svg>
