<?xml version="1.0" encoding="UTF-8"?>
<svg xmlns="http://www.w3.org/2000/svg" xmlns:xlink="http://www.w3.org/1999/xlink" width="60pt" height="52pt" viewBox="0 0 60 52" version="1.1">
<g id="surface1">
<rect x="0" y="0" width="60" height="52" style="fill:rgb(100%,100%,100%);fill-opacity:1;stroke:none;"/>
<path style=" stroke:none;fill-rule:nonzero;fill:rgb(30.196078%,30.196078%,30.196078%);fill-opacity:1;" d="M 3 45 L 55 45 L 55 46 L 3 46 Z M 3 45 "/>
<path style=" stroke:none;fill-rule:nonzero;fill:rgb(30.196078%,30.196078%,30.196078%);fill-opacity:1;" d="M 6 3 L 7 3 L 7 49 L 6 49 Z M 6 3 "/>
<path style=" stroke:none;fill-rule:evenodd;fill:rgb(96.470588%,14.117647%,34.901961%);fill-opacity:1;" d="M 36 25 L 36 29 L 23 29 L 23 37 L 11 37 L 11 38 L 24 38 L 24 30 L 37 30 L 37 26 L 50 26 L 50 25 Z M 36 25 "/>
<path style=" stroke:none;fill-rule:evenodd;fill:rgb(54.509804%,81.960784%,96.862745%);fill-opacity:1;" d="M 23 23 L 11 23 L 14 20 L 23 20 Z M 23 23 "/>
<path style=" stroke:none;fill-rule:evenodd;fill:rgb(38.431373%,75.686275%,95.686275%);fill-opacity:1;" d="M 50 6 L 50 16 L 53 13 L 53 3 Z M 50 6 "/>
<path style=" stroke:none;fill-rule:evenodd;fill:rgb(97.254902%,33.72549%,49.803922%);fill-opacity:1;" d="M 24 30 L 24 38 L 27 35 L 27 30 Z M 24 30 "/>
<path style=" stroke:none;fill-rule:evenodd;fill:rgb(98.039216%,52.54902%,64.313725%);fill-opacity:1;" d="M 23 37 L 11 37 L 14 34 L 23 34 Z M 23 37 "/>
<path style=" stroke:none;fill-rule:nonzero;fill:rgb(13.333333%,65.490196%,94.117647%);fill-opacity:1;" d="M 49 6 L 49 15 L 37 15 L 37 11 L 23 11 L 23 23 L 11 23 L 11 24 L 24 24 L 24 12 L 36 12 L 36 16 L 50 16 L 50 6 Z M 49 6 "/>
<path style=" stroke:none;fill-rule:evenodd;fill:rgb(98.039216%,52.54902%,64.313725%);fill-opacity:1;" d="M 36 29 L 23 29 L 26 26 L 36 26 Z M 36 29 "/>
<path style=" stroke:none;fill-rule:evenodd;fill:rgb(98.039216%,52.54902%,64.313725%);fill-opacity:1;" d="M 50 25 L 36 25 L 39 22 L 53 22 Z M 50 25 "/>
<path style=" stroke:none;fill-rule:evenodd;fill:rgb(97.254902%,33.72549%,49.803922%);fill-opacity:1;" d="M 37 26 L 37 30 L 40 27 L 40 26 Z M 37 26 "/>
<path style=" stroke:none;fill-rule:evenodd;fill:rgb(54.509804%,81.960784%,96.862745%);fill-opacity:1;" d="M 37 11 L 23 11 L 26 8 L 40 8 Z M 37 11 "/>
<path style=" stroke:none;fill-rule:evenodd;fill:rgb(54.509804%,81.960784%,96.862745%);fill-opacity:1;" d="M 49 15 L 37 15 L 40 12 L 49 12 Z M 49 15 "/>
<path style=" stroke:none;fill-rule:evenodd;fill:rgb(38.431373%,75.686275%,95.686275%);fill-opacity:1;" d="M 24 12 L 24 24 L 27 21 L 27 12 Z M 24 12 "/>
<path style=" stroke:none;fill-rule:evenodd;fill:rgb(38.431373%,75.686275%,95.686275%);fill-opacity:1;" d="M 37 11 L 37 15 L 40 12 L 40 8 Z M 37 11 "/>
</g>
</svg>
