<?xml version="1.0" encoding="UTF-8"?>
<svg xmlns="http://www.w3.org/2000/svg" xmlns:xlink="http://www.w3.org/1999/xlink" width="60pt" height="52pt" viewBox="0 0 60 52" version="1.1">
<g id="surface1">
<rect x="0" y="0" width="60" height="52" style="fill:rgb(100%,100%,100%);fill-opacity:1;stroke:none;"/>
<path style=" stroke:none;fill-rule:evenodd;fill:rgb(96.470588%,14.117647%,34.901961%);fill-opacity:1;" d="M 36.425781 25 L 23.28125 29.042969 L 11.222656 37.082031 L 11.777344 37.914062 L 23.71875 29.957031 L 36.578125 26 L 49.5 26 L 49.5 25 Z M 36.425781 25 "/>
<path style=" stroke:none;fill-rule:nonzero;fill:rgb(30.196078%,30.196078%,30.196078%);fill-opacity:1;" d="M 3 45 L 55 45 L 55 46 L 3 46 Z M 3 45 "/>
<path style=" stroke:none;fill-rule:nonzero;fill:rgb(30.196078%,30.196078%,30.196078%);fill-opacity:1;" d="M 6 3 L 7 3 L 7 49 L 6 49 Z M 6 3 "/>
<path style=" stroke:none;fill-rule:evenodd;fill:rgb(13.333333%,65.490196%,94.117647%);fill-opacity:1;" d="M 49.214844 6.089844 L 36.414062 14.949219 L 23.359375 10.933594 L 11.144531 23.148438 L 11.855469 23.855469 L 23.640625 12.066406 L 36.582031 16.050781 L 49.78125 6.910156 Z M 49.214844 6.089844 "/>
</g>
</svg>
