<?xml version="1.0" encoding="UTF-8"?>
<svg xmlns="http://www.w3.org/2000/svg" xmlns:xlink="http://www.w3.org/1999/xlink" width="60pt" height="52pt" viewBox="0 0 60 52" version="1.1">
<g id="surface1">
<rect x="0" y="0" width="60" height="52" style="fill:rgb(100%,100%,100%);fill-opacity:1;stroke:none;"/>
<path style=" stroke:none;fill-rule:nonzero;fill:rgb(30.196078%,30.196078%,30.196078%);fill-opacity:1;" d="M 3 45 L 55 45 L 55 46 L 3 46 Z M 3 45 "/>
<path style=" stroke:none;fill-rule:nonzero;fill:rgb(30.196078%,30.196078%,30.196078%);fill-opacity:1;" d="M 6 3 L 7 3 L 7 49 L 6 49 Z M 6 3 "/>
<path style=" stroke:none;fill-rule:evenodd;fill:rgb(96.470588%,14.117647%,34.901961%);fill-opacity:1;" d="M 36 25 L 36 29 L 23 29 L 23 37 L 11 37 L 11 38 L 24 38 L 24 30 L 37 30 L 37 26 L 50 26 L 50 25 Z M 36 25 "/>
<path style=" stroke:none;fill-rule:nonzero;fill:rgb(13.333333%,65.490196%,94.117647%);fill-opacity:1;" d="M 49 6 L 49 15 L 37 15 L 37 11 L 23 11 L 23 23 L 11 23 L 11 24 L 24 24 L 24 12 L 36 12 L 36 16 L 50 16 L 50 6 Z M 49 6 "/>
</g>
</svg>
