<?xml version="1.0" encoding="UTF-8"?>
<svg xmlns="http://www.w3.org/2000/svg" xmlns:xlink="http://www.w3.org/1999/xlink" width="60pt" height="52pt" viewBox="0 0 60 52" version="1.1">
<g id="surface1">
<rect x="0" y="0" width="60" height="52" style="fill:rgb(100%,100%,100%);fill-opacity:1;stroke:none;"/>
<path style=" stroke:none;fill-rule:evenodd;fill:rgb(38.431373%,75.686275%,95.686275%);fill-opacity:1;" d="M 24 12 C 19.734375 14.953125 15.9375 19.167969 12 23 L 12 22 L 24.4375 9.519531 Z M 24 12 "/>
<path style=" stroke:none;fill-rule:evenodd;fill:rgb(54.509804%,81.960784%,96.862745%);fill-opacity:1;" d="M 35.644531 15.894531 C 30.347656 14.292969 25.515625 9.25 20 13 C 29.011719 3.148438 29.667969 10.894531 39 12 Z M 35.644531 15.894531 "/>
<path style=" stroke:none;fill-rule:evenodd;fill:rgb(38.431373%,75.686275%,95.686275%);fill-opacity:1;" d="M 49.777344 6.777344 C 45.40625 9.5625 40.734375 14.328125 37 15 L 36 15 L 39 12 L 51.707031 3.445312 Z M 49.777344 6.777344 "/>
<path style=" stroke:none;fill-rule:evenodd;fill:rgb(98.039216%,52.54902%,64.313725%);fill-opacity:1;" d="M 49.464844 25.089844 L 36 25 L 39 22 L 53 22 Z M 49.464844 25.089844 "/>
<path style=" stroke:none;fill-rule:evenodd;fill:rgb(97.254902%,33.72549%,49.803922%);fill-opacity:1;" d="M 36 26 L 24 29 L 27 26 C 31.515625 23.542969 35.425781 22.402344 39 22 Z M 36 26 "/>
<path style=" stroke:none;fill-rule:evenodd;fill:rgb(97.254902%,33.72549%,49.803922%);fill-opacity:1;" d="M 24 29 L 12 37 C 16.335938 32.523438 21.953125 28.71875 27 26 Z M 24 29 "/>
<path style=" stroke:none;fill-rule:nonzero;fill:rgb(30.196078%,30.196078%,30.196078%);fill-opacity:1;" d="M 3 45 L 55 45 L 55 46 L 3 46 Z M 3 45 "/>
<path style=" stroke:none;fill-rule:nonzero;fill:rgb(30.196078%,30.196078%,30.196078%);fill-opacity:1;" d="M 6 3 L 7 3 L 7 49 L 6 49 Z M 6 3 "/>
<path style=" stroke:none;fill-rule:nonzero;fill:rgb(100%,100%,100%);fill-opacity:1;" d="M 11 37 L 12 37 L 12 38 L 11 38 Z M 11 37 "/>
<path style=" stroke:none;fill-rule:nonzero;fill:rgb(100%,100%,100%);fill-opacity:1;" d="M 11 22 L 11 23 L 10 23 L 10 24 L 11 24 L 11 25 L 12 25 L 12 24 L 13 24 L 13 23 L 12 23 L 12 22 Z M 11 22 "/>
<path style="fill:none;stroke-width:1;stroke-linecap:butt;stroke-linejoin:miter;stroke:rgb(13.333333%,65.490196%,94.117647%);stroke-opacity:1;stroke-miterlimit:4;" d="M 11.5 1023.8622 C 11.5 1023.8622 18.554688 1013.088763 23.5 1011.8622 C 28.445312 1010.635638 31.65625 1016.6122 36.5 1015.8622 C 41.34375 1015.1122 49.5 1006.8622 49.5 1006.8622 " transform="matrix(1,0,0,1,0,-1000.3622)"/>
<path style="fill:none;stroke-width:1;stroke-linecap:butt;stroke-linejoin:miter;stroke:rgb(96.470588%,14.117647%,34.901961%);stroke-opacity:1;stroke-miterlimit:4;" d="M 11.5 1037.8622 C 11.5 1037.8622 19.28125 1031.866106 23.5 1029.8622 C 27.71875 1027.858294 32.015625 1026.537981 36.5 1025.8622 C 40.785156 1025.217669 49.5 1025.8622 49.5 1025.8622 " transform="matrix(1,0,0,1,0,-1000.3622)"/>
</g>
</svg>
