<?xml version="1.0" encoding="UTF-8"?>
<svg xmlns="http://www.w3.org/2000/svg" xmlns:xlink="http://www.w3.org/1999/xlink" width="60pt" height="52pt" viewBox="0 0 60 52" version="1.1">
<defs>
<linearGradient id="linear0" gradientUnits="userSpaceOnUse" x1="16" y1="1046.3622" x2="16" y2="1017.6956" gradientTransform="matrix(1,0,0,1.5,-2,-1523.5433)">
<stop offset="0" style="stop-color:rgb(96.470588%,14.117647%,34.901961%);stop-opacity:1;"/>
<stop offset="1" style="stop-color:rgb(96.862745%,21.568627%,40.784314%);stop-opacity:1;"/>
</linearGradient>
<linearGradient id="linear1" gradientUnits="userSpaceOnUse" x1="101" y1="959.69543" x2="36" y2="947.19543" gradientTransform="matrix(1,0,0,0.833333,-26,-825.9684)">
<stop offset="0" style="stop-color:rgb(13.333333%,65.490196%,94.117647%);stop-opacity:1;"/>
<stop offset="1" style="stop-color:rgb(9.803922%,70.980392%,99.607843%);stop-opacity:1;"/>
</linearGradient>
<linearGradient id="linear2" gradientUnits="userSpaceOnUse" x1="16" y1="1046.3622" x2="16" y2="1020.5621" gradientTransform="matrix(1,0,0,1.666667,22,-1697.9368)">
<stop offset="0" style="stop-color:rgb(96.470588%,14.117647%,34.901961%);stop-opacity:1;"/>
<stop offset="1" style="stop-color:rgb(96.862745%,21.568627%,40.784314%);stop-opacity:1;"/>
</linearGradient>
<linearGradient id="linear3" gradientUnits="userSpaceOnUse" x1="50" y1="1046.3622" x2="50" y2="984.93353" gradientTransform="matrix(1,0,0,0.7,-2,-686.45346)">
<stop offset="0" style="stop-color:rgb(13.333333%,65.490196%,94.117647%);stop-opacity:1;"/>
<stop offset="1" style="stop-color:rgb(9.803922%,70.980392%,99.607843%);stop-opacity:1;"/>
</linearGradient>
</defs>
<g id="surface1">
<rect x="0" y="0" width="60" height="52" style="fill:rgb(100%,100%,100%);fill-opacity:1;stroke:none;"/>
<path style=" stroke:none;fill-rule:nonzero;fill:url(#linear0);" d="M 10 19 L 19 19 L 19 46 L 10 46 Z M 10 19 "/>
<path style=" stroke:none;fill-rule:nonzero;fill:url(#linear1);" d="M 19 21 L 28 21 L 28 46 L 19 46 Z M 19 21 "/>
<path style=" stroke:none;fill-rule:nonzero;fill:url(#linear2);" d="M 34 16 L 43 16 L 43 46 L 34 46 Z M 34 16 "/>
<path style=" stroke:none;fill-rule:nonzero;fill:url(#linear3);" d="M 43 25 L 52 25 L 52 46 L 43 46 Z M 43 25 "/>
<path style=" stroke:none;fill-rule:nonzero;fill:rgb(30.196078%,30.196078%,30.196078%);fill-opacity:1;" d="M 3 45 L 55 45 L 55 46 L 3 46 Z M 3 45 "/>
<path style=" stroke:none;fill-rule:nonzero;fill:rgb(30.196078%,30.196078%,30.196078%);fill-opacity:1;" d="M 6 3 L 7 3 L 7 49 L 6 49 Z M 6 3 "/>
<path style=" stroke:none;fill-rule:nonzero;fill:rgb(96.470588%,14.117647%,34.901961%);fill-opacity:1;" d="M 13 9 L 16 9 L 16 14 L 13 14 Z M 13 9 "/>
<path style=" stroke:none;fill-rule:nonzero;fill:rgb(96.470588%,14.117647%,34.901961%);fill-opacity:1;" d="M 14 7 L 15 7 L 15 16 L 14 16 Z M 14 7 "/>
<path style=" stroke:none;fill-rule:nonzero;fill:rgb(96.470588%,14.117647%,34.901961%);fill-opacity:1;" d="M 37 6 L 40 6 L 40 11 L 37 11 Z M 37 6 "/>
<path style=" stroke:none;fill-rule:nonzero;fill:rgb(96.470588%,14.117647%,34.901961%);fill-opacity:1;" d="M 38 4 L 39 4 L 39 13 L 38 13 Z M 38 4 "/>
<path style=" stroke:none;fill-rule:nonzero;fill:rgb(13.333333%,65.490196%,94.117647%);fill-opacity:1;" d="M 22 11 L 25 11 L 25 16 L 22 16 Z M 22 11 "/>
<path style=" stroke:none;fill-rule:nonzero;fill:rgb(13.333333%,65.490196%,94.117647%);fill-opacity:1;" d="M 23 9 L 24 9 L 24 18 L 23 18 Z M 23 9 "/>
<path style=" stroke:none;fill-rule:nonzero;fill:rgb(13.333333%,65.490196%,94.117647%);fill-opacity:1;" d="M 46 15 L 49 15 L 49 20 L 46 20 Z M 46 15 "/>
<path style=" stroke:none;fill-rule:nonzero;fill:rgb(13.333333%,65.490196%,94.117647%);fill-opacity:1;" d="M 47 13 L 48 13 L 48 22 L 47 22 Z M 47 13 "/>
</g>
</svg>
