<?xml version="1.0" encoding="UTF-8"?>
<svg xmlns="http://www.w3.org/2000/svg" xmlns:xlink="http://www.w3.org/1999/xlink" width="60pt" height="52pt" viewBox="0 0 60 52" version="1.1">
<g id="surface1">
<rect x="0" y="0" width="60" height="52" style="fill:rgb(100%,100%,100%);fill-opacity:1;stroke:none;"/>
<path style=" stroke:none;fill-rule:nonzero;fill:rgb(30.196078%,30.196078%,30.196078%);fill-opacity:1;" d="M 3 45 L 55 45 L 55 46 L 3 46 Z M 3 45 "/>
<path style=" stroke:none;fill-rule:nonzero;fill:rgb(30.196078%,30.196078%,30.196078%);fill-opacity:1;" d="M 6 3 L 7 3 L 7 49 L 6 49 Z M 6 3 "/>
<path style=" stroke:none;fill-rule:nonzero;fill:rgb(13.333333%,65.490196%,94.117647%);fill-opacity:1;" d="M 51 20 L 52 20 L 52 29 L 51 29 Z M 51 20 "/>
<path style=" stroke:none;fill-rule:nonzero;fill:rgb(13.333333%,65.490196%,94.117647%);fill-opacity:1;" d="M 51 24 L 54 24 L 54 25 L 51 25 Z M 51 24 "/>
<path style=" stroke:none;fill-rule:nonzero;fill:rgb(13.333333%,65.490196%,94.117647%);fill-opacity:1;" d="M 42 31 L 43 31 L 43 40 L 42 40 Z M 42 31 "/>
<path style=" stroke:none;fill-rule:nonzero;fill:rgb(13.333333%,65.490196%,94.117647%);fill-opacity:1;" d="M 42 35 L 45 35 L 45 36 L 42 36 Z M 42 35 "/>
<path style=" stroke:none;fill-rule:nonzero;fill:rgb(13.333333%,65.490196%,94.117647%);fill-opacity:1;" d="M 33 21 L 34 21 L 34 30 L 33 30 Z M 33 21 "/>
<path style=" stroke:none;fill-rule:nonzero;fill:rgb(13.333333%,65.490196%,94.117647%);fill-opacity:1;" d="M 33 25 L 36 25 L 36 26 L 33 26 Z M 33 25 "/>
<path style=" stroke:none;fill-rule:nonzero;fill:rgb(13.333333%,65.490196%,94.117647%);fill-opacity:1;" d="M 23 26 L 24 26 L 24 35 L 23 35 Z M 23 26 "/>
<path style=" stroke:none;fill-rule:nonzero;fill:rgb(13.333333%,65.490196%,94.117647%);fill-opacity:1;" d="M 23 30 L 26 30 L 26 31 L 23 31 Z M 23 30 "/>
<path style=" stroke:none;fill-rule:nonzero;fill:rgb(96.470588%,14.117647%,34.901961%);fill-opacity:1;" d="M 45 13 L 46 13 L 46 22 L 45 22 Z M 45 13 "/>
<path style=" stroke:none;fill-rule:nonzero;fill:rgb(96.470588%,14.117647%,34.901961%);fill-opacity:1;" d="M 45 17 L 48 17 L 48 18 L 45 18 Z M 45 17 "/>
<path style=" stroke:none;fill-rule:nonzero;fill:rgb(96.470588%,14.117647%,34.901961%);fill-opacity:1;" d="M 30 7 L 31 7 L 31 16 L 30 16 Z M 30 7 "/>
<path style=" stroke:none;fill-rule:nonzero;fill:rgb(96.470588%,14.117647%,34.901961%);fill-opacity:1;" d="M 30 11 L 33 11 L 33 12 L 30 12 Z M 30 11 "/>
<path style=" stroke:none;fill-rule:nonzero;fill:rgb(96.470588%,14.117647%,34.901961%);fill-opacity:1;" d="M 18 14 L 19 14 L 19 23 L 18 23 Z M 18 14 "/>
<path style=" stroke:none;fill-rule:nonzero;fill:rgb(96.470588%,14.117647%,34.901961%);fill-opacity:1;" d="M 18 18 L 21 18 L 21 19 L 18 19 Z M 18 18 "/>
<path style=" stroke:none;fill-rule:nonzero;fill:rgb(96.470588%,14.117647%,34.901961%);fill-opacity:1;" d="M 11 25 L 12 25 L 12 34 L 11 34 Z M 11 25 "/>
<path style=" stroke:none;fill-rule:nonzero;fill:rgb(96.470588%,14.117647%,34.901961%);fill-opacity:1;" d="M 11 29 L 14 29 L 14 30 L 11 30 Z M 11 29 "/>
</g>
</svg>
