<?xml version="1.0" encoding="UTF-8"?>
<svg xmlns="http://www.w3.org/2000/svg" xmlns:xlink="http://www.w3.org/1999/xlink" width="13pt" height="13pt" viewBox="0 0 13 13" version="1.1">
<g id="surface1">
<path style=" stroke:none;fill-rule:nonzero;fill:rgb(30.196078%,30.196078%,30.196078%);fill-opacity:1;" d="M 1 0 L 1 11 L 0 11 L 0 12 L 1 12 L 1 13 L 2 13 L 2 12 L 13 12 L 13 11 L 2 11 L 2 0 Z M 5 0 C 3.894531 0 3 0.894531 3 2 C 3 3.105469 3.894531 4 5 4 C 6.105469 4 7 3.105469 7 2 C 7 0.894531 6.105469 0 5 0 Z M 11 1 C 10.449219 1 10 1.449219 10 2 C 10 2.550781 10.449219 3 11 3 C 11.550781 3 12 2.550781 12 2 C 12 1.449219 11.550781 1 11 1 Z M 4 7 C 3.449219 7 3 7.449219 3 8 C 3 8.550781 3.449219 9 4 9 C 4.550781 9 5 8.550781 5 8 C 5 7.449219 4.550781 7 4 7 Z M 9.5 7 C 8.671875 7 8 7.671875 8 8.5 C 8 9.328125 8.671875 10 9.5 10 C 10.328125 10 11 9.328125 11 8.5 C 11 7.671875 10.328125 7 9.5 7 Z M 9.5 7 "/>
</g>
</svg>
