<?xml version="1.0" encoding="UTF-8"?>
<svg xmlns="http://www.w3.org/2000/svg" xmlns:xlink="http://www.w3.org/1999/xlink" width="13pt" height="13.134766pt" viewBox="0 0 13 13.134766" version="1.1">
<g id="surface1">
<path style=" stroke:none;fill-rule:nonzero;fill:rgb(11.372549%,60%,95.294118%);fill-opacity:1;" d="M 7.097656 0 L 6.722656 0.21875 L 2.722656 2.71875 L 3.253906 3.5625 L 6.910156 1.28125 L 10.628906 5.46875 L 11.378906 4.8125 L 7.378906 0.3125 Z M 7.097656 0 "/>
<path style=" stroke:none;fill-rule:nonzero;fill:rgb(30.196078%,30.196078%,30.196078%);fill-opacity:1;" d="M 1 0.132812 L 1 11.132812 L 0 11.132812 L 0 12.132812 L 1 12.132812 L 1 13.132812 L 2 13.132812 L 2 12.132812 L 13 12.132812 L 13 11.132812 L 11 11.132812 L 11 7.132812 L 9 7.132812 L 9 11.132812 L 8 11.132812 L 8 3.132812 L 6 3.132812 L 6 11.132812 L 5 11.132812 L 5 5.132812 L 3 5.132812 L 3 11.132812 L 2 11.132812 L 2 0.132812 Z M 1 0.132812 "/>
</g>
</svg>
