<?xml version="1.0" encoding="UTF-8"?>
<svg xmlns="http://www.w3.org/2000/svg" xmlns:xlink="http://www.w3.org/1999/xlink" width="14pt" height="12pt" viewBox="0 0 14 12" version="1.1">
<g id="surface1">
<path style=" stroke:none;fill-rule:nonzero;fill:rgb(70.196078%,70.196078%,70.196078%);fill-opacity:1;" d="M 2 0 L 2 12 L 14 11 L 14 1 Z M 2 0 "/>
<path style=" stroke:none;fill-rule:nonzero;fill:rgb(30.196078%,30.196078%,30.196078%);fill-opacity:1;" d="M 2 0 L 0 2 L 0 10 L 2 12 Z M 8.5 1 C 5.460938 1 3 3.238281 3 6 C 3 8.761719 5.460938 11 8.5 11 C 11.539062 11 14 8.761719 14 6 C 14 8.207031 11.742188 10 8.957031 10 C 6.175781 10 3.914062 8.210938 3.914062 6 C 3.914062 3.789062 6.175781 2 8.960938 2 C 11.585938 2 13.773438 3.601562 13.984375 5.679688 C 13.796875 3.050781 11.398438 1.003906 8.5 1 Z M 13.984375 5.679688 C 13.992188 5.785156 13.996094 5.894531 14 6 C 14 5.894531 13.992188 5.785156 13.984375 5.679688 Z M 8 3 C 6.34375 3 5 4.34375 5 6 C 5 7.65625 6.34375 9 8 9 C 8.339844 9 8.679688 8.9375 9 8.824219 L 9 6 L 7 6 L 7 7 L 8 7 L 8 8 C 6.894531 8 6 7.105469 6 6 C 6 4.894531 6.894531 4 8 4 C 8.351562 4 8.695312 4.09375 9 4.269531 L 9 3.171875 C 8.679688 3.058594 8.339844 3 8 3 Z M 10 3 L 10 9 L 12 9 L 12 8 L 11 8 L 11 3 Z M 10 3 "/>
</g>
</svg>
