<?xml version="1.0" encoding="UTF-8"?>
<svg xmlns="http://www.w3.org/2000/svg" xmlns:xlink="http://www.w3.org/1999/xlink" width="13pt" height="13pt" viewBox="0 0 13 13" version="1.1">
<g id="surface1">
<path style=" stroke:none;fill-rule:nonzero;fill:rgb(70.196078%,70.196078%,70.196078%);fill-opacity:1;" d="M 8 1.875 L 6.6875 3.15625 L 5.875 4 L 3.875 6 L 2 6 L 2 9 L 4.59375 9 L 7 7 L 9 7 L 11 9 L 13 9 L 13 2 L 12.125 2 L 10.125 4 Z M 7 8 L 5 10 L 2 10 L 2 11 L 13 11 L 13 10 L 10.59375 10 L 8.59375 8 Z M 7 8 "/>
<path style=" stroke:none;fill-rule:nonzero;fill:rgb(30.196078%,30.196078%,30.196078%);fill-opacity:1;" d="M 1 0 L 1 11 L 0 11 L 0 12 L 1 12 L 1 13 L 2 13 L 2 12 L 13 12 L 13 11 L 2 11 L 2 10 L 5 10 L 7 8 L 8.59375 8 L 10.59375 10 L 13 10 L 13 9 L 11 9 L 9 7 L 6.59375 7 L 4.59375 9 L 2 9 L 2 7 L 3.875 7 L 5.875 5 L 6.71875 4.1875 L 8 2.875 L 10.125 5 L 12.125 3 L 12.96875 2.1875 L 13 2.125 L 12.3125 1.4375 L 12.25 1.46875 L 10.125 3.59375 L 8 1.46875 L 6 3.46875 L 5.15625 4.28125 L 3.46875 6 L 2 6 L 2 0 Z M 1 0 "/>
</g>
</svg>
