<?xml version="1.0" encoding="UTF-8"?>
<svg xmlns="http://www.w3.org/2000/svg" xmlns:xlink="http://www.w3.org/1999/xlink" width="13.40625pt" height="13.21875pt" viewBox="0 0 13.40625 13.21875" version="1.1">
<g id="surface1">
<path style=" stroke:none;fill-rule:nonzero;fill:rgb(30.196078%,30.196078%,30.196078%);fill-opacity:1;" d="M 6.21875 0 L 6.21875 0.8125 L 2.960938 4.070312 L 0.9375 3.0625 L 0.5 2.84375 L 0.03125 3.71875 L 0.5 3.96875 L 2.71875 5.085938 L 2.71875 9.796875 L 0.375 12.15625 L 0 12.5 L 0.71875 13.21875 L 3.390625 10.546875 L 11.472656 11.972656 L 12.71875 13.21875 L 13.40625 12.5 L 12.21875 11.3125 L 12.21875 4.328125 L 12.9375 3.96875 L 13.375 3.71875 L 12.9375 2.84375 L 12.5 3.0625 L 11.753906 3.433594 L 7.21875 0.710938 L 7.21875 0 Z M 7.21875 1.886719 L 10.6875 3.960938 L 7.21875 5.6875 Z M 6.21875 2.1875 L 6.21875 5.6875 L 3.882812 4.523438 Z M 11.21875 4.828125 L 11.21875 10.3125 L 7.5625 6.65625 Z M 3.71875 5.585938 L 5.84375 6.65625 L 3.71875 8.792969 Z M 6.71875 7.21875 L 10.230469 10.730469 L 4.273438 9.660156 Z M 6.71875 7.21875 "/>
</g>
</svg>
