<?xml version="1.0" encoding="UTF-8"?>
<svg xmlns="http://www.w3.org/2000/svg" xmlns:xlink="http://www.w3.org/1999/xlink" width="13pt" height="14pt" viewBox="0 0 13 14" version="1.1">
<g id="surface1">
<path style=" stroke:none;fill-rule:nonzero;fill:rgb(30.196078%,30.196078%,30.196078%);fill-opacity:1;" d="M 1 1 L 1 12 L 0 12 L 0 13 L 1 13 L 1 14 L 2 14 L 2 13 L 13 13 L 13 12 L 11 12 L 11 4 L 9 4 L 9 12 L 8 12 L 8 8 L 6 8 L 6 12 L 5 12 L 5 6 L 3 6 L 3 12 L 2 12 L 2 1 Z M 1 1 "/>
<path style=" stroke:none;fill-rule:nonzero;fill:rgb(11.372549%,60%,95.294118%);fill-opacity:1;" d="M 9 0 L 9 3 L 10 3 L 10 2 L 11 2 L 11 1 L 10 1 L 10 0 Z M 3 2 L 3 5 L 4 5 L 4 4 L 5 4 L 5 3 L 4 3 L 4 2 Z M 6 4 L 6 7 L 7 7 L 7 6 L 8 6 L 8 5 L 7 5 L 7 4 Z M 6 4 "/>
</g>
</svg>
