<?xml version="1.0" encoding="UTF-8"?>
<svg xmlns="http://www.w3.org/2000/svg" xmlns:xlink="http://www.w3.org/1999/xlink" width="13pt" height="13pt" viewBox="0 0 13 13" version="1.1">
<g id="surface1">
<path style=" stroke:none;fill-rule:nonzero;fill:rgb(30.196078%,30.196078%,30.196078%);fill-opacity:1;" d="M 1 0 L 1 11 L 0 11 L 0 12 L 1 12 L 1 13 L 2 13 L 2 12 L 13 12 L 13 11 L 2 11 L 2 0 Z M 11 0 L 11 1 L 12 1 L 12 0 Z M 12 1 L 12 2 L 13 2 L 13 1 Z M 12 2 L 11 2 L 11 3 L 12 3 Z M 11 2 L 11 1 L 10 1 L 10 2 Z M 3 1 L 3 2 L 4 2 L 4 1 Z M 5 1 L 5 2 L 6 2 L 6 1 Z M 3 3 L 3 4 L 4 4 L 4 3 Z M 5 3 L 5 4 L 6 4 L 6 3 Z M 8 6 L 8 7 L 9 7 L 9 6 Z M 10 6 L 10 7 L 11 7 L 11 6 Z M 4 7 L 4 8 L 5 8 L 5 7 Z M 5 8 L 5 9 L 6 9 L 6 8 Z M 5 9 L 4 9 L 4 10 L 5 10 Z M 4 9 L 4 8 L 3 8 L 3 9 Z M 8 8 L 8 9 L 9 9 L 9 8 Z M 10 8 L 10 9 L 11 9 L 11 8 Z M 10 8 "/>
</g>
</svg>
