<?xml version="1.0" encoding="UTF-8"?>
<svg xmlns="http://www.w3.org/2000/svg" xmlns:xlink="http://www.w3.org/1999/xlink" width="60pt" height="52pt" viewBox="0 0 60 52" version="1.1">
<g id="surface1">
<rect x="0" y="0" width="60" height="52" style="fill:rgb(100%,100%,100%);fill-opacity:1;stroke:none;"/>
<path style=" stroke:none;fill-rule:nonzero;fill:rgb(30.196078%,30.196078%,30.196078%);fill-opacity:1;" d="M 3 45 L 55 45 L 55 46 L 3 46 Z M 3 45 "/>
<path style=" stroke:none;fill-rule:nonzero;fill:rgb(30.196078%,30.196078%,30.196078%);fill-opacity:1;" d="M 6 3 L 7 3 L 7 49 L 6 49 Z M 6 3 "/>
<path style=" stroke:none;fill-rule:evenodd;fill:rgb(38.431373%,75.686275%,95.686275%);fill-opacity:1;" d="M 32.304688 8.910156 L 28.308594 11.910156 L 28.847656 12.136719 L 28.800781 12.179688 L 29.769531 12.597656 L 29.8125 12.535156 L 49.277344 20.625 L 49.28125 20.625 L 54.148438 17.242188 L 32.3125 8.914062 L 32.304688 8.914062 Z M 32.304688 8.910156 "/>
<path style=" stroke:none;fill-rule:evenodd;fill:rgb(54.509804%,81.960784%,96.862745%);fill-opacity:1;" d="M 28.3125 11.910156 L 28.308594 11.910156 L 28.84375 12.136719 L 28.847656 12.136719 Z M 28.800781 12.175781 L 28.425781 12.53125 L 11.816406 34.960938 L 11.8125 35.84375 L 15.8125 32.84375 L 29.769531 12.597656 Z M 29.8125 12.535156 L 49.355469 20.65625 L 40.925781 36.714844 L 44.980469 33.597656 L 54.195312 17.246094 L 54.183594 17.257812 L 54.179688 17.257812 L 54.144531 17.242188 L 49.277344 20.621094 Z M 29.8125 12.535156 "/>
<path style="fill:none;stroke-width:1;stroke-linecap:butt;stroke-linejoin:miter;stroke:rgb(13.333333%,65.490196%,94.117647%);stroke-opacity:1;stroke-miterlimit:4;" d="M 11.5 1035.8622 L 28.5 1012.8622 L 49.5 1020.8622 L 40.5 1036.8622 " transform="matrix(1,0,0,1,0,-1000.3622)"/>
<path style=" stroke:none;fill-rule:evenodd;fill:rgb(98.039216%,52.54902%,64.313725%);fill-opacity:1;" d="M 20.089844 8.21875 L 10.886719 21.503906 L 10.84375 21.546875 L 10.855469 21.558594 L 10.765625 21.6875 L 34.371094 34 L 34.359375 34.015625 L 34.382812 34.003906 L 34.441406 34.035156 L 49.628906 29.984375 L 49.621094 29.960938 L 49.667969 29.949219 L 52.359375 26.816406 L 37.429688 30.992188 L 14.070312 18.664062 L 20.910156 8.785156 Z M 20.089844 8.21875 "/>
<path style=" stroke:none;fill-rule:evenodd;fill:rgb(97.254902%,33.72549%,49.803922%);fill-opacity:1;" d="M 14.882812 17.492188 L 14.875 17.503906 L 14.082031 18.6875 Z M 14.082031 18.671875 L 11.699219 22.171875 L 34.371094 34 L 34.355469 34.015625 L 34.382812 34.003906 L 34.441406 34.035156 L 34.589844 33.992188 L 37.601562 30.941406 L 37.425781 30.992188 Z M 14.082031 18.671875 "/>
<path style="fill:none;stroke-width:1;stroke-linecap:butt;stroke-linejoin:miter;stroke:rgb(96.470588%,14.117647%,34.901961%);stroke-opacity:1;stroke-miterlimit:4;" d="M 20.5 1008.8622 L 11.5 1021.8622 L 34.5 1033.8622 L 49.5 1029.8622 " transform="matrix(1,0,0,1,0,-1000.3622)"/>
</g>
</svg>
