<?xml version="1.0" encoding="UTF-8"?>
<svg xmlns="http://www.w3.org/2000/svg" xmlns:xlink="http://www.w3.org/1999/xlink" width="120pt" height="52pt" viewBox="0 0 120 52" version="1.1">
<g id="surface1">
<path style=" stroke:none;fill-rule:nonzero;fill:rgb(100%,100%,100%);fill-opacity:1;" d="M 0 0 L 60 0 L 60 52 L 0 52 Z M 0 0 "/>
<path style=" stroke:none;fill-rule:nonzero;fill:rgb(30.196078%,30.196078%,30.196078%);fill-opacity:1;" d="M 3 45 L 55 45 L 55 46 L 3 46 Z M 3 45 "/>
<path style=" stroke:none;fill-rule:nonzero;fill:rgb(30.196078%,30.196078%,30.196078%);fill-opacity:1;" d="M 6 3 L 7 3 L 7 49 L 6 49 Z M 6 3 "/>
<path style=" stroke:none;fill-rule:evenodd;fill:rgb(38.431373%,75.686275%,95.686275%);fill-opacity:1;" d="M 26.574219 12.824219 L 28.847656 12.136719 L 28.800781 12.179688 L 29.769531 12.597656 L 29.8125 12.535156 C 44.171875 11.011719 46.039062 16.183594 49.277344 20.625 L 49.28125 20.625 L 52.1875 18.597656 C 51.011719 11.75 33.765625 7.609375 26.574219 12.824219 Z M 26.574219 12.824219 "/>
<path style=" stroke:none;fill-rule:evenodd;fill:rgb(54.509804%,81.960784%,96.862745%);fill-opacity:1;" d="M 28.3125 11.910156 L 28.308594 11.910156 L 28.84375 12.136719 L 28.847656 12.136719 Z M 28.800781 12.175781 L 28.425781 12.53125 C 17.386719 19.480469 16.347656 27.695312 11.816406 34.960938 L 11.8125 35.84375 L 14.699219 33.425781 C 18.703125 25.109375 24.457031 15.6875 29.769531 12.597656 Z M 29.8125 12.535156 C 51.773438 10.265625 48.875 24.207031 40.925781 36.714844 L 44.382812 32.933594 C 47.421875 28.464844 52.695312 23.828125 52.171875 18.539062 C 49.058594 20.203125 48.972656 19.753906 46.65625 16.738281 C 41.964844 13.472656 37.457031 11.863281 29.8125 12.535156 Z M 29.8125 12.535156 "/>
<path style="fill:none;stroke-width:1;stroke-linecap:butt;stroke-linejoin:miter;stroke:rgb(13.333333%,65.490196%,94.117647%);stroke-opacity:1;stroke-miterlimit:4;" d="M 11.5 1035.8622 C 11.5 1035.8622 20.332031 1015.256731 28.5 1012.8622 C 36.667969 1010.467669 47.183594 1014.463763 49.5 1020.8622 C 51.816406 1027.260638 40.5 1036.8622 40.5 1036.8622 " transform="matrix(1,0,0,1,0,-1000.3622)"/>
<path style=" stroke:none;fill-rule:evenodd;fill:rgb(98.039216%,52.54902%,64.313725%);fill-opacity:1;" d="M 20.089844 8.21875 C 15.558594 11.480469 11.75 15.320312 10.886719 21.503906 L 10.84375 21.546875 L 10.855469 21.558594 L 10.765625 21.6875 L 34.371094 34 L 34.359375 34.015625 L 34.382812 34.003906 L 34.441406 34.035156 C 39 33.339844 44.234375 31.765625 49.628906 29.984375 L 49.621094 29.960938 L 49.667969 29.949219 L 52.359375 26.816406 C 47.195312 28.59375 41.582031 31.308594 37.429688 30.992188 C 28.042969 28.273438 19.101562 25.078125 13.566406 19.011719 C 12.671875 15.390625 17.71875 12.292969 20 9 Z M 20.089844 8.21875 "/>
<path style=" stroke:none;fill-rule:evenodd;fill:rgb(97.254902%,33.72549%,49.803922%);fill-opacity:1;" d="M 14.882812 17.492188 L 14.875 17.503906 L 14.082031 18.6875 Z M 13.734375 19.113281 L 11.699219 22.171875 C 15.566406 28.101562 24.871094 31.105469 34.371094 34 L 34.355469 34.015625 L 34.382812 34.003906 L 34.441406 34.035156 L 34.589844 33.992188 L 37.601562 30.941406 L 37.425781 30.992188 C 28.328125 28.054688 19.191406 25.28125 13.734375 19.113281 Z M 13.734375 19.113281 "/>
<path style="fill:none;stroke-width:1;stroke-linecap:butt;stroke-linejoin:miter;stroke:rgb(96.470588%,14.117647%,34.901961%);stroke-opacity:1;stroke-miterlimit:4;" d="M 20.5 1008.8622 C 20.5 1008.8622 9.832031 1015.104388 11.5 1021.8622 C 13.167969 1028.620013 27.628906 1033.104388 34.5 1033.8622 C 41.371094 1034.620013 49.5 1029.8622 49.5 1029.8622 " transform="matrix(1,0,0,1,0,-1000.3622)"/>
<path style=" stroke:none;fill-rule:nonzero;fill:rgb(100%,100%,100%);fill-opacity:1;" d="M 60 0 L 120 0 L 120 52 L 60 52 Z M 60 0 "/>
</g>
</svg>
