<?xml version="1.0" encoding="UTF-8"?>
<svg xmlns="http://www.w3.org/2000/svg" xmlns:xlink="http://www.w3.org/1999/xlink" width="12pt" height="16pt" viewBox="0 0 12 16" version="1.1">
<g id="surface1">
<path style=" stroke:none;fill-rule:nonzero;fill:rgb(30.196078%,30.196078%,30.196078%);fill-opacity:1;" d="M 5.5 0 L 5.5 1 L 3 1 L 3 6 L 5.5 6 L 5.5 10 L 0 10 L 0 15 L 5.5 15 L 5.5 16 L 6.5 16 L 6.5 15 L 12 15 L 12 10 L 6.5 10 L 6.5 6 L 9 6 L 9 1 L 6.5 1 L 6.5 0 Z M 4 2 L 8 2 L 8 5 L 4 5 Z M 1 11 L 11 11 L 11 14 L 1 14 Z M 1 11 "/>
</g>
</svg>
