<?xml version="1.0" encoding="UTF-8"?>
<svg xmlns="http://www.w3.org/2000/svg" xmlns:xlink="http://www.w3.org/1999/xlink" width="16.003906pt" height="14.005859pt" viewBox="0 0 16.003906 14.005859" version="1.1">
<g id="surface1">
<path style=" stroke:none;fill-rule:nonzero;fill:rgb(30.196078%,30.196078%,30.196078%);fill-opacity:1;" d="M 0.00390625 0 L 0.00390625 0.00390625 L 0 0.00390625 L 0 14.007812 L 9 14.007812 L 9 14.003906 L 12.011719 14.003906 L 16.003906 10.011719 L 15.992188 10 L 16.003906 10 L 16.003906 0 Z M 1.003906 1.003906 L 15.003906 1.003906 L 15.003906 9.003906 L 11.003906 9.003906 L 11.003906 13.003906 L 9 13.003906 L 9 13.007812 L 1 13.007812 L 1 6.007812 L 1.003906 6.007812 Z M 4.003906 2.003906 L 5.003906 2.003906 Z M 8.003906 2.003906 L 9.003906 2.003906 Z M 2 2.007812 L 2 12.007812 L 6 12.007812 L 6 2.007812 Z M 8 2.007812 L 8 3.007812 L 13 3.007812 L 13 2.007812 Z M 8 5.007812 L 8 6.007812 L 13 6.007812 L 13 5.007812 Z M 8 8.007812 L 8 9.007812 L 10 9.007812 L 10 8.007812 Z M 8 8.007812 "/>
</g>
</svg>
