<?xml version="1.0" encoding="UTF-8"?>
<svg xmlns="http://www.w3.org/2000/svg" xmlns:xlink="http://www.w3.org/1999/xlink" width="16pt" height="16pt" viewBox="0 0 16 16" version="1.1">
<g id="surface1">
<path style=" stroke:none;fill-rule:nonzero;fill:rgb(30.196078%,30.196078%,30.196078%);fill-opacity:1;" d="M 0 0 L 0 1 L 16 1 L 16 0 Z M 0 2 L 0 3 L 9 3 L 9 2 Z M 0 6 L 0 7 L 10 7 L 10 6 Z M 0 8 L 0 9 L 4 9 L 4 8 Z M 0 12 L 0 13 L 10 13 L 10 12 Z M 0 14 L 0 15 L 7 15 L 7 14 Z M 8 15 L 8 16 L 10 16 L 10 15 Z M 8 15 "/>
</g>
</svg>
