<?xml version="1.0" encoding="UTF-8"?>
<svg xmlns="http://www.w3.org/2000/svg" xmlns:xlink="http://www.w3.org/1999/xlink" width="16pt" height="16pt" viewBox="0 0 16 16" version="1.1">
<g id="surface1">
<path style=" stroke:none;fill-rule:nonzero;fill:rgb(30.196078%,30.196078%,30.196078%);fill-opacity:1;" d="M 8 0 L 5 3 L 7 3 L 7 4 L 4 4 L 4 7 L 3 7 L 3 5 L 0 8 L 3 11 L 3 9 L 4 9 L 4 12 L 7 12 L 7 13 L 5 13 L 8 16 L 11 13 L 9 13 L 9 12 L 12 12 L 12 9 L 13 9 L 13 11 L 16 8 L 13 5 L 13 7 L 12 7 L 12 4 L 9 4 L 9 3 L 11 3 Z M 8 0 "/>
</g>
</svg>
