<?xml version="1.0" encoding="UTF-8"?>
<svg xmlns="http://www.w3.org/2000/svg" xmlns:xlink="http://www.w3.org/1999/xlink" width="16pt" height="12pt" viewBox="0 0 16 12" version="1.1">
<g id="surface1">
<path style=" stroke:none;fill-rule:nonzero;fill:rgb(30.196078%,30.196078%,30.196078%);fill-opacity:1;" d="M 1 0 L 1 5.5 L 0 5.5 L 0 6.5 L 1 6.5 L 1 12 L 6 12 L 6 6.5 L 10 6.5 L 10 9 L 15 9 L 15 6.5 L 16 6.5 L 16 5.5 L 15 5.5 L 15 3 L 10 3 L 10 5.5 L 6 5.5 L 6 0 Z M 2 1 L 5 1 L 5 11 L 2 11 Z M 11 4 L 14 4 L 14 8 L 11 8 Z M 11 4 "/>
</g>
</svg>
