<?xml version="1.0" encoding="UTF-8"?>
<svg xmlns="http://www.w3.org/2000/svg" xmlns:xlink="http://www.w3.org/1999/xlink" width="16pt" height="16pt" viewBox="0 0 16 16" version="1.1">
<g id="surface1">
<path style=" stroke:none;fill-rule:nonzero;fill:rgb(30.196078%,30.196078%,30.196078%);fill-opacity:1;" d="M 0 0 L 0 1 L 16 1 L 16 0 Z M 2 2 L 2 3 L 14.097656 3 L 14.097656 2 Z M 0 6 L 0 7 L 16 7 L 16 6 Z M 4 8 L 4 9 L 12 9 L 12 8 Z M 0 11 L 0 12 L 16 12 L 16 11 Z M 2 13 L 2 14 L 14 14 L 14 13 Z M 7 15 L 7 16 L 9 16 L 9 15 Z M 7 15 "/>
</g>
</svg>
