<?xml version="1.0" encoding="UTF-8"?>
<svg xmlns="http://www.w3.org/2000/svg" xmlns:xlink="http://www.w3.org/1999/xlink" width="16pt" height="10pt" viewBox="0 0 16 10" version="1.1">
<g id="surface1">
<path style=" stroke:none;fill-rule:nonzero;fill:rgb(30.196078%,30.196078%,30.196078%);fill-opacity:1;" d="M 6 0 L 6 1 L 0 1 L 0 2 L 6 2 L 6 4 L 10 4 L 10 2 L 16 2 L 16 1 L 10 1 L 10 0 Z M 7 1 L 9 1 L 9 3 L 7 3 Z M 7 1 "/>
<path style=" stroke:none;fill-rule:nonzero;fill:rgb(85.490196%,26.666667%,32.54902%);fill-opacity:1;" d="M 11 4 L 10 5 L 12 7 L 10 9 L 11 10 L 13 8 L 15 10 L 16 9 L 14 7 L 16 5 L 15 4 L 13 6 Z M 11 4 "/>
</g>
</svg>
