<?xml version="1.0" encoding="UTF-8"?>
<svg xmlns="http://www.w3.org/2000/svg" xmlns:xlink="http://www.w3.org/1999/xlink" width="16pt" height="16pt" viewBox="0 0 16 16" version="1.1">
<g id="surface1">
<path style=" stroke:none;fill-rule:nonzero;fill:rgb(30.196078%,30.196078%,30.196078%);fill-opacity:1;" d="M 8 0 C 3.582031 0 0 1.789062 0 4 C 0 6.210938 3.582031 8 8 8 C 12.417969 8 16 6.210938 16 4 C 16 1.789062 12.417969 0 8 0 Z M 0 5 L 0 12 C 0 14.210938 3.582031 16 8 16 C 12.417969 16 16 14.210938 16 12 L 16 5 C 16 7.210938 12.417969 9 8 9 C 3.582031 9 0 7.210938 0 5 Z M 0 5 "/>
</g>
</svg>
