<?xml version="1.0" encoding="UTF-8"?>
<svg xmlns="http://www.w3.org/2000/svg" xmlns:xlink="http://www.w3.org/1999/xlink" width="16pt" height="16pt" viewBox="0 0 16 16" version="1.1">
<g id="surface1">
<path style=" stroke:none;fill-rule:nonzero;fill:rgb(30.196078%,30.196078%,30.196078%);fill-opacity:1;" d="M 0 0 L 0 4 L 1 4 L 1 12 L 0 12 L 0 16 L 4 16 L 4 15 L 12 15 L 12 14 L 4 14 L 4 12 L 2 12 L 2 4 L 4 4 L 4 2 L 12 2 L 12 4 L 14 4 L 14 12 L 15 12 L 15 4 L 16 4 L 16 0 L 12 0 L 12 1 L 4 1 L 4 0 Z M 1 1 L 3 1 L 3 3 L 1 3 Z M 13 1 L 15 1 L 15 3 L 13 3 Z M 1 13 L 3 13 L 3 15 L 1 15 Z M 1 13 "/>
<path style=" stroke:none;fill-rule:nonzero;fill:rgb(11.372549%,60%,95.294118%);fill-opacity:1;" d="M 12 12 L 12 16 L 16 16 L 16 12 Z M 13 13 L 15 13 L 15 15 L 13 15 Z M 13 13 "/>
</g>
</svg>
