<?xml version="1.0" encoding="UTF-8"?>
<svg xmlns="http://www.w3.org/2000/svg" xmlns:xlink="http://www.w3.org/1999/xlink" width="16pt" height="16pt" viewBox="0 0 16 16" version="1.1">
<g id="surface1">
<path style=" stroke:none;fill-rule:nonzero;fill:rgb(30.196078%,30.196078%,30.196078%);fill-opacity:1;" d="M 0 0 L 0 1 L 16 1 L 16 0 Z M 8 2 L 7.78125 2.21875 L 4.5 5.40625 L 5.21875 6.125 L 7.5 3.90625 L 7.5 11 L 8.5 11 L 8.5 3.90625 L 10.78125 6.125 L 11.5 5.40625 L 8.21875 2.21875 Z M 0 11 L 0 16 L 4 16 L 4 15 L 1 15 L 1 12 L 4 12 L 4 11 Z M 12 11 L 12 12 L 15 12 L 15 15 L 12 15 L 12 16 L 16 16 L 16 11 Z M 3 13 L 3 14 L 13 14 L 13 13 Z M 3 13 "/>
</g>
</svg>
