<?xml version="1.0" encoding="UTF-8"?>
<svg xmlns="http://www.w3.org/2000/svg" xmlns:xlink="http://www.w3.org/1999/xlink" width="16pt" height="16pt" viewBox="0 0 16 16" version="1.1">
<g id="surface1">
<path style=" stroke:none;fill-rule:nonzero;fill:rgb(30.196078%,30.196078%,30.196078%);fill-opacity:1;" d="M 3.5 0 C 1.566406 0 0 1.566406 0 3.5 C 0 5.433594 1.566406 7 3.5 7 L 6 7 L 6 9 L 3.5 9 C 1.566406 9 0 10.566406 0 12.5 C 0 14.433594 1.566406 16 3.5 16 C 5.433594 16 7 14.433594 7 12.5 L 7 10 L 9 10 L 9 12.5 C 9 14.433594 10.566406 16 12.5 16 C 14.433594 16 16 14.433594 16 12.5 C 16 10.566406 14.433594 9 12.5 9 L 10 9 L 10 7 L 12.5 7 C 14.433594 7 16 5.433594 16 3.5 C 16 1.566406 14.433594 0 12.5 0 C 10.566406 0 9 1.566406 9 3.5 L 9 6 L 7 6 L 7 3.5 C 7 1.566406 5.433594 0 3.5 0 Z M 3.5 1 C 4.878906 1 6 2.121094 6 3.5 L 6 6 L 3.5 6 C 2.121094 6 1 4.878906 1 3.5 C 1 2.121094 2.121094 1 3.5 1 Z M 12.5 1 C 13.878906 1 15 2.121094 15 3.5 C 15 4.878906 13.878906 6 12.5 6 L 10 6 L 10 3.5 C 10 2.121094 11.121094 1 12.5 1 Z M 7 7 L 9 7 L 9 9 L 7 9 Z M 3.5 10 L 6 10 L 6 12.5 C 6 13.878906 4.878906 15 3.5 15 C 2.121094 15 1 13.878906 1 12.5 C 1 11.121094 2.121094 10 3.5 10 Z M 10 10 L 12.5 10 C 13.878906 10 15 11.121094 15 12.5 C 15 13.878906 13.878906 15 12.5 15 C 11.121094 15 10 13.878906 10 12.5 Z M 10 10 "/>
</g>
</svg>
