<?xml version="1.0" encoding="UTF-8"?>
<svg xmlns="http://www.w3.org/2000/svg" xmlns:xlink="http://www.w3.org/1999/xlink" width="16pt" height="16pt" viewBox="0 0 16 16" version="1.1">
<g id="surface1">
<path style=" stroke:none;fill-rule:nonzero;fill:rgb(30.196078%,30.196078%,30.196078%);fill-opacity:1;" d="M 0 0 L 0 4 L 4 4 L 4 0 Z M 13 0 L 13 3 L 16 3 L 16 0 Z M 1 1 L 3 1 L 3 3 L 1 3 Z M 14 1 L 15 1 L 15 2 L 14 2 Z M 0 13 L 0 16 L 3 16 L 3 13 Z M 1 14 L 2 14 L 2 15 L 1 15 Z M 1 14 "/>
<path style=" stroke:none;fill-rule:nonzero;fill:rgb(11.372549%,60%,95.294118%);fill-opacity:1;" d="M 4 1 L 4 2 L 13 2 L 13 1 Z M 1 4 L 1 13 L 2 13 L 2 4 Z M 1 4 "/>
</g>
</svg>
