<?xml version="1.0" encoding="UTF-8"?>
<svg xmlns="http://www.w3.org/2000/svg" xmlns:xlink="http://www.w3.org/1999/xlink" width="16pt" height="11pt" viewBox="0 0 16 11" version="1.1">
<g id="surface1">
<path style=" stroke:none;fill-rule:nonzero;fill:rgb(30.196078%,30.196078%,30.196078%);fill-opacity:1;" d="M 0 0 L 0 4 L 4 4 L 4 2 L 6 2 L 6 4 L 10 4 L 10 2 L 12 2 L 12 4 L 16 4 L 16 0 L 12 0 L 12 1 L 10 1 L 10 0 L 6 0 L 6 1 L 4 1 L 4 0 Z M 1 1 L 3 1 L 3 3 L 1 3 Z M 7 1 L 9 1 L 9 3 L 7 3 Z M 13 1 L 15 1 L 15 3 L 13 3 Z M 13 1 "/>
<path style=" stroke:none;fill-rule:nonzero;fill:rgb(85.490196%,26.666667%,32.54902%);fill-opacity:1;" d="M 10.988281 5 L 10 5.988281 L 12.011719 8 L 10 10.011719 L 10.988281 11 L 13 8.988281 L 15.011719 11 L 16 10.011719 L 13.988281 8 L 16 5.988281 L 15.011719 5 L 13 7.011719 Z M 10.988281 5 "/>
</g>
</svg>
