<?xml version="1.0" encoding="UTF-8"?>
<svg xmlns="http://www.w3.org/2000/svg" xmlns:xlink="http://www.w3.org/1999/xlink" width="16pt" height="16pt" viewBox="0 0 16 16" version="1.1">
<g id="surface1">
<path style=" stroke:none;fill-rule:nonzero;fill:rgb(30.196078%,30.196078%,30.196078%);fill-opacity:1;" d="M 1.5 0 C 0.667969 0 0 0.667969 0 1.5 C 0 2.152344 0.417969 2.703125 1 2.90625 L 1 13 L 0 13 L 0 16 L 3 16 L 3 13 L 2 13 L 2 2.90625 C 2.425781 2.757812 2.757812 2.421875 2.90625 2 L 13 2 L 13 3 L 16 3 L 16 0 L 13 0 L 13 1 L 2.90625 1 C 2.703125 0.417969 2.152344 0 1.5 0 Z M 1.5 1 C 1.777344 1 2 1.222656 2 1.5 C 2 1.777344 1.777344 2 1.5 2 C 1.222656 2 1 1.777344 1 1.5 C 1 1.222656 1.222656 1 1.5 1 Z M 14 1 L 15 1 L 15 2 L 14 2 Z M 3 3 L 3 10 L 4.585938 9.285156 L 6.5 11 L 6.300781 8.597656 L 8 8 Z M 1 14 L 2 14 L 2 15 L 1 15 Z M 1 14 "/>
</g>
</svg>
