<?xml version="1.0" encoding="UTF-8"?>
<svg xmlns="http://www.w3.org/2000/svg" xmlns:xlink="http://www.w3.org/1999/xlink" width="16pt" height="16pt" viewBox="0 0 16 16" version="1.1">
<g id="surface1">
<path style=" stroke:none;fill-rule:nonzero;fill:rgb(30.196078%,30.196078%,30.196078%);fill-opacity:1;" d="M 12 0 L 12 1.0625 C 5.84375 1.53125 1 6.238281 1 12 L 0 12 L 0 16 L 4 16 L 4 12 L 2 12 C 2 6.785156 6.394531 2.523438 12 2.0625 L 12 4 L 16 4 L 16 0 Z M 13 1 L 15 1 L 15 3 L 13 3 Z M 1 13 L 3 13 L 3 15 L 1 15 Z M 1 13 "/>
<path style=" stroke:none;fill-rule:nonzero;fill:rgb(11.372549%,60%,95.294118%);fill-opacity:1;" d="M 0 0 L 0 3 L 1 3 L 1 12 L 2 12 L 2 3 L 3 3 L 3 0 Z M 1 1 L 2 1 L 2 2 L 1 2 Z M 1 1 "/>
</g>
</svg>
