<?xml version="1.0" encoding="UTF-8"?>
<svg xmlns="http://www.w3.org/2000/svg" xmlns:xlink="http://www.w3.org/1999/xlink" width="16pt" height="15.998047pt" viewBox="0 0 16 15.998047" version="1.1">
<g id="surface1">
<path style=" stroke:none;fill-rule:nonzero;fill:rgb(30.196078%,30.196078%,30.196078%);fill-opacity:1;" d="M 8.996094 0 C 6.085938 2.917969 3.164062 5.828125 0.253906 8.734375 L 0.257812 8.742188 L 0.0078125 8.992188 L 0 8.992188 L 0 13 L 4.007812 13 C 6.914062 10.097656 10.007812 6.996094 13 4 L 9 0 Z M 8.410156 1.996094 L 11 4.585938 L 6.734375 8.855469 L 4.144531 6.265625 Z M 13.5 5 C 13.011719 6.699219 11.820312 8.164062 11.296875 9.335938 C 11.113281 9.683594 11 10.074219 11 10.5 C 11 11.882812 12.113281 13 13.5 13 C 14.886719 13 16 11.882812 16 10.5 C 16 10.074219 15.886719 9.683594 15.703125 9.335938 C 15.179688 8.164062 13.988281 6.699219 13.5 5 Z M 3.4375 6.96875 L 6.027344 9.5625 L 5.320312 10.265625 L 2.726562 7.679688 C 2.964844 7.441406 3.203125 7.207031 3.4375 6.96875 Z M 2.023438 8.386719 L 4.609375 10.972656 L 4.617188 10.976562 L 3.90625 11.683594 L 1.3125 9.09375 Z M 0 15 L 0 16 L 16 16 L 16 15 Z M 0 15 "/>
</g>
</svg>
