<?xml version="1.0" encoding="UTF-8"?>
<svg xmlns="http://www.w3.org/2000/svg" xmlns:xlink="http://www.w3.org/1999/xlink" width="16pt" height="15pt" viewBox="0 0 16 15" version="1.1">
<g id="surface1">
<path style=" stroke:none;fill-rule:nonzero;fill:rgb(30.196078%,30.196078%,30.196078%);fill-opacity:1;" d="M 0 0 L 0 14 L 7 14 L 7 13 L 1 13 L 1 1 L 11 1 L 11 5 L 15 5 L 15 7 L 16 7 L 16 4 L 12 0 Z M 12 7 C 9.789062 7 8 8.789062 8 11 C 8 13.210938 9.789062 15 12 15 C 14.210938 15 16 13.210938 16 11 C 16 8.789062 14.210938 7 12 7 Z M 12 7.667969 C 12.113281 7.667969 12.222656 7.675781 12.332031 7.6875 L 12.417969 7.6875 C 12.449219 7.695312 12.488281 7.703125 12.519531 7.707031 C 12.617188 7.722656 12.699219 7.75 12.792969 7.769531 C 12.960938 7.8125 13.132812 7.871094 13.292969 7.9375 C 13.378906 7.976562 13.457031 8.019531 13.542969 8.0625 C 13.539062 8.070312 13.542969 8.074219 13.542969 8.082031 C 13.558594 8.089844 13.570312 8.128906 13.605469 8.144531 C 13.617188 8.152344 13.613281 8.160156 13.625 8.167969 C 13.644531 8.175781 13.671875 8.1875 13.667969 8.207031 C 13.660156 8.234375 13.621094 8.226562 13.605469 8.25 C 13.605469 8.285156 13.574219 8.285156 13.5625 8.3125 C 13.570312 8.328125 13.601562 8.335938 13.605469 8.355469 C 13.601562 8.375 13.554688 8.375 13.5625 8.394531 C 13.597656 8.421875 13.632812 8.402344 13.667969 8.394531 C 13.742188 8.386719 13.808594 8.386719 13.855469 8.355469 C 13.847656 8.316406 13.921875 8.324219 13.917969 8.292969 C 13.933594 8.304688 13.960938 8.316406 13.980469 8.332031 C 13.972656 8.339844 13.96875 8.347656 13.957031 8.351562 C 13.945312 8.359375 13.929688 8.363281 13.917969 8.375 C 13.898438 8.386719 13.875 8.402344 13.855469 8.414062 C 13.839844 8.425781 13.808594 8.476562 13.792969 8.476562 C 13.773438 8.476562 13.742188 8.453125 13.730469 8.457031 C 13.707031 8.464844 13.710938 8.492188 13.6875 8.5 C 13.644531 8.515625 13.554688 8.472656 13.542969 8.539062 C 13.558594 8.578125 13.632812 8.558594 13.667969 8.578125 C 13.6875 8.59375 13.722656 8.640625 13.730469 8.664062 C 13.734375 8.683594 13.738281 8.769531 13.730469 8.789062 C 13.707031 8.84375 13.644531 8.832031 13.582031 8.828125 L 13.542969 8.828125 C 13.4375 8.824219 13.335938 8.777344 13.292969 8.851562 C 13.292969 8.910156 13.304688 8.945312 13.292969 8.996094 C 13.28125 9.03125 13.226562 9.070312 13.230469 9.101562 C 13.230469 9.117188 13.265625 9.140625 13.269531 9.164062 C 13.273438 9.175781 13.265625 9.195312 13.269531 9.203125 C 13.289062 9.238281 13.324219 9.199219 13.355469 9.203125 C 13.382812 9.210938 13.417969 9.253906 13.417969 9.285156 C 13.417969 9.308594 13.410156 9.347656 13.394531 9.371094 C 13.367188 9.414062 13.3125 9.410156 13.269531 9.433594 C 13.238281 9.453125 13.230469 9.503906 13.207031 9.539062 C 13.1875 9.578125 13.15625 9.589844 13.167969 9.640625 C 13.136719 9.703125 13.101562 9.738281 13.042969 9.765625 C 13.023438 9.777344 12.996094 9.773438 12.980469 9.785156 C 12.964844 9.796875 12.957031 9.832031 12.9375 9.851562 C 12.914062 9.878906 12.886719 9.894531 12.875 9.914062 C 12.867188 9.929688 12.863281 9.957031 12.855469 9.976562 C 12.839844 10.003906 12.808594 10.011719 12.792969 10.039062 C 12.78125 10.050781 12.78125 10.085938 12.769531 10.101562 C 12.75 10.140625 12.722656 10.171875 12.730469 10.203125 C 12.730469 10.238281 12.769531 10.238281 12.769531 10.265625 C 12.773438 10.285156 12.75 10.292969 12.75 10.308594 C 12.75 10.332031 12.769531 10.351562 12.769531 10.375 C 12.777344 10.421875 12.738281 10.441406 12.730469 10.476562 C 12.722656 10.492188 12.734375 10.503906 12.730469 10.515625 C 12.71875 10.542969 12.6875 10.570312 12.6875 10.601562 C 12.6875 10.621094 12.726562 10.632812 12.730469 10.664062 C 12.730469 10.683594 12.703125 10.707031 12.707031 10.726562 C 12.714844 10.761719 12.785156 10.800781 12.8125 10.828125 C 12.851562 10.867188 12.898438 10.894531 12.917969 10.9375 C 12.929688 10.96875 12.933594 11.035156 12.957031 11.0625 C 12.976562 11.078125 13.015625 11.082031 13.042969 11.101562 C 13.0625 11.121094 13.078125 11.125 13.105469 11.140625 C 13.144531 11.175781 13.207031 11.25 13.269531 11.246094 C 13.304688 11.238281 13.335938 11.210938 13.375 11.203125 C 13.414062 11.199219 13.460938 11.179688 13.5 11.183594 C 13.53125 11.191406 13.570312 11.207031 13.605469 11.203125 C 13.636719 11.199219 13.671875 11.199219 13.707031 11.183594 C 13.773438 11.15625 13.882812 11.109375 13.980469 11.121094 C 14.050781 11.132812 14.050781 11.214844 14.105469 11.246094 C 14.164062 11.253906 14.203125 11.234375 14.25 11.246094 C 14.285156 11.253906 14.332031 11.300781 14.332031 11.328125 C 14.335938 11.359375 14.296875 11.394531 14.292969 11.414062 C 14.28125 11.453125 14.296875 11.492188 14.292969 11.515625 C 14.285156 11.535156 14.269531 11.5625 14.269531 11.578125 C 14.269531 11.597656 14.292969 11.640625 14.3125 11.664062 C 14.335938 11.691406 14.371094 11.714844 14.394531 11.746094 C 14.445312 11.800781 14.464844 11.859375 14.5 11.933594 C 14.507812 11.953125 14.492188 11.972656 14.5 12 C 14.484375 12.109375 14.449219 12.1875 14.375 12.3125 C 14.339844 12.351562 14.289062 12.386719 14.292969 12.4375 C 14.289062 12.554688 14.359375 12.632812 14.355469 12.75 C 14.339844 12.902344 14.367188 12.914062 14.355469 13 C 14.40625 13.023438 14.367188 13.109375 14.355469 13.164062 C 14.332031 13.230469 14.304688 13.246094 14.292969 13.289062 C 14.328125 13.304688 14.375 13.296875 14.417969 13.289062 C 14.394531 13.308594 14.375 13.332031 14.355469 13.351562 C 14.203125 13.503906 14.03125 13.648438 13.855469 13.765625 C 13.507812 14 13.128906 14.175781 12.707031 14.265625 C 12.480469 14.316406 12.242188 14.328125 12 14.328125 C 11.875 14.328125 11.746094 14.324219 11.625 14.3125 C 11.527344 14.300781 11.429688 14.289062 11.332031 14.269531 C 11.144531 14.230469 10.964844 14.152344 10.792969 14.082031 C 10.785156 14.070312 10.769531 14.050781 10.769531 14.039062 C 10.804688 14.023438 10.871094 14.089844 10.894531 14.039062 C 10.910156 14.015625 10.878906 13.957031 10.894531 13.9375 C 10.910156 13.917969 10.976562 13.921875 11 13.917969 C 11.035156 13.910156 11.085938 13.902344 11.105469 13.894531 C 11.128906 13.878906 11.152344 13.832031 11.144531 13.792969 C 11.144531 13.773438 11.121094 13.765625 11.105469 13.75 C 11.09375 13.734375 11.113281 13.71875 11.105469 13.707031 C 11.089844 13.683594 11.050781 13.679688 11.042969 13.644531 C 11.089844 13.636719 11.160156 13.683594 11.230469 13.667969 C 11.261719 13.65625 11.320312 13.59375 11.332031 13.5625 C 11.339844 13.554688 11.328125 13.53125 11.332031 13.519531 C 11.339844 13.507812 11.351562 13.484375 11.355469 13.480469 C 11.359375 13.460938 11.351562 13.472656 11.355469 13.457031 C 11.367188 13.425781 11.394531 13.398438 11.417969 13.375 C 11.429688 13.355469 11.464844 13.332031 11.480469 13.3125 C 11.496094 13.292969 11.488281 13.289062 11.5 13.269531 C 11.511719 13.210938 11.464844 13.15625 11.480469 13.105469 C 11.496094 13.042969 11.589844 13.003906 11.644531 12.980469 C 11.667969 12.96875 11.691406 12.964844 11.707031 12.957031 C 11.75 12.945312 11.796875 12.929688 11.832031 12.917969 C 11.898438 12.894531 11.90625 12.851562 11.9375 12.792969 C 11.953125 12.765625 11.976562 12.726562 11.980469 12.707031 C 11.980469 12.691406 11.976562 12.6875 11.980469 12.667969 C 11.980469 12.648438 11.972656 12.628906 11.980469 12.605469 C 11.984375 12.578125 12 12.511719 12 12.480469 C 12 12.453125 11.980469 12.441406 11.980469 12.417969 C 11.972656 12.332031 12.007812 12.339844 12.042969 12.292969 C 12.058594 12.269531 12.074219 12.226562 12.082031 12.207031 C 12.136719 12.128906 12.234375 12.101562 12.230469 11.980469 C 12.226562 11.941406 12.195312 11.847656 12.167969 11.832031 C 12.148438 11.828125 12.128906 11.820312 12.105469 11.8125 C 12.023438 11.78125 11.957031 11.695312 11.875 11.6875 L 11.832031 11.6875 C 11.800781 11.6875 11.765625 11.671875 11.730469 11.667969 C 11.707031 11.660156 11.660156 11.675781 11.644531 11.667969 C 11.625 11.65625 11.621094 11.617188 11.605469 11.605469 C 11.589844 11.597656 11.5625 11.589844 11.542969 11.582031 C 11.507812 11.570312 11.496094 11.546875 11.457031 11.542969 C 11.445312 11.542969 11.429688 11.550781 11.417969 11.542969 C 11.394531 11.535156 11.375 11.535156 11.355469 11.519531 C 11.332031 11.507812 11.304688 11.5 11.292969 11.480469 C 11.316406 11.410156 11.246094 11.398438 11.230469 11.355469 C 11.222656 11.335938 11.238281 11.289062 11.230469 11.273438 C 11.222656 11.25 11.195312 11.230469 11.167969 11.207031 C 11.121094 11.171875 11.089844 11.15625 11.019531 11.144531 C 10.992188 11.140625 10.953125 11.152344 10.917969 11.144531 C 10.878906 11.140625 10.824219 11.117188 10.792969 11.082031 C 10.765625 11.050781 10.753906 11.015625 10.730469 11 C 10.707031 10.988281 10.683594 10.972656 10.667969 10.957031 C 10.660156 10.953125 10.652344 10.953125 10.644531 10.9375 C 10.632812 10.914062 10.609375 10.90625 10.625 10.875 C 10.597656 10.863281 10.613281 10.902344 10.582031 10.894531 C 10.558594 10.859375 10.539062 10.824219 10.480469 10.832031 C 10.453125 10.839844 10.429688 10.894531 10.394531 10.894531 C 10.371094 10.894531 10.347656 10.839844 10.3125 10.832031 C 10.285156 10.828125 10.25 10.859375 10.230469 10.855469 C 10.203125 10.847656 10.195312 10.832031 10.167969 10.8125 C 10.148438 10.800781 10.117188 10.773438 10.105469 10.773438 C 10.070312 10.773438 10.046875 10.839844 10 10.8125 C 9.976562 10.785156 10.046875 10.777344 10.019531 10.75 C 10 10.734375 9.996094 10.761719 9.980469 10.769531 C 9.960938 10.785156 9.9375 10.785156 9.917969 10.792969 C 9.871094 10.808594 9.828125 10.816406 9.792969 10.832031 C 9.757812 10.851562 9.75 10.863281 9.730469 10.894531 C 9.714844 10.925781 9.691406 10.980469 9.667969 10.980469 C 9.640625 10.980469 9.628906 10.949219 9.605469 10.9375 C 9.527344 10.90625 9.480469 10.957031 9.417969 10.957031 C 9.359375 10.957031 9.269531 10.867188 9.269531 10.8125 C 9.273438 10.777344 9.289062 10.730469 9.292969 10.6875 C 9.296875 10.652344 9.332031 10.613281 9.332031 10.582031 C 9.335938 10.542969 9.257812 10.527344 9.230469 10.519531 C 9.167969 10.511719 9.09375 10.550781 9.019531 10.519531 C 9.007812 10.5 9.035156 10.480469 9.042969 10.457031 C 9.046875 10.445312 9.039062 10.429688 9.042969 10.417969 C 9.050781 10.398438 9.09375 10.378906 9.105469 10.355469 C 9.113281 10.339844 9.097656 10.316406 9.105469 10.292969 C 9.113281 10.269531 9.144531 10.246094 9.144531 10.230469 C 9.148438 10.207031 9.125 10.179688 9.105469 10.167969 C 9.050781 10.171875 9.011719 10.171875 8.980469 10.1875 C 8.910156 10.21875 8.929688 10.3125 8.855469 10.332031 C 8.832031 10.34375 8.800781 10.347656 8.769531 10.355469 C 8.757812 10.359375 8.742188 10.355469 8.730469 10.355469 C 8.730469 10.347656 8.730469 10.339844 8.730469 10.332031 C 8.734375 10.320312 8.746094 10.308594 8.75 10.292969 C 8.796875 10.078125 8.871094 9.867188 8.957031 9.667969 L 8.980469 9.667969 C 9.003906 9.675781 9.019531 9.707031 9.042969 9.707031 C 9.105469 9.714844 9.117188 9.652344 9.167969 9.625 C 9.21875 9.632812 9.246094 9.617188 9.292969 9.625 C 9.324219 9.632812 9.371094 9.664062 9.394531 9.667969 C 9.417969 9.667969 9.417969 9.644531 9.4375 9.644531 C 9.457031 9.652344 9.496094 9.683594 9.5 9.707031 C 9.503906 9.738281 9.472656 9.78125 9.480469 9.8125 C 9.511719 9.84375 9.582031 9.855469 9.625 9.875 C 9.65625 9.851562 9.628906 9.804688 9.625 9.769531 C 9.625 9.757812 9.628906 9.722656 9.625 9.707031 C 9.621094 9.683594 9.605469 9.667969 9.605469 9.644531 C 9.605469 9.550781 9.6875 9.515625 9.75 9.480469 C 9.777344 9.460938 9.808594 9.429688 9.832031 9.417969 C 9.867188 9.398438 9.890625 9.410156 9.917969 9.394531 C 9.96875 9.367188 10.003906 9.324219 10.042969 9.292969 C 10.0625 9.246094 10.039062 9.1875 10.042969 9.144531 C 10.0625 9.136719 10.085938 9.144531 10.105469 9.144531 C 10.136719 9.140625 10.152344 9.101562 10.167969 9.082031 C 10.179688 9.074219 10.195312 9.074219 10.207031 9.0625 C 10.238281 9.039062 10.246094 9.011719 10.269531 9 C 10.28125 8.992188 10.296875 8.984375 10.3125 8.980469 C 10.332031 8.972656 10.363281 8.972656 10.394531 8.957031 C 10.417969 8.953125 10.472656 8.945312 10.480469 8.9375 C 10.492188 8.925781 10.476562 8.890625 10.480469 8.875 C 10.496094 8.800781 10.601562 8.796875 10.667969 8.769531 C 10.714844 8.753906 10.761719 8.699219 10.8125 8.707031 C 10.800781 8.746094 10.761719 8.746094 10.769531 8.792969 C 10.78125 8.851562 10.855469 8.78125 10.875 8.769531 C 10.914062 8.753906 10.988281 8.730469 11.042969 8.707031 C 11.089844 8.691406 11.167969 8.679688 11.125 8.625 C 11.089844 8.617188 11.074219 8.652344 11.042969 8.667969 C 11.019531 8.671875 11.019531 8.648438 11 8.644531 C 10.980469 8.644531 10.976562 8.667969 10.957031 8.667969 C 10.941406 8.660156 10.921875 8.625 10.917969 8.605469 C 10.910156 8.546875 10.957031 8.542969 10.980469 8.5 C 10.964844 8.449219 10.898438 8.476562 10.855469 8.457031 C 10.859375 8.429688 10.882812 8.402344 10.917969 8.394531 C 10.945312 8.386719 11.027344 8.402344 11.042969 8.417969 C 11.054688 8.425781 11.027344 8.445312 11.042969 8.457031 C 11.058594 8.472656 11.082031 8.464844 11.105469 8.457031 C 11.113281 8.417969 11.054688 8.441406 11.0625 8.417969 C 11.109375 8.386719 11.195312 8.402344 11.25 8.394531 C 11.28125 8.386719 11.328125 8.367188 11.355469 8.355469 C 11.382812 8.339844 11.390625 8.308594 11.417969 8.332031 C 11.425781 8.359375 11.410156 8.382812 11.394531 8.394531 C 11.34375 8.441406 11.289062 8.488281 11.25 8.542969 C 11.273438 8.566406 11.3125 8.558594 11.355469 8.5625 C 11.371094 8.570312 11.402344 8.5625 11.417969 8.5625 C 11.4375 8.570312 11.460938 8.554688 11.480469 8.5625 C 11.507812 8.570312 11.511719 8.625 11.542969 8.625 C 11.585938 8.625 11.566406 8.570312 11.542969 8.542969 C 11.550781 8.507812 11.574219 8.480469 11.5625 8.457031 C 11.542969 8.417969 11.464844 8.472656 11.457031 8.417969 C 11.457031 8.382812 11.488281 8.378906 11.5 8.355469 C 11.496094 8.292969 11.546875 8.289062 11.542969 8.230469 C 11.539062 8.207031 11.515625 8.210938 11.5 8.1875 C 11.492188 8.175781 11.488281 8.132812 11.480469 8.125 C 11.445312 8.09375 11.378906 8.117188 11.375 8.0625 C 11.371094 8.027344 11.378906 7.996094 11.375 7.957031 C 11.371094 7.925781 11.339844 7.820312 11.3125 7.8125 C 11.273438 7.804688 11.253906 7.875 11.207031 7.894531 C 11.183594 7.90625 11.128906 7.921875 11.105469 7.917969 C 11.085938 7.910156 11.066406 7.90625 11.0625 7.875 C 11.058594 7.847656 11.09375 7.835938 11.105469 7.8125 C 11.105469 7.804688 11.101562 7.800781 11.105469 7.792969 C 11.152344 7.78125 11.199219 7.761719 11.25 7.75 C 11.277344 7.742188 11.304688 7.734375 11.332031 7.730469 C 11.355469 7.722656 11.375 7.738281 11.394531 7.730469 C 11.484375 7.714844 11.574219 7.699219 11.667969 7.6875 C 11.777344 7.679688 11.886719 7.667969 12 7.667969 Z M 10.644531 7.980469 C 10.625 8.101562 10.511719 8.148438 10.375 8.144531 C 10.34375 8.175781 10.371094 8.230469 10.355469 8.269531 C 10.339844 8.304688 10.285156 8.335938 10.25 8.332031 C 10.226562 8.332031 10.1875 8.292969 10.1875 8.269531 C 10.1875 8.242188 10.234375 8.242188 10.207031 8.207031 C 10.210938 8.203125 10.222656 8.195312 10.230469 8.1875 C 10.242188 8.179688 10.257812 8.175781 10.269531 8.167969 C 10.390625 8.089844 10.515625 8.039062 10.644531 7.980469 Z M 13.4375 8.105469 C 13.425781 8.109375 13.425781 8.117188 13.417969 8.125 C 13.390625 8.140625 13.371094 8.160156 13.355469 8.167969 C 13.328125 8.175781 13.296875 8.183594 13.292969 8.207031 C 13.289062 8.226562 13.3125 8.230469 13.3125 8.25 C 13.300781 8.273438 13.296875 8.28125 13.292969 8.3125 C 13.324219 8.367188 13.394531 8.300781 13.4375 8.292969 C 13.457031 8.285156 13.46875 8.285156 13.480469 8.269531 C 13.488281 8.25 13.492188 8.230469 13.5 8.207031 C 13.507812 8.179688 13.542969 8.167969 13.542969 8.144531 C 13.539062 8.121094 13.480469 8.101562 13.4375 8.105469 Z M 9.792969 8.519531 C 9.824219 8.546875 9.867188 8.601562 9.8125 8.625 C 9.804688 8.632812 9.726562 8.648438 9.707031 8.644531 C 9.703125 8.644531 9.691406 8.628906 9.6875 8.625 C 9.722656 8.589844 9.753906 8.554688 9.792969 8.519531 Z M 9.917969 8.644531 C 9.933594 8.644531 9.941406 8.6875 9.957031 8.6875 C 9.976562 8.6875 9.988281 8.664062 10 8.667969 C 10.027344 8.671875 10.046875 8.730469 10.019531 8.75 C 10 8.757812 9.996094 8.726562 9.980469 8.730469 C 9.933594 8.738281 9.910156 8.835938 9.875 8.832031 C 9.84375 8.828125 9.820312 8.75 9.855469 8.730469 C 9.855469 8.707031 9.851562 8.707031 9.855469 8.6875 C 9.863281 8.675781 9.890625 8.644531 9.917969 8.644531 Z M 9.75 8.667969 C 9.757812 8.667969 9.769531 8.660156 9.769531 8.667969 C 9.765625 8.703125 9.753906 8.710938 9.730469 8.730469 C 9.679688 8.757812 9.640625 8.792969 9.625 8.855469 C 9.621094 8.871094 9.5625 8.921875 9.542969 8.917969 C 9.488281 8.90625 9.570312 8.804688 9.582031 8.792969 C 9.597656 8.773438 9.609375 8.769531 9.625 8.75 C 9.640625 8.730469 9.652344 8.699219 9.667969 8.6875 C 9.683594 8.675781 9.722656 8.667969 9.75 8.667969 Z M 14.269531 8.769531 C 14.324219 8.765625 14.351562 8.820312 14.375 8.855469 C 14.394531 8.878906 14.445312 8.917969 14.480469 8.9375 C 14.496094 8.949219 14.519531 8.96875 14.542969 8.980469 C 14.585938 8.996094 14.664062 9.0625 14.667969 9.105469 C 14.667969 9.125 14.644531 9.144531 14.644531 9.167969 C 14.679688 9.171875 14.707031 9.117188 14.707031 9.082031 C 14.769531 9.171875 14.820312 9.261719 14.875 9.355469 C 14.898438 9.398438 14.9375 9.433594 14.957031 9.480469 C 14.929688 9.488281 14.921875 9.492188 14.917969 9.519531 C 14.910156 9.558594 14.929688 9.617188 14.875 9.625 C 14.839844 9.632812 14.796875 9.59375 14.75 9.582031 C 14.730469 9.578125 14.703125 9.589844 14.6875 9.582031 C 14.652344 9.570312 14.65625 9.523438 14.625 9.5 C 14.605469 9.488281 14.550781 9.460938 14.519531 9.457031 C 14.503906 9.457031 14.496094 9.464844 14.480469 9.457031 C 14.457031 9.453125 14.414062 9.46875 14.394531 9.457031 C 14.378906 9.449219 14.339844 9.410156 14.332031 9.394531 C 14.328125 9.371094 14.394531 9.355469 14.394531 9.332031 C 14.398438 9.316406 14.378906 9.292969 14.375 9.269531 C 14.371094 9.253906 14.378906 9.238281 14.375 9.230469 C 14.371094 9.210938 14.339844 9.210938 14.3125 9.207031 L 14.0625 9.207031 C 14.003906 9.214844 13.960938 9.203125 13.917969 9.207031 C 13.882812 9.207031 13.820312 9.238281 13.792969 9.25 C 13.777344 9.257812 13.769531 9.257812 13.75 9.269531 C 13.742188 9.277344 13.722656 9.285156 13.707031 9.292969 C 13.691406 9.300781 13.664062 9.328125 13.644531 9.332031 C 13.621094 9.339844 13.589844 9.324219 13.542969 9.332031 C 13.507812 9.332031 13.460938 9.308594 13.457031 9.269531 C 13.457031 9.207031 13.566406 9.238281 13.625 9.230469 C 13.648438 9.222656 13.660156 9.203125 13.6875 9.1875 C 13.699219 9.179688 13.695312 9.175781 13.707031 9.167969 C 13.730469 9.152344 13.769531 9.121094 13.769531 9.105469 C 13.773438 9.089844 13.769531 9.074219 13.769531 9.0625 C 13.773438 9.046875 13.792969 9.039062 13.8125 9.019531 C 13.839844 8.992188 13.863281 8.957031 13.894531 8.9375 C 13.917969 8.925781 13.949219 8.914062 13.957031 8.894531 C 13.960938 8.875 13.957031 8.875 13.957031 8.855469 C 13.972656 8.84375 13.988281 8.835938 14 8.832031 C 14.035156 8.824219 14.0625 8.832031 14.105469 8.832031 C 14.121094 8.832031 14.148438 8.84375 14.167969 8.832031 C 14.183594 8.824219 14.191406 8.800781 14.207031 8.792969 C 14.226562 8.785156 14.25 8.773438 14.269531 8.769531 Z M 14.644531 9.167969 L 14.5625 9.167969 C 14.53125 9.167969 14.496094 9.152344 14.480469 9.167969 C 14.503906 9.207031 14.546875 9.21875 14.605469 9.230469 C 14.625 9.214844 14.636719 9.191406 14.644531 9.167969 Z M 10.082031 8.792969 L 10.144531 8.792969 C 10.164062 8.792969 10.179688 8.785156 10.1875 8.792969 C 10.175781 8.835938 10.074219 8.828125 10.042969 8.8125 C 10.042969 8.796875 10.0625 8.792969 10.082031 8.792969 Z M 9.9375 8.875 C 9.910156 8.894531 9.878906 8.921875 9.832031 8.9375 C 9.808594 8.945312 9.777344 8.945312 9.769531 8.917969 C 9.765625 8.882812 9.8125 8.898438 9.832031 8.894531 C 9.863281 8.890625 9.902344 8.875 9.9375 8.875 Z M 14.269531 8.875 C 14.25 8.882812 14.238281 8.929688 14.269531 8.9375 C 14.285156 8.929688 14.296875 8.902344 14.292969 8.875 C 14.28125 8.867188 14.277344 8.867188 14.269531 8.875 Z M 14.230469 8.980469 C 14.230469 9.015625 14.234375 9.050781 14.230469 9.082031 C 14.25 9.125 14.300781 9.089844 14.3125 9.0625 C 14.324219 8.992188 14.304688 8.96875 14.269531 8.980469 C 14.261719 8.984375 14.238281 8.96875 14.230469 8.980469 Z M 8.707031 10.542969 C 8.746094 10.574219 8.765625 10.625 8.8125 10.644531 C 8.828125 10.65625 8.855469 10.660156 8.875 10.667969 C 8.890625 10.671875 8.898438 10.660156 8.917969 10.667969 C 8.953125 10.679688 8.992188 10.695312 9.019531 10.707031 C 9.0625 10.726562 9.109375 10.792969 9.144531 10.8125 C 9.148438 10.832031 9.140625 10.859375 9.144531 10.875 C 9.164062 10.898438 9.179688 10.921875 9.207031 10.9375 C 9.242188 10.957031 9.257812 10.984375 9.292969 11 C 9.300781 11.007812 9.316406 10.992188 9.332031 11 C 9.378906 11.011719 9.398438 11.074219 9.4375 11.0625 C 9.460938 11.054688 9.453125 11.023438 9.457031 11 C 9.476562 10.980469 9.496094 10.957031 9.519531 10.957031 C 9.5625 10.957031 9.570312 11.023438 9.582031 11.0625 C 9.59375 11.085938 9.617188 11.101562 9.625 11.125 C 9.636719 11.167969 9.632812 11.289062 9.625 11.3125 C 9.613281 11.34375 9.566406 11.339844 9.542969 11.375 C 9.527344 11.390625 9.53125 11.425781 9.519531 11.4375 C 9.503906 11.457031 9.492188 11.460938 9.480469 11.480469 C 9.472656 11.492188 9.464844 11.507812 9.457031 11.519531 C 9.4375 11.5625 9.398438 11.59375 9.417969 11.644531 C 9.421875 11.667969 9.457031 11.683594 9.457031 11.707031 C 9.457031 11.738281 9.402344 11.761719 9.394531 11.792969 C 9.394531 11.816406 9.410156 11.84375 9.417969 11.875 C 9.421875 11.898438 9.464844 11.921875 9.480469 11.9375 C 9.5 11.964844 9.519531 12.011719 9.542969 12.042969 C 9.582031 12.109375 9.605469 12.1875 9.644531 12.25 C 9.667969 12.28125 9.714844 12.300781 9.730469 12.332031 C 9.734375 12.351562 9.722656 12.378906 9.730469 12.394531 C 9.753906 12.449219 9.863281 12.515625 9.917969 12.542969 C 9.941406 12.554688 9.976562 12.550781 10 12.5625 C 10.035156 12.582031 10.105469 12.636719 10.125 12.667969 C 10.140625 12.695312 10.136719 12.769531 10.144531 12.8125 C 10.15625 12.871094 10.144531 12.917969 10.144531 12.980469 C 10.148438 13.015625 10.167969 13.027344 10.167969 13.0625 C 10.167969 13.074219 10.167969 13.113281 10.167969 13.125 C 10.164062 13.167969 10.167969 13.207031 10.167969 13.25 C 10.164062 13.273438 10.164062 13.292969 10.167969 13.3125 C 10.167969 13.332031 10.1875 13.335938 10.1875 13.355469 C 10.1875 13.375 10.164062 13.402344 10.167969 13.417969 C 10.171875 13.460938 10.199219 13.484375 10.207031 13.519531 C 10.214844 13.550781 10.234375 13.632812 10.230469 13.667969 C 10.226562 13.6875 10.210938 13.707031 10.207031 13.730469 C 10.207031 13.746094 10.210938 13.757812 10.207031 13.769531 C 10.207031 13.785156 10.214844 13.800781 10.207031 13.8125 C 10.1875 13.800781 10.167969 13.785156 10.144531 13.769531 C 9.96875 13.652344 9.796875 13.507812 9.644531 13.355469 C 9.625 13.335938 9.605469 13.3125 9.582031 13.292969 C 9.464844 13.164062 9.347656 13.019531 9.25 12.875 C 9.242188 12.863281 9.238281 12.847656 9.230469 12.832031 C 9.113281 12.660156 9.019531 12.488281 8.9375 12.292969 C 8.929688 12.277344 8.921875 12.265625 8.917969 12.25 C 8.847656 12.078125 8.789062 11.894531 8.75 11.707031 C 8.742188 11.671875 8.734375 11.640625 8.730469 11.605469 C 8.710938 11.515625 8.695312 11.425781 8.6875 11.332031 C 8.675781 11.222656 8.667969 11.113281 8.667969 11 C 8.667969 10.839844 8.6875 10.695312 8.707031 10.542969 Z M 8.707031 10.542969 "/>
</g>
</svg>
