<?xml version="1.0" encoding="UTF-8"?>
<svg xmlns="http://www.w3.org/2000/svg" xmlns:xlink="http://www.w3.org/1999/xlink" width="16pt" height="16pt" viewBox="0 0 16 16" version="1.1">
<g id="surface1">
<path style=" stroke:none;fill-rule:nonzero;fill:rgb(30.196078%,30.196078%,30.196078%);fill-opacity:1;" d="M 4 0 L 4 2 L 2 2 L 2 4 L 0 4 L 0 7 L 2 7 L 2 11 L 0 11 L 0 14 L 2 14 L 2 16 L 14 16 L 14 14 L 16 14 L 16 0 Z M 5 1 L 7 1 L 7 2 L 5 2 Z M 8 1 L 15 1 L 15 13 L 14 13 L 14 2 L 8 2 Z M 3 3 L 5 3 L 5 15 L 3 15 Z M 6 3 L 13 3 L 13 15 L 6 15 Z M 6 3 "/>
</g>
</svg>
