<?xml version="1.0" encoding="UTF-8"?>
<svg xmlns="http://www.w3.org/2000/svg" xmlns:xlink="http://www.w3.org/1999/xlink" width="16pt" height="16pt" viewBox="0 0 16 16" version="1.1">
<g id="surface1">
<path style=" stroke:none;fill-rule:nonzero;fill:rgb(30.196078%,30.196078%,30.196078%);fill-opacity:1;" d="M 0 0 L 0 5 L 4 5 L 4 4 L 1 4 L 1 1 L 4 1 L 4 0 Z M 12 0 L 12 1 L 15 1 L 15 4 L 12 4 L 12 5 L 16 5 L 16 0 Z M 3 2 L 3 3 L 13 3 L 13 2 Z M 7.5 5 L 7.5 12.09375 L 5.21875 9.875 L 4.5 10.59375 L 7.78125 13.78125 L 8 14 L 8.21875 13.78125 L 11.5 10.59375 L 10.78125 9.875 L 8.5 12.09375 L 8.5 5 Z M 0 15 L 0 16 L 16 16 L 16 15 Z M 0 15 "/>
</g>
</svg>
