<?xml version="1.0" encoding="UTF-8"?>
<svg xmlns="http://www.w3.org/2000/svg" xmlns:xlink="http://www.w3.org/1999/xlink" width="16pt" height="16pt" viewBox="0 0 16 16" version="1.1">
<g id="surface1">
<path style=" stroke:none;fill-rule:nonzero;fill:rgb(30.196078%,30.196078%,30.196078%);fill-opacity:1;" d="M 7 1.125 C 3.054688 2.050781 0 8.355469 0 16 L 1 16 C 1 8.949219 3.609375 3.128906 7 2.15625 Z M 9 1.125 L 9 2.15625 C 12.390625 3.128906 15 8.949219 15 16 L 16 16 C 16 8.355469 12.945312 2.050781 9 1.125 Z M 9 1.125 "/>
<path style=" stroke:none;fill-rule:nonzero;fill:rgb(11.372549%,60%,95.294118%);fill-opacity:1;" d="M 0 0 L 0 3 L 3 3 L 3 2 L 6 2 L 6 4 L 10 4 L 10 2 L 13 2 L 13 3 L 16 3 L 16 0 L 13 0 L 13 1 L 10 1 L 10 0 L 6 0 L 6 1 L 3 1 L 3 0 Z M 1 1 L 2 1 L 2 2 L 1 2 Z M 7 1 L 9 1 L 9 3 L 7 3 Z M 14 1 L 15 1 L 15 2 L 14 2 Z M 14 1 "/>
</g>
</svg>
