<?xml version="1.0" encoding="UTF-8"?>
<svg xmlns="http://www.w3.org/2000/svg" xmlns:xlink="http://www.w3.org/1999/xlink" width="16pt" height="16pt" viewBox="0 0 16 16" version="1.1">
<g id="surface1">
<path style=" stroke:none;fill-rule:nonzero;fill:rgb(30.196078%,30.196078%,30.196078%);fill-opacity:1;" d="M 0.5 0 C 0.328125 0 0.164062 0.0234375 0 0.046875 L 0 2 C 1.109375 2 2 2.890625 2 4 L 2 12 C 2 13.109375 1.109375 14 0 14 L 0 15.953125 C 0.164062 15.976562 0.328125 16 0.5 16 L 11 16 C 13.769531 16 16 13.769531 16 11 C 16 8.796875 14.578125 6.953125 12.605469 6.285156 C 13.449219 5.648438 14 4.644531 14 3.5 C 14 1.5625 12.4375 0 10.5 0 Z M 6 2 L 8 2 C 9.109375 2 10 2.890625 10 4 C 10 5.109375 9.109375 6 8 6 L 6 6 Z M 6 8 L 9 8 C 10.660156 8 12 9.339844 12 11 C 12 12.660156 10.660156 14 9 14 L 6 14 Z M 6 8 "/>
</g>
</svg>
