<?xml version="1.0" encoding="UTF-8"?>
<svg xmlns="http://www.w3.org/2000/svg" xmlns:xlink="http://www.w3.org/1999/xlink" width="16pt" height="16pt" viewBox="0 0 16 16" version="1.1">
<g id="surface1">
<path style=" stroke:none;fill-rule:nonzero;fill:rgb(30.196078%,30.196078%,30.196078%);fill-opacity:1;" d="M 4 0 C 3.445312 0 3 0.445312 3 1 C 3 1.554688 3.445312 2 4 2 C 4.554688 2 5 1.554688 5 1 C 5 0.445312 4.554688 0 4 0 Z M 11 0 L 9 2 L 12 5 L 9 8 L 11 10 L 16 5 Z M 1.5 6 C 0.667969 6 0 6.667969 0 7.5 C 0 8.332031 0.667969 9 1.5 9 C 2.332031 9 3 8.332031 3 7.5 C 3 6.667969 2.332031 6 1.5 6 Z M 6 12 C 4.890625 12 4 12.890625 4 14 C 4 15.109375 4.890625 16 6 16 C 7.109375 16 8 15.109375 8 14 C 8 12.890625 7.109375 12 6 12 Z M 6 12 "/>
</g>
</svg>
