<?xml version="1.0" encoding="UTF-8"?>
<svg xmlns="http://www.w3.org/2000/svg" xmlns:xlink="http://www.w3.org/1999/xlink" width="16pt" height="16pt" viewBox="0 0 16 16" version="1.1">
<g id="surface1">
<path style=" stroke:none;fill-rule:nonzero;fill:rgb(30.196078%,30.196078%,30.196078%);fill-opacity:1;" d="M 4 0 C 2.929688 3.816406 0 6.074219 0 8.183594 C 0 10.289062 1.789062 12 4 12 C 6.210938 12 8 10.289062 8 8.183594 C 8 6.074219 5.070312 3.816406 4 0 Z M 6.75 6.234375 C 7.1875 6.796875 7.425781 7.480469 7.425781 8.183594 C 7.429688 9.988281 5.894531 11.453125 4 11.453125 C 3.265625 11.453125 2.550781 11.226562 1.960938 10.808594 C 2.257812 10.875 2.554688 10.90625 2.859375 10.90625 C 5.066406 10.910156 6.855469 9.199219 6.859375 7.09375 C 6.855469 6.800781 6.820312 6.515625 6.75 6.234375 Z M 6.75 6.234375 "/>
<path style=" stroke:none;fill-rule:nonzero;fill:rgb(11.372549%,60%,95.294118%);fill-opacity:1;" d="M 14.4375 9 L 13.28125 11 L 10 11 L 10 12 L 12.707031 12 L 12.128906 13 L 10 13 L 10 14 L 11.550781 14 L 10.6875 15.5 L 11.5625 16 L 12.71875 14 L 16 14 L 16 13 L 13.292969 13 L 13.871094 12 L 16 12 L 16 11 L 14.449219 11 L 15.3125 9.5 Z M 14.4375 9 "/>
</g>
</svg>
