<?xml version="1.0" encoding="UTF-8"?>
<svg xmlns="http://www.w3.org/2000/svg" xmlns:xlink="http://www.w3.org/1999/xlink" width="16pt" height="16pt" viewBox="0 0 16 16" version="1.1">
<g id="surface1">
<path style=" stroke:none;fill-rule:nonzero;fill:rgb(30.196078%,30.196078%,30.196078%);fill-opacity:1;" d="M 3 0 C 1.34375 0 0 1.34375 0 3 C 0 4.65625 1.34375 6 3 6 C 4.300781 6 5.398438 5.160156 5.8125 4 L 12.5 4 C 13.328125 4 14 4.671875 14 5.5 C 14 6.328125 13.328125 7 12.5 7 L 3.5 7 C 1.566406 7 0 8.566406 0 10.5 C 0 12.433594 1.566406 14 3.5 14 L 10.1875 14 C 10.601562 15.160156 11.699219 16 13 16 C 14.65625 16 16 14.65625 16 13 C 16 11.34375 14.65625 10 13 10 C 11.699219 10 10.601562 10.839844 10.1875 12 L 3.5 12 C 2.671875 12 2 11.328125 2 10.5 C 2 9.671875 2.671875 9 3.5 9 L 12.5 9 C 14.433594 9 16 7.433594 16 5.5 C 16 3.734375 14.699219 2.269531 13 2.03125 L 13 2 L 5.8125 2 C 5.398438 0.839844 4.300781 0 3 0 Z M 3 2 C 3.550781 2 4 2.449219 4 3 C 4 3.550781 3.550781 4 3 4 C 2.449219 4 2 3.550781 2 3 C 2 2.449219 2.449219 2 3 2 Z M 13 12 C 13.550781 12 14 12.449219 14 13 C 14 13.550781 13.550781 14 13 14 C 12.449219 14 12 13.550781 12 13 C 12 12.449219 12.449219 12 13 12 Z M 13 12 "/>
</g>
</svg>
