<?xml version="1.0" encoding="UTF-8"?>
<svg xmlns="http://www.w3.org/2000/svg" xmlns:xlink="http://www.w3.org/1999/xlink" width="16pt" height="14pt" viewBox="0 0 16 14" version="1.1">
<g id="surface1">
<path style=" stroke:none;fill-rule:nonzero;fill:rgb(30.196078%,30.196078%,30.196078%);fill-opacity:1;" d="M 3 0 L 3 2 L 12.5 2 C 13.328125 2 14 2.671875 14 3.5 C 14 4.328125 13.328125 5 12.5 5 L 3.5 5 C 1.566406 5 0 6.566406 0 8.5 C 0 10.433594 1.566406 12 3.5 12 L 10.1875 12 C 10.601562 13.160156 11.699219 14 13 14 C 14.65625 14 16 12.65625 16 11 C 16 9.34375 14.65625 8 13 8 C 11.699219 8 10.601562 8.839844 10.1875 10 L 3.5 10 C 2.671875 10 2 9.328125 2 8.5 C 2 7.671875 2.671875 7 3.5 7 L 12.5 7 C 14.433594 7 16 5.433594 16 3.5 C 16 1.734375 14.699219 0.269531 13 0.03125 L 13 0 Z M 13 10 C 13.550781 10 14 10.449219 14 11 C 14 11.550781 13.550781 12 13 12 C 12.449219 12 12 11.550781 12 11 C 12 10.449219 12.449219 10 13 10 Z M 13 10 "/>
</g>
</svg>
