<?xml version="1.0" encoding="UTF-8"?>
<svg xmlns="http://www.w3.org/2000/svg" xmlns:xlink="http://www.w3.org/1999/xlink" width="16pt" height="16pt" viewBox="0 0 16 16" version="1.1">
<g id="surface1">
<path style=" stroke:none;fill-rule:nonzero;fill:rgb(30.196078%,30.196078%,30.196078%);fill-opacity:1;" d="M 3 0 C 1.34375 0 0 1.34375 0 3 C 0 4.65625 1.34375 6 3 6 C 3.773438 6 4.46875 5.699219 5 5.21875 C 5.324219 4.925781 5.578125 4.5625 5.75 4.15625 C 5.773438 4.105469 5.792969 4.050781 5.8125 4 L 7 4 L 7 14 L 13 14 L 13 16 L 16 13 L 13 10 L 13 12 L 9 12 L 9 2 L 5.8125 2 C 5.792969 1.945312 5.773438 1.894531 5.75 1.84375 C 5.578125 1.4375 5.324219 1.074219 5 0.78125 C 4.46875 0.300781 3.773438 0 3 0 Z M 3 2 C 3.550781 2 4 2.449219 4 3 C 4 3.550781 3.550781 4 3 4 C 2.449219 4 2 3.550781 2 3 C 2 2.449219 2.449219 2 3 2 Z M 3 2 "/>
</g>
</svg>
