<?xml version="1.0" encoding="UTF-8"?>
<svg xmlns="http://www.w3.org/2000/svg" xmlns:xlink="http://www.w3.org/1999/xlink" width="16pt" height="16pt" viewBox="0 0 16 16" version="1.1">
<g id="surface1">
<path style=" stroke:none;fill-rule:nonzero;fill:rgb(30.196078%,30.196078%,30.196078%);fill-opacity:1;" d="M 14 0 L 0 4 L 6.21875 14.71875 L 6.40625 15 L 6.96875 16 L 8.15625 16 L 7.59375 15 L 7.40625 14.71875 L 1.53125 4.625 L 12.59375 1.4375 L 11.03125 7.75 L 10.9375 8.125 L 11.875 10 L 13 10 L 12 8 Z M 14 0 "/>
<path style=" stroke:none;fill-rule:nonzero;fill:rgb(11.372549%,60%,95.294118%);fill-opacity:1;" d="M 13.5 11 C 12.113281 11 11 12.113281 11 13.5 C 11 13.933594 11.121094 14.332031 11.3125 14.6875 L 12.0625 13.9375 C 12.019531 13.800781 12 13.652344 12 13.5 C 12 12.667969 12.667969 12 13.5 12 C 13.652344 12 13.800781 12.023438 13.9375 12.0625 L 14.6875 11.3125 C 14.332031 11.121094 13.933594 11 13.5 11 Z M 15.6875 12.3125 L 14.9375 13.0625 C 14.980469 13.199219 15 13.347656 15 13.5 C 15 14.332031 14.332031 15 13.5 15 C 13.347656 15 13.199219 14.976562 13.0625 14.9375 L 12.3125 15.6875 C 12.667969 15.878906 13.066406 16 13.5 16 C 14.886719 16 16 14.886719 16 13.5 C 16 13.066406 15.878906 12.667969 15.6875 12.3125 Z M 15.6875 12.3125 "/>
</g>
</svg>
