<?xml version="1.0" encoding="UTF-8"?>
<svg xmlns="http://www.w3.org/2000/svg" xmlns:xlink="http://www.w3.org/1999/xlink" width="16pt" height="16pt" viewBox="0 0 16 16" version="1.1">
<g id="surface1">
<path style=" stroke:none;fill-rule:nonzero;fill:rgb(30.196078%,30.196078%,30.196078%);fill-opacity:1;" d="M 2 0 C 0.890625 0 0 0.890625 0 2 L 0 14 C 0 15.109375 0.890625 16 2 16 L 14 16 C 15.109375 16 16 15.109375 16 14 L 16 2 C 16 0.890625 15.109375 0 14 0 Z M 2 1 L 14 1 C 14.554688 1 15 1.445312 15 2 L 15 14 C 15 14.554688 14.554688 15 14 15 L 2 15 C 1.445312 15 1 14.554688 1 14 L 1 2 C 1 1.445312 1.445312 1 2 1 Z M 3 2 C 2.445312 2 2 2.445312 2 3 L 2 13 C 2 13.554688 2.445312 14 3 14 L 13 14 C 13.554688 14 14 13.554688 14 13 L 14 3 C 14 2.445312 13.554688 2 13 2 Z M 3 2 "/>
</g>
</svg>
