<?xml version="1.0" encoding="UTF-8"?>
<svg xmlns="http://www.w3.org/2000/svg" xmlns:xlink="http://www.w3.org/1999/xlink" width="16pt" height="15.28125pt" viewBox="0 0 16 15.28125" version="1.1">
<g id="surface1">
<path style=" stroke:none;fill-rule:nonzero;fill:rgb(30.196078%,30.196078%,30.196078%);fill-opacity:1;" d="M 0 0 L 0 14 C 4.539062 13.929688 8.03125 14.152344 12.6875 15.28125 L 16 2 C 9.75 0.300781 4.679688 0.0234375 0 0 Z M 1 1.03125 C 6.878906 0.988281 10.753906 1.644531 14.75 2.8125 L 11.96875 14.136719 C 9.394531 13.566406 6.839844 13 1 13.03125 Z M 4 5 L 2 7 L 4 9 L 4 8 C 6.613281 8 8.417969 8.316406 10.28125 8.78125 L 10.03125 9.6875 L 12.46875 8.28125 L 11.0625 5.84375 L 10.8125 6.78125 C 8.882812 6.320312 6.480469 6 4 6 Z M 4 5 "/>
</g>
</svg>
