<?xml version="1.0" encoding="UTF-8"?>
<svg xmlns="http://www.w3.org/2000/svg" xmlns:xlink="http://www.w3.org/1999/xlink" width="14.21875pt" height="14.21875pt" viewBox="0 0 14.21875 14.21875" version="1.1">
<g id="surface1">
<path style=" stroke:none;fill-rule:nonzero;fill:rgb(30.196078%,30.196078%,30.196078%);fill-opacity:1;" d="M 1.4375 0 L 0 1.4375 L 8.53125 9.96875 C 8.351562 10.355469 8.21875 10.765625 8.21875 11.21875 C 8.21875 12.875 9.5625 14.21875 11.21875 14.21875 C 12.875 14.21875 14.21875 12.875 14.21875 11.21875 C 14.21875 9.5625 12.875 8.21875 11.21875 8.21875 C 10.765625 8.21875 10.355469 8.351562 9.96875 8.53125 Z M 11.21875 10.21875 C 11.769531 10.21875 12.21875 10.667969 12.21875 11.21875 C 12.21875 11.769531 11.769531 12.21875 11.21875 12.21875 C 10.667969 12.21875 10.21875 11.769531 10.21875 11.21875 C 10.21875 10.667969 10.667969 10.21875 11.21875 10.21875 Z M 11.21875 10.21875 "/>
</g>
</svg>
