<?xml version="1.0" encoding="UTF-8"?>
<svg xmlns="http://www.w3.org/2000/svg" xmlns:xlink="http://www.w3.org/1999/xlink" width="20.845703pt" height="17pt" viewBox="0 0 20.845703 17" version="1.1">
<g id="surface1">
<path style=" stroke:none;fill-rule:nonzero;fill:rgb(30.196078%,30.196078%,30.196078%);fill-opacity:1;" d="M 4.171875 5 L 0 17 L 1.007812 17 L 2.503906 13 L 7.710938 13 L 9.203125 17 L 10.34375 17 L 6.113281 5 Z M 11.34375 5 L 11.34375 17 L 17.34375 17 C 19.277344 17 20.84375 15.433594 20.84375 13.5 C 20.84375 11.980469 19.859375 10.632812 18.410156 10.171875 C 19.007812 9.605469 19.34375 8.820312 19.34375 8 C 19.34375 6.34375 18.003906 5 16.34375 5 Z M 12.34375 6 L 16.34375 6 C 17.449219 6 18.34375 6.894531 18.34375 8 C 18.34375 9.105469 17.449219 10 16.34375 10 L 12.34375 10 Z M 5.113281 6.03125 L 7.335938 12 L 2.878906 12 Z M 12.34375 11 L 17.34375 11 C 18.726562 11 19.84375 12.121094 19.84375 13.5 C 19.84375 14.878906 18.726562 16 17.34375 16 L 12.34375 16 Z M 12.34375 11 "/>
<path style=" stroke:none;fill-rule:nonzero;fill:rgb(11.372549%,60%,95.294118%);fill-opacity:1;" d="M 15.34375 0 L 12.34375 4 L 18.34375 4 Z M 15.34375 0 "/>
</g>
</svg>
