<?xml version="1.0" encoding="UTF-8"?>
<svg xmlns="http://www.w3.org/2000/svg" xmlns:xlink="http://www.w3.org/1999/xlink" width="18pt" height="17pt" viewBox="0 0 18 17" version="1.1">
<g id="surface1">
<path style=" stroke:none;fill-rule:nonzero;fill:rgb(30.196078%,30.196078%,30.196078%);fill-opacity:1;" d="M 10 5 L 10 17 L 11 17 L 11 15.640625 C 11.757812 16.503906 12.851562 17 14 17 C 16.210938 17 18 15.210938 18 13 C 18 10.789062 16.210938 9 14 9 C 12.851562 9 11.757812 9.496094 11 10.359375 L 11 5 Z M 4 9 C 1.789062 9 0 10.789062 0 13 C 0 15.210938 1.789062 17 4 17 C 5.148438 17 6.242188 16.503906 7 15.640625 L 7 17 L 8 17 L 8 9 L 7 9 L 7 10.359375 C 6.242188 9.496094 5.148438 9 4 9 Z M 4 10 C 5.65625 10 7 11.34375 7 13 C 7 14.65625 5.65625 16 4 16 C 2.34375 16 1 14.65625 1 13 C 1 11.34375 2.34375 10 4 10 Z M 14 10 C 15.65625 10 17 11.34375 17 13 C 17 14.65625 15.65625 16 14 16 C 12.34375 16 11 14.65625 11 13 C 11 11.34375 12.34375 10 14 10 Z M 14 10 "/>
<path style=" stroke:none;fill-rule:nonzero;fill:rgb(11.372549%,60%,95.294118%);fill-opacity:1;" d="M 11 0 L 14 4 L 17 0 Z M 11 0 "/>
</g>
</svg>
