<?xml version="1.0" encoding="UTF-8"?>
<svg xmlns="http://www.w3.org/2000/svg" xmlns:xlink="http://www.w3.org/1999/xlink" width="16pt" height="16pt" viewBox="0 0 16 16" version="1.1">
<g id="surface1">
<path style=" stroke:none;fill-rule:nonzero;fill:rgb(30.196078%,30.196078%,30.196078%);fill-opacity:1;" d="M 0 0 L 0 10 L 3 14 L 3 10 L 16 10 L 16 0 Z M 1 1 L 15 1 L 15 9 L 1 9 Z M 13 11 L 13 13 L 11 13 L 11 14 L 13 14 L 13 16 L 14 16 L 14 14 L 16 14 L 16 13 L 14 13 L 14 11 Z M 13 11 "/>
<path style=" stroke:none;fill-rule:nonzero;fill:rgb(85.490196%,26.666667%,32.54902%);fill-opacity:1;" d="M 8 3 C 6.894531 3 6 3.894531 6 5 C 6 6.105469 6.894531 7 8 7 C 9.105469 7 10 6.105469 10 5 C 10 3.894531 9.105469 3 8 3 Z M 8 3 "/>
</g>
</svg>
