<?xml version="1.0" encoding="UTF-8"?>
<svg xmlns="http://www.w3.org/2000/svg" xmlns:xlink="http://www.w3.org/1999/xlink" width="16pt" height="16pt" viewBox="0 0 16 16" version="1.1">
<g id="surface1">
<path style=" stroke:none;fill-rule:nonzero;fill:rgb(30.196078%,30.196078%,30.196078%);fill-opacity:1;" d="M 8 0 C 3.578125 0.015625 0 3.59375 0 8 C 0 12.417969 3.59375 16 8.03125 16 C 12.125 16 15.503906 12.945312 16 9 C 13.457031 6.125 10.542969 2.875 8 0 Z M 7.3125 1.03125 C 7.40625 1.023438 7.5 1.035156 7.59375 1.03125 L 7.625 1.0625 L 14.9375 9.1875 C 14.371094 12.484375 11.503906 15 8.03125 15 C 4.148438 15 1 11.867188 1 8 C 1 4.375 3.769531 1.390625 7.3125 1.03125 Z M 7.3125 1.03125 "/>
</g>
</svg>
