<?xml version="1.0" encoding="UTF-8"?>
<svg xmlns="http://www.w3.org/2000/svg" xmlns:xlink="http://www.w3.org/1999/xlink" width="16pt" height="16pt" viewBox="0 0 16 16" version="1.1">
<g id="surface1">
<path style=" stroke:none;fill-rule:nonzero;fill:rgb(30.196078%,30.196078%,30.196078%);fill-opacity:1;" d="M 3 0 C 1.34375 0 0 1.34375 0 3 C 0 4.65625 1.34375 6 3 6 C 3.453125 6 3.863281 5.867188 4.25 5.6875 L 13.28125 14.71875 L 12 16 L 16 16 L 16 12 L 14.71875 13.28125 L 5.6875 4.25 C 5.867188 3.863281 6 3.453125 6 3 C 6 1.34375 4.65625 0 3 0 Z M 3 2 C 3.550781 2 4 2.449219 4 3 C 4 3.550781 3.550781 4 3 4 C 2.449219 4 2 3.550781 2 3 C 2 2.449219 2.449219 2 3 2 Z M 3 2 "/>
</g>
</svg>
