<?xml version="1.0" encoding="UTF-8"?>
<svg xmlns="http://www.w3.org/2000/svg" xmlns:xlink="http://www.w3.org/1999/xlink" width="16pt" height="15.999987pt" viewBox="0 0 16 15.999987" version="1.1">
<defs>
<filter id="alpha" filterUnits="objectBoundingBox" x="0%" y="0%" width="100%" height="100%">
  <feColorMatrix type="matrix" in="SourceGraphic" values="0 0 0 0 1 0 0 0 0 1 0 0 0 0 1 0 0 0 1 0"/>
</filter>
<mask id="mask0">
  <g filter="url(#alpha)">
<rect x="0" y="0" width="16" height="15.999987" style="fill:rgb(0%,0%,0%);fill-opacity:0.988235;stroke:none;"/>
  </g>
</mask>
<clipPath id="clip1">
  <rect width="24" height="25"/>
</clipPath>
<g id="surface6" clip-path="url(#clip1)">
<path style=" stroke:none;fill-rule:nonzero;fill:rgb(30.196078%,30.196078%,30.196078%);fill-opacity:1;" d="M 20 9 C 20 11.210938 16.417969 13 12 13 C 7.582031 13 4 11.210938 4 9 C 4 6.789062 7.582031 5 12 5 C 16.417969 5 20 6.789062 20 9 "/>
</g>
<mask id="mask1">
  <g filter="url(#alpha)">
<rect x="0" y="0" width="16" height="15.999987" style="fill:rgb(0%,0%,0%);fill-opacity:0.988235;stroke:none;"/>
  </g>
</mask>
<linearGradient id="linear0" gradientUnits="userSpaceOnUse" x1="3" y1="0" x2="11" y2="0" gradientTransform="matrix(1,0,0,1,1,-1028.362213)">
<stop offset="0" style="stop-color:rgb(70.196078%,70.196078%,70.196078%);stop-opacity:1;"/>
<stop offset="1" style="stop-color:rgb(30.196078%,30.196078%,30.196078%);stop-opacity:1;"/>
</linearGradient>
<clipPath id="clip2">
  <rect width="24" height="25"/>
</clipPath>
<g id="surface9" clip-path="url(#clip2)">
<path style=" stroke:none;fill-rule:nonzero;fill:url(#linear0);" d="M 4 9 L 4 17 C 4 19.210938 7.582031 21 12 21 C 16.417969 21 20 19.210938 20 17 L 20 9 C 20 11.210938 16.417969 13 12 13 C 7.582031 13 4 11.210938 4 9 "/>
</g>
</defs>
<g id="surface1">
<use xlink:href="#surface6" transform="matrix(1,0,0,1,-4,-5)" mask="url(#mask0)"/>
<use xlink:href="#surface9" transform="matrix(1,0,0,1,-4,-5)" mask="url(#mask1)"/>
</g>
</svg>
