<?xml version="1.0" encoding="UTF-8"?>
<svg xmlns="http://www.w3.org/2000/svg" xmlns:xlink="http://www.w3.org/1999/xlink" width="16pt" height="16pt" viewBox="0 0 16 16" version="1.1">
<g id="surface1">
<path style=" stroke:none;fill-rule:nonzero;fill:rgb(70.196078%,70.196078%,70.196078%);fill-opacity:1;" d="M 0 3 L 0 16 L 13 16 L 13 3 Z M 0 3 "/>
<path style=" stroke:none;fill-rule:nonzero;fill:rgb(30.196078%,30.196078%,30.196078%);fill-opacity:1;" d="M 3 0 L 0 3 L 13 3 L 13 16 L 16 13 L 16 0 Z M 3 0 "/>
<path style=" stroke:none;fill-rule:nonzero;fill:rgb(11.372549%,60%,95.294118%);fill-opacity:1;" d="M 3.5 10 C 2.113281 10 1 11.113281 1 12.5 C 1 12.933594 1.121094 13.332031 1.3125 13.6875 L 2.0625 12.9375 C 2.019531 12.800781 2 12.652344 2 12.5 C 2 11.667969 2.667969 11 3.5 11 C 3.652344 11 3.800781 11.023438 3.9375 11.0625 L 4.6875 10.3125 C 4.332031 10.121094 3.933594 10 3.5 10 Z M 5.6875 11.3125 L 4.9375 12.0625 C 4.980469 12.199219 5 12.347656 5 12.5 C 5 13.332031 4.332031 14 3.5 14 C 3.347656 14 3.199219 13.980469 3.0625 13.9375 L 2.3125 14.6875 C 2.667969 14.882812 3.066406 15 3.5 15 C 4.886719 15 6 13.886719 6 12.5 C 6 12.070312 5.878906 11.667969 5.6875 11.3125 Z M 5.6875 11.3125 "/>
</g>
</svg>
