<?xml version="1.0" encoding="UTF-8"?>
<svg xmlns="http://www.w3.org/2000/svg" xmlns:xlink="http://www.w3.org/1999/xlink" width="13pt" height="14pt" viewBox="0 0 13 14" version="1.1">
<g id="surface1">
<path style=" stroke:none;fill-rule:nonzero;fill:rgb(30.196078%,30.196078%,30.196078%);fill-opacity:1;" d="M 3 0 C 1.34375 0 0 1.34375 0 3 C 0 4.65625 1.34375 6 3 6 C 4.300781 6 5.398438 5.160156 5.8125 4 L 6.1875 4 L 8.03125 13.1875 L 8.1875 14 L 13 14 L 13 12 L 9.8125 12 L 7.96875 2.8125 L 7.8125 2 L 7 2 L 7 1.96875 L 6.84375 2 L 5.8125 2 C 5.398438 0.839844 4.300781 0 3 0 Z M 3 2 C 3.550781 2 4 2.449219 4 3 C 4 3.550781 3.550781 4 3 4 C 2.449219 4 2 3.550781 2 3 C 2 2.449219 2.449219 2 3 2 Z M 3 2 "/>
</g>
</svg>
