<?xml version="1.0" encoding="UTF-8"?>
<svg xmlns="http://www.w3.org/2000/svg" xmlns:xlink="http://www.w3.org/1999/xlink" width="16pt" height="16pt" viewBox="0 0 16 16" version="1.1">
<defs>
<filter id="alpha" filterUnits="objectBoundingBox" x="0%" y="0%" width="100%" height="100%">
  <feColorMatrix type="matrix" in="SourceGraphic" values="0 0 0 0 1 0 0 0 0 1 0 0 0 0 1 0 0 0 1 0"/>
</filter>
<mask id="mask0">
  <g filter="url(#alpha)">
<rect x="0" y="0" width="16" height="16" style="fill:rgb(0%,0%,0%);fill-opacity:0.988235;stroke:none;"/>
  </g>
</mask>
<linearGradient id="linear0" gradientUnits="userSpaceOnUse" x1="19" y1="1041.362217" x2="13" y2="1042.362217" gradientTransform="matrix(1,0,0,1,1,-1029.3622)">
<stop offset="0" style="stop-color:rgb(70.196078%,70.196078%,70.196078%);stop-opacity:1;"/>
<stop offset="1" style="stop-color:rgb(30.196078%,30.196078%,30.196078%);stop-opacity:1;"/>
</linearGradient>
<clipPath id="clip1">
  <rect width="24" height="24"/>
</clipPath>
<g id="surface6" clip-path="url(#clip1)">
<path style=" stroke:none;fill-rule:nonzero;fill:url(#linear0);" d="M 12 4 L 12 20 C 16.417969 20 20 18.210938 20 16 C 20 15.515625 19.8125 15.054688 19.5 14.625 Z M 12 4 "/>
</g>
</defs>
<g id="surface1">
<use xlink:href="#surface6" transform="matrix(1,0,0,1,-4,-4)" mask="url(#mask0)"/>
<path style=" stroke:none;fill-rule:evenodd;fill:rgb(70.196078%,70.196078%,70.196078%);fill-opacity:1;" d="M 0 12 C 0 14.210938 3.582031 16 8 16 L 8 15 C 4.132812 15 1 13.65625 1 12 Z M 0 12 "/>
<path style=" stroke:none;fill-rule:nonzero;fill:rgb(30.196078%,30.196078%,30.196078%);fill-opacity:1;" d="M 7 0 L 0 12 L 7 12 Z M 7 0 "/>
<path style=" stroke:none;fill-rule:evenodd;fill:rgb(11.372549%,60%,95.294118%);fill-opacity:1;" d="M 7 16 L 7 0 L 8 0 L 8 16 Z M 7 16 "/>
</g>
</svg>
