<?xml version="1.0" encoding="UTF-8"?>
<svg xmlns="http://www.w3.org/2000/svg" xmlns:xlink="http://www.w3.org/1999/xlink" width="16pt" height="16pt" viewBox="0 0 16 16" version="1.1">
<g id="surface1">
<path style=" stroke:none;fill-rule:nonzero;fill:rgb(30.196078%,30.196078%,30.196078%);fill-opacity:1;" d="M 3 0 C 1.34375 0 0 1.34375 0 3 C 0 4.65625 1.34375 6 3 6 C 3.453125 6 3.863281 5.867188 4.25 5.6875 L 10.3125 11.75 C 10.132812 12.136719 10 12.546875 10 13 C 10 14.65625 11.34375 16 13 16 C 14.65625 16 16 14.65625 16 13 C 16 11.34375 14.65625 10 13 10 C 12.546875 10 12.136719 10.132812 11.75 10.3125 L 5.6875 4.25 C 5.867188 3.863281 6 3.453125 6 3 C 6 1.34375 4.65625 0 3 0 Z M 3 2 C 3.550781 2 4 2.449219 4 3 C 4 3.550781 3.550781 4 3 4 C 2.449219 4 2 3.550781 2 3 C 2 2.449219 2.449219 2 3 2 Z M 13 12 C 13.550781 12 14 12.449219 14 13 C 14 13.550781 13.550781 14 13 14 C 12.449219 14 12 13.550781 12 13 C 12 12.449219 12.449219 12 13 12 Z M 13 12 "/>
</g>
</svg>
