<?xml version="1.0" encoding="UTF-8"?>
<svg xmlns="http://www.w3.org/2000/svg" xmlns:xlink="http://www.w3.org/1999/xlink" width="18pt" height="8pt" viewBox="0 0 18 8" version="1.1">
<g id="surface1">
<path style=" stroke:none;fill-rule:nonzero;fill:rgb(30.196078%,30.196078%,30.196078%);fill-opacity:1;" d="M 1 0 C 0.445312 0 0 0.445312 0 1 L 0 7 C 0 7.554688 0.445312 8 1 8 L 7 8 C 7.554688 8 8 7.554688 8 7 L 8 6 L 10 6 L 10 7 C 10 7.554688 10.445312 8 11 8 L 17 8 C 17.554688 8 18 7.554688 18 7 L 18 1 C 18 0.445312 17.554688 0 17 0 L 11 0 C 10.445312 0 10 0.445312 10 1 L 10 2 L 8 2 L 8 1 C 8 0.445312 7.554688 0 7 0 Z M 1 1 L 7 1 L 7 2 C 6.445312 2 6 2.445312 6 3 L 6 5 C 6 5.554688 6.445312 6 7 6 L 7 7 L 1 7 Z M 11 1 L 17 1 L 17 7 L 11 7 L 11 6 C 11.554688 6 12 5.554688 12 5 L 12 3 C 12 2.445312 11.554688 2 11 2 Z M 7 3 L 11 3 L 11 5 L 7 5 Z M 7 3 "/>
</g>
</svg>
