<?xml version="1.0" encoding="UTF-8"?>
<svg xmlns="http://www.w3.org/2000/svg" xmlns:xlink="http://www.w3.org/1999/xlink" width="12pt" height="16pt" viewBox="0 0 12 16" version="1.1">
<g id="surface1">
<path style=" stroke:none;fill-rule:nonzero;fill:rgb(30.196078%,30.196078%,30.196078%);fill-opacity:1;" d="M 1.5 0 C 0.671875 0 0 0.671875 0 1.5 C 0 2.136719 0.402344 2.699219 1 2.914062 L 1 12 C 1 13.105469 1.894531 14 3 14 L 4 14 L 4 16 L 7 13.5 L 4 11 L 4 13 L 3 13 C 2.449219 13 2 12.550781 2 12 L 2 2.914062 C 2.597656 2.699219 3 2.136719 3 1.5 C 3 0.671875 2.328125 0 1.5 0 Z M 8 0 L 5 2.5 L 8 5 L 8 3 L 9 3 C 9.550781 3 10 3.449219 10 4 L 10 13.089844 C 9.402344 13.300781 9 13.863281 9 14.5 C 9 15.328125 9.671875 16 10.5 16 C 11.328125 16 12 15.328125 12 14.5 C 12 13.863281 11.597656 13.300781 11 13.089844 L 11 4 C 11 2.894531 10.105469 2 9 2 L 8 2 Z M 1.5 1 C 1.777344 1 2 1.222656 2 1.5 C 2 1.777344 1.777344 2 1.5 2 C 1.222656 2 1 1.777344 1 1.5 C 1 1.222656 1.222656 1 1.5 1 Z M 10.5 14 C 10.777344 14 11 14.222656 11 14.5 C 11 14.777344 10.777344 15 10.5 15 C 10.222656 15 10 14.777344 10 14.5 C 10 14.222656 10.222656 14 10.5 14 Z M 10.5 14 "/>
</g>
</svg>
