<?xml version="1.0" encoding="UTF-8"?>
<svg xmlns="http://www.w3.org/2000/svg" xmlns:xlink="http://www.w3.org/1999/xlink" width="16pt" height="16pt" viewBox="0 0 16 16" version="1.1">
<g id="surface1">
<path style=" stroke:none;fill-rule:nonzero;fill:rgb(30.196078%,30.196078%,30.196078%);fill-opacity:1;" d="M 0 0 L 0 16 L 16 16 L 16 0 Z M 11.621094 1 L 13 1.820312 L 14.378906 1 L 15 1.820312 L 13.3125 2.820312 L 13 3 L 12.6875 2.820312 L 11 1.820312 Z M 1 4 L 15 4 L 15 15 L 1 15 Z M 2 6 L 2 7 L 14 7 L 14 6 Z M 2 9 L 2 10 L 12 10 L 12 9 Z M 2 12 L 2 13 L 10 13 L 10 12 Z M 2 12 "/>
</g>
</svg>
