<?xml version="1.0" encoding="UTF-8"?>
<svg xmlns="http://www.w3.org/2000/svg" xmlns:xlink="http://www.w3.org/1999/xlink" width="13pt" height="14pt" viewBox="0 0 13 14" version="1.1">
<g id="surface1">
<path style=" stroke:none;fill-rule:nonzero;fill:rgb(30.196078%,30.196078%,30.196078%);fill-opacity:1;" d="M 0 0 L 0 2 L 3.1875 2 L 5.03125 11.1875 L 5.1875 12 L 6 12 L 6 12.03125 L 6.15625 12 L 7.1875 12 C 7.601562 13.160156 8.699219 14 10 14 C 11.65625 14 13 12.65625 13 11 C 13 9.34375 11.65625 8 10 8 C 8.699219 8 7.601562 8.839844 7.1875 10 L 6.8125 10 L 4.96875 0.8125 L 4.8125 0 Z M 10 10 C 10.550781 10 11 10.449219 11 11 C 11 11.550781 10.550781 12 10 12 C 9.449219 12 9 11.550781 9 11 C 9 10.449219 9.449219 10 10 10 Z M 10 10 "/>
</g>
</svg>
