<?xml version="1.0" encoding="UTF-8"?>
<svg xmlns="http://www.w3.org/2000/svg" xmlns:xlink="http://www.w3.org/1999/xlink" width="14pt" height="16pt" viewBox="0 0 14 16" version="1.1">
<g id="surface1">
<path style=" stroke:none;fill-rule:nonzero;fill:rgb(30.196078%,30.196078%,30.196078%);fill-opacity:1;" d="M 3.011719 0 C 2.433594 1 2.132812 1 2.710938 2 L 6.25 8.140625 L 4.195312 11.667969 C 3.75 11.257812 3.15625 11 2.5 11 C 1.113281 11 0 12.113281 0 13.5 C 0 14.886719 1.113281 16 2.5 16 C 3.886719 16 5 14.886719 5 13.5 C 5 13.332031 4.980469 13.167969 4.953125 13.011719 L 6.113281 11 C 6.894531 10.988281 6.992188 10.222656 7.449219 10.214844 L 9.050781 12.996094 C 9.019531 13.15625 9 13.328125 9 13.5 C 9 14.886719 10.113281 16 11.5 16 C 12.886719 16 14 14.886719 14 13.5 C 14 12.113281 12.886719 11 11.5 11 C 10.847656 11 10.257812 11.253906 9.8125 11.660156 L 7.761719 8.140625 L 11.300781 2 C 11.878906 1 11.578125 1 11 0 L 7.003906 6.847656 Z M 7 8 C 7.277344 8 7.5 8.222656 7.5 8.5 C 7.5 8.777344 7.277344 9 7 9 C 6.722656 9 6.5 8.777344 6.5 8.5 C 6.5 8.222656 6.722656 8 7 8 Z M 2.5 12 C 3.332031 12 4 12.667969 4 13.5 C 4 14.332031 3.332031 15 2.5 15 C 1.667969 15 1 14.332031 1 13.5 C 1 12.667969 1.667969 12 2.5 12 Z M 11.5 12 C 12.332031 12 13 12.667969 13 13.5 C 13 14.332031 12.332031 15 11.5 15 C 10.667969 15 10 14.332031 10 13.5 C 10 12.667969 10.667969 12 11.5 12 Z M 11.5 12 "/>
</g>
</svg>
