<?xml version="1.0" encoding="UTF-8"?>
<svg xmlns="http://www.w3.org/2000/svg" xmlns:xlink="http://www.w3.org/1999/xlink" width="16pt" height="16pt" viewBox="0 0 16 16" version="1.1">
<g id="surface1">
<path style=" stroke:none;fill-rule:nonzero;fill:rgb(30.196078%,30.196078%,30.196078%);fill-opacity:1;" d="M 8 0 C 3.582031 0 0 2.238281 0 5 C 0 7.761719 3.582031 10 8 10 C 12.417969 10 16 7.761719 16 5 C 16 2.238281 12.417969 0 8 0 Z M 5 10 C 3.34375 10 2 10.671875 2 11.5 C 2 12.328125 3.34375 13 5 13 C 6.65625 13 8 12.328125 8 11.5 C 8 10.671875 6.65625 10 5 10 Z M 3 13 C 1.894531 13 1 13.449219 1 14 C 1 14.550781 1.894531 15 3 15 C 4.105469 15 5 14.550781 5 14 C 5 13.449219 4.105469 13 3 13 Z M 1 15 C 0.449219 15 0 15.222656 0 15.5 C 0 15.777344 0.449219 16 1 16 C 1.550781 16 2 15.777344 2 15.5 C 2 15.222656 1.550781 15 1 15 Z M 1 15 "/>
</g>
</svg>
