<?xml version="1.0" encoding="UTF-8"?>
<svg xmlns="http://www.w3.org/2000/svg" xmlns:xlink="http://www.w3.org/1999/xlink" width="16pt" height="15pt" viewBox="0 0 16 15" version="1.1">
<g id="surface1">
<path style=" stroke:none;fill-rule:nonzero;fill:rgb(15.294118%,68.235294%,37.647059%);fill-opacity:1;" d="M 0 0 L 0 3 L 16 3 L 16 0 Z M 0 10 L 0 13 L 9 13 L 9 10 Z M 0 10 "/>
<path style=" stroke:none;fill-rule:nonzero;fill:rgb(85.490196%,26.666667%,32.54902%);fill-opacity:1;" d="M 0 5 L 0 8 L 13 8 L 13 5 Z M 0 5 "/>
<path style=" stroke:none;fill-rule:nonzero;fill:rgb(30.196078%,30.196078%,30.196078%);fill-opacity:1;" d="M 14.4375 8 L 13.28125 10 L 10 10 L 10 11 L 12.707031 11 L 12.128906 12 L 10 12 L 10 13 L 11.550781 13 L 10.6875 14.5 L 11.5625 15 L 12.71875 13 L 16 13 L 16 12 L 13.292969 12 L 13.871094 11 L 16 11 L 16 10 L 14.449219 10 L 15.3125 8.5 Z M 14.4375 8 "/>
</g>
</svg>
