<?xml version="1.0" encoding="UTF-8"?>
<svg xmlns="http://www.w3.org/2000/svg" xmlns:xlink="http://www.w3.org/1999/xlink" width="16pt" height="16pt" viewBox="0 0 16 16" version="1.1">
<g id="surface1">
<path style=" stroke:none;fill-rule:nonzero;fill:rgb(30.196078%,30.196078%,30.196078%);fill-opacity:1;" d="M 8.5 0 C 7.285156 0 6.28125 0.855469 6.050781 2 L 0 2 L 0 3 L 6.050781 3 C 6.28125 4.144531 7.285156 5 8.5 5 C 9.714844 5 10.71875 4.144531 10.949219 3 L 16 3 L 16 2 L 10.949219 2 C 10.71875 0.855469 9.714844 0 8.5 0 Z M 2.5 11 C 1.113281 11 0 12.113281 0 13.5 C 0 14.886719 1.113281 16 2.5 16 C 3.714844 16 4.71875 15.144531 4.949219 14 L 16 14 L 16 13 L 4.949219 13 C 4.71875 11.855469 3.714844 11 2.5 11 Z M 2.5 12 C 3.332031 12 4 12.667969 4 13.5 C 4 14.332031 3.332031 15 2.5 15 C 1.667969 15 1 14.332031 1 13.5 C 1 12.667969 1.667969 12 2.5 12 Z M 2.5 12 "/>
</g>
</svg>
