<?xml version="1.0" encoding="UTF-8"?>
<svg xmlns="http://www.w3.org/2000/svg" xmlns:xlink="http://www.w3.org/1999/xlink" width="16pt" height="16pt" viewBox="0 0 16 16" version="1.1">
<g id="surface1">
<path style=" stroke:none;fill-rule:nonzero;fill:rgb(30.196078%,30.196078%,30.196078%);fill-opacity:1;" d="M 0 0 L 0 3 L 3 3 L 3 0 Z M 13 0 L 13 1 L 15 1 L 15 3 L 16 3 L 16 0 Z M 1 1 L 2 1 L 2 2 L 1 2 Z M 4 2 L 4 3 L 6 3 L 6 2 Z M 7 2 L 7 3 L 9 3 L 9 2 Z M 10 2 L 10 3 L 12 3 L 12 2 Z M 2 4 L 2 6 L 3 6 L 3 4 Z M 6 4 L 6 11 L 12 11 L 12 10 L 7 10 L 7 4 Z M 13 4 L 13 6 L 14 6 L 14 4 Z M 2 7 L 2 9 L 3 9 L 3 7 Z M 13 7 L 13 9 L 14 9 L 14 7 Z M 2 10 L 2 12 L 3 12 L 3 10 Z M 13 10 L 13 12 L 14 12 L 14 10 Z M 0 13 L 0 16 L 3 16 L 3 13 Z M 4 13 L 4 14 L 6 14 L 6 13 Z M 7 13 L 7 14 L 9 14 L 9 13 Z M 10 13 L 10 14 L 12 14 L 12 13 Z M 13 13 L 13 16 L 16 16 L 16 13 Z M 1 14 L 2 14 L 2 15 L 1 15 Z M 14 14 L 15 14 L 15 15 L 14 15 Z M 14 14 "/>
</g>
</svg>
