<?xml version="1.0" encoding="UTF-8"?>
<svg xmlns="http://www.w3.org/2000/svg" xmlns:xlink="http://www.w3.org/1999/xlink" width="16pt" height="16pt" viewBox="0 0 16 16" version="1.1">
<g id="surface1">
<path style=" stroke:none;fill-rule:nonzero;fill:rgb(30.196078%,30.196078%,30.196078%);fill-opacity:1;" d="M 0 0 L 0 14 C 8 14 9.941406 14.722656 16 16 L 16 2 C 10.378906 0.378906 8 0 0 0 Z M 1 1.046875 C 7 1 10.917969 1.675781 15 2.890625 L 15 14.640625 C 10.847656 13.65625 9 13 1 13.046875 Z M 4.226562 4.773438 L 2.226562 6.777344 L 4.226562 8.777344 L 4.226562 7.777344 C 7.542969 7.777344 9.816406 8.003906 12.222656 8.777344 L 12.222656 9.777344 L 14.222656 7.777344 L 12.222656 5.773438 L 12.222656 6.777344 C 10.171875 6.105469 7.222656 5.773438 4.226562 5.773438 Z M 4.226562 4.773438 "/>
</g>
</svg>
