<?xml version="1.0" encoding="UTF-8"?>
<svg xmlns="http://www.w3.org/2000/svg" xmlns:xlink="http://www.w3.org/1999/xlink" width="18pt" height="16pt" viewBox="0 0 18 16" version="1.1">
<g id="surface1">
<path style=" stroke:none;fill-rule:nonzero;fill:rgb(30.196078%,30.196078%,30.196078%);fill-opacity:1;" d="M 0 0 L 0 12 L 18 12 L 18 0 Z M 1 1 L 17 1 L 17 11 L 1 11 Z M 9 2 L 7.667969 4.664062 L 5 5.335938 L 7 7.332031 L 6.335938 10 L 9 8.667969 L 11.667969 10 L 11 7.332031 L 13 5.335938 L 10.332031 4.664062 Z M 11 2 L 11 3 L 16 3 L 16 2 Z M 14 4 L 14 5 L 16 5 L 16 4 Z M 14 7 L 14 8 L 16 8 L 16 7 Z M 12 9 L 12 10 L 16 10 L 16 9 Z M 7 13 L 7 15 L 6 15 L 6 16 L 12 16 L 12 15 L 11 15 L 11 13 L 10 13 L 10 15 L 8 15 L 8 13 Z M 7 13 "/>
</g>
</svg>
