<?xml version="1.0" encoding="UTF-8"?>
<svg xmlns="http://www.w3.org/2000/svg" xmlns:xlink="http://www.w3.org/1999/xlink" width="16pt" height="16pt" viewBox="0 0 16 16" version="1.1">
<g id="surface1">
<path style=" stroke:none;fill-rule:nonzero;fill:rgb(30.196078%,30.196078%,30.196078%);fill-opacity:1;" d="M 0 0 L 0 16 L 16 16 L 16 0 L 14 0 L 14 3 L 12 3 L 12 0 L 4 0 L 4 3 L 2 3 L 2 0 Z M 1 4 L 15 4 L 15 15 L 1 15 Z M 3 5 L 3 7 L 5 7 L 5 5 Z M 7 5 L 7 7 L 9 7 L 9 5 Z M 11 5 L 11 7 L 13 7 L 13 5 Z M 3 8 L 3 10 L 5 10 L 5 8 Z M 7 8 L 7 10 L 9 10 L 9 8 Z M 11 8 L 11 10 L 13 10 L 13 8 Z M 11 11 L 11 13 L 13 13 L 13 11 Z M 11 11 "/>
</g>
</svg>
