<?xml version="1.0" encoding="UTF-8"?>
<svg xmlns="http://www.w3.org/2000/svg" xmlns:xlink="http://www.w3.org/1999/xlink" width="18pt" height="16pt" viewBox="0 0 18 16" version="1.1">
<g id="surface1">
<path style=" stroke:none;fill-rule:nonzero;fill:rgb(30.196078%,30.196078%,30.196078%);fill-opacity:1;" d="M 0 0 L 0 16 L 18 16 L 18 0 Z M 1 1 L 17 1 L 17 15 L 1 15 Z M 6 3 L 6 4 L 11 4 L 11 3 Z M 12 3 L 12 11.3125 L 9.71875 9 L 9 9.71875 L 12.5 13.21875 L 16 9.71875 L 15.28125 9 L 13 11.3125 L 13 3 Z M 6 5 L 6 6 L 9 6 L 9 5 Z M 6 10 L 6 11 L 8 11 L 8 10 Z M 6 12 L 6 13 L 10 13 L 10 12 Z M 6 12 "/>
<path style=" stroke:none;fill-rule:nonzero;fill:rgb(15.294118%,68.235294%,37.647059%);fill-opacity:1;" d="M 3.5 3 C 2.671875 3 2 3.671875 2 4.5 C 2 5.328125 2.671875 6 3.5 6 C 4.328125 6 5 5.328125 5 4.5 C 5 3.671875 4.328125 3 3.5 3 Z M 3.5 3 "/>
<path style=" stroke:none;fill-rule:nonzero;fill:rgb(85.490196%,26.666667%,32.54902%);fill-opacity:1;" d="M 3.5 10 C 2.671875 10 2 10.671875 2 11.5 C 2 12.328125 2.671875 13 3.5 13 C 4.328125 13 5 12.328125 5 11.5 C 5 10.671875 4.328125 10 3.5 10 Z M 3.5 10 "/>
</g>
</svg>
