<?xml version="1.0" encoding="UTF-8"?>
<svg xmlns="http://www.w3.org/2000/svg" xmlns:xlink="http://www.w3.org/1999/xlink" width="16pt" height="16pt" viewBox="0 0 16 16" version="1.1">
<g id="surface1">
<path style=" stroke:none;fill-rule:nonzero;fill:rgb(85.490196%,26.666667%,32.54902%);fill-opacity:1;" d="M 8 0 C 5.972656 0 4.128906 0.757812 2.71875 2 C 2.59375 2.109375 2.460938 2.226562 2.34375 2.34375 L 2 2.71875 C 0.757812 4.128906 0 5.972656 0 8 C 0 12.417969 3.582031 16 8 16 C 10.027344 16 11.871094 15.242188 13.28125 14 L 13.65625 13.65625 C 13.773438 13.539062 13.890625 13.40625 14 13.28125 C 15.242188 11.871094 16 10.027344 16 8 C 16 3.582031 12.417969 0 8 0 Z M 8 1 C 11.867188 1 15 4.132812 15 8 C 15 9.753906 14.347656 11.335938 13.28125 12.5625 L 3.4375 2.71875 C 4.664062 1.652344 6.246094 1 8 1 Z M 2.71875 3.4375 L 12.5625 13.28125 C 11.335938 14.347656 9.753906 15 8 15 C 4.132812 15 1 11.867188 1 8 C 1 6.246094 1.652344 4.664062 2.71875 3.4375 Z M 2.71875 3.4375 "/>
</g>
</svg>
