<?xml version="1.0" encoding="UTF-8"?>
<svg xmlns="http://www.w3.org/2000/svg" xmlns:xlink="http://www.w3.org/1999/xlink" width="16pt" height="16pt" viewBox="0 0 16 16" version="1.1">
<g id="surface1">
<path style=" stroke:none;fill-rule:nonzero;fill:rgb(30.196078%,30.196078%,30.196078%);fill-opacity:1;" d="M 8 0 C 4.132812 0 1 0.894531 1 2 L 1 6 C 1 6.515625 1.601562 6.777344 2 7 C 3.183594 7.625 5.339844 8 8 8 C 8.347656 8 8.667969 7.980469 9 7.96875 C 9.011719 7.96875 9.019531 7.96875 9.03125 7.96875 C 9.558594 7.949219 10.058594 7.894531 10.53125 7.84375 C 11.996094 7.6875 13.191406 7.402344 13.96875 7 C 13.976562 6.996094 13.992188 7.003906 14 7 L 14 10 C 14 10.433594 12.371094 10.769531 10 10.90625 L 10 11.84375 C 11.769531 11.695312 13.132812 11.457031 14 11 C 14.476562 10.777344 15.007812 10.621094 15 10 L 15 2 C 15 0.894531 11.867188 0 8 0 Z M 8 1 C 11.382812 1 14 1.449219 14 2 C 14 2.550781 11.382812 3 8 3 C 4.617188 3 2 2.550781 2 2 C 2 1.449219 4.617188 1 8 1 Z M 2 3 C 3.183594 3.625 5.339844 4 8 4 C 10.660156 4 12.816406 3.625 14 3 L 14 6 C 14 6.550781 11.382812 7 8 7 C 4.617188 7 2.074219 6.546875 2 6 Z M 0 7 L 0 16 L 16 16 Z M 1 8.800781 L 12.097656 15 L 1 15 Z M 1 8.800781 "/>
</g>
</svg>
