<?xml version="1.0" encoding="UTF-8"?>
<svg xmlns="http://www.w3.org/2000/svg" xmlns:xlink="http://www.w3.org/1999/xlink" width="16pt" height="16pt" viewBox="0 0 16 16" version="1.1">
<g id="surface1">
<path style=" stroke:none;fill-rule:nonzero;fill:rgb(30.196078%,30.196078%,30.196078%);fill-opacity:1;" d="M 0 0 L 0 16 L 9 16 L 9 15 L 6 15 L 6 13 L 9 13 L 9 12 L 6 12 L 6 10 L 9 10 L 9 9 L 6 9 L 6 7 L 10 7 L 10 9 L 11 9 L 11 7 L 15 7 L 15 9 L 16 9 L 16 0 Z M 1 1 L 5 1 L 5 3 L 1 3 Z M 6 1 L 10 1 L 10 3 L 6 3 Z M 11 1 L 15 1 L 15 3 L 11 3 Z M 1 4 L 5 4 L 5 6 L 1 6 Z M 6 4 L 10 4 L 10 6 L 6 6 Z M 11 4 L 15 4 L 15 6 L 11 6 Z M 1 7 L 5 7 L 5 9 L 1 9 Z M 1 10 L 5 10 L 5 12 L 1 12 Z M 1 13 L 5 13 L 5 15 L 1 15 Z M 1 13 "/>
<path style=" stroke:none;fill-rule:nonzero;fill:rgb(85.490196%,26.666667%,32.54902%);fill-opacity:1;" d="M 10.988281 10 L 10 10.988281 L 12.011719 13 L 10 15.011719 L 10.988281 16 L 13 13.988281 L 15.011719 16 L 16 15.011719 L 13.988281 13 L 16 10.988281 L 15.011719 10 L 13 12.011719 Z M 10.988281 10 "/>
</g>
</svg>
