<?xml version="1.0" encoding="UTF-8"?>
<svg xmlns="http://www.w3.org/2000/svg" xmlns:xlink="http://www.w3.org/1999/xlink" width="14pt" height="16pt" viewBox="0 0 14 16" version="1.1">
<g id="surface1">
<path style=" stroke:none;fill-rule:nonzero;fill:rgb(30.196078%,30.196078%,30.196078%);fill-opacity:1;" d="M 5 0 C 3.34375 0 2 1.34375 2 3 L 2 5 L 0 5 L 0 6 L 2 6 L 2 16 L 3 16 L 3 6 L 5 6 L 5 5 L 3 5 L 3 3 C 3 1.894531 3.894531 1 5 1 L 6 1 L 6 0 Z M 8.742188 10 L 8 10.734375 L 10.292969 13 L 8 15.265625 L 8.742188 16 L 11.035156 13.734375 L 13.257812 15.933594 L 14 15.199219 L 11.777344 13 L 14 10.800781 L 13.257812 10.066406 L 11.035156 12.265625 Z M 8.742188 10 "/>
</g>
</svg>
