<?xml version="1.0" encoding="UTF-8"?>
<svg xmlns="http://www.w3.org/2000/svg" xmlns:xlink="http://www.w3.org/1999/xlink" width="16pt" height="16pt" viewBox="0 0 16 16" version="1.1">
<g id="surface1">
<path style=" stroke:none;fill-rule:nonzero;fill:rgb(30.196078%,30.196078%,30.196078%);fill-opacity:1;" d="M 0 0 L 0 1 L 16 1 L 16 0 Z M 3 2 L 3 3 L 16 3 L 16 2 Z M 0 6 L 0 7 L 10 7 L 10 6 Z M 8 8 L 8 9 L 10 9 L 10 8 Z M 0 12 L 0 13 L 16 13 L 16 12 Z M 3 14 L 3 15 L 16 15 L 16 14 Z M 0 15 L 0 16 L 2 16 L 2 15 Z M 0 15 "/>
<path style=" stroke:none;fill-rule:nonzero;fill:rgb(11.372549%,60%,95.294118%);fill-opacity:1;" d="M 16 5 L 12 8 L 16 11 Z M 16 5 "/>
</g>
</svg>
