<?xml version="1.0" encoding="UTF-8"?>
<svg xmlns="http://www.w3.org/2000/svg" xmlns:xlink="http://www.w3.org/1999/xlink" width="16pt" height="16pt" viewBox="0 0 16 16" version="1.1">
<g id="surface1">
<path style=" stroke:none;fill-rule:nonzero;fill:rgb(30.196078%,30.196078%,30.196078%);fill-opacity:1;" d="M 6 0 L 3 2 L 6 4 Z M 10 0 L 10 4 L 13 2 Z M 3 3 L 3 5 L 0 5 L 0 12 L 3 12 L 3 16 L 4 16 L 4 12 L 7 12 L 7 5 L 4 5 L 4 3 Z M 12 3 L 12 5 L 9 5 L 9 14 L 12 14 L 12 16 L 13 16 L 13 14 L 16 14 L 16 5 L 13 5 L 13 3 Z M 1 6 L 6 6 L 6 11 L 1 11 Z M 10 6 L 15 6 L 15 13 L 10 13 Z M 10 6 "/>
</g>
</svg>
