<?xml version="1.0" encoding="UTF-8"?>
<svg xmlns="http://www.w3.org/2000/svg" xmlns:xlink="http://www.w3.org/1999/xlink" width="15pt" height="16pt" viewBox="0 0 15 16" version="1.1">
<g id="surface1">
<path style=" stroke:none;fill-rule:nonzero;fill:rgb(95.686275%,46.666667%,31.372549%);fill-opacity:1;" d="M 6 14 C 5.449219 14 5 14.449219 5 15 C 5 15.550781 5.449219 16 6 16 C 6.550781 16 7 15.550781 7 15 C 7 14.449219 6.550781 14 6 14 Z M 10 14 C 9.449219 14 9 14.449219 9 15 C 9 15.550781 9.449219 16 10 16 C 10.550781 16 11 15.550781 11 15 C 11 14.449219 10.550781 14 10 14 Z M 14 14 C 13.449219 14 13 14.449219 13 15 C 13 15.550781 13.449219 16 14 16 C 14.550781 16 15 15.550781 15 15 C 15 14.449219 14.550781 14 14 14 Z M 14 14 "/>
<path style=" stroke:none;fill-rule:nonzero;fill:rgb(30.196078%,30.196078%,30.196078%);fill-opacity:1;" d="M 0 0 L 0 16 L 4 16 L 4 15 L 1 15 L 1 1 L 13 1 L 13 13 L 14 13 L 14 0 Z M 2 3 L 2 7 L 6 7 L 6 3 Z M 7 3 L 7 4 L 12 4 L 12 3 Z M 3 4 L 5 4 L 5 6 L 3 6 Z M 7 6 L 7 7 L 12 7 L 12 6 Z M 2 9 L 2 10 L 12 10 L 12 9 Z M 2 12 L 2 13 L 12 13 L 12 12 Z M 2 12 "/>
</g>
</svg>
