<?xml version="1.0" encoding="UTF-8"?>
<svg xmlns="http://www.w3.org/2000/svg" xmlns:xlink="http://www.w3.org/1999/xlink" width="15pt" height="16pt" viewBox="0 0 15 16" version="1.1">
<g id="surface1">
<path style=" stroke:none;fill-rule:nonzero;fill:rgb(30.196078%,30.196078%,30.196078%);fill-opacity:1;" d="M 1 0 L 0 1 L 0 2.304688 L 5 9.367188 L 5 13.039062 L 8.988281 16 L 9 16 L 9 9.367188 L 14 2.304688 L 14 1 L 13 0 Z M 1 1 L 13 1 L 13 1.988281 L 8.035156 9 L 8 9 L 8 14.019531 L 6 12.535156 L 6 9 L 5.964844 9 L 1 1.988281 Z M 2 2 L 4 5 L 4 3 L 6 2 Z M 13.5625 9.71875 L 12.78125 11 L 10 11 L 10 12 L 12.1875 12 L 11.59375 13 L 10 13 L 10 14 L 11 14 L 10.5625 14.71875 L 11.4375 15.25 L 12.1875 14 L 15 14 L 15 13 L 12.78125 13 L 13.375 12 L 15 12 L 15 11 L 14 11 L 14.4375 10.25 Z M 13.5625 9.71875 "/>
</g>
</svg>
