<?xml version="1.0" encoding="UTF-8"?>
<svg xmlns="http://www.w3.org/2000/svg" xmlns:xlink="http://www.w3.org/1999/xlink" width="16pt" height="16pt" viewBox="0 0 16 16" version="1.1">
<g id="surface1">
<path style=" stroke:none;fill-rule:nonzero;fill:rgb(95.686275%,46.666667%,31.372549%);fill-opacity:1;" d="M 7 14 C 6.46875 14 6.035156 14.414062 6 14.9375 L 6 15.0625 C 6.035156 15.585938 6.46875 16 7 16 C 7.550781 16 8 15.550781 8 15 C 8 14.449219 7.550781 14 7 14 Z M 11 14 C 10.449219 14 10 14.449219 10 15 C 10 15.550781 10.449219 16 11 16 C 11.550781 16 12 15.550781 12 15 C 12 14.449219 11.550781 14 11 14 Z M 15 14 C 14.449219 14 14 14.449219 14 15 C 14 15.550781 14.449219 16 15 16 C 15.550781 16 16 15.550781 16 15 C 16 14.449219 15.550781 14 15 14 Z M 15 14 "/>
<path style=" stroke:none;fill-rule:nonzero;fill:rgb(30.196078%,30.196078%,30.196078%);fill-opacity:1;" d="M 0 0 L 0 16 L 5 16 L 5 15 L 1 15 L 1 4 L 15 4 L 15 13 L 16 13 L 16 0 Z M 11.625 1 L 13 1.8125 L 14.375 1 L 15 1.8125 L 13.3125 2.8125 L 13 3 L 12.6875 2.8125 L 11 1.8125 Z M 4 5 C 2.894531 5 2 5.894531 2 7 C 2 8.105469 2.894531 9 4 9 C 5.105469 9 6 8.105469 6 7 C 6 5.894531 5.105469 5 4 5 Z M 4 6 C 4.550781 6 5 6.449219 5 7 C 5 7.550781 4.550781 8 4 8 C 3.449219 8 3 7.550781 3 7 C 3 6.449219 3.449219 6 4 6 Z M 8 7 L 8 8 L 14 8 L 14 7 Z M 2 10 L 2 14 L 6 14 L 6 10 Z M 3 11 L 5 11 L 5 13 L 3 13 Z M 8 12 L 8 13 L 14 13 L 14 12 Z M 8 12 "/>
</g>
</svg>
