<?xml version="1.0" encoding="UTF-8"?>
<svg xmlns="http://www.w3.org/2000/svg" xmlns:xlink="http://www.w3.org/1999/xlink" width="16pt" height="16pt" viewBox="0 0 16 16" version="1.1">
<g id="surface1">
<path style=" stroke:none;fill-rule:nonzero;fill:rgb(30.196078%,30.196078%,30.196078%);fill-opacity:1;" d="M 1 0 L 1 6 L 3 6 L 3 10 L 0 10 L 0 16 L 6 16 L 6 10 L 4 10 L 4 6 L 9 6 L 9 4 L 13 4 L 13 11 L 11 11 L 11 16 L 16 16 L 16 11 L 14 11 L 14 3 L 9 3 L 9 0 Z M 2 1 L 8 1 L 8 5 L 2 5 Z M 1 11 L 5 11 L 5 15 L 1 15 Z M 1 11 "/>
</g>
</svg>
