<?xml version="1.0" encoding="UTF-8"?>
<svg xmlns="http://www.w3.org/2000/svg" xmlns:xlink="http://www.w3.org/1999/xlink" width="16pt" height="16pt" viewBox="0 0 16 16" version="1.1">
<g id="surface1">
<path style=" stroke:none;fill-rule:nonzero;fill:rgb(30.196078%,30.196078%,30.196078%);fill-opacity:1;" d="M 0 0 L 0 14 L 1 14 L 1 0 Z M 2 0 L 2 14 L 16 14 L 16 0 Z M 12.597656 5 C 13.085938 6.703125 14.277344 8.167969 14.800781 9.339844 C 14.988281 9.6875 15.097656 10.078125 15.097656 10.5 C 15.097656 11.886719 13.984375 13 12.597656 13 C 11.214844 13 10.097656 11.886719 10.097656 10.5 C 10.097656 10.078125 10.210938 9.6875 10.394531 9.339844 C 10.921875 8.167969 12.113281 6.703125 12.597656 5 Z M 0 15 L 0 16 L 1 16 L 1 15 Z M 2 15 L 2 16 L 16 16 L 16 15 Z M 2 15 "/>
</g>
</svg>
