<?xml version="1.0" encoding="UTF-8"?>
<svg xmlns="http://www.w3.org/2000/svg" xmlns:xlink="http://www.w3.org/1999/xlink" width="17pt" height="16pt" viewBox="0 0 17 16" version="1.1">
<g id="surface1">
<path style=" stroke:none;fill-rule:nonzero;fill:rgb(95.686275%,46.666667%,31.372549%);fill-opacity:1;" d="M 16 0 C 15.449219 0 15 0.449219 15 1 C 15 1.550781 15.449219 2 16 2 C 16.550781 2 17 1.550781 17 1 C 17 0.449219 16.550781 0 16 0 Z M 16 4 C 15.449219 4 15 4.449219 15 5 C 15 5.550781 15.449219 6 16 6 C 16.550781 6 17 5.550781 17 5 C 17 4.449219 16.550781 4 16 4 Z M 16 8 C 15.449219 8 15 8.449219 15 9 C 15 9.550781 15.449219 10 16 10 C 16.550781 10 17 9.550781 17 9 C 17 8.449219 16.550781 8 16 8 Z M 16 8 "/>
<path style=" stroke:none;fill-rule:nonzero;fill:rgb(30.196078%,30.196078%,30.196078%);fill-opacity:1;" d="M 2 0 L 2 2 L 7 2 L 7 10 L 9 10 L 9 2 L 14 2 L 14 0 Z M 0 7 L 0 16 L 16 16 Z M 1 8.8125 L 12.09375 15 L 1 15 Z M 1 8.8125 "/>
</g>
</svg>
