<?xml version="1.0" encoding="UTF-8"?>
<svg xmlns="http://www.w3.org/2000/svg" xmlns:xlink="http://www.w3.org/1999/xlink" width="16.003906pt" height="14.005859pt" viewBox="0 0 16.003906 14.005859" version="1.1">
<g id="surface1">
<path style=" stroke:none;fill-rule:nonzero;fill:rgb(11.372549%,60%,95.294118%);fill-opacity:1;" d="M 0 0 L 0 10 L 0.0117188 10 L 0 10.011719 L 3.992188 14.003906 L 4.003906 14.003906 C 6.039062 14.003906 8.226562 14.007812 10 14.007812 L 10 13.007812 C 8.332031 13.007812 6.667969 13.003906 5 13.003906 L 5 9.003906 L 1 9.003906 L 1 1.003906 L 15 1.003906 L 15 8.007812 L 16 8.007812 C 16.003906 5.339844 16.003906 2.671875 16.003906 0.00390625 L 16 0.00390625 L 16 0 Z M 11.714844 9.007812 L 11 9.707031 L 12.796875 11.507812 L 11 13.304688 L 11.714844 14.007812 L 13.5 12.210938 L 15.289062 14.007812 L 16 13.304688 L 14.207031 11.507812 L 16 9.707031 L 15.289062 9.007812 L 13.5 10.800781 Z M 11.714844 9.007812 "/>
</g>
</svg>
