<?xml version="1.0" encoding="UTF-8"?>
<svg xmlns="http://www.w3.org/2000/svg" xmlns:xlink="http://www.w3.org/1999/xlink" width="17pt" height="16pt" viewBox="0 0 17 16" version="1.1">
<g id="surface1">
<path style=" stroke:none;fill-rule:nonzero;fill:rgb(30.196078%,30.196078%,30.196078%);fill-opacity:1;" d="M 0 0 L 0 7 L 8 7 L 8 0 Z M 9 0 L 9 7 L 17 7 L 17 0 Z M 1 1 L 7 1 L 7 6 L 1 6 Z M 10 1 L 16 1 L 16 6 L 10 6 Z M 15 8 L 9 14 L 9 16 L 11 16 L 17 10 Z M 0 9 L 0 16 L 8 16 L 8 9 Z M 14.71875 9.6875 L 15.28125 10.28125 L 10.3125 15.28125 L 9.71875 14.6875 Z M 1 10 L 7 10 L 7 15 L 1 15 Z M 1 10 "/>
</g>
</svg>
