<?xml version="1.0" encoding="UTF-8"?>
<svg xmlns="http://www.w3.org/2000/svg" xmlns:xlink="http://www.w3.org/1999/xlink" width="15pt" height="16pt" viewBox="0 0 15 16" version="1.1">
<g id="surface1">
<path style=" stroke:none;fill-rule:nonzero;fill:rgb(30.196078%,30.196078%,30.196078%);fill-opacity:1;" d="M 0 0 L 0 16 L 9 16 L 9 15 L 1 15 L 1 1 L 13 1 L 13 10 L 14 10 L 14 0 Z M 2 3 L 2 7 L 6 7 L 6 3 Z M 7 3 L 7 4 L 12 4 L 12 3 Z M 3 4 L 5 4 L 5 6 L 3 6 Z M 7 6 L 7 7 L 12 7 L 12 6 Z M 2 9 L 2 10 L 12 10 L 12 9 Z M 2 12 L 2 13 L 8 13 L 8 12 Z M 2 12 "/>
<path style=" stroke:none;fill-rule:nonzero;fill:rgb(11.372549%,60%,95.294118%);fill-opacity:1;" d="M 12 11 L 12 13 L 10 13 L 10 14 L 12 14 L 12 16 L 13 16 L 13 14 L 15 14 L 15 13 L 13 13 L 13 11 Z M 12 11 "/>
</g>
</svg>
