<?xml version="1.0" encoding="UTF-8"?>
<svg xmlns="http://www.w3.org/2000/svg" xmlns:xlink="http://www.w3.org/1999/xlink" width="16pt" height="16pt" viewBox="0 0 16 16" version="1.1">
<g id="surface1">
<path style=" stroke:none;fill-rule:nonzero;fill:rgb(30.196078%,30.196078%,30.196078%);fill-opacity:1;" d="M 0 0 L 0 4 L 4 4 L 4 0 Z M 6 0 L 6 4 L 10 4 L 10 0 Z M 12 0 L 12 4 L 16 4 L 16 0 Z M 1 1 L 3 1 L 3 3 L 1 3 Z M 13 1 L 15 1 L 15 3 L 13 3 Z M 0 6 L 0 10 L 4 10 L 4 6 Z M 1 7 L 3 7 L 3 9 L 1 9 Z M 0 12 L 0 16 L 4 16 L 4 12 Z M 0 12 "/>
<path style=" stroke:none;fill-rule:nonzero;fill:rgb(11.372549%,60%,95.294118%);fill-opacity:1;" d="M 13 6 L 13 10.5 C 13 11.886719 11.886719 13 10.5 13 C 9.679688 13 8.964844 12.605469 8.511719 12 L 10 12 L 10 11 L 7 11 L 7 14 L 8 14 L 8 12.921875 C 8.632812 13.582031 9.507812 14 10.5 14 C 12.4375 14 14 12.4375 14 10.5 L 14 6 Z M 13 6 "/>
</g>
</svg>
