<?xml version="1.0" encoding="UTF-8"?>
<svg xmlns="http://www.w3.org/2000/svg" xmlns:xlink="http://www.w3.org/1999/xlink" width="16pt" height="16pt" viewBox="0 0 16 16" version="1.1">
<g id="surface1">
<path style=" stroke:none;fill-rule:nonzero;fill:rgb(30.196078%,30.196078%,30.196078%);fill-opacity:1;" d="M 0 0 L 0 16 L 4 16 L 4 15 L 1 15 L 1 13 L 5 13 L 5 12 L 1 12 L 1 10 L 5 10 L 5 9 L 1 9 L 1 7 L 5 7 L 5 6 L 1 6 L 1 4 L 5 4 L 5 3 L 1 3 L 1 1 L 4 1 L 4 0 Z M 6 0 L 6 16 L 10 16 L 10 9 L 12 9 L 12 11 L 16 8 L 12 5 L 12 7 L 10 7 L 10 0 Z M 7 1 L 9 1 L 9 3 L 7 3 Z M 7 4 L 9 4 L 9 6 L 7 6 Z M 7 7 L 9 7 L 9 9 L 7 9 Z M 7 10 L 9 10 L 9 12 L 7 12 Z M 7 13 L 9 13 L 9 15 L 7 15 Z M 7 13 "/>
</g>
</svg>
