<?xml version="1.0" encoding="UTF-8"?>
<svg xmlns="http://www.w3.org/2000/svg" xmlns:xlink="http://www.w3.org/1999/xlink" width="15.995852pt" height="18pt" viewBox="0 0 15.995852 18" version="1.1">
<g id="surface1">
<path style=" stroke:none;fill-rule:nonzero;fill:rgb(30.196078%,30.196078%,30.196078%);fill-opacity:1;" d="M 9 0 C 8.769531 0 8.542969 0.0117188 8.320312 0.03125 C 8.257812 0.0429688 8.195312 0.0507812 8.132812 0.0625 C 7.183594 0.152344 6.339844 0.519531 5.515625 0.9375 C 5.429688 0.984375 5.347656 1.039062 5.265625 1.089844 C 5.15625 1.15625 5.046875 1.230469 4.941406 1.304688 C 4.886719 1.34375 4.835938 1.386719 4.78125 1.425781 C 4.660156 1.515625 4.539062 1.613281 4.421875 1.710938 C 4.113281 1.976562 3.828125 2.273438 3.570312 2.589844 C 3.46875 2.71875 3.371094 2.847656 3.277344 2.984375 C 2.746094 3.6875 2.464844 4.5 2.214844 5.320312 C 2.203125 5.359375 2.195312 5.402344 2.183594 5.445312 C 2.140625 5.628906 2.105469 5.808594 2.082031 5.992188 C 2.078125 5.996094 2.078125 5.996094 2.078125 6 L 3.089844 6 C 3.191406 5.269531 3.5 4.644531 3.800781 4.015625 C 3.808594 4.003906 3.816406 3.988281 3.824219 3.976562 C 4.164062 3.394531 4.601562 2.875 5.109375 2.441406 C 5.121094 2.429688 5.132812 2.417969 5.148438 2.40625 C 5.667969 1.941406 6.28125 1.664062 6.886719 1.390625 C 6.914062 1.378906 6.941406 1.371094 6.96875 1.359375 C 7.261719 1.253906 7.566406 1.171875 7.878906 1.109375 C 7.898438 1.105469 7.921875 1.101562 7.945312 1.09375 C 8.289062 1.035156 8.640625 1 9 1 L 9 7 L 15 7 C 15.007812 7.4375 14.925781 7.828125 14.871094 8.222656 C 14.492188 9.976562 13.429688 11.199219 12 12.1875 L 12 13.3125 C 12.347656 13.144531 12.683594 12.949219 13 12.722656 L 13 12.742188 C 13.050781 12.707031 13.097656 12.664062 13.148438 12.625 C 13.214844 12.574219 13.28125 12.523438 13.34375 12.46875 C 14.847656 11.277344 15.613281 9.6875 15.945312 7.859375 C 15.949219 7.832031 15.949219 7.800781 15.953125 7.769531 C 16.027344 7.257812 15.988281 6.765625 15.964844 6.289062 L 15.964844 6.285156 C 15.941406 6.054688 15.90625 5.832031 15.863281 5.609375 C 15.773438 5.128906 15.585938 4.667969 15.449219 4.273438 C 14.484375 2.042969 12.582031 0.683594 10.292969 0.125 C 10.175781 0.105469 10.058594 0.0859375 9.945312 0.0703125 C 9.832031 0.0585938 9.722656 0.0390625 9.613281 0.03125 C 9.410156 0.0117188 9.203125 0 9 0 Z M 5.5 7 C 2.460938 7 0 7.820312 0 8.832031 L 0 16.167969 C 0 17.179688 2.460938 18 5.5 18 C 8.539062 18 11 17.179688 11 16.167969 L 11 8.832031 C 11 7.820312 8.539062 7 5.5 7 Z M 5.5 7.917969 C 8.035156 7.914062 10.085938 8.328125 10.085938 8.832031 C 10.082031 9.339844 8.03125 9.75 5.5 9.75 C 2.96875 9.75 0.917969 9.339844 0.917969 8.832031 C 0.914062 8.328125 2.964844 7.914062 5.5 7.917969 Z M 0.917969 9.84375 C 1.933594 10.355469 3.65625 10.664062 5.5 10.667969 C 7.34375 10.664062 9.066406 10.359375 10.085938 9.84375 L 10.085938 12.5 C 10.082031 13.007812 8.03125 13.417969 5.5 13.417969 C 2.96875 13.417969 0.917969 13.007812 0.917969 12.5 Z M 0.917969 13.511719 C 1.933594 14.023438 3.652344 14.332031 5.5 14.332031 C 7.34375 14.332031 9.066406 14.023438 10.085938 13.511719 L 10.085938 16.167969 C 10.085938 16.671875 8.035156 17.085938 5.5 17.082031 C 2.964844 17.085938 0.914062 16.671875 0.917969 16.167969 Z M 0.917969 13.511719 "/>
</g>
</svg>
