<?xml version="1.0" encoding="UTF-8"?>
<svg xmlns="http://www.w3.org/2000/svg" xmlns:xlink="http://www.w3.org/1999/xlink" width="17pt" height="17pt" viewBox="0 0 17 17" version="1.1">
<g id="surface1">
<path style=" stroke:none;fill-rule:nonzero;fill:rgb(30.196078%,30.196078%,30.196078%);fill-opacity:1;" d="M 2 1 L 1 1 L 1 15 L 0 15 L 0 16 L 1 16 L 1 17 L 2 17 L 2 16 L 16 16 L 16 15 L 14 15 L 14 6 L 10 6 L 10 15 L 8 15 L 8 1 L 4 1 L 4 15 L 2 15 Z M 2 1 "/>
<path style=" stroke:none;fill-rule:nonzero;fill:rgb(11.372549%,60%,95.294118%);fill-opacity:1;" d="M 14 0 L 14 2 L 12 2 L 12 3 L 14 3 L 14 5 L 15 5 L 15 3 L 17 3 L 17 2 L 15 2 L 15 0 Z M 14 0 "/>
</g>
</svg>
