<?xml version="1.0" encoding="UTF-8"?>
<svg xmlns="http://www.w3.org/2000/svg" xmlns:xlink="http://www.w3.org/1999/xlink" width="16pt" height="16pt" viewBox="0 0 16 16" version="1.1">
<g id="surface1">
<path style=" stroke:none;fill-rule:nonzero;fill:rgb(30.196078%,30.196078%,30.196078%);fill-opacity:1;" d="M 8 0 C 3.582031 0 0 0.894531 0 2 L 0 14 C 0 15.105469 3.582031 16 8 16 C 8.691406 16 9.359375 15.980469 10 15.9375 L 10 14.9375 C 9.355469 14.964844 8.710938 15 8 15 C 4.132812 15 1 14.550781 1 14 L 1 10.9375 C 2.351562 11.5625 4.957031 12 8 12 C 8.695312 12 9.359375 11.949219 10 11.90625 L 10 10.9375 C 9.355469 10.964844 8.710938 11 8 11 C 4.132812 11 1 10.550781 1 10 L 1 6.9375 C 2.351562 7.5625 4.957031 8 8 8 C 11.042969 8 13.648438 7.5625 15 6.9375 L 15 10 L 16 10 L 16 2 C 16 0.894531 12.417969 0 8 0 Z M 8 1 C 11.867188 1 15 1.449219 15 2 C 15 2.550781 11.867188 3 8 3 C 4.132812 3 1 2.550781 1 2 C 1 1.449219 4.132812 1 8 1 Z M 1 2.9375 C 2.351562 3.5625 4.957031 4 8 4 C 11.042969 4 13.648438 3.5625 15 2.9375 L 15 6 C 15 6.550781 11.867188 7 8 7 C 4.132812 7 1 6.550781 1 6 Z M 1 2.9375 "/>
<path style=" stroke:none;fill-rule:nonzero;fill:rgb(11.372549%,60%,95.294118%);fill-opacity:1;" d="M 13 11 L 13 13 L 11 13 L 11 14 L 13 14 L 13 16 L 14 16 L 14 14 L 16 14 L 16 13 L 14 13 L 14 11 Z M 13 11 "/>
</g>
</svg>
