<?xml version="1.0" encoding="UTF-8"?>
<svg xmlns="http://www.w3.org/2000/svg" xmlns:xlink="http://www.w3.org/1999/xlink" width="16pt" height="16pt" viewBox="0 0 16 16" version="1.1">
<g id="surface1">
<path style=" stroke:none;fill-rule:nonzero;fill:rgb(30.196078%,30.196078%,30.196078%);fill-opacity:1;" d="M 0 0 L 0 16 L 10 16 L 10 15 L 1 15 L 1 4 L 15 4 L 15 10 L 16 10 L 16 0 Z M 11.625 1 L 13 1.8125 L 14.375 1 L 15 1.8125 L 13.3125 2.8125 L 13 3 L 12.6875 2.8125 L 11 1.8125 Z M 4 5 C 2.894531 5 2 5.894531 2 7 C 2 8.105469 2.894531 9 4 9 C 5.105469 9 6 8.105469 6 7 C 6 5.894531 5.105469 5 4 5 Z M 4 6 C 4.550781 6 5 6.449219 5 7 C 5 7.550781 4.550781 8 4 8 C 3.449219 8 3 7.550781 3 7 C 3 6.449219 3.449219 6 4 6 Z M 8 7 L 8 8 L 14 8 L 14 7 Z M 2 10 L 2 14 L 6 14 L 6 10 Z M 3 11 L 5 11 L 5 13 L 3 13 Z M 8 12 L 8 13 L 10 13 L 10 12 Z M 8 12 "/>
<path style=" stroke:none;fill-rule:nonzero;fill:rgb(11.372549%,60%,95.294118%);fill-opacity:1;" d="M 13 11 L 13 13 L 11 13 L 11 14 L 13 14 L 13 16 L 14 16 L 14 14 L 16 14 L 16 13 L 14 13 L 14 11 Z M 13 11 "/>
</g>
</svg>
