<?xml version="1.0" encoding="UTF-8"?>
<svg xmlns="http://www.w3.org/2000/svg" xmlns:xlink="http://www.w3.org/1999/xlink" width="16pt" height="17.001518pt" viewBox="0 0 16 17.001518" version="1.1">
<g id="surface1">
<path style=" stroke:none;fill-rule:nonzero;fill:rgb(30.196078%,30.196078%,30.196078%);fill-opacity:1;" d="M 9 0 C 8.316406 -0.015625 7.671875 0.136719 7.03125 0.289062 C 5.980469 0.609375 5.203125 1.144531 4.421875 1.710938 C 3.730469 2.28125 3.304688 2.933594 2.859375 3.652344 C 2.445312 4.363281 2.242188 5.261719 2.078125 5.992188 C 2.078125 5.996094 2.078125 6 2.078125 6 C 2.027344 6.332031 2.003906 6.667969 2 7 L 3 7 C 3.003906 6.667969 3.03125 6.332031 3.089844 6 C 3.191406 5.269531 3.5 4.644531 3.800781 4.015625 C 3.808594 4.003906 3.816406 3.992188 3.824219 3.976562 C 4.164062 3.394531 4.601562 2.875 5.109375 2.441406 C 5.367188 2.210938 5.683594 2.023438 5.929688 1.851562 C 6.238281 1.664062 6.601562 1.519531 6.886719 1.390625 C 7.214844 1.261719 7.585938 1.1875 7.878906 1.113281 C 7.898438 1.109375 7.921875 1.101562 7.941406 1.097656 C 8.289062 1.035156 8.640625 1 9 1 L 9 7 L 15 7 C 15 7.210938 14.988281 7.417969 14.964844 7.621094 C 14.957031 7.683594 14.949219 7.742188 14.9375 7.804688 C 14.917969 7.945312 14.898438 8.085938 14.871094 8.226562 C 14.371094 10.097656 13.4375 11.195312 12 12.1875 L 12 13.316406 C 12.710938 12.992188 13.15625 12.621094 13.734375 12.144531 C 14.035156 11.871094 14.304688 11.566406 14.550781 11.246094 C 15.339844 10.246094 15.722656 9.078125 15.945312 7.863281 C 15.949219 7.832031 15.949219 7.800781 15.953125 7.769531 C 15.984375 7.515625 16 7.257812 16 7 C 16 6.765625 15.988281 6.527344 15.964844 6.289062 L 15.964844 6.285156 C 15.941406 6.058594 15.90625 5.832031 15.859375 5.609375 L 15.859375 5.589844 C 15.238281 2.859375 13.304688 1.019531 10.703125 0.21875 C 10.140625 0.0585938 9.558594 0.0351562 9 0 Z M 0 8 L 0 17 L 11 17 L 11 8 Z M 1 9 L 5 9 L 5 12 L 1 12 Z M 6 9 L 10 9 L 10 12 L 6 12 Z M 1 13 L 5 13 L 5 16 L 1 16 Z M 6 13 L 10 13 L 10 16 L 6 16 Z M 6 13 "/>
</g>
</svg>
