<?xml version="1.0" encoding="UTF-8"?>
<svg xmlns="http://www.w3.org/2000/svg" xmlns:xlink="http://www.w3.org/1999/xlink" width="16pt" height="16pt" viewBox="0 0 16 16" version="1.1">
<g id="surface1">
<path style=" stroke:none;fill-rule:nonzero;fill:rgb(30.196078%,30.196078%,30.196078%);fill-opacity:1;" d="M 2 0 L 1 1 L 1 2.304688 L 5.03125 8 L 6.253906 8 L 2 1.988281 L 2 1 L 14 1 L 14 1.988281 L 9.746094 8 L 10.96875 8 L 15 2.304688 L 15 1 L 14 0 Z M 3 2 L 5 5 L 5 3 L 7 2 Z M 16 5 L 14 7 L 16 9 Z M 0 8 L 0 9 L 2 9 L 2 8 Z M 3 8 L 3 9 L 5 9 L 5 8 Z M 7 8 L 7 9 L 9 9 L 9 8 Z M 9 9 L 9 14.019531 L 7 12.535156 L 7 9 L 5.742188 9 L 6 9.367188 L 6 13.039062 L 9.988281 16 L 10 16 L 10 9.367188 L 10.261719 9 Z M 11 8 L 11 9 L 13 9 L 13 8 Z M 11 8 "/>
</g>
</svg>
