<?xml version="1.0" encoding="UTF-8"?>
<svg xmlns="http://www.w3.org/2000/svg" xmlns:xlink="http://www.w3.org/1999/xlink" width="16pt" height="16pt" viewBox="0 0 16 16" version="1.1">
<g id="surface1">
<path style=" stroke:none;fill-rule:nonzero;fill:rgb(30.196078%,30.196078%,30.196078%);fill-opacity:1;" d="M 9 0 C 5.140625 0 2.015625 3.121094 2 6.980469 L 3.03125 7.558594 C 3.011719 7.375 3 7.1875 3 7 C 3 3.6875 5.6875 1 9 1 L 9 7 L 15 7 C 15 9.371094 13.621094 11.417969 11.621094 12.390625 L 12.644531 12.96875 C 14.65625 11.738281 16 9.527344 16 7 C 16 3.132812 12.867188 0 9 0 Z M 0 7 L 0 16 L 16 16 Z M 1 8.800781 L 12.097656 15 L 1 15 Z M 1 8.800781 "/>
</g>
</svg>
