<?xml version="1.0" encoding="UTF-8"?>
<svg xmlns="http://www.w3.org/2000/svg" xmlns:xlink="http://www.w3.org/1999/xlink" width="15pt" height="16pt" viewBox="0 0 15 16" version="1.1">
<g id="surface1">
<path style=" stroke:none;fill-rule:nonzero;fill:rgb(30.196078%,30.196078%,30.196078%);fill-opacity:1;" d="M 3.4375 1 L 0.183594 4.28125 L 0 4.5 L 0.183594 4.71875 L 3.4375 8 L 4.109375 7.28125 L 1.871094 5 L 5 5 L 5 4 L 1.871094 4 L 4.109375 1.71875 Z M 7.5 4 C 7.222656 4 7 4.222656 7 4.5 C 7 4.777344 7.222656 5 7.5 5 C 7.777344 5 8 4.777344 8 4.5 C 8 4.222656 7.777344 4 7.5 4 Z M 10.5 4 C 10.222656 4 10 4.222656 10 4.5 C 10 4.777344 10.222656 5 10.5 5 C 10.777344 5 11 4.777344 11 4.5 C 11 4.222656 10.777344 4 10.5 4 Z M 13.5 6 C 13.222656 6 13 6.222656 13 6.5 C 13 6.777344 13.222656 7 13.5 7 C 13.777344 7 14 6.777344 14 6.5 C 14 6.222656 13.777344 6 13.5 6 Z M 14.5 9 C 14.222656 9 14 9.222656 14 9.5 C 14 9.777344 14.222656 10 14.5 10 C 14.777344 10 15 9.777344 15 9.5 C 15 9.222656 14.777344 9 14.5 9 Z M 13.5 12 C 13.222656 12 13 12.222656 13 12.5 C 13 12.777344 13.222656 13 13.5 13 C 13.777344 13 14 12.777344 14 12.5 C 14 12.222656 13.777344 12 13.5 12 Z M 10.5 14 C 10.222656 14 10 14.222656 10 14.5 C 10 14.777344 10.222656 15 10.5 15 C 10.777344 15 11 14.777344 11 14.5 C 11 14.222656 10.777344 14 10.5 14 Z M 10.5 14 "/>
<path style=" stroke:none;fill-rule:nonzero;fill:rgb(11.372549%,60%,95.294118%);fill-opacity:1;" d="M 7 0 L 7 16 L 8 16 L 8 0 Z M 7 0 "/>
</g>
</svg>
