<?xml version="1.0" encoding="UTF-8"?>
<svg xmlns="http://www.w3.org/2000/svg" xmlns:xlink="http://www.w3.org/1999/xlink" width="17pt" height="16pt" viewBox="0 0 17 16" version="1.1">
<g id="surface1">
<path style=" stroke:none;fill-rule:nonzero;fill:rgb(70.196078%,70.196078%,70.196078%);fill-opacity:1;" d="M 12 0 L 1 6 L 11 6 L 11 14 L 17 5 L 17 0 Z M 12 0 "/>
<path style=" stroke:none;fill-rule:nonzero;fill:rgb(30.196078%,30.196078%,30.196078%);fill-opacity:1;" d="M 11.15625 0 L 9.375 1 L 0.375 6 L 0 6.21875 L 0 16 L 10.800781 16 L 11 15.65625 L 17 5.34375 L 17 0 Z M 11.4375 1 L 15.3125 1 L 10.3125 6 L 2.4375 6 Z M 16 1.6875 L 16 5.03125 L 11 13.625 L 11 6.6875 Z M 1 7 L 10 7 L 10 15 L 1 15 Z M 1 7 "/>
</g>
</svg>
