<?xml version="1.0" encoding="UTF-8"?>
<svg xmlns="http://www.w3.org/2000/svg" xmlns:xlink="http://www.w3.org/1999/xlink" width="16.070312pt" height="16pt" viewBox="0 0 16.070312 16" version="1.1">
<g id="surface1">
<path style=" stroke:none;fill-rule:nonzero;fill:rgb(30.196078%,30.196078%,30.196078%);fill-opacity:1;" d="M 2 0 L 2 2 L 0 2 L 0 5 L 2 5 L 2 11 L 0 11 L 0 14 L 2 14 L 2 16 L 9 16 L 9 15 L 6 15 L 6 1 L 15 1 L 15 9 L 16 9 L 16 0 Z M 3 1 L 5 1 L 5 15 L 3 15 Z M 12.535156 8.929688 L 9 12.464844 L 12.535156 16 L 16.070312 12.464844 L 15.363281 11.757812 L 12.535156 14.585938 L 10.414062 12.464844 L 12.535156 10.34375 L 13.242188 11.050781 L 11.828125 12.464844 L 12.535156 13.171875 L 14.65625 11.050781 Z M 12.535156 8.929688 "/>
</g>
</svg>
