<?xml version="1.0" encoding="UTF-8"?>
<svg xmlns="http://www.w3.org/2000/svg" xmlns:xlink="http://www.w3.org/1999/xlink" width="16pt" height="15pt" viewBox="0 0 16 15" version="1.1">
<g id="surface1">
<path style=" stroke:none;fill-rule:nonzero;fill:rgb(30.196078%,30.196078%,30.196078%);fill-opacity:1;" d="M 12.5 0 L 12.28125 0.183594 L 9 3.4375 L 9.71875 4.109375 L 12 1.871094 L 12 5 L 13 5 L 13 1.871094 L 15.28125 4.109375 L 16 3.4375 L 12.71875 0.183594 Z M 12.5 7 C 12.222656 7 12 7.222656 12 7.5 C 12 7.777344 12.222656 8 12.5 8 C 12.777344 8 13 7.777344 13 7.5 C 13 7.222656 12.777344 7 12.5 7 Z M 2.5 10 C 2.222656 10 2 10.222656 2 10.5 C 2 10.777344 2.222656 11 2.5 11 C 2.777344 11 3 10.777344 3 10.5 C 3 10.222656 2.777344 10 2.5 10 Z M 12.5 10 C 12.222656 10 12 10.222656 12 10.5 C 12 10.777344 12.222656 11 12.5 11 C 12.777344 11 13 10.777344 13 10.5 C 13 10.222656 12.777344 10 12.5 10 Z M 4.5 13 C 4.222656 13 4 13.222656 4 13.5 C 4 13.777344 4.222656 14 4.5 14 C 4.777344 14 5 13.777344 5 13.5 C 5 13.222656 4.777344 13 4.5 13 Z M 10.5 13 C 10.222656 13 10 13.222656 10 13.5 C 10 13.777344 10.222656 14 10.5 14 C 10.777344 14 11 13.777344 11 13.5 C 11 13.222656 10.777344 13 10.5 13 Z M 7.5 14 C 7.222656 14 7 14.222656 7 14.5 C 7 14.777344 7.222656 15 7.5 15 C 7.777344 15 8 14.777344 8 14.5 C 8 14.222656 7.777344 14 7.5 14 Z M 7.5 14 "/>
<path style=" stroke:none;fill-rule:nonzero;fill:rgb(11.372549%,60%,95.294118%);fill-opacity:1;" d="M 0 7 L 0 8 L 16 8 L 16 7 Z M 0 7 "/>
</g>
</svg>
