<?xml version="1.0" encoding="UTF-8"?>
<svg xmlns="http://www.w3.org/2000/svg" xmlns:xlink="http://www.w3.org/1999/xlink" width="14pt" height="16pt" viewBox="0 0 14 16" version="1.1">
<g id="surface1">
<path style=" stroke:none;fill-rule:nonzero;fill:rgb(30.196078%,30.196078%,30.196078%);fill-opacity:1;" d="M 0 0 L 0 16 L 10 16 L 14 12 L 14 0 Z M 1 1 L 13 1 L 13 11 L 9 11 L 9 15 L 1 15 Z M 2 3 L 2 7 L 6 7 L 6 3 Z M 7 3 L 7 4 L 12 4 L 12 3 Z M 3 4 L 5 4 L 5 6 L 3 6 Z M 7 6 L 7 7 L 12 7 L 12 6 Z M 2 9 L 2 10 L 12 10 L 12 9 Z M 2 12 L 2 13 L 8 13 L 8 12 Z M 2 12 "/>
</g>
</svg>
