<?xml version="1.0" encoding="UTF-8"?>
<svg xmlns="http://www.w3.org/2000/svg" xmlns:xlink="http://www.w3.org/1999/xlink" width="16pt" height="16pt" viewBox="0 0 16 16" version="1.1">
<g id="surface1">
<path style=" stroke:none;fill-rule:nonzero;fill:rgb(30.196078%,30.196078%,30.196078%);fill-opacity:1;" d="M 0 0 L 0 16 L 16 16 L 16 0 Z M 1 1 L 3 1 L 3 5 L 1 5 Z M 4 1 L 12 1 L 12 5 L 11 5 L 11 6 L 12 6 L 12 10 L 11 10 L 11 11 L 12 11 L 12 15 L 4 15 L 4 11 L 5 11 L 5 10 L 4 10 L 4 6 L 5 6 L 5 5 L 4 5 Z M 13 1 L 15 1 L 15 5 L 13 5 Z M 1 6 L 3 6 L 3 10 L 1 10 Z M 13 6 L 15 6 L 15 10 L 13 10 Z M 1 11 L 3 11 L 3 15 L 1 15 Z M 13 11 L 15 11 L 15 15 L 13 15 Z M 13 11 "/>
<path style=" stroke:none;fill-rule:nonzero;fill:rgb(11.372549%,60%,95.294118%);fill-opacity:1;" d="M 5 1 L 5 15 L 6 15 L 6 14.707031 L 10 10.707031 L 10 15 L 11 15 L 11 1 L 10 1 L 10 1.292969 L 6 5.292969 L 6 1 Z M 10 2.707031 L 10 5.292969 L 6 9.292969 L 6 6.707031 Z M 10 6.707031 L 10 9.292969 L 6 13.292969 L 6 10.707031 Z M 10 6.707031 "/>
</g>
</svg>
