<?xml version="1.0" encoding="UTF-8"?>
<svg xmlns="http://www.w3.org/2000/svg" xmlns:xlink="http://www.w3.org/1999/xlink" width="15.9375pt" height="15.9375pt" viewBox="0 0 15.9375 15.9375" version="1.1">
<g id="surface1">
<path style=" stroke:none;fill-rule:nonzero;fill:rgb(30.196078%,30.196078%,30.196078%);fill-opacity:1;" d="M 7.46875 0 L 7.46875 1.8125 L 8.46875 1.8125 L 8.46875 0 Z M 2.6875 1.96875 L 1.96875 2.6875 L 3.25 3.96875 L 3.96875 3.25 Z M 13.25 1.96875 L 11.96875 3.25 L 12.6875 3.96875 L 13.96875 2.6875 Z M 7.96875 2.96875 C 7.460938 2.96875 6.992188 3.078125 6.53125 3.21875 C 6.382812 3.261719 6.238281 3.285156 6.09375 3.34375 C 6.074219 3.351562 6.050781 3.367188 6.03125 3.375 C 5.367188 3.597656 4.941406 4.015625 4.4375 4.4375 C 3.6875 5.210938 3.367188 6.046875 3.0625 6.96875 C 3.058594 6.980469 3.0625 6.988281 3.0625 7 C 3 7.316406 2.96875 7.632812 2.96875 7.96875 C 2.96875 8.140625 2.984375 8.300781 3 8.46875 C 3.015625 8.625 3.03125 8.785156 3.0625 8.9375 C 3.09375 9.101562 3.171875 9.25 3.21875 9.40625 C 3.378906 10.214844 3.984375 10.945312 4.4375 11.5 C 5.03125 12.132812 5.742188 12.445312 6.53125 12.71875 C 6.679688 12.761719 6.816406 12.84375 6.96875 12.875 C 6.980469 12.878906 6.988281 12.875 7 12.875 C 7.316406 12.9375 7.632812 12.96875 7.96875 12.96875 C 8.140625 12.96875 8.300781 12.953125 8.46875 12.9375 C 8.789062 12.90625 9.09375 12.8125 9.40625 12.71875 C 9.574219 12.667969 9.746094 12.628906 9.90625 12.5625 C 10.484375 12.316406 11.027344 11.972656 11.5 11.5 C 11.621094 11.378906 11.734375 11.257812 11.84375 11.125 C 11.9375 11.011719 12.042969 10.902344 12.125 10.78125 C 12.136719 10.761719 12.144531 10.738281 12.15625 10.71875 C 12.328125 10.460938 12.445312 10.183594 12.5625 9.90625 C 12.570312 9.886719 12.585938 9.863281 12.59375 9.84375 C 12.886719 9.226562 12.917969 8.617188 12.96875 7.96875 C 12.96875 7.804688 12.953125 7.632812 12.9375 7.46875 C 12.921875 7.3125 12.90625 7.152344 12.875 7 C 12.875 6.988281 12.878906 6.980469 12.875 6.96875 C 12.566406 5.570312 11.789062 4.636719 10.71875 3.78125 C 10.328125 3.523438 9.863281 3.359375 9.40625 3.21875 C 9.253906 3.171875 9.121094 3.09375 8.96875 3.0625 C 8.957031 3.058594 8.949219 3.066406 8.9375 3.0625 C 8.621094 3 8.289062 2.96875 7.96875 2.96875 Z M 7.96875 3.96875 C 8.246094 3.96875 8.519531 4.007812 8.78125 4.0625 C 9.042969 4.117188 9.292969 4.179688 9.53125 4.28125 C 10.847656 4.859375 11.507812 5.890625 11.875 7.15625 C 11.929688 7.417969 11.96875 7.691406 11.96875 7.96875 C 11.976562 9.101562 11.421875 9.992188 10.8125 10.8125 C 10.4375 11.1875 9.988281 11.460938 9.53125 11.65625 C 9.292969 11.757812 9.042969 11.820312 8.78125 11.875 C 8.519531 11.929688 8.246094 11.96875 7.96875 11.96875 C 7.691406 11.96875 7.417969 11.929688 7.15625 11.875 C 6.042969 11.683594 5.308594 10.960938 4.625 10.15625 C 4.34375 9.730469 4.164062 9.261719 4.0625 8.78125 C 4.007812 8.519531 3.96875 8.246094 3.96875 7.96875 C 4.078125 6.367188 4.683594 5.5625 5.78125 4.625 C 6.207031 4.34375 6.675781 4.164062 7.15625 4.0625 C 7.417969 4.007812 7.691406 3.96875 7.96875 3.96875 Z M 0 7.46875 L 0 8.46875 L 1.8125 8.46875 L 1.8125 7.46875 Z M 14.125 7.46875 L 14.125 8.46875 L 15.9375 8.46875 L 15.9375 7.46875 Z M 3.25 11.96875 L 1.96875 13.25 L 2.6875 13.96875 L 3.96875 12.6875 Z M 12.6875 11.96875 L 11.96875 12.6875 L 13.25 13.96875 L 13.96875 13.25 Z M 7.46875 14.125 L 7.46875 15.9375 L 8.46875 15.9375 L 8.46875 14.125 Z M 7.46875 14.125 "/>
</g>
</svg>
