<?xml version="1.0" encoding="UTF-8"?>
<svg xmlns="http://www.w3.org/2000/svg" xmlns:xlink="http://www.w3.org/1999/xlink" width="15pt" height="16pt" viewBox="0 0 15 16" version="1.1">
<g id="surface1">
<path style=" stroke:none;fill-rule:nonzero;fill:rgb(30.196078%,30.196078%,30.196078%);fill-opacity:1;" d="M 4.5 1 C 4.222656 1 4 1.222656 4 1.5 C 4 1.777344 4.222656 2 4.5 2 C 4.777344 2 5 1.777344 5 1.5 C 5 1.222656 4.777344 1 4.5 1 Z M 1.5 3 C 1.222656 3 1 3.222656 1 3.5 C 1 3.777344 1.222656 4 1.5 4 C 1.777344 4 2 3.777344 2 3.5 C 2 3.222656 1.777344 3 1.5 3 Z M 0.5 6 C 0.222656 6 0 6.222656 0 6.5 C 0 6.777344 0.222656 7 0.5 7 C 0.777344 7 1 6.777344 1 6.5 C 1 6.222656 0.777344 6 0.5 6 Z M 11.5625 8 L 10.890625 8.71875 L 13.128906 11 L 10 11 L 10 12 L 13.128906 12 L 10.890625 14.28125 L 11.5625 15 L 14.816406 11.71875 L 15 11.5 L 14.816406 11.28125 Z M 1.5 9 C 1.222656 9 1 9.222656 1 9.5 C 1 9.777344 1.222656 10 1.5 10 C 1.777344 10 2 9.777344 2 9.5 C 2 9.222656 1.777344 9 1.5 9 Z M 4.5 11 C 4.222656 11 4 11.222656 4 11.5 C 4 11.777344 4.222656 12 4.5 12 C 4.777344 12 5 11.777344 5 11.5 C 5 11.222656 4.777344 11 4.5 11 Z M 7.5 11 C 7.222656 11 7 11.222656 7 11.5 C 7 11.777344 7.222656 12 7.5 12 C 7.777344 12 8 11.777344 8 11.5 C 8 11.222656 7.777344 11 7.5 11 Z M 7.5 11 "/>
<path style=" stroke:none;fill-rule:nonzero;fill:rgb(11.372549%,60%,95.294118%);fill-opacity:1;" d="M 7 0 L 7 16 L 8 16 L 8 0 Z M 7 0 "/>
</g>
</svg>
