<?xml version="1.0" encoding="UTF-8"?>
<svg xmlns="http://www.w3.org/2000/svg" xmlns:xlink="http://www.w3.org/1999/xlink" width="14pt" height="16pt" viewBox="0 0 14 16" version="1.1">
<g id="surface1">
<path style=" stroke:none;fill-rule:nonzero;fill:rgb(30.196078%,30.196078%,30.196078%);fill-opacity:1;" d="M 0 0 L 0 10 L 3 8 L 6 10 L 6 0 Z M 7 0 L 7 1 L 13 1 L 13 11 L 9 11 L 9 15 L 1 15 L 1 11 L 0 11 L 0 16 L 10 16 L 10 15.988281 L 10.007812 16 L 14 12.007812 L 14 0 Z M 3 3 L 5 3 C 3 6 1 7 1 7 C 1 7 2 3 3 3 Z M 3 3 "/>
</g>
</svg>
