<?xml version="1.0" encoding="UTF-8"?>
<svg xmlns="http://www.w3.org/2000/svg" xmlns:xlink="http://www.w3.org/1999/xlink" width="16pt" height="16pt" viewBox="0 0 16 16" version="1.1">
<g id="surface1">
<path style=" stroke:none;fill-rule:nonzero;fill:rgb(30.196078%,30.196078%,30.196078%);fill-opacity:1;" d="M 1 0 L 1 14 L 0 14 L 0 15 L 1 15 L 1 16 L 2 16 L 2 15 L 14 15 L 14 16 L 15 16 L 15 15 L 16 15 L 16 14 L 15 14 L 15 0 L 14 0 L 14 14 L 2 14 L 2 0 Z M 3 1 L 3 3 L 7 3 L 7 13 L 9 13 L 9 3 L 13 3 L 13 1 Z M 3 1 "/>
</g>
</svg>
