<?xml version="1.0" encoding="UTF-8"?>
<svg xmlns="http://www.w3.org/2000/svg" xmlns:xlink="http://www.w3.org/1999/xlink" width="16pt" height="16pt" viewBox="0 0 16 16" version="1.1">
<g id="surface1">
<path style=" stroke:none;fill-rule:nonzero;fill:rgb(30.196078%,30.196078%,30.196078%);fill-opacity:1;" d="M 1.5 0 L 0.96875 0.96875 L 0 1.5 L 0.96875 2.03125 L 1.5 3 L 2.03125 2.03125 L 3 1.5 L 2.03125 0.96875 Z M 6.5 0 L 5.96875 0.96875 L 5 1.5 L 5.96875 2.03125 L 6.5 3 L 7.03125 2.03125 L 8 1.5 L 7.03125 0.96875 Z M 13.171875 0 L 0 13.171875 L 2.828125 16 L 16 2.828125 Z M 13.105469 1.484375 L 14.515625 2.898438 L 11.421875 5.996094 L 10.003906 4.578125 Z M 3.5 4 L 2.96875 4.96875 L 2 5.5 L 2.96875 6.03125 L 3.5 7 L 4.03125 6.03125 L 5 5.5 L 4.03125 4.96875 Z M 13 10 C 11.339844 10 10 11.339844 10 13 C 10 14.660156 11.339844 16 13 16 C 13.773438 16 14.46875 15.695312 15 15.21875 L 15 16 L 16 16 L 16 10 L 15 10 L 15 10.78125 C 14.46875 10.304688 13.773438 10 13 10 Z M 13 11 C 14.109375 11 15 11.890625 15 13 C 15 14.109375 14.109375 15 13 15 C 11.890625 15 11 14.109375 11 13 C 11 11.890625 11.890625 11 13 11 Z M 13 11 "/>
</g>
</svg>
