<?xml version="1.0" encoding="UTF-8"?>
<svg xmlns="http://www.w3.org/2000/svg" xmlns:xlink="http://www.w3.org/1999/xlink" width="17pt" height="16pt" viewBox="0 0 17 16" version="1.1">
<g id="surface1">
<path style=" stroke:none;fill-rule:nonzero;fill:rgb(70.196078%,70.196078%,70.196078%);fill-opacity:1;" d="M 7 0 L 1 6 L 11 6 L 11 15 L 17 9 L 17 0 Z M 7 0 "/>
<path style=" stroke:none;fill-rule:nonzero;fill:rgb(30.196078%,30.196078%,30.196078%);fill-opacity:1;" d="M 6.28125 0 C 6.28125 0 6.003906 0.285156 6 0.28125 L 0.28125 6 L 0 6.292969 L 0 16 L 10.6875 16 L 17 9.6875 L 17 0 Z M 6.6875 1 L 15.28125 1 L 10.28125 6 L 7 6 L 9 4 L 11 4 L 10 2 L 5 4 L 7 4 L 5 6 L 1.6875 6 Z M 16 1.6875 L 16 9.28125 L 11 14.28125 L 11 6.6875 Z M 1 7 L 10 7 L 10 15 L 1 15 Z M 1 7 "/>
</g>
</svg>
