<?xml version="1.0" encoding="UTF-8"?>
<svg xmlns="http://www.w3.org/2000/svg" xmlns:xlink="http://www.w3.org/1999/xlink" width="16pt" height="15pt" viewBox="0 0 16 15" version="1.1">
<g id="surface1">
<path style=" stroke:none;fill-rule:nonzero;fill:rgb(30.196078%,30.196078%,30.196078%);fill-opacity:1;" d="M 8.5 0 C 8.222656 0 8 0.222656 8 0.5 C 8 0.777344 8.222656 1 8.5 1 C 8.777344 1 9 0.777344 9 0.5 C 9 0.222656 8.777344 0 8.5 0 Z M 5.5 1 C 5.222656 1 5 1.222656 5 1.5 C 5 1.777344 5.222656 2 5.5 2 C 5.777344 2 6 1.777344 6 1.5 C 6 1.222656 5.777344 1 5.5 1 Z M 11.5 1 C 11.222656 1 11 1.222656 11 1.5 C 11 1.777344 11.222656 2 11.5 2 C 11.777344 2 12 1.777344 12 1.5 C 12 1.222656 11.777344 1 11.5 1 Z M 3.5 4 C 3.222656 4 3 4.222656 3 4.5 C 3 4.777344 3.222656 5 3.5 5 C 3.777344 5 4 4.777344 4 4.5 C 4 4.222656 3.777344 4 3.5 4 Z M 13.5 4 C 13.222656 4 13 4.222656 13 4.5 C 13 4.777344 13.222656 5 13.5 5 C 13.777344 5 14 4.777344 14 4.5 C 14 4.222656 13.777344 4 13.5 4 Z M 3.5 7 C 3.222656 7 3 7.222656 3 7.5 C 3 7.777344 3.222656 8 3.5 8 C 3.777344 8 4 7.777344 4 7.5 C 4 7.222656 3.777344 7 3.5 7 Z M 3 10 L 3 13.128906 L 0.71875 10.890625 L 0 11.5625 L 3.28125 14.816406 L 3.5 15 L 3.71875 14.816406 L 7 11.5625 L 6.28125 10.890625 L 4 13.128906 L 4 10 Z M 3 10 "/>
<path style=" stroke:none;fill-rule:nonzero;fill:rgb(11.372549%,60%,95.294118%);fill-opacity:1;" d="M 0 7 L 0 8 L 16 8 L 16 7 Z M 0 7 "/>
</g>
</svg>
