<?xml version="1.0" encoding="UTF-8"?>
<svg xmlns="http://www.w3.org/2000/svg" xmlns:xlink="http://www.w3.org/1999/xlink" width="17pt" height="16pt" viewBox="0 0 17 16" version="1.1">
<g id="surface1">
<path style=" stroke:none;fill-rule:nonzero;fill:rgb(30.196078%,30.196078%,30.196078%);fill-opacity:1;" d="M 0.9375 0 L 0.9375 2 L 6 2 L 6 10 L 8 10 L 8 2 L 12.9375 2 L 12.9375 0 Z M 16 7 L 0 16 L 9.9375 16 L 9.9375 15 L 3.90625 15 L 15 8.8125 L 15 9.53125 L 16 9.53125 Z M 16 7 "/>
<path style=" stroke:none;fill-rule:nonzero;fill:rgb(95.686275%,46.666667%,31.372549%);fill-opacity:1;" d="M 15 10 L 11 14 L 11 16 L 13 16 L 17 12 Z M 14.6875 11.6875 L 15.28125 12.28125 C 14.25 13.304688 13.191406 14.394531 12.3125 15.28125 L 11.71875 14.6875 Z M 14.6875 11.6875 "/>
</g>
</svg>
