<?xml version="1.0" encoding="UTF-8"?>
<svg xmlns="http://www.w3.org/2000/svg" xmlns:xlink="http://www.w3.org/1999/xlink" width="16pt" height="16pt" viewBox="0 0 16 16" version="1.1">
<g id="surface1">
<path style=" stroke:none;fill-rule:nonzero;fill:rgb(30.196078%,30.196078%,30.196078%);fill-opacity:1;" d="M 8 0 L 8 3 L 4 3 L 4 6 L 0 6 L 0 16 L 8 16 L 8 13 L 12 13 L 12 10 L 16 10 L 16 0 Z M 9 1 L 15 1 L 15 9 L 12 9 L 12 3 L 9 3 Z M 5 4 L 11 4 L 11 12 L 8 12 L 8 6 L 5 6 Z M 1 7 L 7 7 L 7 15 L 1 15 Z M 1 7 "/>
</g>
</svg>
