<?xml version="1.0" encoding="UTF-8"?>
<svg xmlns="http://www.w3.org/2000/svg" xmlns:xlink="http://www.w3.org/1999/xlink" width="14pt" height="14.937808pt" viewBox="0 0 14 14.937808" version="1.1">
<g id="surface1">
<path style=" stroke:none;fill-rule:nonzero;fill:rgb(30.196078%,30.196078%,30.196078%);fill-opacity:1;" d="M 10.355469 0 C 9.105469 0 7.863281 0.238281 6.710938 0.738281 C 4.273438 1.792969 2.671875 3.765625 2.164062 5.964844 L 0 5.964844 L 0 6.964844 L 2.007812 6.964844 C 1.984375 7.296875 1.980469 7.628906 2.007812 7.964844 L 0 7.964844 L 0 8.964844 L 2.164062 8.964844 C 2.300781 9.558594 2.511719 10.148438 2.820312 10.71875 C 4.839844 14.425781 9.84375 15.992188 14 14.191406 L 13.542969 13.34375 C 9.90625 14.917969 5.535156 13.550781 3.769531 10.308594 C 3.53125 9.867188 3.359375 9.417969 3.234375 8.964844 L 9 8.964844 L 9 7.964844 L 3.0625 7.964844 C 3.035156 7.628906 3.039062 7.296875 3.066406 6.964844 L 10 6.964844 L 10 5.964844 L 3.234375 5.964844 C 3.726562 4.121094 5.109375 2.480469 7.171875 1.585938 C 9.179688 0.714844 11.527344 0.71875 13.542969 1.585938 L 14 0.738281 C 12.847656 0.242188 11.605469 0 10.355469 0 Z M 10.355469 0 "/>
</g>
</svg>
