<?xml version="1.0" encoding="UTF-8"?>
<svg xmlns="http://www.w3.org/2000/svg" xmlns:xlink="http://www.w3.org/1999/xlink" width="16pt" height="15.998047pt" viewBox="0 0 16 15.998047" version="1.1">
<g id="surface1">
<path style=" stroke:none;fill-rule:nonzero;fill:rgb(30.196078%,30.196078%,30.196078%);fill-opacity:1;" d="M 8.996094 0 L 1.671875 7.328125 L 1.667969 7.324219 L 0.253906 8.734375 L 0.257812 8.738281 L 0.0078125 8.988281 L 0 8.988281 L 0 13 L 4.007812 13 L 4.257812 12.746094 L 4.613281 12.390625 L 5.320312 11.6875 L 5.675781 11.332031 L 13 4 L 9 0 Z M 8.410156 1.996094 L 11 4.585938 L 6.734375 8.855469 L 4.144531 6.265625 Z M 3.4375 6.96875 L 6.027344 9.5625 L 5.320312 10.265625 L 2.726562 7.675781 L 3 7.40625 Z M 2.023438 8.386719 L 4.609375 10.972656 L 4.617188 10.976562 L 3.90625 11.683594 L 1.3125 9.09375 Z M 0 15 L 0 16 L 16 16 L 16 15 Z M 0 15 "/>
</g>
</svg>
