<?xml version="1.0" encoding="UTF-8"?>
<svg xmlns="http://www.w3.org/2000/svg" xmlns:xlink="http://www.w3.org/1999/xlink" width="11pt" height="18pt" viewBox="0 0 11 18" version="1.1">
<g id="surface1">
<path style=" stroke:none;fill-rule:nonzero;fill:rgb(30.196078%,30.196078%,30.196078%);fill-opacity:1;" d="M 4 0 L 4 2.132812 C 3.023438 2.273438 2.191406 2.53125 1.539062 2.929688 C 0.527344 3.546875 0.0195312 4.488281 0.0234375 5.761719 C 0.015625 7.957031 1.578125 8.679688 4 9.34375 L 4 14.335938 C 2.828125 14.238281 1.753906 14.015625 0.625 13.53125 L 0 14.890625 C 0.566406 15.191406 1.328125 15.449219 2.289062 15.671875 C 2.832031 15.796875 3.398438 15.875 4 15.925781 L 4 18 L 5 18 L 5 15.976562 C 5.171875 15.980469 5.3125 16 5.496094 16 C 5.65625 16 5.832031 15.984375 6 15.976562 L 6 18 L 7 18 L 7 15.878906 C 8.996094 15.597656 10.980469 14.679688 10.957031 12.191406 C 10.890625 10.363281 9.757812 9.6875 7 8.71875 L 7 3.765625 C 7.902344 3.882812 9.003906 4.136719 10.222656 4.746094 L 11 3.203125 C 10.449219 2.90625 9.167969 2.4375 8.355469 2.261719 C 7.921875 2.167969 7.46875 2.105469 7 2.0625 L 7 0 L 6 0 L 6 2.015625 C 5.90625 2.011719 5.820312 2 5.730469 2 C 5.472656 2 5.242188 2.019531 5 2.03125 L 5 0 Z M 5.4375 3.648438 C 5.589844 3.648438 5.800781 3.65625 6 3.664062 L 6 8.367188 C 5.84375 8.316406 5.746094 8.273438 5.578125 8.21875 C 5.398438 8.175781 5.191406 8.109375 5 8.058594 L 5 3.664062 C 5.144531 3.65625 5.292969 3.648438 5.4375 3.648438 Z M 4 3.757812 L 4 7.753906 C 2.773438 7.320312 1.644531 6.664062 1.675781 5.566406 C 1.617188 4.523438 2.679688 3.976562 4 3.757812 Z M 5 9.613281 C 5.183594 9.660156 5.328125 9.707031 5.519531 9.753906 C 5.683594 9.800781 5.839844 9.851562 6 9.898438 L 6 14.390625 C 5.851562 14.394531 5.6875 14.410156 5.546875 14.40625 C 5.355469 14.40625 5.183594 14.394531 5 14.390625 Z M 7 10.210938 C 8.28125 10.660156 9.320312 11.246094 9.296875 12.277344 C 9.257812 13.671875 8.164062 14.160156 7 14.324219 Z M 7 10.210938 "/>
</g>
</svg>
