<?xml version="1.0" encoding="UTF-8"?>
<svg xmlns="http://www.w3.org/2000/svg" xmlns:xlink="http://www.w3.org/1999/xlink" width="15pt" height="15.3125pt" viewBox="0 0 15 15.3125" version="1.1">
<g id="surface1">
<path style=" stroke:none;fill-rule:nonzero;fill:rgb(30.196078%,30.196078%,30.196078%);fill-opacity:1;" d="M 1 0 L 0 1 L 0 2.304688 L 5 9.367188 L 5 13.039062 L 8 15.265625 L 8 14.019531 L 6 12.535156 L 6 9 L 5.964844 9 L 1 1.988281 L 1 1 L 13 1 L 13 1.988281 L 8.035156 9 L 9.261719 9 L 14 2.304688 L 14 1 L 13 0 Z M 2 2 L 4 5 L 4 3 L 6 2 Z M 14.3125 10 L 10.40625 13.90625 L 9.28125 12.75 L 8.5625 13.4375 L 10.40625 15.3125 L 10.4375 15.3125 L 15 10.71875 Z M 14.3125 10 "/>
</g>
</svg>
