<?xml version="1.0" encoding="UTF-8"?>
<svg xmlns="http://www.w3.org/2000/svg" xmlns:xlink="http://www.w3.org/1999/xlink" width="18pt" height="16pt" viewBox="0 0 18 16" version="1.1">
<g id="surface1">
<path style=" stroke:none;fill-rule:nonzero;fill:rgb(30.196078%,30.196078%,30.196078%);fill-opacity:1;" d="M 0 0 L 0 1 L 18 1 L 18 0 Z M 3.710938 3 L 0 13 L 1.585938 13 L 2.777344 9.835938 L 6.351562 9.835938 L 7.496094 13 L 9 13 L 5.601562 3 Z M 14.1875 3 C 12.621094 3.039062 11.734375 3.289062 10.859375 3.6875 L 11.410156 5.003906 C 12.507812 4.65625 13.425781 4.34375 14.492188 4.378906 C 15.785156 4.433594 16.285156 4.972656 16.324219 6.082031 L 16.355469 6.9375 C 10.84375 7.179688 10.058594 8.152344 10 10.3125 C 10 11.988281 11.234375 13 13 13 C 14.21875 13 15.621094 12.503906 16.4375 11.8125 L 16.667969 12.8125 L 18 12.8125 L 18 6.0625 C 18 4.003906 16.5625 3 14.375 3 Z M 4.65625 4.550781 L 6.0625 8.917969 L 3.101562 8.917969 Z M 16.328125 8.152344 C 16.332031 8.164062 16.324219 9.847656 16.324219 9.847656 C 15.816406 10.800781 14.554688 11.558594 13.636719 11.605469 C 12.582031 11.65625 11.722656 11.191406 11.703125 10.296875 C 11.738281 8.566406 13.820312 8.414062 16.328125 8.152344 Z M 0 15 L 0 16 L 18 16 L 18 15 Z M 0 15 "/>
</g>
</svg>
