<?xml version="1.0" encoding="UTF-8"?>
<svg xmlns="http://www.w3.org/2000/svg" xmlns:xlink="http://www.w3.org/1999/xlink" width="15pt" height="16pt" viewBox="0 0 15 16" version="1.1">
<g id="surface1">
<path style=" stroke:none;fill-rule:nonzero;fill:rgb(30.196078%,30.196078%,30.196078%);fill-opacity:1;" d="M 1 0 L 0 1 L 0 2.304688 L 5 9.367188 L 5 13.039062 L 8 15.265625 L 8 14.019531 L 6 12.535156 L 6 9 L 5.964844 9 L 1 1.988281 L 1 1 L 13 1 L 13 1.988281 L 8.035156 9 L 9.261719 9 L 14 2.304688 L 14 1 L 13 0 Z M 2 2 L 4 5 L 4 3 L 6 2 Z M 2 2 "/>
<path style=" stroke:none;fill-rule:nonzero;fill:rgb(11.372549%,60%,95.294118%);fill-opacity:1;" d="M 15 10 L 12 11 C 10.953125 11 10 11.953125 10 13 L 9 16 L 12 15 C 13.046875 15 14 14.046875 14 13 Z M 12 12 C 12.523438 12 13 12.476562 13 13 C 13 13.523438 12.523438 14 12 14 C 11.476562 14 11 13.523438 11 13 C 11 12.476562 11.476562 12 12 12 Z M 12 12 "/>
</g>
</svg>
