<?xml version="1.0" encoding="UTF-8"?>
<svg xmlns="http://www.w3.org/2000/svg" xmlns:xlink="http://www.w3.org/1999/xlink" width="16pt" height="16pt" viewBox="0 0 16 16" version="1.1">
<g id="surface1">
<path style=" stroke:none;fill-rule:nonzero;fill:rgb(30.196078%,30.196078%,30.196078%);fill-opacity:1;" d="M 0 0 L 0 16 L 16 16 L 16 0 Z M 4 4 L 7 4 L 7 7 L 4 7 Z M 8 4 L 11 4 L 11 7 L 8 7 Z M 12 4 L 15 4 L 15 7 L 12 7 Z M 4 8 L 7 8 L 7 11 L 4 11 Z M 8 8 L 11 8 L 11 11 L 8 11 Z M 12 8 L 15 8 L 15 11 L 12 11 Z M 4 12 L 7 12 L 7 15 L 4 15 Z M 8 12 L 11 12 L 11 15 L 8 15 Z M 12 12 L 15 12 L 15 15 L 12 15 Z M 12 12 "/>
</g>
</svg>
