<?xml version="1.0" encoding="UTF-8"?>
<svg xmlns="http://www.w3.org/2000/svg" xmlns:xlink="http://www.w3.org/1999/xlink" width="16pt" height="16pt" viewBox="0 0 16 16" version="1.1">
<g id="surface1">
<path style=" stroke:none;fill-rule:nonzero;fill:rgb(30.196078%,30.196078%,30.196078%);fill-opacity:1;" d="M 8 0 L 0 8 L 0 9 L 2 9 L 2 16 L 14 16 L 14 9 L 16 9 L 16 8 L 14.125 6.125 C 14.125 6.132812 13.4375 6.875 13.4375 6.875 L 14.5625 8 L 13 8 L 13 15 L 9 15 L 9 11 L 6 11 L 6 15 L 3 15 L 3 8 L 1.4375 8 L 8 1.4375 L 10.4375 3.875 L 11.15625 3.15625 Z M 12 1 L 12 5 L 13 5 L 13 1 Z M 12 1 "/>
</g>
</svg>
