<?xml version="1.0" encoding="UTF-8"?>
<svg xmlns="http://www.w3.org/2000/svg" xmlns:xlink="http://www.w3.org/1999/xlink" width="16pt" height="16pt" viewBox="0 0 16 16" version="1.1">
<g id="surface1">
<path style=" stroke:none;fill-rule:nonzero;fill:rgb(95.686275%,46.666667%,31.372549%);fill-opacity:1;" d="M 0 0 L 0 16 L 5 16 L 5 15 L 1 15 L 1 1 L 15 1 L 15 13 L 16 13 L 16 0 Z M 0 0 "/>
<path style=" stroke:none;fill-rule:nonzero;fill:rgb(30.196078%,30.196078%,30.196078%);fill-opacity:1;" d="M 1 1 L 1 15 L 5 15 L 5 14 L 2 14 L 2 2 L 14 2 L 14 13 L 15 13 L 15 1 Z M 6.90625 14 C 6.390625 14.046875 5.996094 14.480469 6 15 C 6 15.550781 6.449219 16 7 16 C 7.550781 16 8 15.550781 8 15 C 8 14.449219 7.550781 14 7 14 C 6.96875 14 6.9375 14 6.90625 14 Z M 10.90625 14 C 10.390625 14.046875 9.996094 14.480469 10 15 C 10 15.550781 10.449219 16 11 16 C 11.550781 16 12 15.550781 12 15 C 12 14.449219 11.550781 14 11 14 C 10.96875 14 10.9375 14 10.90625 14 Z M 14.90625 14 C 14.390625 14.046875 13.996094 14.480469 14 15 C 14 15.550781 14.449219 16 15 16 C 15.550781 16 16 15.550781 16 15 C 16 14.449219 15.550781 14 15 14 C 14.96875 14 14.9375 14 14.90625 14 Z M 14.90625 14 "/>
</g>
</svg>
