<?xml version="1.0" encoding="UTF-8"?>
<svg xmlns="http://www.w3.org/2000/svg" xmlns:xlink="http://www.w3.org/1999/xlink" width="16.001455pt" height="16.000139pt" viewBox="0 0 16.001455 16.000139" version="1.1">
<g id="surface1">
<path style=" stroke:none;fill-rule:nonzero;fill:rgb(30.196078%,30.196078%,30.196078%);fill-opacity:1;" d="M 9 0 L 1.65625 7.3125 L 0.25 8.75 L 0 9 L 0 13 L 4 13 L 4.25 12.75 L 4.625 12.40625 L 5.3125 11.6875 L 5.6875 11.34375 L 12 5 L 13 4 Z M 8.40625 2 L 11 4.59375 L 6.71875 8.84375 L 4.15625 6.25 Z M 3.4375 6.96875 L 6.03125 9.5625 L 5.3125 10.28125 L 2.71875 7.6875 Z M 2.03125 8.375 L 4.625 10.96875 L 3.90625 11.6875 L 1.3125 9.09375 Z M 13.5 11 C 13.238281 11 12.546875 11.046875 11.4375 11.5625 C 11.089844 11.722656 10.800781 11.90625 10.40625 12.125 C 10.195312 12.242188 9.4375 12.621094 9.15625 12.75 C 8.332031 13.132812 8.054688 13.230469 7.34375 13.5 C 6.652344 13.761719 6.003906 13.992188 5.003906 13.992188 L 0.00390625 13.992188 L 0 16 C 0 16 3.328125 16.03125 5.75 15.125 C 6.070312 15.003906 6.632812 14.808594 7.15625 14.625 C 7.15625 14.625 9.636719 15.386719 11.5 15.78125 C 13.027344 16.191406 14.199219 15.929688 14.78125 15.625 C 15.617188 15.148438 16.027344 14.289062 16 13.46875 C 15.996094 13.179688 15.921875 12.945312 15.78125 12.625 C 15.640625 12.304688 15.4375 11.949219 15.125 11.6875 C 14.644531 11.265625 14.402344 11.078125 13.5 11 Z M 13.5 11 "/>
</g>
</svg>
