<?xml version="1.0" encoding="UTF-8"?>
<svg xmlns="http://www.w3.org/2000/svg" xmlns:xlink="http://www.w3.org/1999/xlink" width="16.001953pt" height="16pt" viewBox="0 0 16.001953 16" version="1.1">
<g id="surface1">
<path style=" stroke:none;fill-rule:nonzero;fill:rgb(30.196078%,30.196078%,30.196078%);fill-opacity:1;" d="M 8 0 C 4.503906 0 1.488281 2.390625 0 5.882812 L 3.4375 8 C 4.214844 5.601562 5.964844 3.921875 8 3.921875 C 10.039062 3.921875 11.785156 5.601562 12.5625 8 L 16 5.882812 C 14.511719 2.390625 11.5 0 8 0 Z M 12.5625 8 C 11.785156 10.398438 10.039062 12.078125 8 12.078125 C 5.964844 12.078125 4.214844 10.398438 3.4375 8 L 0 10.113281 C 1.488281 13.609375 4.503906 16 8 16 C 11.5 16 14.511719 13.609375 16 10.113281 Z M 12.5625 8 "/>
</g>
</svg>
