<?xml version="1.0" encoding="UTF-8"?>
<svg xmlns="http://www.w3.org/2000/svg" xmlns:xlink="http://www.w3.org/1999/xlink" width="14pt" height="15pt" viewBox="0 0 14 15" version="1.1">
<g id="surface1">
<path style=" stroke:none;fill-rule:nonzero;fill:rgb(95.686275%,46.666667%,31.372549%);fill-opacity:1;" d="M 13 0 C 12.449219 0 12 0.449219 12 1 C 12 1.550781 12.449219 2 13 2 C 13.550781 2 14 1.550781 14 1 C 14 0.449219 13.550781 0 13 0 Z M 13 4 C 12.449219 4 12 4.449219 12 5 C 12 5.550781 12.449219 6 13 6 C 13.550781 6 14 5.550781 14 5 C 14 4.449219 13.550781 4 13 4 Z M 13 8 C 12.449219 8 12 8.449219 12 9 C 12 9.550781 12.449219 10 13 10 C 13.550781 10 14 9.550781 14 9 C 14 8.449219 13.550781 8 13 8 Z M 13 8 "/>
<path style=" stroke:none;fill-rule:nonzero;fill:rgb(30.196078%,30.196078%,30.196078%);fill-opacity:1;" d="M 4.910156 1 L 1.59375 10.59375 L 1.472656 11 L 0 15 L 1.65625 15 L 3.28125 10.5625 L 8.71875 10.5625 L 10.34375 15 L 12 15 L 10.527344 11 L 10.40625 10.59375 L 7.089844 1 Z M 6.015625 2.9375 L 8.195312 9.28125 L 3.804688 9.28125 Z M 6.015625 2.9375 "/>
</g>
</svg>
