<?xml version="1.0" encoding="UTF-8"?>
<svg xmlns="http://www.w3.org/2000/svg" xmlns:xlink="http://www.w3.org/1999/xlink" width="16pt" height="16pt" viewBox="0 0 16 16" version="1.1">
<g id="surface1">
<path style=" stroke:none;fill-rule:nonzero;fill:rgb(30.196078%,30.196078%,30.196078%);fill-opacity:1;" d="M 0 0 L 0 16 L 16 16 L 16 0 Z M 1 1 L 15 1 L 15 15 L 1 15 Z M 7 7 L 7 11 L 5 11 L 8 14 L 11 11 L 9 11 L 9 7 Z M 7 7 "/>
<path style=" stroke:none;fill-rule:nonzero;fill:rgb(11.372549%,60%,95.294118%);fill-opacity:1;" d="M 8 2 C 6.34375 2 5 3.34375 5 5 C 5 6.65625 6.34375 8 8 8 C 9.65625 8 11 6.65625 11 5 C 11 3.34375 9.65625 2 8 2 Z M 8 4 C 8.550781 4 9 4.449219 9 5 C 9 5.550781 8.550781 6 8 6 C 7.449219 6 7 5.550781 7 5 C 7 4.449219 7.449219 4 8 4 Z M 8 4 "/>
</g>
</svg>
