<?xml version="1.0" encoding="UTF-8"?>
<svg xmlns="http://www.w3.org/2000/svg" xmlns:xlink="http://www.w3.org/1999/xlink" width="16pt" height="16pt" viewBox="0 0 16 16" version="1.1">
<g id="surface1">
<path style=" stroke:none;fill-rule:nonzero;fill:rgb(30.196078%,30.196078%,30.196078%);fill-opacity:1;" d="M 0 0 L 0 16 L 16 16 L 16 0 Z M 1 1 L 15 1 L 15 15 L 1 15 Z M 4 3 C 3.445312 3 3 3.445312 3 4 L 3 6 C 3 6.554688 3.445312 7 4 7 L 12 7 C 12.554688 7 13 6.554688 13 6 L 13 4 C 13 3.445312 12.554688 3 12 3 Z M 4 9 C 3.445312 9 3 9.445312 3 10 L 3 12 C 3 12.554688 3.445312 13 4 13 L 12 13 C 12.554688 13 13 12.554688 13 12 L 13 10 C 13 9.445312 12.554688 9 12 9 Z M 4 9 "/>
</g>
</svg>
