<?xml version="1.0" encoding="UTF-8"?>
<svg xmlns="http://www.w3.org/2000/svg" xmlns:xlink="http://www.w3.org/1999/xlink" width="15pt" height="15pt" viewBox="0 0 15 15" version="1.1">
<g id="surface1">
<path style=" stroke:none;fill-rule:nonzero;fill:rgb(95.686275%,46.666667%,31.372549%);fill-opacity:1;" d="M 3 0 L 3 3 L 6 3 L 6 0 Z M 9 3 L 9 6 L 12 6 L 12 3 Z M 3 6 L 3 9 L 6 9 L 6 6 Z M 9 9 L 9 12 L 12 12 L 12 9 Z M 6 13 C 5.449219 13 5 13.449219 5 14 C 5 14.550781 5.449219 15 6 15 C 6.550781 15 7 14.550781 7 14 C 7 13.449219 6.550781 13 6 13 Z M 10 13 C 9.449219 13 9 13.449219 9 14 C 9 14.550781 9.449219 15 10 15 C 10.550781 15 11 14.550781 11 14 C 11 13.449219 10.550781 13 10 13 Z M 14 13 C 13.449219 13 13 13.449219 13 14 C 13 14.550781 13.449219 15 14 15 C 14.550781 15 15 14.550781 15 14 C 15 13.449219 14.550781 13 14 13 Z M 14 13 "/>
<path style=" stroke:none;fill-rule:nonzero;fill:rgb(18.039216%,80%,44.313725%);fill-opacity:1;" d="M 6 0 L 6 3 L 9 3 L 9 0 Z M 12 3 L 12 6 L 15 6 L 15 3 Z M 0 6 L 0 9 L 3 9 L 3 6 Z M 12 9 L 12 12 L 15 12 L 15 9 Z M 12 9 "/>
<path style=" stroke:none;fill-rule:nonzero;fill:rgb(99.215686%,73.72549%,29.411765%);fill-opacity:1;" d="M 12 0 L 12 3 L 15 3 L 15 0 Z M 6 3 L 6 6 L 9 6 L 9 3 Z M 12 6 L 12 9 L 15 9 L 15 6 Z M 0 9 L 0 12 L 3 12 L 3 9 Z M 3 12 L 3 15 L 4 15 L 4 12 Z M 3 12 "/>
<path style=" stroke:none;fill-rule:nonzero;fill:rgb(11.372549%,60%,95.294118%);fill-opacity:1;" d="M 0 0 L 0 3 L 3 3 L 3 0 Z M 3 3 L 3 6 L 6 6 L 6 3 Z M 9 6 L 9 9 L 12 9 L 12 6 Z M 9 9 L 6 9 L 6 12 L 9 12 Z M 0 12 L 0 15 L 3 15 L 3 12 Z M 0 12 "/>
<path style=" stroke:none;fill-rule:nonzero;fill:rgb(85.490196%,26.666667%,32.54902%);fill-opacity:1;" d="M 9 0 L 9 3 L 12 3 L 12 0 Z M 0 3 L 0 6 L 3 6 L 3 3 Z M 6 6 L 6 9 L 9 9 L 9 6 Z M 6 9 L 3 9 L 3 12 L 6 12 Z M 6 9 "/>
</g>
</svg>
