<?xml version="1.0" encoding="UTF-8"?>
<svg xmlns="http://www.w3.org/2000/svg" xmlns:xlink="http://www.w3.org/1999/xlink" width="16pt" height="16pt" viewBox="0 0 16 16" version="1.1">
<g id="surface1">
<path style=" stroke:none;fill-rule:nonzero;fill:rgb(30.196078%,30.196078%,30.196078%);fill-opacity:1;" d="M 0 0 L 0 16 L 16 16 L 16 0 Z M 1 1 L 15 1 L 15 15 L 1 15 Z M 8 2 L 5 5 L 7 5 L 7 9 L 9 9 L 9 5 L 11 5 Z M 8 2 "/>
<path style=" stroke:none;fill-rule:nonzero;fill:rgb(11.372549%,60%,95.294118%);fill-opacity:1;" d="M 8 8 C 6.34375 8 5 9.34375 5 11 C 5 12.65625 6.34375 14 8 14 C 9.65625 14 11 12.65625 11 11 C 11 9.34375 9.65625 8 8 8 Z M 8 10 C 8.550781 10 9 10.449219 9 11 C 9 11.550781 8.550781 12 8 12 C 7.449219 12 7 11.550781 7 11 C 7 10.449219 7.449219 10 8 10 Z M 8 10 "/>
</g>
</svg>
