<?xml version="1.0" encoding="UTF-8"?>
<svg xmlns="http://www.w3.org/2000/svg" xmlns:xlink="http://www.w3.org/1999/xlink" width="16pt" height="16pt" viewBox="0 0 16 16" version="1.1">
<g id="surface1">
<path style=" stroke:none;fill-rule:nonzero;fill:rgb(67.058824%,34.117647%,23.921569%);fill-opacity:1;" d="M 0 0 L 0 16 L 7 16 C 6.449219 16 6 15.550781 6 15 C 6 14.449219 6.449219 14 7 14 C 7.550781 14 8 14.449219 8 15 C 8 15.550781 7.550781 16 7 16 L 11 16 C 10.449219 16 10 15.550781 10 15 C 10 14.449219 10.449219 14 11 14 C 11.550781 14 12 14.449219 12 15 C 12 15.550781 11.550781 16 11 16 L 15 16 C 14.449219 16 14 15.550781 14 15 C 14 14.449219 14.449219 14 15 14 C 15.550781 14 16 14.449219 16 15 L 16 0 Z M 16 15 C 16 15.550781 15.550781 16 15 16 L 16 16 Z M 1 1 L 15 1 L 15 11 C 15.097656 11.128906 11 7 11 7 L 7 11 L 6 10 L 1 15 Z M 4 2 C 2.890625 2 2 2.890625 2 4 C 2 5.109375 2.890625 6 4 6 C 5.109375 6 6 5.109375 6 4 C 6 2.890625 5.109375 2 4 2 Z M 4 2 "/>
</g>
</svg>
