<?xml version="1.0" encoding="UTF-8"?>
<svg xmlns="http://www.w3.org/2000/svg" xmlns:xlink="http://www.w3.org/1999/xlink" width="10pt" height="16pt" viewBox="0 0 10 16" version="1.1">
<defs>
<linearGradient id="linear0" gradientUnits="userSpaceOnUse" x1="6" y1="20.00003" x2="18" y2="8.00003" gradientTransform="matrix(1,0,0,1,-6,-4)">
<stop offset="0" style="stop-color:rgb(11.372549%,60%,95.294118%);stop-opacity:1;"/>
<stop offset="0.416667" style="stop-color:rgb(28.235294%,67.45098%,96.078431%);stop-opacity:0.760784;"/>
<stop offset="0.666663" style="stop-color:rgb(45.098039%,75.294118%,96.862745%);stop-opacity:0;"/>
<stop offset="1" style="stop-color:rgb(79.215686%,90.588235%,98.823529%);stop-opacity:0;"/>
</linearGradient>
</defs>
<g id="surface1">
<path style=" stroke:none;fill-rule:nonzero;fill:rgb(70.196078%,70.196078%,70.196078%);fill-opacity:1;" d="M 5 0 C 4.027344 3.40625 1.644531 6.34375 0.59375 8.6875 C 0.226562 9.382812 0 10.15625 0 11 C 0 13.769531 2.230469 16 5 16 C 7.769531 16 10 13.769531 10 11 C 10 10.15625 9.773438 9.382812 9.40625 8.6875 C 8.355469 6.34375 5.972656 3.40625 5 0 Z M 5 0 "/>
<path style=" stroke:none;fill-rule:nonzero;fill:rgb(46.666667%,46.666667%,46.666667%);fill-opacity:1;" d="M 5 0 C 4.699219 1.046875 4.269531 2.042969 3.78125 3 L 5 3 Z M 5 3 L 5 7 L 8.5 7 C 7.796875 5.785156 6.953125 4.445312 6.21875 3 Z M 5 7 L 1.5 7 C 1.332031 7.289062 1.144531 7.570312 1 7.84375 L 1 11 L 5 11 Z M 5 11 L 5 15 L 8 15 C 8.382812 14.714844 8.714844 14.382812 9 14 L 9 11 Z M 5 11 "/>
<path style=" stroke:none;fill-rule:nonzero;fill:url(#linear0);" d="M 5 0 C 4.027344 3.40625 1.644531 6.34375 0.59375 8.6875 C 0.226562 9.382812 0 10.15625 0 11 C 0 13.769531 2.230469 16 5 16 C 7.769531 16 10 13.769531 10 11 C 10 10.15625 9.773438 9.382812 9.40625 8.6875 C 8.355469 6.34375 5.972656 3.40625 5 0 Z M 5 0 "/>
<path style=" stroke:none;fill-rule:nonzero;fill:rgb(30.196078%,30.196078%,30.196078%);fill-opacity:1;" d="M 5 0 C 4.027344 3.40625 1.644531 6.34375 0.59375 8.6875 C 0.226562 9.382812 0 10.15625 0 11 C 0 13.769531 2.230469 16 5 16 C 7.769531 16 10 13.769531 10 11 C 10 10.15625 9.773438 9.382812 9.40625 8.6875 C 8.355469 6.34375 5.972656 3.40625 5 0 Z M 5 2 C 5.777344 4.765625 7.691406 7.160156 8.53125 9.0625 C 8.6875 9.363281 8.792969 9.664062 8.875 10 C 8.910156 10.140625 8.949219 10.292969 8.96875 10.4375 C 8.972656 10.457031 8.964844 10.480469 8.96875 10.5 C 8.984375 10.644531 9 10.789062 9 10.9375 C 9 10.957031 9 10.980469 9 11 C 8.996094 11.257812 8.957031 11.503906 8.90625 11.75 C 8.902344 11.769531 8.910156 11.792969 8.90625 11.8125 C 8.855469 12.054688 8.78125 12.304688 8.6875 12.53125 C 8.683594 12.539062 8.691406 12.554688 8.6875 12.5625 C 8.589844 12.796875 8.449219 13.011719 8.3125 13.21875 C 8.308594 13.226562 8.316406 13.242188 8.3125 13.25 C 8.171875 13.457031 8.019531 13.636719 7.84375 13.8125 C 7.660156 14 7.46875 14.164062 7.25 14.3125 C 6.613281 14.75 5.832031 15 5 15 C 4.722656 15 4.449219 14.960938 4.1875 14.90625 C 4 14.867188 3.832031 14.8125 3.65625 14.75 C 3.625 14.738281 3.59375 14.730469 3.5625 14.71875 C 3.523438 14.703125 3.476562 14.703125 3.4375 14.6875 C 3.375 14.660156 3.3125 14.625 3.25 14.59375 C 3.140625 14.539062 3.039062 14.46875 2.9375 14.40625 C 2.867188 14.363281 2.789062 14.328125 2.71875 14.28125 C 2.699219 14.269531 2.675781 14.261719 2.65625 14.25 C 2.476562 14.121094 2.3125 13.96875 2.15625 13.8125 C 2.003906 13.660156 1.875 13.488281 1.75 13.3125 C 1.738281 13.304688 1.730469 13.289062 1.71875 13.28125 C 1.265625 12.621094 1 11.808594 1 10.9375 C 1 10.25 1.175781 9.628906 1.46875 9.0625 C 2.308594 7.160156 4.222656 4.765625 5 2 Z M 5 2 "/>
</g>
</svg>
