<?xml version="1.0" encoding="UTF-8"?>
<svg xmlns="http://www.w3.org/2000/svg" xmlns:xlink="http://www.w3.org/1999/xlink" width="10pt" height="16pt" viewBox="0 0 10 16" version="1.1">
<g id="surface1">
<path style=" stroke:none;fill-rule:nonzero;fill:rgb(11.372549%,60%,95.294118%);fill-opacity:1;" d="M 5 0 C 4.027344 3.40625 1.644531 6.332031 0.59375 8.675781 C 0.226562 9.371094 0 10.15625 0 11 C 0 13.769531 2.230469 16 5 16 C 7.769531 16 10 13.769531 10 11 C 10 10.15625 9.773438 9.371094 9.40625 8.675781 C 8.355469 6.332031 5.972656 3.40625 5 0 Z M 7.28125 7.71875 C 8.320312 8.4375 9 9.636719 9 11 C 9 13.214844 7.214844 15 5 15 C 3.636719 15 2.4375 14.320312 1.71875 13.28125 C 2.363281 13.734375 3.148438 14 4 14 C 6.214844 14 8 12.214844 8 10 C 8 9.148438 7.734375 8.363281 7.28125 7.71875 Z M 7.28125 7.71875 "/>
</g>
</svg>
