<?xml version="1.0" encoding="UTF-8"?>
<svg xmlns="http://www.w3.org/2000/svg" xmlns:xlink="http://www.w3.org/1999/xlink" width="16pt" height="16pt" viewBox="0 0 16 16" version="1.1">
<g id="surface1">
<path style=" stroke:none;fill-rule:nonzero;fill:rgb(95.686275%,46.666667%,31.372549%);fill-opacity:1;" d="M 15 0 C 14.449219 0 14 0.449219 14 1 C 14 1.550781 14.449219 2 15 2 C 15.550781 2 16 1.550781 16 1 C 16 0.449219 15.550781 0 15 0 Z M 15 4 C 14.449219 4 14 4.449219 14 5 C 14 5.550781 14.449219 6 15 6 C 15.550781 6 16 5.550781 16 5 C 16 4.449219 15.550781 4 15 4 Z M 15 8 C 14.449219 8 14 8.449219 14 9 C 14 9.550781 14.449219 10 15 10 C 15.550781 10 16 9.550781 16 9 C 16 8.449219 15.550781 8 15 8 Z M 15 8 "/>
<path style=" stroke:none;fill-rule:nonzero;fill:rgb(30.196078%,30.196078%,30.196078%);fill-opacity:1;" d="M 7.5 0 L 7.5 1.8125 L 8.5 1.8125 L 8.5 0 Z M 2.6875 1.96875 L 1.96875 2.6875 L 3.25 4 L 3.96875 3.25 Z M 13.3125 1.96875 L 12.03125 3.25 L 12.75 4 L 14.03125 2.6875 Z M 8 3 C 5.238281 3 3 5.238281 3 8 C 3 10.761719 5.238281 13 8 13 C 10.761719 13 13 10.761719 13 8 C 13 5.238281 10.761719 3 8 3 Z M 0 7.5 L 0 8.5 L 1.8125 8.5 L 1.8125 7.5 Z M 3.25 12.03125 L 1.96875 13.3125 L 2.6875 14.03125 L 3.96875 12.75 Z M 12.75 12.03125 L 12.03125 12.75 L 13.3125 14.03125 L 14.03125 13.3125 Z M 7.5 14.1875 L 7.5 16 L 8.5 16 L 8.5 14.1875 Z M 7.5 14.1875 "/>
</g>
</svg>
