<?xml version="1.0" encoding="UTF-8"?>
<svg xmlns="http://www.w3.org/2000/svg" xmlns:xlink="http://www.w3.org/1999/xlink" width="16pt" height="16pt" viewBox="0 0 16 16" version="1.1">
<g id="surface1">
<path style=" stroke:none;fill-rule:nonzero;fill:rgb(30.196078%,30.196078%,30.196078%);fill-opacity:1;" d="M 0 0 L 0 16 L 16 16 L 16 0 Z M 15 1 L 15 15 L 1 15 L 4.46875 11.53125 C 3.5625 10.625 3 9.378906 3 8 C 3 5.238281 5.238281 3 8 3 C 9.378906 3 10.625 3.5625 11.53125 4.46875 Z M 11.53125 4.46875 L 4.46875 11.53125 C 5.375 12.4375 6.621094 13 8 13 C 10.761719 13 13 10.761719 13 8 C 13 6.621094 12.4375 5.375 11.53125 4.46875 Z M 11.53125 4.46875 "/>
</g>
</svg>
