<?xml version="1.0" encoding="UTF-8"?>
<svg xmlns="http://www.w3.org/2000/svg" xmlns:xlink="http://www.w3.org/1999/xlink" width="16pt" height="16pt" viewBox="0 0 16 16" version="1.1">
<g id="surface1">
<path style=" stroke:none;fill-rule:nonzero;fill:rgb(30.196078%,30.196078%,30.196078%);fill-opacity:1;" d="M 0 0 L 0 16 L 5 16 L 5 15 L 1 15 L 1 1 L 15 1 L 15 13 L 16 13 L 16 0 Z M 7 14 C 6.449219 14 6 14.449219 6 15 C 6 15.550781 6.449219 16 7 16 C 7.550781 16 8 15.550781 8 15 C 8 14.449219 7.550781 14 7 14 Z M 11 14 C 10.449219 14 10 14.449219 10 15 C 10 15.550781 10.449219 16 11 16 C 11.550781 16 12 15.550781 12 15 C 12 14.449219 11.550781 14 11 14 Z M 15 14 C 14.449219 14 14 14.449219 14 15 C 14 15.550781 14.449219 16 15 16 C 15.550781 16 16 15.550781 16 15 C 16 14.449219 15.550781 14 15 14 Z M 15 14 "/>
<path style=" stroke:none;fill-rule:nonzero;fill:rgb(11.372549%,60%,95.294118%);fill-opacity:1;" d="M 8 5 C 6.34375 5 5 6.34375 5 8 C 5 9.65625 6.34375 11 8 11 C 9.65625 11 11 9.65625 11 8 C 11 6.34375 9.65625 5 8 5 Z M 8 7 C 8.550781 7 9 7.449219 9 8 C 9 8.550781 8.550781 9 8 9 C 7.449219 9 7 8.550781 7 8 C 7 7.449219 7.449219 7 8 7 Z M 8 7 "/>
</g>
</svg>
