<?xml version="1.0" encoding="UTF-8"?>
<svg xmlns="http://www.w3.org/2000/svg" xmlns:xlink="http://www.w3.org/1999/xlink" width="16pt" height="16pt" viewBox="0 0 16 16" version="1.1">
<g id="surface1">
<path style=" stroke:none;fill-rule:nonzero;fill:rgb(70.196078%,70.196078%,70.196078%);fill-opacity:1;" d="M 0 0 L 1 1 L 15 1 L 15 11 L 11 7 L 9 9 L 16 16 L 16 0 Z M 4 2 C 3.445312 2 2.957031 2.230469 2.59375 2.59375 L 5.40625 5.40625 C 5.769531 5.042969 6 4.554688 6 4 C 6 2.890625 5.109375 2 4 2 Z M 4 2 "/>
<path style=" stroke:none;fill-rule:nonzero;fill:rgb(30.196078%,30.196078%,30.196078%);fill-opacity:1;" d="M 0 0 L 0 16 L 16 16 L 9 9 L 7 11 L 6 10 L 1 15 L 1 1 Z M 2.59375 2.59375 C 2.230469 2.957031 2 3.445312 2 4 C 2 5.109375 2.890625 6 4 6 C 4.554688 6 5.042969 5.769531 5.40625 5.40625 Z M 2.59375 2.59375 "/>
</g>
</svg>
