<?xml version="1.0" encoding="UTF-8"?>
<svg xmlns="http://www.w3.org/2000/svg" xmlns:xlink="http://www.w3.org/1999/xlink" width="16pt" height="16pt" viewBox="0 0 16 16" version="1.1">
<g id="surface1">
<path style=" stroke:none;fill-rule:nonzero;fill:rgb(95.686275%,46.666667%,31.372549%);fill-opacity:1;" d="M 15 8 C 14.449219 8 14 8.449219 14 9 C 14 9.550781 14.449219 10 15 10 C 15.550781 10 16 9.550781 16 9 C 16 8.449219 15.550781 8 15 8 Z M 15 11 C 14.449219 11 14 11.449219 14 12 C 14 12.550781 14.449219 13 15 13 C 15.550781 13 16 12.550781 16 12 C 16 11.449219 15.550781 11 15 11 Z M 15 14 C 14.449219 14 14 14.449219 14 15 C 14 15.550781 14.449219 16 15 16 C 15.550781 16 16 15.550781 16 15 C 16 14.449219 15.550781 14 15 14 Z M 15 14 "/>
<path style=" stroke:none;fill-rule:nonzero;fill:rgb(30.196078%,30.196078%,30.196078%);fill-opacity:1;" d="M 2 0 L 1 1 L 1 2.3125 L 5.03125 8 L 6.25 8 L 2 2 L 2 1 L 14 1 L 14 2 L 9.75 8 L 10.96875 8 L 15 2.3125 L 15 1 L 14 0 Z M 3 2 L 5 5 L 5 3 L 7 2 Z M 0 8 L 0 9 L 2 9 L 2 8 Z M 3 8 L 3 9 L 5 9 L 5 8 Z M 7 8 L 7 9 L 9 9 L 9 8 Z M 9 9 L 9 14.03125 L 7 12.53125 L 7 9 L 5.75 9 L 6 9.375 L 6 13.03125 L 10 16 L 10 9.375 L 10.25 9 Z M 11 8 L 11 9 L 13 9 L 13 8 Z M 11 8 "/>
</g>
</svg>
