<?xml version="1.0" encoding="UTF-8"?>
<svg xmlns="http://www.w3.org/2000/svg" xmlns:xlink="http://www.w3.org/1999/xlink" width="16pt" height="16pt" viewBox="0 0 16 16" version="1.1">
<g id="surface1">
<path style=" stroke:none;fill-rule:nonzero;fill:rgb(30.196078%,30.196078%,30.196078%);fill-opacity:1;" d="M 0 0 L 0 16 L 16 16 L 16 0 Z M 1 1 L 15 1 L 15 15 L 1 15 Z M 3 3.09375 L 3 13.09375 L 13 13.09375 L 13 3.09375 Z M 4 4.09375 L 6 4.09375 L 6 6.09375 L 4 6.09375 Z M 7 4.09375 L 9 4.09375 L 9 6.09375 L 7 6.09375 Z M 10 4.09375 L 12 4.09375 L 12 6.09375 L 10 6.09375 Z M 4 7.09375 L 6 7.09375 L 6 9.09375 L 4 9.09375 Z M 7 7.09375 L 9 7.09375 L 9 9.09375 L 7 9.09375 Z M 10 7.09375 L 12 7.09375 L 12 9.09375 L 10 9.09375 Z M 4 10.09375 L 6 10.09375 L 6 12.09375 L 4 12.09375 Z M 7 10.09375 L 9 10.09375 L 9 12.09375 L 7 12.09375 Z M 10 10.09375 L 12 10.09375 L 12 12.09375 L 10 12.09375 Z M 10 10.09375 "/>
</g>
</svg>
