<?xml version="1.0" encoding="UTF-8"?>
<svg xmlns="http://www.w3.org/2000/svg" xmlns:xlink="http://www.w3.org/1999/xlink" width="16pt" height="16pt" viewBox="0 0 16 16" version="1.1">
<g id="surface1">
<path style=" stroke:none;fill-rule:nonzero;fill:rgb(30.196078%,30.196078%,30.196078%);fill-opacity:1;" d="M 0 0 L 0 16 L 16 16 L 16 0 Z M 1 1 L 15 1 L 15 15 L 1 15 Z M 5 5 L 2 8 L 5 11 L 5 9 L 9 9 L 9 7 L 5 7 Z M 5 5 "/>
<path style=" stroke:none;fill-rule:nonzero;fill:rgb(11.372549%,60%,95.294118%);fill-opacity:1;" d="M 11 5 C 9.34375 5 8 6.34375 8 8 C 8 9.65625 9.34375 11 11 11 C 12.65625 11 14 9.65625 14 8 C 14 6.34375 12.65625 5 11 5 Z M 11 7 C 11.550781 7 12 7.449219 12 8 C 12 8.550781 11.550781 9 11 9 C 10.449219 9 10 8.550781 10 8 C 10 7.449219 10.449219 7 11 7 Z M 11 7 "/>
</g>
</svg>
