<?xml version="1.0" encoding="UTF-8"?>
<svg xmlns="http://www.w3.org/2000/svg" xmlns:xlink="http://www.w3.org/1999/xlink" width="16pt" height="16pt" viewBox="0 0 16 16" version="1.1">
<g id="surface1">
<path style=" stroke:none;fill-rule:nonzero;fill:rgb(70.196078%,70.196078%,70.196078%);fill-opacity:1;" d="M 14.03125 1.429688 L 13.257812 2.0625 C 14.394531 3.832031 15 5.894531 15 8 C 14.996094 10.105469 14.386719 12.164062 13.25 13.933594 L 14.03125 14.574219 C 15.316406 12.621094 16 10.335938 16 8 C 15.996094 5.664062 15.3125 3.382812 14.03125 1.429688 Z M 14.03125 1.429688 "/>
<path style=" stroke:none;fill-rule:nonzero;fill:rgb(30.196078%,30.196078%,30.196078%);fill-opacity:1;" d="M 7.988281 0 L 3 3.996094 L 3 12.003906 L 7.988281 16 L 9 16 L 9 0 Z M 8 1.273438 L 8 14.730469 L 4 11.523438 L 4 4.476562 Z M 11.6875 3.34375 L 10.90625 3.984375 C 11.621094 5.203125 11.996094 6.589844 12 8 C 11.996094 9.410156 11.621094 10.796875 10.910156 12.015625 L 11.691406 12.65625 C 12.542969 11.253906 12.996094 9.644531 13 8 C 12.996094 6.359375 12.542969 4.75 11.6875 3.34375 Z M 0 5 L 0 11 L 2 11 L 2 5 Z M 0 5 "/>
</g>
</svg>
