<?xml version="1.0" encoding="UTF-8"?>
<svg xmlns="http://www.w3.org/2000/svg" xmlns:xlink="http://www.w3.org/1999/xlink" width="16pt" height="16pt" viewBox="0 0 16 16" version="1.1">
<g id="surface1">
<path style=" stroke:none;fill-rule:nonzero;fill:rgb(30.196078%,30.196078%,30.196078%);fill-opacity:1;" d="M 0 0 L 0 16 L 16 16 L 16 0 Z M 1 1 L 15 1 L 15 15 L 1 15 Z M 4.5 2 C 3.113281 2 2 3.113281 2 4.5 C 2 5.886719 3.113281 7 4.5 7 C 5.886719 7 7 5.886719 7 4.5 C 7 3.113281 5.886719 2 4.5 2 Z M 4.5 3 C 5.332031 3 6 3.667969 6 4.5 C 6 5.332031 5.332031 6 4.5 6 C 3.667969 6 3 5.332031 3 4.5 C 3 3.667969 3.667969 3 4.5 3 Z M 10.996094 7 L 7.648438 10.34375 L 6.308594 9 L 6.300781 9.007812 L 6.292969 9 L 2 13.292969 L 2.707031 14 L 6.296875 10.40625 L 7.648438 11.757812 L 11 8.40625 L 13.292969 10.699219 L 14 9.992188 L 11.007812 7 L 11 7.007812 Z M 10.996094 7 "/>
</g>
</svg>
