<?xml version="1.0" encoding="UTF-8"?>
<svg xmlns="http://www.w3.org/2000/svg" xmlns:xlink="http://www.w3.org/1999/xlink" width="17pt" height="17pt" viewBox="0 0 17 17" version="1.1">
<g id="surface1">
<path style=" stroke:none;fill-rule:nonzero;fill:rgb(30.196078%,30.196078%,30.196078%);fill-opacity:1;" d="M 14.5 0 C 13.667969 0 13 0.667969 13 1.5 L 13 3 L 12 3 L 12 6 L 17 6 L 17 3 L 16 3 L 16 1.5 C 16 0.667969 15.332031 0 14.5 0 Z M 0 1 L 0 2 L 1 2 L 1 1 Z M 5 1 L 5 2 L 6 2 L 6 1 Z M 10 1 L 10 2 L 11 2 L 11 1 Z M 14.5 1 C 14.777344 1 15 1.222656 15 1.5 L 15 3 L 14 3 L 14 1.5 C 14 1.222656 14.222656 1 14.5 1 Z M 0 4 L 0 5 L 1 5 L 1 4 Z M 5 4 L 5 5 L 6 5 L 6 4 Z M 10 4 L 10 5 L 11 5 L 11 4 Z M 0 7 L 0 8 L 1 8 L 1 7 Z M 5 7 L 5 8 L 6 8 L 6 7 Z M 10 7 L 10 8 L 11 8 L 11 7 Z M 15 7 L 15 8 L 16 8 L 16 7 Z M 0 10 L 0 11 L 1 11 L 1 10 Z M 5 10 L 5 11 L 6 11 L 6 10 Z M 10 10 L 10 11 L 11 11 L 11 10 Z M 15 10 L 15 11 L 16 11 L 16 10 Z M 0 13 L 0 14 L 1 14 L 1 13 Z M 5 13 L 5 14 L 6 14 L 6 13 Z M 10 13 L 10 14 L 11 14 L 11 13 Z M 15 13 L 15 14 L 16 14 L 16 13 Z M 0 16 L 0 17 L 1 17 L 1 16 Z M 5 16 L 5 17 L 6 17 L 6 16 Z M 10 16 L 10 17 L 11 17 L 11 16 Z M 15 16 L 15 17 L 16 17 L 16 16 Z M 15 16 "/>
</g>
</svg>
