<?xml version="1.0" encoding="UTF-8"?>
<svg xmlns="http://www.w3.org/2000/svg" xmlns:xlink="http://www.w3.org/1999/xlink" width="16pt" height="16pt" viewBox="0 0 16 16" version="1.1">
<g id="surface1">
<path style=" stroke:none;fill-rule:nonzero;fill:rgb(99.215686%,73.72549%,29.411765%);fill-opacity:1;" d="M 8 0 L 8 8 L 16 8 L 16 0 Z M 8 0 "/>
<path style=" stroke:none;fill-rule:nonzero;fill:rgb(11.372549%,60%,95.294118%);fill-opacity:1;" d="M 0 0 L 0 8 L 8 8 L 8 0 Z M 0 0 "/>
<path style=" stroke:none;fill-rule:nonzero;fill:rgb(85.490196%,26.666667%,32.54902%);fill-opacity:1;" d="M 8 8 L 8 16 L 16 16 L 16 8 Z M 8 8 "/>
<path style=" stroke:none;fill-rule:nonzero;fill:rgb(18.039216%,80%,44.313725%);fill-opacity:1;" d="M 0 8 L 0 16 L 8 16 L 8 8 Z M 0 8 "/>
<path style=" stroke:none;fill-rule:nonzero;fill:rgb(100%,100%,100%);fill-opacity:0.4;" d="M 0 0 L 0 1 L 8 1 L 8 0 Z M 8 15 L 8 16 L 16 16 L 16 15 Z M 8 15 "/>
<path style=" stroke:none;fill-rule:nonzero;fill:rgb(18.039216%,19.215686%,19.607843%);fill-opacity:0.301961;" d="M 8 0 L 8 1 L 16 1 L 16 0 Z M 0 15 L 0 16 L 8 16 L 8 15 Z M 0 15 "/>
</g>
</svg>
