<?xml version="1.0" encoding="UTF-8"?>
<svg xmlns="http://www.w3.org/2000/svg" xmlns:xlink="http://www.w3.org/1999/xlink" width="16pt" height="16pt" viewBox="0 0 16 16" version="1.1">
<g id="surface1">
<path style=" stroke:none;fill-rule:nonzero;fill:rgb(30.196078%,30.196078%,30.196078%);fill-opacity:1;" d="M 0 0 L 0 1 L 1 1 L 1 0 Z M 5 0 L 5 1 L 6 1 L 6 0 Z M 10 0 L 10 1 L 11 1 L 11 0 Z M 15 0 L 15 1 L 16 1 L 16 0 Z M 0 3 L 0 4 L 1 4 L 1 3 Z M 5 3 L 5 4 L 6 4 L 6 3 Z M 10 3 L 10 4 L 11 4 L 11 3 Z M 15 3 L 15 4 L 16 4 L 16 3 Z M 0 6 L 0 7 L 1 7 L 1 6 Z M 5 6 L 5 7 L 6 7 L 6 6 Z M 10 6 L 10 7 L 11 7 L 11 6 Z M 15 6 L 15 7 L 16 7 L 16 6 Z M 0 9 L 0 10 L 1 10 L 1 9 Z M 5 9 L 5 10 L 6 10 L 6 9 Z M 10 9 L 10 10 L 11 10 L 11 9 Z M 15 9 L 15 10 L 16 10 L 16 9 Z M 0 12 L 0 13 L 1 13 L 1 12 Z M 5 12 L 5 13 L 6 13 L 6 12 Z M 10 12 L 10 13 L 11 13 L 11 12 Z M 15 12 L 15 13 L 16 13 L 16 12 Z M 0 15 L 0 16 L 1 16 L 1 15 Z M 5 15 L 5 16 L 6 16 L 6 15 Z M 10 15 L 10 16 L 11 16 L 11 15 Z M 15 15 L 15 16 L 16 16 L 16 15 Z M 15 15 "/>
</g>
</svg>
