<?xml version="1.0" encoding="UTF-8"?>
<svg xmlns="http://www.w3.org/2000/svg" xmlns:xlink="http://www.w3.org/1999/xlink" width="18.5pt" height="16pt" viewBox="0 0 18.5 16" version="1.1">
<g id="surface1">
<path style=" stroke:none;fill-rule:nonzero;fill:rgb(30.196078%,30.196078%,30.196078%);fill-opacity:1;" d="M 0 0 L 0 16 L 2 16 L 2 9 L 9 9 L 9 16 L 11 16 L 11 0 L 9 0 L 9 7 L 2 7 L 2 0 Z M 0 0 "/>
<path style=" stroke:none;fill-rule:nonzero;fill:rgb(11.372549%,60%,95.294118%);fill-opacity:1;" d="M 15.796875 8 C 15.425781 8 15.089844 8.039062 14.792969 8.113281 C 14.492188 8.183594 14.210938 8.289062 13.957031 8.425781 C 13.707031 8.5625 13.386719 8.796875 13 9.125 L 13.902344 10.203125 C 14.210938 9.941406 14.507812 9.742188 14.796875 9.601562 C 15.082031 9.460938 15.375 9.390625 15.679688 9.390625 C 15.96875 9.390625 16.199219 9.46875 16.371094 9.625 C 16.546875 9.777344 16.636719 10.011719 16.636719 10.328125 C 16.636719 10.542969 16.59375 10.746094 16.515625 10.945312 C 16.4375 11.144531 16.308594 11.359375 16.128906 11.59375 C 15.953125 11.820312 15.570312 12.238281 14.988281 12.839844 L 13.019531 14.839844 L 13.019531 16 L 18.5 16 L 18.5 14.597656 L 15.085938 14.597656 L 15.085938 14.519531 L 16.09375 13.566406 C 16.765625 12.949219 17.234375 12.472656 17.5 12.136719 C 17.765625 11.800781 17.960938 11.480469 18.089844 11.160156 C 18.214844 10.84375 18.28125 10.5 18.28125 10.136719 C 18.28125 9.71875 18.175781 9.347656 17.96875 9.027344 C 17.761719 8.703125 17.472656 8.449219 17.09375 8.269531 C 16.71875 8.089844 16.289062 8 15.796875 8 Z M 15.796875 8 "/>
</g>
</svg>
