<?xml version="1.0" encoding="UTF-8"?>
<svg xmlns="http://www.w3.org/2000/svg" xmlns:xlink="http://www.w3.org/1999/xlink" width="18.5pt" height="16pt" viewBox="0 0 18.5 16" version="1.1">
<g id="surface1">
<path style=" stroke:none;fill-rule:nonzero;fill:rgb(30.196078%,30.196078%,30.196078%);fill-opacity:1;" d="M 0 0 L 0 16 L 2 16 L 2 9 L 9 9 L 9 16 L 11 16 L 11 0 L 9 0 L 9 7 L 2 7 L 2 0 Z M 0 0 "/>
<path style=" stroke:none;fill-rule:nonzero;fill:rgb(11.372549%,60%,95.294118%);fill-opacity:1;" d="M 15.605469 8 C 14.601562 8 13.738281 8.253906 13.011719 8.765625 L 13.785156 9.902344 C 14.117188 9.691406 14.417969 9.542969 14.6875 9.457031 C 14.957031 9.375 15.222656 9.328125 15.484375 9.328125 C 16.238281 9.328125 16.613281 9.625 16.613281 10.214844 C 16.613281 10.597656 16.472656 10.871094 16.1875 11.03125 C 15.902344 11.183594 15.453125 11.265625 14.839844 11.265625 L 14.222656 11.265625 L 14.222656 12.523438 L 14.828125 12.523438 C 15.492188 12.523438 15.980469 12.601562 16.28125 12.753906 C 16.585938 12.90625 16.738281 13.164062 16.738281 13.53125 C 16.738281 13.9375 16.605469 14.234375 16.34375 14.421875 C 16.078125 14.605469 15.667969 14.695312 15.113281 14.695312 C 14.75 14.695312 14.386719 14.648438 14.015625 14.550781 C 13.644531 14.457031 13.308594 14.332031 13 14.179688 L 13 15.578125 C 13.667969 15.859375 14.429688 16 15.292969 16 C 16.320312 16 17.113281 15.792969 17.667969 15.375 C 18.222656 14.957031 18.5 14.375 18.5 13.625 C 18.5 13.113281 18.335938 12.703125 18.003906 12.402344 C 17.675781 12.097656 17.191406 11.902344 16.546875 11.828125 L 16.546875 11.796875 C 17.09375 11.667969 17.515625 11.433594 17.8125 11.09375 C 18.113281 10.75 18.265625 10.335938 18.265625 9.851562 C 18.265625 9.269531 18.027344 8.816406 17.546875 8.488281 C 17.074219 8.164062 16.425781 8 15.605469 8 Z M 15.605469 8 "/>
</g>
</svg>
