<?xml version="1.0" encoding="UTF-8"?>
<svg xmlns="http://www.w3.org/2000/svg" xmlns:xlink="http://www.w3.org/1999/xlink" width="19pt" height="16pt" viewBox="0 0 19 16" version="1.1">
<g id="surface1">
<path style=" stroke:none;fill-rule:nonzero;fill:rgb(30.196078%,30.196078%,30.196078%);fill-opacity:1;" d="M 0 0 L 0 16 L 2 16 L 2 9 L 9 9 L 9 16 L 11 16 L 11 0 L 9 0 L 9 7 L 2 7 L 2 0 Z M 0 0 "/>
<path style=" stroke:none;fill-rule:nonzero;fill:rgb(11.372549%,60%,95.294118%);fill-opacity:1;" d="M 16.488281 7.96875 L 13 13.136719 L 13 14.3125 L 16.394531 14.3125 L 16.394531 15.96875 L 18.042969 15.96875 L 18.042969 14.3125 L 19 14.3125 L 19 13 L 18.042969 13 L 18.042969 7.96875 Z M 16.421875 9.90625 L 16.46875 9.90625 C 16.457031 9.976562 16.441406 10.226562 16.421875 10.65625 C 16.40625 11.089844 16.394531 11.417969 16.394531 11.640625 L 16.394531 13 L 14.480469 13 L 15.9375 10.78125 C 16.128906 10.5 16.289062 10.207031 16.421875 9.90625 Z M 16.421875 9.90625 "/>
</g>
</svg>
