<?xml version="1.0" encoding="UTF-8"?>
<svg xmlns="http://www.w3.org/2000/svg" xmlns:xlink="http://www.w3.org/1999/xlink" width="18.5pt" height="16pt" viewBox="0 0 18.5 16" version="1.1">
<g id="surface1">
<path style=" stroke:none;fill-rule:nonzero;fill:rgb(30.196078%,30.196078%,30.196078%);fill-opacity:1;" d="M 0 0 L 0 16 L 2 16 L 2 9 L 9 9 L 9 16 L 11 16 L 11 0 L 9 0 L 9 7 L 2 7 L 2 0 Z M 0 0 "/>
<path style=" stroke:none;fill-rule:nonzero;fill:rgb(11.372549%,60%,95.294118%);fill-opacity:1;" d="M 16.90625 8 C 15.605469 8 14.628906 8.375 13.972656 9.128906 C 13.324219 9.886719 13 11.035156 13 12.578125 C 13 13.300781 13.113281 13.917969 13.34375 14.433594 C 13.582031 14.945312 13.910156 15.332031 14.339844 15.597656 C 14.769531 15.867188 15.269531 16 15.84375 16 C 16.675781 16 17.328125 15.757812 17.796875 15.273438 C 18.265625 14.785156 18.5 14.128906 18.5 13.296875 C 18.5 12.523438 18.300781 11.917969 17.90625 11.480469 C 17.515625 11.042969 16.96875 10.824219 16.269531 10.824219 C 15.496094 10.824219 14.933594 11.125 14.582031 11.730469 L 14.515625 11.730469 C 14.546875 11.113281 14.652344 10.640625 14.828125 10.304688 C 15.003906 9.96875 15.273438 9.71875 15.625 9.546875 C 15.984375 9.375 16.449219 9.292969 17.015625 9.292969 C 17.324219 9.292969 17.636719 9.328125 17.953125 9.398438 L 17.953125 8.078125 C 17.699219 8.027344 17.351562 8 16.90625 8 Z M 15.84375 12.089844 C 16.199219 12.089844 16.464844 12.199219 16.640625 12.421875 C 16.816406 12.636719 16.90625 12.9375 16.90625 13.316406 C 16.90625 13.753906 16.8125 14.089844 16.625 14.328125 C 16.4375 14.566406 16.167969 14.683594 15.8125 14.683594 C 15.472656 14.683594 15.191406 14.535156 14.96875 14.246094 C 14.746094 13.953125 14.636719 13.59375 14.636719 13.171875 C 14.636719 12.882812 14.753906 12.632812 14.988281 12.414062 C 15.226562 12.195312 15.511719 12.089844 15.84375 12.089844 Z M 15.84375 12.089844 "/>
</g>
</svg>
