<?xml version="1.0" encoding="UTF-8"?>
<svg xmlns="http://www.w3.org/2000/svg" xmlns:xlink="http://www.w3.org/1999/xlink" width="16pt" height="16pt" viewBox="0 0 16 16" version="1.1">
<g id="surface1">
<path style=" stroke:none;fill-rule:nonzero;fill:rgb(30.196078%,30.196078%,30.196078%);fill-opacity:1;" d="M 6 0 L 6 6 L 9 6 C 10.109375 6 11 5.109375 11 4 C 11 3.1875 10.503906 2.503906 9.8125 2.1875 C 9.917969 1.980469 10 1.75 10 1.5 C 10 0.667969 9.332031 0 8.5 0 Z M 7 1 L 8.5 1 C 8.777344 1 9 1.222656 9 1.5 C 9 1.777344 8.777344 2 8.5 2 L 7 2 Z M 7 3 L 9 3 C 9.554688 3 10 3.445312 10 4 C 10 4.554688 9.554688 5 9 5 L 7 5 Z M 3 10 C 1.34375 10 0 11.34375 0 13 C 0 14.65625 1.34375 16 3 16 L 4 16 L 4 15 L 3 15 C 1.894531 15 1 14.105469 1 13 C 1 11.894531 1.894531 11 3 11 L 4 11 L 4 10 Z M 6 10 L 6 16 L 9 16 C 10.109375 16 11 15.109375 11 14 L 11 12 C 11 10.890625 10.109375 10 9 10 Z M 7 11 L 9 11 C 9.554688 11 10 11.445312 10 12 L 10 14 C 10 14.554688 9.554688 15 9 15 L 7 15 Z M 7 11 "/>
<path style=" stroke:none;fill-rule:nonzero;fill:rgb(11.372549%,60%,95.294118%);fill-opacity:1;" d="M 12 3 L 12 4 L 16 4 L 16 3 Z M 12 3 "/>
</g>
</svg>
