<?xml version="1.0" encoding="UTF-8"?>
<svg xmlns="http://www.w3.org/2000/svg" xmlns:xlink="http://www.w3.org/1999/xlink" width="16pt" height="11.999987pt" viewBox="0 0 16 11.999987" version="1.1">
<defs>
<linearGradient id="linear0" gradientUnits="userSpaceOnUse" x1="3" y1="0" x2="15" y2="0" gradientTransform="matrix(1,0,0,1,-3,-1035.362213)">
<stop offset="0" style="stop-color:rgb(70.196078%,70.196078%,70.196078%);stop-opacity:1;"/>
<stop offset="1" style="stop-color:rgb(30.196078%,30.196078%,30.196078%);stop-opacity:1;"/>
</linearGradient>
<filter id="alpha" filterUnits="objectBoundingBox" x="0%" y="0%" width="100%" height="100%">
  <feColorMatrix type="matrix" in="SourceGraphic" values="0 0 0 0 1 0 0 0 0 1 0 0 0 0 1 0 0 0 1 0"/>
</filter>
<mask id="mask0">
  <g filter="url(#alpha)">
<rect x="0" y="0" width="16" height="11.999987" style="fill:rgb(0%,0%,0%);fill-opacity:0.988235;stroke:none;"/>
  </g>
</mask>
<clipPath id="clip1">
  <rect width="24" height="25"/>
</clipPath>
<g id="surface6" clip-path="url(#clip1)">
<path style=" stroke:none;fill-rule:nonzero;fill:rgb(30.196078%,30.196078%,30.196078%);fill-opacity:1;" d="M 20 11 C 20 13.210938 16.417969 15 12 15 C 7.582031 15 4 13.210938 4 11 C 4 8.789062 7.582031 7 12 7 C 16.417969 7 20 8.789062 20 11 "/>
</g>
</defs>
<g id="surface1">
<path style=" stroke:none;fill-rule:evenodd;fill:url(#linear0);" d="M 0.03125 4.40625 C 0.246094 8.632812 3.71875 12 8 12 C 12.28125 12 15.753906 8.632812 15.96875 4.40625 C 15.558594 6.421875 12.140625 8 8 8 C 3.859375 8 0.441406 6.421875 0.03125 4.40625 "/>
<use xlink:href="#surface6" transform="matrix(1,0,0,1,-4,-7)" mask="url(#mask0)"/>
</g>
</svg>
