<?xml version="1.0" encoding="UTF-8"?>
<svg xmlns="http://www.w3.org/2000/svg" xmlns:xlink="http://www.w3.org/1999/xlink" width="17pt" height="17pt" viewBox="0 0 17 17" version="1.1">
<g id="surface1">
<path style=" stroke:none;fill-rule:nonzero;fill:rgb(30.196078%,30.196078%,30.196078%);fill-opacity:1;" d="M 2 0 L 2 1 L 3 1 L 3 0 Z M 14.5 0 C 13.667969 0 13 0.667969 13 1.5 L 13 3 L 12 3 L 12 6 L 17 6 L 17 3 L 16 3 L 16 1.5 C 16 0.667969 15.332031 0 14.5 0 Z M 14.5 1 C 14.777344 1 15 1.222656 15 1.5 L 15 3 L 14 3 L 14 1.5 C 14 1.222656 14.222656 1 14.5 1 Z M 2 2 L 2 3 L 3 3 L 3 2 Z M 2 4 L 2 5 L 3 5 L 3 4 Z M 2 6 L 2 7 L 3 7 L 3 6 Z M 2 8 L 2 9 L 3 9 L 3 8 Z M 2 10 L 2 11 L 3 11 L 3 10 Z M 2 12 L 2 13 L 3 13 L 3 12 Z M 0 14 L 0 15 L 1 15 L 1 14 Z M 2 14 L 2 15 L 3 15 L 3 14 Z M 4 14 L 4 15 L 5 15 L 5 14 Z M 6 14 L 6 15 L 7 15 L 7 14 Z M 8 14 L 8 15 L 9 15 L 9 14 Z M 10 14 L 10 15 L 11 15 L 11 14 Z M 12 14 L 12 15 L 13 15 L 13 14 Z M 14 14 L 14 15 L 15 15 L 15 14 Z M 16 14 L 16 15 L 17 15 L 17 14 Z M 2 16 L 2 17 L 3 17 L 3 16 Z M 2 16 "/>
</g>
</svg>
