<?xml version="1.0" encoding="UTF-8"?>
<svg xmlns="http://www.w3.org/2000/svg" xmlns:xlink="http://www.w3.org/1999/xlink" width="15pt" height="17pt" viewBox="0 0 15 17" version="1.1">
<g id="surface1">
<path style=" stroke:none;fill-rule:nonzero;fill:rgb(11.372549%,60%,95.294118%);fill-opacity:1;" d="M 0 0 L 0 17 L 6 17 L 6 16 L 1 16 L 1 1 L 13 1 L 13 8 L 14 8 L 14 0 Z M 2 2 L 2 8 L 12 8 L 12 2 Z M 3 3 L 11 3 L 11 7 L 3 7 Z M 2 9 L 2 15 L 5.585938 15 L 6.585938 14 L 3 14 L 3 10 L 10.585938 10 L 11.585938 9 Z M 13 9 L 7 15 L 7 17 L 9 17 L 15 11 Z M 12.71875 10.6875 L 13.28125 11.28125 L 8.3125 16.28125 L 7.71875 15.6875 Z M 12.71875 10.6875 "/>
</g>
</svg>
