<?xml version="1.0" encoding="UTF-8"?>
<svg xmlns="http://www.w3.org/2000/svg" xmlns:xlink="http://www.w3.org/1999/xlink" width="18pt" height="16pt" viewBox="0 0 18 16" version="1.1">
<g id="surface1">
<path style=" stroke:none;fill-rule:nonzero;fill:rgb(30.196078%,30.196078%,30.196078%);fill-opacity:1;" d="M 0 0 L 0 16 L 2 16 L 2 9 L 9 9 L 9 16 L 11 16 L 11 0 L 9 0 L 9 7 L 2 7 L 2 0 Z M 0 0 "/>
<path style=" stroke:none;fill-rule:nonzero;fill:rgb(11.372549%,60%,95.294118%);fill-opacity:1;" d="M 13.429688 8 L 13.148438 12.019531 L 13.777344 12.375 C 13.914062 12.332031 14.09375 12.296875 14.3125 12.261719 C 14.527344 12.21875 14.726562 12.199219 14.90625 12.199219 C 15.90625 12.199219 16.40625 12.597656 16.40625 13.390625 C 16.40625 14.226562 15.925781 14.644531 14.960938 14.644531 C 14.640625 14.644531 14.300781 14.597656 13.941406 14.503906 C 13.582031 14.40625 13.269531 14.285156 13 14.132812 L 13 15.574219 C 13.511719 15.859375 14.183594 16 15.015625 16 C 15.972656 16 16.710938 15.761719 17.226562 15.285156 C 17.742188 14.8125 18 14.132812 18 13.25 C 18 12.507812 17.785156 11.921875 17.355469 11.492188 C 16.929688 11.0625 16.355469 10.847656 15.628906 10.847656 C 15.324219 10.847656 15.066406 10.875 14.859375 10.925781 L 14.675781 10.964844 L 14.816406 9.414062 L 17.488281 9.414062 L 17.488281 8 Z M 13.429688 8 "/>
</g>
</svg>
