<?xml version="1.0" encoding="UTF-8"?>
<svg xmlns="http://www.w3.org/2000/svg" xmlns:xlink="http://www.w3.org/1999/xlink" width="14pt" height="16pt" viewBox="0 0 14 16" version="1.1">
<g id="surface1">
<path style=" stroke:none;fill-rule:nonzero;fill:rgb(95.686275%,46.666667%,31.372549%);fill-opacity:1;" d="M 1 6 C 0.449219 6 0 6.449219 0 7 C 0 7.550781 0.449219 8 1 8 C 1.550781 8 2 7.550781 2 7 C 2 6.449219 1.550781 6 1 6 Z M 1 10 C 0.449219 10 0 10.449219 0 11 C 0 11.550781 0.449219 12 1 12 C 1.550781 12 2 11.550781 2 11 C 2 10.449219 1.550781 10 1 10 Z M 1 14 C 0.449219 14 0 14.449219 0 15 C 0 15.550781 0.449219 16 1 16 C 1.550781 16 2 15.550781 2 15 C 2 14.449219 1.550781 14 1 14 Z M 1 14 "/>
<path style=" stroke:none;fill-rule:nonzero;fill:rgb(30.196078%,30.196078%,30.196078%);fill-opacity:1;" d="M 0 0 L 0 5 L 1 5 L 1 1 L 13 1 L 13 12 L 7.90625 12 L 10.125 9.71875 L 9.40625 9 L 6.21875 12.28125 L 6 12.5 L 6.21875 12.71875 L 9.40625 16 L 10.125 15.28125 L 7.90625 13 L 14 13 L 14 0 Z M 3 15 L 3 16 L 5 16 L 5 15 Z M 3 15 "/>
</g>
</svg>
