<?xml version="1.0" encoding="UTF-8"?>
<svg xmlns="http://www.w3.org/2000/svg" xmlns:xlink="http://www.w3.org/1999/xlink" width="15pt" height="16pt" viewBox="0 0 15 16" version="1.1">
<g id="surface1">
<path style=" stroke:none;fill-rule:nonzero;fill:rgb(30.196078%,30.196078%,30.196078%);fill-opacity:1;" d="M 2 1 L 2 13 L 1 13 L 1 14 L 2 14 L 2 15 L 3 15 L 3 14 L 15 14 L 15 13 L 13 13 L 13 6 L 10 6 L 10 13 L 8 13 L 8 3 L 5 3 L 5 13 L 3 13 L 3 1 Z M 2 1 "/>
<path style=" stroke:none;fill-rule:nonzero;fill:rgb(11.372549%,60%,95.294118%);fill-opacity:1;" d="M 4 0 L 4 1 L 14 1 L 14 0 Z M 0 2 L 0 12 L 1 12 L 1 2 Z M 4 15 L 4 16 L 14 16 L 14 15 Z M 4 15 "/>
</g>
</svg>
