<?xml version="1.0" encoding="UTF-8"?>
<svg xmlns="http://www.w3.org/2000/svg" xmlns:xlink="http://www.w3.org/1999/xlink" width="16pt" height="16pt" viewBox="0 0 16 16" version="1.1">
<g id="surface1">
<path style=" stroke:none;fill-rule:nonzero;fill:rgb(30.196078%,30.196078%,30.196078%);fill-opacity:1;" d="M 0 0 L 0 16 L 12 16 L 9 13 L 12 10 L 14 10 L 11 7 L 7 11 L 6 10 L 1 15 L 1 1 L 15 1 L 15 9 L 16 9 L 16 0 Z M 4 2 C 2.890625 2 2 2.890625 2 4 C 2 5.109375 2.890625 6 4 6 C 5.109375 6 6 5.109375 6 4 C 6 2.890625 5.109375 2 4 2 Z M 4 2 "/>
<path style=" stroke:none;fill-rule:nonzero;fill:rgb(11.372549%,60%,95.294118%);fill-opacity:1;" d="M 13 11 L 13 13 L 11 13 L 11 14 L 13 14 L 13 16 L 14 16 L 14 14 L 16 14 L 16 13 L 14 13 L 14 11 Z M 13 11 "/>
</g>
</svg>
