<?xml version="1.0" encoding="UTF-8"?>
<svg xmlns="http://www.w3.org/2000/svg" xmlns:xlink="http://www.w3.org/1999/xlink" width="16pt" height="16pt" viewBox="0 0 16 16" version="1.1">
<g id="surface1">
<path style=" stroke:none;fill-rule:nonzero;fill:rgb(30.196078%,30.196078%,30.196078%);fill-opacity:1;" d="M 6 0 L 6 1 L 10 1 L 10 3 L 6 3 L 6 4 L 10 4 L 10 6 L 6 6 L 6 7 L 10 7 L 10 9 L 6 9 L 6 10 L 16 10 L 16 0 Z M 11 1 L 15 1 L 15 3 L 11 3 Z M 11 4 L 15 4 L 15 6 L 11 6 Z M 11 7 L 15 7 L 15 9 L 11 9 Z M 13 11 L 13 13 L 11 13 L 11 14 L 13 14 L 13 16 L 14 16 L 14 14 L 16 14 L 16 13 L 14 13 L 14 11 Z M 6 12 L 6 13 L 10 13 L 10 12 Z M 6 15 L 6 16 L 10 16 L 10 15 Z M 6 15 "/>
<path style=" stroke:none;fill-rule:nonzero;fill:rgb(11.372549%,60%,95.294118%);fill-opacity:1;" d="M 0 0 L 0 16 L 6 16 L 6 0 Z M 1 1 L 4.28125 1 L 1 4.28125 Z M 5 1.71875 L 5 4.28125 L 1 8.28125 L 1 5.71875 Z M 5 5.71875 L 5 8.28125 L 1 12.28125 L 1 9.71875 Z M 5 9.71875 L 5 12.28125 L 2.28125 15 L 1 15 L 1 13.71875 Z M 5 13.71875 L 5 15 L 3.71875 15 Z M 5 13.71875 "/>
</g>
</svg>
