<?xml version="1.0" encoding="UTF-8"?>
<svg xmlns="http://www.w3.org/2000/svg" xmlns:xlink="http://www.w3.org/1999/xlink" width="16pt" height="16pt" viewBox="0 0 16 16" version="1.1">
<g id="surface1">
<path style=" stroke:none;fill-rule:nonzero;fill:rgb(30.196078%,30.196078%,30.196078%);fill-opacity:1;" d="M 8 0 L 8 0.00390625 L 3.558594 7.695312 L 2.003906 5 L 0 5 L 0 6 L 1.429688 6 L 3.5625 9.691406 L 4.136719 8.695312 L 8.578125 1 L 15 1 L 15 2 L 16 2 L 16 0 Z M 11 3 C 9.339844 3 8 4.339844 8 6 C 8 7.660156 9.339844 9 11 9 C 11.773438 9 12.46875 8.703125 13 8.222656 L 13 9 L 14 9 L 14 3 L 13 3 L 13 3.773438 C 12.46875 3.296875 11.773438 3 11 3 Z M 11 4 C 12.109375 4 13 4.890625 13 6 C 13 7.109375 12.109375 8 11 8 C 9.890625 8 9 7.109375 9 6 C 9 4.890625 9.890625 4 11 4 Z M 11 4 "/>
<path style=" stroke:none;fill-rule:nonzero;fill:rgb(11.372549%,60%,95.294118%);fill-opacity:1;" d="M 13 11 L 13 13 L 11 13 L 11 14 L 13 14 L 13 16 L 14 16 L 14 14 L 16 14 L 16 13 L 14 13 L 14 11 Z M 13 11 "/>
</g>
</svg>
