<?xml version="1.0" encoding="UTF-8"?>
<svg xmlns="http://www.w3.org/2000/svg" xmlns:xlink="http://www.w3.org/1999/xlink" width="14pt" height="16pt" viewBox="0 0 14 16" version="1.1">
<g id="surface1">
<path style=" stroke:none;fill-rule:nonzero;fill:rgb(30.196078%,30.196078%,30.196078%);fill-opacity:1;" d="M 0 0 L 0 13 L 2 13 L 2 16 L 10 16 L 10 15 L 3 15 L 3 13 L 11 13 L 11 3 L 13 3 L 13 9 L 14 9 L 14 2 L 11 2 L 11 0 Z M 1 1 L 10 1 L 10 12 L 1 12 Z M 2 3 L 2 4 L 8 4 L 8 3 Z M 2 5 L 2 6 L 5 6 L 5 5 Z M 2 5 "/>
<path style=" stroke:none;fill-rule:nonzero;fill:rgb(11.372549%,60%,95.294118%);fill-opacity:1;" d="M 2 10 L 2 11 L 7 11 L 7 10 Z M 13 10 L 13 11 L 14 11 L 14 10 Z M 13 12 L 13 16 L 14 16 L 14 12 Z M 13 12 "/>
</g>
</svg>
