<?xml version="1.0" encoding="UTF-8"?>
<svg xmlns="http://www.w3.org/2000/svg" xmlns:xlink="http://www.w3.org/1999/xlink" width="16pt" height="16pt" viewBox="0 0 16 16" version="1.1">
<g id="surface1">
<path style=" stroke:none;fill-rule:nonzero;fill:rgb(30.196078%,30.196078%,30.196078%);fill-opacity:1;" d="M 0 0 L 0 16 L 16 16 L 16 0 Z M 3 2 L 13 2 L 13 14 L 3 14 Z M 1 3 L 2 3 L 2 4 L 1 4 Z M 14 3 L 15 3 L 15 4 L 14 4 Z M 1 5 L 2 5 L 2 6 L 1 6 Z M 14 5 L 15 5 L 15 6 L 14 6 Z M 1 7 L 2 7 L 2 8 L 1 8 Z M 14 7 L 15 7 L 15 8 L 14 8 Z M 1 9 L 2 9 L 2 10 L 1 10 Z M 14 9 L 15 9 L 15 10 L 14 10 Z M 1 11 L 2 11 L 2 12 L 1 12 Z M 14 11 L 15 11 L 15 12 L 14 12 Z M 1 13 L 2 13 L 2 14 L 1 14 Z M 14 13 L 15 13 L 15 14 L 14 14 Z M 14 13 "/>
</g>
</svg>
