<?xml version="1.0" encoding="UTF-8"?>
<svg xmlns="http://www.w3.org/2000/svg" xmlns:xlink="http://www.w3.org/1999/xlink" width="16.000793pt" height="15.999653pt" viewBox="0 0 16.000793 15.999653" version="1.1">
<g id="surface1">
<path style=" stroke:none;fill-rule:nonzero;fill:rgb(30.196078%,30.196078%,30.196078%);fill-opacity:1;" d="M 15.515625 0.0078125 C 14.308594 -0.144531 11.164062 2.007812 8.066406 5.105469 C 6.6875 6.488281 5.445312 7.929688 4.523438 9.21875 C 5.601562 9.5625 6.441406 10.398438 6.78125 11.476562 C 8.070312 10.558594 9.515625 9.316406 10.894531 7.933594 C 14.410156 4.417969 16.625 0.9375 15.84375 0.15625 C 15.765625 0.0742188 15.65625 0.0273438 15.515625 0.0078125 Z M 4 10.664062 C 0 11.734375 3 14.269531 0 16 C 4.003906 16 6 14 6 12.664062 C 6 12 6.066406 10.773438 4 10.664062 Z M 4 10.664062 "/>
<path style=" stroke:none;fill-rule:nonzero;fill:rgb(11.372549%,60%,95.294118%);fill-opacity:1;" d="M 13 11 L 13 13 L 11 13 L 11 14 L 13 14 L 13 16 L 14 16 L 14 14 L 16 14 L 16 13 L 14 13 L 14 11 Z M 13 11 "/>
</g>
</svg>
