<?xml version="1.0" encoding="UTF-8"?>
<svg xmlns="http://www.w3.org/2000/svg" xmlns:xlink="http://www.w3.org/1999/xlink" width="16pt" height="16pt" viewBox="0 0 16 16" version="1.1">
<g id="surface1">
<path style=" stroke:none;fill-rule:nonzero;fill:rgb(11.372549%,60%,95.294118%);fill-opacity:1;" d="M 10 4 L 10 9 L 11 9 L 11 6.71875 L 13.71875 4 L 12.28125 4 L 11 5.28125 L 11 4 Z M 15 4 L 15 5.28125 L 11.28125 9 L 12.71875 9 L 15 6.71875 L 15 9 L 16 9 L 16 4 Z M 15 4 "/>
<path style=" stroke:none;fill-rule:nonzero;fill:rgb(30.196078%,30.196078%,30.196078%);fill-opacity:1;" d="M 0 0 L 0 16 L 10 16 L 10 15 L 6 15 L 6 13 L 10 13 L 10 12 L 6 12 L 6 10 L 16 10 L 16 9 L 6 9 L 6 7 L 10 7 L 10 6 L 6 6 L 6 4 L 16 4 L 16 0 Z M 1 1 L 5 1 L 5 3 L 1 3 Z M 6 1 L 10 1 L 10 3 L 6 3 Z M 11 1 L 15 1 L 15 3 L 11 3 Z M 1 4 L 5 4 L 5 6 L 1 6 Z M 1 7 L 5 7 L 5 9 L 1 9 Z M 1 10 L 5 10 L 5 12 L 1 12 Z M 11 11 L 11 16 L 16 13.5 Z M 1 13 L 5 13 L 5 15 L 1 15 Z M 1 13 "/>
</g>
</svg>
