<?xml version="1.0" encoding="UTF-8"?>
<svg xmlns="http://www.w3.org/2000/svg" xmlns:xlink="http://www.w3.org/1999/xlink" width="16.003906pt" height="14.005859pt" viewBox="0 0 16.003906 14.005859" version="1.1">
<g id="surface1">
<path style=" stroke:none;fill-rule:nonzero;fill:rgb(11.372549%,60%,95.294118%);fill-opacity:1;" d="M 0 0 L 0 10 L 0.0117188 10 L 0 10.011719 L 3.992188 14.003906 L 4.003906 14.003906 C 6.003906 14.003906 8 14.007812 10 14.007812 L 10 13.007812 C 8.332031 13.007812 6.667969 13.003906 5 13.003906 L 5 9.003906 L 1 9.003906 L 1 1.003906 L 15 1.003906 C 14.992188 3.34375 15 5.671875 15 8.007812 L 16 8.007812 C 16.003906 5.339844 16.003906 2.671875 16.003906 0.00390625 L 16 0.00390625 L 16 0 Z M 13 9.007812 L 13 11.007812 L 11 11.007812 L 11 12.007812 L 13 12.007812 L 13 14.007812 L 14 14.007812 L 14 12.007812 L 16 12.007812 C 16.003906 12.613281 16 10.757812 16 11.007812 L 14 11.007812 L 14 9.007812 Z M 13 9.007812 "/>
</g>
</svg>
