<?xml version="1.0" encoding="UTF-8"?>
<svg xmlns="http://www.w3.org/2000/svg" xmlns:xlink="http://www.w3.org/1999/xlink" width="16pt" height="16pt" viewBox="0 0 16 16" version="1.1">
<g id="surface1">
<path style=" stroke:none;fill-rule:nonzero;fill:rgb(30.196078%,30.196078%,30.196078%);fill-opacity:1;" d="M 1.5 0 C 0.667969 0 0 0.667969 0 1.5 C 0 2.332031 0.667969 3 1.5 3 C 2.332031 3 3 2.332031 3 1.5 C 3 0.667969 2.332031 0 1.5 0 Z M 4 0 L 4 1 L 12 1 L 12 0 Z M 14 0 L 14 1 L 16 1 L 16 0 Z M 4 2 L 4 3 L 7 3 L 7 2 Z M 10 2 L 10 3 L 16 3 L 16 2 Z M 1.5 13 C 0.667969 13 0 13.667969 0 14.5 C 0 15.332031 0.667969 16 1.5 16 C 2.332031 16 3 15.332031 3 14.5 C 3 13.667969 2.332031 13 1.5 13 Z M 4 13 L 4 14 L 12 14 L 12 13 Z M 14 13 L 14 14 L 16 14 L 16 13 Z M 4 15 L 4 16 L 7 16 L 7 15 Z M 10 15 L 10 16 L 16 16 L 16 15 Z M 10 15 "/>
<path style=" stroke:none;fill-rule:nonzero;fill:rgb(11.372549%,60%,95.294118%);fill-opacity:1;" d="M 1.5 6 C 0.667969 6 0 6.667969 0 7.5 C 0 8.332031 0.667969 9 1.5 9 C 2.332031 9 3 8.332031 3 7.5 C 3 6.667969 2.332031 6 1.5 6 Z M 4 6 L 4 7 L 12 7 L 12 6 Z M 14 6 L 14 7 L 16 7 L 16 6 Z M 4 8 L 4 9 L 7 9 L 7 8 Z M 10 8 L 10 9 L 16 9 L 16 8 Z M 10 8 "/>
</g>
</svg>
