<?xml version="1.0" encoding="UTF-8"?>
<svg xmlns="http://www.w3.org/2000/svg" xmlns:xlink="http://www.w3.org/1999/xlink" width="14pt" height="16pt" viewBox="0 0 14 16" version="1.1">
<g id="surface1">
<path style=" stroke:none;fill-rule:nonzero;fill:rgb(30.196078%,30.196078%,30.196078%);fill-opacity:1;" d="M 0 0 L 0 6 L 14 6 L 14 0 Z M 1 1 L 13 1 L 13 5 L 1 5 Z M 0 9 L 0 16 L 10 16 L 14 12 L 14 9 Z M 1 10 L 13 10 L 13 11 L 9 11 L 9 15 L 1 15 Z M 1 10 "/>
<path style=" stroke:none;fill-rule:nonzero;fill:rgb(11.372549%,60%,95.294118%);fill-opacity:1;" d="M 1 7 L 1 8 L 3 8 L 3 7 Z M 6 7 L 6 8 L 8 8 L 8 7 Z M 11 7 L 11 8 L 13 8 L 13 7 Z M 11 7 "/>
</g>
</svg>
