<?xml version="1.0" encoding="UTF-8"?>
<svg xmlns="http://www.w3.org/2000/svg" xmlns:xlink="http://www.w3.org/1999/xlink" width="16pt" height="16pt" viewBox="0 0 16 16" version="1.1">
<g id="surface1">
<path style=" stroke:none;fill-rule:nonzero;fill:rgb(30.196078%,30.196078%,30.196078%);fill-opacity:1;" d="M 0 0 L 0 16 L 7 16 L 7 14 L 12.5 8.5 L 11 7 L 7 11 L 6 10 L 1 15 L 1 1 L 15 1 L 15 8 L 16 8 L 16 0 Z M 4 2 C 2.890625 2 2 2.890625 2 4 C 2 5.109375 2.890625 6 4 6 C 5.109375 6 6 5.109375 6 4 C 6 2.890625 5.109375 2 4 2 Z M 14 8 L 8 14 L 8 16 L 10 16 L 10 15.96875 L 11 15 L 16 10 Z M 13.71875 9.6875 L 14.28125 10.28125 L 9.3125 15.28125 L 8.71875 14.6875 Z M 13.71875 9.6875 "/>
</g>
</svg>
