<?xml version="1.0" encoding="UTF-8"?>
<svg xmlns="http://www.w3.org/2000/svg" xmlns:xlink="http://www.w3.org/1999/xlink" width="16pt" height="16pt" viewBox="0 0 16 16" version="1.1">
<g id="surface1">
<path style=" stroke:none;fill-rule:nonzero;fill:rgb(30.196078%,30.196078%,30.196078%);fill-opacity:1;" d="M 0 0 L 0 7 L 6 7 L 6 13 L 9 13 L 9 16 L 16 16 L 16 9 L 9 9 L 9 12 L 7 12 L 7 4 L 9 4 L 9 7 L 16 7 L 16 0 L 9 0 L 9 3 L 7 3 L 7 0 Z M 1 1 L 6 1 L 6 6 L 1 6 Z M 10 1 L 15 1 L 15 6 L 10 6 Z M 10 1 "/>
</g>
</svg>
