<?xml version="1.0" encoding="UTF-8"?>
<svg xmlns="http://www.w3.org/2000/svg" xmlns:xlink="http://www.w3.org/1999/xlink" width="16pt" height="16pt" viewBox="0 0 16 16" version="1.1">
<g id="surface1">
<path style=" stroke:none;fill-rule:nonzero;fill:rgb(95.686275%,46.666667%,31.372549%);fill-opacity:1;" d="M 0 0 L 0 16 L 10 16 L 10 15 L 1 15 L 1 1 L 15 1 L 15 10 L 16 10 L 16 0 Z M 0 0 "/>
<path style=" stroke:none;fill-rule:nonzero;fill:rgb(30.196078%,30.196078%,30.196078%);fill-opacity:1;" d="M 1 1 L 1 15 L 10 15 L 10 14 L 2 14 L 2 2 L 14 2 L 14 10 L 15 10 L 15 1 Z M 13 11 L 13 13 L 11 13 L 11 14 L 13 14 L 13 16 L 14 16 L 14 14 L 16 14 L 16 13 L 14 13 L 14 11 Z M 13 11 "/>
</g>
</svg>
