<?xml version="1.0" encoding="UTF-8"?>
<svg xmlns="http://www.w3.org/2000/svg" xmlns:xlink="http://www.w3.org/1999/xlink" width="18pt" height="17pt" viewBox="0 0 18 17" version="1.1">
<g id="surface1">
<path style=" stroke:none;fill-rule:nonzero;fill:rgb(30.196078%,30.196078%,30.196078%);fill-opacity:1;" d="M 8 0 C 3.582031 0 0 3.132812 0 7 C 0.0078125 9.507812 1.542969 11.820312 4.03125 13.0625 L 4.34375 14 L 1 14 C 0.207031 13.789062 0.03125 13.339844 0 13.125 L 0 16 L 6.40625 16 L 6.40625 13.59375 L 5.875 13.375 C 4.121094 12.304688 3.003906 10.015625 3 7.5 C 3 3.910156 5.238281 1 8 1 C 10.761719 1 13 3.910156 13 7.5 C 12.996094 10.015625 11.878906 12.304688 10.125 13.375 L 9.59375 13.59375 L 9.59375 16 L 12 16 L 12 14 L 11.65625 14 L 11.96875 13.0625 C 14.457031 11.820312 15.992188 9.507812 16 7 C 16 3.132812 12.417969 0 8 0 Z M 16 13.125 C 15.96875 13.339844 15.792969 13.789062 15 14 L 16 14 Z M 16 13.125 "/>
<path style=" stroke:none;fill-rule:nonzero;fill:rgb(11.372549%,60%,95.294118%);fill-opacity:1;" d="M 15 12 L 15 14 L 13 14 L 13 15 L 15 15 L 15 17 L 16 17 L 16 15 L 18 15 L 18 14 L 16 14 L 16 12 Z M 15 12 "/>
</g>
</svg>
