<?xml version="1.0" encoding="UTF-8"?>
<svg xmlns="http://www.w3.org/2000/svg" xmlns:xlink="http://www.w3.org/1999/xlink" width="14pt" height="16pt" viewBox="0 0 14 16" version="1.1">
<g id="surface1">
<path style=" stroke:none;fill-rule:nonzero;fill:rgb(30.196078%,30.196078%,30.196078%);fill-opacity:1;" d="M 0 0 L 0 16 L 7 16 L 7 15 L 1 15 L 1 1 L 13 1 L 13 9 L 14 9 L 14 0 Z M 9 10 L 9 11 L 8 11 L 8 12 L 9 12 L 9 14 L 8 14 L 8 15 L 9 15 L 9 16 L 10 16 L 10 15 L 12 15 L 12 16 L 13 16 L 13 15 L 14 15 L 14 14 L 13 14 L 13 12 L 14 12 L 14 11 L 13 11 L 13 10 L 12 10 L 12 11 L 10 11 L 10 10 Z M 10 12 L 12 12 L 12 14 L 10 14 Z M 10 12 "/>
</g>
</svg>
