<?xml version="1.0" encoding="UTF-8"?>
<svg xmlns="http://www.w3.org/2000/svg" xmlns:xlink="http://www.w3.org/1999/xlink" width="14pt" height="16.001953pt" viewBox="0 0 14 16.001953" version="1.1">
<g id="surface1">
<path style=" stroke:none;fill-rule:nonzero;fill:rgb(30.196078%,30.196078%,30.196078%);fill-opacity:1;" d="M 0 0 L 0 16 L 14 16 L 14 3.992188 L 10.007812 0 L 10 0.0078125 L 10 0 Z M 1 1 L 9 1 L 9 5 L 13 5 L 13 15 L 1 15 Z M 3 9 C 2.445312 9 2 9.445312 2 10 L 2 13 C 2 13.554688 2.445312 14 3 14 L 5 14 C 5.554688 14 6 13.554688 6 13 L 6 12.5 L 5 12.5 L 5 13 L 3 13 L 3 10 L 5 10 L 5 10.5 L 6 10.5 L 6 10 C 6 9.445312 5.554688 9 5 9 Z M 9 9 C 8.445312 9 8 9.445312 8 10 L 8 10.5 L 9 10.5 L 9 10 L 11 10 L 11 13 L 9 13 L 9 12.5 L 8 12.5 L 8 13 C 8 13.554688 8.445312 14 9 14 L 11 14 C 11.554688 14 12 13.554688 12 13 L 12 10 C 12 9.445312 11.554688 9 11 9 Z M 4 11 L 4 12 L 10 12 L 10 11 Z M 4 11 "/>
</g>
</svg>
