<?xml version="1.0" encoding="UTF-8"?>
<svg xmlns="http://www.w3.org/2000/svg" xmlns:xlink="http://www.w3.org/1999/xlink" width="14pt" height="16pt" viewBox="0 0 14 16" version="1.1">
<g id="surface1">
<path style=" stroke:none;fill-rule:nonzero;fill:rgb(30.196078%,30.196078%,30.196078%);fill-opacity:1;" d="M 0 0 L 0 16 L 7 16 L 7 15 L 1 15 L 1 1 L 13 1 L 13 9 L 14 9 L 14 0 Z M 2 3 L 2 4 L 12 4 L 12 3 Z M 2 5 L 2 6 L 8 6 L 8 5 Z M 2 10 L 2 11 L 9 11 L 9 10 Z M 2 10 "/>
<path style=" stroke:none;fill-rule:nonzero;fill:rgb(11.372549%,60%,95.294118%);fill-opacity:1;" d="M 12 10 L 11 12 L 12 12 L 12 16 L 13 16 L 13 10 Z M 2 12 L 2 13 L 9 13 L 9 12 Z M 2 12 "/>
</g>
</svg>
