<?xml version="1.0" encoding="UTF-8"?>
<svg xmlns="http://www.w3.org/2000/svg" xmlns:xlink="http://www.w3.org/1999/xlink" width="14pt" height="16pt" viewBox="0 0 14 16" version="1.1">
<g id="surface1">
<path style=" stroke:none;fill-rule:nonzero;fill:rgb(30.196078%,30.196078%,30.196078%);fill-opacity:1;" d="M 0 0 L 0 16 L 14 16 L 14 0 Z M 1 1 L 13 1 L 13 15 L 1 15 Z M 3 3 L 3 11 L 2 11 L 2 12 L 3 12 L 3 13 L 4 13 L 4 12 L 12 12 L 12 11 L 11 11 L 11 8 L 9 8 L 9 11 L 7 11 L 7 5 L 5 5 L 5 11 L 4 11 L 4 3 Z M 3 3 "/>
</g>
</svg>
