<?xml version="1.0" encoding="UTF-8"?>
<svg xmlns="http://www.w3.org/2000/svg" xmlns:xlink="http://www.w3.org/1999/xlink" width="16pt" height="16pt" viewBox="0 0 16 16" version="1.1">
<g id="surface1">
<path style=" stroke:none;fill-rule:nonzero;fill:rgb(30.196078%,30.196078%,30.196078%);fill-opacity:1;" d="M 4 0 L 4 11.5 C 3.582031 11.191406 3.058594 11 2.5 11 C 1.121094 11 0 12.121094 0 13.5 C 0 14.878906 1.121094 16 2.5 16 C 3.878906 16 5 14.878906 5 13.5 L 5 5 L 15 5 L 15 8.5 C 14.582031 8.191406 14.058594 8 13.5 8 C 12.121094 8 11 9.121094 11 10.5 C 11 11.878906 12.121094 13 13.5 13 C 14.878906 13 16 11.878906 16 10.5 L 16 0 Z M 5 2 L 15 2 L 15 4 L 5 4 Z M 5 2 "/>
</g>
</svg>
