<?xml version="1.0" encoding="UTF-8"?>
<svg xmlns="http://www.w3.org/2000/svg" xmlns:xlink="http://www.w3.org/1999/xlink" width="16pt" height="14pt" viewBox="0 0 16 14" version="1.1">
<g id="surface1">
<path style=" stroke:none;fill-rule:nonzero;fill:rgb(30.196078%,30.196078%,30.196078%);fill-opacity:1;" d="M 3 0 L 3 2 L 0 2 L 0 3 L 3 3 L 3 5 L 7 5 L 7 4 L 4 4 L 4 1 L 7 1 L 7 0 Z M 9 0 L 9 1 L 12 1 L 12 4 L 9 4 L 9 5 L 13 5 L 13 3 L 16 3 L 16 2 L 13 2 L 13 0 Z M 7 2 L 7 3 L 9 3 L 9 2 Z M 7 2 "/>
<path style=" stroke:none;fill-rule:nonzero;fill:rgb(11.372549%,60%,95.294118%);fill-opacity:1;" d="M 13 9 L 13 11 L 11 11 L 11 12 L 13 12 L 13 14 L 14 14 L 14 12 L 16 12 L 16 11 L 14 11 L 14 9 Z M 13 9 "/>
</g>
</svg>
