<?xml version="1.0" encoding="UTF-8"?>
<svg xmlns="http://www.w3.org/2000/svg" xmlns:xlink="http://www.w3.org/1999/xlink" width="16pt" height="16pt" viewBox="0 0 16 16" version="1.1">
<g id="surface1">
<path style=" stroke:none;fill-rule:nonzero;fill:rgb(11.372549%,60%,95.294118%);fill-opacity:1;" d="M 13 0 L 13 1 L 14 1 L 14 3 L 13 3 L 13 4 L 16 4 L 16 3 L 15 3 L 15 1 L 16 1 L 16 0 Z M 7 2 L 7 3 L 8 3 L 8 2 Z M 9 2 L 9 3 L 10 3 L 10 2 Z M 11 2 L 11 3 L 12 3 L 12 2 Z M 11 6 L 11 7 L 12 7 L 12 9 L 11 9 L 11 10 L 16 10 L 16 9 L 15 9 L 15 7 L 16 7 L 16 6 Z M 13 7 L 14 7 L 14 9 L 13 9 Z M 5 8 L 5 9 L 6 9 L 6 8 Z M 7 8 L 7 9 L 8 9 L 8 8 Z M 9 8 L 9 9 L 10 9 L 10 8 Z M 9 12 L 9 13 L 10 13 L 10 15 L 9 15 L 9 16 L 16 16 L 16 15 L 15 15 L 15 13 L 16 13 L 16 12 Z M 11 13 L 12 13 L 12 15 L 11 15 Z M 13 13 L 14 13 L 14 15 L 13 15 Z M 3 14 L 3 15 L 4 15 L 4 14 Z M 5 14 L 5 15 L 6 15 L 6 14 Z M 7 14 L 7 15 L 8 15 L 8 14 Z M 7 14 "/>
<path style=" stroke:none;fill-rule:nonzero;fill:rgb(30.196078%,30.196078%,30.196078%);fill-opacity:1;" d="M 0 0 L 0 1 L 10 1 L 10 0 Z M 0 2 L 0 3 L 6 3 L 6 2 Z M 0 6 L 0 7 L 8 7 L 8 6 Z M 0 8 L 0 9 L 4 9 L 4 8 Z M 0 12 L 0 13 L 7 13 L 7 12 Z M 0 14 L 0 15 L 2 15 L 2 14 Z M 0 14 "/>
</g>
</svg>
