<?xml version="1.0" encoding="UTF-8"?>
<svg xmlns="http://www.w3.org/2000/svg" xmlns:xlink="http://www.w3.org/1999/xlink" width="16pt" height="16pt" viewBox="0 0 16 16" version="1.1">
<g id="surface1">
<path style=" stroke:none;fill-rule:nonzero;fill:rgb(95.686275%,46.666667%,31.372549%);fill-opacity:1;" d="M 7 14 C 6.449219 14 6 14.449219 6 15 C 6 15.550781 6.449219 16 7 16 C 7.550781 16 8 15.550781 8 15 C 8 14.449219 7.550781 14 7 14 Z M 11 14 C 10.449219 14 10 14.449219 10 15 C 10 15.550781 10.449219 16 11 16 C 11.550781 16 12 15.550781 12 15 C 12 14.449219 11.550781 14 11 14 Z M 15 14 C 14.449219 14 14 14.449219 14 15 C 14 15.550781 14.449219 16 15 16 C 15.550781 16 16 15.550781 16 15 C 16 14.449219 15.550781 14 15 14 Z M 15 14 "/>
<path style=" stroke:none;fill-rule:nonzero;fill:rgb(30.196078%,30.196078%,30.196078%);fill-opacity:1;" d="M 0 0 L 0 16 L 5 16 L 5 15 L 1 15 L 1 9 L 9 9 L 9 1 L 15 1 L 15 13 L 16 13 L 16 0 Z M 1 1 L 8 1 L 8 8 L 1 8 Z M 4.5 2 C 3.113281 2 2 3.113281 2 4.5 C 2 5.886719 3.113281 7 4.5 7 C 5.886719 7 7 5.886719 7 4.5 C 7 3.113281 5.886719 2 4.5 2 Z M 4.5 3 C 5.332031 3 6 3.667969 6 4.5 C 6 5.332031 5.332031 6 4.5 6 C 3.667969 6 3 5.332031 3 4.5 C 3 3.667969 3.667969 3 4.5 3 Z M 11 8 L 7.65625 11.34375 L 6.3125 10 L 6.28125 10 L 2.6875 13.625 L 3.375 14.3125 L 6.3125 11.40625 L 6.9375 12.0625 L 7.65625 12.75 L 11 9.40625 L 13.28125 11.6875 L 14 11 Z M 11 8 "/>
</g>
</svg>
