<?xml version="1.0" encoding="UTF-8"?>
<svg xmlns="http://www.w3.org/2000/svg" xmlns:xlink="http://www.w3.org/1999/xlink" width="14pt" height="16.001953pt" viewBox="0 0 14 16.001953" version="1.1">
<g id="surface1">
<path style=" stroke:none;fill-rule:nonzero;fill:rgb(30.196078%,30.196078%,30.196078%);fill-opacity:1;" d="M 0 0 L 0 16 L 10 16 L 10 15.992188 L 10.007812 16 L 14 12.007812 L 14 0 Z M 1 1 L 13 1 L 13 11 L 9 11 L 9 15 L 1 15 Z M 4 4 L 4 5 L 11 5 L 11 4 Z M 4 7 L 4 8 L 11 8 L 11 7 Z M 4 10 L 4 11 L 8 11 L 8 10 Z M 4 10 "/>
<path style=" stroke:none;fill-rule:nonzero;fill:rgb(11.372549%,60%,95.294118%);fill-opacity:1;" d="M 2 2 L 2 13 L 8 13 L 8 12 L 3 12 L 3 3 L 12 3 L 12 2 Z M 2 2 "/>
</g>
</svg>
