<?xml version="1.0" encoding="UTF-8"?>
<svg xmlns="http://www.w3.org/2000/svg" xmlns:xlink="http://www.w3.org/1999/xlink" width="14.007812pt" height="16.003957pt" viewBox="0 0 14.007812 16.003957" version="1.1">
<g id="surface1">
<path style=" stroke:none;fill-rule:nonzero;fill:rgb(30.196078%,30.196078%,30.196078%);fill-opacity:1;" d="M 0 0 L 0 16 L 0.00390625 16 L 0.00390625 16.003906 L 12.003906 16.003906 C 13.855469 16.003906 14.929688 16.003906 12.003906 16.003906 L 12.003906 14.003906 L 14.003906 14.003906 L 14.003906 13.003906 L 12.003906 13.003906 L 12.003906 11.003906 L 11.003906 11.003906 L 11.003906 13.003906 L 9.003906 13.003906 L 9.003906 14.003906 L 11.003906 14.003906 L 11.003906 16.003906 L 8.007812 16.003906 L 8.007812 15.003906 L 6.007812 15.003906 L 6.007812 14.996094 L 1.003906 14.996094 L 1.003906 0.996094 L 9.003906 0.996094 L 9.003906 4.996094 L 13.003906 4.996094 L 13.003906 7 L 13.007812 7 L 13.007812 10 L 14.007812 10 L 14.007812 7 L 14.003906 7 L 14.003906 3.992188 L 10.015625 0 L 10.003906 0.0078125 L 10.003906 0 Z M 0 0 "/>
</g>
</svg>
