<?xml version="1.0" encoding="UTF-8"?>
<svg xmlns="http://www.w3.org/2000/svg" xmlns:xlink="http://www.w3.org/1999/xlink" width="16pt" height="16pt" viewBox="0 0 16 16" version="1.1">
<g id="surface1">
<path style=" stroke:none;fill-rule:nonzero;fill:rgb(30.196078%,30.196078%,30.196078%);fill-opacity:1;" d="M 0 6 L 0 16 L 10 16 L 10 6 L 9 6 L 9 10 L 7 10 L 7 6 L 6 6 L 6 10 L 4 10 L 4 6 L 3 6 L 3 10 L 1 10 L 1 6 Z M 12 6 L 12 10 L 13 10 L 13 6 Z M 15 6 L 15 10 L 16 10 L 16 6 Z M 1 11 L 3 11 L 3 15 L 1 15 Z M 4 11 L 6 11 L 6 15 L 4 15 Z M 7 11 L 9 11 L 9 15 L 7 15 Z M 13 11 L 13 13 L 11 13 L 11 14 L 13 14 L 13 16 L 14 16 L 14 14 L 16 14 L 16 13 L 14 13 L 14 11 Z M 13 11 "/>
<path style=" stroke:none;fill-rule:nonzero;fill:rgb(11.372549%,60%,95.294118%);fill-opacity:1;" d="M 0 0 L 0 6 L 16 6 L 16 0 Z M 1 1 L 4.28125 1 L 1 4.28125 Z M 5.71875 1 L 8.28125 1 L 4.28125 5 L 1.71875 5 Z M 9.71875 1 L 12.28125 1 L 8.28125 5 L 5.71875 5 Z M 13.71875 1 L 15 1 L 15 2.28125 L 12.28125 5 L 9.71875 5 Z M 15 3.71875 L 15 5 L 13.71875 5 Z M 15 3.71875 "/>
</g>
</svg>
