<?xml version="1.0" encoding="UTF-8"?>
<svg xmlns="http://www.w3.org/2000/svg" xmlns:xlink="http://www.w3.org/1999/xlink" width="16pt" height="16pt" viewBox="0 0 16 16" version="1.1">
<g id="surface1">
<path style=" stroke:none;fill-rule:nonzero;fill:rgb(30.196078%,30.196078%,30.196078%);fill-opacity:1;" d="M 1 0 L 1 14 L 0 14 L 0 15 L 1 15 L 1 16 L 2 16 L 2 15 L 14 15 L 14 16 L 15 16 L 15 15 L 16 15 L 16 14 L 15 14 L 15 0 L 14 0 L 14 8 L 12 6 L 8 10 L 7 9 L 2 14 L 2 0 Z M 5 1 C 3.890625 1 3 1.890625 3 3 C 3 4.109375 3.890625 5 5 5 C 6.109375 5 7 4.109375 7 3 C 7 1.890625 6.109375 1 5 1 Z M 5 1 "/>
</g>
</svg>
