<?xml version="1.0" encoding="UTF-8"?>
<svg xmlns="http://www.w3.org/2000/svg" xmlns:xlink="http://www.w3.org/1999/xlink" width="16pt" height="16pt" viewBox="0 0 16 16" version="1.1">
<g id="surface1">
<path style=" stroke:none;fill-rule:nonzero;fill:rgb(30.196078%,30.196078%,30.196078%);fill-opacity:1;" d="M 0 0 L 0 1 L 1 1 L 1 0 Z M 14.5625 0 L 0 14.5625 L 0 16 L 1.4375 16 L 16 1.4375 Z M 0 3 L 0 4 L 1 4 L 1 3 Z M 0 6 L 0 7 L 1 7 L 1 6 Z M 0 9 L 0 10 L 1 10 L 1 9 Z M 0 12 L 0 13 L 1 13 L 1 12 Z M 3 15 L 3 16 L 4 16 L 4 15 Z M 6 15 L 6 16 L 7 16 L 7 15 Z M 9 15 L 9 16 L 10 16 L 10 15 Z M 12 15 L 12 16 L 13 16 L 13 15 Z M 15 15 L 15 16 L 16 16 L 16 15 Z M 15 15 "/>
</g>
</svg>
