<?xml version="1.0" encoding="UTF-8"?>
<svg xmlns="http://www.w3.org/2000/svg" xmlns:xlink="http://www.w3.org/1999/xlink" width="16pt" height="16pt" viewBox="0 0 16 16" version="1.1">
<g id="surface1">
<path style=" stroke:none;fill-rule:nonzero;fill:rgb(95.686275%,46.666667%,31.372549%);fill-opacity:1;" d="M 6.90625 14 C 6.390625 14.046875 5.996094 14.480469 6 15 C 6 15.550781 6.449219 16 7 16 C 7.550781 16 8 15.550781 8 15 C 8 14.449219 7.550781 14 7 14 C 6.96875 14 6.9375 14 6.90625 14 Z M 10.90625 14 C 10.390625 14.046875 9.996094 14.480469 10 15 C 10 15.550781 10.449219 16 11 16 C 11.550781 16 12 15.550781 12 15 C 12 14.449219 11.550781 14 11 14 C 10.96875 14 10.9375 14 10.90625 14 Z M 14.90625 14 C 14.390625 14.046875 13.996094 14.480469 14 15 C 14 15.550781 14.449219 16 15 16 C 15.550781 16 16 15.550781 16 15 C 16 14.449219 15.550781 14 15 14 C 14.96875 14 14.9375 14 14.90625 14 Z M 14.90625 14 "/>
<path style=" stroke:none;fill-rule:nonzero;fill:rgb(30.196078%,30.196078%,30.196078%);fill-opacity:1;" d="M 1 0 L 1 1 L 2 1 L 2 3 L 1 3 L 1 4 L 4 4 L 4 3 L 3 3 L 3 1 L 4 1 L 4 0 Z M 7 0 L 7 1 L 16 1 L 16 0 Z M 7 2 L 7 3 L 13 3 L 13 2 Z M 0 6 L 0 7 L 1 7 L 1 9 L 0 9 L 0 10 L 5 10 L 5 9 L 4 9 L 4 7 L 5 7 L 5 6 Z M 7 6 L 7 7 L 16 7 L 16 6 Z M 2 7 L 3 7 L 3 9 L 2 9 Z M 7 8 L 7 9 L 9 9 L 9 8 Z M 11.875 8 L 11.875 9 L 16 9 L 16 8 Z M 11.875 8 "/>
</g>
</svg>
