<?xml version="1.0" encoding="UTF-8"?>
<svg xmlns="http://www.w3.org/2000/svg" xmlns:xlink="http://www.w3.org/1999/xlink" width="16pt" height="16pt" viewBox="0 0 16 16" version="1.1">
<g id="surface1">
<path style=" stroke:none;fill-rule:nonzero;fill:rgb(30.196078%,30.196078%,30.196078%);fill-opacity:1;" d="M 0 0 L 0 16 L 16 16 L 16 0 Z M 1 1 L 9 1 L 9 15 L 1 15 Z M 12.5 1 L 12.875 1.375 L 15 3.3125 L 14.28125 4 L 12.5 2.375 L 10.71875 4 L 10 3.3125 L 12.125 1.375 Z M 2 3 L 2 4 L 7 4 L 7 3 Z M 2 6 L 2 7 L 7 7 L 7 6 Z M 2 9 L 2 10 L 7 10 L 7 9 Z M 2 12 L 2 13 L 7 13 L 7 12 Z M 10.71875 12 L 12.5 13.625 L 14.28125 12 L 15 12.6875 L 12.875 14.625 L 12.5 15 L 12.125 14.625 L 10 12.6875 Z M 10.71875 12 "/>
</g>
</svg>
