<?xml version="1.0" encoding="UTF-8"?>
<svg xmlns="http://www.w3.org/2000/svg" xmlns:xlink="http://www.w3.org/1999/xlink" width="16pt" height="16pt" viewBox="0 0 16 16" version="1.1">
<g id="surface1">
<path style=" stroke:none;fill-rule:nonzero;fill:rgb(30.196078%,30.196078%,30.196078%);fill-opacity:1;" d="M 0 0 L 0 2 L 16 2 L 16 0 Z M 0 4 L 0 5 L 16 5 L 16 4 Z M 0 8 L 0 10 L 2 10 L 2 8 Z M 4 8 L 4 10 L 6 10 L 6 8 Z M 7 8 L 7 10 L 9 10 L 9 8 Z M 10 8 L 10 10 L 12 10 L 12 8 Z M 14 8 L 14 10 L 16 10 L 16 8 Z M 0 12 L 0 13 L 16 13 L 16 12 Z M 0 15 L 0 16 L 1 16 L 1 15 Z M 3 15 L 3 16 L 4 16 L 4 15 Z M 6 15 L 6 16 L 7 16 L 7 15 Z M 9 15 L 9 16 L 10 16 L 10 15 Z M 12 15 L 12 16 L 13 16 L 13 15 Z M 15 15 L 15 16 L 16 16 L 16 15 Z M 15 15 "/>
</g>
</svg>
