<?xml version="1.0" encoding="UTF-8"?>
<svg xmlns="http://www.w3.org/2000/svg" xmlns:xlink="http://www.w3.org/1999/xlink" width="16pt" height="16pt" viewBox="0 0 16 16" version="1.1">
<g id="surface1">
<path style=" stroke:none;fill-rule:nonzero;fill:rgb(30.196078%,30.196078%,30.196078%);fill-opacity:1;" d="M 3 0 L 3 3 L 2 3 L 2 4 L 3 4 L 3 7 L 6 7 L 6 9 L 3 9 L 3 12 L 2 12 L 2 13 L 3 13 L 3 16 L 13 16 L 13 13 L 14 13 L 14 12 L 13 12 L 13 9 L 10 9 L 10 7 L 13 7 L 13 4 L 14 4 L 14 3 L 13 3 L 13 0 Z M 4 1 L 12 1 L 12 6 L 4 6 Z M 0 3 L 0 4 L 1 4 L 1 3 Z M 15 3 L 15 4 L 16 4 L 16 3 Z M 7 7 L 9 7 L 9 9 L 7 9 Z M 4 10 L 12 10 L 12 15 L 4 15 Z M 5 11 L 5 14 L 11 14 L 11 11 Z M 0 12 L 0 13 L 1 13 L 1 12 Z M 15 12 L 15 13 L 16 13 L 16 12 Z M 15 12 "/>
</g>
</svg>
