<?xml version="1.0" encoding="UTF-8"?>
<svg xmlns="http://www.w3.org/2000/svg" xmlns:xlink="http://www.w3.org/1999/xlink" width="16pt" height="16pt" viewBox="0 0 16 16" version="1.1">
<g id="surface1">
<path style=" stroke:none;fill-rule:nonzero;fill:rgb(30.196078%,30.196078%,30.196078%);fill-opacity:1;" d="M 4 0 C 2.238281 0 1.519531 0.695312 1.519531 2.5 L 1.519531 4.9375 C 1.519531 6.050781 1.46875 7.34375 0.496094 7.34375 L 0 7.34375 L 0 8.65625 L 0.496094 8.65625 C 1.46875 8.65625 1.519531 9.949219 1.519531 11.0625 L 1.519531 13.5 C 1.519531 15.304688 2.238281 16 4 16 L 4 14.8125 C 2.824219 14.8125 2.820312 14.328125 2.820312 12.59375 L 2.820312 10.59375 C 2.820312 9.761719 2.605469 8.511719 1.613281 8 C 2.605469 7.488281 2.820312 6.269531 2.820312 5.4375 L 2.820312 3.40625 C 2.820312 1.671875 2.824219 1.1875 4 1.1875 Z M 12 0 L 12 1.1875 C 13.167969 1.1875 13.199219 1.671875 13.199219 3.40625 L 13.199219 5.4375 C 13.199219 6.269531 13.386719 7.488281 14.371094 8 C 13.386719 8.511719 13.199219 9.761719 13.199219 10.59375 L 13.199219 12.59375 C 13.199219 14.328125 13.167969 14.8125 12 14.8125 L 12 16 C 13.75 16 14.492188 15.304688 14.492188 13.5 L 14.492188 11.0625 C 14.492188 9.949219 14.558594 8.65625 15.507812 8.65625 L 16 8.65625 L 16 7.34375 L 15.507812 7.34375 C 14.558594 7.34375 14.492188 6.050781 14.492188 4.9375 L 14.492188 2.5 C 14.492188 0.695312 13.75 0 12 0 Z M 8 5 L 8 7 L 5 7 L 5 9 L 8 9 L 8 11 L 12 8 Z M 8 5 "/>
</g>
</svg>
