<?xml version="1.0" encoding="UTF-8"?>
<svg xmlns="http://www.w3.org/2000/svg" xmlns:xlink="http://www.w3.org/1999/xlink" width="16pt" height="16pt" viewBox="0 0 16 16" version="1.1">
<g id="surface1">
<path style=" stroke:none;fill-rule:nonzero;fill:rgb(30.196078%,30.196078%,30.196078%);fill-opacity:1;" d="M 8 0 C 3.566406 0 0 3.566406 0 8 C 0 12.433594 3.566406 16 8 16 C 12.433594 16 16 12.433594 16 8 C 16 3.566406 12.433594 0 8 0 Z M 8 1 C 11.878906 1 15 4.121094 15 8 C 15 11.878906 11.878906 15 8 15 C 4.121094 15 1 11.878906 1 8 C 1 4.121094 4.121094 1 8 1 Z M 4 5 L 4 11 L 5 11 L 5 6 L 11 6 L 11 10 L 9 10 L 9 9 L 6 10.5 L 9 12 L 9 11 L 12 11 L 12 5 Z M 4 5 "/>
</g>
</svg>
