<?xml version="1.0" encoding="UTF-8"?>
<svg xmlns="http://www.w3.org/2000/svg" xmlns:xlink="http://www.w3.org/1999/xlink" width="16pt" height="16pt" viewBox="0 0 16 16" version="1.1">
<g id="surface1">
<path style=" stroke:none;fill-rule:nonzero;fill:rgb(30.196078%,30.196078%,30.196078%);fill-opacity:1;" d="M 7 0 L 7 1.0625 C 5.8125 1.230469 4.726562 1.722656 3.8125 2.40625 L 2.40625 1 L 1 2.40625 L 2.40625 3.8125 C 1.648438 4.867188 1.300781 5.863281 1.0625 7 L 0 7 L 0 9 L 1.0625 9 C 1.21875 10.148438 1.859375 11.300781 2.40625 12.1875 L 1 13.59375 L 2.40625 15 L 3.8125 13.59375 C 4.875 14.332031 5.847656 14.699219 7 14.9375 L 7 16 L 9 16 L 9 14.9375 C 10.144531 14.753906 11.292969 14.148438 12.1875 13.59375 L 13.59375 15 L 15 13.59375 L 13.59375 12.1875 C 14.339844 11.125 14.699219 10.15625 14.9375 9 L 16 9 L 16 7 L 14.9375 7 C 14.71875 5.730469 14.226562 4.773438 13.59375 3.8125 L 15 2.40625 L 13.59375 1 L 12.1875 2.40625 C 11.242188 1.691406 10.011719 1.28125 9 1.0625 L 9 0 Z M 8 2 C 11.3125 2 14 4.6875 14 8 C 14 11.3125 11.3125 14 8 14 C 4.6875 14 2 11.3125 2 8 C 2 4.6875 4.6875 2 8 2 Z M 8 2 "/>
<path style=" stroke:none;fill-rule:nonzero;fill:rgb(85.490196%,26.666667%,32.54902%);fill-opacity:1;" d="M 8 5 C 6.339844 5 5 6.339844 5 8 C 5 9.660156 6.339844 11 8 11 C 9.660156 11 11 9.660156 11 8 C 11 6.339844 9.660156 5 8 5 Z M 8 5 "/>
</g>
</svg>
