<?xml version="1.0" encoding="UTF-8"?>
<svg xmlns="http://www.w3.org/2000/svg" xmlns:xlink="http://www.w3.org/1999/xlink" width="16pt" height="16pt" viewBox="0 0 16 16" version="1.1">
<g id="surface1">
<path style=" stroke:none;fill-rule:nonzero;fill:rgb(30.196078%,30.196078%,30.196078%);fill-opacity:1;" d="M 0 0 L 0 4 L 8 4 L 8 12 L 0 12 L 0 16 L 9 16 L 9 10 L 16 10 L 16 6 L 9 6 L 9 0 Z M 1 1 L 8 1 L 8 3 L 1 3 Z M 4.5 5 C 4.222656 5 4 5.222656 4 5.5 C 4 5.777344 4.222656 6 4.5 6 C 4.777344 6 5 5.777344 5 5.5 C 5 5.222656 4.777344 5 4.5 5 Z M 9 7 L 15 7 L 15 9 L 9 9 Z M 4.5 10 C 4.222656 10 4 10.222656 4 10.5 C 4 10.777344 4.222656 11 4.5 11 C 4.777344 11 5 10.777344 5 10.5 C 5 10.222656 4.777344 10 4.5 10 Z M 1 13 L 8 13 L 8 15 L 1 15 Z M 1 13 "/>
</g>
</svg>
