<?xml version="1.0" encoding="UTF-8"?>
<svg xmlns="http://www.w3.org/2000/svg" xmlns:xlink="http://www.w3.org/1999/xlink" width="16pt" height="16pt" viewBox="0 0 16 16" version="1.1">
<g id="surface1">
<path style=" stroke:none;fill-rule:nonzero;fill:rgb(30.196078%,30.196078%,30.196078%);fill-opacity:1;" d="M 3 0 L 3 1 L 4 1 L 4 0 Z M 12 0 L 12 1 L 13 1 L 13 0 Z M 3 2 L 3 3 L 0 3 L 0 13 L 3 13 L 3 14 L 4 14 L 4 13 L 7 13 L 7 10 L 9 10 L 9 13 L 12 13 L 12 14 L 13 14 L 13 13 L 16 13 L 16 3 L 13 3 L 13 2 L 12 2 L 12 3 L 9 3 L 9 6 L 7 6 L 7 3 L 4 3 L 4 2 Z M 1 4 L 6 4 L 6 12 L 1 12 Z M 10 4 L 15 4 L 15 12 L 10 12 Z M 11 5 L 11 11 L 14 11 L 14 5 Z M 7 7 L 9 7 L 9 9 L 7 9 Z M 3 15 L 3 16 L 4 16 L 4 15 Z M 12 15 L 12 16 L 13 16 L 13 15 Z M 12 15 "/>
</g>
</svg>
