<?xml version="1.0" encoding="UTF-8"?>
<svg xmlns="http://www.w3.org/2000/svg" xmlns:xlink="http://www.w3.org/1999/xlink" width="16pt" height="16pt" viewBox="0 0 16 16" version="1.1">
<g id="surface1">
<path style=" stroke:none;fill-rule:nonzero;fill:rgb(95.686275%,46.666667%,31.372549%);fill-opacity:1;" d="M 11 11 L 11 12 L 16 12 L 16 11 Z M 11 13 L 11 14 L 16 14 L 16 13 Z M 11 15 L 11 16 L 16 16 L 16 15 Z M 11 15 "/>
<path style=" stroke:none;fill-rule:nonzero;fill:rgb(30.196078%,30.196078%,30.196078%);fill-opacity:1;" d="M 7 0 L 7 1.0625 C 5.8125 1.230469 4.726562 1.722656 3.8125 2.40625 L 2.40625 1 L 1 2.40625 L 2.40625 3.8125 C 1.722656 4.726562 1.230469 5.8125 1.0625 7 L 0 7 L 0 9 L 1.0625 9 C 1.230469 10.1875 1.722656 11.273438 2.40625 12.1875 L 1 13.59375 L 2.40625 15 L 3.8125 13.59375 C 4.726562 14.277344 5.8125 14.769531 7 14.9375 L 7 16 L 9 16 L 9 14.9375 C 9.34375 14.886719 9.675781 14.785156 10 14.6875 L 10 13.65625 C 9.675781 13.769531 9.347656 13.847656 9 13.90625 C 8.675781 13.960938 8.339844 14 8 14 C 7.660156 14 7.324219 13.960938 7 13.90625 C 6.085938 13.753906 5.253906 13.386719 4.53125 12.875 C 3.984375 12.484375 3.515625 12.015625 3.125 11.46875 C 2.613281 10.746094 2.246094 9.914062 2.09375 9 C 2.039062 8.675781 2 8.339844 2 8 C 2 7.660156 2.039062 7.324219 2.09375 7 C 2.246094 6.085938 2.613281 5.253906 3.125 4.53125 C 3.515625 3.984375 3.984375 3.515625 4.53125 3.125 C 5.253906 2.613281 6.085938 2.246094 7 2.09375 C 7.324219 2.039062 7.660156 2 8 2 C 8.339844 2 8.675781 2.039062 9 2.09375 C 9.914062 2.246094 10.746094 2.613281 11.46875 3.125 C 12.015625 3.515625 12.515625 3.984375 12.90625 4.53125 C 13.417969 5.253906 13.753906 6.085938 13.90625 7 C 13.960938 7.324219 14 7.660156 14 8 C 14 8.339844 13.960938 8.675781 13.90625 9 C 13.847656 9.347656 13.769531 9.675781 13.65625 10 L 14.6875 10 C 14.785156 9.675781 14.886719 9.34375 14.9375 9 L 16 9 L 16 7 L 14.90625 7 C 14.738281 5.8125 14.277344 4.726562 13.59375 3.8125 L 15 2.40625 L 13.59375 1 L 12.1875 2.40625 C 11.273438 1.722656 10.1875 1.230469 9 1.0625 L 9 0 Z M 6 5 L 6 11 L 11 8 Z M 6 5 "/>
</g>
</svg>
