<?xml version="1.0" encoding="UTF-8"?>
<svg xmlns="http://www.w3.org/2000/svg" xmlns:xlink="http://www.w3.org/1999/xlink" width="20pt" height="16pt" viewBox="0 0 20 16" version="1.1">
<g id="surface1">
<path style=" stroke:none;fill-rule:nonzero;fill:rgb(30.196078%,30.196078%,30.196078%);fill-opacity:1;" d="M 2 0 L 2 3 L 0 6 L 0 16 L 13 16 L 13 15 L 1 15 L 1 7 L 3.078125 7 L 10 10.996094 L 16.921875 7 L 19 7 L 19 9 L 20 9 L 20 6 L 18 3 L 18 0 Z M 3 1 L 17 1 L 17 5.796875 L 10 9.839844 L 3 5.796875 Z M 4 2 L 4 2.984375 L 3.984375 3 L 16.015625 3 L 16 2.984375 L 16 2 Z M 4 4 L 4 5 L 11 5 L 11 4 Z M 17.5 9 C 16.667969 9 16 9.667969 16 10.5 C 16 11.332031 16.667969 12 17.5 12 C 18.332031 12 19 11.332031 19 10.5 C 19 9.667969 18.332031 9 17.5 9 Z M 17 13 C 15.890625 13 15 13.890625 15 15 L 15 16 L 20 16 L 20 15 C 20 13.890625 19.109375 13 18 13 Z M 17 13 "/>
</g>
</svg>
