<?xml version="1.0" encoding="UTF-8"?>
<svg xmlns="http://www.w3.org/2000/svg" xmlns:xlink="http://www.w3.org/1999/xlink" width="16pt" height="16pt" viewBox="0 0 16 16" version="1.1">
<g id="surface1">
<path style=" stroke:none;fill-rule:nonzero;fill:rgb(30.196078%,30.196078%,30.196078%);fill-opacity:1;" d="M 0 0 L 0 1 L 16 1 L 16 0 Z M 0 2 L 0 3 L 13 3 L 13 2 Z M 0 6 L 0 7 L 9 7 L 9 6 Z M 0 8 L 0 9 L 4 9 L 4 8 Z M 6 8 L 6 9 L 8 9 L 8 8 Z M 0 12 L 0 13 L 16 13 L 16 12 Z M 0 14 L 0 15 L 13 15 L 13 14 Z M 14 15 L 14 16 L 16 16 L 16 15 Z M 14 15 "/>
<path style=" stroke:none;fill-rule:nonzero;fill:rgb(11.372549%,60%,95.294118%);fill-opacity:1;" d="M 13 6 L 10 10 L 16 10 Z M 13 6 "/>
</g>
</svg>
