<?xml version="1.0" encoding="UTF-8"?>
<svg xmlns="http://www.w3.org/2000/svg" xmlns:xlink="http://www.w3.org/1999/xlink" width="16pt" height="16pt" viewBox="0 0 16 16" version="1.1">
<g id="surface1">
<path style=" stroke:none;fill-rule:nonzero;fill:rgb(95.686275%,46.666667%,31.372549%);fill-opacity:1;" d="M 12 0 L 14 3 L 16 0 Z M 12 0 "/>
<path style=" stroke:none;fill-rule:nonzero;fill:rgb(30.196078%,30.196078%,30.196078%);fill-opacity:1;" d="M 0 0 L 0 16 L 13 16 L 13 15 L 1 15 L 1 4 L 10 4 L 10 0 Z M 6.4375 6 C 5.371094 6 4.90625 6.347656 4.90625 7.25 L 4.90625 8.46875 C 4.90625 9.027344 4.902344 9.6875 4.3125 9.6875 L 4 9.6875 L 4 10.3125 L 4.3125 10.3125 C 4.902344 10.3125 4.90625 10.972656 4.90625 11.53125 L 4.90625 12.75 C 4.90625 13.652344 5.371094 14 6.4375 14 L 6.4375 13.40625 C 5.726562 13.40625 5.71875 13.179688 5.71875 12.3125 L 5.71875 11.28125 C 5.71875 10.867188 5.566406 10.257812 4.96875 10 C 5.566406 9.742188 5.71875 9.132812 5.71875 8.71875 L 5.71875 7.6875 C 5.71875 6.820312 5.726562 6.59375 6.4375 6.59375 Z M 8 6 C 7.445312 6 7 6.445312 7 7 C 7 7.554688 7.445312 8 8 8 C 8.554688 8 9 7.554688 9 7 C 9 6.445312 8.554688 6 8 6 Z M 9.5625 6 L 9.5625 6.59375 C 10.273438 6.59375 10.28125 6.820312 10.28125 7.6875 L 10.28125 8.71875 C 10.28125 9.132812 10.402344 9.742188 11 10 C 10.402344 10.257812 10.28125 10.867188 10.28125 11.28125 L 10.28125 12.3125 C 10.28125 13.179688 10.273438 13.40625 9.5625 13.40625 L 9.5625 14 C 10.628906 14 11.09375 13.652344 11.09375 12.75 L 11.09375 11.53125 C 11.09375 10.972656 11.140625 10.3125 11.71875 10.3125 L 12 10.3125 L 12 9.6875 L 11.71875 9.6875 C 11.140625 9.6875 11.09375 9.027344 11.09375 8.46875 L 11.09375 7.25 C 11.09375 6.347656 10.628906 6 9.5625 6 Z M 15 6 C 14.449219 6 14 6.449219 14 7 C 14 7.550781 14.449219 8 15 8 C 15.550781 8 16 7.550781 16 7 C 16 6.449219 15.550781 6 15 6 Z M 7 9 L 7 13 L 9 13 L 9 9 Z M 15 10 C 14.449219 10 14 10.449219 14 11 C 14 11.550781 14.449219 12 15 12 C 15.550781 12 16 11.550781 16 11 C 16 10.449219 15.550781 10 15 10 Z M 15 14 C 14.449219 14 14 14.449219 14 15 C 14 15.550781 14.449219 16 15 16 C 15.550781 16 16 15.550781 16 15 C 16 14.449219 15.550781 14 15 14 Z M 15 14 "/>
</g>
</svg>
