<?xml version="1.0" encoding="UTF-8"?>
<svg xmlns="http://www.w3.org/2000/svg" xmlns:xlink="http://www.w3.org/1999/xlink" width="16pt" height="16pt" viewBox="0 0 16 16" version="1.1">
<g id="surface1">
<path style=" stroke:none;fill-rule:nonzero;fill:rgb(30.196078%,30.196078%,30.196078%);fill-opacity:1;" d="M 0 0 L 0 16 L 16 16 L 16 0 Z M 1 1 L 5 1 L 5 3 L 1 3 Z M 6 1 L 10 1 L 10 3 L 6 3 Z M 11 1 L 15 1 L 15 3 L 11 3 Z M 1 4 L 5 4 L 5 6 L 1 6 Z M 6 4 L 15 4 L 15 12.097656 L 6 12.097656 Z M 1 7 L 5 7 L 5 9 L 1 9 Z M 1 10 L 5 10 L 5 12.097656 L 1 12.097656 Z M 1 13.097656 L 5 13.097656 L 5 15 L 1 15 Z M 6 13.097656 L 10 13.097656 L 10 15 L 6 15 Z M 11 13.097656 L 15 13.097656 L 15 15 L 11 15 Z M 11 13.097656 "/>
</g>
</svg>
