<?xml version="1.0" encoding="UTF-8"?>
<svg xmlns="http://www.w3.org/2000/svg" xmlns:xlink="http://www.w3.org/1999/xlink" width="16pt" height="15pt" viewBox="0 0 16 15" version="1.1">
<g id="surface1">
<path style=" stroke:none;fill-rule:nonzero;fill:rgb(30.196078%,30.196078%,30.196078%);fill-opacity:1;" d="M 3.5 0 C 1.566406 0 0 1.789062 0 4 L 0 10 C 0 12.210938 1.566406 14 3.5 14 C 5.433594 14 7 12.210938 7 10 L 7 4 C 7 1.789062 5.433594 0 3.5 0 Z M 12.5 0 C 10.566406 0 9 1.789062 9 4 L 9 10 C 9 12.210938 10.566406 14 12.5 14 C 14.433594 14 16 12.210938 16 10 L 16 4 C 16 1.789062 14.433594 0 12.5 0 Z M 3.5 1 C 4.878906 1 6 2.34375 6 4 L 6 10 C 6 11.65625 4.878906 13 3.5 13 C 2.121094 13 1 11.65625 1 10 L 1 4 C 1 2.34375 2.121094 1 3.5 1 Z M 12.5 1 C 13.878906 1 15 2.34375 15 4 L 15 10 C 15 11.65625 13.878906 13 12.5 13 C 11.121094 13 10 11.65625 10 10 L 10 4 C 10 2.34375 11.121094 1 12.5 1 Z M 7 13 L 7 15 L 9 15 L 9 13 Z M 7 13 "/>
</g>
</svg>
