<?xml version="1.0" encoding="UTF-8"?>
<svg xmlns="http://www.w3.org/2000/svg" xmlns:xlink="http://www.w3.org/1999/xlink" width="17pt" height="16.242188pt" viewBox="0 0 17 16.242188" version="1.1">
<g id="surface1">
<path style=" stroke:none;fill-rule:nonzero;fill:rgb(70.196078%,70.196078%,70.196078%);fill-opacity:1;" d="M 13.5 0 C 11.566406 0 10 1.789062 10 4 L 10 7 C 10 9.210938 11.566406 11 13.5 11 C 15.433594 11 17 9.210938 17 7 L 17 4 C 17 1.789062 15.433594 0 13.5 0 Z M 13.5 1 C 14.878906 1 16 2.34375 16 4 L 16 7 C 16 8.65625 14.878906 10 13.5 10 C 12.121094 10 11 8.65625 11 7 L 11 4 C 11 2.34375 12.121094 1 13.5 1 Z M 13.5 1 "/>
<path style=" stroke:none;fill-rule:nonzero;fill:rgb(85.490196%,26.666667%,32.54902%);fill-opacity:1;" d="M 12.085938 12 L 11.378906 12.707031 L 12.792969 14.121094 L 11.378906 15.535156 L 12.085938 16.242188 L 13.5 14.828125 L 14.914062 16.242188 L 15.621094 15.535156 L 14.207031 14.121094 L 15.621094 12.707031 L 14.914062 12 L 13.5 13.414062 Z M 12.085938 12 "/>
<path style=" stroke:none;fill-rule:nonzero;fill:rgb(30.196078%,30.196078%,30.196078%);fill-opacity:1;" d="M 5.5 0 C 3.566406 0 2 1.789062 2 4 L 2 7 C 2 9.210938 3.566406 11 5.5 11 C 7.433594 11 9 9.210938 9 7 L 9 4 C 9 1.789062 7.433594 0 5.5 0 Z M 5.5 1 C 6.878906 1 8 2.34375 8 4 L 8 7 C 8 8.65625 6.878906 10 5.5 10 C 4.121094 10 3 8.65625 3 7 L 3 4 C 3 2.34375 4.121094 1 5.5 1 Z M 0 10 L 0 11 L 1 11 L 1 10 Z M 0 10 "/>
</g>
</svg>
