<?xml version="1.0" encoding="UTF-8"?>
<svg xmlns="http://www.w3.org/2000/svg" xmlns:xlink="http://www.w3.org/1999/xlink" width="15pt" height="16pt" viewBox="0 0 15 16" version="1.1">
<g id="surface1">
<path style=" stroke:none;fill-rule:nonzero;fill:rgb(30.196078%,30.196078%,30.196078%);fill-opacity:1;" d="M 0 0 L 0 16 L 6 16 L 6 15 L 1 15 L 1 1 L 13 1 L 13 7 L 14 7 L 14 0 Z M 2 2 L 2 8 L 12 8 L 12 2 Z M 3 3 L 11 3 L 11 7 L 3 7 Z M 13 8 L 7 14 L 7 16 L 9 16 L 15 10 Z M 12.71875 9.6875 L 13.28125 10.28125 L 8.3125 15.28125 L 7.71875 14.6875 Z M 2 10 L 2 11 L 8 11 L 8 10 Z M 2 12 L 2 13 L 6 13 L 6 12 Z M 2 12 "/>
</g>
</svg>
