<?xml version="1.0" encoding="UTF-8"?>
<svg xmlns="http://www.w3.org/2000/svg" xmlns:xlink="http://www.w3.org/1999/xlink" width="16pt" height="17pt" viewBox="0 0 16 17" version="1.1">
<g id="surface1">
<path style=" stroke:none;fill-rule:nonzero;fill:rgb(30.196078%,30.196078%,30.196078%);fill-opacity:1;" d="M 4.5 0 C 2.566406 0 1 1.789062 1 4 L 1 7 C 1 9.210938 2.566406 11 4.5 11 C 6.433594 11 8 9.210938 8 7 L 8 4 C 8 1.789062 6.433594 0 4.5 0 Z M 12.5 0 C 10.566406 0 9 1.789062 9 4 L 9 7 C 9 9.210938 10.566406 11 12.5 11 C 14.433594 11 16 9.210938 16 7 L 16 4 C 16 1.789062 14.433594 0 12.5 0 Z M 4.5 1 C 5.878906 1 7 2.34375 7 4 L 7 7 C 7 8.65625 5.878906 10 4.5 10 C 3.121094 10 2 8.65625 2 7 L 2 4 C 2 2.34375 3.121094 1 4.5 1 Z M 12.5 1 C 13.878906 1 15 2.34375 15 4 L 15 7 C 15 8.65625 13.878906 10 12.5 10 C 11.121094 10 10 8.65625 10 7 L 10 4 C 10 2.34375 11.121094 1 12.5 1 Z M 0 10 L 0 11 L 1 11 L 1 10 Z M 0 10 "/>
<path style=" stroke:none;fill-rule:nonzero;fill:rgb(11.372549%,60%,95.294118%);fill-opacity:1;" d="M 12 12 L 12 14 L 10 14 L 10 15 L 12 15 L 12 17 L 13 17 L 13 15 L 15 15 L 15 14 L 13 14 L 13 12 Z M 12 12 "/>
</g>
</svg>
