<?xml version="1.0" encoding="UTF-8"?>
<svg xmlns="http://www.w3.org/2000/svg" xmlns:xlink="http://www.w3.org/1999/xlink" width="16pt" height="16pt" viewBox="0 0 16 16" version="1.1">
<g id="surface1">
<path style=" stroke:none;fill-rule:nonzero;fill:rgb(30.196078%,30.196078%,30.196078%);fill-opacity:1;" d="M 0 0 L 0 1 L 1 1 L 1 3 L 0 3 L 0 4 L 5 4 L 5 3 L 4 3 L 4 1 L 5 1 L 5 0 Z M 7 0 L 7 1 L 16 1 L 16 0 Z M 2 1 L 3 1 L 3 3 L 2 3 Z M 7 2 L 7 3 L 13 3 L 13 2 Z M 7 6 L 7 7 L 16 7 L 16 6 Z M 7 8 L 7 9 L 9 9 L 9 8 Z M 11.875 8 L 11.875 9 L 16 9 L 16 8 Z M 7 12 L 7 13 L 16 13 L 16 12 Z M 7 14 L 7 15 L 13 15 L 13 14 Z M 14 15 L 14 16 L 16 16 L 16 15 Z M 14 15 "/>
<path style=" stroke:none;fill-rule:nonzero;fill:rgb(11.372549%,60%,95.294118%);fill-opacity:1;" d="M 1 6 L 1 7 L 2 7 L 2 9 L 1 9 L 1 10 L 4 10 L 4 9 L 3 9 L 3 7 L 4 7 L 4 6 Z M 1 6 "/>
</g>
</svg>
