<?xml version="1.0" encoding="UTF-8"?>
<svg xmlns="http://www.w3.org/2000/svg" xmlns:xlink="http://www.w3.org/1999/xlink" width="18pt" height="16pt" viewBox="0 0 18 16" version="1.1">
<g id="surface1">
<path style=" stroke:none;fill-rule:nonzero;fill:rgb(30.196078%,30.196078%,30.196078%);fill-opacity:1;" d="M 4 0 L 4 0.996094 C 1.683594 1.351562 0.0703125 2.847656 0.0429688 5.15625 C 0.0429688 6.710938 0.761719 7.917969 2.679688 8.398438 L 4 8.652344 L 4 13.4375 C 2.835938 13.320312 1.476562 13.027344 0.460938 12.535156 L 0 13.964844 C 0.425781 14.226562 0.925781 14.359375 1.636719 14.5625 C 2.234375 14.726562 3.238281 14.996094 4 15.0625 L 4 16 L 5 16 L 5 14.984375 C 7.351562 14.5625 8.972656 13.378906 9 11.175781 C 9 10.191406 8.730469 9.367188 8.203125 8.835938 C 7.671875 8.300781 6.851562 7.738281 5.824219 7.496094 L 5 7.28125 L 5 2.5 C 5.511719 2.542969 6.1875 2.605469 6.640625 2.734375 C 7.210938 2.886719 7.859375 3.171875 8.207031 3.367188 L 8.78125 2 C 7.960938 1.496094 6.328125 1.09375 5 0.996094 L 5 0 Z M 14 1 C 11.789062 1 10 2.789062 10 5 L 10 11 C 10 13.210938 11.789062 15 14 15 C 16.210938 15 18 13.210938 18 11 L 18 5 C 18 2.789062 16.210938 1 14 1 Z M 14 2 C 15.65625 2 17 3.34375 17 5 L 17 11 C 17 12.65625 15.65625 14 14 14 C 12.34375 14 11 12.65625 11 11 L 11 5 C 11 3.34375 12.34375 2 14 2 Z M 4 2.515625 L 4 7.058594 C 0.765625 6.695312 0.574219 2.96875 4 2.515625 Z M 5 8.863281 C 8.894531 9.554688 7.507812 13.335938 5 13.566406 Z M 5 8.863281 "/>
</g>
</svg>
