<?xml version="1.0" encoding="UTF-8"?>
<svg xmlns="http://www.w3.org/2000/svg" xmlns:xlink="http://www.w3.org/1999/xlink" width="16.003906pt" height="14.005859pt" viewBox="0 0 16.003906 14.005859" version="1.1">
<g id="surface1">
<path style=" stroke:none;fill-rule:nonzero;fill:rgb(30.196078%,30.196078%,30.196078%);fill-opacity:1;" d="M 0 0 L 0 10 L 0.0117188 10 L 0 10.011719 L 3.992188 14.003906 L 7 14.003906 L 7 13.003906 L 5 13.003906 L 5 9.003906 L 1 9.003906 L 1 1.003906 L 15 1.003906 L 15 6.003906 L 16 6.003906 C 16.003906 6.023438 16.003906 4 16.003906 1.003906 L 16.003906 0.00390625 L 16 0.00390625 L 16 0 Z M 14 6.003906 L 8 12.003906 L 8 14.003906 L 10 14.003906 L 16 8.003906 Z M 13.71875 7.691406 L 14.28125 8.285156 L 9.3125 13.285156 L 8.71875 12.691406 Z M 13.71875 7.691406 "/>
</g>
</svg>
