<?xml version="1.0" encoding="UTF-8"?>
<svg xmlns="http://www.w3.org/2000/svg" xmlns:xlink="http://www.w3.org/1999/xlink" width="16pt" height="16.779297pt" viewBox="0 0 16 16.779297" version="1.1">
<g id="surface1">
<path style=" stroke:none;fill-rule:nonzero;fill:rgb(30.196078%,30.196078%,30.196078%);fill-opacity:1;" d="M 13.480469 0 L 1.480469 16 L 2.050781 16.425781 L 2.40625 16.703125 L 2.410156 16.699219 L 2.519531 16.78125 L 14.519531 0.78125 L 14.050781 0.429688 L 13.59375 0.078125 L 13.589844 0.0820312 Z M 3.5 1.390625 C 1.566406 1.390625 0 2.957031 0 4.890625 C 0 6.820312 1.566406 8.390625 3.5 8.390625 C 5.433594 8.390625 7 6.820312 7 4.890625 C 7 2.957031 5.433594 1.390625 3.5 1.390625 Z M 3.5 2.390625 C 4.878906 2.390625 6 3.507812 6 4.890625 C 6 6.269531 4.878906 7.390625 3.5 7.390625 C 2.121094 7.390625 1 6.269531 1 4.890625 C 1 3.507812 2.121094 2.390625 3.5 2.390625 Z M 12.5 9.390625 C 10.566406 9.390625 9 10.957031 9 12.890625 C 9 14.820312 10.566406 16.390625 12.5 16.390625 C 14.433594 16.390625 16 14.820312 16 12.890625 C 16 10.957031 14.433594 9.390625 12.5 9.390625 Z M 12.5 10.390625 C 13.878906 10.390625 15 11.507812 15 12.890625 C 15 14.269531 13.878906 15.390625 12.5 15.390625 C 11.121094 15.390625 10 14.269531 10 12.890625 C 10 11.507812 11.121094 10.390625 12.5 10.390625 Z M 12.5 10.390625 "/>
</g>
</svg>
