<?xml version="1.0" encoding="UTF-8"?>
<svg xmlns="http://www.w3.org/2000/svg" xmlns:xlink="http://www.w3.org/1999/xlink" width="15pt" height="16pt" viewBox="0 0 15 16" version="1.1">
<g id="surface1">
<path style=" stroke:none;fill-rule:nonzero;fill:rgb(30.196078%,30.196078%,30.196078%);fill-opacity:1;" d="M 6 0 L 6 1 L 15 1 L 15 0 Z M 6 2 L 6 3 L 12 3 L 12 2 Z M 6 6 L 6 7 L 15 7 L 15 6 Z M 6 8 L 6 9 L 8 9 L 8 8 Z M 6 12 L 6 13 L 15 13 L 15 12 Z M 6 14 L 6 15 L 12 15 L 12 14 Z M 13 15 L 13 16 L 15 16 L 15 15 Z M 13 15 "/>
<path style=" stroke:none;fill-rule:nonzero;fill:rgb(11.372549%,60%,95.294118%);fill-opacity:1;" d="M 1.296875 0 L 0 1.023438 L 0.410156 1.535156 L 0.875 1.164062 C 0.929688 1.121094 1.027344 1.027344 1.171875 0.890625 L 1.15625 1.304688 L 1.148438 1.6875 L 1.148438 4 L 2 4 L 2 0 Z M 1.523438 6 C 1.324219 6 1.140625 6.019531 0.976562 6.054688 C 0.8125 6.09375 0.660156 6.144531 0.523438 6.210938 C 0.386719 6.28125 0.210938 6.398438 0 6.5625 L 0.492188 7.097656 C 0.660156 6.96875 0.824219 6.871094 0.980469 6.800781 C 1.136719 6.730469 1.296875 6.695312 1.460938 6.695312 C 1.621094 6.695312 1.746094 6.734375 1.839844 6.8125 C 1.933594 6.890625 1.984375 7.007812 1.984375 7.167969 C 1.984375 7.273438 1.960938 7.375 1.917969 7.472656 C 1.875 7.570312 1.804688 7.679688 1.707031 7.796875 C 1.609375 7.910156 1.402344 8.121094 1.085938 8.421875 L 0.0117188 9.421875 L 0.0117188 10 L 3 10 L 3 9.296875 L 1.136719 9.296875 L 1.136719 9.261719 L 1.6875 8.78125 C 2.054688 8.472656 2.308594 8.234375 2.453125 8.066406 C 2.597656 7.902344 2.707031 7.738281 2.773438 7.578125 C 2.84375 7.421875 2.882812 7.25 2.882812 7.066406 C 2.882812 6.859375 2.824219 6.671875 2.710938 6.511719 C 2.597656 6.351562 2.4375 6.226562 2.234375 6.132812 C 2.03125 6.042969 1.792969 6 1.523438 6 Z M 1.523438 6 "/>
</g>
</svg>
