<?xml version="1.0" encoding="UTF-8"?>
<svg xmlns="http://www.w3.org/2000/svg" xmlns:xlink="http://www.w3.org/1999/xlink" width="16pt" height="16pt" viewBox="0 0 16 16" version="1.1">
<g id="surface1">
<path style=" stroke:none;fill-rule:nonzero;fill:rgb(30.196078%,30.196078%,30.196078%);fill-opacity:1;" d="M 0 0 L 0 4 L 4 4 L 4 0 Z M 5 0 L 5 1 L 16 1 L 16 0 Z M 1 1 L 3 1 L 3 3 L 1 3 Z M 5 2 L 5 3 L 11 3 L 11 2 Z M 14 2 L 14 3 L 16 3 L 16 2 Z M 0 5 L 0 9 L 4 9 L 4 5 Z M 5 5 L 5 6 L 16 6 L 16 5 Z M 1 6 L 3 6 L 3 8 L 1 8 Z M 5 7 L 5 8 L 13 8 L 13 7 Z M 14 8 L 8 14 L 8 16 L 10 16 L 16 10 Z M 13.71875 9.6875 L 14.28125 10.28125 L 9.3125 15.28125 L 8.71875 14.6875 Z M 0 10 L 0 14 L 4 14 L 4 10 Z M 5 10 L 5 11 L 9 11 L 9 10 Z M 1 11 L 3 11 L 3 13 L 1 13 Z M 5 12 L 5 13 L 7 13 L 7 12 Z M 5 12 "/>
</g>
</svg>
