<?xml version="1.0" encoding="UTF-8"?>
<svg xmlns="http://www.w3.org/2000/svg" xmlns:xlink="http://www.w3.org/1999/xlink" width="16pt" height="1045.3622pt" viewBox="0 0 16 1045.3622" version="1.1">
<g id="surface1">
<path style=" stroke:none;fill-rule:nonzero;fill:rgb(95.686275%,46.666667%,31.372549%);fill-opacity:1;" d="M 6 1043.363281 C 5.449219 1043.363281 5 1043.808594 5 1044.363281 C 5 1044.914062 5.449219 1045.363281 6 1045.363281 C 6.550781 1045.363281 7 1044.914062 7 1044.363281 C 7 1043.808594 6.550781 1043.363281 6 1043.363281 Z M 10 1043.363281 C 9.449219 1043.363281 9 1043.808594 9 1044.363281 C 9 1044.914062 9.449219 1045.363281 10 1045.363281 C 10.550781 1045.363281 11 1044.914062 11 1044.363281 C 11 1043.808594 10.550781 1043.363281 10 1043.363281 Z M 14 1043.363281 C 13.449219 1043.363281 13 1043.808594 13 1044.363281 C 13 1044.914062 13.449219 1045.363281 14 1045.363281 C 14.550781 1045.363281 15 1044.914062 15 1044.363281 C 15 1043.808594 14.550781 1043.363281 14 1043.363281 Z M 14 1043.363281 "/>
<path style=" stroke:none;fill-rule:nonzero;fill:rgb(30.196078%,30.196078%,30.196078%);fill-opacity:1;" d="M 0 0 L 0 1 L 16 1 L 16 0 Z M 3.5 2 L 3.28125 2.214844 L 0 5.445312 L 0.71875 6.15625 L 3 3.90625 L 3 16 L 4 16 L 4 3.90625 L 6.28125 6.15625 L 7 5.445312 L 3.71875 2.214844 Z M 8 5 L 8 6 L 16 6 L 16 5 Z M 8 10 L 8 11 L 16 11 L 16 10 Z M 8 10 "/>
</g>
</svg>
