<?xml version="1.0" encoding="UTF-8"?>
<svg xmlns="http://www.w3.org/2000/svg" xmlns:xlink="http://www.w3.org/1999/xlink" width="16pt" height="16pt" viewBox="0 0 16 16" version="1.1">
<g id="surface1">
<path style=" stroke:none;fill-rule:nonzero;fill:rgb(30.196078%,30.196078%,30.196078%);fill-opacity:1;" d="M 1 0 C 0.449219 0 0 0.449219 0 1 C 0 1.550781 0.449219 2 1 2 C 1.550781 2 2 1.550781 2 1 C 2 0.449219 1.550781 0 1 0 Z M 4 0 L 4 1 L 16 1 L 16 0 Z M 4 2 L 4 3 L 13 3 L 13 2 Z M 1 6 C 0.449219 6 0 6.449219 0 7 C 0 7.550781 0.449219 8 1 8 C 1.550781 8 2 7.550781 2 7 C 2 6.449219 1.550781 6 1 6 Z M 4 6 L 4 7 L 16 7 L 16 6 Z M 4 8 L 4 9 L 10 9 L 10 8 Z M 13 8 L 13 9 L 16 9 L 16 8 Z M 1 13 C 0.449219 13 0 13.449219 0 14 C 0 14.550781 0.449219 15 1 15 C 1.550781 15 2 14.550781 2 14 C 2 13.449219 1.550781 13 1 13 Z M 4 13 L 4 14 L 9 14 L 9 13 Z M 4 15 L 4 16 L 9 16 L 9 15 Z M 4 15 "/>
<path style=" stroke:none;fill-rule:nonzero;fill:rgb(11.372549%,60%,95.294118%);fill-opacity:1;" d="M 10 10 L 10 14 L 11 14 L 11 11 L 14 11 L 14 10 Z M 15 10 L 15 15 L 10 15 L 10 16 L 16 16 L 16 10 Z M 15 10 "/>
</g>
</svg>
