<?xml version="1.0" encoding="UTF-8"?>
<svg xmlns="http://www.w3.org/2000/svg" xmlns:xlink="http://www.w3.org/1999/xlink" width="18pt" height="14pt" viewBox="0 0 18 14" version="1.1">
<g id="surface1">
<path style=" stroke:none;fill-rule:nonzero;fill:rgb(30.196078%,30.196078%,30.196078%);fill-opacity:1;" d="M 9 0 C 5.6875 0 3 2.6875 3 6 C 3 6.042969 3.003906 6.085938 3.003906 6.128906 C 1.238281 6.582031 0 8.175781 0 10 C 0 12.210938 1.789062 14 4 14 L 13 14 C 15.761719 14 18 11.761719 18 9 C 17.996094 6.917969 16.707031 5.054688 14.757812 4.324219 C 14.011719 1.761719 11.667969 0 9 0 Z M 9 1 C 11.417969 1 13.488281 2.730469 13.921875 5.109375 C 15.722656 5.539062 17 7.148438 17 9 C 17 11.210938 15.210938 13 13 13 L 4 13 C 2.34375 13 1 11.65625 1 10 C 1 8.34375 2.34375 7 4 7 C 4.035156 7 4.070312 7.003906 4.109375 7.003906 C 4.039062 6.675781 4 6.339844 4 6 C 4 3.238281 6.238281 1 9 1 Z M 9 1 "/>
</g>
</svg>
