<?xml version="1.0" encoding="UTF-8"?>
<svg xmlns="http://www.w3.org/2000/svg" xmlns:xlink="http://www.w3.org/1999/xlink" width="18pt" height="18pt" viewBox="0 0 18 18" version="1.1">
<g id="surface1">
<path style=" stroke:none;fill-rule:nonzero;fill:rgb(30.196078%,30.196078%,30.196078%);fill-opacity:1;" d="M 4 4 C 3.449219 4 3 4.449219 3 5 C 3 5.550781 3.449219 6 4 6 C 4.550781 6 5 5.550781 5 5 C 5 4.449219 4.550781 4 4 4 Z M 7 4 L 7 5 L 15 5 L 15 4 Z M 7 8 L 7 9 L 15 9 L 15 8 Z M 7 10 L 7 11 L 11 11 L 11 10 Z M 13 10 L 13 11 L 15 11 L 15 10 Z M 4 13 C 3.449219 13 3 13.449219 3 14 C 3 14.550781 3.449219 15 4 15 C 4.550781 15 5 14.550781 5 14 C 5 13.449219 4.550781 13 4 13 Z M 7 14 L 7 15 L 15 15 L 15 14 Z M 7 14 "/>
<path style=" stroke:none;fill-rule:nonzero;fill:rgb(11.372549%,60%,95.294118%);fill-opacity:1;" d="M 0 0 L 0 3 L 3 0 Z M 15 0 L 18 3 L 18 0 Z M 0 15 L 0 18 L 3 18 Z M 18 15 L 15 18 L 18 18 Z M 18 15 "/>
</g>
</svg>
