<?xml version="1.0" encoding="UTF-8"?>
<svg xmlns="http://www.w3.org/2000/svg" xmlns:xlink="http://www.w3.org/1999/xlink" width="14pt" height="20pt" viewBox="0 0 14 20" version="1.1">
<g id="surface1">
<path style=" stroke:none;fill-rule:nonzero;fill:rgb(30.196078%,30.196078%,30.196078%);fill-opacity:1;" d="M 0 0 L 0 1 L 14 1 L 14 0 Z M 7 4 C 4.230469 4 2 6.230469 2 9 L 2 15 C 2 17.769531 4.230469 20 7 20 C 9.769531 20 12 17.769531 12 15 L 12 9 C 12 6.230469 9.769531 4 7 4 Z M 8 6 C 9.109375 6 10 6.890625 10 8 L 10 16 C 10 17.109375 9.109375 18 8 18 C 6.890625 18 6 17.109375 6 16 L 6 8 C 6 6.890625 6.890625 6 8 6 Z M 8 6 "/>
</g>
</svg>
