<?xml version="1.0" encoding="UTF-8"?>
<svg xmlns="http://www.w3.org/2000/svg" xmlns:xlink="http://www.w3.org/1999/xlink" width="16pt" height="16pt" viewBox="0 0 16 16" version="1.1">
<g id="surface1">
<path style=" stroke:none;fill-rule:nonzero;fill:rgb(30.196078%,30.196078%,30.196078%);fill-opacity:1;" d="M 0 0 L 0 16 L 16 16 L 16 0 Z M 1 1 L 15 1 L 15 15 L 1 15 Z M 3 2 C 2.449219 2 2 2.449219 2 3 C 2 3.550781 2.449219 4 3 4 C 3.550781 4 4 3.550781 4 3 C 4 2.449219 3.550781 2 3 2 Z M 5 2 L 5 3 L 14 3 L 14 2 Z M 5 4 L 5 5 L 11 5 L 11 4 Z M 3 6 C 2.449219 6 2 6.449219 2 7 C 2 7.550781 2.449219 8 3 8 C 3.550781 8 4 7.550781 4 7 C 4 6.449219 3.550781 6 3 6 Z M 5 6 L 5 7 L 14 7 L 14 6 Z M 5 8 L 5 9 L 7 9 L 7 8 Z M 3 10 C 2.449219 10 2 10.449219 2 11 C 2 11.550781 2.449219 12 3 12 C 3.550781 12 4 11.550781 4 11 C 4 10.449219 3.550781 10 3 10 Z M 5 10 L 5 11 L 14 11 L 14 10 Z M 5 12 L 5 13 L 11 13 L 11 12 Z M 12 13 L 12 14 L 14 14 L 14 13 Z M 12 13 "/>
</g>
</svg>
