<?xml version="1.0" encoding="UTF-8"?>
<svg xmlns="http://www.w3.org/2000/svg" xmlns:xlink="http://www.w3.org/1999/xlink" width="16pt" height="16pt" viewBox="0 0 16 16" version="1.1">
<g id="surface1">
<path style=" stroke:none;fill-rule:nonzero;fill:rgb(30.196078%,30.196078%,30.196078%);fill-opacity:1;" d="M 1 0 L 1 14 L 0 14 L 0 15 L 1 15 L 1 16 L 2 16 L 2 15 L 14 15 L 14 16 L 15 16 L 15 15 L 16 15 L 16 14 L 15 14 L 15 0 L 14 0 L 14 14 L 2 14 L 2 0 Z M 5 2 L 5 4 L 3 4 L 3 5 L 5 5 L 5 9 L 3 9 L 3 10 L 5 10 L 5 12 L 6 12 L 6 10 L 10 10 L 10 12 L 11 12 L 11 10 L 13 10 L 13 9 L 11 9 L 11 5 L 13 5 L 13 4 L 11 4 L 11 2 L 10 2 L 10 4 L 6 4 L 6 2 Z M 6 5 L 10 5 L 10 9 L 6 9 Z M 6 5 "/>
</g>
</svg>
