<?xml version="1.0" encoding="UTF-8"?>
<svg xmlns="http://www.w3.org/2000/svg" xmlns:xlink="http://www.w3.org/1999/xlink" width="18.666667pt" height="21.333333pt" viewBox="0 0 18.666667 21.333333" version="1.1">
<g id="surface1">
<path style=" stroke:none;fill-rule:nonzero;fill:rgb(30.196078%,30.196078%,30.196078%);fill-opacity:1;" d="M 0 0 L 0 20 L 10 20 L 10 18.75 L 1.25 18.75 L 1.25 1.25 L 11.25 1.25 L 11.25 6.25 L 16.25 6.25 L 16.25 12.5 L 17.5 12.5 L 17.5 5 L 12.5 0 Z M 11.25 10 C 9.175781 10 7.5 11.675781 7.5 13.75 C 7.5 15.824219 9.175781 17.5 11.25 17.5 C 12.0625 17.5 12.828125 17.230469 13.4375 16.796875 L 16.601562 20 L 17.5 19.101562 L 14.296875 15.9375 C 14.730469 15.328125 15 14.5625 15 13.75 C 15 11.675781 13.324219 10 11.25 10 Z M 11.25 11.25 C 12.636719 11.25 13.75 12.363281 13.75 13.75 C 13.75 15.136719 12.636719 16.25 11.25 16.25 C 9.863281 16.25 8.75 15.136719 8.75 13.75 C 8.75 12.363281 9.863281 11.25 11.25 11.25 Z M 11.25 11.25 "/>
</g>
</svg>
