<?xml version="1.0" encoding="UTF-8"?>
<svg xmlns="http://www.w3.org/2000/svg" xmlns:xlink="http://www.w3.org/1999/xlink" width="16pt" height="11pt" viewBox="0 0 16 11" version="1.1">
<g id="surface1">
<path style=" stroke:none;fill-rule:nonzero;fill:rgb(70.196078%,70.196078%,70.196078%);fill-opacity:1;" d="M 14.96875 1.03125 C 14.980469 1.101562 15 1.175781 15 1.25 L 15 8.75 C 15 9.441406 14.441406 10 13.75 10 L 1.25 10 C 1.175781 10 1.101562 9.980469 1.03125 9.96875 C 1.136719 10.554688 1.632812 11 2.25 11 L 14.75 11 C 15.441406 11 16 10.441406 16 9.75 L 16 2.25 C 16 1.632812 15.554688 1.136719 14.96875 1.03125 Z M 14.96875 1.03125 "/>
<path style=" stroke:none;fill-rule:nonzero;fill:rgb(30.196078%,30.196078%,30.196078%);fill-opacity:1;" d="M 1.25 0 C 0.558594 0 0 0.558594 0 1.25 L 0 8.75 C 0 9.441406 0.558594 10 1.25 10 L 13.75 10 C 14.441406 10 15 9.441406 15 8.75 L 15 1.25 C 15 0.558594 14.441406 0 13.75 0 Z M 11 2 L 12 2 L 12 6 L 6 6 L 6 8 L 3 5.5 L 6 3 L 6 5 L 11 5 Z M 11 2 "/>
</g>
</svg>
