<?xml version="1.0" encoding="UTF-8"?>
<svg xmlns="http://www.w3.org/2000/svg" xmlns:xlink="http://www.w3.org/1999/xlink" width="17pt" height="16pt" viewBox="0 0 17 16" version="1.1">
<g id="surface1">
<path style=" stroke:none;fill-rule:nonzero;fill:rgb(30.196078%,30.196078%,30.196078%);fill-opacity:1;" d="M 2 0 L 2 5 L 0 5 L 0 13 L 4 13 L 4 16 L 12 16 L 12 13 L 13 13 L 13 10 L 3 10 L 3 12 L 1 12 L 1 6 L 15 6 L 15 10 L 16 10 L 16 5 L 14 5 L 14 0 Z M 3 1 L 13 1 L 13 5 L 12 5 L 12 4 L 4 4 L 4 5 L 3 5 Z M 4 2 L 4 3 L 12 3 L 12 2 Z M 2 7 L 2 8 L 5 8 L 5 7 Z M 5 13 L 11 13 L 11 15 L 5 15 Z M 5 13 "/>
<path style=" stroke:none;fill-rule:nonzero;fill:rgb(11.372549%,60%,95.294118%);fill-opacity:1;" d="M 14 11 L 14 16 L 17 13.5 Z M 14 11 "/>
</g>
</svg>
