<?xml version="1.0" encoding="UTF-8"?>
<svg xmlns="http://www.w3.org/2000/svg" xmlns:xlink="http://www.w3.org/1999/xlink" width="17pt" height="16pt" viewBox="0 0 17 16" version="1.1">
<g id="surface1">
<path style=" stroke:none;fill-rule:nonzero;fill:rgb(95.686275%,46.666667%,31.372549%);fill-opacity:1;" d="M 16 6 C 15.449219 6 15 6.449219 15 7 C 15 7.550781 15.449219 8 16 8 C 16.550781 8 17 7.550781 17 7 C 17 6.449219 16.550781 6 16 6 Z M 16 10 C 15.449219 10 15 10.449219 15 11 C 15 11.550781 15.449219 12 16 12 C 16.550781 12 17 11.550781 17 11 C 17 10.449219 16.550781 10 16 10 Z M 16 14 C 15.449219 14 15 14.449219 15 15 C 15 15.550781 15.449219 16 16 16 C 16.550781 16 17 15.550781 17 15 C 17 14.449219 16.550781 14 16 14 Z M 16 14 "/>
<path style=" stroke:none;fill-rule:nonzero;fill:rgb(30.196078%,30.196078%,30.196078%);fill-opacity:1;" d="M 2 0 L 2 5 L 0 5 L 0 13 L 4 13 L 4 16 L 12 16 L 12 13 L 14 13 L 14 12 L 13 12 L 13 10 L 3 10 L 3 12 L 1 12 L 1 6 L 15 6 L 15 5 L 14 5 L 14 0 Z M 3 1 L 13 1 L 13 5 L 12 5 L 12 4 L 4 4 L 4 5 L 3 5 Z M 4 2 L 4 3 L 12 3 L 12 2 Z M 2 7 L 2 8 L 5 8 L 5 7 Z M 5 13 L 11 13 L 11 15 L 5 15 Z M 5 13 "/>
</g>
</svg>
