<?xml version="1.0" encoding="UTF-8"?>
<svg xmlns="http://www.w3.org/2000/svg" xmlns:xlink="http://www.w3.org/1999/xlink" width="16.003906pt" height="14.003906pt" viewBox="0 0 16.003906 14.003906" version="1.1">
<g id="surface1">
<path style=" stroke:none;fill-rule:nonzero;fill:rgb(30.196078%,30.196078%,30.196078%);fill-opacity:1;" d="M 0 0 L 0 10 L 0.0117188 10 L 0 10.011719 L 3.992188 14.003906 L 16.003906 14.003906 L 16.003906 0.00390625 L 16 0.00390625 L 16 0 Z M 1 1.003906 L 15 1.003906 L 15 13.003906 L 5 13.003906 L 5 9.003906 L 1 9.003906 Z M 6.5 2.007812 C 5.851562 2.007812 5.300781 2.425781 5.09375 3.007812 L 3 3.007812 L 3 4.007812 L 5.09375 4.007812 C 5.300781 4.589844 5.851562 5.007812 6.5 5.007812 C 7.152344 5.007812 7.703125 4.589844 7.910156 4.007812 L 13 4.007812 L 13 3.007812 L 7.910156 3.007812 C 7.703125 2.425781 7.152344 2.007812 6.5 2.007812 Z M 9.457031 6.007812 C 8.839844 6.027344 8.296875 6.425781 8.089844 7.007812 L 3 7.007812 L 3 8.007812 L 8.089844 8.007812 C 8.296875 8.59375 8.84375 8.988281 9.464844 9.007812 L 9.566406 9.007812 C 10.179688 8.976562 10.710938 8.582031 10.914062 8.007812 L 13 8.007812 L 13 7.007812 L 10.914062 7.007812 C 10.703125 6.410156 10.136719 6.007812 9.5 6.007812 C 9.488281 6.007812 9.472656 6.007812 9.457031 6.007812 Z M 9.5 7.007812 C 9.777344 7.007812 10 7.230469 10 7.507812 C 10 7.785156 9.777344 8.007812 9.5 8.007812 C 9.226562 8.007812 9 7.785156 9 7.507812 C 9 7.230469 9.226562 7.007812 9.5 7.007812 Z M 9.5 7.007812 "/>
</g>
</svg>
