<?xml version="1.0" encoding="UTF-8"?>
<svg xmlns="http://www.w3.org/2000/svg" xmlns:xlink="http://www.w3.org/1999/xlink" width="14pt" height="16pt" viewBox="0 0 14 16" version="1.1">
<g id="surface1">
<path style=" stroke:none;fill-rule:nonzero;fill:rgb(30.196078%,30.196078%,30.196078%);fill-opacity:1;" d="M 5 0 C 2.238281 0 0 2.238281 0 5 C 0 7.761719 2.238281 10 5 10 L 5 16 L 6 16 L 6 1 L 7 1 L 7 16 L 8 16 L 8 0 Z M 5 0 "/>
<path style=" stroke:none;fill-rule:nonzero;fill:rgb(95.686275%,46.666667%,31.372549%);fill-opacity:1;" d="M 13 6 C 12.449219 6 12 6.449219 12 7 C 12 7.550781 12.449219 8 13 8 C 13.550781 8 14 7.550781 14 7 C 14 6.449219 13.550781 6 13 6 Z M 13 10 C 12.449219 10 12 10.449219 12 11 C 12 11.550781 12.449219 12 13 12 C 13.550781 12 14 11.550781 14 11 C 14 10.449219 13.550781 10 13 10 Z M 13 14 C 12.449219 14 12 14.449219 12 15 C 12 15.550781 12.449219 16 13 16 C 13.550781 16 14 15.550781 14 15 C 14 14.449219 13.550781 14 13 14 Z M 13 14 "/>
</g>
</svg>
