<?xml version="1.0" encoding="UTF-8"?>
<svg xmlns="http://www.w3.org/2000/svg" xmlns:xlink="http://www.w3.org/1999/xlink" width="15pt" height="16pt" viewBox="0 0 15 16" version="1.1">
<g id="surface1">
<path style=" stroke:none;fill-rule:nonzero;fill:rgb(30.196078%,30.196078%,30.196078%);fill-opacity:1;" d="M 0 0 L 0 16 L 6 16 L 6 15 L 1 15 L 1 1 L 9 1 L 9 5 L 13 5 L 13 7 L 14 7 L 14 4 L 10 0 Z M 8 8 L 8 10 L 7 10 L 7 15 L 9 15 L 9 16 L 13 16 L 13 15 L 15 15 L 15 10 L 14 10 L 14 8 Z M 9 9 L 13 9 L 13 10 L 9 10 Z M 8 11 L 14 11 L 14 14 L 8 14 Z M 11 12 L 11 13 L 13 13 L 13 12 Z M 11 12 "/>
</g>
</svg>
