<?xml version="1.0" encoding="UTF-8"?>
<svg xmlns="http://www.w3.org/2000/svg" xmlns:xlink="http://www.w3.org/1999/xlink" width="16pt" height="18pt" viewBox="0 0 16 18" version="1.1">
<g id="surface1">
<path style=" stroke:none;fill-rule:nonzero;fill:rgb(30.196078%,30.196078%,30.196078%);fill-opacity:1;" d="M 0 0 L 0 18 L 16 18 L 16 0 Z M 1 1 L 15 1 L 15 17 L 1 17 Z M 3 6 L 3 7 L 7 7 L 7 6 Z M 9 6 L 9 7 L 13 7 L 13 6 Z M 3 9 L 3 10 L 7 10 L 7 9 Z M 9 9 L 9 10 L 13 10 L 13 9 Z M 3 12 L 3 13 L 7 13 L 7 12 Z M 9 12 L 9 13 L 13 13 L 13 12 Z M 3 15 L 3 16 L 7 16 L 7 15 Z M 9 15 L 9 16 L 13 16 L 13 15 Z M 9 15 "/>
<path style=" stroke:none;fill-rule:nonzero;fill:rgb(11.372549%,60%,95.294118%);fill-opacity:1;" d="M 3 3 L 3 4 L 7 4 L 7 3 Z M 9 3 L 9 4 L 13 4 L 13 3 Z M 9 3 "/>
</g>
</svg>
