<?xml version="1.0" encoding="UTF-8"?>
<svg xmlns="http://www.w3.org/2000/svg" xmlns:xlink="http://www.w3.org/1999/xlink" width="14pt" height="18pt" viewBox="0 0 14 18" version="1.1">
<g id="surface1">
<path style=" stroke:none;fill-rule:nonzero;fill:rgb(30.196078%,30.196078%,30.196078%);fill-opacity:1;" d="M 0 0 L 0 18 L 14 18 L 14 0 Z M 1 1 L 13 1 L 13 17 L 1 17 Z M 1 1 "/>
<path style=" stroke:none;fill-rule:nonzero;fill:rgb(11.372549%,60%,95.294118%);fill-opacity:1;" d="M 3 1 L 3 3 L 1 3 L 1 4 L 3 4 L 3 14 L 1 14 L 1 15 L 3 15 L 3 17 L 4 17 L 4 15 L 10 15 L 10 17 L 11 17 L 11 15 L 13 15 L 13 14 L 11 14 L 11 4 L 13 4 L 13 3 L 11 3 L 11 1 L 10 1 L 10 3 L 4 3 L 4 1 Z M 4 4 L 10 4 L 10 14 L 4 14 Z M 4 4 "/>
</g>
</svg>
