<?xml version="1.0" encoding="UTF-8"?>
<svg xmlns="http://www.w3.org/2000/svg" xmlns:xlink="http://www.w3.org/1999/xlink" width="14pt" height="16pt" viewBox="0 0 14 16" version="1.1">
<g id="surface1">
<path style=" stroke:none;fill-rule:nonzero;fill:rgb(30.196078%,30.196078%,30.196078%);fill-opacity:1;" d="M 3 0 L 3 2 L 0 2 L 0 16 L 14 16 L 14 2 L 11 2 L 11 0 Z M 1 3 L 2 3 L 2 5 L 12 5 L 12 3 L 13 3 L 13 15 L 1 15 Z M 3 6 L 3 7 L 11 7 L 11 6 Z M 3 9 L 3 10 L 9 10 L 9 9 Z M 3 12 L 3 13 L 6 13 L 6 12 Z M 3 12 "/>
</g>
</svg>
