<?xml version="1.0" encoding="UTF-8"?>
<svg xmlns="http://www.w3.org/2000/svg" xmlns:xlink="http://www.w3.org/1999/xlink" width="18pt" height="16pt" viewBox="0 0 18 16" version="1.1">
<g id="surface1">
<path style=" stroke:none;fill-rule:nonzero;fill:rgb(30.196078%,30.196078%,30.196078%);fill-opacity:1;" d="M 0 0 L 0 12 L 18 12 L 18 0 Z M 1 1 L 17 1 L 17 11 L 1 11 Z M 6 3 L 6 9 L 8 9 L 8 3 Z M 10 3 L 10 9 L 12 9 L 12 3 Z M 7 13 L 7 15 L 6 15 L 6 16 L 12 16 L 12 15 L 11 15 L 11 13 L 10 13 L 10 15 L 8 15 L 8 13 Z M 7 13 "/>
</g>
</svg>
