<?xml version="1.0" encoding="UTF-8"?>
<svg xmlns="http://www.w3.org/2000/svg" xmlns:xlink="http://www.w3.org/1999/xlink" width="11pt" height="16pt" viewBox="0 0 11 16" version="1.1">
<g id="surface1">
<path style=" stroke:none;fill-rule:nonzero;fill:rgb(30.196078%,30.196078%,30.196078%);fill-opacity:1;" d="M 6.429688 0 C 5.195312 0 4.09375 0.347656 3.121094 1.046875 C 2.144531 1.738281 1.382812 2.722656 0.828125 3.996094 C 0.277344 5.265625 0 6.664062 0 8.1875 C 0 9.753906 0.414062 10.96875 1.242188 11.835938 C 2.070312 12.703125 3.230469 13.136719 4.71875 13.136719 L 4.859375 13.136719 L 5.003906 13.121094 L 6.925781 16 L 8.957031 16 L 6.566406 12.839844 C 7.933594 12.378906 9.015625 11.445312 9.8125 10.03125 C 10.605469 8.609375 11 6.941406 11 5.027344 C 11 3.460938 10.59375 2.234375 9.78125 1.34375 C 8.976562 0.449219 7.859375 0 6.429688 0 Z M 6.316406 1.414062 C 7.253906 1.414062 7.988281 1.730469 8.515625 2.363281 C 9.046875 3 9.3125 3.875 9.3125 4.992188 C 9.3125 6.300781 9.113281 7.472656 8.714844 8.511719 C 8.320312 9.546875 7.78125 10.34375 7.097656 10.902344 C 6.421875 11.457031 5.644531 11.734375 4.769531 11.734375 C 3.820312 11.734375 3.070312 11.417969 2.519531 10.796875 C 1.96875 10.167969 1.695312 9.285156 1.695312 8.152344 C 1.695312 6.890625 1.890625 5.742188 2.277344 4.703125 C 2.664062 3.664062 3.210938 2.851562 3.917969 2.277344 C 4.625 1.703125 5.425781 1.414062 6.316406 1.414062 Z M 6.316406 1.414062 "/>
</g>
</svg>
