<?xml version="1.0" encoding="UTF-8"?>
<svg xmlns="http://www.w3.org/2000/svg" xmlns:xlink="http://www.w3.org/1999/xlink" width="16pt" height="16pt" viewBox="0 0 16 16" version="1.1">
<g id="surface1">
<path style=" stroke:none;fill-rule:nonzero;fill:rgb(30.196078%,30.196078%,30.196078%);fill-opacity:1;" d="M 8 0 C 6.558594 0 5.210938 0.382812 4.046875 1.046875 L 4.78125 1.78125 C 4.785156 1.78125 4.785156 1.78125 4.785156 1.78125 L 7.5625 4.558594 L 8.269531 3.851562 L 5.789062 1.371094 C 6.484375 1.136719 7.222656 1 8 1 C 11.878906 1 15 4.121094 15 8 C 15 9.164062 14.714844 10.253906 14.21875 11.21875 L 14.953125 11.953125 C 15.617188 10.789062 16 9.441406 16 8 C 16 3.566406 12.433594 0 8 0 Z M 1.046875 4.046875 C 0.382812 5.210938 0 6.558594 0 8 C 0 12.433594 3.566406 16 8 16 C 9.441406 16 10.789062 15.617188 11.953125 14.953125 L 11.269531 14.269531 L 11.273438 14.269531 L 8.445312 11.441406 L 7.738281 12.148438 L 10.21875 14.625 C 9.519531 14.859375 8.777344 15 8 15 C 4.121094 15 1 11.878906 1 8 C 1 6.835938 1.285156 5.746094 1.78125 4.78125 Z M 1.046875 4.046875 "/>
</g>
</svg>
