<?xml version="1.0" encoding="UTF-8"?>
<svg xmlns="http://www.w3.org/2000/svg" xmlns:xlink="http://www.w3.org/1999/xlink" width="18pt" height="16pt" viewBox="0 0 18 16" version="1.1">
<g id="surface1">
<path style=" stroke:none;fill-rule:nonzero;fill:rgb(30.196078%,30.196078%,30.196078%);fill-opacity:1;" d="M 10.402344 0 L 7.109375 3.292969 L 6.898438 3.5 L 7.109375 3.707031 L 10.402344 7 L 11.109375 6.292969 L 8.8125 4 L 12 4 L 12 3 L 8.8125 3 L 11.109375 0.707031 Z M 13.5 3 C 13.222656 3 13 3.222656 13 3.5 C 13 3.777344 13.222656 4 13.5 4 C 13.777344 4 14 3.777344 14 3.5 C 14 3.222656 13.777344 3 13.5 3 Z M 4.949219 5 L 0 9.949219 L 6.050781 16 L 11 11.050781 Z M 16.5 5 C 16.222656 5 16 5.222656 16 5.5 C 16 5.777344 16.222656 6 16.5 6 C 16.777344 6 17 5.777344 17 5.5 C 17 5.222656 16.777344 5 16.5 5 Z M 4.949219 6.414062 L 9.726562 11.191406 L 6.191406 14.726562 L 1.414062 9.949219 Z M 17.5 8 C 17.222656 8 17 8.222656 17 8.5 C 17 8.777344 17.222656 9 17.5 9 C 17.777344 9 18 8.777344 18 8.5 C 18 8.222656 17.777344 8 17.5 8 Z M 16.5 11 C 16.222656 11 16 11.222656 16 11.5 C 16 11.777344 16.222656 12 16.5 12 C 16.777344 12 17 11.777344 17 11.5 C 17 11.222656 16.777344 11 16.5 11 Z M 13.5 13 C 13.222656 13 13 13.222656 13 13.5 C 13 13.777344 13.222656 14 13.5 14 C 13.777344 14 14 13.777344 14 13.5 C 14 13.222656 13.777344 13 13.5 13 Z M 13.5 13 "/>
</g>
</svg>
