<?xml version="1.0" encoding="UTF-8"?>
<svg xmlns="http://www.w3.org/2000/svg" xmlns:xlink="http://www.w3.org/1999/xlink" width="18pt" height="16pt" viewBox="0 0 18 16" version="1.1">
<g id="surface1">
<path style=" stroke:none;fill-rule:nonzero;fill:rgb(30.196078%,30.196078%,30.196078%);fill-opacity:1;" d="M 7.597656 0 L 6.890625 0.707031 L 9.1875 3 L 6 3 L 6 4 L 9.1875 4 L 6.890625 6.292969 L 7.597656 7 L 11.097656 3.5 Z M 4.5 3 C 4.222656 3 4 3.222656 4 3.5 C 4 3.777344 4.222656 4 4.5 4 C 4.777344 4 5 3.777344 5 3.5 C 5 3.222656 4.777344 3 4.5 3 Z M 1.5 5 C 1.222656 5 1 5.222656 1 5.5 C 1 5.777344 1.222656 6 1.5 6 C 1.777344 6 2 5.777344 2 5.5 C 2 5.222656 1.777344 5 1.5 5 Z M 13.050781 5 L 7 11.050781 L 11.949219 16 L 18 9.949219 Z M 13.050781 6.414062 L 16.585938 9.949219 L 11.808594 14.726562 L 8.273438 11.191406 Z M 0.5 8 C 0.222656 8 0 8.222656 0 8.5 C 0 8.777344 0.222656 9 0.5 9 C 0.777344 9 1 8.777344 1 8.5 C 1 8.222656 0.777344 8 0.5 8 Z M 1.5 11 C 1.222656 11 1 11.222656 1 11.5 C 1 11.777344 1.222656 12 1.5 12 C 1.777344 12 2 11.777344 2 11.5 C 2 11.222656 1.777344 11 1.5 11 Z M 4.5 13 C 4.222656 13 4 13.222656 4 13.5 C 4 13.777344 4.222656 14 4.5 14 C 4.777344 14 5 13.777344 5 13.5 C 5 13.222656 4.777344 13 4.5 13 Z M 4.5 13 "/>
</g>
</svg>
