<?xml version="1.0" encoding="UTF-8"?>
<svg xmlns="http://www.w3.org/2000/svg" xmlns:xlink="http://www.w3.org/1999/xlink" width="16pt" height="16pt" viewBox="0 0 16 16" version="1.1">
<g id="surface1">
<path style=" stroke:none;fill-rule:nonzero;fill:rgb(30.196078%,30.196078%,30.196078%);fill-opacity:1;" d="M 0 0 L 0 1 L 16 1 L 16 0 Z M 3 4 L 3 10.09375 L 0.71875 7.875 L 0 8.59375 L 3.28125 11.78125 L 3.5 12 L 3.71875 11.78125 L 7 8.59375 L 6.28125 7.875 L 4 10.09375 L 4 4 Z M 12.5 4 L 12.28125 4.21875 L 9 7.40625 L 9.71875 8.125 L 12 5.90625 L 12 12 L 13 12 L 13 5.90625 L 15.28125 8.125 L 16 7.40625 L 12.71875 4.21875 Z M 0 15 L 0 16 L 16 16 L 16 15 Z M 0 15 "/>
</g>
</svg>
