<?xml version="1.0" encoding="UTF-8"?>
<svg xmlns="http://www.w3.org/2000/svg" xmlns:xlink="http://www.w3.org/1999/xlink" width="16pt" height="16pt" viewBox="0 0 16 16" version="1.1">
<g id="surface1">
<path style=" stroke:none;fill-rule:nonzero;fill:rgb(30.196078%,30.196078%,30.196078%);fill-opacity:1;" d="M 1 0 C 0.449219 0 0 0.449219 0 1 C 0 1.550781 0.449219 2 1 2 C 1.550781 2 2 1.550781 2 1 C 2 0.449219 1.550781 0 1 0 Z M 7 0 L 7 1 L 16 1 L 16 0 Z M 7 2 L 7 3 L 13 3 L 13 2 Z M 1 6 C 0.449219 6 0 6.449219 0 7 C 0 7.550781 0.449219 8 1 8 C 1.550781 8 2 7.550781 2 7 C 2 6.449219 1.550781 6 1 6 Z M 7 6 L 7 7 L 16 7 L 16 6 Z M 7 8 L 7 9 L 9 9 L 9 8 Z M 1 12 C 0.449219 12 0 12.449219 0 13 C 0 13.550781 0.449219 14 1 14 C 1.550781 14 2 13.550781 2 13 C 2 12.449219 1.550781 12 1 12 Z M 1 12 "/>
<path style=" stroke:none;fill-rule:nonzero;fill:rgb(85.490196%,26.666667%,32.54902%);fill-opacity:1;" d="M 10.988281 10 L 10 10.988281 L 12.011719 13 L 10 15.011719 L 10.988281 16 L 13 13.988281 L 15.011719 16 L 16 15.011719 L 13.988281 13 L 16 10.988281 L 15.011719 10 L 13 12.011719 Z M 10.988281 10 "/>
</g>
</svg>
