<?xml version="1.0" encoding="UTF-8"?>
<svg xmlns="http://www.w3.org/2000/svg" xmlns:xlink="http://www.w3.org/1999/xlink" width="16pt" height="18pt" viewBox="0 0 16 18" version="1.1">
<g id="surface1">
<path style=" stroke:none;fill-rule:nonzero;fill:rgb(30.196078%,30.196078%,30.196078%);fill-opacity:1;" d="M 4.910156 2 L 1.59375 11.59375 L 1.472656 12 L 0 16 L 1.65625 16 L 3.28125 11.5625 C 3.277344 11.5625 10.394531 11.566406 10.394531 11.566406 L 7.089844 2 Z M 6.015625 3.9375 L 8.195312 10.28125 L 3.804688 10.28125 Z M 6.015625 3.9375 "/>
<path style=" stroke:none;fill-rule:nonzero;fill:rgb(11.372549%,60%,95.294118%);fill-opacity:1;" d="M 12.5 0 L 9 3.5 L 9.71875 4.21875 L 12 1.90625 L 12 6.21875 L 13 6.21875 L 13 1.90625 L 15.28125 4.21875 L 16 3.5 Z M 12 11.78125 L 12 16.09375 L 9.71875 13.78125 L 9 14.5 L 12.5 18 L 16 14.5 L 15.28125 13.78125 L 13 16.09375 L 13 11.78125 Z M 12 11.78125 "/>
</g>
</svg>
