<?xml version="1.0" encoding="UTF-8"?>
<svg xmlns="http://www.w3.org/2000/svg" xmlns:xlink="http://www.w3.org/1999/xlink" width="18pt" height="16.007812pt" viewBox="0 0 18 16.007812" version="1.1">
<g id="surface1">
<path style=" stroke:none;fill-rule:nonzero;fill:rgb(30.196078%,30.196078%,30.196078%);fill-opacity:1;" d="M 0 0 L 0 16 L 9 16 L 9 15 L 4 15 L 4 9 L 9 9 L 9 8 L 3 8 L 3 15 L 1 15 L 1 1 L 4 1 L 4 6 L 12 6 L 12 1 L 12.292969 1 L 15 3.707031 L 15 7 L 16 7 L 16 3.300781 L 15.992188 3.300781 L 16 3.292969 L 12.707031 0 L 12.699219 0.0078125 L 12.699219 0 Z M 5 1 L 8.902344 1 L 8.902344 5 L 5 5 Z M 16 8 L 15.003906 8.996094 L 15 8.996094 L 10 13.996094 L 10.007812 14.003906 L 10.003906 15.007812 L 10 15.007812 L 10 16.007812 L 12 16.007812 L 12.003906 16 L 12.019531 16 L 12.015625 15.988281 L 13 15 L 17 11.003906 L 16.296875 10.296875 L 11.304688 15.28125 L 10.710938 14.691406 L 15.703125 9.703125 L 17 11 L 18 10 Z M 16 8 "/>
</g>
</svg>
