<?xml version="1.0" encoding="UTF-8"?>
<svg xmlns="http://www.w3.org/2000/svg" xmlns:xlink="http://www.w3.org/1999/xlink" width="16pt" height="17pt" viewBox="0 0 16 17" version="1.1">
<g id="surface1">
<path style=" stroke:none;fill-rule:nonzero;fill:rgb(30.196078%,30.196078%,30.196078%);fill-opacity:1;" d="M 0 0 L 0 8 L 7 8 L 7 3 L 4 0 Z M 9 0 L 9 8 L 16 8 L 16 3 L 13 0 Z M 1 1 L 4 1 L 4 3 L 6 3 L 6 7 L 1 7 Z M 10 1 L 13 1 L 13 3 L 15 3 L 15 7 L 10 7 Z M 0 9 L 0 17 L 7 17 L 7 12 L 4 9 Z M 9 9 L 9 17 L 16 17 L 16 12 L 13 9 Z M 1 10 L 4 10 L 4 12 L 6 12 L 6 16 L 1 16 Z M 10 10 L 13 10 L 13 12 L 15 12 L 15 16 L 10 16 Z M 10 10 "/>
</g>
</svg>
