<?xml version="1.0" encoding="UTF-8"?>
<svg xmlns="http://www.w3.org/2000/svg" xmlns:xlink="http://www.w3.org/1999/xlink" width="16pt" height="16pt" viewBox="0 0 16 16" version="1.1">
<g id="surface1">
<path style=" stroke:none;fill-rule:nonzero;fill:rgb(30.196078%,30.196078%,30.196078%);fill-opacity:1;" d="M 10.019531 0 L 8.300781 3.976562 L 7.144531 0.738281 L 6.152344 4.078125 L 3.90625 1.363281 L 6.367188 5.765625 L 2.222656 2.96875 L 5.414062 6.738281 L 1.375 5.222656 L 3.78125 7.074219 L 0.0546875 8.253906 L 4.355469 8.875 L 0 10.828125 L 4.820312 10.105469 L 3.007812 13.71875 L 6.410156 10.871094 L 3.945312 14.917969 L 7.324219 12.105469 L 6.464844 15.25 L 8.183594 11.40625 L 9.339844 16 L 10.335938 11.300781 L 12.578125 13.886719 L 11.746094 11.105469 L 15.15625 13.09375 L 11.074219 10.125 L 16 11.042969 L 12.703125 8.46875 L 15.703125 7.808594 L 12.128906 7.992188 L 15.753906 5.234375 L 11.667969 6.761719 L 14.371094 3.703125 L 10.078125 4.507812 L 12.542969 1.945312 L 9.160156 4.960938 Z M 10.019531 0 "/>
</g>
</svg>
