<?xml version="1.0" encoding="UTF-8"?>
<svg xmlns="http://www.w3.org/2000/svg" xmlns:xlink="http://www.w3.org/1999/xlink" width="16pt" height="16pt" viewBox="0 0 16 16" version="1.1">
<g id="surface1">
<path style=" stroke:none;fill-rule:nonzero;fill:rgb(30.196078%,30.196078%,30.196078%);fill-opacity:1;" d="M 8 0 L 6.96875 4.125 L 4 1.0625 L 5.15625 5.15625 L 1.0625 4 L 4.125 6.96875 L 0 8 L 4.125 9.03125 L 1.0625 12 L 5.15625 10.84375 L 4 14.9375 L 6.96875 11.875 L 7 12 L 7 9 L 8 8 L 16 8 L 11.875 6.96875 L 14.9375 4 L 10.84375 5.15625 L 12 1.0625 L 9.03125 4.125 Z M 9.296875 9 L 7.699219 9.488281 L 7.699219 10.203125 L 7.707031 10.6875 L 9.015625 10.292969 C 9.015625 10.515625 9.015625 16 9.015625 16 L 10.195312 16 C 10.195312 16 10.15625 11.292969 10.199219 9 Z M 13.824219 9 C 13.574219 9 13.300781 9.039062 13.003906 9.113281 C 12.707031 9.191406 12.371094 9.316406 12.03125 9.46875 L 12.03125 10.519531 C 12.367188 10.316406 12.734375 10.199219 13.03125 10.097656 C 13.328125 10 13.558594 9.984375 13.828125 9.984375 C 14.203125 9.984375 14.433594 10.027344 14.667969 10.253906 C 14.902344 10.484375 15.007812 10.644531 15.007812 11.011719 C 15.007812 11.234375 14.929688 11.421875 14.816406 11.65625 C 14.710938 11.886719 14.609375 12.019531 14.339844 12.355469 C 14.117188 12.59375 13.804688 12.992188 13.246094 13.609375 C 12.6875 14.222656 12.335938 14.648438 12.011719 15.015625 L 12 16 L 16 16 L 16 14.964844 L 13.238281 15 C 13.925781 14.238281 14.246094 13.859375 14.621094 13.4375 C 14.996094 13.007812 15.21875 12.75 15.292969 12.660156 C 15.546875 12.316406 15.722656 12.019531 15.816406 11.765625 C 15.917969 11.511719 15.96875 11.242188 15.96875 10.960938 C 15.96875 10.367188 15.773438 9.890625 15.386719 9.535156 C 14.996094 9.179688 14.476562 9 13.824219 9 Z M 13.824219 9 "/>
</g>
</svg>
