<?xml version="1.0" encoding="UTF-8"?>
<svg xmlns="http://www.w3.org/2000/svg" xmlns:xlink="http://www.w3.org/1999/xlink" width="14pt" height="16pt" viewBox="0 0 14 16" version="1.1">
<g id="surface1">
<path style=" stroke:none;fill-rule:nonzero;fill:rgb(30.196078%,30.196078%,30.196078%);fill-opacity:1;" d="M 0 0 L 0 10 L 3 8 L 6 10 L 6 0 Z M 7 0 L 7 1 L 13 1 L 13 9 L 14 9 L 14 0 Z M 3 3 L 5 3 C 3 6 1 7 1 7 C 1 7 2 3 3 3 Z M 11.5 10 C 10.667969 10 10 10.667969 10 11.5 L 10 13 L 9 13 L 9 16 L 14 16 L 14 13 L 13 13 L 13 11.5 C 13 10.667969 12.332031 10 11.5 10 Z M 0 11 L 0 16 L 8 16 L 8 15 L 1 15 L 1 11 Z M 11.5 11 C 11.777344 11 12 11.222656 12 11.5 L 12 13 L 11 13 L 11 11.5 C 11 11.222656 11.222656 11 11.5 11 Z M 11.5 11 "/>
</g>
</svg>
