<?xml version="1.0" encoding="UTF-8"?>
<svg xmlns="http://www.w3.org/2000/svg" xmlns:xlink="http://www.w3.org/1999/xlink" width="16pt" height="17pt" viewBox="0 0 16 17" version="1.1">
<g id="surface1">
<path style=" stroke:none;fill-rule:nonzero;fill:rgb(30.196078%,30.196078%,30.196078%);fill-opacity:1;" d="M 0 1 L 0 2 L 9 2 L 9 1 Z M 0 3 L 0 4 L 8 4 L 8 3 Z M 0 6 L 0 7 L 9 7 L 9 6 Z M 0 8 L 0 9 L 4 9 L 4 8 Z M 0 11 L 0 12 L 9 12 L 9 11 Z M 0 13 L 0 14 L 6 14 L 6 13 Z M 7 14 L 7 15 L 9 15 L 9 14 Z M 7 14 "/>
<path style=" stroke:none;fill-rule:nonzero;fill:rgb(11.372549%,60%,95.294118%);fill-opacity:1;" d="M 13 0 L 10 4 L 12 4 L 12 13 L 10 13 L 13 17 L 16 13 L 14 13 L 14 4 L 16 4 Z M 13 0 "/>
</g>
</svg>
