<?xml version="1.0" encoding="UTF-8"?>
<svg xmlns="http://www.w3.org/2000/svg" xmlns:xlink="http://www.w3.org/1999/xlink" width="16pt" height="16pt" viewBox="0 0 16 16" version="1.1">
<g id="surface1">
<path style=" stroke:none;fill-rule:nonzero;fill:rgb(95.686275%,46.666667%,31.372549%);fill-opacity:1;" d="M 1 14 C 0.449219 14 0 14.449219 0 15 C 0 15.550781 0.449219 16 1 16 C 1.550781 16 2 15.550781 2 15 C 2 14.449219 1.550781 14 1 14 Z M 5 14 C 4.449219 14 4 14.449219 4 15 C 4 15.550781 4.449219 16 5 16 C 5.550781 16 6 15.550781 6 15 C 6 14.449219 5.550781 14 5 14 Z M 9 14 C 8.449219 14 8 14.449219 8 15 C 8 15.550781 8.449219 16 9 16 C 9.550781 16 10 15.550781 10 15 C 10 14.449219 9.550781 14 9 14 Z M 9 14 "/>
<path style=" stroke:none;fill-rule:nonzero;fill:rgb(30.196078%,30.196078%,30.196078%);fill-opacity:1;" d="M 6 0 C 2.675781 0 0 2.675781 0 6 C 0 9.324219 2.675781 12 6 12 C 7.480469 12 8.832031 11.464844 9.875 10.582031 L 15.292969 16 L 16 15.292969 L 10.582031 9.875 C 11.464844 8.832031 12 7.480469 12 6 C 12 2.675781 9.324219 0 6 0 Z M 6 1 C 8.769531 1 11 3.230469 11 6 C 11 8.769531 8.769531 11 6 11 C 3.230469 11 1 8.769531 1 6 C 1 3.230469 3.230469 1 6 1 Z M 6 1 "/>
</g>
</svg>
