<?xml version="1.0" encoding="UTF-8"?>
<svg xmlns="http://www.w3.org/2000/svg" xmlns:xlink="http://www.w3.org/1999/xlink" width="4.03125pt" height="16pt" viewBox="0 0 4.03125 16" version="1.1">
<g id="surface1">
<path style=" stroke:none;fill-rule:nonzero;fill:rgb(30.196078%,30.196078%,30.196078%);fill-opacity:1;" d="M 4.03125 0 C 2.253906 0 1.53125 0.695312 1.53125 2.5 L 1.53125 4.9375 C 1.53125 6.050781 1.480469 7.34375 0.5 7.34375 L 0 7.34375 L 0 8.65625 L 0.5 8.65625 C 1.480469 8.65625 1.53125 9.949219 1.53125 11.0625 L 1.53125 13.5 C 1.53125 15.304688 2.253906 16 4.03125 16 L 4.03125 14.8125 C 2.847656 14.8125 2.84375 14.328125 2.84375 12.59375 L 2.84375 10.59375 C 2.84375 9.761719 2.625 8.511719 1.625 8 C 2.625 7.488281 2.84375 6.269531 2.84375 5.4375 L 2.84375 3.40625 C 2.84375 1.671875 2.847656 1.1875 4.03125 1.1875 Z M 4.03125 0 "/>
</g>
</svg>
