<?xml version="1.0" encoding="UTF-8"?>
<svg xmlns="http://www.w3.org/2000/svg" xmlns:xlink="http://www.w3.org/1999/xlink" width="16pt" height="16pt" viewBox="0 0 16 16" version="1.1">
<g id="surface1">
<path style=" stroke:none;fill-rule:nonzero;fill:rgb(30.196078%,30.196078%,30.196078%);fill-opacity:1;" d="M 0 0 L 0 6 L 3 6 C 4.109375 6 5 5.109375 5 4 C 5 3.1875 4.519531 2.5 3.828125 2.183594 C 3.933594 1.976562 4 1.75 4 1.5 C 4 0.667969 3.332031 0 2.5 0 Z M 11 0 L 11 6 L 14 6 C 15.109375 6 16 5.109375 16 4 L 16 2 C 16 0.890625 15.109375 0 14 0 Z M 1 1 L 2.5 1 C 2.777344 1 3 1.222656 3 1.5 C 3 1.777344 2.777344 2 2.5 2 L 1 2 Z M 12 1 L 14 1 C 14.554688 1 15 1.445312 15 2 L 15 4 C 15 4.554688 14.554688 5 14 5 L 12 5 Z M 1 3 L 3 3 C 3.554688 3 4 3.445312 4 4 C 4 4.554688 3.554688 5 3 5 L 1 5 Z M 7 3 L 7 4 L 9 4 L 9 3 Z M 1 9 L 1 10 L 3 10 L 3 9 Z M 5 9 L 5 10 L 7 10 L 7 9 Z M 9 9 L 9 10 L 11 10 L 11 9 Z M 13 9 L 13 10 L 15 10 L 15 9 Z M 2 12 L 0 14 L 2 16 Z M 14 12 L 14 16 L 16 14 Z M 8 13 C 7.445312 13 7 13.445312 7 14 C 7 14.554688 7.445312 15 8 15 C 8.554688 15 9 14.554688 9 14 C 9 13.445312 8.554688 13 8 13 Z M 8 13 "/>
</g>
</svg>
