<?xml version="1.0" encoding="UTF-8"?>
<svg xmlns="http://www.w3.org/2000/svg" xmlns:xlink="http://www.w3.org/1999/xlink" width="15pt" height="16pt" viewBox="0 0 15 16" version="1.1">
<g id="surface1">
<path style=" stroke:none;fill-rule:nonzero;fill:rgb(30.196078%,30.196078%,30.196078%);fill-opacity:1;" d="M 4.910156 2 L 1.59375 11.59375 L 1.472656 12 L 0 16 L 1.65625 16 L 3.28125 11.5625 L 8.71875 11.5625 L 10.34375 16 L 12 16 L 10.527344 12 L 10.40625 11.59375 L 7.089844 2 Z M 6.015625 3.9375 L 8.195312 10.28125 L 3.804688 10.28125 Z M 6.015625 3.9375 "/>
<path style=" stroke:none;fill-rule:nonzero;fill:rgb(11.372549%,60%,95.294118%);fill-opacity:1;" d="M 10 0 L 10 6 L 13 6 C 14.109375 6 15 5.109375 15 4 C 15 3.1875 14.519531 2.5 13.828125 2.183594 C 13.933594 1.976562 14 1.75 14 1.5 C 14 0.667969 13.332031 0 12.5 0 Z M 11 1 L 12.5 1 C 12.777344 1 13 1.222656 13 1.5 C 13 1.777344 12.777344 2 12.5 2 L 11 2 Z M 11 3 L 13 3 C 13.554688 3 14 3.445312 14 4 C 14 4.554688 13.554688 5 13 5 L 11 5 Z M 11 3 "/>
</g>
</svg>
