<?xml version="1.0" encoding="UTF-8"?>
<svg xmlns="http://www.w3.org/2000/svg" xmlns:xlink="http://www.w3.org/1999/xlink" width="16pt" height="14pt" viewBox="0 0 16 14" version="1.1">
<g id="surface1">
<path style=" stroke:none;fill-rule:nonzero;fill:rgb(30.196078%,30.196078%,30.196078%);fill-opacity:1;" d="M 8 0 C 6.5625 0 5.351562 1.023438 5.0625 2.375 C 4.59375 2.140625 4.058594 2 3.5 2 C 1.566406 2 0 3.566406 0 5.5 C 0 6.707031 0.601562 7.777344 1.53125 8.40625 C 0.621094 8.921875 0 9.878906 0 11 C 0 12.65625 1.34375 14 3 14 C 3.773438 14 4.46875 13.699219 5 13.21875 C 5.53125 13.699219 6.226562 14 7 14 C 8.4375 14 9.648438 12.976562 9.9375 11.625 C 10.40625 11.859375 10.941406 12 11.5 12 C 13.433594 12 15 10.433594 15 8.5 C 15 7.808594 14.78125 7.167969 14.4375 6.625 C 15.367188 6.113281 16 5.132812 16 4 C 16 2.34375 14.65625 1 13 1 C 12.125 1 11.328125 1.371094 10.78125 1.96875 C 10.355469 0.828125 9.289062 0 8 0 Z M 8 0 "/>
</g>
</svg>
