<?xml version="1.0" encoding="UTF-8"?>
<svg xmlns="http://www.w3.org/2000/svg" xmlns:xlink="http://www.w3.org/1999/xlink" width="16pt" height="16pt" viewBox="0 0 16 16" version="1.1">
<g id="surface1">
<path style=" stroke:none;fill-rule:nonzero;fill:rgb(30.196078%,30.196078%,30.196078%);fill-opacity:1;" d="M 0 0 L 0 16 L 16 16 L 16 0 Z M 1 4 L 15 4 L 15 15 L 1 15 Z M 11 6 L 8 7 C 6.953125 7 6 7.953125 6 9 L 5 12 L 8 11 C 9.046875 11 10 10.046875 10 9 Z M 8 8 C 8.523438 8 9 8.476562 9 9 C 9 9.523438 8.523438 10 8 10 C 7.476562 10 7 9.523438 7 9 C 7 8.476562 7.476562 8 8 8 Z M 8 8 "/>
</g>
</svg>
