<?xml version="1.0" encoding="UTF-8"?>
<svg xmlns="http://www.w3.org/2000/svg" xmlns:xlink="http://www.w3.org/1999/xlink" width="12pt" height="16.199218pt" viewBox="0 0 12 16.199218" version="1.1">
<g id="surface1">
<path style=" stroke:none;fill-rule:nonzero;fill:rgb(30.196078%,30.196078%,30.196078%);fill-opacity:1;" d="M 0.109375 0 L 0.109375 0.816406 L 2.183594 0.816406 L 0 4.070312 L 0 4.800781 L 3.828125 4.800781 L 3.828125 3.949219 L 1.582031 3.949219 L 3.757812 0.65625 L 3.757812 0 Z M 8 5.992188 L 8 14.285156 L 5.707031 11.992188 L 5 12.699219 L 8.5 16.199219 L 12 12.699219 L 11.292969 11.992188 L 9 14.285156 L 9 5.992188 Z M 4 7.453125 L 4 10.910156 L 4.007812 10.910156 L 4.007812 7.539062 C 4.007812 7.507812 4 7.484375 4 7.453125 Z M 4 7.453125 "/>
<path style=" stroke:none;fill-rule:nonzero;fill:rgb(11.372549%,60%,95.294118%);fill-opacity:1;" d="M 2.09375 6.003906 C 1.3125 6.019531 0.710938 6.15625 0.273438 6.355469 L 0.519531 7.257812 C 0.730469 7.183594 1.523438 6.929688 1.984375 6.929688 L 2.046875 6.929688 C 2.695312 6.957031 2.742188 7.195312 2.742188 7.75 L 2.742188 7.96875 L 2.40625 8.023438 C 0.835938 8.25 0 8.441406 0 9.644531 C 0 10.484375 0.609375 11.003906 1.492188 11.003906 C 2.105469 11.003906 2.503906 10.746094 2.914062 10.398438 L 3.039062 10.910156 L 4.007812 10.910156 L 4.007812 7.539062 C 4.007812 6.511719 3.296875 6.003906 2.203125 6.003906 Z M 2.742188 8.679688 L 2.742188 9.800781 C 2.40625 10.027344 2.148438 10.191406 1.710938 10.191406 C 1.320312 10.191406 1.128906 9.945312 1.128906 9.601562 C 1.128906 8.945312 1.703125 8.835938 2.40625 8.734375 Z M 2.742188 8.679688 "/>
</g>
</svg>
