<?xml version="1.0" encoding="UTF-8"?>
<svg xmlns="http://www.w3.org/2000/svg" xmlns:xlink="http://www.w3.org/1999/xlink" width="16pt" height="16pt" viewBox="0 0 16 16" version="1.1">
<g id="surface1">
<path style=" stroke:none;fill-rule:nonzero;fill:rgb(30.196078%,30.196078%,30.196078%);fill-opacity:1;" d="M 8 0 C 3.582031 0 0 3.582031 0 8 C 0 12.417969 3.582031 16 8 16 C 12.417969 16 16 12.417969 16 8 C 16 3.582031 12.417969 0 8 0 Z M 5 4 C 5.554688 4 6 4.445312 6 5 C 6 5.554688 5.554688 6 5 6 C 4.445312 6 4 5.554688 4 5 C 4 4.445312 4.445312 4 5 4 Z M 11 4 C 11.554688 4 12 4.445312 12 5 C 12 5.554688 11.554688 6 11 6 C 10.445312 6 10 5.554688 10 5 C 10 4.445312 10.445312 4 11 4 Z M 4.15625 10 L 11.84375 10 C 11.402344 11.726562 9.867188 13 8 13 C 6.132812 13 4.597656 11.726562 4.15625 10 Z M 4.15625 10 "/>
</g>
</svg>
