<?xml version="1.0" encoding="UTF-8"?>
<svg xmlns="http://www.w3.org/2000/svg" xmlns:xlink="http://www.w3.org/1999/xlink" width="16pt" height="16pt" viewBox="0 0 16 16" version="1.1">
<g id="surface1">
<path style=" stroke:none;fill-rule:nonzero;fill:rgb(30.196078%,30.196078%,30.196078%);fill-opacity:1;" d="M 8 0 L 6.34375 3.3125 C 6.867188 3.125 7.414062 3 8 3 C 8.585938 3 9.132812 3.125 9.65625 3.3125 Z M 2.34375 2.34375 L 3.5 5.84375 C 3.738281 5.34375 4.054688 4.882812 4.46875 4.46875 C 4.882812 4.054688 5.34375 3.738281 5.84375 3.5 Z M 13.65625 2.34375 L 10.15625 3.5 C 10.65625 3.738281 11.117188 4.054688 11.53125 4.46875 C 11.945312 4.882812 12.261719 5.34375 12.5 5.84375 Z M 8 4 C 5.789062 4 4 5.789062 4 8 C 4 10.210938 5.789062 12 8 12 C 10.210938 12 12 10.210938 12 8 C 12 5.789062 10.210938 4 8 4 Z M 3.3125 6.34375 L 0 8 L 3.3125 9.65625 C 3.125 9.132812 3 8.585938 3 8 C 3 7.414062 3.125 6.867188 3.3125 6.34375 Z M 12.6875 6.34375 C 12.875 6.867188 13 7.414062 13 8 C 13 8.585938 12.875 9.132812 12.6875 9.65625 L 16 8 Z M 3.5 10.15625 L 2.34375 13.65625 L 5.84375 12.5 C 5.34375 12.261719 4.882812 11.945312 4.46875 11.53125 C 4.054688 11.117188 3.738281 10.65625 3.5 10.15625 Z M 12.5 10.15625 C 12.261719 10.65625 11.945312 11.117188 11.53125 11.53125 C 11.117188 11.945312 10.65625 12.261719 10.15625 12.5 L 13.65625 13.65625 Z M 6.34375 12.6875 L 8 16 L 9.65625 12.6875 C 9.132812 12.875 8.585938 13 8 13 C 7.414062 13 6.867188 12.875 6.34375 12.6875 Z M 6.34375 12.6875 "/>
</g>
</svg>
