<?xml version="1.0" encoding="UTF-8"?>
<svg xmlns="http://www.w3.org/2000/svg" xmlns:xlink="http://www.w3.org/1999/xlink" width="16.003906pt" height="14.005859pt" viewBox="0 0 16.003906 14.005859" version="1.1">
<g id="surface1">
<path style=" stroke:none;fill-rule:nonzero;fill:rgb(11.372549%,60%,95.294118%);fill-opacity:1;" d="M 0 0 L 0 10 L 0.0117188 10 L 0 10.011719 L 3.992188 14.003906 L 7 14.003906 L 7 13.003906 L 5 13.003906 L 5 9.003906 L 1 9.003906 L 1 1.003906 L 15 1.003906 L 15 6.007812 L 16 6.007812 C 16.003906 22.835938 16.003906 8.625 16.003906 1.003906 L 16.003906 0.00390625 L 16 0.00390625 L 16 0 Z M 14 6.007812 L 8 12.007812 L 8 14.007812 L 10 14.007812 L 16 8.007812 Z M 13.71875 7.695312 L 14.28125 8.289062 L 9.3125 13.289062 L 8.71875 12.695312 Z M 13.71875 7.695312 "/>
</g>
</svg>
