<?xml version="1.0" encoding="UTF-8"?>
<svg xmlns="http://www.w3.org/2000/svg" xmlns:xlink="http://www.w3.org/1999/xlink" width="16pt" height="16pt" viewBox="0 0 16 16" version="1.1">
<g id="surface1">
<path style=" stroke:none;fill-rule:nonzero;fill:rgb(30.196078%,30.196078%,30.196078%);fill-opacity:1;" d="M 4.5 0 C 2.015625 0 0 2.015625 0 4.5 C 0 5.03125 0.0585938 5.570312 0.28125 6 C 2.5625 10.257812 5.320312 10.648438 7.96875 15.9375 L 7.96875 15.96875 C 7.976562 15.980469 7.992188 15.988281 8 16 C 8.011719 15.976562 8.019531 15.960938 8.03125 15.9375 C 10.679688 10.648438 13.4375 10.257812 15.71875 6 C 15.941406 5.570312 16 5.03125 16 4.5 C 16 2.015625 13.984375 0 11.5 0 C 10.09375 0 8.855469 0.644531 8.03125 1.65625 C 8.023438 1.667969 8.007812 1.675781 8 1.6875 C 7.992188 1.675781 7.976562 1.667969 7.96875 1.65625 C 7.144531 0.644531 5.90625 0 4.5 0 Z M 4.5 0 "/>
</g>
</svg>
