<?xml version="1.0" encoding="UTF-8"?>
<svg xmlns="http://www.w3.org/2000/svg" xmlns:xlink="http://www.w3.org/1999/xlink" width="16pt" height="16pt" viewBox="0 0 16 16" version="1.1">
<g id="surface1">
<path style=" stroke:none;fill-rule:nonzero;fill:rgb(15.294118%,68.235294%,37.647059%);fill-opacity:1;" d="M 13.5 11 C 12.113281 11 11 12.113281 11 13.5 C 11 13.933594 11.121094 14.332031 11.3125 14.6875 L 12.0625 13.9375 C 12.023438 13.800781 12 13.652344 12 13.5 C 12 12.667969 12.667969 12 13.5 12 C 13.652344 12 13.800781 12.023438 13.9375 12.0625 L 14.6875 11.3125 C 14.332031 11.121094 13.933594 11 13.5 11 Z M 15.6875 12.3125 L 14.9375 13.0625 C 14.976562 13.199219 15 13.347656 15 13.5 C 15 14.332031 14.332031 15 13.5 15 C 13.347656 15 13.199219 14.976562 13.0625 14.9375 L 12.3125 15.6875 C 12.667969 15.878906 13.066406 16 13.5 16 C 14.886719 16 16 14.886719 16 13.5 C 16 13.066406 15.878906 12.667969 15.6875 12.3125 Z M 0 15 L 0 16 L 11 16 L 11 15 Z M 0 15 "/>
<path style=" stroke:none;fill-rule:nonzero;fill:rgb(30.196078%,30.196078%,30.196078%);fill-opacity:1;" d="M 7.15625 0 L 1.9375 14 L 3.625 14 L 5.28125 9.5625 L 10.84375 9.5625 L 11 10 L 12.65625 10 L 9.15625 0 Z M 8.15625 1.625 L 10.28125 8.28125 L 5.8125 8.28125 Z M 8.15625 1.625 "/>
</g>
</svg>
