<?xml version="1.0" encoding="UTF-8"?>
<svg xmlns="http://www.w3.org/2000/svg" xmlns:xlink="http://www.w3.org/1999/xlink" width="16pt" height="16pt" viewBox="0 0 16 16" version="1.1">
<g id="surface1">
<path style=" stroke:none;fill-rule:nonzero;fill:rgb(30.196078%,30.196078%,30.196078%);fill-opacity:1;" d="M 13.5 0 C 12.667969 0 12 0.667969 12 1.5 L 12 3 L 11 3 L 11 6 L 16 6 L 16 3 L 15 3 L 15 1.5 C 15 0.667969 14.332031 0 13.5 0 Z M 13.5 1 C 13.777344 1 14 1.222656 14 1.5 L 14 3 L 13 3 L 13 1.5 C 13 1.222656 13.222656 1 13.5 1 Z M 0 2 L 0 16 L 14 16 L 14 7 L 13 7 L 13 15 L 1 15 L 1 3 L 10 3 L 10 2 Z M 0 2 "/>
</g>
</svg>
