<?xml version="1.0" encoding="UTF-8"?>
<svg xmlns="http://www.w3.org/2000/svg" xmlns:xlink="http://www.w3.org/1999/xlink" width="16pt" height="12pt" viewBox="0 0 16 12" version="1.1">
<defs>
<linearGradient id="linear0" gradientUnits="userSpaceOnUse" x1="3" y1="1045.3622" x2="15" y2="1045.3622" gradientTransform="matrix(1,0,0,-1,-3,1049.3622)">
<stop offset="0" style="stop-color:rgb(70.196078%,70.196078%,70.196078%);stop-opacity:1;"/>
<stop offset="1" style="stop-color:rgb(30.196078%,30.196078%,30.196078%);stop-opacity:1;"/>
</linearGradient>
</defs>
<g id="surface1">
<path style=" stroke:none;fill-rule:evenodd;fill:url(#linear0);" d="M 8 0 C 3.71875 0 0.246094 3.367188 0.03125 7.59375 C 0.00390625 7.726562 0 7.863281 0 8 C 0 10.210938 3.582031 12 8 12 C 12.417969 12 16 10.210938 16 8 C 16 7.863281 15.996094 7.726562 15.96875 7.59375 C 15.753906 3.367188 12.28125 0 8 0 Z M 8 4 C 8.5625 4 9.09375 4.039062 9.625 4.09375 C 9.105469 4.039062 8.550781 4 8 4 Z M 8 4 C 7.449219 4 6.894531 4.039062 6.375 4.09375 C 6.90625 4.039062 7.4375 4 8 4 Z M 4.46875 4.4375 C 4.144531 4.515625 3.828125 4.585938 3.53125 4.6875 C 3.832031 4.585938 4.140625 4.519531 4.46875 4.4375 Z M 11.53125 4.4375 C 11.859375 4.519531 12.167969 4.585938 12.46875 4.6875 C 12.171875 4.585938 11.855469 4.515625 11.53125 4.4375 Z M 2.03125 5.34375 C 1.835938 5.453125 1.640625 5.566406 1.46875 5.6875 C 1.640625 5.566406 1.835938 5.453125 2.03125 5.34375 Z M 13.96875 5.34375 C 14.164062 5.453125 14.359375 5.566406 14.53125 5.6875 C 14.359375 5.566406 14.164062 5.453125 13.96875 5.34375 Z M 0.375 6.8125 C 0.320312 6.898438 0.261719 6.976562 0.21875 7.0625 C 0.261719 6.972656 0.320312 6.898438 0.375 6.8125 Z M 15.625 6.8125 C 15.679688 6.902344 15.738281 6.972656 15.78125 7.0625 C 15.738281 6.976562 15.679688 6.898438 15.625 6.8125 Z M 15.625 6.8125 "/>
</g>
</svg>
