<?xml version="1.0" encoding="UTF-8"?>
<svg xmlns="http://www.w3.org/2000/svg" xmlns:xlink="http://www.w3.org/1999/xlink" width="14pt" height="16.003906pt" viewBox="0 0 14 16.003906" version="1.1">
<g id="surface1">
<path style=" stroke:none;fill-rule:nonzero;fill:rgb(70.196078%,70.196078%,70.196078%);fill-opacity:1;" d="M 7.09375 0 L 7.125 2.003906 L 5.046875 0.0390625 L 0.078125 14.003906 L 2 16.003906 L 3.65625 16.003906 L 5.28125 11.566406 L 10.71875 11.566406 L 10.328125 14 L 12.34375 16.003906 L 14 16.003906 L 12.527344 12.003906 L 12.40625 11.597656 L 9.089844 2.003906 Z M 8.015625 3.941406 L 10.195312 10.285156 L 9.160156 9.382812 L 6.089844 9.523438 Z M 8.015625 3.941406 "/>
<path style=" stroke:none;fill-rule:nonzero;fill:rgb(30.196078%,30.196078%,30.196078%);fill-opacity:1;" d="M 4.910156 0.00390625 L 1.59375 9.597656 L 1.472656 10.003906 L 0 14.003906 L 1.65625 14.003906 L 3.28125 9.566406 L 8.71875 9.566406 L 10.34375 14.003906 L 12 14.003906 L 10.527344 10.003906 L 10.40625 9.597656 L 7.089844 0.00390625 Z M 6.015625 1.941406 L 8.195312 8.285156 L 3.804688 8.285156 Z M 6.015625 1.941406 "/>
</g>
</svg>
