<?xml version="1.0" encoding="UTF-8"?>
<svg xmlns="http://www.w3.org/2000/svg" xmlns:xlink="http://www.w3.org/1999/xlink" width="17pt" height="16pt" viewBox="0 0 17 16" version="1.1">
<g id="surface1">
<path style=" stroke:none;fill-rule:nonzero;fill:rgb(95.686275%,46.666667%,31.372549%);fill-opacity:1;" d="M 8 14 C 7.449219 14 7 14.449219 7 15 C 7 15.550781 7.449219 16 8 16 C 8.550781 16 9 15.550781 9 15 C 9 14.449219 8.550781 14 8 14 Z M 12 14 C 11.449219 14 11 14.449219 11 15 C 11 15.550781 11.449219 16 12 16 C 12.550781 16 13 15.550781 13 15 C 13 14.449219 12.550781 14 12 14 Z M 16 14 C 15.449219 14 15 14.449219 15 15 C 15 15.550781 15.449219 16 16 16 C 16.550781 16 17 15.550781 17 15 C 17 14.449219 16.550781 14 16 14 Z M 16 14 "/>
<path style=" stroke:none;fill-rule:nonzero;fill:rgb(30.196078%,30.196078%,30.196078%);fill-opacity:1;" d="M 11.996094 0 L 0.00390625 11.992188 L 0 11.992188 L 0 16 L 4.007812 16 L 16 4.003906 L 12 0.00390625 L 11.996094 0.00390625 Z M 10 3.414062 L 12.589844 6 L 5 13.589844 L 5 12 L 3 12 L 3 10.410156 Z M 2 11.410156 L 2 13 L 4 13 L 4 14.589844 L 3.589844 15 L 2 15 L 1 14 L 1 12.410156 Z M 2 11.410156 "/>
</g>
</svg>
