<?xml version="1.0" encoding="UTF-8"?>
<svg xmlns="http://www.w3.org/2000/svg" xmlns:xlink="http://www.w3.org/1999/xlink" width="22pt" height="16pt" viewBox="0 0 22 16" version="1.1">
<g id="surface1">
<path style=" stroke:none;fill-rule:nonzero;fill:rgb(30.196078%,30.196078%,30.196078%);fill-opacity:1;" d="M 6 0 L 6 1 L 19.535156 1 L 12 8.535156 L 6 2.539062 L 6 3.953125 L 9.023438 6.976562 L 6 10 L 6 11.414062 L 9.730469 7.683594 L 12 9.953125 L 14.269531 7.683594 L 20.535156 13.953125 L 21 14.414062 L 21 15 L 6 15 L 6 16 L 22 16 L 22 0 Z M 20.953125 1 L 21 1 L 21 13 L 14.976562 6.976562 Z M 0 6 L 0 7 L 5 7 L 5 6 Z M 2 9 L 2 10 L 5 10 L 5 9 Z M 2 9 "/>
</g>
</svg>
