<?xml version="1.0" encoding="UTF-8"?>
<svg xmlns="http://www.w3.org/2000/svg" xmlns:xlink="http://www.w3.org/1999/xlink" width="16pt" height="16.000408pt" viewBox="0 0 16 16.000408" version="1.1">
<g id="surface1">
<path style=" stroke:none;fill-rule:nonzero;fill:rgb(30.196078%,30.196078%,30.196078%);fill-opacity:1;" d="M 4.128906 0.00390625 C 4.160156 0.285156 4.257812 1.285156 4.320312 2.53125 C 4.355469 3.25 4.378906 4.023438 4.351562 4.644531 C 4.339844 4.953125 4.296875 5.210938 4.257812 5.445312 C 4.214844 5.675781 4.183594 5.855469 4.09375 5.988281 C 3.949219 6.207031 3.824219 6.351562 3.679688 6.402344 C 3.535156 6.453125 3.402344 6.390625 3.265625 6.339844 C 2.984375 6.222656 2.628906 6.039062 1.953125 6.050781 C 1.277344 6.0625 0.796875 6.28125 0.480469 6.628906 C 0.164062 6.976562 0 7.464844 0 8.003906 C 0 8.539062 0.164062 9 0.480469 9.347656 C 0.796875 9.695312 1.277344 9.910156 1.953125 9.921875 C 2.628906 9.933594 2.984375 9.746094 3.265625 9.632812 C 3.402344 9.578125 3.535156 9.519531 3.679688 9.570312 C 3.824219 9.621094 3.949219 9.765625 4.09375 9.988281 C 4.183594 10.117188 4.214844 10.296875 4.257812 10.53125 C 4.296875 10.761719 4.339844 11.050781 4.351562 11.363281 C 4.378906 11.984375 4.355469 12.726562 4.320312 13.441406 C 4.257812 14.707031 4.15625 15.746094 4.128906 16 C 4.304688 16 4.484375 15.976562 4.640625 15.96875 C 4.945312 15.957031 5.21875 15.910156 5.4375 15.871094 C 5.660156 15.835938 5.804688 15.800781 5.890625 15.746094 C 6.09375 15.605469 6.179688 15.5 6.207031 15.425781 C 6.234375 15.347656 6.226562 15.265625 6.175781 15.136719 C 6.070312 14.882812 5.84375 14.480469 5.855469 13.761719 C 5.867188 13.039062 6.105469 12.519531 6.496094 12.160156 C 6.886719 11.804688 7.421875 11.617188 8 11.617188 C 8.578125 11.617188 9.113281 11.804688 9.503906 12.160156 C 9.894531 12.519531 10.132812 13.039062 10.144531 13.761719 C 10.15625 14.480469 9.929688 14.882812 9.824219 15.136719 C 9.773438 15.265625 9.765625 15.347656 9.792969 15.425781 C 9.820312 15.5 9.90625 15.605469 10.109375 15.746094 C 10.195312 15.800781 10.339844 15.832031 10.5625 15.871094 C 10.78125 15.910156 11.054688 15.957031 11.359375 15.96875 C 11.515625 15.980469 11.695312 16 11.871094 16 C 11.84375 15.746094 11.742188 14.707031 11.679688 13.441406 C 11.644531 12.726562 11.621094 11.984375 11.648438 11.363281 C 11.660156 11.050781 11.703125 10.761719 11.746094 10.53125 C 11.785156 10.296875 11.816406 10.117188 11.90625 9.988281 C 12.050781 9.765625 12.175781 9.621094 12.320312 9.570312 C 12.464844 9.519531 12.597656 9.578125 12.734375 9.632812 C 13.015625 9.746094 13.371094 9.933594 14.046875 9.921875 C 14.722656 9.914062 15.203125 9.695312 15.519531 9.347656 C 15.835938 9 16 8.539062 16 8.003906 C 16 7.464844 15.835938 6.976562 15.519531 6.628906 C 15.203125 6.28125 14.722656 6.0625 14.046875 6.050781 C 13.371094 6.042969 13.015625 6.222656 12.734375 6.339844 C 12.597656 6.390625 12.464844 6.453125 12.320312 6.402344 C 12.175781 6.351562 12.050781 6.207031 11.90625 5.988281 C 11.816406 5.855469 11.785156 5.675781 11.746094 5.445312 C 11.703125 5.210938 11.660156 4.953125 11.648438 4.644531 C 11.621094 4.023438 11.644531 3.25 11.679688 2.53125 C 11.742188 1.285156 11.839844 0.285156 11.871094 0.00390625 C 11.699219 0.00390625 11.515625 -0.00390625 11.359375 0.00390625 C 11.054688 0.015625 10.78125 0.0625 10.5625 0.101562 C 10.339844 0.136719 10.195312 0.175781 10.109375 0.230469 C 9.90625 0.367188 9.820312 0.472656 9.792969 0.550781 C 9.765625 0.625 9.773438 0.710938 9.824219 0.835938 C 9.929688 1.089844 10.15625 1.492188 10.144531 2.210938 C 10.132812 2.929688 9.894531 3.453125 9.503906 3.8125 C 9.113281 4.167969 8.578125 4.355469 8 4.355469 C 7.421875 4.355469 6.886719 4.167969 6.496094 3.8125 C 6.105469 3.453125 5.867188 2.929688 5.855469 2.210938 C 5.84375 1.492188 6.070312 1.089844 6.175781 0.835938 C 6.226562 0.710938 6.234375 0.625 6.207031 0.550781 C 6.179688 0.472656 6.09375 0.367188 5.890625 0.230469 C 5.804688 0.171875 5.660156 0.136719 5.4375 0.101562 C 5.21875 0.0625 4.945312 0.015625 4.640625 0.00390625 C 4.484375 -0.00390625 4.300781 0.00390625 4.128906 0.00390625 Z M 4.128906 0.00390625 "/>
</g>
</svg>
