<?xml version="1.0" encoding="UTF-8"?>
<svg xmlns="http://www.w3.org/2000/svg" xmlns:xlink="http://www.w3.org/1999/xlink" width="16pt" height="16pt" viewBox="0 0 16 16" version="1.1">
<g id="surface1">
<path style=" stroke:none;fill-rule:nonzero;fill:rgb(30.196078%,30.196078%,30.196078%);fill-opacity:1;" d="M 8 0 C 6.894531 0 5.65625 2.34375 5.65625 2.34375 C 5.65625 2.34375 3.125 1.5625 2.34375 2.34375 C 1.5625 3.125 2.34375 5.65625 2.34375 5.65625 C 2.34375 5.65625 0 6.894531 0 8 C 0 9.105469 2.34375 10.34375 2.34375 10.34375 C 2.34375 10.34375 1.5625 12.875 2.34375 13.65625 C 3.125 14.4375 5.65625 13.65625 5.65625 13.65625 C 5.65625 13.65625 6.894531 16 8 16 C 9.105469 16 10.34375 13.65625 10.34375 13.65625 C 10.34375 13.65625 12.875 14.4375 13.65625 13.65625 C 14.4375 12.875 13.65625 10.34375 13.65625 10.34375 C 13.65625 10.34375 16 9.105469 16 8 C 16 6.894531 13.65625 5.65625 13.65625 5.65625 C 13.65625 5.65625 14.4375 3.125 13.65625 2.34375 C 12.875 1.5625 10.34375 2.34375 10.34375 2.34375 C 10.34375 2.34375 9.105469 0 8 0 Z M 8 4 C 10.210938 4 12 5.789062 12 8 C 12 10.210938 10.210938 12 8 12 C 5.789062 12 4 10.210938 4 8 C 4 5.789062 5.789062 4 8 4 Z M 8 4 "/>
</g>
</svg>
