<?xml version="1.0" encoding="UTF-8"?>
<svg xmlns="http://www.w3.org/2000/svg" xmlns:xlink="http://www.w3.org/1999/xlink" width="16pt" height="16pt" viewBox="0 0 16 16" version="1.1">
<g id="surface1">
<path style=" stroke:none;fill-rule:nonzero;fill:rgb(30.196078%,30.196078%,30.196078%);fill-opacity:1;" d="M 0 0 L 0 1 L 9 1 L 9 0 Z M 0 2 L 0 3 L 8 3 L 8 2 Z M 0 6 L 0 7 L 9 7 L 9 6 Z M 0 8 L 0 9 L 4 9 L 4 8 Z M 0 12 L 0 13 L 9 13 L 9 12 Z M 0 14 L 0 15 L 6 15 L 6 14 Z M 7 15 L 7 16 L 9 16 L 9 15 Z M 7 15 "/>
<path style=" stroke:none;fill-rule:nonzero;fill:rgb(11.372549%,60%,95.294118%);fill-opacity:1;" d="M 13 0 L 10 4 L 12 4 L 12 12 L 10 12 L 13 16 L 16 12 L 14 12 L 14 4 L 16 4 Z M 13 0 "/>
</g>
</svg>
