<?xml version="1.0" encoding="UTF-8"?>
<svg xmlns="http://www.w3.org/2000/svg" xmlns:xlink="http://www.w3.org/1999/xlink" width="16pt" height="16pt" viewBox="0 0 16 16" version="1.1">
<g id="surface1">
<path style=" stroke:none;fill-rule:nonzero;fill:rgb(30.196078%,30.196078%,30.196078%);fill-opacity:1;" d="M 8 0 C 3.582031 0 0 3.582031 0 8 C 0 12.417969 3.582031 16 8 16 C 12.417969 16 16 12.417969 16 8 C 16 3.582031 12.417969 0 8 0 Z M 8 2 C 11.3125 2 14 4.6875 14 8 C 14 9.289062 13.566406 10.460938 12.875 11.4375 L 4.5625 3.125 C 5.539062 2.433594 6.710938 2 8 2 Z M 3.125 4.5625 L 11.4375 12.875 C 10.460938 13.566406 9.289062 14 8 14 C 4.6875 14 2 11.3125 2 8 C 2 6.710938 2.433594 5.539062 3.125 4.5625 Z M 3.125 4.5625 "/>
</g>
</svg>
