<?xml version="1.0" encoding="UTF-8"?>
<svg xmlns="http://www.w3.org/2000/svg" xmlns:xlink="http://www.w3.org/1999/xlink" width="14pt" height="16.001953pt" viewBox="0 0 14 16.001953" version="1.1">
<g id="surface1">
<path style=" stroke:none;fill-rule:nonzero;fill:rgb(30.196078%,30.196078%,30.196078%);fill-opacity:1;" d="M 0 0 L 0 16 L 10 16 L 10 15.992188 L 10.007812 16 L 14 12.007812 L 14 0 Z M 1 1 L 13 1 L 13 11 L 9 11 L 9 15 L 1 15 Z M 8.5 3 C 7.847656 3 7.296875 3.421875 7.09375 4 L 2 4 L 2 5 L 7.09375 5 C 7.296875 5.582031 7.847656 6 8.5 6 C 9.152344 6 9.703125 5.582031 9.90625 5 L 12 5 L 12 4 L 9.90625 4 C 9.703125 3.421875 9.152344 3 8.5 3 Z M 5.5 7 C 4.863281 7.003906 4.300781 7.402344 4.085938 8 L 2 8 L 2 9 L 4.085938 9 C 4.300781 9.601562 4.863281 10 5.5 10 C 6.136719 10 6.699219 9.601562 6.910156 9 L 12 9 L 12 8 L 6.910156 8 C 6.699219 7.402344 6.136719 7.003906 5.5 7 Z M 5.5 8 C 5.777344 8 6 8.226562 6 8.5 C 6 8.777344 5.777344 9 5.5 9 C 5.222656 9 5 8.777344 5 8.5 C 5 8.226562 5.222656 8 5.5 8 Z M 5.5 8 "/>
</g>
</svg>
