<?xml version="1.0" encoding="UTF-8"?>
<svg xmlns="http://www.w3.org/2000/svg" xmlns:xlink="http://www.w3.org/1999/xlink" width="16pt" height="13pt" viewBox="0 0 16 13" version="1.1">
<g id="surface1">
<path style=" stroke:none;fill-rule:nonzero;fill:rgb(30.196078%,30.196078%,30.196078%);fill-opacity:1;" d="M 0 0 L 0 3 L 3 3 L 3 0 Z M 13 0 L 13 3 L 16 3 L 16 0 Z M 1 1 L 2 1 L 2 2 L 1 2 Z M 14 1 L 15 1 L 15 2 L 14 2 Z M 4 2 L 4 3 L 6 3 L 6 2 Z M 7 2 L 7 3 L 9 3 L 9 2 Z M 10 2 L 10 3 L 12 3 L 12 2 Z M 2 4 L 2 6 L 3 6 L 3 4 Z M 13 4 L 13 6 L 14 6 L 14 4 Z M 2 7 L 2 9 L 3 9 L 3 7 Z M 13 7 L 13 9 L 14 9 L 14 7 Z M 4 10 L 4 11 L 6 11 L 6 10 Z M 7 10 L 7 11 L 9 11 L 9 10 Z M 10 10 L 10 11 L 12 11 L 12 10 Z M 10 10 "/>
<path style=" stroke:none;fill-rule:nonzero;fill:rgb(11.372549%,60%,95.294118%);fill-opacity:1;" d="M 0 10 L 0 13 L 3 13 L 3 10 Z M 13 10 L 13 13 L 16 13 L 16 10 Z M 1 11 L 2 11 L 2 12 L 1 12 Z M 14 11 L 15 11 L 15 12 L 14 12 Z M 14 11 "/>
</g>
</svg>
