<?xml version="1.0" encoding="UTF-8"?>
<svg xmlns="http://www.w3.org/2000/svg" xmlns:xlink="http://www.w3.org/1999/xlink" width="12pt" height="16.099609pt" viewBox="0 0 12 16.099609" version="1.1">
<g id="surface1">
<path style=" stroke:none;fill-rule:nonzero;fill:rgb(30.196078%,30.196078%,30.196078%);fill-opacity:1;" d="M 8 5.890625 L 8 14.1875 L 5.707031 11.890625 L 5 12.597656 L 8.5 16.097656 L 12 12.597656 L 11.292969 11.890625 L 9 14.1875 L 9 5.890625 Z M 0.109375 6.097656 L 0.109375 6.914062 L 2.183594 6.914062 L 0 10.167969 L 0 10.902344 L 3.828125 10.902344 L 3.828125 10.046875 L 1.582031 10.046875 L 3.757812 6.753906 L 3.757812 6.097656 Z M 0.109375 6.097656 "/>
<path style=" stroke:none;fill-rule:nonzero;fill:rgb(11.372549%,60%,95.294118%);fill-opacity:1;" d="M 2.09375 0 C 1.3125 0.0195312 0.710938 0.15625 0.273438 0.355469 L 0.519531 1.257812 C 0.730469 1.183594 1.523438 0.929688 1.984375 0.929688 L 2.046875 0.929688 C 2.695312 0.957031 2.742188 1.191406 2.742188 1.75 L 2.742188 1.96875 L 2.40625 2.023438 C 0.835938 2.246094 0 2.441406 0 3.640625 C 0 4.480469 0.609375 5 1.492188 5 C 2.105469 5 2.503906 4.746094 2.914062 4.398438 L 3.039062 4.90625 L 4.007812 4.90625 L 4.007812 1.539062 C 4.007812 0.511719 3.296875 0 2.203125 0 Z M 2.742188 2.679688 L 2.742188 3.796875 C 2.40625 4.023438 2.148438 4.1875 1.710938 4.1875 C 1.320312 4.1875 1.128906 3.945312 1.128906 3.597656 C 1.128906 2.941406 1.703125 2.832031 2.40625 2.734375 Z M 2.742188 2.679688 "/>
</g>
</svg>
