<?xml version="1.0" encoding="UTF-8"?>
<svg xmlns="http://www.w3.org/2000/svg" xmlns:xlink="http://www.w3.org/1999/xlink" width="20pt" height="17pt" viewBox="0 0 20 17" version="1.1">
<g id="surface1">
<path style=" stroke:none;fill-rule:nonzero;fill:rgb(30.196078%,30.196078%,30.196078%);fill-opacity:1;" d="M 4.210938 5 L 1.367188 13.222656 L 1.261719 13.574219 L 0 17 L 1.421875 17 L 2.8125 13.199219 L 7.46875 13.199219 L 8.863281 17 L 10.285156 17 L 9.023438 13.574219 L 8.917969 13.222656 L 6.078125 5 Z M 5.15625 6.660156 L 6.992188 12 L 3.296875 12 Z M 11 8 L 11 17 L 17.5 17 C 18.878906 17 20 15.878906 20 14.5 C 20 13.453125 19.347656 12.519531 18.367188 12.15625 C 18.773438 11.703125 19 11.113281 19 10.5 C 19 9.121094 17.878906 8 16.5 8 Z M 12 9 L 16.5 9 C 17.328125 9 18 9.671875 18 10.5 C 18 11.328125 17.328125 12 16.5 12 L 12 12 Z M 12 13 L 17.5 13 C 18.328125 13 19 13.671875 19 14.5 C 19 15.328125 18.328125 16 17.5 16 L 12 16 Z M 12 13 "/>
<path style=" stroke:none;fill-rule:nonzero;fill:rgb(11.372549%,60%,95.294118%);fill-opacity:1;" d="M 15 0 L 12 4 L 18 4 Z M 15 0 "/>
</g>
</svg>
