<?xml version="1.0" encoding="UTF-8"?>
<svg xmlns="http://www.w3.org/2000/svg" xmlns:xlink="http://www.w3.org/1999/xlink" width="16pt" height="16pt" viewBox="0 0 16 16" version="1.1">
<g id="surface1">
<path style=" stroke:none;fill-rule:nonzero;fill:rgb(30.196078%,30.196078%,30.196078%);fill-opacity:1;" d="M 8 0 L 5 4 L 7 4 L 7 6 L 0 6 L 0 10 L 7 10 L 7 12 L 5 12 L 8 16 L 11 12 L 9 12 L 9 10 L 16 10 L 16 6 L 9 6 L 9 4 L 11 4 Z M 1 7 L 3 7 L 3 9 L 1 9 Z M 4 7 L 6 7 L 6 9 L 4 9 Z M 7 7 L 9 7 L 9 9 L 7 9 Z M 10 7 L 12 7 L 12 9 L 10 9 Z M 13 7 L 15 7 L 15 9 L 13 9 Z M 13 7 "/>
</g>
</svg>
