<?xml version="1.0" encoding="UTF-8"?>
<svg xmlns="http://www.w3.org/2000/svg" xmlns:xlink="http://www.w3.org/1999/xlink" width="16pt" height="16pt" viewBox="0 0 16 16" version="1.1">
<g id="surface1">
<path style=" stroke:none;fill-rule:nonzero;fill:rgb(30.196078%,30.196078%,30.196078%);fill-opacity:1;" d="M 5 0 L 5 14 L 11 16 L 11 2 Z M 6 1.398438 L 10 2.726562 L 10 14.605469 L 6 13.253906 Z M 2 2 L 0 5 L 1 5 L 1 11 L 0 11 L 2 14 L 4 11 L 3 11 L 3 5 L 4 5 Z M 14 2 L 12 5 L 13 5 L 13 11 L 12 11 L 14 14 L 16 11 L 15 11 L 15 5 L 16 5 Z M 14 2 "/>
</g>
</svg>
