<?xml version="1.0" encoding="UTF-8"?>
<svg xmlns="http://www.w3.org/2000/svg" xmlns:xlink="http://www.w3.org/1999/xlink" width="17pt" height="16pt" viewBox="0 0 17 16" version="1.1">
<g id="surface1">
<path style=" stroke:none;fill-rule:nonzero;fill:rgb(30.196078%,30.196078%,30.196078%);fill-opacity:1;" d="M 0 0 L 0 2 L 6 2 L 6 16 L 8 16 L 8 2 L 14 2 L 14 0 Z M 0 0 "/>
<path style=" stroke:none;fill-rule:nonzero;fill:rgb(11.372549%,60%,95.294118%);fill-opacity:1;" d="M 14.296875 8 C 13.925781 8 13.589844 8.039062 13.292969 8.113281 C 12.992188 8.183594 12.710938 8.289062 12.457031 8.425781 C 12.207031 8.5625 11.886719 8.796875 11.5 9.125 L 12.402344 10.203125 C 12.710938 9.941406 13.007812 9.742188 13.296875 9.601562 C 13.582031 9.460938 13.875 9.390625 14.179688 9.390625 C 14.46875 9.390625 14.699219 9.46875 14.871094 9.625 C 15.046875 9.777344 15.136719 10.011719 15.136719 10.328125 C 15.136719 10.542969 15.09375 10.746094 15.015625 10.945312 C 14.9375 11.144531 14.808594 11.359375 14.628906 11.59375 C 14.453125 11.820312 14.070312 12.238281 13.488281 12.839844 L 11.519531 14.839844 L 11.519531 16 L 17 16 L 17 14.597656 L 13.585938 14.597656 L 13.585938 14.519531 L 14.59375 13.566406 C 15.265625 12.949219 15.734375 12.472656 16 12.136719 C 16.265625 11.800781 16.460938 11.480469 16.589844 11.160156 C 16.714844 10.84375 16.78125 10.5 16.78125 10.136719 C 16.78125 9.71875 16.675781 9.347656 16.46875 9.027344 C 16.261719 8.703125 15.972656 8.449219 15.59375 8.269531 C 15.21875 8.089844 14.789062 8 14.296875 8 Z M 14.296875 8 "/>
</g>
</svg>
