<?xml version="1.0" encoding="UTF-8"?>
<svg xmlns="http://www.w3.org/2000/svg" xmlns:xlink="http://www.w3.org/1999/xlink" width="16pt" height="16pt" viewBox="0 0 16 16" version="1.1">
<g id="surface1">
<path style=" stroke:none;fill-rule:nonzero;fill:rgb(30.196078%,30.196078%,30.196078%);fill-opacity:1;" d="M 4 0 C 4 0 4.746094 3.507812 4 5 C 3.253906 6.492188 0 8 0 8 C 0 8 3.253906 9.507812 4 11 C 4.746094 12.492188 4 16 4 16 C 4 16 6.332031 13 8 13 C 9.667969 13 12 16 12 16 C 12 16 11.253906 12.492188 12 11 C 12.746094 9.507812 16 8 16 8 C 16 8 12.746094 6.492188 12 5 C 11.253906 3.507812 12 0 12 0 C 12 0 9.667969 3 8 3 C 6.332031 3 4 0 4 0 Z M 4 0 "/>
</g>
</svg>
