<?xml version="1.0" encoding="UTF-8"?>
<svg xmlns="http://www.w3.org/2000/svg" xmlns:xlink="http://www.w3.org/1999/xlink" width="16.000064pt" height="16pt" viewBox="0 0 16.000064 16" version="1.1">
<g id="surface1">
<path style=" stroke:none;fill-rule:nonzero;fill:rgb(30.196078%,30.196078%,30.196078%);fill-opacity:1;" d="M 7.5 0 C 6.464844 0 6.257812 1.800781 5.304688 2.195312 C 4.347656 2.59375 2.929688 1.464844 2.195312 2.195312 C 1.464844 2.929688 2.59375 4.347656 2.195312 5.304688 C 1.800781 6.257812 0 6.464844 0 7.5 C 0 8.535156 1.800781 8.742188 2.195312 9.699219 C 2.59375 10.652344 1.464844 12.070312 2.195312 12.800781 C 2.929688 13.535156 4.347656 12.40625 5.304688 12.800781 C 6.257812 13.199219 6.464844 15 7.5 15 C 8.535156 15 8.742188 13.199219 9.699219 12.800781 C 9.714844 12.785156 9.761719 12.757812 9.785156 12.785156 L 13 16 L 14 14 L 16 13 C 16.011719 12.972656 14.09375 11.578125 12.777344 10.578125 C 12.71875 10.269531 12.691406 9.960938 12.800781 9.699219 C 13.199219 8.742188 15 8.535156 15 7.5 C 15 6.464844 13.199219 6.257812 12.800781 5.304688 C 12.40625 4.347656 13.535156 2.929688 12.800781 2.195312 C 12.070312 1.464844 10.652344 2.59375 9.699219 2.195312 C 8.742188 1.800781 8.535156 0 7.5 0 Z M 7.5 4 C 9.433594 4 11 5.566406 11 7.5 C 11 9.433594 9.433594 11 7.5 11 C 5.566406 11 4 9.433594 4 7.5 C 4 5.566406 5.566406 4 7.5 4 Z M 7.5 4 "/>
</g>
</svg>
