<?xml version="1.0" encoding="UTF-8"?>
<svg xmlns="http://www.w3.org/2000/svg" xmlns:xlink="http://www.w3.org/1999/xlink" width="16pt" height="10pt" viewBox="0 0 16 10" version="1.1">
<g id="surface1">
<path style=" stroke:none;fill-rule:nonzero;fill:rgb(30.196078%,30.196078%,30.196078%);fill-opacity:1;" d="M 4 2 L 4 3 L 6 3 L 6 2 Z M 7 2 L 7 3 L 9 3 L 9 2 Z M 10 2 L 10 3 L 12 3 L 12 2 Z M 2 4 L 2 6 L 3 6 L 3 4 Z M 13 4 L 13 6 L 14 6 L 14 4 Z M 4 7 L 4 8 L 6 8 L 6 7 Z M 7 7 L 7 8 L 9 8 L 9 7 Z M 10 7 L 10 8 L 12 8 L 12 7 Z M 10 7 "/>
<path style=" stroke:none;fill-rule:nonzero;fill:rgb(11.372549%,60%,95.294118%);fill-opacity:1;" d="M 0 0 L 0 3 L 3 3 L 3 0 Z M 13 0 L 13 3 L 16 3 L 16 0 Z M 1 1 L 2 1 L 2 2 L 1 2 Z M 14 1 L 15 1 L 15 2 L 14 2 Z M 0 7 L 0 10 L 3 10 L 3 7 Z M 13 7 L 13 10 L 16 10 L 16 7 Z M 1 8 L 2 8 L 2 9 L 1 9 Z M 14 8 L 15 8 L 15 9 L 14 9 Z M 14 8 "/>
</g>
</svg>
