<?xml version="1.0" encoding="UTF-8"?>
<svg xmlns="http://www.w3.org/2000/svg" xmlns:xlink="http://www.w3.org/1999/xlink" width="16pt" height="16.0625pt" viewBox="0 0 16 16.0625" version="1.1">
<g id="surface1">
<path style=" stroke:none;fill-rule:nonzero;fill:rgb(30.196078%,30.196078%,30.196078%);fill-opacity:1;" d="M 0.9375 0 L 0.9375 2 L 5.9375 2 L 5.9375 10 L 7.9375 10 L 7.9375 2 L 12.9375 2 L 12.9375 0 Z M 16 7 L 0 16 L 9.9375 16 L 9.9375 15 L 3.90625 15 L 15 8.8125 L 15 10 L 16 10 Z M 16 7 "/>
<path style=" stroke:none;fill-rule:nonzero;fill:rgb(11.372549%,60%,95.294118%);fill-opacity:1;" d="M 13.5 11.0625 C 13.066406 11.0625 12.667969 11.183594 12.3125 11.375 L 13.0625 12.125 C 13.199219 12.085938 13.347656 12.0625 13.5 12.0625 C 14.332031 12.0625 15 12.730469 15 13.5625 C 15 13.714844 14.980469 13.863281 14.9375 14 L 15.6875 14.75 C 15.878906 14.394531 16 13.996094 16 13.5625 C 16 12.175781 14.886719 11.0625 13.5 11.0625 Z M 11.3125 12.375 C 11.121094 12.730469 11 13.128906 11 13.5625 C 11 14.949219 12.113281 16.0625 13.5 16.0625 C 13.933594 16.0625 14.332031 15.941406 14.6875 15.75 L 13.9375 15 C 13.800781 15.039062 13.652344 15.0625 13.5 15.0625 C 12.667969 15.0625 12 14.394531 12 13.5625 C 12 13.410156 12.019531 13.261719 12.0625 13.125 Z M 11.3125 12.375 "/>
</g>
</svg>
