<?xml version="1.0" encoding="UTF-8"?>
<svg xmlns="http://www.w3.org/2000/svg" xmlns:xlink="http://www.w3.org/1999/xlink" width="17pt" height="17pt" viewBox="0 0 17 17" version="1.1">
<g id="surface1">
<path style=" stroke:none;fill-rule:nonzero;fill:rgb(30.196078%,30.196078%,30.196078%);fill-opacity:1;" d="M 14.5 0 C 13.667969 0 13 0.667969 13 1.5 L 13 3 L 12 3 L 12 6 L 17 6 L 17 3 L 16 3 L 16 1.5 C 16 0.667969 15.332031 0 14.5 0 Z M 14.5 1 C 14.777344 1 15 1.222656 15 1.5 L 15 3 L 14 3 L 14 1.5 C 14 1.222656 14.222656 1 14.5 1 Z M 4 2 L 4 3 L 11 3 L 11 2 Z M 1 5 L 1 13 L 2 13 L 2 5 Z M 14 7 L 14 13 L 15 13 L 15 7 Z M 4 15 L 4 16 L 12 16 L 12 15 Z M 4 15 "/>
<path style=" stroke:none;fill-rule:nonzero;fill:rgb(11.372549%,60%,95.294118%);fill-opacity:1;" d="M 0 1 L 0 5 L 4 5 L 4 1 Z M 1 2 L 3 2 L 3 4 L 1 4 Z M 0 13 L 0 17 L 4 17 L 4 13 Z M 12 13 L 12 17 L 16 17 L 16 13 Z M 1 14 L 3 14 L 3 16 L 1 16 Z M 13 14 L 15 14 L 15 16 L 13 16 Z M 13 14 "/>
</g>
</svg>
