<?xml version="1.0" encoding="UTF-8"?>
<svg xmlns="http://www.w3.org/2000/svg" xmlns:xlink="http://www.w3.org/1999/xlink" width="14pt" height="17pt" viewBox="0 0 14 17" version="1.1">
<g id="surface1">
<path style=" stroke:none;fill-rule:nonzero;fill:rgb(15.294118%,68.235294%,37.647059%);fill-opacity:1;" d="M 5 15 C 4.449219 15 4 15.449219 4 16 C 4 16.550781 4.449219 17 5 17 C 5.550781 17 6 16.550781 6 16 C 6 15.449219 5.550781 15 5 15 Z M 9 15 C 8.449219 15 8 15.449219 8 16 C 8 16.550781 8.449219 17 9 17 C 9.550781 17 10 16.550781 10 16 C 10 15.449219 9.550781 15 9 15 Z M 13 15 C 12.449219 15 12 15.449219 12 16 C 12 16.550781 12.449219 17 13 17 C 13.550781 17 14 16.550781 14 16 C 14 15.449219 13.550781 15 13 15 Z M 13 15 "/>
<path style=" stroke:none;fill-rule:nonzero;fill:rgb(30.196078%,30.196078%,30.196078%);fill-opacity:1;" d="M 4.910156 0 L 1.59375 9.59375 L 1.472656 10 L 0 14 L 1.65625 14 L 3.28125 9.5625 L 8.71875 9.5625 L 10.34375 14 L 12 14 L 10.527344 10 L 10.40625 9.59375 L 7.089844 0 Z M 6.015625 1.9375 L 8.195312 8.28125 L 3.804688 8.28125 Z M 6.015625 1.9375 "/>
</g>
</svg>
