<?xml version="1.0" encoding="UTF-8"?>
<svg xmlns="http://www.w3.org/2000/svg" xmlns:xlink="http://www.w3.org/1999/xlink" width="16pt" height="16pt" viewBox="0 0 16 16" version="1.1">
<g id="surface1">
<path style=" stroke:none;fill-rule:nonzero;fill:rgb(30.196078%,30.196078%,30.196078%);fill-opacity:1;" d="M 8 0 L 7.46875 4.03125 L 5.9375 0.28125 L 6.46875 4.3125 L 4 1.0625 L 5.5625 4.8125 L 2.34375 2.34375 L 4.8125 5.5625 L 1.0625 4 L 4.3125 6.46875 L 0.28125 5.9375 L 4.03125 7.46875 L 0 8 L 4.03125 8.53125 L 0.28125 10.0625 L 4.3125 9.53125 L 1.0625 12 L 4.8125 10.4375 L 2.34375 13.65625 L 5 11.621094 L 5 9 L 6 8 L 16 8 L 11.96875 7.46875 L 15.71875 5.9375 L 11.6875 6.46875 L 14.9375 4 L 11.1875 5.5625 L 13.65625 2.34375 L 10.4375 4.8125 L 12 1.0625 L 9.53125 4.3125 L 10.0625 0.28125 L 8.53125 4.03125 Z M 7.824219 9 C 7.574219 9 7.300781 9.039062 7.003906 9.113281 C 6.707031 9.191406 6.371094 9.316406 6.03125 9.46875 L 6.03125 10.519531 C 6.367188 10.316406 6.734375 10.199219 7.03125 10.097656 C 7.328125 10 7.558594 9.984375 7.828125 9.984375 C 8.203125 9.984375 8.433594 10.027344 8.667969 10.253906 C 8.902344 10.484375 9.007812 10.644531 9.007812 11.011719 C 9.007812 11.234375 8.929688 11.421875 8.816406 11.65625 C 8.710938 11.886719 8.609375 12.019531 8.339844 12.355469 C 8.117188 12.59375 7.804688 12.992188 7.246094 13.609375 C 6.6875 14.222656 6.335938 14.648438 6.011719 15.015625 L 6 16 L 10 16 L 10 14.964844 L 7.238281 15 C 7.925781 14.238281 8.246094 13.859375 8.621094 13.4375 C 8.996094 13.007812 9.21875 12.75 9.292969 12.660156 C 9.546875 12.316406 9.722656 12.019531 9.816406 11.765625 C 9.917969 11.511719 9.96875 11.242188 9.96875 10.960938 C 9.96875 10.367188 9.773438 9.890625 9.386719 9.535156 C 8.996094 9.179688 8.476562 9 7.824219 9 Z M 14 9 L 11 13.238281 L 11 14 L 14 14 L 14 16 L 15 16 L 15 14 L 16 14 L 16 13 L 15 13 L 15 9 Z M 14 10.476562 L 14 13 L 12.296875 13 Z M 14 10.476562 "/>
</g>
</svg>
