<?xml version="1.0" encoding="UTF-8"?>
<svg xmlns="http://www.w3.org/2000/svg" xmlns:xlink="http://www.w3.org/1999/xlink" width="4.03125pt" height="16pt" viewBox="0 0 4.03125 16" version="1.1">
<g id="surface1">
<path style=" stroke:none;fill-rule:nonzero;fill:rgb(30.196078%,30.196078%,30.196078%);fill-opacity:1;" d="M 0 0 L 0 1.1875 C 1.183594 1.1875 1.1875 1.671875 1.1875 3.40625 L 1.1875 5.4375 C 1.1875 6.269531 1.40625 7.488281 2.40625 8 C 1.40625 8.511719 1.1875 9.761719 1.1875 10.59375 L 1.1875 12.59375 C 1.1875 14.328125 1.183594 14.8125 0 14.8125 L 0 16 C 1.777344 16 2.5 15.304688 2.5 13.5 L 2.5 11.0625 C 2.5 9.949219 2.550781 8.65625 3.53125 8.65625 L 4.03125 8.65625 L 4.03125 7.34375 L 3.53125 7.34375 C 2.550781 7.34375 2.5 6.050781 2.5 4.9375 L 2.5 2.5 C 2.5 0.695312 1.777344 0 0 0 Z M 0 0 "/>
</g>
</svg>
