<?xml version="1.0" encoding="UTF-8"?>
<svg xmlns="http://www.w3.org/2000/svg" xmlns:xlink="http://www.w3.org/1999/xlink" width="10pt" height="16pt" viewBox="0 0 10 16" version="1.1">
<g id="surface1">
<path style=" stroke:none;fill-rule:nonzero;fill:rgb(30.196078%,30.196078%,30.196078%);fill-opacity:1;" d="M 5.375 0 C 3.75 0 2.476562 0.394531 1.554688 1.179688 C 0.636719 1.96875 0.179688 3.050781 0.179688 4.429688 C 0.179688 5.160156 0.316406 5.796875 0.597656 6.34375 C 0.878906 6.890625 1.253906 7.371094 1.71875 7.78125 C 2.1875 8.191406 2.894531 8.625 3.828125 9.070312 C 4.832031 9.554688 5.492188 9.902344 5.8125 10.125 C 6.140625 10.34375 6.390625 10.574219 6.558594 10.816406 C 6.726562 11.050781 6.8125 11.320312 6.8125 11.625 C 6.8125 12.171875 6.617188 12.582031 6.234375 12.859375 C 5.855469 13.136719 5.308594 13.277344 4.59375 13.277344 C 4 13.277344 3.34375 13.179688 2.625 12.988281 C 1.910156 12.796875 1.035156 12.464844 0 12 L 0 15.0625 C 1.257812 15.6875 2.707031 16 4.34375 16 C 6.121094 16 7.507812 15.597656 8.5 14.785156 C 9.5 13.976562 10 12.871094 10 11.464844 C 10 10.449219 9.734375 9.597656 9.203125 8.902344 C 8.671875 8.199219 7.6875 7.5 6.253906 6.800781 C 5.167969 6.277344 4.480469 5.914062 4.1875 5.71875 C 3.902344 5.511719 3.691406 5.300781 3.558594 5.085938 C 3.421875 4.867188 3.359375 4.613281 3.359375 4.320312 C 3.359375 3.855469 3.523438 3.472656 3.851562 3.183594 C 4.179688 2.894531 4.652344 2.746094 5.265625 2.746094 C 5.785156 2.746094 6.308594 2.8125 6.84375 2.949219 C 7.378906 3.085938 8.058594 3.320312 8.875 3.664062 L 9.925781 1.09375 C 9.136719 0.746094 8.378906 0.480469 7.652344 0.289062 C 6.929688 0.09375 6.171875 0 5.375 0 Z M 5.375 0 "/>
</g>
</svg>
