<?xml version="1.0" encoding="UTF-8"?>
<svg xmlns="http://www.w3.org/2000/svg" xmlns:xlink="http://www.w3.org/1999/xlink" width="16.9375pt" height="16pt" viewBox="0 0 16.9375 16" version="1.1">
<g id="surface1">
<path style=" stroke:none;fill-rule:nonzero;fill:rgb(30.196078%,30.196078%,30.196078%);fill-opacity:1;" d="M 0.9375 0 L 0.9375 2 L 5.9375 2 L 5.9375 10 L 7.9375 10 L 7.9375 2 L 12.9375 2 L 12.9375 0 Z M 9.9375 8 L 9.9375 14 L 11.9375 14 L 11.9375 16 L 16.9375 16 L 16.9375 10 L 14.9375 10 L 14.9375 8 Z M 10.9375 9 L 13.9375 9 L 13.9375 13 L 10.9375 13 Z M 8.9375 10.972656 L 0 16 L 9.9375 16 L 9.9375 15 L 3.90625 15 L 8.9375 12.191406 Z M 14.9375 11 L 15.9375 11 L 15.9375 15 L 12.9375 15 L 12.9375 14 L 14.9375 14 Z M 14.9375 11 "/>
</g>
</svg>
