<?xml version="1.0" encoding="UTF-8"?>
<svg xmlns="http://www.w3.org/2000/svg" xmlns:xlink="http://www.w3.org/1999/xlink" width="15pt" height="16.001953pt" viewBox="0 0 15 16.001953" version="1.1">
<g id="surface1">
<path style=" stroke:none;fill-rule:nonzero;fill:rgb(30.196078%,30.196078%,30.196078%);fill-opacity:1;" d="M 8 0 C 4.132812 0 1 0.894531 1 2 L 1 10 C 1.007812 10.5625 1.5 10.726562 1.875 10.9375 C 3.058594 11.5625 5.339844 12 8 12 C 9.710938 12 11.175781 11.808594 12.34375 11.53125 C 12.5625 11.488281 12.742188 11.457031 12.9375 11.40625 C 13.050781 11.371094 13.144531 11.347656 13.25 11.3125 C 13.339844 11.285156 13.414062 11.25 13.5 11.21875 C 13.675781 11.148438 13.851562 11.078125 14 11 L 14 14 C 14 14.367188 12.796875 14.679688 11 14.84375 L 11 15.78125 C 13.351562 15.460938 15 14.792969 15 14 L 15 2 C 15 0.894531 11.867188 0 8 0 Z M 8 1 C 9.691406 1 11.203125 1.101562 12.28125 1.28125 C 12.300781 1.285156 12.328125 1.277344 12.34375 1.28125 C 13.382812 1.460938 14 1.730469 14 2 C 14 2.269531 13.382812 2.539062 12.34375 2.71875 C 11.261719 2.90625 9.726562 3 8 3 C 6.273438 3 4.738281 2.90625 3.65625 2.71875 C 2.617188 2.539062 2 2.269531 2 2 C 2 1.730469 2.617188 1.460938 3.65625 1.28125 C 4.210938 1.191406 4.890625 1.144531 5.625 1.09375 C 6.347656 1.042969 7.15625 1 8 1 Z M 2 3 C 2.117188 3.058594 2.242188 3.101562 2.375 3.15625 C 2.417969 3.175781 2.453125 3.199219 2.5 3.21875 C 2.644531 3.273438 2.804688 3.324219 2.96875 3.375 C 3.003906 3.386719 3.027344 3.394531 3.0625 3.40625 C 3.460938 3.523438 3.886719 3.601562 4.375 3.6875 C 5.410156 3.867188 6.636719 4 8 4 C 9.363281 4 10.589844 3.867188 11.625 3.6875 C 12.609375 3.511719 13.414062 3.285156 14 3 L 14 6 C 14 6.269531 13.382812 6.539062 12.34375 6.71875 C 11.261719 6.90625 9.726562 7 8 7 C 7.140625 7 6.347656 6.957031 5.625 6.90625 C 4.925781 6.859375 4.289062 6.804688 3.75 6.71875 C 2.683594 6.539062 2.035156 6.273438 2 6 Z M 1.875 6.9375 C 1.894531 6.949219 1.917969 6.957031 1.9375 6.96875 C 1.957031 6.980469 1.980469 6.988281 2 7 C 2.273438 7.132812 2.601562 7.261719 2.96875 7.375 C 3.003906 7.386719 3.027344 7.394531 3.0625 7.40625 C 3.460938 7.523438 3.886719 7.601562 4.375 7.6875 C 5.410156 7.867188 6.636719 8 8 8 C 9.488281 7.988281 10.820312 7.824219 12.1875 7.5625 C 12.296875 7.539062 12.398438 7.527344 12.5 7.5 C 12.753906 7.4375 13 7.386719 13.21875 7.3125 C 13.25 7.300781 13.28125 7.292969 13.3125 7.28125 C 13.558594 7.195312 13.773438 7.101562 13.96875 7 C 13.976562 6.996094 13.992188 7.003906 14 7 L 14 10 C 14 10.03125 13.984375 10.0625 13.96875 10.09375 C 13.898438 10.195312 13.714844 10.285156 13.46875 10.375 C 13.304688 10.433594 13.101562 10.507812 12.875 10.5625 C 12.574219 10.628906 12.210938 10.699219 11.8125 10.75 C 11.742188 10.757812 11.699219 10.773438 11.625 10.78125 C 11.398438 10.8125 11.152344 10.820312 10.90625 10.84375 C 10.605469 10.871094 10.332031 10.886719 10 10.90625 C 9.351562 10.949219 8.6875 11 8 11 C 4.617188 11 1.875 10.550781 1.875 10 Z M 0.71875 11 L 0 11.71875 L 1.78125 13.5 L 0 15.28125 L 0.71875 16 L 3.21875 13.5 Z M 4 15 L 4 16 L 8 16 L 8 15 Z M 4 15 "/>
</g>
</svg>
