<?xml version="1.0" encoding="UTF-8"?>
<svg xmlns="http://www.w3.org/2000/svg" xmlns:xlink="http://www.w3.org/1999/xlink" width="15pt" height="16pt" viewBox="0 0 15 16" version="1.1">
<g id="surface1">
<path style=" stroke:none;fill-rule:nonzero;fill:rgb(30.196078%,30.196078%,30.196078%);fill-opacity:1;" d="M 4.910156 0 L 1.59375 9.59375 L 1.472656 10 L 0 14 L 1.65625 14 L 3.28125 9.5625 C 3.277344 9.5625 10.394531 9.566406 10.394531 9.566406 L 7.089844 0 Z M 6.015625 1.9375 L 8.195312 8.28125 L 3.804688 8.28125 Z M 6.015625 1.9375 "/>
<path style=" stroke:none;fill-rule:nonzero;fill:rgb(11.372549%,60%,95.294118%);fill-opacity:1;" d="M 10 10 L 10 16 L 13 16 C 14.109375 16 15 15.109375 15 14 C 15 13.1875 14.519531 12.5 13.828125 12.183594 C 13.933594 11.976562 14 11.75 14 11.5 C 14 10.667969 13.332031 10 12.5 10 Z M 11 11 L 12.5 11 C 12.777344 11 13 11.222656 13 11.5 C 13 11.777344 12.777344 12 12.5 12 L 11 12 Z M 11 13 L 13 13 C 13.554688 13 14 13.445312 14 14 C 14 14.554688 13.554688 15 13 15 L 11 15 Z M 11 13 "/>
</g>
</svg>
