<?xml version="1.0" encoding="UTF-8"?>
<svg xmlns="http://www.w3.org/2000/svg" xmlns:xlink="http://www.w3.org/1999/xlink" width="10pt" height="16pt" viewBox="0 0 10 16" version="1.1">
<g id="surface1">
<path style=" stroke:none;fill-rule:nonzero;fill:rgb(30.196078%,30.196078%,30.196078%);fill-opacity:1;" d="M 4.046875 0 C 2.269531 0 1.523438 0.707031 1.523438 2.507812 L 1.523438 4.953125 C 1.523438 6.066406 1.488281 7.355469 0.507812 7.355469 L 0 7.355469 L 0 8.644531 L 0.507812 8.644531 C 1.488281 8.644531 1.523438 9.933594 1.523438 11.046875 L 1.523438 13.488281 C 1.523438 15.292969 2.269531 16 4.046875 16 L 4.046875 14.816406 C 2.859375 14.816406 2.84375 14.339844 2.84375 12.605469 L 2.84375 10.589844 C 2.84375 9.757812 2.640625 8.523438 1.640625 8.011719 C 2.640625 7.496094 2.84375 6.257812 2.84375 5.429688 L 2.84375 3.394531 C 2.84375 1.660156 2.859375 1.183594 4.046875 1.183594 Z M 5.9375 0 L 5.9375 1.183594 C 7.125 1.183594 7.15625 1.660156 7.15625 3.394531 L 7.15625 5.429688 C 7.15625 6.257812 7.359375 7.496094 8.359375 8.011719 C 7.359375 8.523438 7.15625 9.757812 7.15625 10.589844 L 7.15625 12.605469 C 7.15625 14.339844 7.125 14.816406 5.9375 14.816406 L 5.9375 16 C 7.714844 16 8.476562 15.292969 8.476562 13.488281 L 8.476562 11.046875 C 8.476562 9.933594 8.546875 8.644531 9.511719 8.644531 L 10 8.644531 L 10 7.355469 L 9.511719 7.355469 C 8.546875 7.355469 8.476562 6.066406 8.476562 4.953125 L 8.476562 2.507812 C 8.476562 0.707031 7.714844 0 5.9375 0 Z M 5.9375 0 "/>
</g>
</svg>
