<?xml version="1.0" encoding="UTF-8"?>
<svg xmlns="http://www.w3.org/2000/svg" xmlns:xlink="http://www.w3.org/1999/xlink" width="16.000183pt" height="16pt" viewBox="0 0 16.000183 16" version="1.1">
<g id="surface1">
<path style=" stroke:none;fill-rule:nonzero;fill:rgb(95.686275%,46.666667%,31.372549%);fill-opacity:1;" d="M 7 14 C 6.449219 14 6 14.449219 6 15 C 6 15.550781 6.449219 16 7 16 C 7.550781 16 8 15.550781 8 15 C 8 14.449219 7.550781 14 7 14 Z M 11 14 C 10.449219 14 10 14.449219 10 15 C 10 15.550781 10.449219 16 11 16 C 11.550781 16 12 15.550781 12 15 C 12 14.449219 11.550781 14 11 14 Z M 15 14 C 14.449219 14 14 14.449219 14 15 C 14 15.550781 14.449219 16 15 16 C 15.550781 16 16 15.550781 16 15 C 16 14.449219 15.550781 14 15 14 Z M 15 14 "/>
<path style=" stroke:none;fill-rule:nonzero;fill:rgb(30.196078%,30.196078%,30.196078%);fill-opacity:1;" d="M 8 0 C 3.582031 0 0 3.582031 0 8 C 0 11.355469 2.070312 14.214844 5 15.402344 L 5 14.316406 C 2.636719 13.195312 1 10.792969 1 8 C 1 4.132812 4.132812 1 8 1 C 11.476562 1.003906 14.957031 4.039062 15 7 C 15 8.824219 13.765625 10.542969 12 11 L 12 4 L 11 4 L 11 5.359375 C 10.242188 4.496094 9.148438 4 8 4 C 5.789062 4 4 5.789062 4 8 C 4 10.210938 5.789062 12 8 12 C 9.148438 12 10.242188 11.503906 11 10.640625 L 11 12 L 12 12 C 14.328125 11.523438 16 9.375 16 7 C 16.03125 3.164062 12.027344 0.00390625 8 0 Z M 8 5 C 9.65625 5 11 6.34375 11 8 C 11 9.65625 9.65625 11 8 11 C 6.34375 11 5 9.65625 5 8 C 5 6.34375 6.34375 5 8 5 Z M 8 5 "/>
</g>
</svg>
