<?xml version="1.0" encoding="UTF-8"?>
<svg xmlns="http://www.w3.org/2000/svg" xmlns:xlink="http://www.w3.org/1999/xlink" width="16pt" height="16pt" viewBox="0 0 16 16" version="1.1">
<g id="surface1">
<path style=" stroke:none;fill-rule:nonzero;fill:rgb(95.686275%,46.666667%,31.372549%);fill-opacity:1;" d="M 7 14 C 6.449219 14 6 14.449219 6 15 C 6 15.550781 6.449219 16 7 16 C 7.550781 16 8 15.550781 8 15 C 8 14.449219 7.550781 14 7 14 Z M 11 14 C 10.449219 14 10 14.449219 10 15 C 10 15.550781 10.449219 16 11 16 C 11.550781 16 12 15.550781 12 15 C 12 14.449219 11.550781 14 11 14 Z M 15 14 C 14.449219 14 14 14.449219 14 15 C 14 15.550781 14.449219 16 15 16 C 15.550781 16 16 15.550781 16 15 C 16 14.449219 15.550781 14 15 14 Z M 15 14 "/>
<path style=" stroke:none;fill-rule:nonzero;fill:rgb(30.196078%,30.196078%,30.196078%);fill-opacity:1;" d="M 0 0 L 0 3 L 3 3 L 3 0 Z M 13 0 L 13 1 L 15 1 L 15 3 L 16 3 L 16 0 Z M 1 1 L 2 1 L 2 2 L 1 2 Z M 4 2 L 4 3 L 6 3 L 6 2 Z M 7 2 L 7 3 L 9 3 L 9 2 Z M 10 2 L 10 3 L 12 3 L 12 2 Z M 2 4 L 2 6 L 3 6 L 3 4 Z M 6 4 L 6 11 L 12 11 L 12 10 L 7 10 L 7 4 Z M 13 4 L 13 6 L 14 6 L 14 4 Z M 2 7 L 2 9 L 3 9 L 3 7 Z M 13 7 L 13 9 L 14 9 L 14 7 Z M 2 10 L 2 12 L 3 12 L 3 10 Z M 13 10 L 13 12 L 14 12 L 14 10 Z M 0 13 L 0 16 L 3 16 L 3 13 Z M 4 13 L 4 14 L 6 14 L 6 13 Z M 1 14 L 2 14 L 2 15 L 1 15 Z M 1 14 "/>
</g>
</svg>
