<?xml version="1.0" encoding="UTF-8"?>
<svg xmlns="http://www.w3.org/2000/svg" xmlns:xlink="http://www.w3.org/1999/xlink" width="18pt" height="16pt" viewBox="0 0 18 16" version="1.1">
<g id="surface1">
<path style=" stroke:none;fill-rule:nonzero;fill:rgb(30.196078%,30.196078%,30.196078%);fill-opacity:1;" d="M 9 0 C 7.894531 0 7 0.894531 7 2 C 7 2.933594 7.636719 3.714844 8.5 3.9375 L 8.5 6 L 6 6 L 6 7 L 8.5 7 L 8.5 14.96875 C 5.960938 14.804688 3.75 13.457031 2.40625 11.46875 L 2.59375 11.375 L 3.5 10.875 L 3 10 C 3 10 0 11.625 0 11.625 L 0.5 12.5 L 1.53125 11.9375 C 3.136719 14.375 5.867188 16 9 16 C 12.132812 16 14.863281 14.375 16.46875 11.9375 L 17.5 12.5 L 18 11.625 C 18 11.625 15 10 15 10 L 14.5 10.875 L 15.40625 11.375 L 15.59375 11.46875 C 14.25 13.457031 12.039062 14.804688 9.5 14.96875 L 9.5 7 L 12 7 L 12 6 L 9.5 6 L 9.5 3.9375 C 10.363281 3.714844 11 2.933594 11 2 C 11 0.894531 10.105469 0 9 0 Z M 9 1 C 9.550781 1 10 1.449219 10 2 C 10 2.550781 9.550781 3 9 3 C 8.449219 3 8 2.550781 8 2 C 8 1.449219 8.449219 1 9 1 Z M 9 1 "/>
</g>
</svg>
