<?xml version="1.0" encoding="UTF-8"?>
<svg xmlns="http://www.w3.org/2000/svg" xmlns:xlink="http://www.w3.org/1999/xlink" width="16pt" height="16pt" viewBox="0 0 16 16" version="1.1">
<g id="surface1">
<path style=" stroke:none;fill-rule:nonzero;fill:rgb(11.372549%,60%,95.294118%);fill-opacity:1;" d="M 0 2 L 0 3 L 16 3 L 16 2 Z M 0 5 L 0 6 L 16 6 L 16 5 Z M 0 8 L 0 9 L 16 9 L 16 8 Z M 0 11 L 0 12 L 16 12 L 16 11 Z M 0 11 "/>
<path style=" stroke:none;fill-rule:nonzero;fill:rgb(30.196078%,30.196078%,30.196078%);fill-opacity:1;" d="M 1 0 L 1 14 L 0 14 L 0 15 L 1 15 L 1 16 L 2 16 L 2 15 L 16 15 L 16 14 L 2 14 L 2 0 Z M 1 0 "/>
</g>
</svg>
