<?xml version="1.0" encoding="UTF-8"?>
<svg xmlns="http://www.w3.org/2000/svg" xmlns:xlink="http://www.w3.org/1999/xlink" width="14.0625pt" height="14pt" viewBox="0 0 14.0625 14" version="1.1">
<g id="surface1">
<path style=" stroke:none;fill-rule:nonzero;fill:rgb(30.196078%,30.196078%,30.196078%);fill-opacity:1;" d="M 2 0 L 0.0625 5.84375 L 0 6 L 1.0625 6 L 1.375 5 L 3.6875 5 L 4 6 L 5.0625 6 L 5 5.84375 L 3.0625 0 Z M 2.53125 1.5625 L 3.34375 4 L 1.71875 4 Z M 9.0625 8 L 9.0625 14 L 12.0625 14 C 13.171875 14 14.0625 13.109375 14.0625 12 C 14.0625 11.1875 13.566406 10.503906 12.875 10.1875 C 12.980469 9.980469 13.0625 9.75 13.0625 9.5 C 13.0625 8.667969 12.394531 8 11.5625 8 Z M 10.0625 9 L 11.5625 9 C 11.839844 9 12.0625 9.222656 12.0625 9.5 C 12.0625 9.777344 11.839844 10 11.5625 10 L 10.0625 10 Z M 10.0625 11 L 12.0625 11 C 12.617188 11 13.0625 11.445312 13.0625 12 C 13.0625 12.554688 12.617188 13 12.0625 13 L 10.0625 13 Z M 10.0625 11 "/>
<path style=" stroke:none;fill-rule:nonzero;fill:rgb(11.372549%,60%,95.294118%);fill-opacity:1;" d="M 7.0625 1 C 6.386719 1.007812 5.707031 1.136719 5.0625 1.375 L 5.4375 1.8125 L 5.78125 2.21875 L 7.3125 4.09375 L 8.09375 3.46875 L 6.90625 2.03125 C 8.398438 1.960938 9.910156 2.558594 10.9375 3.8125 C 11.703125 4.746094 12.011719 5.875 12 7 L 13.0625 7 C 13.0625 5.652344 12.632812 4.273438 11.71875 3.15625 C 10.6875 1.898438 9.238281 1.1875 7.75 1.03125 C 7.527344 1.007812 7.289062 0.996094 7.0625 1 Z M 1.0625 7 C 1.058594 7.980469 1.277344 8.957031 1.78125 9.875 C 3.039062 12.167969 5.589844 13.304688 8.03125 12.90625 C 8.027344 12.90625 7.867188 12.617188 7.71875 12.34375 L 7.5 11.9375 L 6.28125 9.71875 L 5.40625 10.21875 L 6.34375 11.90625 C 4.851562 11.695312 3.46875 10.832031 2.6875 9.40625 C 2.269531 8.644531 2.085938 7.808594 2.09375 7 Z M 1.0625 7 "/>
</g>
</svg>
