<?xml version="1.0" encoding="UTF-8"?>
<svg xmlns="http://www.w3.org/2000/svg" xmlns:xlink="http://www.w3.org/1999/xlink" width="16pt" height="16pt" viewBox="0 0 16 16" version="1.1">
<g id="surface1">
<path style=" stroke:none;fill-rule:nonzero;fill:rgb(30.196078%,30.196078%,30.196078%);fill-opacity:1;" d="M 0 0 L 0 10 L 8 10 L 8 4 L 10 4 C 11.109375 4 12 4.890625 12 6 L 12 8 L 9 8 L 9 9 L 15 9 L 15 15 L 7 15 L 7 11 L 6 11 L 6 16 L 16 16 L 16 8 L 13 8 L 13 6 C 13 4.339844 11.660156 3 10 3 L 8 3 L 8 0 Z M 1 1 L 7 1 L 7 9 L 1 9 Z M 1 1 "/>
</g>
</svg>
