<?xml version="1.0" encoding="UTF-8"?>
<svg xmlns="http://www.w3.org/2000/svg" xmlns:xlink="http://www.w3.org/1999/xlink" width="16pt" height="16pt" viewBox="0 0 16 16" version="1.1">
<g id="surface1">
<path style=" stroke:none;fill-rule:nonzero;fill:rgb(30.196078%,30.196078%,30.196078%);fill-opacity:1;" d="M 3.945312 0 L 0 6.828125 L 0 7 L 1.054688 7 L 2.210938 5 L 6.789062 5 L 7.941406 7 L 9 7 L 9 6.828125 L 5.054688 0 Z M 12 0 L 12 13 L 13 13 L 13 0 Z M 15 0 L 15 13 L 16 13 L 16 0 Z M 4.5 1.039062 L 6.210938 4 L 2.789062 4 Z M 0 8 L 0 13 L 1 13 L 1 8 Z M 3 8 L 3 13 L 4 13 L 4 8 Z M 6 8 L 6 13 L 7 13 L 7 8 Z M 9 8 L 9 13 L 10 13 L 10 8 Z M 0 14 L 2 16 L 4 14 Z M 6 14 L 8 16 L 10 14 Z M 12 14 L 14 16 L 16 14 Z M 12 14 "/>
</g>
</svg>
