<?xml version="1.0" encoding="UTF-8"?>
<svg xmlns="http://www.w3.org/2000/svg" xmlns:xlink="http://www.w3.org/1999/xlink" width="16pt" height="16pt" viewBox="0 0 16 16" version="1.1">
<g id="surface1">
<path style=" stroke:none;fill-rule:nonzero;fill:rgb(95.686275%,46.666667%,31.372549%);fill-opacity:1;" d="M 15 6 C 14.449219 6 14 6.449219 14 7 C 14 7.550781 14.449219 8 15 8 C 15.550781 8 16 7.550781 16 7 C 16 6.449219 15.550781 6 15 6 Z M 15 10 C 14.449219 10 14 10.449219 14 11 C 14 11.550781 14.449219 12 15 12 C 15.550781 12 16 11.550781 16 11 C 16 10.449219 15.550781 10 15 10 Z M 15 14 C 14.449219 14 14 14.449219 14 15 C 14 15.550781 14.449219 16 15 16 C 15.550781 16 16 15.550781 16 15 C 16 14.449219 15.550781 14 15 14 Z M 15 14 "/>
<path style=" stroke:none;fill-rule:nonzero;fill:rgb(30.196078%,30.196078%,30.196078%);fill-opacity:1;" d="M 2 0 L 2 2 L 0 2 L 0 5 L 2 5 L 2 11 L 0 11 L 0 14 L 2 14 L 2 16 L 13 16 L 13 15 L 6 15 L 6 1 L 15 1 L 15 5 L 16 5 L 16 0 Z M 3 1 L 5 1 L 5 15 L 3 15 Z M 3 1 "/>
</g>
</svg>
