<?xml version="1.0" encoding="UTF-8"?>
<svg xmlns="http://www.w3.org/2000/svg" xmlns:xlink="http://www.w3.org/1999/xlink" width="16pt" height="16pt" viewBox="0 0 16 16" version="1.1">
<g id="surface1">
<path style=" stroke:none;fill-rule:nonzero;fill:rgb(30.196078%,30.196078%,30.196078%);fill-opacity:1;" d="M 3.945312 0 L 0 6.828125 L 0 7 L 1.054688 7 L 2.210938 5 L 6.789062 5 L 7.941406 7 L 9 7 L 9 6.828125 L 5.054688 0 Z M 8 0 L 8 1 L 13 1 L 13 0 Z M 14 0 L 14 4 L 16 2 Z M 4.5 1.039062 L 6.210938 4 L 2.789062 4 Z M 9 3 L 9 4 L 13 4 L 13 3 Z M 10 6 L 10 7 L 13 7 L 13 6 Z M 14 6 L 14 10 L 16 8 Z M 0 9 L 0 10 L 13 10 L 13 9 Z M 0 12 L 0 13 L 13 13 L 13 12 Z M 14 12 L 14 16 L 16 14 Z M 0 15 L 0 16 L 13 16 L 13 15 Z M 0 15 "/>
</g>
</svg>
