<?xml version="1.0" encoding="UTF-8"?>
<svg xmlns="http://www.w3.org/2000/svg" xmlns:xlink="http://www.w3.org/1999/xlink" width="17pt" height="16.207031pt" viewBox="0 0 17 16.207031" version="1.1">
<g id="surface1">
<path style=" stroke:none;fill-rule:nonzero;fill:rgb(30.196078%,30.196078%,30.196078%);fill-opacity:1;" d="M 7 0 L 7 1.078125 C 5.8125 1.246094 4.722656 1.710938 3.808594 2.394531 L 2.414062 1 L 1 2.414062 L 2.394531 3.808594 C 1.710938 4.722656 1.246094 5.8125 1.078125 7 L 0 7 L 0 9 L 1.078125 9 C 1.246094 10.1875 1.710938 11.277344 2.394531 12.191406 L 1 13.585938 L 2.414062 15 L 3.808594 13.605469 C 4.722656 14.289062 5.8125 14.753906 7 14.921875 L 7 16 L 9 16 L 9 13.910156 C 8.675781 13.964844 8.339844 14 8 14 C 7.660156 14 7.324219 13.964844 7 13.910156 C 6.085938 13.757812 5.246094 13.402344 4.523438 12.890625 C 3.976562 12.5 3.5 12.023438 3.109375 11.476562 C 2.597656 10.753906 2.242188 9.914062 2.089844 9 C 2.035156 8.675781 2 8.339844 2 8 C 2 7.660156 2.035156 7.324219 2.089844 7 C 2.242188 6.085938 2.597656 5.246094 3.109375 4.523438 C 3.5 3.976562 3.976562 3.5 4.523438 3.109375 C 5.246094 2.597656 6.085938 2.242188 7 2.089844 C 7.324219 2.035156 7.660156 2 8 2 C 8.339844 2 8.675781 2.035156 9 2.089844 C 9.914062 2.242188 10.753906 2.597656 11.476562 3.109375 C 12.023438 3.5 12.5 3.976562 12.890625 4.523438 C 13.402344 5.246094 13.757812 6.085938 13.910156 7 C 13.964844 7.324219 14 7.660156 14 8 C 14 8.339844 13.964844 8.675781 13.910156 9 L 16 9 L 16 7 L 14.921875 7 C 14.753906 5.8125 14.289062 4.722656 13.605469 3.808594 L 15 2.414062 L 13.585938 1 L 12.191406 2.394531 C 11.277344 1.710938 10.1875 1.246094 9 1.078125 L 9 0 Z M 6 5 L 6 11 L 11 8 Z M 13 10 L 13 14.292969 L 10.707031 12 L 10 12.707031 L 13.5 16.207031 L 17 12.707031 L 16.292969 12 L 14 14.292969 L 14 10 Z M 13 10 "/>
</g>
</svg>
