<?xml version="1.0" encoding="UTF-8"?>
<svg xmlns="http://www.w3.org/2000/svg" xmlns:xlink="http://www.w3.org/1999/xlink" width="15pt" height="15pt" viewBox="0 0 15 15" version="1.1">
<g id="surface1">
<path style=" stroke:none;fill-rule:nonzero;fill:rgb(30.196078%,30.196078%,30.196078%);fill-opacity:1;" d="M 2 0 L 2 12 L 1 12 L 1 13 L 2 13 L 2 14 L 3 14 L 3 13 L 15 13 L 15 12 L 13 12 L 13 5 L 10 5 L 10 12 L 8 12 L 8 2 L 5 2 L 5 12 L 3 12 L 3 0 Z M 2 0 "/>
<path style=" stroke:none;fill-rule:nonzero;fill:rgb(11.372549%,60%,95.294118%);fill-opacity:1;" d="M 0 1 L 0 11 L 1 11 L 1 1 Z M 4 14 L 4 15 L 14 15 L 14 14 Z M 4 14 "/>
</g>
</svg>
