<?xml version="1.0" encoding="UTF-8"?>
<svg xmlns="http://www.w3.org/2000/svg" xmlns:xlink="http://www.w3.org/1999/xlink" width="16pt" height="16pt" viewBox="0 0 16 16" version="1.1">
<g id="surface1">
<path style=" stroke:none;fill-rule:nonzero;fill:rgb(95.686275%,46.666667%,31.372549%);fill-opacity:1;" d="M 12 0 L 14 3 L 16 0 Z M 12 0 "/>
<path style=" stroke:none;fill-rule:nonzero;fill:rgb(30.196078%,30.196078%,30.196078%);fill-opacity:1;" d="M 0 0 L 0 16 L 16 16 L 16 6 L 15 6 L 15 15 L 1 15 L 1 4 L 10 4 L 10 0 Z M 6.425781 6 C 5.363281 6 4.914062 6.351562 4.914062 7.253906 L 4.914062 8.476562 C 4.914062 9.035156 4.894531 9.675781 4.304688 9.675781 L 4 9.675781 L 4 10.324219 L 4.304688 10.324219 C 4.894531 10.324219 4.914062 10.964844 4.914062 11.523438 L 4.914062 12.746094 C 4.914062 13.648438 5.363281 14 6.425781 14 L 6.425781 13.40625 C 5.71875 13.40625 5.707031 13.167969 5.707031 12.300781 L 5.707031 11.296875 C 5.707031 10.878906 5.582031 10.261719 4.984375 10.003906 C 5.582031 9.746094 5.707031 9.128906 5.707031 8.714844 L 5.707031 7.699219 C 5.707031 6.832031 5.71875 6.59375 6.425781 6.59375 Z M 8 6 C 7.445312 6 7 6.445312 7 7 C 7 7.554688 7.445312 8 8 8 C 8.554688 8 9 7.554688 9 7 C 9 6.445312 8.554688 6 8 6 Z M 9.5625 6 L 9.5625 6.59375 C 10.273438 6.59375 10.292969 6.832031 10.292969 7.699219 L 10.292969 8.714844 C 10.292969 9.128906 10.417969 9.746094 11.015625 10.003906 C 10.417969 10.261719 10.292969 10.878906 10.292969 11.296875 L 10.292969 12.300781 C 10.292969 13.167969 10.273438 13.40625 9.5625 13.40625 L 9.5625 14 C 10.628906 14 11.085938 13.648438 11.085938 12.746094 L 11.085938 11.523438 C 11.085938 10.964844 11.125 10.324219 11.703125 10.324219 L 12 10.324219 L 12 9.675781 L 11.703125 9.675781 C 11.125 9.675781 11.085938 9.035156 11.085938 8.476562 L 11.085938 7.253906 C 11.085938 6.351562 10.628906 6 9.5625 6 Z M 7 9 L 7 13 L 9 13 L 9 9 Z M 7 9 "/>
</g>
</svg>
