<?xml version="1.0" encoding="UTF-8"?>
<svg xmlns="http://www.w3.org/2000/svg" xmlns:xlink="http://www.w3.org/1999/xlink" width="16pt" height="16pt" viewBox="0 0 16 16" version="1.1">
<g id="surface1">
<path style=" stroke:none;fill-rule:nonzero;fill:rgb(30.196078%,30.196078%,30.196078%);fill-opacity:1;" d="M 1 0 L 1 4 L 5 4 L 5 7 L 10 7 L 10 10 L 15 10 L 15 0 Z M 2 1 L 5 1 L 5 3 L 2 3 Z M 6 1 L 10 1 L 10 3 L 6 3 Z M 11 1 L 14 1 L 14 3 L 11 3 Z M 6 4 L 10 4 L 10 6 L 6 6 Z M 11 4 L 14 4 L 14 6 L 11 6 Z M 0 7 L 0 16 L 16 16 Z M 11 7 L 14 7 L 14 9 L 11 9 Z M 1 8.800781 L 12.097656 15 L 1 15 Z M 1 8.800781 "/>
</g>
</svg>
