<?xml version="1.0" encoding="UTF-8"?>
<svg xmlns="http://www.w3.org/2000/svg" xmlns:xlink="http://www.w3.org/1999/xlink" width="14pt" height="16.001953pt" viewBox="0 0 14 16.001953" version="1.1">
<g id="surface1">
<path style=" stroke:none;fill-rule:nonzero;fill:rgb(30.196078%,30.196078%,30.196078%);fill-opacity:1;" d="M 0 0 L 0 16 L 14 16 L 14 3.992188 L 10.007812 0 L 10 0.0078125 L 10 0 Z M 1 1 L 9 1 L 9 5 L 13 5 L 13 15 L 1 15 Z M 3 8 L 3 9 L 8 9 L 8 8 Z M 6 11 L 6 12 L 11 12 L 11 11 Z M 6 11 "/>
<path style=" stroke:none;fill-rule:nonzero;fill:rgb(85.490196%,26.666667%,32.54902%);fill-opacity:1;" d="M 3 5 L 3 6 L 7 6 L 7 5 Z M 9 8 L 9 9 L 11 9 L 11 8 Z M 3 11 L 3 12 L 4 12 L 4 11 Z M 3 11 "/>
</g>
</svg>
