<?xml version="1.0" encoding="UTF-8"?>
<svg xmlns="http://www.w3.org/2000/svg" xmlns:xlink="http://www.w3.org/1999/xlink" width="16pt" height="16pt" viewBox="0 0 16 16" version="1.1">
<g id="surface1">
<path style=" stroke:none;fill-rule:nonzero;fill:rgb(30.196078%,30.196078%,30.196078%);fill-opacity:1;" d="M 13 0 L 6 7 L 6.5 7.5 L 5 9 L 5.5 9.5 L 4 11 L 3.757812 11 C 3.914062 10.34375 3.996094 9.671875 4 9 C 3.992188 6.78125 3.167969 4.644531 1.683594 3 L 8 3 L 8 2 L 0 2 L 0 2.765625 C 1.894531 4.28125 2.996094 6.574219 3 9 C 2.996094 9.675781 2.90625 10.347656 2.734375 11 L 0 11 L 0 16 L 5 16 L 5 14 L 11.050781 14 C 11.289062 15.164062 12.3125 16 13.5 16 C 14.878906 16 16 14.878906 16 13.5 C 15.996094 12.3125 15.164062 11.292969 14 11.054688 L 14 9 L 13 9 L 13 11.050781 C 12.019531 11.253906 11.253906 12.019531 11.054688 13 L 5 13 L 5 12 L 6.5 10.5 L 7 11 L 8.5 9.5 L 9 10 L 16 3 Z M 1 12 L 4 12 L 4 15 L 1 15 Z M 13.5 12 C 14.328125 12 15 12.671875 15 13.5 C 15 14.328125 14.328125 15 13.5 15 C 12.671875 15 12 14.328125 12 13.5 C 12 12.671875 12.671875 12 13.5 12 Z M 13.5 12 "/>
</g>
</svg>
