<?xml version="1.0" encoding="UTF-8"?>
<svg xmlns="http://www.w3.org/2000/svg" xmlns:xlink="http://www.w3.org/1999/xlink" width="18pt" height="9pt" viewBox="0 0 18 9" version="1.1">
<g id="surface1">
<path style=" stroke:none;fill-rule:nonzero;fill:rgb(30.196078%,30.196078%,30.196078%);fill-opacity:1;" d="M 1 0 C 0.445312 0 0 0.445312 0 1 L 0 8 C 0 8.554688 0.445312 9 1 9 L 7 9 C 7.554688 9 8 8.554688 8 8 L 8 6 L 7 6 L 7 8 L 1 8 L 1 1 L 7 1 L 7 3 L 8 3 L 8 1 C 8 0.445312 7.554688 0 7 0 Z M 11 0 C 10.445312 0 10 0.445312 10 1 L 10 3 L 11 3 L 11 1 L 17 1 L 17 8 L 11 8 L 11 6 L 10 6 L 10 8 C 10 8.554688 10.445312 9 11 9 L 17 9 C 17.554688 9 18 8.554688 18 8 L 18 1 C 18 0.445312 17.554688 0 17 0 Z M 11 0 "/>
<path style=" stroke:none;fill-rule:nonzero;fill:rgb(85.490196%,26.666667%,32.54902%);fill-opacity:1;" d="M 6 4 L 6 5 L 12 5 L 12 4 Z M 6 4 "/>
</g>
</svg>
