<?xml version="1.0" encoding="UTF-8"?>
<svg xmlns="http://www.w3.org/2000/svg" xmlns:xlink="http://www.w3.org/1999/xlink" width="16pt" height="16pt" viewBox="0 0 16 16" version="1.1">
<g id="surface1">
<path style=" stroke:none;fill-rule:nonzero;fill:rgb(30.196078%,30.196078%,30.196078%);fill-opacity:1;" d="M 1 0 L 1 4 L 5 4 L 5 7 L 15 7 L 15 0 Z M 2 1 L 5 1 L 5 3 L 2 3 Z M 6 1 L 10 1 L 10 3 L 6 3 Z M 11 1 L 14 1 L 14 3 L 11 3 Z M 6 4 L 10 4 L 10 6 L 6 6 Z M 11 4 L 14 4 L 14 6 L 11 6 Z M 8 8 C 3.582031 8 0 8.894531 0 10 L 0 14 C 0 15.105469 3.582031 16 8 16 C 12.417969 16 16 15.105469 16 14 L 16 10 C 16 8.894531 12.417969 8 8 8 Z M 8 9 C 11.867188 9 15 9.449219 15 10 C 15 10.550781 11.867188 11 8 11 C 4.132812 11 1 10.550781 1 10 C 1 9.449219 4.132812 9 8 9 Z M 1 10.9375 C 1.046875 10.960938 1.105469 10.980469 1.15625 11 C 1.15625 11 1.160156 11 1.160156 11 C 1.5 11.144531 1.90625 11.277344 2.367188 11.394531 C 2.511719 11.433594 2.695312 11.460938 2.851562 11.496094 C 3.207031 11.574219 3.558594 11.652344 3.964844 11.714844 C 4.207031 11.75 4.480469 11.769531 4.738281 11.800781 C 5.109375 11.84375 5.46875 11.894531 5.867188 11.921875 C 6.546875 11.972656 7.257812 12 8 12 C 8.742188 12 9.453125 11.972656 10.128906 11.921875 C 10.53125 11.894531 10.890625 11.84375 11.261719 11.800781 C 11.519531 11.769531 11.792969 11.75 12.035156 11.714844 C 12.441406 11.652344 12.792969 11.574219 13.148438 11.496094 C 13.304688 11.460938 13.488281 11.433594 13.632812 11.394531 C 14.09375 11.277344 14.5 11.144531 14.839844 11 C 14.839844 11 14.84375 11 14.84375 11 C 14.894531 10.980469 14.953125 10.960938 15 10.9375 L 15 14 C 15 14.550781 11.867188 15 8 15 C 4.132812 15 1 14.550781 1 14 Z M 1 10.9375 "/>
</g>
</svg>
