<?xml version="1.0" encoding="UTF-8"?>
<svg xmlns="http://www.w3.org/2000/svg" xmlns:xlink="http://www.w3.org/1999/xlink" width="16pt" height="16pt" viewBox="0 0 16 16" version="1.1">
<g id="surface1">
<path style=" stroke:none;fill-rule:nonzero;fill:rgb(30.196078%,30.196078%,30.196078%);fill-opacity:1;" d="M 8 0 C 3.582031 0 0 0.894531 0 2 L 0 14 C 0 15.105469 3.582031 16 8 16 C 12.417969 16 16 15.105469 16 14 L 16 2 C 16 0.894531 12.417969 0 8 0 Z M 8 1 C 11.867188 1 15 1.449219 15 2 C 15 2.550781 11.867188 3 8 3 C 4.132812 3 1 2.550781 1 2 C 1 1.449219 4.132812 1 8 1 Z M 1 2.9375 C 2.351562 3.5625 4.957031 4 8 4 C 11.042969 4 13.648438 3.5625 15 2.9375 L 15 6 C 15 6.550781 11.867188 7 8 7 C 4.132812 7 1 6.550781 1 6 Z M 1 6.9375 C 2.351562 7.5625 4.957031 8 8 8 C 11.042969 8 13.648438 7.5625 15 6.9375 L 15 10 C 15 10.550781 11.867188 11 8 11 C 4.132812 11 1 10.550781 1 10 Z M 1 10.9375 C 2.351562 11.5625 4.957031 12 8 12 C 11.042969 12 13.648438 11.5625 15 10.9375 L 15 14 C 15 14.550781 11.867188 15 8 15 C 4.132812 15 1 14.550781 1 14 Z M 1 10.9375 "/>
</g>
</svg>
