<?xml version="1.0" encoding="UTF-8"?>
<svg xmlns="http://www.w3.org/2000/svg" xmlns:xlink="http://www.w3.org/1999/xlink" width="16pt" height="16pt" viewBox="0 0 16 16" version="1.1">
<g id="surface1">
<path style=" stroke:none;fill-rule:nonzero;fill:rgb(30.196078%,30.196078%,30.196078%);fill-opacity:1;" d="M 0 0 L 0 4 L 1 4 L 1 1 L 4 1 L 4 0 Z M 12 0 L 12 1 L 15 1 L 15 4 L 16 4 L 16 0 Z M 2 2 L 2 14 L 14 14 L 14 2 Z M 3 3 L 13 3 L 13 13 L 3 13 Z M 0 12 L 0 16 L 4 16 L 4 15 L 1 15 L 1 12 Z M 15 12 L 15 15 L 12 15 L 12 16 L 16 16 L 16 12 Z M 15 12 "/>
</g>
</svg>
