<?xml version="1.0" encoding="UTF-8"?>
<svg xmlns="http://www.w3.org/2000/svg" xmlns:xlink="http://www.w3.org/1999/xlink" width="16pt" height="16pt" viewBox="0 0 16 16" version="1.1">
<g id="surface1">
<path style=" stroke:none;fill-rule:nonzero;fill:rgb(15.294118%,68.235294%,37.647059%);fill-opacity:1;" d="M 3 3 L 3 13 L 13 13 L 13 3 Z M 3 3 "/>
<path style=" stroke:none;fill-rule:nonzero;fill:rgb(30.196078%,30.196078%,30.196078%);fill-opacity:1;" d="M 0 0 L 0 1 L 16 1 L 16 0 Z M 0 3 L 0 4 L 2 4 L 2 3 Z M 14 3 L 14 4 L 16 4 L 16 3 Z M 0 6 L 0 7 L 2 7 L 2 6 Z M 14 6 L 14 7 L 16 7 L 16 6 Z M 0 9 L 0 10 L 2 10 L 2 9 Z M 14 9 L 14 10 L 16 10 L 16 9 Z M 0 12 L 0 13 L 2 13 L 2 12 Z M 14 12 L 14 13 L 16 13 L 16 12 Z M 0 15 L 0 16 L 16 16 L 16 15 Z M 0 15 "/>
</g>
</svg>
