<?xml version="1.0" encoding="UTF-8"?>
<svg xmlns="http://www.w3.org/2000/svg" xmlns:xlink="http://www.w3.org/1999/xlink" width="16pt" height="16pt" viewBox="0 0 16 16" version="1.1">
<g id="surface1">
<path style=" stroke:none;fill-rule:nonzero;fill:rgb(30.196078%,30.196078%,30.196078%);fill-opacity:1;" d="M 0 0 L 0 1 L 1 1 L 1 5 L 0 5 L 0 6 L 3 6 L 3 5 L 2 5 L 2 1 L 3 1 L 3 0 Z M 4.5 4 L 4.5 5 L 5.5 5 L 5.5 9 L 4.5 9 L 4.5 10 L 9.5 10 L 9.5 9 L 8.5 9 L 8.5 5 L 9.5 5 L 9.5 4 Z M 6.5 5 L 7.5 5 L 7.5 9 L 6.5 9 Z M 11 10 L 11 11 L 10 11 L 10 12 L 11 12 L 11 14 L 10 14 L 10 15 L 11 15 L 11 16 L 12 16 L 12 15 L 14 15 L 14 16 L 15 16 L 15 15 L 16 15 L 16 14 L 15 14 L 15 12 L 16 12 L 16 11 L 15 11 L 15 10 L 14 10 L 14 11 L 12 11 L 12 10 Z M 12 12 L 14 12 L 14 14 L 12 14 Z M 12 12 "/>
</g>
</svg>
