<?xml version="1.0" encoding="UTF-8"?>
<svg xmlns="http://www.w3.org/2000/svg" xmlns:xlink="http://www.w3.org/1999/xlink" width="16pt" height="16pt" viewBox="0 0 16 16" version="1.1">
<g id="surface1">
<path style=" stroke:none;fill-rule:nonzero;fill:rgb(30.196078%,30.196078%,30.196078%);fill-opacity:1;" d="M 3 0 L 0 3 L 0 16 L 12.96875 16 L 16 12.96875 L 16 0 Z M 4 1 L 14.3125 1 L 12.3125 3 L 4 3 Z M 3 1.375 L 3 3 L 1.375 3 Z M 15 1.6875 L 15 12 L 13 12 L 13 3.6875 Z M 1 4 L 3 4 L 3 12.28125 L 2.65625 12.65625 L 1 14.3125 Z M 4 4 L 12 4 L 12 12 L 4 12 Z M 3.71875 13 L 12 13 L 12 15 L 1.6875 15 L 3.34375 13.34375 Z M 13 13 L 14.59375 13 L 13 14.59375 Z M 13 13 "/>
</g>
</svg>
