<?xml version="1.0" encoding="UTF-8"?>
<svg xmlns="http://www.w3.org/2000/svg" xmlns:xlink="http://www.w3.org/1999/xlink" width="16pt" height="16pt" viewBox="0 0 16 16" version="1.1">
<g id="surface1">
<path style=" stroke:none;fill-rule:nonzero;fill:rgb(30.196078%,30.196078%,30.196078%);fill-opacity:1;" d="M 0 0 L 0 2 L 16 2 L 16 0 Z M 0 4 L 0 5 L 12 5 L 12 4 Z M 13.5 5 C 13.011719 6.703125 11.835938 8.171875 11.3125 9.34375 C 11.128906 9.691406 11 10.078125 11 10.5 C 11 11.886719 12.113281 13 13.5 13 C 14.886719 13 16 11.886719 16 10.5 C 16 10.078125 15.871094 9.691406 15.6875 9.34375 C 15.164062 8.171875 13.988281 6.703125 13.5 5 Z M 0 8 L 0 10 L 2 10 L 2 8 Z M 4 8 L 4 10 L 6 10 L 6 8 Z M 7 8 L 7 10 L 9 10 L 9 8 Z M 0 12 L 0 13 L 10 13 L 10 12 Z M 0 15 L 0 16 L 1 16 L 1 15 Z M 3 15 L 3 16 L 4 16 L 4 15 Z M 6 15 L 6 16 L 7 16 L 7 15 Z M 9 15 L 9 16 L 10 16 L 10 15 Z M 12 15 L 12 16 L 13 16 L 13 15 Z M 15 15 L 15 16 L 16 16 L 16 15 Z M 15 15 "/>
</g>
</svg>
