<?xml version="1.0" encoding="UTF-8"?>
<svg xmlns="http://www.w3.org/2000/svg" xmlns:xlink="http://www.w3.org/1999/xlink" width="16pt" height="16pt" viewBox="0 0 16 16" version="1.1">
<g id="surface1">
<path style=" stroke:none;fill-rule:nonzero;fill:rgb(30.196078%,30.196078%,30.196078%);fill-opacity:1;" d="M 0 0 L 0 7 L 1 7 L 1 1 L 15 1 L 15 15 L 9 15 L 9 16 L 16 16 L 16 0 Z M 11.292969 4 L 8 7.292969 L 8 5 L 7 5 L 7 9 L 11 9 L 11 8 L 8.707031 8 L 12 4.707031 Z M 0 10 L 0 12 L 1 12 L 1 11 L 2 11 L 2 10 Z M 4 10 L 4 11 L 5 11 L 5 12 L 6 12 L 6 10 Z M 0 14 L 0 16 L 2 16 L 2 15 L 1 15 L 1 14 Z M 5 14 L 5 15 L 4 15 L 4 16 L 6 16 L 6 14 Z M 5 14 "/>
</g>
</svg>
