<?xml version="1.0" encoding="UTF-8"?>
<svg xmlns="http://www.w3.org/2000/svg" xmlns:xlink="http://www.w3.org/1999/xlink" width="16pt" height="16pt" viewBox="0 0 16 16" version="1.1">
<g id="surface1">
<path style=" stroke:none;fill-rule:nonzero;fill:rgb(30.196078%,30.196078%,30.196078%);fill-opacity:1;" d="M 0 0 L 0 2 L 1 2 L 1 1 L 2 1 L 2 0 Z M 5 0 L 5 1 L 7 1 L 7 0 Z M 9 0 L 9 1 L 11 1 L 11 0 Z M 14 0 L 14 1 L 15 1 L 15 2 L 16 2 L 16 0 Z M 8 4 L 8 5 L 10.292969 5 L 7 8.292969 L 7.707031 9 L 11 5.707031 L 11 8 L 12 8 L 12 4 Z M 0 5 L 0 7 L 1 7 L 1 5 Z M 15 5 L 15 7 L 16 7 L 16 5 Z M 15 9 L 15 11 L 16 11 L 16 9 Z M 0 10 L 0 16 L 6 16 L 6 10 Z M 1 11 L 5 11 L 5 15 L 1 15 Z M 15 14 L 15 15 L 14 15 L 14 16 L 16 16 L 16 14 Z M 9 15 L 9 16 L 11 16 L 11 15 Z M 9 15 "/>
</g>
</svg>
