<?xml version="1.0" encoding="UTF-8"?>
<svg xmlns="http://www.w3.org/2000/svg" xmlns:xlink="http://www.w3.org/1999/xlink" width="16pt" height="16pt" viewBox="0 0 16 16" version="1.1">
<g id="surface1">
<path style=" stroke:none;fill-rule:nonzero;fill:rgb(30.196078%,30.196078%,30.196078%);fill-opacity:1;" d="M 0 0 L 0 4 L 1 4 L 1 1 L 4 1 L 4 0 Z M 12 0 L 12 1 L 15 1 L 15 4 L 16 4 L 16 0 Z M 6.714844 4.324219 L 6.007812 5.03125 L 7.8125 6.832031 L 8.980469 8 L 7.8125 9.167969 L 6.007812 10.96875 L 6.714844 11.675781 L 10.390625 8 Z M 0 12 L 0 16 L 4 16 L 4 15 L 1 15 L 1 12 Z M 15 12 L 15 15 L 12 15 L 12 16 L 16 16 L 16 12 Z M 15 12 "/>
</g>
</svg>
