<?xml version="1.0" encoding="UTF-8"?>
<svg xmlns="http://www.w3.org/2000/svg" xmlns:xlink="http://www.w3.org/1999/xlink" width="16pt" height="16pt" viewBox="0 0 16 16" version="1.1">
<g id="surface1">
<path style=" stroke:none;fill-rule:nonzero;fill:rgb(30.196078%,30.196078%,30.196078%);fill-opacity:1;" d="M 0 0 L 0 4 L 1 4 L 1 1 L 4 1 L 4 0 Z M 8 0 L 6 2 L 10 2 Z M 12 0 L 12 1 L 15 1 L 15 4 L 16 4 L 16 0 Z M 4 3 L 4 13 L 9 13 L 12 9 L 12 3 Z M 5 4 L 11 4 L 11 9 L 9 9 L 9 12 L 5 12 Z M 2 6 L 0 8 L 2 10 Z M 14 6 L 14 10 L 16 8 Z M 0 12 L 0 16 L 4 16 L 4 15 L 1 15 L 1 12 Z M 15 12 L 15 15 L 12 15 L 12 16 L 16 16 L 16 12 Z M 6 14 L 8 16 L 10 14 Z M 6 14 "/>
</g>
</svg>
