<?xml version="1.0" encoding="UTF-8"?>
<svg xmlns="http://www.w3.org/2000/svg" xmlns:xlink="http://www.w3.org/1999/xlink" width="12pt" height="12pt" viewBox="0 0 12 12" version="1.1">
<g id="surface1">
<path style=" stroke:none;fill-rule:nonzero;fill:rgb(15.294118%,68.235294%,37.647059%);fill-opacity:1;" d="M 10.308594 3 L 5.460938 7.667969 L 2.691406 5 L 2 5.664062 L 4.769531 8.332031 L 5.460938 9 L 6.15625 8.332031 L 11 3.664062 Z M 10.308594 3 "/>
<path style=" stroke:none;fill-rule:nonzero;fill:rgb(30.196078%,30.196078%,30.196078%);fill-opacity:1;" d="M 6 0 C 2.6875 0 0 2.6875 0 6 C 0 9.3125 2.6875 12 6 12 C 9.3125 12 12 9.3125 12 6 C 12 2.6875 9.3125 0 6 0 Z M 6 1 C 8.761719 1 11 3.238281 11 6 C 11 8.761719 8.761719 11 6 11 C 3.238281 11 1 8.761719 1 6 C 1 3.238281 3.238281 1 6 1 Z M 6 1 "/>
</g>
</svg>
