<?xml version="1.0" encoding="UTF-8"?>
<svg xmlns="http://www.w3.org/2000/svg" xmlns:xlink="http://www.w3.org/1999/xlink" width="12pt" height="12pt" viewBox="0 0 12 12" version="1.1">
<g id="surface1">
<path style=" stroke:none;fill-rule:nonzero;fill:rgb(30.196078%,30.196078%,30.196078%);fill-opacity:1;" d="M 0 0 L 0 12 L 12 12 L 12 0 Z M 3 1 L 9 1 L 9 5 L 3 5 Z M 1 2 L 2 2 L 2 3 L 1 3 Z M 10 2 L 11 2 L 11 3 L 10 3 Z M 1 5.5 L 2 5.5 L 2 6.5 L 1 6.5 Z M 10 5.5 L 11 5.5 L 11 6.5 L 10 6.5 Z M 3 7 L 9 7 L 9 11 L 3 11 Z M 1 9 L 2 9 L 2 10 L 1 10 Z M 10 9 L 11 9 L 11 10 L 10 10 Z M 10 9 "/>
</g>
</svg>
