<?xml version="1.0" encoding="UTF-8"?>
<svg xmlns="http://www.w3.org/2000/svg" xmlns:xlink="http://www.w3.org/1999/xlink" width="12pt" height="11pt" viewBox="0 0 12 11" version="1.1">
<g id="surface1">
<path style=" stroke:none;fill-rule:nonzero;fill:rgb(30.196078%,30.196078%,30.196078%);fill-opacity:1;" d="M 1 0 L 1 5 L 0 5 L 0 6 L 1 6 L 1 11 L 5 11 L 5 6 L 7 6 L 7 9 L 11 9 L 11 6 L 12 6 L 12 5 L 11 5 L 11 2 L 7 2 L 7 5 L 5 5 L 5 0 Z M 2 1 L 4 1 L 4 10 L 2 10 Z M 8 3 L 10 3 L 10 8 L 8 8 Z M 8 3 "/>
</g>
</svg>
