<?xml version="1.0" encoding="UTF-8"?>
<svg xmlns="http://www.w3.org/2000/svg" xmlns:xlink="http://www.w3.org/1999/xlink" width="10pt" height="12pt" viewBox="0 0 10 12" version="1.1">
<g id="surface1">
<path style=" stroke:none;fill-rule:nonzero;fill:rgb(30.196078%,30.196078%,30.196078%);fill-opacity:1;" d="M 4.5 0 L 4.5 1 L 2 1 L 2 5 L 4.5 5 L 4.5 7 L 0 7 L 0 11 L 4.5 11 L 4.5 12 L 5.5 12 L 5.5 11 L 10 11 L 10 7 L 5.5 7 L 5.5 5 L 8 5 L 8 1 L 5.5 1 L 5.5 0 Z M 3 2 L 7 2 L 7 4 L 3 4 Z M 1 8 L 9 8 L 9 10 L 1 10 Z M 1 8 "/>
</g>
</svg>
