<?xml version="1.0" encoding="UTF-8"?>
<svg xmlns="http://www.w3.org/2000/svg" xmlns:xlink="http://www.w3.org/1999/xlink" width="15.757812pt" height="9pt" viewBox="0 0 15.757812 9" version="1.1">
<g id="surface1">
<path style=" stroke:none;fill-rule:nonzero;fill:rgb(30.196078%,30.196078%,30.196078%);fill-opacity:1;" d="M 7.875 0 C 4.597656 0.00390625 1.578125 1.792969 0 4.667969 C 0.128906 5.03125 0.359375 5.34375 0.65625 5.578125 C 1.976562 2.785156 4.789062 1.003906 7.875 1 C 5.667969 1 3.875 2.789062 3.875 5 C 3.875 7.210938 5.667969 9 7.875 9 C 10.085938 9 11.875 7.210938 11.875 5 C 11.886719 2.921875 10.296875 1.183594 8.226562 1 C 11.1875 1.132812 13.832031 2.894531 15.097656 5.578125 C 15.398438 5.34375 15.628906 5.027344 15.757812 4.65625 C 14.175781 1.785156 11.15625 0 7.875 0 Z M 7.875 2 C 9.535156 2 10.875 3.34375 10.875 5 C 10.875 6.65625 9.535156 8 7.875 8 C 6.21875 8 4.875 6.65625 4.875 5 C 4.875 3.34375 6.21875 2 7.875 2 Z M 7.875 3 C 6.773438 3 5.875 3.894531 5.875 5 C 5.875 6.105469 6.773438 7 7.875 7 C 8.980469 7 9.875 6.105469 9.875 5 C 9.90625 4.804688 9.90625 4.605469 9.875 4.414062 C 9.703125 4.800781 9.300781 5.039062 8.875 5 C 8.324219 5 7.875 4.550781 7.875 4 C 7.839844 3.574219 8.078125 3.171875 8.46875 3 C 8.269531 2.972656 8.074219 2.972656 7.875 3 Z M 7.875 3 "/>
</g>
</svg>
