<?xml version="1.0" encoding="UTF-8"?>
<svg xmlns="http://www.w3.org/2000/svg" xmlns:xlink="http://www.w3.org/1999/xlink" width="12pt" height="12pt" viewBox="0 0 12 12" version="1.1">
<g id="surface1">
<path style=" stroke:none;fill-rule:nonzero;fill:rgb(30.196078%,30.196078%,30.196078%);fill-opacity:1;" d="M 7.140625 0 L 0 7.136719 L 0 9.992188 C 1.074219 10.011719 2.859375 9.992188 2.859375 9.992188 L 10 2.855469 Z M 6.429688 2.140625 L 7.859375 3.570312 L 5 6.421875 L 3.570312 4.996094 Z M 10 4 C 9.609375 5.277344 8.644531 6.378906 8.222656 7.257812 C 8.078125 7.519531 8 7.808594 8 8.125 C 8 9.164062 8.890625 10 10 10 C 11.109375 10 12 9.164062 12 8.125 C 12 7.808594 11.898438 7.519531 11.75 7.257812 C 11.328125 6.378906 10.390625 5.277344 10 4 Z M 2.859375 5.710938 L 4.285156 7.136719 L 3.570312 7.851562 L 2.140625 6.421875 Z M 0 11 L 0 12 L 12 12 L 12 11 Z M 0 11 "/>
</g>
</svg>
