<?xml version="1.0" encoding="UTF-8"?>
<svg xmlns="http://www.w3.org/2000/svg" xmlns:xlink="http://www.w3.org/1999/xlink" width="12pt" height="12pt" viewBox="0 0 12 12" version="1.1">
<g id="surface1">
<path style=" stroke:none;fill-rule:nonzero;fill:rgb(30.196078%,30.196078%,30.196078%);fill-opacity:1;" d="M 0.375 0 C 0.246094 0 0.125 0.0117188 0 0.03125 L 0 1 C 0.550781 1 1 1.449219 1 2 L 1 10 C 1 10.550781 0.550781 11 0 11 L 0 11.96875 C 0.125 11.988281 0.246094 12 0.375 12 L 8.25 12 C 10.328125 12 12 10.328125 12 8.25 C 12 6.597656 10.917969 5.21875 9.4375 4.71875 C 10.070312 4.242188 10.5 3.484375 10.5 2.625 C 10.5 1.171875 9.328125 0 7.875 0 Z M 4 1 L 7 1 C 7.550781 1 8 1.894531 8 3 C 8 4.105469 7.550781 5 7 5 L 4 5 Z M 4 6 L 7 6 C 7.054688 6 7.105469 6.027344 7.15625 6.03125 C 8.1875 6.132812 9 7.1875 9 8.5 C 9 9.878906 8.105469 11 7 11 L 4 11 Z M 4 6 "/>
</g>
</svg>
