<?xml version="1.0" encoding="UTF-8"?>
<svg xmlns="http://www.w3.org/2000/svg" xmlns:xlink="http://www.w3.org/1999/xlink" width="12pt" height="11pt" viewBox="0 0 12 11" version="1.1">
<g id="surface1">
<path style=" stroke:none;fill-rule:nonzero;fill:rgb(30.196078%,30.196078%,30.196078%);fill-opacity:1;" d="M 0 0 L 0 10 L 4 10 L 4 9 L 1 9 L 1 1 L 11 1 L 11 3 L 12 3 L 12 0 Z M 8 3 C 5.789062 3 4 4.789062 4 7 C 4 9.210938 5.789062 11 8 11 C 10.210938 11 12 9.210938 12 7 C 12 4.789062 10.210938 3 8 3 Z M 8 3.664062 C 8.113281 3.664062 8.222656 3.675781 8.332031 3.6875 L 8.417969 3.6875 C 8.449219 3.695312 8.488281 3.703125 8.519531 3.707031 C 8.617188 3.722656 8.699219 3.75 8.792969 3.773438 C 8.960938 3.8125 9.132812 3.871094 9.292969 3.9375 C 9.378906 3.976562 9.457031 4.019531 9.542969 4.0625 C 9.539062 4.070312 9.542969 4.074219 9.542969 4.082031 C 9.558594 4.089844 9.570312 4.128906 9.605469 4.148438 C 9.617188 4.152344 9.613281 4.160156 9.625 4.164062 C 9.644531 4.175781 9.671875 4.1875 9.667969 4.207031 C 9.660156 4.234375 9.621094 4.226562 9.605469 4.25 C 9.605469 4.285156 9.574219 4.285156 9.5625 4.3125 C 9.570312 4.328125 9.601562 4.335938 9.605469 4.351562 C 9.601562 4.375 9.554688 4.375 9.5625 4.394531 C 9.597656 4.421875 9.632812 4.402344 9.667969 4.394531 C 9.742188 4.386719 9.808594 4.386719 9.855469 4.351562 C 9.847656 4.316406 9.921875 4.324219 9.917969 4.289062 C 9.933594 4.304688 9.960938 4.316406 9.980469 4.332031 C 9.972656 4.339844 9.96875 4.347656 9.957031 4.351562 C 9.945312 4.359375 9.929688 4.363281 9.917969 4.375 C 9.898438 4.386719 9.875 4.402344 9.855469 4.414062 C 9.839844 4.425781 9.808594 4.476562 9.792969 4.476562 C 9.773438 4.476562 9.742188 4.453125 9.730469 4.457031 C 9.707031 4.464844 9.710938 4.492188 9.6875 4.5 C 9.644531 4.515625 9.554688 4.472656 9.542969 4.539062 C 9.558594 4.578125 9.632812 4.558594 9.667969 4.578125 C 9.6875 4.59375 9.722656 4.640625 9.730469 4.664062 C 9.734375 4.683594 9.738281 4.769531 9.730469 4.789062 C 9.707031 4.84375 9.644531 4.832031 9.582031 4.828125 L 9.542969 4.828125 C 9.4375 4.824219 9.335938 4.777344 9.292969 4.851562 C 9.292969 4.910156 9.304688 4.945312 9.292969 4.996094 C 9.28125 5.03125 9.226562 5.070312 9.230469 5.101562 C 9.230469 5.117188 9.265625 5.140625 9.269531 5.164062 C 9.273438 5.175781 9.265625 5.195312 9.269531 5.203125 C 9.289062 5.238281 9.324219 5.199219 9.355469 5.203125 C 9.382812 5.210938 9.417969 5.253906 9.417969 5.289062 C 9.417969 5.308594 9.410156 5.347656 9.394531 5.371094 C 9.367188 5.414062 9.3125 5.410156 9.269531 5.433594 C 9.238281 5.453125 9.230469 5.503906 9.207031 5.539062 C 9.1875 5.578125 9.15625 5.589844 9.167969 5.640625 C 9.136719 5.703125 9.101562 5.738281 9.042969 5.765625 C 9.023438 5.777344 8.996094 5.773438 8.980469 5.789062 C 8.964844 5.796875 8.957031 5.832031 8.9375 5.851562 C 8.914062 5.878906 8.886719 5.894531 8.875 5.914062 C 8.867188 5.929688 8.863281 5.957031 8.855469 5.976562 C 8.839844 6.003906 8.808594 6.011719 8.792969 6.039062 C 8.78125 6.050781 8.78125 6.085938 8.769531 6.101562 C 8.75 6.140625 8.722656 6.171875 8.730469 6.203125 C 8.730469 6.238281 8.769531 6.238281 8.769531 6.265625 C 8.773438 6.285156 8.75 6.292969 8.75 6.308594 C 8.75 6.332031 8.769531 6.351562 8.769531 6.375 C 8.777344 6.421875 8.738281 6.441406 8.730469 6.476562 C 8.722656 6.492188 8.734375 6.503906 8.730469 6.515625 C 8.71875 6.542969 8.6875 6.570312 8.6875 6.601562 C 8.6875 6.621094 8.726562 6.632812 8.730469 6.664062 C 8.730469 6.683594 8.703125 6.707031 8.707031 6.726562 C 8.714844 6.761719 8.785156 6.800781 8.8125 6.828125 C 8.851562 6.867188 8.898438 6.894531 8.917969 6.9375 C 8.929688 6.96875 8.933594 7.035156 8.957031 7.0625 C 8.976562 7.078125 9.015625 7.082031 9.042969 7.101562 C 9.0625 7.121094 9.078125 7.125 9.105469 7.140625 C 9.144531 7.175781 9.207031 7.25 9.269531 7.246094 C 9.304688 7.238281 9.335938 7.210938 9.375 7.203125 C 9.414062 7.199219 9.460938 7.179688 9.5 7.183594 C 9.53125 7.191406 9.570312 7.207031 9.605469 7.203125 C 9.636719 7.199219 9.671875 7.199219 9.707031 7.183594 C 9.773438 7.15625 9.882812 7.109375 9.980469 7.121094 C 10.050781 7.132812 10.050781 7.214844 10.105469 7.246094 C 10.164062 7.253906 10.203125 7.234375 10.25 7.246094 C 10.285156 7.253906 10.332031 7.300781 10.332031 7.328125 C 10.335938 7.359375 10.296875 7.394531 10.292969 7.414062 C 10.28125 7.453125 10.296875 7.492188 10.292969 7.515625 C 10.285156 7.535156 10.269531 7.5625 10.269531 7.578125 C 10.269531 7.597656 10.292969 7.640625 10.3125 7.664062 C 10.335938 7.691406 10.371094 7.714844 10.394531 7.746094 C 10.445312 7.800781 10.464844 7.859375 10.5 7.933594 C 10.507812 7.953125 10.492188 7.972656 10.5 8 C 10.484375 8.109375 10.449219 8.1875 10.375 8.3125 C 10.339844 8.351562 10.289062 8.386719 10.292969 8.4375 C 10.289062 8.554688 10.359375 8.632812 10.355469 8.75 C 10.339844 8.902344 10.367188 8.914062 10.355469 9 C 10.40625 9.023438 10.367188 9.109375 10.355469 9.164062 C 10.332031 9.230469 10.304688 9.246094 10.292969 9.289062 C 10.328125 9.304688 10.375 9.296875 10.417969 9.289062 C 10.394531 9.308594 10.375 9.332031 10.355469 9.351562 C 10.203125 9.503906 10.03125 9.648438 9.855469 9.765625 C 9.507812 10 9.128906 10.175781 8.707031 10.265625 C 8.480469 10.316406 8.242188 10.328125 8 10.328125 C 7.875 10.328125 7.746094 10.324219 7.625 10.3125 C 7.527344 10.300781 7.429688 10.289062 7.335938 10.269531 C 7.144531 10.230469 6.964844 10.152344 6.789062 10.082031 C 6.785156 10.070312 6.769531 10.050781 6.773438 10.039062 C 6.804688 10.023438 6.871094 10.089844 6.898438 10.039062 C 6.910156 10.015625 6.878906 9.957031 6.898438 9.9375 C 6.910156 9.917969 6.976562 9.921875 7 9.917969 C 7.035156 9.910156 7.085938 9.902344 7.105469 9.894531 C 7.128906 9.878906 7.152344 9.832031 7.148438 9.792969 C 7.144531 9.773438 7.121094 9.765625 7.105469 9.75 C 7.09375 9.734375 7.113281 9.71875 7.105469 9.707031 C 7.089844 9.683594 7.050781 9.679688 7.042969 9.644531 C 7.089844 9.636719 7.160156 9.683594 7.230469 9.667969 C 7.261719 9.65625 7.320312 9.59375 7.335938 9.5625 C 7.339844 9.554688 7.328125 9.53125 7.335938 9.519531 C 7.339844 9.507812 7.351562 9.484375 7.355469 9.480469 C 7.359375 9.460938 7.351562 9.472656 7.355469 9.457031 C 7.367188 9.425781 7.394531 9.398438 7.414062 9.375 C 7.429688 9.355469 7.464844 9.332031 7.476562 9.3125 C 7.496094 9.292969 7.488281 9.289062 7.5 9.269531 C 7.511719 9.210938 7.464844 9.15625 7.476562 9.105469 C 7.496094 9.042969 7.589844 9.003906 7.648438 8.980469 C 7.667969 8.96875 7.691406 8.964844 7.710938 8.957031 C 7.75 8.945312 7.796875 8.929688 7.835938 8.917969 C 7.898438 8.894531 7.90625 8.851562 7.9375 8.792969 C 7.953125 8.765625 7.976562 8.726562 7.976562 8.707031 C 7.980469 8.691406 7.976562 8.6875 7.976562 8.667969 C 7.980469 8.648438 7.972656 8.628906 7.976562 8.605469 C 7.984375 8.578125 8 8.511719 8 8.480469 C 8 8.453125 7.980469 8.441406 7.976562 8.417969 C 7.972656 8.332031 8.007812 8.339844 8.042969 8.292969 C 8.058594 8.269531 8.074219 8.226562 8.082031 8.207031 C 8.136719 8.128906 8.234375 8.101562 8.230469 7.980469 C 8.226562 7.941406 8.195312 7.847656 8.167969 7.832031 C 8.148438 7.828125 8.128906 7.820312 8.105469 7.8125 C 8.023438 7.78125 7.957031 7.695312 7.875 7.6875 L 7.835938 7.6875 C 7.800781 7.6875 7.765625 7.671875 7.726562 7.667969 C 7.707031 7.660156 7.660156 7.675781 7.648438 7.667969 C 7.625 7.65625 7.621094 7.617188 7.601562 7.605469 C 7.589844 7.597656 7.5625 7.589844 7.539062 7.582031 C 7.507812 7.570312 7.496094 7.546875 7.460938 7.542969 C 7.445312 7.542969 7.429688 7.550781 7.414062 7.542969 C 7.394531 7.535156 7.375 7.535156 7.355469 7.519531 C 7.332031 7.507812 7.304688 7.5 7.292969 7.480469 C 7.316406 7.410156 7.246094 7.398438 7.230469 7.355469 C 7.222656 7.335938 7.238281 7.289062 7.230469 7.273438 C 7.222656 7.25 7.195312 7.230469 7.167969 7.207031 C 7.121094 7.171875 7.089844 7.15625 7.023438 7.144531 C 6.992188 7.140625 6.953125 7.152344 6.917969 7.144531 C 6.878906 7.140625 6.824219 7.117188 6.792969 7.082031 C 6.765625 7.050781 6.753906 7.015625 6.730469 7 C 6.707031 6.988281 6.683594 6.972656 6.667969 6.960938 C 6.660156 6.953125 6.652344 6.953125 6.648438 6.9375 C 6.632812 6.914062 6.609375 6.90625 6.625 6.875 C 6.597656 6.863281 6.613281 6.902344 6.585938 6.898438 C 6.558594 6.859375 6.539062 6.824219 6.480469 6.835938 C 6.453125 6.839844 6.429688 6.894531 6.398438 6.898438 C 6.371094 6.898438 6.347656 6.839844 6.3125 6.835938 C 6.285156 6.828125 6.25 6.859375 6.230469 6.855469 C 6.203125 6.847656 6.195312 6.832031 6.167969 6.8125 C 6.148438 6.800781 6.117188 6.773438 6.105469 6.773438 C 6.070312 6.773438 6.046875 6.839844 6 6.8125 C 5.976562 6.785156 6.046875 6.777344 6.023438 6.75 C 6 6.734375 5.996094 6.761719 5.980469 6.773438 C 5.960938 6.785156 5.9375 6.785156 5.917969 6.792969 C 5.871094 6.808594 5.828125 6.816406 5.792969 6.835938 C 5.757812 6.851562 5.75 6.863281 5.730469 6.898438 C 5.714844 6.925781 5.691406 6.980469 5.667969 6.980469 C 5.640625 6.980469 5.628906 6.949219 5.605469 6.9375 C 5.527344 6.90625 5.480469 6.957031 5.417969 6.960938 C 5.359375 6.960938 5.269531 6.867188 5.273438 6.8125 C 5.273438 6.777344 5.289062 6.730469 5.292969 6.6875 C 5.296875 6.652344 5.332031 6.613281 5.335938 6.585938 C 5.335938 6.542969 5.257812 6.527344 5.230469 6.523438 C 5.167969 6.511719 5.09375 6.550781 5.023438 6.523438 C 5.007812 6.5 5.035156 6.480469 5.042969 6.460938 C 5.046875 6.445312 5.039062 6.429688 5.042969 6.417969 C 5.050781 6.398438 5.09375 6.378906 5.105469 6.355469 C 5.113281 6.339844 5.097656 6.316406 5.105469 6.292969 C 5.113281 6.269531 5.144531 6.246094 5.148438 6.230469 C 5.148438 6.207031 5.125 6.179688 5.105469 6.164062 C 5.050781 6.171875 5.011719 6.171875 4.980469 6.1875 C 4.910156 6.21875 4.929688 6.3125 4.855469 6.335938 C 4.832031 6.34375 4.800781 6.347656 4.773438 6.351562 C 4.757812 6.359375 4.742188 6.351562 4.730469 6.351562 C 4.730469 6.347656 4.730469 6.339844 4.730469 6.335938 C 4.734375 6.320312 4.746094 6.308594 4.75 6.292969 C 4.796875 6.078125 4.871094 5.867188 4.960938 5.667969 L 4.980469 5.667969 C 5.003906 5.675781 5.019531 5.707031 5.042969 5.710938 C 5.105469 5.714844 5.117188 5.652344 5.167969 5.625 C 5.21875 5.632812 5.246094 5.617188 5.292969 5.625 C 5.324219 5.632812 5.371094 5.664062 5.398438 5.664062 C 5.417969 5.664062 5.417969 5.644531 5.4375 5.648438 C 5.457031 5.652344 5.496094 5.683594 5.5 5.710938 C 5.503906 5.738281 5.472656 5.78125 5.480469 5.8125 C 5.511719 5.84375 5.582031 5.855469 5.625 5.875 C 5.65625 5.851562 5.628906 5.804688 5.625 5.773438 C 5.625 5.757812 5.628906 5.722656 5.625 5.710938 C 5.621094 5.683594 5.605469 5.667969 5.605469 5.648438 C 5.605469 5.550781 5.6875 5.515625 5.75 5.476562 C 5.777344 5.460938 5.808594 5.429688 5.835938 5.414062 C 5.867188 5.398438 5.890625 5.410156 5.917969 5.398438 C 5.96875 5.367188 6.003906 5.324219 6.042969 5.289062 C 6.0625 5.246094 6.039062 5.1875 6.042969 5.148438 C 6.0625 5.136719 6.085938 5.148438 6.105469 5.148438 C 6.136719 5.140625 6.152344 5.101562 6.167969 5.085938 C 6.179688 5.074219 6.195312 5.074219 6.210938 5.0625 C 6.238281 5.039062 6.246094 5.011719 6.273438 5 C 6.28125 4.992188 6.296875 4.984375 6.3125 4.976562 C 6.332031 4.972656 6.363281 4.972656 6.398438 4.960938 C 6.417969 4.953125 6.472656 4.945312 6.480469 4.9375 C 6.492188 4.925781 6.476562 4.890625 6.480469 4.875 C 6.496094 4.800781 6.601562 4.796875 6.667969 4.773438 C 6.714844 4.753906 6.761719 4.699219 6.8125 4.710938 C 6.800781 4.746094 6.761719 4.746094 6.773438 4.789062 C 6.78125 4.851562 6.855469 4.78125 6.875 4.773438 C 6.914062 4.753906 6.988281 4.730469 7.042969 4.710938 C 7.089844 4.691406 7.167969 4.679688 7.125 4.625 C 7.089844 4.617188 7.074219 4.652344 7.042969 4.664062 C 7.019531 4.671875 7.019531 4.648438 7 4.648438 C 6.980469 4.648438 6.976562 4.667969 6.960938 4.664062 C 6.941406 4.660156 6.921875 4.625 6.917969 4.601562 C 6.910156 4.546875 6.957031 4.542969 6.980469 4.5 C 6.964844 4.449219 6.898438 4.476562 6.855469 4.460938 C 6.859375 4.429688 6.882812 4.402344 6.917969 4.394531 C 6.945312 4.386719 7.027344 4.402344 7.042969 4.414062 C 7.054688 4.425781 7.027344 4.445312 7.042969 4.457031 C 7.058594 4.472656 7.082031 4.464844 7.105469 4.457031 C 7.113281 4.417969 7.054688 4.441406 7.0625 4.414062 C 7.109375 4.386719 7.195312 4.402344 7.25 4.394531 C 7.28125 4.386719 7.328125 4.367188 7.355469 4.351562 C 7.382812 4.339844 7.390625 4.308594 7.417969 4.335938 C 7.425781 4.359375 7.410156 4.382812 7.398438 4.398438 C 7.34375 4.441406 7.289062 4.488281 7.25 4.539062 C 7.273438 4.566406 7.3125 4.558594 7.355469 4.5625 C 7.371094 4.570312 7.402344 4.5625 7.417969 4.5625 C 7.4375 4.570312 7.460938 4.554688 7.476562 4.5625 C 7.507812 4.570312 7.511719 4.625 7.539062 4.625 C 7.585938 4.625 7.566406 4.570312 7.539062 4.539062 C 7.550781 4.507812 7.574219 4.480469 7.5625 4.460938 C 7.542969 4.417969 7.464844 4.472656 7.460938 4.417969 C 7.457031 4.382812 7.488281 4.378906 7.5 4.355469 C 7.496094 4.292969 7.546875 4.289062 7.539062 4.230469 C 7.539062 4.207031 7.515625 4.210938 7.5 4.1875 C 7.492188 4.175781 7.488281 4.132812 7.476562 4.125 C 7.445312 4.09375 7.378906 4.117188 7.375 4.0625 C 7.371094 4.027344 7.378906 3.996094 7.375 3.960938 C 7.371094 3.925781 7.339844 3.820312 7.3125 3.8125 C 7.273438 3.804688 7.253906 3.875 7.210938 3.898438 C 7.183594 3.90625 7.128906 3.921875 7.101562 3.914062 C 7.085938 3.910156 7.066406 3.90625 7.0625 3.875 C 7.058594 3.847656 7.09375 3.835938 7.101562 3.8125 C 7.105469 3.804688 7.101562 3.800781 7.101562 3.792969 C 7.152344 3.78125 7.199219 3.761719 7.25 3.75 C 7.277344 3.742188 7.304688 3.734375 7.335938 3.730469 C 7.355469 3.722656 7.375 3.738281 7.398438 3.730469 C 7.484375 3.714844 7.574219 3.699219 7.664062 3.6875 C 7.777344 3.679688 7.886719 3.667969 8 3.667969 Z M 6.648438 3.976562 C 6.625 4.101562 6.511719 4.148438 6.375 4.148438 C 6.34375 4.175781 6.371094 4.230469 6.351562 4.273438 C 6.339844 4.304688 6.285156 4.335938 6.25 4.335938 C 6.226562 4.335938 6.1875 4.292969 6.1875 4.273438 C 6.1875 4.242188 6.234375 4.242188 6.210938 4.210938 C 6.210938 4.203125 6.222656 4.195312 6.226562 4.1875 C 6.242188 4.179688 6.257812 4.175781 6.273438 4.164062 C 6.390625 4.089844 6.515625 4.039062 6.648438 3.976562 Z M 9.4375 4.101562 C 9.425781 4.109375 9.425781 4.117188 9.417969 4.125 C 9.390625 4.140625 9.371094 4.160156 9.355469 4.164062 C 9.328125 4.175781 9.296875 4.183594 9.292969 4.207031 C 9.289062 4.226562 9.3125 4.230469 9.3125 4.25 C 9.300781 4.273438 9.296875 4.28125 9.292969 4.3125 C 9.324219 4.367188 9.394531 4.300781 9.4375 4.289062 C 9.457031 4.285156 9.46875 4.285156 9.480469 4.269531 C 9.488281 4.25 9.492188 4.230469 9.5 4.207031 C 9.507812 4.179688 9.542969 4.167969 9.542969 4.144531 C 9.539062 4.121094 9.480469 4.101562 9.4375 4.101562 Z M 5.789062 4.523438 C 5.824219 4.546875 5.867188 4.601562 5.8125 4.625 C 5.804688 4.632812 5.726562 4.648438 5.710938 4.648438 C 5.703125 4.648438 5.691406 4.628906 5.6875 4.625 C 5.722656 4.589844 5.753906 4.554688 5.789062 4.523438 Z M 5.914062 4.648438 C 5.933594 4.648438 5.941406 4.6875 5.960938 4.6875 C 5.976562 4.6875 5.988281 4.664062 6 4.664062 C 6.027344 4.671875 6.046875 4.730469 6.023438 4.75 C 6 4.757812 5.996094 4.726562 5.976562 4.726562 C 5.933594 4.738281 5.910156 4.835938 5.875 4.835938 C 5.84375 4.828125 5.820312 4.75 5.851562 4.726562 C 5.855469 4.707031 5.851562 4.707031 5.851562 4.6875 C 5.863281 4.675781 5.890625 4.644531 5.914062 4.648438 Z M 5.75 4.664062 C 5.757812 4.664062 5.769531 4.660156 5.773438 4.664062 C 5.765625 4.703125 5.753906 4.710938 5.726562 4.726562 C 5.679688 4.757812 5.640625 4.792969 5.625 4.851562 C 5.621094 4.871094 5.5625 4.921875 5.539062 4.914062 C 5.488281 4.90625 5.570312 4.804688 5.585938 4.789062 C 5.597656 4.773438 5.609375 4.769531 5.625 4.75 C 5.640625 4.730469 5.652344 4.699219 5.664062 4.6875 C 5.683594 4.675781 5.722656 4.667969 5.75 4.667969 Z M 10.269531 4.773438 C 10.324219 4.765625 10.351562 4.820312 10.375 4.851562 C 10.394531 4.878906 10.445312 4.917969 10.480469 4.9375 C 10.496094 4.949219 10.519531 4.96875 10.542969 4.976562 C 10.585938 4.996094 10.664062 5.0625 10.667969 5.101562 C 10.667969 5.125 10.644531 5.144531 10.644531 5.164062 C 10.679688 5.171875 10.707031 5.117188 10.707031 5.085938 C 10.769531 5.171875 10.820312 5.261719 10.875 5.351562 C 10.898438 5.398438 10.9375 5.433594 10.957031 5.476562 C 10.929688 5.488281 10.921875 5.492188 10.917969 5.519531 C 10.910156 5.558594 10.929688 5.617188 10.875 5.625 C 10.839844 5.632812 10.796875 5.59375 10.75 5.585938 C 10.730469 5.578125 10.703125 5.589844 10.6875 5.585938 C 10.652344 5.570312 10.65625 5.523438 10.625 5.5 C 10.605469 5.488281 10.550781 5.460938 10.519531 5.460938 C 10.503906 5.460938 10.496094 5.464844 10.480469 5.460938 C 10.457031 5.453125 10.414062 5.46875 10.394531 5.460938 C 10.378906 5.449219 10.339844 5.410156 10.332031 5.398438 C 10.328125 5.371094 10.394531 5.355469 10.394531 5.335938 C 10.398438 5.316406 10.378906 5.292969 10.375 5.269531 C 10.371094 5.253906 10.378906 5.238281 10.375 5.226562 C 10.371094 5.210938 10.339844 5.210938 10.3125 5.210938 L 10.0625 5.210938 C 10.003906 5.214844 9.960938 5.203125 9.917969 5.210938 C 9.882812 5.210938 9.820312 5.238281 9.792969 5.25 C 9.777344 5.257812 9.769531 5.257812 9.75 5.269531 C 9.742188 5.277344 9.722656 5.285156 9.707031 5.289062 C 9.691406 5.300781 9.664062 5.328125 9.644531 5.332031 C 9.621094 5.339844 9.589844 5.324219 9.542969 5.332031 C 9.507812 5.332031 9.460938 5.308594 9.457031 5.269531 C 9.457031 5.207031 9.566406 5.238281 9.625 5.226562 C 9.648438 5.222656 9.660156 5.203125 9.6875 5.1875 C 9.699219 5.179688 9.695312 5.175781 9.707031 5.164062 C 9.730469 5.152344 9.769531 5.121094 9.769531 5.101562 C 9.773438 5.089844 9.769531 5.074219 9.769531 5.0625 C 9.773438 5.046875 9.792969 5.039062 9.8125 5.023438 C 9.839844 4.992188 9.863281 4.957031 9.894531 4.9375 C 9.917969 4.925781 9.949219 4.914062 9.957031 4.898438 C 9.960938 4.875 9.957031 4.875 9.957031 4.855469 C 9.972656 4.84375 9.988281 4.835938 10 4.835938 C 10.035156 4.824219 10.0625 4.835938 10.105469 4.835938 C 10.121094 4.835938 10.148438 4.84375 10.167969 4.835938 C 10.183594 4.824219 10.191406 4.800781 10.207031 4.792969 C 10.226562 4.785156 10.25 4.773438 10.269531 4.773438 Z M 10.644531 5.164062 L 10.5625 5.164062 C 10.53125 5.164062 10.496094 5.152344 10.480469 5.164062 C 10.503906 5.207031 10.546875 5.21875 10.605469 5.226562 C 10.625 5.214844 10.636719 5.191406 10.644531 5.164062 Z M 6.085938 4.789062 L 6.148438 4.789062 C 6.164062 4.789062 6.179688 4.785156 6.1875 4.789062 C 6.175781 4.835938 6.074219 4.828125 6.039062 4.8125 C 6.042969 4.796875 6.0625 4.792969 6.085938 4.789062 Z M 5.9375 4.875 C 5.910156 4.894531 5.878906 4.921875 5.835938 4.9375 C 5.808594 4.945312 5.777344 4.945312 5.773438 4.914062 C 5.765625 4.882812 5.8125 4.898438 5.835938 4.898438 C 5.863281 4.890625 5.902344 4.875 5.9375 4.875 Z M 10.269531 4.875 C 10.25 4.882812 10.238281 4.929688 10.269531 4.9375 C 10.285156 4.929688 10.296875 4.902344 10.292969 4.875 C 10.28125 4.867188 10.277344 4.867188 10.269531 4.875 Z M 10.230469 4.976562 C 10.230469 5.015625 10.234375 5.050781 10.230469 5.085938 C 10.25 5.125 10.300781 5.089844 10.3125 5.0625 C 10.324219 4.992188 10.304688 4.96875 10.269531 4.976562 C 10.261719 4.984375 10.238281 4.96875 10.230469 4.976562 Z M 4.710938 6.539062 C 4.746094 6.574219 4.765625 6.625 4.8125 6.648438 C 4.828125 6.65625 4.855469 6.660156 4.875 6.664062 C 4.890625 6.671875 4.898438 6.660156 4.914062 6.664062 C 4.953125 6.679688 4.992188 6.695312 5.023438 6.707031 C 5.0625 6.726562 5.109375 6.792969 5.148438 6.8125 C 5.148438 6.832031 5.140625 6.859375 5.148438 6.875 C 5.164062 6.898438 5.179688 6.921875 5.210938 6.9375 C 5.242188 6.957031 5.257812 6.984375 5.289062 7 C 5.300781 7.007812 5.316406 6.992188 5.335938 7 C 5.378906 7.011719 5.398438 7.074219 5.4375 7.0625 C 5.460938 7.054688 5.453125 7.023438 5.460938 7 C 5.476562 6.980469 5.496094 6.960938 5.523438 6.960938 C 5.5625 6.960938 5.570312 7.023438 5.585938 7.0625 C 5.59375 7.085938 5.617188 7.101562 5.625 7.125 C 5.636719 7.167969 5.632812 7.289062 5.625 7.3125 C 5.613281 7.34375 5.566406 7.339844 5.539062 7.375 C 5.527344 7.390625 5.53125 7.425781 5.523438 7.4375 C 5.503906 7.457031 5.492188 7.460938 5.476562 7.480469 C 5.472656 7.492188 5.464844 7.507812 5.460938 7.519531 C 5.4375 7.5625 5.398438 7.59375 5.414062 7.644531 C 5.421875 7.667969 5.460938 7.683594 5.460938 7.707031 C 5.460938 7.738281 5.402344 7.761719 5.398438 7.792969 C 5.394531 7.816406 5.410156 7.84375 5.414062 7.875 C 5.421875 7.898438 5.464844 7.921875 5.476562 7.9375 C 5.5 7.964844 5.519531 8.011719 5.539062 8.042969 C 5.582031 8.109375 5.605469 8.1875 5.648438 8.25 C 5.667969 8.28125 5.714844 8.300781 5.726562 8.332031 C 5.734375 8.351562 5.722656 8.378906 5.726562 8.394531 C 5.753906 8.449219 5.863281 8.515625 5.914062 8.542969 C 5.941406 8.554688 5.976562 8.550781 6 8.5625 C 6.035156 8.582031 6.105469 8.636719 6.125 8.667969 C 6.140625 8.695312 6.136719 8.769531 6.148438 8.8125 C 6.15625 8.871094 6.144531 8.917969 6.148438 8.980469 C 6.148438 9.015625 6.164062 9.027344 6.164062 9.0625 C 6.164062 9.074219 6.167969 9.113281 6.164062 9.125 C 6.164062 9.167969 6.167969 9.207031 6.164062 9.25 C 6.164062 9.273438 6.164062 9.292969 6.164062 9.3125 C 6.167969 9.332031 6.1875 9.335938 6.1875 9.355469 C 6.1875 9.375 6.164062 9.402344 6.164062 9.417969 C 6.171875 9.460938 6.199219 9.484375 6.210938 9.519531 C 6.214844 9.550781 6.234375 9.632812 6.226562 9.667969 C 6.226562 9.6875 6.210938 9.707031 6.210938 9.730469 C 6.207031 9.746094 6.210938 9.757812 6.210938 9.769531 C 6.207031 9.785156 6.214844 9.800781 6.210938 9.8125 C 6.1875 9.800781 6.167969 9.785156 6.148438 9.769531 C 5.96875 9.652344 5.796875 9.507812 5.648438 9.355469 C 5.625 9.335938 5.605469 9.3125 5.585938 9.292969 C 5.464844 9.164062 5.347656 9.019531 5.25 8.875 C 5.242188 8.863281 5.238281 8.847656 5.226562 8.832031 C 5.113281 8.660156 5.019531 8.488281 4.9375 8.292969 C 4.929688 8.277344 4.921875 8.265625 4.914062 8.25 C 4.847656 8.078125 4.789062 7.894531 4.75 7.707031 C 4.742188 7.671875 4.734375 7.640625 4.726562 7.605469 C 4.710938 7.515625 4.695312 7.425781 4.6875 7.332031 C 4.675781 7.222656 4.664062 7.113281 4.664062 7 C 4.664062 6.839844 4.6875 6.695312 4.710938 6.539062 Z M 4.710938 6.539062 "/>
</g>
</svg>
