<?xml version="1.0" encoding="UTF-8"?>
<svg xmlns="http://www.w3.org/2000/svg" xmlns:xlink="http://www.w3.org/1999/xlink" width="12pt" height="12pt" viewBox="0 0 12 12" version="1.1">
<g id="surface1">
<path style=" stroke:none;fill-rule:nonzero;fill:rgb(30.196078%,30.196078%,30.196078%);fill-opacity:1;" d="M 0 0 L 0 3 L 8 3 L 8 0 Z M 4.4375 4 C 3.371094 4 2.90625 4.347656 2.90625 5.25 L 2.90625 6.46875 C 2.90625 7.027344 2.902344 7.6875 2.3125 7.6875 L 2 7.6875 L 2 8.3125 L 2.3125 8.3125 C 2.902344 8.3125 2.90625 8.972656 2.90625 9.53125 L 2.90625 10.75 C 2.90625 11.652344 3.371094 12 4.4375 12 L 4.4375 11.40625 C 3.726562 11.40625 3.71875 11.179688 3.71875 10.3125 L 3.71875 9.28125 C 3.71875 8.867188 3.566406 8.257812 2.96875 8 C 3.566406 7.742188 3.71875 7.132812 3.71875 6.71875 L 3.71875 5.6875 C 3.71875 4.820312 3.726562 4.59375 4.4375 4.59375 Z M 7.5625 4 L 7.5625 4.59375 C 8.273438 4.59375 8.28125 4.820312 8.28125 5.6875 L 8.28125 6.71875 C 8.28125 7.132812 8.402344 7.742188 9 8 C 8.402344 8.257812 8.28125 8.867188 8.28125 9.28125 L 8.28125 10.3125 C 8.28125 11.179688 8.273438 11.40625 7.5625 11.40625 L 7.5625 12 C 8.628906 12 9.09375 11.652344 9.09375 10.75 L 9.09375 9.53125 C 9.09375 8.972656 9.140625 8.3125 9.71875 8.3125 L 10 8.3125 L 10 7.6875 L 9.71875 7.6875 C 9.140625 7.6875 9.09375 7.027344 9.09375 6.46875 L 9.09375 5.25 C 9.09375 4.347656 8.628906 4 7.5625 4 Z M 7.5625 4 "/>
<path style=" stroke:none;fill-rule:nonzero;fill:rgb(95.686275%,46.666667%,31.372549%);fill-opacity:1;" d="M 9 0 L 9 3 L 12 1.5 Z M 9 0 "/>
</g>
</svg>
