<?xml version="1.0" encoding="UTF-8"?>
<svg xmlns="http://www.w3.org/2000/svg" xmlns:xlink="http://www.w3.org/1999/xlink" width="12pt" height="10pt" viewBox="0 0 12 10" version="1.1">
<g id="surface1">
<path style=" stroke:none;fill-rule:nonzero;fill:rgb(85.490196%,26.666667%,32.54902%);fill-opacity:1;" d="M 7.835938 5 L 7 5.835938 L 8.667969 7.5 L 7 9.167969 L 7.835938 10 L 9.5 8.332031 L 11.167969 10 L 12 9.167969 L 10.332031 7.5 L 12 5.835938 L 11.167969 5 L 9.5 6.667969 Z M 7.835938 5 "/>
<path style=" stroke:none;fill-rule:nonzero;fill:rgb(30.196078%,30.196078%,30.196078%);fill-opacity:1;" d="M 4 0 L 4 1 L 0 1 L 0 2 L 4 2 L 4 4 L 8 4 L 8 2 L 12 2 L 12 1 L 8 1 L 8 0 Z M 5 1 L 7 1 L 7 3 L 5 3 Z M 5 1 "/>
</g>
</svg>
