<?xml version="1.0" encoding="UTF-8"?>
<svg xmlns="http://www.w3.org/2000/svg" xmlns:xlink="http://www.w3.org/1999/xlink" width="12pt" height="12pt" viewBox="0 0 12 12" version="1.1">
<g id="surface1">
<path style=" stroke:none;fill-rule:nonzero;fill:rgb(30.196078%,30.196078%,30.196078%);fill-opacity:1;" d="M 6.054688 0 C 4.941406 0 4.039062 0.894531 4.039062 2 L 4.039062 3.75 L 0 7.75 L 4.289062 12 L 10 6.34375 L 8.578125 4.9375 L 8.078125 4.4375 L 8.078125 2 C 8.078125 0.894531 7.171875 0 6.054688 0 Z M 6.054688 1 C 6.613281 1 7.066406 1.449219 7.066406 2 L 7.066406 3.4375 L 5.710938 2.09375 L 5.046875 2.75 L 5.046875 2 C 5.046875 1.449219 5.5 1 6.054688 1 Z M 5.710938 3.5 L 8.578125 6.34375 C 5.582031 9.738281 5.289062 5.21875 1.421875 7.75 Z M 10.5 7 C 10.207031 8.0625 9.480469 8.976562 9.164062 9.707031 C 9.054688 9.925781 9 10.171875 9 10.4375 C 9 11.304688 9.667969 12 10.5 12 C 11.332031 12 12 11.304688 12 10.4375 C 12 10.171875 11.921875 9.925781 11.8125 9.707031 C 11.496094 8.976562 10.792969 8.0625 10.5 7 Z M 10.5 7 "/>
</g>
</svg>
