<?xml version="1.0" encoding="UTF-8"?>
<svg xmlns="http://www.w3.org/2000/svg" xmlns:xlink="http://www.w3.org/1999/xlink" width="12pt" height="12pt" viewBox="0 0 12 12" version="1.1">
<g id="surface1">
<path style=" stroke:none;fill-rule:nonzero;fill:rgb(30.196078%,30.196078%,30.196078%);fill-opacity:1;" d="M 2 0 L 2 2 L 1 2 L 1 4 L 0 4 L 0 6 L 1 6 L 1 8 L 0 8 L 0 10 L 1 10 L 1 12 L 10 12 L 10 10 L 12 10 L 12 0 Z M 3 1 L 4 1 L 4 2 L 3 2 Z M 5 1 L 11 1 L 11 9 L 10 9 L 10 2 L 5 2 Z M 2 3 L 3 3 L 3 11 L 2 11 Z M 4 3 L 9 3 L 9 11 L 4 11 Z M 4 3 "/>
</g>
</svg>
