<?xml version="1.0" encoding="UTF-8"?>
<svg xmlns="http://www.w3.org/2000/svg" xmlns:xlink="http://www.w3.org/1999/xlink" width="12pt" height="12pt" viewBox="0 0 12 12" version="1.1">
<g id="surface1">
<path style=" stroke:none;fill-rule:nonzero;fill:rgb(30.196078%,30.196078%,30.196078%);fill-opacity:1;" d="M 9 0 L 9 1 C 4.582031 1 1 4.582031 1 9 L 0 9 L 0 12 L 3 12 L 3 9 L 2 9 C 2 5.132812 5.132812 2 9 2 L 9 3 L 12 3 L 12 0 Z M 10 1 L 11 1 L 11 2 L 10 2 Z M 1 10 L 2 10 L 2 11 L 1 11 Z M 1 10 "/>
<path style=" stroke:none;fill-rule:nonzero;fill:rgb(11.372549%,60%,95.294118%);fill-opacity:1;" d="M 0 0 L 0 3 L 1 3 L 1 9 L 2 9 L 2 3 L 3 3 L 3 0 Z M 1 1 L 2 1 L 2 2 L 1 2 Z M 1 1 "/>
</g>
</svg>
