<?xml version="1.0" encoding="UTF-8"?>
<svg xmlns="http://www.w3.org/2000/svg" xmlns:xlink="http://www.w3.org/1999/xlink" width="12pt" height="12pt" viewBox="0 0 12 12" version="1.1">
<g id="surface1">
<path style=" stroke:none;fill-rule:nonzero;fill:rgb(30.196078%,30.196078%,30.196078%);fill-opacity:1;" d="M 4 0 L 4 1 L 0 1 L 0 2 L 4 2 L 4 4 L 8 4 L 8 2 L 12 2 L 12 1 L 8 1 L 8 0 Z M 5 1 L 7 1 L 7 3 L 5 3 Z M 0 9 L 0 12 L 3 12 L 3 11 L 5 11 L 5 10 L 3 10 L 3 9 Z M 9 9 L 9 10 L 7 10 L 7 11 L 9 11 L 9 12 L 12 12 L 12 9 Z M 1 10 L 2 10 L 2 11 L 1 11 Z M 10 10 L 11 10 L 11 11 L 10 11 Z M 10 10 "/>
<path style=" stroke:none;fill-rule:nonzero;fill:rgb(11.372549%,60%,95.294118%);fill-opacity:1;" d="M 4 6 L 6 9 L 8 6 Z M 4 6 "/>
</g>
</svg>
