<?xml version="1.0" encoding="UTF-8"?>
<svg xmlns="http://www.w3.org/2000/svg" xmlns:xlink="http://www.w3.org/1999/xlink" width="12pt" height="9pt" viewBox="0 0 12 9" version="1.1">
<g id="surface1">
<path style=" stroke:none;fill-rule:nonzero;fill:rgb(30.196078%,30.196078%,30.196078%);fill-opacity:1;" d="M 0 0 L 0 3 L 3 3 L 3 2 L 4.5 2 L 4.5 3 L 7.5 3 L 7.5 2 L 9 2 L 9 3 L 12 3 L 12 0 L 9 0 L 9 1 L 7.5 1 L 7.5 0 L 4.5 0 L 4.5 1 L 3 1 L 3 0 Z M 1 1 L 2 1 L 2 2 L 1 2 Z M 5.5 1 L 6.5 1 L 6.5 2 L 5.5 2 Z M 10 1 L 11 1 L 11 2 L 10 2 Z M 10 1 "/>
<path style=" stroke:none;fill-rule:nonzero;fill:rgb(85.490196%,26.666667%,32.54902%);fill-opacity:1;" d="M 7.835938 4 L 7 4.835938 L 8.667969 6.5 L 7 8.167969 L 7.835938 9 L 9.5 7.332031 L 11.167969 9 L 12 8.167969 L 10.332031 6.5 L 12 4.835938 L 11.167969 4 L 9.5 5.667969 Z M 7.835938 4 "/>
</g>
</svg>
