<?xml version="1.0" encoding="UTF-8"?>
<svg xmlns="http://www.w3.org/2000/svg" xmlns:xlink="http://www.w3.org/1999/xlink" width="12pt" height="12pt" viewBox="0 0 12 12" version="1.1">
<g id="surface1">
<path style=" stroke:none;fill-rule:nonzero;fill:rgb(30.196078%,30.196078%,30.196078%);fill-opacity:1;" d="M 2.5 0 C 1.121094 0 0 1.121094 0 2.5 C 0 3.878906 1.121094 5 2.5 5 L 4 5 L 4 7 L 2.5 7 C 1.121094 7 0 8.121094 0 9.5 C 0 10.878906 1.121094 12 2.5 12 C 3.878906 12 5 10.878906 5 9.5 L 5 8 L 7 8 L 7 9.5 C 7 10.878906 8.121094 12 9.5 12 C 10.878906 12 12 10.878906 12 9.5 C 12 8.121094 10.878906 7 9.5 7 L 8 7 L 8 5 L 9.5 5 C 10.878906 5 12 3.878906 12 2.5 C 12 1.121094 10.878906 0 9.5 0 C 8.121094 0 7 1.121094 7 2.5 L 7 4 L 5 4 L 5 2.5 C 5 1.121094 3.878906 0 2.5 0 Z M 2.5 1 C 3.328125 1 4 1.671875 4 2.5 L 4 4 L 2.5 4 C 1.671875 4 1 3.328125 1 2.5 C 1 1.671875 1.671875 1 2.5 1 Z M 9.5 1 C 10.328125 1 11 1.671875 11 2.5 C 11 3.328125 10.328125 4 9.5 4 L 8 4 L 8 2.5 C 8 1.671875 8.671875 1 9.5 1 Z M 5 5 L 7 5 L 7 7 L 5 7 Z M 2.5 8 L 4 8 L 4 9.5 C 4 10.328125 3.328125 11 2.5 11 C 1.671875 11 1 10.328125 1 9.5 C 1 8.671875 1.671875 8 2.5 8 Z M 8 8 L 9.5 8 C 10.328125 8 11 8.671875 11 9.5 C 11 10.328125 10.328125 11 9.5 11 C 8.671875 11 8 10.328125 8 9.5 Z M 8 8 "/>
</g>
</svg>
