<?xml version="1.0" encoding="UTF-8"?>
<svg xmlns="http://www.w3.org/2000/svg" xmlns:xlink="http://www.w3.org/1999/xlink" width="12pt" height="11.005859pt" viewBox="0 0 12 11.005859" version="1.1">
<g id="surface1">
<path style=" stroke:none;fill-rule:nonzero;fill:rgb(18.039216%,80%,44.313725%);fill-opacity:1;" d="M 0 0 L 0 3 L 12 3 L 12 0 Z M 0 0 "/>
<path style=" stroke:none;fill-rule:nonzero;fill:rgb(85.490196%,26.666667%,32.54902%);fill-opacity:1;" d="M 0 6 L 0 9 L 6 9 L 6 6 Z M 0 6 "/>
<path style=" stroke:none;fill-rule:nonzero;fill:rgb(30.196078%,30.196078%,30.196078%);fill-opacity:1;" d="M 10.453125 4.007812 C 10.453125 4.007812 9.957031 5.160156 9.597656 6 L 7 6 L 7 7 L 9.171875 7 C 8.957031 7.496094 8.945312 7.523438 8.742188 8 L 7 8 L 7 9 L 8.3125 9 C 8.058594 9.59375 7.621094 10.609375 7.625 10.609375 L 8.542969 11.003906 C 8.542969 11.007812 9.035156 9.847656 9.402344 9 L 12 9 L 12 8 L 9.828125 8 C 10.039062 7.503906 10.050781 7.476562 10.253906 7 L 12 7 L 12 6 L 10.6875 6 C 10.9375 5.414062 11.371094 4.402344 11.371094 4.402344 Z M 10.453125 4.007812 "/>
</g>
</svg>
