<?xml version="1.0" encoding="UTF-8"?>
<svg xmlns="http://www.w3.org/2000/svg" xmlns:xlink="http://www.w3.org/1999/xlink" width="12pt" height="12pt" viewBox="0 0 12 12" version="1.1">
<defs>
<filter id="alpha" filterUnits="objectBoundingBox" x="0%" y="0%" width="100%" height="100%">
  <feColorMatrix type="matrix" in="SourceGraphic" values="0 0 0 0 1 0 0 0 0 1 0 0 0 0 1 0 0 0 1 0"/>
</filter>
<mask id="mask0">
  <g filter="url(#alpha)">
<rect x="0" y="0" width="12" height="12" style="fill:rgb(0%,0%,0%);fill-opacity:0.988235;stroke:none;"/>
  </g>
</mask>
<linearGradient id="linear0" gradientUnits="userSpaceOnUse" x1="14.000041" y1="8.000474" x2="9.500027" y2="8.750477" gradientTransform="matrix(1,0,0,1,1,0.000000035626)">
<stop offset="0" style="stop-color:rgb(70.196078%,70.196078%,70.196078%);stop-opacity:1;"/>
<stop offset="1" style="stop-color:rgb(30.196078%,30.196078%,30.196078%);stop-opacity:1;"/>
</linearGradient>
<clipPath id="clip1">
  <rect width="17" height="17"/>
</clipPath>
<g id="surface6" clip-path="url(#clip1)">
<path style=" stroke:none;fill-rule:nonzero;fill:url(#linear0);" d="M 9 2 L 9 14 C 12.3125 14 15 12.65625 15 11 C 15 10.636719 14.859375 10.289062 14.625 9.96875 Z M 9 2 "/>
</g>
</defs>
<g id="surface1">
<use xlink:href="#surface6" transform="matrix(1,0,0,1,-3,-2)" mask="url(#mask0)"/>
<path style=" stroke:none;fill-rule:evenodd;fill:rgb(70.196078%,70.196078%,70.196078%);fill-opacity:1;" d="M 0 9 C 0 10.65625 2.6875 12 6 12 L 6 11 C 3.101562 11 1 10.242188 1 9 Z M 0 9 "/>
<path style=" stroke:none;fill-rule:nonzero;fill:rgb(30.196078%,30.196078%,30.196078%);fill-opacity:1;" d="M 5 0 L 0 9 L 5 9 Z M 5 0 "/>
<path style=" stroke:none;fill-rule:evenodd;fill:rgb(11.372549%,60%,95.294118%);fill-opacity:1;" d="M 5 0 L 5 12 L 6 12 L 6 0 Z M 5 0 "/>
</g>
</svg>
