<?xml version="1.0" encoding="UTF-8"?>
<svg xmlns="http://www.w3.org/2000/svg" xmlns:xlink="http://www.w3.org/1999/xlink" width="12pt" height="12.001953pt" viewBox="0 0 12 12.001953" version="1.1">
<g id="surface1">
<path style=" stroke:none;fill-rule:nonzero;fill:rgb(30.196078%,30.196078%,30.196078%);fill-opacity:1;" d="M 1.5 0 C 0.671875 0 0 0.671875 0 1.5 C 0 2.15625 0.414062 2.703125 1 2.90625 C 1 4.9375 1 6.96875 1 9 L 0 9 L 0 12 L 3 12 L 3 9 L 2 9 C 2 6.96875 2 4.9375 2 2.90625 C 2.433594 2.757812 2.757812 2.433594 2.90625 2 C 4.9375 2 6.96875 2 9 2 L 9 3 L 12 3 L 12 0 L 9 0 L 9 1 C 6.96875 1 4.9375 1 2.90625 1 C 2.703125 0.414062 2.15625 0 1.5 0 Z M 1.5 1 C 1.777344 1 2 1.222656 2 1.5 C 2 1.777344 1.777344 2 1.5 2 C 1.222656 2 1 1.777344 1 1.5 C 1 1.222656 1.222656 1 1.5 1 Z M 10 1 L 11 1 L 11 2 L 10 2 Z M 1 10 L 2 10 L 2 11 L 1 11 Z M 1 10 "/>
<path style=" stroke:none;fill-rule:nonzero;fill:rgb(11.372549%,60%,95.294118%);fill-opacity:1;" d="M 9.5 7 C 8.113281 7 7 8.113281 7 9.5 C 7 9.933594 7.121094 10.332031 7.3125 10.6875 L 8.0625 9.9375 C 8.023438 9.800781 8 9.652344 8 9.5 C 8 8.667969 8.667969 8 9.5 8 C 9.652344 8 9.800781 8.023438 9.9375 8.0625 L 10.6875 7.3125 C 10.332031 7.121094 9.933594 7 9.5 7 Z M 11.6875 8.3125 L 10.9375 9.0625 C 10.976562 9.199219 11 9.347656 11 9.5 C 11 10.332031 10.332031 11 9.5 11 C 9.347656 11 9.199219 10.980469 9.0625 10.9375 L 8.3125 11.6875 C 8.667969 11.882812 9.066406 12 9.5 12 C 10.886719 12 12 10.886719 12 9.5 C 12 9.070312 11.878906 8.667969 11.6875 8.3125 Z M 11.6875 8.3125 "/>
</g>
</svg>
