<?xml version="1.0" encoding="UTF-8"?>
<svg xmlns="http://www.w3.org/2000/svg" xmlns:xlink="http://www.w3.org/1999/xlink" width="12pt" height="12pt" viewBox="0 0 12 12" version="1.1">
<g id="surface1">
<path style=" stroke:none;fill-rule:nonzero;fill:rgb(30.196078%,30.196078%,30.196078%);fill-opacity:1;" d="M 1.5 0 C 0.671875 0 0 0.671875 0 1.5 C 0 2.328125 0.671875 3 1.5 3 C 2.15625 3 2.703125 2.585938 2.90625 2 L 5 2 L 5 11 L 9.09375 11 C 9.296875 11.585938 9.84375 12 10.5 12 C 11.328125 12 12 11.328125 12 10.5 C 12 9.671875 11.328125 9 10.5 9 C 9.84375 9 9.296875 9.414062 9.09375 10 L 6 10 L 6 1 L 2.90625 1 C 2.703125 0.414062 2.15625 0 1.5 0 Z M 1.5 1 C 1.777344 1 2 1.222656 2 1.5 C 2 1.777344 1.777344 2 1.5 2 C 1.222656 2 1 1.777344 1 1.5 C 1 1.222656 1.222656 1 1.5 1 Z M 10.5 10 C 10.777344 10 11 10.222656 11 10.5 C 11 10.777344 10.777344 11 10.5 11 C 10.222656 11 10 10.777344 10 10.5 C 10 10.222656 10.222656 10 10.5 10 Z M 10.5 10 "/>
</g>
</svg>
