<?xml version="1.0" encoding="UTF-8"?>
<svg xmlns="http://www.w3.org/2000/svg" xmlns:xlink="http://www.w3.org/1999/xlink" width="12pt" height="12pt" viewBox="0 0 12 12" version="1.1">
<g id="surface1">
<path style=" stroke:none;fill-rule:nonzero;fill:rgb(30.196078%,30.196078%,30.196078%);fill-opacity:1;" d="M 6 0 C 2.6875 0 0 1.566406 0 3.5 C 0 5.433594 2.6875 7 6 7 C 9.3125 7 12 5.433594 12 3.5 C 12 1.566406 9.3125 0 6 0 Z M 4.5 7 C 3.121094 7 2 7.449219 2 8 C 2 8.550781 3.121094 9 4.5 9 C 5.878906 9 7 8.550781 7 8 C 7 7.449219 5.878906 7 4.5 7 Z M 2.5 9.25 C 1.671875 9.25 1 9.585938 1 10 C 1 10.414062 1.671875 10.75 2.5 10.75 C 3.328125 10.75 4 10.414062 4 10 C 4 9.585938 3.328125 9.25 2.5 9.25 Z M 1 11 C 0.449219 11 0 11.222656 0 11.5 C 0 11.777344 0.449219 12 1 12 C 1.550781 12 2 11.777344 2 11.5 C 2 11.222656 1.550781 11 1 11 Z M 1 11 "/>
</g>
</svg>
