<?xml version="1.0" encoding="UTF-8"?>
<svg xmlns="http://www.w3.org/2000/svg" xmlns:xlink="http://www.w3.org/1999/xlink" width="10pt" height="12pt" viewBox="0 0 10 12" version="1.1">
<g id="surface1">
<path style=" stroke:none;fill-rule:nonzero;fill:rgb(30.196078%,30.196078%,30.196078%);fill-opacity:1;" d="M 2 0 C 1.566406 0.75 1.347656 0.75 1.78125 1.5 L 4.40625 6 L 2.90625 8.21875 C 2.632812 8.082031 2.324219 8 2 8 C 0.894531 8 0 8.894531 0 10 C 0 11.105469 0.894531 12 2 12 C 3.105469 12 4 11.105469 4 10 C 4 9.59375 3.863281 9.222656 3.65625 8.90625 C 3.652344 8.898438 3.660156 8.882812 3.65625 8.875 L 4.09375 8.25 C 4.894531 8.226562 5.007812 7.65625 5.5 7.65625 C 5.511719 7.65625 5.519531 7.65625 5.53125 7.65625 L 5.5625 7.71875 L 6.34375 8.875 L 6.34375 8.90625 C 6.136719 9.222656 6 9.59375 6 10 C 6 11.105469 6.894531 12 8 12 C 9.105469 12 10 11.105469 10 10 C 10 8.894531 9.105469 8 8 8 C 7.675781 8 7.367188 8.082031 7.09375 8.21875 L 5.59375 6 C 5.59375 6 8.230469 1.492188 8.21875 1.5 C 8.652344 0.75 8.433594 0.75 8 0 L 5 5.125 Z M 5 6 C 5.277344 6 5.5 6.222656 5.5 6.5 C 5.5 6.753906 5.308594 6.96875 5.0625 7 L 4.9375 7 C 4.691406 6.96875 4.5 6.753906 4.5 6.5 C 4.5 6.222656 4.722656 6 5 6 Z M 2 9 C 2.550781 9 3 9.449219 3 10 C 3 10.550781 2.550781 11 2 11 C 1.449219 11 1 10.550781 1 10 C 1 9.449219 1.449219 9 2 9 Z M 8 9 C 8.550781 9 9 9.449219 9 10 C 9 10.550781 8.550781 11 8 11 C 7.449219 11 7 10.550781 7 10 C 7 9.449219 7.449219 9 8 9 Z M 8 9 "/>
</g>
</svg>
