<?xml version="1.0" encoding="UTF-8"?>
<svg xmlns="http://www.w3.org/2000/svg" xmlns:xlink="http://www.w3.org/1999/xlink" width="14pt" height="12pt" viewBox="0 0 14 12" version="1.1">
<g id="surface1">
<path style=" stroke:none;fill-rule:nonzero;fill:rgb(30.196078%,30.196078%,30.196078%);fill-opacity:1;" d="M 2.832031 4 L 0 12 L 1.144531 12 L 2.117188 9.714844 L 4.839844 9.714844 L 5.714844 12 L 6.859375 12 L 4.265625 4 Z M 7.714844 4 L 7.714844 12 L 11.714844 12 C 12.976562 12 14 10.976562 14 9.714844 C 14 8.742188 13.382812 7.878906 12.464844 7.5625 C 12.722656 7.183594 12.855469 6.738281 12.855469 6.285156 C 12.855469 5.023438 11.835938 4 10.574219 4 Z M 8.855469 5.140625 L 10.574219 5.140625 C 11.203125 5.144531 11.714844 5.652344 11.714844 6.285156 C 11.714844 6.917969 11.203125 7.425781 10.574219 7.429688 L 8.855469 7.429688 Z M 3.546875 5.242188 L 4.621094 8.574219 L 2.363281 8.574219 Z M 8.855469 8.574219 L 11.714844 8.574219 C 12.347656 8.574219 12.855469 9.082031 12.855469 9.714844 C 12.855469 10.347656 12.347656 10.855469 11.714844 10.859375 L 8.855469 10.859375 Z M 8.855469 8.574219 "/>
<path style=" stroke:none;fill-rule:nonzero;fill:rgb(11.372549%,60%,95.294118%);fill-opacity:1;" d="M 10.214844 0 L 7.714844 3 L 12.714844 3 Z M 10.214844 0 "/>
</g>
</svg>
