<?xml version="1.0" encoding="UTF-8"?>
<svg xmlns="http://www.w3.org/2000/svg" xmlns:xlink="http://www.w3.org/1999/xlink" width="12pt" height="12pt" viewBox="0 0 12 12" version="1.1">
<g id="surface1">
<path style=" stroke:none;fill-rule:nonzero;fill:rgb(30.196078%,30.196078%,30.196078%);fill-opacity:1;" d="M 3 0 C 2.449219 0 2 0.449219 2 1 C 2 1.550781 2.449219 2 3 2 C 3.550781 2 4 1.550781 4 1 C 4 0.449219 3.550781 0 3 0 Z M 8 0 L 6.0625 1.5625 L 8.65625 4.78125 L 6.21875 7.21875 L 8 9 L 12 5 Z M 1.5 4 C 0.671875 4 0 4.671875 0 5.5 C 0 6.328125 0.671875 7 1.5 7 C 2.328125 7 3 6.328125 3 5.5 C 3 4.671875 2.328125 4 1.5 4 Z M 4.5 9 C 3.671875 9 3 9.671875 3 10.5 C 3 11.328125 3.671875 12 4.5 12 C 5.328125 12 6 11.328125 6 10.5 C 6 9.671875 5.328125 9 4.5 9 Z M 4.5 9 "/>
</g>
</svg>
