<?xml version="1.0" encoding="UTF-8"?>
<svg xmlns="http://www.w3.org/2000/svg" xmlns:xlink="http://www.w3.org/1999/xlink" width="10pt" height="12pt" viewBox="0 0 10 12" version="1.1">
<g id="surface1">
<path style=" stroke:none;fill-rule:nonzero;fill:rgb(30.196078%,30.196078%,30.196078%);fill-opacity:1;" d="M 1.5 0 C 0.671875 0 0 0.671875 0 1.5 C 0 2.136719 0.402344 2.699219 1 2.914062 L 1 9 C 1 10.105469 1.894531 11 3 11 L 4 11 L 4 12 L 6 10.5 L 4 9 L 4 10 L 3 10 C 2.449219 10 2 9.550781 2 9 L 2 2.914062 C 2.597656 2.699219 3 2.136719 3 1.5 C 3 0.671875 2.328125 0 1.5 0 Z M 6 0 L 4 1.5 L 6 3 L 6 2 L 7 2 C 7.550781 2 8 2.449219 8 3 L 8 9.089844 C 7.402344 9.300781 7 9.863281 7 10.5 C 7 11.328125 7.671875 12 8.5 12 C 9.328125 12 10 11.328125 10 10.5 C 10 9.863281 9.597656 9.300781 9 9.089844 L 9 3 C 9 1.894531 8.105469 1 7 1 L 6 1 Z M 1.5 1 C 1.777344 1 2 1.222656 2 1.5 C 2 1.777344 1.777344 2 1.5 2 C 1.222656 2 1 1.777344 1 1.5 C 1 1.222656 1.222656 1 1.5 1 Z M 8.5 10 C 8.777344 10 9 10.222656 9 10.5 C 9 10.777344 8.777344 11 8.5 11 C 8.222656 11 8 10.777344 8 10.5 C 8 10.222656 8.222656 10 8.5 10 Z M 8.5 10 "/>
</g>
</svg>
