<?xml version="1.0" encoding="UTF-8"?>
<svg xmlns="http://www.w3.org/2000/svg" xmlns:xlink="http://www.w3.org/1999/xlink" width="10.84375pt" height="10.844201pt" viewBox="0 0 10.84375 10.844201" version="1.1">
<g id="surface1">
<path style=" stroke:none;fill-rule:nonzero;fill:rgb(30.196078%,30.196078%,30.196078%);fill-opacity:1;" d="M 0.6875 0 C 0.664062 -0.0195312 0 0.6875 0 0.6875 L 8 8.6875 C 7.90625 8.882812 7.84375 9.109375 7.84375 9.34375 C 7.84375 10.171875 8.515625 10.84375 9.34375 10.84375 C 10.171875 10.84375 10.84375 10.171875 10.84375 9.34375 C 10.84375 8.515625 10.171875 7.84375 9.34375 7.84375 C 9.109375 7.84375 8.882812 7.90625 8.6875 8 Z M 9.34375 8.84375 C 9.621094 8.84375 9.84375 9.066406 9.84375 9.34375 C 9.84375 9.621094 9.621094 9.84375 9.34375 9.84375 C 9.066406 9.84375 8.84375 9.621094 8.84375 9.34375 C 8.84375 9.066406 9.066406 8.84375 9.34375 8.84375 Z M 9.34375 8.84375 "/>
</g>
</svg>
