<?xml version="1.0" encoding="UTF-8"?>
<svg xmlns="http://www.w3.org/2000/svg" xmlns:xlink="http://www.w3.org/1999/xlink" width="12pt" height="12pt" viewBox="0 0 12 12" version="1.1">
<g id="surface1">
<path style=" stroke:none;fill-rule:nonzero;fill:rgb(30.196078%,30.196078%,30.196078%);fill-opacity:1;" d="M 0 0 L 0 12 L 12 12 L 12 0 L 10 0 L 10 2 L 8 2 L 8 0 L 4 0 L 4 2 L 2 2 L 2 0 Z M 1 3 L 11 3 L 11 11 L 1 11 Z M 1 3 "/>
<path style=" stroke:none;fill-rule:nonzero;fill:rgb(11.372549%,60%,95.294118%);fill-opacity:1;" d="M 7.0625 4.75 L 6.3125 6 L 3 6 L 3 7 L 5.710938 7 L 5.113281 8 L 3 8 L 3 9 L 4.511719 9 L 4.0625 9.75 L 4.9375 10.25 L 5.6875 9 L 9 9 L 9 8 L 6.289062 8 L 6.886719 7 L 9 7 L 9 6 L 7.488281 6 L 7.9375 5.25 Z M 7.0625 4.75 "/>
</g>
</svg>
