<?xml version="1.0" encoding="UTF-8"?>
<svg xmlns="http://www.w3.org/2000/svg" xmlns:xlink="http://www.w3.org/1999/xlink" width="12pt" height="12pt" viewBox="0 0 12 12" version="1.1">
<g id="surface1">
<path style=" stroke:none;fill-rule:nonzero;fill:rgb(30.196078%,30.196078%,30.196078%);fill-opacity:1;" d="M 0 0 L 0 10.09375 C 4.867188 10.3125 7.113281 10.96875 12 12 L 12 0.9375 C 8.695312 0.195312 5.851562 0 0 0 Z M 1 1.03125 C 5.058594 1 8.148438 1.332031 11 1.90625 L 11 10.65625 C 7.667969 9.863281 5.746094 9.269531 1 9.09375 Z M 4 3 L 2 5 L 4 7 L 4 6 C 5.539062 6.007812 6.710938 6.378906 8 7 L 8 8 L 10 6 L 8 4 L 8 5 C 6.730469 4.425781 6.03125 4.007812 4 4 Z M 4 3 "/>
</g>
</svg>
