<?xml version="1.0" encoding="UTF-8"?>
<svg xmlns="http://www.w3.org/2000/svg" xmlns:xlink="http://www.w3.org/1999/xlink" width="12pt" height="11pt" viewBox="0 0 12 11" version="1.1">
<g id="surface1">
<path style=" stroke:none;fill-rule:nonzero;fill:rgb(30.196078%,30.196078%,30.196078%);fill-opacity:1;" d="M 1.5 0 C 0.671875 0 0 0.671875 0 1.5 C 0 2.328125 0.671875 3 1.5 3 C 2.15625 3 2.703125 2.585938 2.90625 2 L 9.5 2 C 10.328125 2 11 2.671875 11 3.5 C 11 4.328125 10.328125 5 9.5 5 L 2.5 5 C 1.121094 5 0 6.121094 0 7.5 C 0 8.878906 1.121094 10 2.5 10 L 10 10 L 10 11 L 12 9.5 L 10 8 L 10 9 L 2.5 9 C 1.671875 9 1 8.328125 1 7.5 C 1 6.671875 1.671875 6 2.5 6 L 9.5 6 C 10.878906 6 12 4.878906 12 3.5 C 12 2.121094 10.878906 1 9.5 1 L 2.90625 1 C 2.703125 0.414062 2.15625 0 1.5 0 Z M 1.5 1 C 1.777344 1 2 1.222656 2 1.5 C 2 1.777344 1.777344 2 1.5 2 C 1.222656 2 1 1.777344 1 1.5 C 1 1.222656 1.222656 1 1.5 1 Z M 1.5 1 "/>
</g>
</svg>
