<?xml version="1.0" encoding="UTF-8"?>
<svg xmlns="http://www.w3.org/2000/svg" xmlns:xlink="http://www.w3.org/1999/xlink" width="12pt" height="12pt" viewBox="0 0 12 12" version="1.1">
<g id="surface1">
<path style=" stroke:none;fill-rule:nonzero;fill:rgb(30.196078%,30.196078%,30.196078%);fill-opacity:1;" d="M 0 0 L 0 1 L 4 1 L 4 10 L 5 10 L 5 1 L 9 1 L 9 0 Z M 10 4 C 9.609375 5.277344 8.640625 6.371094 8.21875 7.25 C 8.070312 7.511719 8 7.808594 8 8.125 C 8 9.164062 8.890625 10 10 10 C 11.109375 10 12 9.164062 12 8.125 C 12 7.808594 11.898438 7.511719 11.75 7.25 C 11.328125 6.371094 10.390625 5.277344 10 4 Z M 0 11 L 0 12 L 12 12 L 12 11 Z M 0 11 "/>
</g>
</svg>
