<?xml version="1.0" encoding="UTF-8"?>
<svg xmlns="http://www.w3.org/2000/svg" xmlns:xlink="http://www.w3.org/1999/xlink" width="11.996094pt" height="11.515625pt" viewBox="0 0 11.996094 11.515625" version="1.1">
<g id="surface1">
<path style=" stroke:none;fill-rule:nonzero;fill:rgb(30.196078%,30.196078%,30.196078%);fill-opacity:1;" d="M 3 0 C 1.964844 0 0.964844 0.03125 0 0.09375 L 0 11 C 0.96875 10.949219 1.953125 10.90625 3 10.90625 C 5.472656 10.90625 7.710938 11.078125 9.59375 11.34375 C 9.902344 11.390625 10.253906 11.464844 10.546875 11.515625 C 10.550781 11.507812 11.527344 4.472656 11.996094 0.988281 C 8.808594 0.332031 5.667969 0.0117188 3 0 Z M 3 1 C 6.09375 1 8.800781 1.253906 10.90625 1.65625 L 9.71875 10.4375 C 7.761719 10.113281 5.484375 9.90625 3 9.90625 C 2.308594 9.90625 1.660156 9.941406 1 9.96875 L 1 1.0625 C 1.65625 1.035156 2.300781 1 3 1 Z M 3.421875 3.5 L 2 5.207031 L 3.421875 6.914062 L 3.421875 6.0625 C 5.285156 6.0625 6.570312 6.328125 7.898438 6.726562 L 7.71875 7.5 L 9.453125 6.300781 L 8.453125 4.21875 L 8.273438 5.019531 C 6.898438 4.625 5.191406 4.351562 3.421875 4.351562 Z M 3.421875 3.5 "/>
</g>
</svg>
