<?xml version="1.0" encoding="UTF-8"?>
<svg xmlns="http://www.w3.org/2000/svg" xmlns:xlink="http://www.w3.org/1999/xlink" width="12pt" height="12pt" viewBox="0 0 12 12" version="1.1">
<g id="surface1">
<path style=" stroke:none;fill-rule:nonzero;fill:rgb(70.196078%,70.196078%,70.196078%);fill-opacity:1;" d="M 0 2 L 0 12 L 10 12 L 10 2 Z M 0 2 "/>
<path style=" stroke:none;fill-rule:nonzero;fill:rgb(30.196078%,30.196078%,30.196078%);fill-opacity:1;" d="M 2 0 L 0 2 L 10 2 L 10 12 L 12 10 L 12 0 Z M 2 0 "/>
<path style=" stroke:none;fill-rule:nonzero;fill:rgb(11.372549%,60%,95.294118%);fill-opacity:1;" d="M 3.5 6 C 2.113281 6 1 7.113281 1 8.5 C 1 8.933594 1.121094 9.332031 1.3125 9.6875 L 2.0625 8.9375 C 2.023438 8.800781 2 8.652344 2 8.5 C 2 7.667969 2.667969 7 3.5 7 C 3.652344 7 3.800781 7.023438 3.9375 7.0625 L 4.6875 6.3125 C 4.332031 6.121094 3.933594 6 3.5 6 Z M 5.6875 7.3125 L 4.9375 8.0625 C 4.976562 8.199219 5 8.347656 5 8.5 C 5 9.332031 4.332031 10 3.5 10 C 3.347656 10 3.199219 9.980469 3.0625 9.9375 L 2.3125 10.6875 C 2.667969 10.882812 3.066406 11 3.5 11 C 4.886719 11 6 9.886719 6 8.5 C 6 8.070312 5.878906 7.667969 5.6875 7.3125 Z M 5.6875 7.3125 "/>
</g>
</svg>
