<?xml version="1.0" encoding="UTF-8"?>
<svg xmlns="http://www.w3.org/2000/svg" xmlns:xlink="http://www.w3.org/1999/xlink" width="12pt" height="11pt" viewBox="0 0 12 11" version="1.1">
<g id="surface1">
<path style=" stroke:none;fill-rule:nonzero;fill:rgb(30.196078%,30.196078%,30.196078%);fill-opacity:1;" d="M 8 0 C 7.066406 0 6.285156 0.636719 6.0625 1.5 L 0 1.5 L 0 2.5 L 6.0625 2.5 C 6.285156 3.363281 7.066406 4 8 4 C 8.933594 4 9.714844 3.363281 9.9375 2.5 L 12 2.5 L 12 1.5 L 9.9375 1.5 C 9.714844 0.636719 8.933594 0 8 0 Z M 3 7 C 2.066406 7 1.285156 7.636719 1.0625 8.5 L 0 8.5 L 0 9.5 L 1.0625 9.5 C 1.285156 10.363281 2.066406 11 3 11 C 3.933594 11 4.714844 10.363281 4.9375 9.5 L 12 9.5 L 12 8.5 L 4.9375 8.5 C 4.714844 7.636719 3.933594 7 3 7 Z M 3 8 C 3.550781 8 4 8.449219 4 9 C 4 9.550781 3.550781 10 3 10 C 2.449219 10 2 9.550781 2 9 C 2 8.449219 2.449219 8 3 8 Z M 3 8 "/>
</g>
</svg>
