<?xml version="1.0" encoding="UTF-8"?>
<svg xmlns="http://www.w3.org/2000/svg" xmlns:xlink="http://www.w3.org/1999/xlink" width="13pt" height="12pt" viewBox="0 0 13 12" version="1.1">
<g id="surface1">
<path style=" stroke:none;fill-rule:nonzero;fill:rgb(30.196078%,30.196078%,30.196078%);fill-opacity:1;" d="M 7 1 L 7 12 L 8 12 L 8 11.230469 C 8.550781 11.722656 9.261719 12 10 12 C 11.65625 12 13 10.65625 13 9 C 13 7.34375 11.65625 6 10 6 C 9.261719 6 8.550781 6.273438 8 6.765625 L 8 1 Z M 3 6 C 1.34375 6 0 7.34375 0 9 C 0 10.65625 1.34375 12 3 12 C 3.738281 12 4.449219 11.726562 5 11.234375 L 5 12 L 6 12 L 6 6 L 5 6 L 5 6.769531 C 4.449219 6.277344 3.738281 6 3 6 Z M 3 7 C 4.105469 7 5 7.894531 5 9 C 5 10.105469 4.105469 11 3 11 C 1.894531 11 1 10.105469 1 9 C 1 7.894531 1.894531 7 3 7 Z M 10 7 C 11.105469 7 12 7.894531 12 9 C 12 10.105469 11.105469 11 10 11 C 8.894531 11 8 10.105469 8 9 C 8 7.894531 8.894531 7 10 7 Z M 10 7 "/>
<path style=" stroke:none;fill-rule:nonzero;fill:rgb(11.372549%,60%,95.294118%);fill-opacity:1;" d="M 8 0 L 10.5 3 L 13 0 Z M 8 0 "/>
</g>
</svg>
