<?xml version="1.0" encoding="UTF-8"?>
<svg xmlns="http://www.w3.org/2000/svg" xmlns:xlink="http://www.w3.org/1999/xlink" width="12pt" height="10pt" viewBox="0 0 12 10" version="1.1">
<g id="surface1">
<path style=" stroke:none;fill-rule:nonzero;fill:rgb(30.196078%,30.196078%,30.196078%);fill-opacity:1;" d="M 2 0 L 2 1 L 9.5 1 C 10.328125 1 11 1.671875 11 2.5 C 11 3.328125 10.328125 4 9.5 4 L 2.5 4 C 1.121094 4 0 5.121094 0 6.5 C 0 7.878906 1.121094 9 2.5 9 L 9.09375 9 C 9.296875 9.585938 9.84375 10 10.5 10 C 11.328125 10 12 9.328125 12 8.5 C 12 7.671875 11.328125 7 10.5 7 C 9.84375 7 9.296875 7.414062 9.09375 8 L 2.5 8 C 1.671875 8 1 7.328125 1 6.5 C 1 5.671875 1.671875 5 2.5 5 L 9.5 5 C 10.878906 5 12 3.878906 12 2.5 C 12 1.121094 10.878906 0 9.5 0 Z M 10.5 8 C 10.777344 8 11 8.222656 11 8.5 C 11 8.777344 10.777344 9 10.5 9 C 10.222656 9 10 8.777344 10 8.5 C 10 8.222656 10.222656 8 10.5 8 Z M 10.5 8 "/>
</g>
</svg>
