<?xml version="1.0" encoding="UTF-8"?>
<svg xmlns="http://www.w3.org/2000/svg" xmlns:xlink="http://www.w3.org/1999/xlink" width="12pt" height="12pt" viewBox="0 0 12 12" version="1.1">
<g id="surface1">
<path style=" stroke:none;fill-rule:nonzero;fill:rgb(30.196078%,30.196078%,30.196078%);fill-opacity:1;" d="M 2.5 0 C 1.832031 2.546875 0 4.050781 0 5.453125 C 0 6.859375 1.121094 8 2.5 8 C 3.878906 8 5 6.859375 5 5.453125 C 5 4.050781 3.167969 2.546875 2.5 0 Z M 4.21875 4.15625 C 4.492188 4.53125 4.640625 4.988281 4.640625 5.453125 C 4.640625 6.660156 3.683594 7.636719 2.5 7.636719 C 2.042969 7.636719 1.59375 7.484375 1.226562 7.203125 C 1.410156 7.25 1.597656 7.273438 1.785156 7.273438 C 3.167969 7.273438 4.285156 6.132812 4.285156 4.726562 C 4.285156 4.535156 4.261719 4.34375 4.21875 4.15625 Z M 4.21875 4.15625 "/>
<path style=" stroke:none;fill-rule:nonzero;fill:rgb(11.372549%,60%,95.294118%);fill-opacity:1;" d="M 10.4375 5 L 9.28125 7 L 6 7 L 6 8 L 8.707031 8 L 8.128906 9 L 6 9 L 6 10 L 7.554688 10 L 6.6875 11.5 L 7.5625 12 L 8.71875 10 L 12 10 L 12 9 L 9.292969 9 L 9.871094 8 L 12 8 L 12 7 L 10.449219 7 L 11.3125 5.5 Z M 10.4375 5 "/>
</g>
</svg>
