<?xml version="1.0" encoding="UTF-8"?>
<svg xmlns="http://www.w3.org/2000/svg" xmlns:xlink="http://www.w3.org/1999/xlink" width="12pt" height="11pt" viewBox="0 0 12 11" version="1.1">
<g id="surface1">
<path style=" stroke:none;fill-rule:nonzero;fill:rgb(30.196078%,30.196078%,30.196078%);fill-opacity:1;" d="M 2 0 L 0 1.5 L 2 3 L 2 2 L 9.5 2 C 10.328125 2 11 2.671875 11 3.5 C 11 4.328125 10.328125 5 9.5 5 L 2.5 5 C 1.121094 5 0 6.121094 0 7.5 C 0 8.878906 1.121094 10 2.5 10 L 10 10 L 10 11 L 12 9.5 L 10 8 L 10 9 L 2.5 9 C 1.671875 9 1 8.328125 1 7.5 C 1 6.671875 1.671875 6 2.5 6 L 9.5 6 C 10.878906 6 12 4.878906 12 3.5 C 12 2.121094 10.878906 1 9.5 1 L 2 1 Z M 2 0 "/>
</g>
</svg>
