<?xml version="1.0" encoding="UTF-8"?>
<svg xmlns="http://www.w3.org/2000/svg" xmlns:xlink="http://www.w3.org/1999/xlink" width="12pt" height="12pt" viewBox="0 0 12 12" version="1.1">
<g id="surface1">
<path style=" stroke:none;fill-rule:nonzero;fill:rgb(30.196078%,30.196078%,30.196078%);fill-opacity:1;" d="M 5 0 L 5 1.09375 C 4.328125 1.210938 3.816406 1.527344 3.25 1.84375 L 3.21875 1.84375 L 2.40625 1 L 1 2.40625 L 1.84375 3.21875 L 1.84375 3.25 C 1.457031 3.804688 1.292969 4.382812 1.09375 5 L 0 5 L 0 7 L 1.09375 7 C 1.207031 7.667969 1.53125 8.1875 1.84375 8.75 C 1.847656 8.757812 1.839844 8.773438 1.84375 8.78125 L 1 9.59375 L 2.40625 11 L 3.21875 10.15625 C 3.78125 10.53125 4.378906 10.699219 5 10.90625 L 5 12 L 7 12 L 7 10.90625 C 7.648438 10.769531 8.214844 10.460938 8.75 10.1875 L 9.59375 11 L 11 9.59375 L 10.1875 8.75 C 10.539062 8.191406 10.707031 7.589844 10.90625 7 L 12 7 L 12 5 L 10.90625 5 C 10.78125 4.332031 10.476562 3.824219 10.1875 3.25 L 11 2.40625 L 9.59375 1 L 8.75 1.8125 C 8.199219 1.464844 7.589844 1.292969 7 1.09375 L 7 0 Z M 6 2 C 8.210938 2 10 3.789062 10 6 C 10 8.210938 8.210938 10 6 10 C 3.789062 10 2 8.210938 2 6 C 2 3.789062 3.789062 2 6 2 Z M 5 4 L 5 8 L 8 6 Z M 5 4 "/>
</g>
</svg>
