<?xml version="1.0" encoding="UTF-8"?>
<svg xmlns="http://www.w3.org/2000/svg" xmlns:xlink="http://www.w3.org/1999/xlink" width="12pt" height="12pt" viewBox="0 0 12 12" version="1.1">
<g id="surface1">
<path style=" stroke:none;fill-rule:nonzero;fill:rgb(30.196078%,30.196078%,30.196078%);fill-opacity:1;" d="M 1.5 0 C 0.671875 0 0 0.671875 0 1.5 C 0 2.328125 0.671875 3 1.5 3 C 2.15625 3 2.703125 2.585938 2.90625 2 L 3.71875 2 L 7.5625 10.71875 L 7.6875 11 L 10 11 L 10 12 L 12 10.5 L 10 9 L 10 10 L 8.28125 10 L 4.4375 1.28125 L 4.3125 1 L 2.90625 1 C 2.703125 0.414062 2.15625 0 1.5 0 Z M 1.5 1 C 1.777344 1 2 1.222656 2 1.5 C 2 1.777344 1.777344 2 1.5 2 C 1.222656 2 1 1.777344 1 1.5 C 1 1.222656 1.222656 1 1.5 1 Z M 1.5 1 "/>
</g>
</svg>
