<?xml version="1.0" encoding="UTF-8"?>
<svg xmlns="http://www.w3.org/2000/svg" xmlns:xlink="http://www.w3.org/1999/xlink" width="12pt" height="12pt" viewBox="0 0 12 12" version="1.1">
<defs>
<filter id="alpha" filterUnits="objectBoundingBox" x="0%" y="0%" width="100%" height="100%">
  <feColorMatrix type="matrix" in="SourceGraphic" values="0 0 0 0 1 0 0 0 0 1 0 0 0 0 1 0 0 0 1 0"/>
</filter>
<mask id="mask0">
  <g filter="url(#alpha)">
<rect x="0" y="0" width="12" height="12" style="fill:rgb(0%,0%,0%);fill-opacity:0.988235;stroke:none;"/>
  </g>
</mask>
<clipPath id="clip1">
  <rect width="17" height="17"/>
</clipPath>
<g id="surface6" clip-path="url(#clip1)">
<path style=" stroke:none;fill-rule:nonzero;fill:rgb(30.196078%,30.196078%,30.196078%);fill-opacity:1;" d="M 8 2 C 4.6875 2 2 3.34375 2 5 C 2 6.65625 4.6875 8 8 8 C 11.3125 8 14 6.65625 14 5 C 14 3.34375 11.3125 2 8 2 Z M 8 2 "/>
</g>
<mask id="mask1">
  <g filter="url(#alpha)">
<rect x="0" y="0" width="12" height="12" style="fill:rgb(0%,0%,0%);fill-opacity:0.988235;stroke:none;"/>
  </g>
</mask>
<linearGradient id="linear0" gradientUnits="userSpaceOnUse" x1="3" y1="1043.3622" x2="11" y2="1043.3622" gradientTransform="matrix(0.75,0,0,0.750001,-0.25,-773.022225)">
<stop offset="0" style="stop-color:rgb(70.196078%,70.196078%,70.196078%);stop-opacity:1;"/>
<stop offset="1" style="stop-color:rgb(30.196078%,30.196078%,30.196078%);stop-opacity:1;"/>
</linearGradient>
<clipPath id="clip2">
  <rect width="17" height="17"/>
</clipPath>
<g id="surface9" clip-path="url(#clip2)">
<path style=" stroke:none;fill-rule:nonzero;fill:url(#linear0);" d="M 2 5 L 2 11 C 2 12.65625 4.6875 14 8 14 C 11.3125 14 14 12.65625 14 11 L 14 5 C 14 6.65625 11.3125 8 8 8 C 4.6875 8 2 6.65625 2 5 Z M 2 5 "/>
</g>
</defs>
<g id="surface1">
<use xlink:href="#surface6" transform="matrix(1,0,0,1,-2,-2)" mask="url(#mask0)"/>
<use xlink:href="#surface9" transform="matrix(1,0,0,1,-2,-2)" mask="url(#mask1)"/>
</g>
</svg>
