<?xml version="1.0" encoding="UTF-8"?>
<svg xmlns="http://www.w3.org/2000/svg" xmlns:xlink="http://www.w3.org/1999/xlink" width="12pt" height="12pt" viewBox="0 0 12 12" version="1.1">
<g id="surface1">
<path style=" stroke:none;fill-rule:nonzero;fill:rgb(30.196078%,30.196078%,30.196078%);fill-opacity:1;" d="M 0 0 L 0 12 L 6 12 L 6 11 L 5 11 L 5 8 L 6 8 L 6 7 L 5 7 L 5 4 L 7 4 L 7 6 L 8 6 L 8 4 L 11 4 L 11 6 L 12 6 L 12 0 Z M 1 1 L 4 1 L 4 3 L 1 3 Z M 5 1 L 7 1 L 7 3 L 5 3 Z M 8 1 L 11 1 L 11 3 L 8 3 Z M 1 4 L 4 4 L 4 7 L 1 7 Z M 1 8 L 4 8 L 4 11 L 1 11 Z M 1 8 "/>
<path style=" stroke:none;fill-rule:nonzero;fill:rgb(85.490196%,26.666667%,32.54902%);fill-opacity:1;" d="M 7.710938 7 L 7 7.703125 L 8.796875 9.5 L 7 11.296875 L 7.710938 12 L 9.5 10.207031 L 11.289062 12 L 12 11.296875 L 10.203125 9.5 L 12 7.703125 L 11.289062 7 L 9.5 8.792969 Z M 7.710938 7 "/>
</g>
</svg>
