<?xml version="1.0" encoding="UTF-8"?>
<svg xmlns="http://www.w3.org/2000/svg" xmlns:xlink="http://www.w3.org/1999/xlink" width="12pt" height="12pt" viewBox="0 0 12 12" version="1.1">
<g id="surface1">
<path style=" stroke:none;fill-rule:nonzero;fill:rgb(85.490196%,26.666667%,32.54902%);fill-opacity:1;" d="M 6 0 C 2.6875 0 0 2.6875 0 6 C 0 9.3125 2.6875 12 6 12 C 9.3125 12 12 9.3125 12 6 C 12 2.6875 9.3125 0 6 0 Z M 6 1 C 8.761719 1 11 3.238281 11 6 C 11 7.199219 10.546875 8.261719 9.84375 9.125 L 2.875 2.15625 C 3.738281 1.453125 4.800781 1 6 1 Z M 2.15625 2.875 L 9.125 9.84375 C 8.261719 10.546875 7.199219 11 6 11 C 3.238281 11 1 8.761719 1 6 C 1 4.800781 1.453125 3.738281 2.15625 2.875 Z M 2.15625 2.875 "/>
</g>
</svg>
