<?xml version="1.0" encoding="UTF-8"?>
<svg xmlns="http://www.w3.org/2000/svg" xmlns:xlink="http://www.w3.org/1999/xlink" width="12pt" height="12pt" viewBox="0 0 12 12" version="1.1">
<g id="surface1">
<path style=" stroke:none;fill-rule:nonzero;fill:rgb(30.196078%,30.196078%,30.196078%);fill-opacity:1;" d="M 0 0 L 0 9 L 4 9 L 4 11 L 3 11 L 3 12 L 9 12 L 9 11 L 8 11 L 8 9 L 12 9 L 12 0 Z M 1 1 L 11 1 L 11 8 L 1 8 Z M 5.5 2 L 4.664062 3.664062 L 3 4.085938 L 4.25 5.335938 L 3.835938 7 L 5.5 6.164062 L 7.164062 7 L 6.75 5.335938 C 7.167969 4.917969 7.582031 4.5 8 4.085938 L 6.335938 3.664062 Z M 8 2 L 8 3 L 10 3 L 10 2 Z M 9 4 L 9 5 L 10 5 L 10 4 Z M 8 6 L 8 7 L 10 7 L 10 6 Z M 5 9 L 7 9 L 7 11 L 5 11 Z M 5 9 "/>
</g>
</svg>
