<?xml version="1.0" encoding="UTF-8"?>
<svg xmlns="http://www.w3.org/2000/svg" xmlns:xlink="http://www.w3.org/1999/xlink" width="12pt" height="12.002501pt" viewBox="0 0 12 12.002501" version="1.1">
<g id="surface1">
<path style=" stroke:none;fill-rule:nonzero;fill:rgb(30.196078%,30.196078%,30.196078%);fill-opacity:1;" d="M 5.5 0.00390625 C 3.054688 0.101562 0.988281 1.019531 1 2.003906 L 1 4.003906 L 1.84375 4.003906 L 1.84375 3.097656 C 2.742188 3.648438 4.355469 4 6 4.003906 C 7.644531 4 9.101562 3.554688 10 3.003906 L 10 6.003906 C 9.996094 6.445312 8.785156 6.863281 7 6.972656 L 7 7.972656 C 8.726562 7.964844 11 7.152344 11 6.441406 L 11 2.003906 C 11 0.957031 8.617188 0.00390625 6 0.00390625 C 5.832031 0 5.667969 0 5.5 0.00390625 Z M 5.21875 1.003906 L 5.28125 1.003906 C 5.519531 0.996094 5.761719 0.996094 6 1.003906 C 8.179688 1.003906 10.15625 1.480469 10.15625 2.003906 C 10.15625 2.523438 8.179688 3 6 3.003906 C 3.820312 3 1.84375 2.523438 1.84375 2.003906 C 1.808594 1.535156 3.3125 1.089844 5.21875 1.003906 Z M 0 4.003906 L 0 12.003906 L 12 12.003906 L 10.65625 11.128906 L 0.6875 4.472656 Z M 1 6.003906 L 8.84375 11.035156 L 1 11.003906 Z M 1 6.003906 "/>
</g>
</svg>
