<?xml version="1.0" encoding="UTF-8"?>
<svg xmlns="http://www.w3.org/2000/svg" xmlns:xlink="http://www.w3.org/1999/xlink" width="12pt" height="12pt" viewBox="0 0 12 12" version="1.1">
<g id="surface1">
<path style=" stroke:none;fill-rule:nonzero;fill:rgb(30.196078%,30.196078%,30.196078%);fill-opacity:1;" d="M 5 0 L 2 2 L 5 4 Z M 7 0 L 7 4 L 10 2 Z M 2 4 L 2 5 L 0 5 L 0 11 L 2 11 L 2 12 L 3 12 L 3 11 L 5 11 L 5 5 L 3 5 L 3 4 Z M 9 4 L 9 5 L 7 5 L 7 11 L 9 11 L 9 12 L 10 12 L 10 11 L 12 11 L 12 5 L 10 5 L 10 4 Z M 1 6 L 4 6 L 4 10 L 1 10 Z M 8 6 L 11 6 L 11 10 L 8 10 Z M 8 6 "/>
</g>
</svg>
