<?xml version="1.0" encoding="UTF-8"?>
<svg xmlns="http://www.w3.org/2000/svg" xmlns:xlink="http://www.w3.org/1999/xlink" width="12pt" height="12pt" viewBox="0 0 12 12" version="1.1">
<g id="surface1">
<path style=" stroke:none;fill-rule:nonzero;fill:rgb(30.196078%,30.196078%,30.196078%);fill-opacity:1;" d="M 0 0 L 0 12 L 12 12 L 12 0 Z M 1 1 L 4 1 L 4 3 L 5 3 L 5 1 L 7 1 L 7 3 L 8 3 L 8 1 L 11 1 L 11 11 L 8 11 L 8 9 L 7 9 L 7 11 L 5 11 L 5 9 L 4 9 L 4 11 L 1 11 Z M 1 1 "/>
<path style=" stroke:none;fill-rule:nonzero;fill:rgb(85.490196%,26.666667%,32.54902%);fill-opacity:1;" d="M 1 3 L 1 4.71875 L 4.28125 8 L 1 8 L 1 9 L 11 9 L 11 8 L 9.71875 8 L 5.71875 4 L 8.28125 4 L 11 6.71875 L 11 5.28125 L 9.71875 4 L 11 4 L 11 3 Z M 1.71875 4 L 4.28125 4 L 8.28125 8 L 5.71875 8 Z M 1.71875 4 "/>
</g>
</svg>
