<?xml version="1.0" encoding="UTF-8"?>
<svg xmlns="http://www.w3.org/2000/svg" xmlns:xlink="http://www.w3.org/1999/xlink" width="12pt" height="12pt" viewBox="0 0 12 12" version="1.1">
<g id="surface1">
<path style=" stroke:none;fill-rule:nonzero;fill:rgb(30.196078%,30.196078%,30.196078%);fill-opacity:1;" d="M 6 0 L 6 1 L 12 1 L 12 0 Z M 6 2 L 6 3 L 10 3 L 10 2 Z M 6 6 L 6 7 L 12 7 L 12 6 Z M 6 8 L 6 9 L 8 9 L 8 8 Z M 9 8 L 9 9 L 12 9 L 12 8 Z M 10 11 L 10 12 L 12 12 L 12 11 Z M 10 11 "/>
<path style=" stroke:none;fill-rule:nonzero;fill:rgb(11.372549%,60%,95.294118%);fill-opacity:1;" d="M 1 0 L 1 1 L 2 1 L 2 3 L 1 3 L 1 4 L 4 4 L 4 3 L 3 3 L 3 1 L 4 1 L 4 0 Z M 0 6 L 0 7 L 1 7 L 1 9 L 0 9 L 0 10 L 5 10 L 5 9 L 4 9 L 4 7 L 5 7 L 5 6 Z M 2 7 L 3 7 L 3 9 L 2 9 Z M 2 7 "/>
</g>
</svg>
