<?xml version="1.0" encoding="UTF-8"?>
<svg xmlns="http://www.w3.org/2000/svg" xmlns:xlink="http://www.w3.org/1999/xlink" width="12pt" height="12pt" viewBox="0 0 12 12" version="1.1">
<g id="surface1">
<path style=" stroke:none;fill-rule:nonzero;fill:rgb(30.196078%,30.196078%,30.196078%);fill-opacity:1;" d="M 0 0 L 0 3 L 3 3 L 3 0 Z M 4.5 0 L 4.5 3 L 7.5 3 L 7.5 0 Z M 9 0 L 9 3 L 12 3 L 12 0 Z M 1 1 L 2 1 L 2 2 L 1 2 Z M 10 1 L 11 1 L 11 2 L 10 2 Z M 0 4.5 L 0 7.5 L 3 7.5 L 3 4.5 Z M 1 5.5 L 2 5.5 L 2 6.5 L 1 6.5 Z M 0 9 L 0 12 L 3 12 L 3 9 Z M 0 9 "/>
<path style=" stroke:none;fill-rule:nonzero;fill:rgb(11.372549%,60%,95.294118%);fill-opacity:1;" d="M 10 4 L 10 8.5 C 10 9.886719 8.886719 11 7.5 11 C 6.679688 11 5.957031 10.605469 5.5 10 L 7 10 L 7 9 L 4 9 L 4 12 L 5 12 L 5 10.9375 C 5.632812 11.59375 6.507812 12 7.5 12 C 9.4375 12 11 10.4375 11 8.5 L 11 4 Z M 10 4 "/>
</g>
</svg>
