<?xml version="1.0" encoding="UTF-8"?>
<svg xmlns="http://www.w3.org/2000/svg" xmlns:xlink="http://www.w3.org/1999/xlink" width="12pt" height="12pt" viewBox="0 0 12 12" version="1.1">
<g id="surface1">
<path style=" stroke:none;fill-rule:nonzero;fill:rgb(30.196078%,30.196078%,30.196078%);fill-opacity:1;" d="M 1 0 L 0 1 L 0 2.3125 L 3.3125 7 L 4.5625 7 L 1 2 L 1 1 L 11 1 L 11 2 L 7.4375 7 L 8.6875 7 L 12 2.3125 L 12 1 L 11 0 Z M 1 7 L 1 8 L 3 8 L 3 7 Z M 5 7 L 5 8 L 7 8 L 7 7 Z M 7 8 L 7 10 L 5 9 L 5 8 L 4 8 L 4 10 L 8 12 L 8 8 Z M 9 7 L 9 8 L 11 8 L 11 7 Z M 12 8 L 10 10 L 12 12 Z M 12 8 "/>
</g>
</svg>
