<?xml version="1.0" encoding="UTF-8"?>
<svg xmlns="http://www.w3.org/2000/svg" xmlns:xlink="http://www.w3.org/1999/xlink" width="12pt" height="12pt" viewBox="0 0 12 12" version="1.1">
<g id="surface1">
<path style=" stroke:none;fill-rule:nonzero;fill:rgb(30.196078%,30.196078%,30.196078%);fill-opacity:1;" d="M 7 0 C 4.519531 0 2.464844 1.808594 2.070312 4.179688 L 3.019531 4.8125 C 3.121094 2.691406 4.855469 1 7 1 L 7 5 L 11 5 C 11 6.59375 10.058594 7.960938 8.707031 8.605469 L 9.644531 9.230469 C 11.054688 8.34375 12 6.785156 12 5 C 12 2.238281 9.761719 0 7 0 Z M 0 4 L 0 12 L 12 12 L 10.65625 11.125 L 0.6875 4.46875 Z M 1 6 L 8.84375 11.03125 L 1 11 Z M 1 6 "/>
</g>
</svg>
