<?xml version="1.0" encoding="UTF-8"?>
<svg xmlns="http://www.w3.org/2000/svg" xmlns:xlink="http://www.w3.org/1999/xlink" width="12.000072pt" height="12.00245pt" viewBox="0 0 12.000072 12.00245" version="1.1">
<g id="surface1">
<path style=" stroke:none;fill-rule:nonzero;fill:rgb(30.196078%,30.196078%,30.196078%);fill-opacity:1;" d="M 5.40625 0.00390625 C 2.328125 0.105469 -0.015625 0.972656 0 2.003906 L 0 10.003906 C 0 11.105469 2.6875 12.003906 6 12.003906 L 6 11.003906 C 3.238281 11.003906 1 10.554688 1 10.003906 L 1 7.097656 C 2.105469 7.660156 3.980469 8 6 8.003906 L 6 7.003906 C 3.238281 7.003906 1 6.554688 1 6.003906 L 1 3.097656 C 2.105469 3.660156 3.980469 4 6 4.003906 C 8.019531 4 9.898438 3.660156 11 3.097656 L 11 6.003906 L 12 6.003906 L 12 2.003906 C 12 0.898438 9.3125 0.00390625 6 0.00390625 C 5.800781 0 5.605469 0 5.40625 0.00390625 Z M 5.65625 1 C 5.769531 1 5.886719 1 6 1.003906 C 8.761719 1.003906 11 1.449219 11 2.003906 C 11 2.554688 8.761719 3.003906 6 3.003906 C 3.238281 3.003906 1 2.554688 1 2.003906 C 0.960938 1.515625 2.691406 1.089844 5.09375 1.003906 C 5.113281 1.003906 5.136719 1.003906 5.15625 1.003906 C 5.324219 1 5.488281 1 5.65625 1 Z M 5.65625 1 "/>
<path style=" stroke:none;fill-rule:nonzero;fill:rgb(11.372549%,60%,95.294118%);fill-opacity:1;" d="M 9 7.003906 L 9 9.003906 L 7 9.003906 L 7 10.003906 L 9 10.003906 L 9 12.003906 L 10 12.003906 L 10 10.003906 L 12 10.003906 L 12 9.003906 L 10 9.003906 L 10 7.003906 Z M 9 7.003906 "/>
</g>
</svg>
