<?xml version="1.0" encoding="UTF-8"?>
<svg xmlns="http://www.w3.org/2000/svg" xmlns:xlink="http://www.w3.org/1999/xlink" width="12.000072pt" height="12.00245pt" viewBox="0 0 12.000072 12.00245" version="1.1">
<g id="surface1">
<path style=" stroke:none;fill-rule:nonzero;fill:rgb(30.196078%,30.196078%,30.196078%);fill-opacity:1;" d="M 5.40625 0.00390625 C 2.328125 0.105469 -0.015625 0.972656 0 2.003906 L 0 10.003906 C 0.015625 10.710938 1.15625 11.367188 3 11.722656 L 3 10.785156 C 1.765625 10.597656 1.027344 10.3125 1 10.003906 L 1 7.097656 C 2.105469 7.660156 3.980469 8 6 8.003906 C 8.019531 8 9.898438 7.660156 11 7.097656 L 11 9.003906 L 12 9.003906 L 12 2.003906 C 12 0.898438 9.3125 0.00390625 6 0.00390625 C 5.800781 0 5.605469 0 5.40625 0.00390625 Z M 5.65625 1 C 5.769531 1 5.886719 1 6 1.003906 C 8.761719 1.003906 11 1.449219 11 2.003906 C 11 2.554688 8.761719 3.003906 6 3.003906 C 3.238281 3.003906 1 2.554688 1 2.003906 C 0.964844 1.511719 2.726562 1.085938 5.15625 1.003906 C 5.324219 1 5.488281 1 5.65625 1 Z M 1 3.097656 C 2.105469 3.660156 3.980469 4 6 4.003906 C 8.019531 4 9.898438 3.660156 11 3.097656 L 11 6.003906 C 11 6.554688 8.761719 7.003906 6 7.003906 C 3.238281 7.003906 1 6.554688 1 6.003906 Z M 1 3.097656 "/>
<path style=" stroke:none;fill-rule:nonzero;fill:rgb(95.686275%,46.666667%,31.372549%);fill-opacity:1;" d="M 5 10.003906 C 4.449219 10.003906 4 10.449219 4 11.003906 C 4 11.554688 4.449219 12.003906 5 12.003906 C 5.550781 12.003906 6 11.554688 6 11.003906 C 6 10.449219 5.550781 10.003906 5 10.003906 Z M 8 10.003906 C 7.449219 10.003906 7 10.449219 7 11.003906 C 7 11.554688 7.449219 12.003906 8 12.003906 C 8.550781 12.003906 9 11.554688 9 11.003906 C 9 10.449219 8.550781 10.003906 8 10.003906 Z M 11 10.003906 C 10.449219 10.003906 10 10.449219 10 11.003906 C 10 11.554688 10.449219 12.003906 11 12.003906 C 11.550781 12.003906 12 11.554688 12 11.003906 C 12 10.449219 11.550781 10.003906 11 10.003906 Z M 11 10.003906 "/>
</g>
</svg>
