<?xml version="1.0" encoding="UTF-8"?>
<svg xmlns="http://www.w3.org/2000/svg" xmlns:xlink="http://www.w3.org/1999/xlink" width="12pt" height="12pt" viewBox="0 0 12 12" version="1.1">
<g id="surface1">
<path style=" stroke:none;fill-rule:nonzero;fill:rgb(30.196078%,30.196078%,30.196078%);fill-opacity:1;" d="M 2 0 L 2 1 L 5 1 L 5 6 L 6 6 L 6 1 L 9 1 L 9 0 Z M 0 4 L 0 12 L 12 12 L 10.65625 11.125 L 0.6875 4.46875 Z M 1 6 L 8.84375 11.03125 L 1 11 Z M 1 6 "/>
<path style=" stroke:none;fill-rule:nonzero;fill:rgb(95.686275%,46.666667%,31.372549%);fill-opacity:1;" d="M 11 0 C 10.449219 0 10 0.449219 10 1 C 10 1.550781 10.449219 2 11 2 C 11.550781 2 12 1.550781 12 1 C 12 0.449219 11.550781 0 11 0 Z M 11 3 C 10.449219 3 10 3.449219 10 4 C 10 4.550781 10.449219 5 11 5 C 11.550781 5 12 4.550781 12 4 C 12 3.449219 11.550781 3 11 3 Z M 11 6 C 10.449219 6 10 6.449219 10 7 C 10 7.550781 10.449219 8 11 8 C 11.550781 8 12 7.550781 12 7 C 12 6.449219 11.550781 6 11 6 Z M 11 6 "/>
</g>
</svg>
