<?xml version="1.0" encoding="UTF-8"?>
<svg xmlns="http://www.w3.org/2000/svg" xmlns:xlink="http://www.w3.org/1999/xlink" width="10pt" height="12pt" viewBox="0 0 10 12" version="1.1">
<g id="surface1">
<path style=" stroke:none;fill-rule:nonzero;fill:rgb(30.196078%,30.196078%,30.196078%);fill-opacity:1;" d="M 5 0 C 3.339844 0 2 1.339844 2 3 C 2 4.660156 3.339844 6 5 6 C 6.660156 6 8 4.660156 8 3 C 8 1.339844 6.660156 0 5 0 Z M 5 6 C 2.230469 6 0 6.890625 0 8 L 0 12 L 10 12 L 10 8 C 10 6.890625 7.769531 6 5 6 Z M 5 1 C 6.109375 1 7 1.890625 7 3 C 7 4.109375 6.109375 5 5 5 C 3.890625 5 3 4.109375 3 3 C 3 1.890625 3.890625 1 5 1 Z M 5 7 C 7.214844 7 9 7.644531 9 8.4375 L 9 11 L 1 11 L 1 8.4375 C 1 7.644531 2.785156 7 5 7 Z M 5 7 "/>
</g>
</svg>
