<?xml version="1.0" encoding="UTF-8"?>
<svg xmlns="http://www.w3.org/2000/svg" xmlns:xlink="http://www.w3.org/1999/xlink" width="12pt" height="12pt" viewBox="0 0 12 12" version="1.1">
<g id="surface1">
<path style=" stroke:none;fill-rule:nonzero;fill:rgb(30.196078%,30.196078%,30.196078%);fill-opacity:1;" d="M 0 0 L 0 12 L 12 12 L 12 0 Z M 5 1 L 7 1 L 7 3 L 5 3 Z M 8 1 L 11 1 L 11 3 L 8 3 Z M 5 4 L 7 4 L 7 7 L 5 7 Z M 8 4 L 11 4 L 11 7 L 8 7 Z M 5 8 L 7 8 L 7 11 L 5 11 Z M 8 8 L 11 8 L 11 11 L 8 11 Z M 8 8 "/>
</g>
</svg>
