<?xml version="1.0" encoding="UTF-8"?>
<svg xmlns="http://www.w3.org/2000/svg" xmlns:xlink="http://www.w3.org/1999/xlink" width="12pt" height="12pt" viewBox="0 0 12 12" version="1.1">
<g id="surface1">
<path style=" stroke:none;fill-rule:nonzero;fill:rgb(30.196078%,30.196078%,30.196078%);fill-opacity:1;" d="M 0 0 L 0 12 L 12 12 L 12 0 Z M 6.6875 0.5 L 8.34375 1.59375 L 10 0.5 L 10.6875 0.9375 L 8.6875 2.25 L 8.34375 2.5 L 8 2.25 L 6 0.9375 Z M 1 3 L 11 3 L 11 11 L 1 11 Z M 2 4 L 2 10 L 5 10 L 5 4 Z M 6 5 L 6 6 L 10 6 L 10 5 Z M 6 8 L 6 9 L 10 9 L 10 8 Z M 6 8 "/>
</g>
</svg>
