<?xml version="1.0" encoding="UTF-8"?>
<svg xmlns="http://www.w3.org/2000/svg" xmlns:xlink="http://www.w3.org/1999/xlink" width="12pt" height="12pt" viewBox="0 0 12 12" version="1.1">
<g id="surface1">
<path style=" stroke:none;fill-rule:nonzero;fill:rgb(30.196078%,30.196078%,30.196078%);fill-opacity:1;" d="M 0 0 L 0 5 L 2 5 L 2 8 L 0 8 L 0 12 L 5 12 L 5 8 L 3 8 L 3 5 L 7 5 L 7 2 L 10 2 L 10 9 L 9 9 L 9 12 L 12 12 L 12 9 L 11 9 L 11 1 L 7 1 L 7 0 Z M 1 1 L 6 1 L 6 4 L 1 4 Z M 1 9 L 4 9 L 4 11 L 1 11 Z M 1 9 "/>
</g>
</svg>
