<?xml version="1.0" encoding="UTF-8"?>
<svg xmlns="http://www.w3.org/2000/svg" xmlns:xlink="http://www.w3.org/1999/xlink" width="12pt" height="12pt" viewBox="0 0 12 12" version="1.1">
<g id="surface1">
<path style=" stroke:none;fill-rule:nonzero;fill:rgb(30.196078%,30.196078%,30.196078%);fill-opacity:1;" d="M 0 0 L 0 12 L 12 12 L 12 0 Z M 1 3 L 11 3 L 11 11 L 1 11 Z M 9 4 L 6 5 C 4.953125 5 4 5.953125 4 7 L 3 10 L 6 9 C 7.046875 9 8 8.046875 8 7 Z M 6 6 C 6.523438 6 7 6.476562 7 7 C 7 7.523438 6.523438 8 6 8 C 5.476562 8 5 7.523438 5 7 C 5 6.476562 5.476562 6 6 6 Z M 6 6 "/>
</g>
</svg>
