<?xml version="1.0" encoding="UTF-8"?>
<svg xmlns="http://www.w3.org/2000/svg" xmlns:xlink="http://www.w3.org/1999/xlink" width="12pt" height="12pt" viewBox="0 0 12 12" version="1.1">
<g id="surface1">
<path style=" stroke:none;fill-rule:nonzero;fill:rgb(30.196078%,30.196078%,30.196078%);fill-opacity:1;" d="M 8 0 L 8 2 L 1.5 2 C 1.222656 2 1 2.222656 1 2.5 C 1 2.777344 1.222656 3 1.5 3 L 2 3 L 2 4 L 3 4 L 3 3 L 4 3 L 4 4 L 5 4 L 5 3 L 8 3 L 8 5 L 11 5 L 11 0 Z M 9 1 L 10 1 L 10 4 L 9 4 Z M 0 4 L 0 12 L 12 12 L 10.65625 11.125 L 0.6875 4.46875 Z M 1 6 L 8.84375 11.03125 L 1 11 Z M 1 6 "/>
</g>
</svg>
