<?xml version="1.0" encoding="UTF-8"?>
<svg xmlns="http://www.w3.org/2000/svg" xmlns:xlink="http://www.w3.org/1999/xlink" width="11pt" height="12pt" viewBox="0 0 11 12" version="1.1">
<g id="surface1">
<path style=" stroke:none;fill-rule:nonzero;fill:rgb(30.196078%,30.196078%,30.196078%);fill-opacity:1;" d="M 0 0 L 0 12 L 6 12 L 6 11 L 1 11 L 1 1 L 9 1 L 9 6 L 10 6 L 10 0 Z M 2 2 L 2 5 L 5 5 L 5 2 Z M 6 2 L 6 3 L 8 3 L 8 2 Z M 6 4 L 6 5 L 8 5 L 8 4 Z M 2 6 L 2 7 L 6 7 L 6 6 Z M 2 8 L 2 9 L 5 9 L 5 8 Z M 2 8 "/>
<path style=" stroke:none;fill-rule:nonzero;fill:rgb(11.372549%,60%,95.294118%);fill-opacity:1;" d="M 8 7 L 8 9 L 6 9 L 6 10 L 8 10 L 8 12 L 9 12 L 9 10 L 11 10 L 11 9 L 9 9 L 9 7 Z M 8 7 "/>
</g>
</svg>
