<?xml version="1.0" encoding="UTF-8"?>
<svg xmlns="http://www.w3.org/2000/svg" xmlns:xlink="http://www.w3.org/1999/xlink" width="10pt" height="12pt" viewBox="0 0 10 12" version="1.1">
<g id="surface1">
<path style=" stroke:none;fill-rule:nonzero;fill:rgb(30.196078%,30.196078%,30.196078%);fill-opacity:1;" d="M 4 0 C 2.894531 0 2 0.894531 2 2 L 2 5 L 0 5 L 0 6 L 2 6 L 2 12 L 3 12 L 3 6 L 5 6 L 5 5 L 3 5 L 3 2 C 3 1.449219 3.449219 1 4 1 L 6 1 L 6 0 Z M 6.464844 7.757812 L 5.757812 8.464844 L 7.171875 9.878906 L 5.757812 11.292969 L 6.464844 12 L 7.878906 10.585938 L 9.292969 12 L 10 11.292969 L 8.585938 9.878906 L 10 8.464844 L 9.292969 7.757812 L 7.878906 9.171875 Z M 6.464844 7.757812 "/>
</g>
</svg>
