<?xml version="1.0" encoding="UTF-8"?>
<svg xmlns="http://www.w3.org/2000/svg" xmlns:xlink="http://www.w3.org/1999/xlink" width="12pt" height="12pt" viewBox="0 0 12 12" version="1.1">
<g id="surface1">
<path style=" stroke:none;fill-rule:nonzero;fill:rgb(30.196078%,30.196078%,30.196078%);fill-opacity:1;" d="M 0 0 L 0 12 L 3 12 L 3 11 L 1 11 L 1 8 L 3 8 L 3 7 L 1 7 L 1 5 L 3 5 L 3 4 L 1 4 L 1 1 L 3 1 L 3 0 Z M 4 0 L 4 12 L 8 12 L 8 7 L 10 7 L 10 8 L 12 6 L 10 4 L 10 5 L 8 5 L 8 0 Z M 5 1 L 7 1 L 7 4 L 5 4 Z M 5 5 L 7 5 L 7 7 L 5 7 Z M 5 8 L 7 8 L 7 11 L 5 11 Z M 5 8 "/>
</g>
</svg>
