<?xml version="1.0" encoding="UTF-8"?>
<svg xmlns="http://www.w3.org/2000/svg" xmlns:xlink="http://www.w3.org/1999/xlink" width="12pt" height="12pt" viewBox="0 0 12 12" version="1.1">
<g id="surface1">
<path style=" stroke:none;fill-rule:nonzero;fill:rgb(30.196078%,30.196078%,30.196078%);fill-opacity:1;" d="M 1 0 L 0 1 L 0 2.3125 L 4 7.96875 L 4 10 L 5 10.5 L 5 7.625 L 1 2 L 1 1 L 11 1 L 11 2 L 8.875 5 L 10.09375 5 L 12 2.3125 L 12 1 L 11 0 Z M 10.5625 6.46875 L 9.78125 7.75 L 7 7.75 L 7 8.75 L 9.1875 8.75 L 8.59375 9.75 L 7 9.75 L 7 10.75 L 8 10.75 L 7.5625 11.46875 L 8.4375 12 L 9.1875 10.75 L 12 10.75 L 12 9.75 L 9.78125 9.75 L 10.375 8.75 L 12 8.75 L 12 7.75 L 11 7.75 L 11.4375 7 Z M 10.5625 6.46875 "/>
</g>
</svg>
