<?xml version="1.0" encoding="UTF-8"?>
<svg xmlns="http://www.w3.org/2000/svg" xmlns:xlink="http://www.w3.org/1999/xlink" width="12pt" height="12pt" viewBox="0 0 12 12" version="1.1">
<g id="surface1">
<path style=" stroke:none;fill-rule:nonzero;fill:rgb(30.196078%,30.196078%,30.196078%);fill-opacity:1;" d="M 6 0 L 6 2 L 3 2 L 3 4 L 0 4 L 0 12 L 6 12 L 6 10 L 9 10 L 9 8 L 12 8 L 12 0 Z M 7 1 L 11 1 L 11 7 L 9 7 L 9 2 L 7 2 Z M 4 3 L 8 3 L 8 9 L 6 9 L 6 4 L 4 4 Z M 1 5 L 5 5 L 5 11 L 1 11 Z M 1 5 "/>
</g>
</svg>
