<?xml version="1.0" encoding="UTF-8"?>
<svg xmlns="http://www.w3.org/2000/svg" xmlns:xlink="http://www.w3.org/1999/xlink" width="12pt" height="13pt" viewBox="0 0 12 13" version="1.1">
<g id="surface1">
<path style=" stroke:none;fill-rule:nonzero;fill:rgb(30.196078%,30.196078%,30.196078%);fill-opacity:1;" d="M 0 0 L 0 12 L 5 12 L 5 8 L 4 8 L 4 11 L 1 11 L 1 8 L 4 8 L 4 7 L 1 7 L 1 4 L 4 4 L 4 3 L 1 3 L 1 1 L 4 1 L 4 3 L 5 3 L 5 1 L 7 1 L 7 3 L 8 3 L 8 1 L 11 1 L 11 3 L 8 3 L 8 4 L 11 4 L 11 7 L 12 7 L 12 0 Z M 0 0 "/>
<path style=" stroke:none;fill-rule:nonzero;fill:rgb(11.372549%,60%,95.294118%);fill-opacity:1;" d="M 4 3 L 4 8 L 6 8 L 6 7 L 5 7 L 5 4 L 7 4 L 7 5 L 8 5 L 8 3 Z M 7 6 L 7 13 L 9 10 L 12 10 Z M 7 6 "/>
</g>
</svg>
