<?xml version="1.0" encoding="UTF-8"?>
<svg xmlns="http://www.w3.org/2000/svg" xmlns:xlink="http://www.w3.org/1999/xlink" width="12.000027pt" height="12.000001pt" viewBox="0 0 12.000027 12.000001" version="1.1">
<g id="surface1">
<path style=" stroke:none;fill-rule:nonzero;fill:rgb(70.196078%,70.196078%,70.196078%);fill-opacity:1;" d="M 12 0 L 8 4 L 0 4 L 0 12 L 8 12 L 12 8 Z M 12 0 "/>
<path style=" stroke:none;fill-rule:nonzero;fill:rgb(30.196078%,30.196078%,30.196078%);fill-opacity:1;" d="M 3.3125 0 C 3.324219 -0.00390625 0 3.3125 0 3.3125 L 0 12 L 8.6875 12 C 8.6875 12 12.011719 8.71875 12 8.71875 L 12 0 Z M 3.8125 1 L 10.28125 1 C 9.449219 1.84375 8.652344 2.660156 8.3125 3 L 1.6875 3 L 3 1.71875 C 2.957031 1.714844 3.8125 1 3.8125 1 Z M 11 1.71875 L 11 8.3125 L 10.28125 9 C 9.738281 9.550781 9.546875 9.761719 9 10.3125 L 9 3.6875 Z M 1 4 L 8 4 L 8 11 L 5 11 L 5 8 L 6.5 8 L 4.5 5 L 2.5 8 L 4 8 L 4 11 L 1 11 Z M 1 4 "/>
</g>
</svg>
