<?xml version="1.0" encoding="UTF-8"?>
<svg xmlns="http://www.w3.org/2000/svg" xmlns:xlink="http://www.w3.org/1999/xlink" width="11pt" height="12pt" viewBox="0 0 11 12" version="1.1">
<g id="surface1">
<path style=" stroke:none;fill-rule:nonzero;fill:rgb(30.196078%,30.196078%,30.196078%);fill-opacity:1;" d="M 7.8125 0 C 5.109375 0 2.832031 1.910156 2.1875 4.5 L 0 4.5 L 0 5.5 L 2.03125 5.5 C 2.019531 5.664062 2 5.835938 2 6 C 2 6.164062 2.019531 6.335938 2.03125 6.5 L 0 6.5 L 0 7.5 L 2.1875 7.5 C 2.832031 10.089844 5.109375 12 7.8125 12 C 9.003906 12 10.078125 11.605469 11 10.96875 L 10.5 10.15625 C 9.730469 10.695312 8.8125 11 7.8125 11 C 5.65625 11 3.839844 9.519531 3.21875 7.5 L 7 7.5 L 7 6.5 L 3 6.5 C 2.984375 6.332031 2.96875 6.171875 2.96875 6 C 2.96875 5.828125 2.984375 5.667969 3 5.5 L 8 5.5 L 8 4.5 L 3.21875 4.5 C 3.839844 2.480469 5.65625 1 7.8125 1 C 8.8125 1 9.730469 1.304688 10.5 1.84375 L 11 1.03125 C 10.078125 0.394531 9.003906 0 7.8125 0 Z M 7.8125 0 "/>
</g>
</svg>
