<?xml version="1.0" encoding="UTF-8"?>
<svg xmlns="http://www.w3.org/2000/svg" xmlns:xlink="http://www.w3.org/1999/xlink" width="12pt" height="12pt" viewBox="0 0 12 12" version="1.1">
<g id="surface1">
<path style=" stroke:none;fill-rule:nonzero;fill:rgb(30.196078%,30.196078%,30.196078%);fill-opacity:1;" d="M 3.4375 0 L 0.183594 3.28125 L 0 3.5 L 0.183594 3.71875 L 3.4375 7 L 4.109375 6.28125 L 1.871094 4 L 5 4 L 5 3 L 1.871094 3 L 4.109375 0.71875 Z M 7.5 3 C 7.222656 3 7 3.222656 7 3.5 C 7 3.777344 7.222656 4 7.5 4 C 7.777344 4 8 3.777344 8 3.5 C 8 3.222656 7.777344 3 7.5 3 Z M 9.5 4 C 9.222656 4 9 4.222656 9 4.5 C 9 4.777344 9.222656 5 9.5 5 C 9.777344 5 10 4.777344 10 4.5 C 10 4.222656 9.777344 4 9.5 4 Z M 11.5 6 C 11.222656 6 11 6.222656 11 6.5 C 11 6.777344 11.222656 7 11.5 7 C 11.777344 7 12 6.777344 12 6.5 C 12 6.222656 11.777344 6 11.5 6 Z M 11.5 8 C 11.222656 8 11 8.222656 11 8.5 C 11 8.777344 11.222656 9 11.5 9 C 11.777344 9 12 8.777344 12 8.5 C 12 8.222656 11.777344 8 11.5 8 Z M 10.5 10 C 10.222656 10 10 10.222656 10 10.5 C 10 10.777344 10.222656 11 10.5 11 C 10.777344 11 11 10.777344 11 10.5 C 11 10.222656 10.777344 10 10.5 10 Z M 8.5 11 C 8.222656 11 8 11.222656 8 11.5 C 8 11.777344 8.222656 12 8.5 12 C 8.777344 12 9 11.777344 9 11.5 C 9 11.222656 8.777344 11 8.5 11 Z M 8.5 11 "/>
<path style=" stroke:none;fill-rule:nonzero;fill:rgb(11.372549%,60%,95.294118%);fill-opacity:1;" d="M 7 0 L 7 12 L 8 12 L 8 0 Z M 7 0 "/>
</g>
</svg>
