<?xml version="1.0" encoding="UTF-8"?>
<svg xmlns="http://www.w3.org/2000/svg" xmlns:xlink="http://www.w3.org/1999/xlink" width="12pt" height="12pt" viewBox="0 0 12 12" version="1.1">
<g id="surface1">
<path style=" stroke:none;fill-rule:nonzero;fill:rgb(30.196078%,30.196078%,30.196078%);fill-opacity:1;" d="M 9.125 0 L 0 9.125 L 2.875 12 L 12 2.875 Z M 9.125 1.4375 L 10.5625 2.875 L 7.78125 5.65625 L 6.34375 4.21875 Z M 10 8 C 8.894531 8 8 8.894531 8 10 C 8 11.105469 8.894531 12 10 12 C 10.363281 12 10.707031 11.890625 11 11.71875 L 11 12 L 12 12 L 12 8 L 11 8 L 11 8.28125 C 10.707031 8.109375 10.363281 8 10 8 Z M 10 9 C 10.550781 9 11 9.449219 11 10 C 11 10.550781 10.550781 11 10 11 C 9.449219 11 9 10.550781 9 10 C 9 9.449219 9.449219 9 10 9 Z M 10 9 "/>
</g>
</svg>
