<?xml version="1.0" encoding="UTF-8"?>
<svg xmlns="http://www.w3.org/2000/svg" xmlns:xlink="http://www.w3.org/1999/xlink" width="12pt" height="12pt" viewBox="0 0 12 12" version="1.1">
<g id="surface1">
<path style=" stroke:none;fill-rule:nonzero;fill:rgb(30.196078%,30.196078%,30.196078%);fill-opacity:1;" d="M 6.5 0 C 6.222656 0 6 0.222656 6 0.5 C 6 0.777344 6.222656 1 6.5 1 C 6.777344 1 7 0.777344 7 0.5 C 7 0.222656 6.777344 0 6.5 0 Z M 8.5 0 C 8.222656 0 8 0.222656 8 0.5 C 8 0.777344 8.222656 1 8.5 1 C 8.777344 1 9 0.777344 9 0.5 C 9 0.222656 8.777344 0 8.5 0 Z M 10.5 1 C 10.222656 1 10 1.222656 10 1.5 C 10 1.777344 10.222656 2 10.5 2 C 10.777344 2 11 1.777344 11 1.5 C 11 1.222656 10.777344 1 10.5 1 Z M 4.5 2 C 4.222656 2 4 2.222656 4 2.5 C 4 2.777344 4.222656 3 4.5 3 C 4.777344 3 5 2.777344 5 2.5 C 5 2.222656 4.777344 2 4.5 2 Z M 11.5 3 C 11.222656 3 11 3.222656 11 3.5 C 11 3.777344 11.222656 4 11.5 4 C 11.777344 4 12 3.777344 12 3.5 C 12 3.222656 11.777344 3 11.5 3 Z M 3.5 4 C 3.222656 4 3 4.222656 3 4.5 C 3 4.777344 3.222656 5 3.5 5 C 3.777344 5 4 4.777344 4 4.5 C 4 4.222656 3.777344 4 3.5 4 Z M 3 7 L 3 10.128906 L 0.71875 7.890625 L 0 8.5625 L 3.28125 11.816406 L 3.5 12 L 3.71875 11.816406 L 7 8.5625 L 6.28125 7.890625 L 4 10.128906 L 4 7 Z M 3 7 "/>
<path style=" stroke:none;fill-rule:nonzero;fill:rgb(11.372549%,60%,95.294118%);fill-opacity:1;" d="M 0 4 L 0 5 L 12 5 L 12 4 Z M 0 4 "/>
</g>
</svg>
