<?xml version="1.0" encoding="UTF-8"?>
<svg xmlns="http://www.w3.org/2000/svg" xmlns:xlink="http://www.w3.org/1999/xlink" width="10pt" height="12pt" viewBox="0 0 10 12" version="1.1">
<g id="surface1">
<path style=" stroke:none;fill-rule:nonzero;fill:rgb(30.196078%,30.196078%,30.196078%);fill-opacity:1;" d="M 0 0 C 0 4 0 8 0 12 C 3.332031 12 6.667969 12 10 12 C 10 7.867188 10 3.558594 10 0 Z M 1 1 L 9 1 L 9 11 C 6.332031 11 3.667969 11 1 11 C 1 7.667969 1 4.332031 1 1 Z M 1 1 "/>
<path style=" stroke:none;fill-rule:nonzero;fill:rgb(11.372549%,60%,95.294118%);fill-opacity:1;" d="M 2 2 L 2 3 L 8 3 L 8 2 Z M 2 9 L 2 10 L 8 10 L 8 9 Z M 2 9 "/>
</g>
</svg>
