<?xml version="1.0" encoding="UTF-8"?>
<svg xmlns="http://www.w3.org/2000/svg" xmlns:xlink="http://www.w3.org/1999/xlink" width="12pt" height="12pt" viewBox="0 0 12 12" version="1.1">
<g id="surface1">
<path style=" stroke:none;fill-rule:nonzero;fill:rgb(30.196078%,30.196078%,30.196078%);fill-opacity:1;" d="M 3.5 0 C 3.222656 0 3 0.222656 3 0.5 C 3 0.777344 3.222656 1 3.5 1 C 3.777344 1 4 0.777344 4 0.5 C 4 0.222656 3.777344 0 3.5 0 Z M 1.5 1 C 1.222656 1 1 1.222656 1 1.5 C 1 1.777344 1.222656 2 1.5 2 C 1.777344 2 2 1.777344 2 1.5 C 2 1.222656 1.777344 1 1.5 1 Z M 0.5 3 C 0.222656 3 0 3.222656 0 3.5 C 0 3.777344 0.222656 4 0.5 4 C 0.777344 4 1 3.777344 1 3.5 C 1 3.222656 0.777344 3 0.5 3 Z M 0.5 5 C 0.222656 5 0 5.222656 0 5.5 C 0 5.777344 0.222656 6 0.5 6 C 0.777344 6 1 5.777344 1 5.5 C 1 5.222656 0.777344 5 0.5 5 Z M 8.5625 5 L 7.890625 5.71875 L 10.128906 8 L 7 8 L 7 9 L 10.128906 9 L 7.890625 11.28125 L 8.5625 12 L 11.816406 8.71875 L 12 8.5 L 11.816406 8.28125 Z M 2.5 7 C 2.222656 7 2 7.222656 2 7.5 C 2 7.777344 2.222656 8 2.5 8 C 2.777344 8 3 7.777344 3 7.5 C 3 7.222656 2.777344 7 2.5 7 Z M 4.5 8 C 4.222656 8 4 8.222656 4 8.5 C 4 8.777344 4.222656 9 4.5 9 C 4.777344 9 5 8.777344 5 8.5 C 5 8.222656 4.777344 8 4.5 8 Z M 4.5 8 "/>
<path style=" stroke:none;fill-rule:nonzero;fill:rgb(11.372549%,60%,95.294118%);fill-opacity:1;" d="M 4 0 L 4 12 L 5 12 L 5 0 Z M 4 0 "/>
</g>
</svg>
