<?xml version="1.0" encoding="UTF-8"?>
<svg xmlns="http://www.w3.org/2000/svg" xmlns:xlink="http://www.w3.org/1999/xlink" width="12.000027pt" height="12pt" viewBox="0 0 12.000027 12" version="1.1">
<g id="surface1">
<path style=" stroke:none;fill-rule:nonzero;fill:rgb(70.196078%,70.196078%,70.196078%);fill-opacity:1;" d="M 2.71875 1 L 1.6875 2 L 8.46875 2 L 9.96875 1 Z M 11 1.4375 C 10.269531 1.964844 9.46875 2.539062 9 2.875 L 9 8.3125 C 9.546875 7.761719 9.738281 7.550781 10.28125 7 C 10.292969 7.011719 11 6.25 11 6.25 Z M 8.5 10 L 8.5 10.03125 L 8.53125 10 Z M 8.5 10 "/>
<path style=" stroke:none;fill-rule:nonzero;fill:rgb(30.196078%,30.196078%,30.196078%);fill-opacity:1;" d="M 2.3125 0 C 1.339844 0.976562 0 2.3125 0 2.3125 L 0 10 L 8.6875 10 C 8.6875 10 12.011719 6.71875 12 6.71875 L 12 0 Z M 2.71875 1 L 9.96875 1 L 8.46875 2 L 1.6875 2 Z M 11 1.4375 L 11 6.25 C 11 6.25 10.292969 7.011719 10.28125 7 C 9.738281 7.550781 9.546875 7.761719 9 8.3125 L 9 2.875 C 9.46875 2.539062 10.269531 1.964844 11 1.4375 Z M 1 3 L 8 3 L 8 9 L 1 9 Z M 0 11 L 0 12 L 12 12 L 12 11 Z M 0 11 "/>
</g>
</svg>
