<?xml version="1.0" encoding="UTF-8"?>
<svg xmlns="http://www.w3.org/2000/svg" xmlns:xlink="http://www.w3.org/1999/xlink" width="12pt" height="12pt" viewBox="0 0 12 12" version="1.1">
<g id="surface1">
<path style=" stroke:none;fill-rule:nonzero;fill:rgb(70.196078%,70.196078%,70.196078%);fill-opacity:1;" d="M 7.65625 0.5 L 1.53125 4.5 L 6.40625 4.5 L 11.09375 0.5 Z M 11.5 0.90625 L 7.03125 5.28125 L 7 11 L 11.5 4.03125 Z M 11.5 0.90625 "/>
<path style=" stroke:none;fill-rule:nonzero;fill:rgb(30.196078%,30.196078%,30.196078%);fill-opacity:1;" d="M 7.53125 0 L 7.46875 0.03125 L 0.25 4.5 L 0 4.625 L 0 12 L 7.085938 12 L 11.96875 4.21875 L 12 4.15625 L 12 0 Z M 7.65625 0.5 L 11.09375 0.5 L 6.410156 4.5 L 1.546875 4.5 Z M 11.5 0.90625 L 11.5 4.03125 L 7 10.667969 L 7.035156 5.265625 Z M 6 5.5 L 6 11 L 1 11 L 1 5.53125 Z M 6 5.5 "/>
</g>
</svg>
