<?xml version="1.0" encoding="UTF-8"?>
<svg xmlns="http://www.w3.org/2000/svg" xmlns:xlink="http://www.w3.org/1999/xlink" width="12pt" height="12pt" viewBox="0 0 12 12" version="1.1">
<g id="surface1">
<path style=" stroke:none;fill-rule:nonzero;fill:rgb(30.196078%,30.196078%,30.196078%);fill-opacity:1;" d="M 8.5 0 L 8.28125 0.183594 L 5 3.4375 L 5.71875 4.109375 L 8 1.871094 L 8 5 L 9 5 L 9 1.871094 L 11.28125 4.109375 L 12 3.4375 L 8.71875 0.183594 Z M 8.5 7 C 8.222656 7 8 7.222656 8 7.5 C 8 7.777344 8.222656 8 8.5 8 C 8.777344 8 9 7.777344 9 7.5 C 9 7.222656 8.777344 7 8.5 7 Z M 0.5 8 C 0.222656 8 0 8.222656 0 8.5 C 0 8.777344 0.222656 9 0.5 9 C 0.777344 9 1 8.777344 1 8.5 C 1 8.222656 0.777344 8 0.5 8 Z M 7.5 9 C 7.222656 9 7 9.222656 7 9.5 C 7 9.777344 7.222656 10 7.5 10 C 7.777344 10 8 9.777344 8 9.5 C 8 9.222656 7.777344 9 7.5 9 Z M 1.5 10 C 1.222656 10 1 10.222656 1 10.5 C 1 10.777344 1.222656 11 1.5 11 C 1.777344 11 2 10.777344 2 10.5 C 2 10.222656 1.777344 10 1.5 10 Z M 3.5 11 C 3.222656 11 3 11.222656 3 11.5 C 3 11.777344 3.222656 12 3.5 12 C 3.777344 12 4 11.777344 4 11.5 C 4 11.222656 3.777344 11 3.5 11 Z M 5.5 11 C 5.222656 11 5 11.222656 5 11.5 C 5 11.777344 5.222656 12 5.5 12 C 5.777344 12 6 11.777344 6 11.5 C 6 11.222656 5.777344 11 5.5 11 Z M 5.5 11 "/>
<path style=" stroke:none;fill-rule:nonzero;fill:rgb(11.372549%,60%,95.294118%);fill-opacity:1;" d="M 0 7 L 0 8 L 12 8 L 12 7 Z M 0 7 "/>
</g>
</svg>
