<?xml version="1.0" encoding="UTF-8"?>
<svg xmlns="http://www.w3.org/2000/svg" xmlns:xlink="http://www.w3.org/1999/xlink" width="12pt" height="12pt" viewBox="0 0 12 12" version="1.1">
<g id="surface1">
<path style=" stroke:none;fill-rule:nonzero;fill:rgb(70.196078%,70.196078%,70.196078%);fill-opacity:1;" d="M 12 0 L 8 4 L 8 12 L 12 8 Z M 8 4 L 11.308594 0.601562 L 4.21875 0.558594 L 0.515625 4.265625 Z M 8 4 "/>
<path style=" stroke:none;fill-rule:nonzero;fill:rgb(30.196078%,30.196078%,30.196078%);fill-opacity:1;" d="M 4.21875 0 L 0 4 L 0 12 L 8 12 L 12 8 L 12 0 Z M 4.464844 0.800781 L 10.886719 0.820312 L 7.289062 4 L 5 4 L 6 3 L 8 3 L 7 1 L 2.148438 2.941406 Z M 11.175781 1.648438 L 11.199219 7.757812 L 8 10.867188 L 8 5 Z M 2.085938 3 L 4 3 L 3 4 L 1 4 Z M 1 5 L 7 5 L 7 11 L 1 11 Z M 1 5 "/>
</g>
</svg>
