<?xml version="1.0" encoding="UTF-8"?>
<svg xmlns="http://www.w3.org/2000/svg" xmlns:xlink="http://www.w3.org/1999/xlink" width="10pt" height="12pt" viewBox="0 0 10 12" version="1.1">
<g id="surface1">
<path style=" stroke:none;fill-rule:nonzero;fill:rgb(30.196078%,30.196078%,30.196078%);fill-opacity:1;" d="M 0 0 L 0 12 L 7 12 L 10 9 L 10 0 Z M 1 1 L 9 1 L 9 8 L 6 8 L 6 11 L 1 11 Z M 2 2 L 2 5 L 5 5 L 5 2 Z M 6 2 L 6 3 L 8 3 L 8 2 Z M 6 4 L 6 5 L 8 5 L 8 4 Z M 2 6 L 2 7 L 8 7 L 8 6 Z M 2 8 L 2 9 L 5 9 L 5 8 Z M 2 8 "/>
</g>
</svg>
