<?xml version="1.0" encoding="UTF-8"?>
<svg xmlns="http://www.w3.org/2000/svg" xmlns:xlink="http://www.w3.org/1999/xlink" width="12pt" height="12pt" viewBox="0 0 12 12" version="1.1">
<g id="surface1">
<path style=" stroke:none;fill-rule:nonzero;fill:rgb(30.196078%,30.196078%,30.196078%);fill-opacity:1;" d="M 0 0 L 0 3 L 1 3 L 1 1 L 3 1 L 3 0 Z M 9 0 L 9 1 L 11 1 L 11 3 L 12 3 L 12 0 Z M 4 2 C 2.894531 2 2 2.894531 2 4 C 2 5.105469 2.894531 6 4 6 C 5.105469 6 6 5.105469 6 4 C 6 2.894531 5.105469 2 4 2 Z M 7 2 L 7 5 L 10 5 L 10 2 Z M 10 6 L 6 10 L 6 12 L 8 12 L 12 8 Z M 3 7 L 3 10 L 5 10 L 5 7 Z M 9.6875 7.6875 L 10.28125 8.28125 L 8.59375 9.96875 L 8.59375 10 L 7.3125 11.28125 L 6.71875 10.6875 L 8.59375 8.78125 Z M 0 9 L 0 12 L 3 12 L 3 11 L 1 11 L 1 9 Z M 0 9 "/>
</g>
</svg>
