<?xml version="1.0" encoding="UTF-8"?>
<svg xmlns="http://www.w3.org/2000/svg" xmlns:xlink="http://www.w3.org/1999/xlink" width="12pt" height="12pt" viewBox="0 0 12 12" version="1.1">
<g id="surface1">
<path style=" stroke:none;fill-rule:nonzero;fill:rgb(30.196078%,30.196078%,30.196078%);fill-opacity:1;" d="M 6 0 C 2.964844 0 0.46875 2.175781 0 5.03125 L 1.96875 5.6875 C 2.132812 3.625 3.863281 2 6 2 C 8.136719 2 9.867188 3.625 10.03125 5.6875 L 12 5.03125 C 11.53125 2.175781 9.035156 0 6 0 Z M 1.96875 6.3125 L 0 6.96875 C 0.46875 9.824219 2.964844 12 6 12 C 9.035156 12 11.53125 9.824219 12 6.96875 L 10.03125 6.3125 C 9.867188 8.375 8.136719 10 6 10 C 3.863281 10 2.132812 8.375 1.96875 6.3125 Z M 1.96875 6.3125 "/>
</g>
</svg>
