<?xml version="1.0" encoding="UTF-8"?>
<svg xmlns="http://www.w3.org/2000/svg" xmlns:xlink="http://www.w3.org/1999/xlink" width="12pt" height="12pt" viewBox="0 0 12 12" version="1.1">
<g id="surface1">
<path style=" stroke:none;fill-rule:nonzero;fill:rgb(30.196078%,30.196078%,30.196078%);fill-opacity:1;" d="M 6 0 L 5.292969 0.699219 L 5.296875 0.703125 L 0 6 L 0 7 L 1.007812 7 L 1.007812 11 L 1 11 L 1 12 L 11 12 L 11 7 L 12 7 L 12 6 L 10.859375 4.855469 L 10.15625 5.554688 L 10.597656 6 L 10 6 L 10 11 L 7 11 L 7 8 L 5 8 L 5 11 L 2 11 L 2 6 L 1.398438 6 L 6 1.40625 L 7.445312 2.84375 L 8.144531 2.140625 L 6.703125 0.703125 L 6.707031 0.699219 Z M 9 1 L 9 4 L 10.007812 4 L 10.007812 1 Z M 9 1 "/>
</g>
</svg>
