<?xml version="1.0" encoding="UTF-8"?>
<svg xmlns="http://www.w3.org/2000/svg" xmlns:xlink="http://www.w3.org/1999/xlink" width="12pt" height="12pt" viewBox="0 0 12 12" version="1.1">
<g id="surface1">
<path style=" stroke:none;fill-rule:nonzero;fill:rgb(30.196078%,30.196078%,30.196078%);fill-opacity:1;" d="M 1 0 L 0 1 L 0 2.3125 L 4 7.96875 L 4 10 L 5 10.5 L 5 7.625 L 1 2 L 1 1 L 11 1 L 11 2 L 8.875 5 L 10.125 5 L 12 2.3125 L 12 1 L 11 0 Z M 1 0 "/>
<path style=" stroke:none;fill-rule:nonzero;fill:rgb(11.372549%,60%,95.294118%);fill-opacity:1;" d="M 12 6 L 9 7 C 7.953125 7 7 7.953125 7 9 L 6 12 L 9 11 C 10.046875 11 11 10.046875 11 9 Z M 9 8 C 9.523438 8 10 8.476562 10 9 C 10 9.523438 9.523438 10 9 10 C 8.476562 10 8 9.523438 8 9 C 8 8.476562 8.476562 8 9 8 Z M 9 8 "/>
</g>
</svg>
