<?xml version="1.0" encoding="UTF-8"?>
<svg xmlns="http://www.w3.org/2000/svg" xmlns:xlink="http://www.w3.org/1999/xlink" width="12pt" height="12pt" viewBox="0 0 12 12" version="1.1">
<g id="surface1">
<path style=" stroke:none;fill-rule:nonzero;fill:rgb(30.196078%,30.196078%,30.196078%);fill-opacity:1;" d="M 0 0 L 0 1 L 12 1 L 12 0 Z M 2.476562 2.664062 L 0 9.332031 L 1.335938 9.332031 L 2.039062 7.226562 L 4.03125 7.226562 L 4.640625 9.332031 L 6 9.332031 L 3.734375 2.664062 Z M 9.457031 2.664062 L 9.457031 2.667969 C 8.414062 2.691406 7.824219 2.859375 7.242188 3.125 L 7.609375 4 C 8.339844 3.769531 8.953125 3.5625 9.660156 3.585938 C 10.523438 3.621094 10.855469 3.984375 10.882812 4.722656 L 10.902344 5.292969 C 7.226562 5.453125 6.707031 6.101562 6.664062 7.539062 C 6.664062 8.660156 7.488281 9.332031 8.667969 9.332031 C 9.480469 9.332031 10.414062 9.003906 10.957031 8.542969 L 11.113281 9.207031 L 12 9.207031 L 12 4.710938 C 12 3.335938 11.042969 2.664062 9.582031 2.664062 Z M 3.101562 3.945312 L 3.789062 6.390625 L 2.296875 6.402344 Z M 10.886719 6.101562 C 10.886719 6.109375 10.878906 7.234375 10.878906 7.234375 C 10.542969 7.867188 9.703125 8.371094 9.089844 8.402344 C 8.386719 8.4375 7.816406 8.128906 7.804688 7.53125 C 7.828125 6.378906 9.214844 6.273438 10.886719 6.101562 Z M 0 11 L 0 12 L 12 12 L 12 11 Z M 0 11 "/>
</g>
</svg>
