<?xml version="1.0" encoding="UTF-8"?>
<svg xmlns="http://www.w3.org/2000/svg" xmlns:xlink="http://www.w3.org/1999/xlink" width="12.001117pt" height="12.000139pt" viewBox="0 0 12.001117 12.000139" version="1.1">
<g id="surface1">
<path style=" stroke:none;fill-rule:nonzero;fill:rgb(30.196078%,30.196078%,30.196078%);fill-opacity:1;" d="M 7.15625 0 L 0 7.125 L 0 10 C 1.074219 10.019531 2.84375 10 2.84375 10 L 10 2.84375 Z M 6.4375 2.15625 L 7.84375 3.5625 L 5 6.4375 L 3.5625 5 Z M 2.84375 5.71875 L 4.28125 7.125 L 3.5625 7.84375 L 2.15625 6.4375 Z M 10.125 7 C 9.929688 7 9.394531 7.046875 8.5625 7.5625 C 8.300781 7.722656 8.109375 7.90625 7.8125 8.125 C 7.652344 8.242188 7.085938 8.621094 6.875 8.75 C 6.253906 9.132812 6.035156 9.230469 5.5 9.5 C 4.984375 9.761719 4.441406 10 4.0625 10.1875 C 2.46875 10.980469 0 11 0 11 L 0 12 C 0 12 2.496094 12.03125 4.3125 11.125 C 4.554688 11.003906 4.980469 10.808594 5.375 10.625 C 5.375 10.625 7.226562 11.386719 8.625 11.78125 C 9.769531 12.191406 10.65625 11.929688 11.09375 11.625 C 11.722656 11.148438 12.023438 10.289062 12 9.46875 C 11.996094 9.179688 11.949219 8.945312 11.84375 8.625 C 11.738281 8.304688 11.578125 7.949219 11.34375 7.6875 C 10.980469 7.265625 10.800781 7.078125 10.125 7 Z M 10.125 7 "/>
</g>
</svg>
