<?xml version="1.0" encoding="UTF-8"?>
<svg xmlns="http://www.w3.org/2000/svg" xmlns:xlink="http://www.w3.org/1999/xlink" width="12pt" height="12pt" viewBox="0 0 12 12" version="1.1">
<g id="surface1">
<path style=" stroke:none;fill-rule:nonzero;fill:rgb(70.196078%,70.196078%,70.196078%);fill-opacity:1;" d="M 8 0 C 5.789062 0 4 2.6875 4 6 C 4 9.3125 5.789062 12 8 12 C 10.210938 12 12 9.3125 12 6 C 12 2.6875 10.210938 0 8 0 Z M 8 0 "/>
<path style=" stroke:none;fill-rule:nonzero;fill:rgb(30.196078%,30.196078%,30.196078%);fill-opacity:1;" d="M 4 0 C 1.789062 0 0 2.6875 0 6 C 0 9.3125 1.789062 12 4 12 L 8 12 C 5.789062 12 4 9.3125 4 6 C 4 2.6875 5.789062 0 8 0 Z M 4 0 "/>
</g>
</svg>
