<?xml version="1.0" encoding="UTF-8"?>
<svg xmlns="http://www.w3.org/2000/svg" xmlns:xlink="http://www.w3.org/1999/xlink" width="6.6875pt" height="12pt" viewBox="0 0 6.6875 12" version="1.1">
<g id="surface1">
<path style=" stroke:none;fill-rule:nonzero;fill:rgb(30.196078%,30.196078%,30.196078%);fill-opacity:1;" d="M 2.84375 0 L 2.84375 1.125 C 2 1.203125 1.335938 1.414062 0.84375 1.8125 C 0.300781 2.246094 0.03125 2.882812 0.03125 3.71875 C 0.03125 4.882812 0.726562 5.640625 2.15625 6 L 2.84375 6.1875 L 2.84375 9.875 C 1.957031 9.796875 1.125 9.601562 0.34375 9.21875 L 0 10.125 C 0.316406 10.320312 0.75 10.503906 1.28125 10.65625 C 1.746094 10.785156 2.269531 10.84375 2.84375 10.875 L 2.84375 12 L 3.84375 12 L 3.84375 10.875 C 4.695312 10.804688 5.378906 10.546875 5.875 10.09375 C 6.410156 9.609375 6.6875 8.910156 6.6875 8 C 6.6875 7.261719 6.488281 6.710938 6.09375 6.3125 C 5.699219 5.910156 5.105469 5.621094 4.34375 5.4375 L 3.84375 5.3125 L 3.84375 2.0625 C 4.230469 2.089844 4.628906 2.144531 5 2.25 C 5.421875 2.363281 5.742188 2.511719 6 2.65625 L 6.3125 1.75 C 5.671875 1.351562 4.851562 1.113281 3.84375 1.0625 L 3.84375 0 Z M 2.625 2.09375 C 2.691406 2.082031 2.773438 2.101562 2.84375 2.09375 L 2.84375 5.0625 L 2.5625 5 C 2.09375 4.886719 1.738281 4.714844 1.5 4.5 C 1.265625 4.28125 1.15625 3.984375 1.15625 3.625 C 1.15625 2.769531 1.640625 2.257812 2.625 2.09375 Z M 3.84375 6.40625 L 4.03125 6.46875 C 4.609375 6.613281 5.003906 6.808594 5.21875 7.0625 C 5.4375 7.3125 5.53125 7.65625 5.53125 8.0625 C 5.53125 9.195312 4.96875 9.796875 3.84375 9.90625 Z M 3.84375 6.40625 "/>
</g>
</svg>
