<?xml version="1.0" encoding="UTF-8"?>
<svg xmlns="http://www.w3.org/2000/svg" xmlns:xlink="http://www.w3.org/1999/xlink" width="12pt" height="12.005848pt" viewBox="0 0 12 12.005848" version="1.1">
<g id="surface1">
<path style=" stroke:none;fill-rule:nonzero;fill:rgb(30.196078%,30.196078%,30.196078%);fill-opacity:1;" d="M 7.15625 0 L 0 7.125 L 0 10 C 1.074219 10.019531 2.84375 10 2.84375 10 L 10 2.84375 Z M 6.4375 2.15625 L 7.84375 3.5625 L 5 6.4375 L 3.5625 5 Z M 2.84375 5.71875 L 4.28125 7.125 L 3.5625 7.84375 L 2.15625 6.4375 Z M 10.125 7 C 9.929688 7 9.394531 7.046875 8.5625 7.5625 C 8.300781 7.722656 8.109375 7.90625 7.8125 8.125 C 7.652344 8.242188 7.085938 8.621094 6.875 8.75 C 6.253906 9.132812 6.035156 9.230469 5.5 9.5 C 4.984375 9.761719 4.441406 10 4.0625 10.1875 C 2.46875 10.980469 0 11 0 11 L 0 12 C 0 12 2.496094 12.03125 4.3125 11.125 C 4.554688 11.003906 4.980469 10.808594 5.375 10.625 C 5.375 10.625 6.496094 10.03125 6.5 10.03125 C 6.695312 9.921875 6.859375 9.839844 7.15625 9.65625 C 7.382812 9.515625 7.929688 9.164062 8.15625 9 C 8.488281 8.757812 8.699219 8.578125 8.875 8.46875 C 9.261719 8.167969 9.695312 7.988281 10.125 8 C 10.089844 8 10.253906 8.011719 10.40625 8.09375 C 10.558594 8.179688 10.71875 8.328125 10.84375 8.46875 C 11.089844 8.800781 11.199219 9.054688 11.25 9.5 C 11.214844 10.808594 9.96875 11.003906 9 11 L 9 12 C 10.980469 12.089844 12 11.164062 12 9.46875 C 11.996094 9.179688 11.949219 8.945312 11.84375 8.625 C 11.738281 8.304688 11.578125 7.949219 11.34375 7.6875 C 10.980469 7.265625 10.800781 7.078125 10.125 7 Z M 10.125 7 "/>
</g>
</svg>
