<?xml version="1.0" encoding="UTF-8"?>
<svg xmlns="http://www.w3.org/2000/svg" xmlns:xlink="http://www.w3.org/1999/xlink" width="12pt" height="12pt" viewBox="0 0 12 12" version="1.1">
<g id="surface1">
<path style=" stroke:none;fill-rule:nonzero;fill:rgb(30.196078%,30.196078%,30.196078%);fill-opacity:1;" d="M 0 0 L 0 12 L 12 12 L 12 0 Z M 3 3 L 6 3 L 6 5 L 3 5 Z M 7 3 L 11 3 L 11 5 L 7 5 Z M 3 6 L 6 6 L 6 8 L 3 8 Z M 7 6 L 11 6 L 11 8 L 7 8 Z M 3 9 L 6 9 L 6 11 L 3 11 Z M 7 9 L 11 9 L 11 11 L 7 11 Z M 7 9 "/>
</g>
</svg>
