<?xml version="1.0" encoding="UTF-8"?>
<svg xmlns="http://www.w3.org/2000/svg" xmlns:xlink="http://www.w3.org/1999/xlink" width="12pt" height="13.144531pt" viewBox="0 0 12 13.144531" version="1.1">
<g id="surface1">
<path style=" stroke:none;fill-rule:nonzero;fill:rgb(70.196078%,70.196078%,70.196078%);fill-opacity:1;" d="M 10.03125 0 L 9.257812 0.628906 C 10.394531 2.402344 11 4.464844 11 6.570312 C 10.996094 8.675781 10.386719 10.734375 9.25 12.503906 L 10.03125 13.144531 C 11.316406 11.191406 12 8.90625 12 6.570312 C 11.996094 4.234375 11.3125 1.953125 10.03125 0 Z M 10.03125 0 "/>
<path style=" stroke:none;fill-rule:nonzero;fill:rgb(30.196078%,30.196078%,30.196078%);fill-opacity:1;" d="M 6 0.144531 L 1 4.144531 L 0 4.144531 L 0 8.144531 L 1 8.144531 L 6 12.144531 L 7 12.144531 L 7 0.144531 Z M 6 1.425781 L 6 10.863281 L 2 7.675781 L 2 4.613281 Z M 8.6875 1.832031 L 7.90625 2.46875 C 8.621094 3.691406 8.996094 5.074219 9 6.484375 C 8.996094 7.898438 8.621094 9.285156 7.910156 10.503906 L 8.691406 11.144531 C 9.542969 9.742188 9.996094 8.128906 10 6.484375 C 9.996094 4.84375 9.542969 3.234375 8.6875 1.832031 Z M 8.6875 1.832031 "/>
</g>
</svg>
