<?xml version="1.0" encoding="UTF-8"?>
<svg xmlns="http://www.w3.org/2000/svg" xmlns:xlink="http://www.w3.org/1999/xlink" width="12pt" height="12pt" viewBox="0 0 12 12" version="1.1">
<g id="surface1">
<path style=" stroke:none;fill-rule:nonzero;fill:rgb(30.196078%,30.196078%,30.196078%);fill-opacity:1;" d="M 0 0 L 0 12 L 12 12 L 12 0 Z M 1 1 L 11 1 L 11 11 L 1 11 Z M 4 4 L 2 6 L 4 8 L 4 7 L 7 7 L 7 5 L 4 5 Z M 4 4 "/>
<path style=" stroke:none;fill-rule:nonzero;fill:rgb(11.372549%,60%,95.294118%);fill-opacity:1;" d="M 8 4 C 6.894531 4 6 4.894531 6 6 C 6 7.105469 6.894531 8 8 8 C 9.105469 8 10 7.105469 10 6 C 10 4.894531 9.105469 4 8 4 Z M 8 5 C 8.550781 5 9 5.449219 9 6 C 9 6.550781 8.550781 7 8 7 C 7.449219 7 7 6.550781 7 6 C 7 5.449219 7.449219 5 8 5 Z M 8 5 "/>
</g>
</svg>
