<?xml version="1.0" encoding="UTF-8"?>
<svg xmlns="http://www.w3.org/2000/svg" xmlns:xlink="http://www.w3.org/1999/xlink" width="12pt" height="12pt" viewBox="0 0 12 12" version="1.1">
<g id="surface1">
<path style=" stroke:none;fill-rule:nonzero;fill:rgb(95.686275%,46.666667%,31.372549%);fill-opacity:1;" d="M 10 0 L 10 2 L 12 2 L 12 0 Z M 2 2 L 2 4 L 4 4 L 4 2 Z M 6 4 L 6 6 L 8 6 L 8 4 Z M 2 6 L 2 8 L 4 8 L 4 6 Z M 2 8 L 0 8 L 0 10 L 2 10 Z M 5 10 C 4.449219 10 4 10.449219 4 11 C 4 11.550781 4.449219 12 5 12 C 5.550781 12 6 11.550781 6 11 C 6 10.449219 5.550781 10 5 10 Z M 8 10 C 7.449219 10 7 10.449219 7 11 C 7 11.550781 7.449219 12 8 12 C 8.550781 12 9 11.550781 9 11 C 9 10.449219 8.550781 10 8 10 Z M 11 10 C 10.449219 10 10 10.449219 10 11 C 10 11.550781 10.449219 12 11 12 C 11.550781 12 12 11.550781 12 11 C 12 10.449219 11.550781 10 11 10 Z M 11 10 "/>
<path style=" stroke:none;fill-rule:nonzero;fill:rgb(18.039216%,80%,44.313725%);fill-opacity:1;" d="M 8 0 L 8 2 L 10 2 L 10 0 Z M 10 2 L 10 4 L 12 4 L 12 2 Z M 10 4 L 8 4 L 8 6 L 10 6 Z M 4 2 L 4 4 L 6 4 L 6 2 Z M 0 6 L 0 8 L 2 8 L 2 6 Z M 8 8 L 8 10 L 10 10 L 10 8 Z M 8 8 "/>
<path style=" stroke:none;fill-rule:nonzero;fill:rgb(99.215686%,73.72549%,29.411765%);fill-opacity:1;" d="M 0 0 L 0 2 L 2 2 L 2 0 Z M 6 0 L 6 2 L 8 2 L 8 0 Z M 8 2 L 8 4 L 10 4 L 10 2 Z M 4 4 L 4 6 L 6 6 L 6 4 Z M 8 6 L 8 8 L 10 8 L 10 6 Z M 8 8 L 6 8 L 6 10 L 8 10 Z M 2 10 L 2 12 L 4 12 L 4 10 Z M 2 10 "/>
<path style=" stroke:none;fill-rule:nonzero;fill:rgb(11.372549%,60%,95.294118%);fill-opacity:1;" d="M 4 0 L 4 2 L 6 2 L 6 0 Z M 0 2 L 0 4 L 2 4 L 2 2 Z M 2 4 L 2 6 L 4 6 L 4 4 Z M 6 6 L 6 8 L 8 8 L 8 6 Z M 6 8 L 4 8 L 4 10 L 6 10 Z M 10 6 L 10 8 L 12 8 L 12 6 Z M 0 10 L 0 12 L 2 12 L 2 10 Z M 0 10 "/>
<path style=" stroke:none;fill-rule:nonzero;fill:rgb(85.490196%,26.666667%,32.54902%);fill-opacity:1;" d="M 2 0 L 2 2 L 4 2 L 4 0 Z M 6 2 L 6 4 L 8 4 L 8 2 Z M 0 4 L 0 6 L 2 6 L 2 4 Z M 10 4 L 10 6 L 12 6 L 12 4 Z M 4 6 L 4 8 L 6 8 L 6 6 Z M 4 8 L 2 8 L 2 10 L 4 10 Z M 10 8 L 10 10 L 12 10 L 12 8 Z M 10 8 "/>
</g>
</svg>
