<?xml version="1.0" encoding="UTF-8"?>
<svg xmlns="http://www.w3.org/2000/svg" xmlns:xlink="http://www.w3.org/1999/xlink" width="12pt" height="12pt" viewBox="0 0 12 12" version="1.1">
<g id="surface1">
<path style=" stroke:none;fill-rule:nonzero;fill:rgb(30.196078%,30.196078%,30.196078%);fill-opacity:1;" d="M 0 0 L 0 12 L 12 12 L 12 0 Z M 1 1 L 11 1 L 11 11 L 1 11 Z M 6 2 L 4 4 L 5 4 L 5 7 L 7 7 L 7 4 L 8 4 Z M 6 2 "/>
<path style=" stroke:none;fill-rule:nonzero;fill:rgb(11.372549%,60%,95.294118%);fill-opacity:1;" d="M 6 6 C 4.894531 6 4 6.894531 4 8 C 4 9.105469 4.894531 10 6 10 C 7.105469 10 8 9.105469 8 8 C 8 6.894531 7.105469 6 6 6 Z M 6 7 C 6.550781 7 7 7.449219 7 8 C 7 8.550781 6.550781 9 6 9 C 5.449219 9 5 8.550781 5 8 C 5 7.449219 5.449219 7 6 7 Z M 6 7 "/>
</g>
</svg>
