<?xml version="1.0" encoding="UTF-8"?>
<svg xmlns="http://www.w3.org/2000/svg" xmlns:xlink="http://www.w3.org/1999/xlink" width="8pt" height="12.00003pt" viewBox="0 0 8 12.00003" version="1.1">
<defs>
<linearGradient id="linear0" gradientUnits="userSpaceOnUse" x1="3" y1="1049.3622" x2="19" y2="1033.3622" gradientTransform="matrix(0.6,0,0,0.5625,-1.8,-578.26623)">
<stop offset="0" style="stop-color:rgb(11.372549%,60%,95.294118%);stop-opacity:1;"/>
<stop offset="0.416667" style="stop-color:rgb(28.235294%,67.45098%,96.078431%);stop-opacity:0.760784;"/>
<stop offset="0.666663" style="stop-color:rgb(45.098039%,75.294118%,96.862745%);stop-opacity:0;"/>
<stop offset="1" style="stop-color:rgb(79.215686%,90.588235%,98.823529%);stop-opacity:0;"/>
</linearGradient>
</defs>
<g id="surface1">
<path style=" stroke:none;fill-rule:nonzero;fill:rgb(70.196078%,70.196078%,70.196078%);fill-opacity:1;" d="M 4 0 C 3.222656 2.554688 1.644531 4.8125 0.640625 6.515625 C 0.347656 7.039062 0 7.617188 0 8.25 C 0 10.328125 1.785156 12 4 12 C 6.214844 12 8 10.328125 8 8.25 C 8 7.617188 7.652344 7.125 7.359375 6.605469 C 6.242188 4.878906 4.777344 2.554688 4 0 Z M 4 0 "/>
<path style=" stroke:none;fill-rule:nonzero;fill:rgb(46.666667%,46.666667%,46.666667%);fill-opacity:1;" d="M 4 0 C 3.761719 0.785156 3.765625 1.28125 3.375 2 L 4 2 Z M 4 2 L 4 5 L 6 5 C 5.4375 4.089844 5.214844 3.085938 4.625 2 Z M 4 5 L 2 5 C 1.867188 5.214844 1.085938 5.792969 0.96875 6 L 0 8 L 4 8 Z M 4 8 L 4 11 L 6 11 C 6.304688 10.785156 6.960938 10.785156 7.1875 10.5 L 8 8 Z M 4 11 L 2.46875 11 L 2.46875 11.4375 L 4 11.4375 Z M 4 11 "/>
<path style=" stroke:none;fill-rule:nonzero;fill:url(#linear0);" d="M 4 0 C 3.222656 2.554688 1.613281 4.691406 0.5 6.539062 C 0.203125 7.058594 0.179688 7.617188 0.179688 8.25 C 0.179688 10.328125 1.761719 11.792969 3.976562 11.792969 C 6.195312 11.792969 7.855469 10.328125 7.855469 8.25 C 7.855469 7.617188 7.566406 7.191406 7.269531 6.671875 C 6.367188 4.933594 4.777344 2.554688 4 0 Z M 4 0 "/>
<path style=" stroke:none;fill-rule:nonzero;fill:rgb(30.196078%,30.196078%,30.196078%);fill-opacity:1;" d="M 4 0 C 2.929688 3.816406 0 6.078125 0 8.1875 C 0 10.296875 1.789062 12 4 12 C 6.210938 12 8 10.296875 8 8.1875 C 8 6.078125 5.070312 3.816406 4 0 Z M 3.96875 1.4375 C 4.832031 4.574219 7.1875 6.421875 7.1875 8.15625 C 7.1875 9.890625 5.746094 11.28125 3.96875 11.28125 C 2.191406 11.28125 0.78125 9.890625 0.78125 8.15625 C 0.78125 6.421875 3.105469 4.574219 3.96875 1.4375 Z M 3.96875 1.4375 "/>
</g>
</svg>
