<?xml version="1.0" encoding="UTF-8"?>
<svg xmlns="http://www.w3.org/2000/svg" xmlns:xlink="http://www.w3.org/1999/xlink" width="11pt" height="12pt" viewBox="0 0 11 12" version="1.1">
<g id="surface1">
<path style=" stroke:none;fill-rule:nonzero;fill:rgb(30.196078%,30.196078%,30.196078%);fill-opacity:1;" d="M 4 0 C 2.929688 3.816406 0 6.074219 0 8.183594 C 0 10.289062 1.789062 12 4 12 C 6.210938 12 8 10.289062 8 8.183594 C 8 6.074219 5.070312 3.816406 4 0 Z M 6.75 6.234375 C 7.1875 6.796875 7.425781 7.480469 7.425781 8.183594 C 7.429688 9.988281 5.894531 11.453125 4 11.453125 C 3.265625 11.453125 2.550781 11.226562 1.960938 10.808594 C 2.257812 10.875 2.554688 10.90625 2.859375 10.90625 C 5.066406 10.910156 6.855469 9.199219 6.859375 7.09375 C 6.855469 6.800781 6.820312 6.515625 6.75 6.234375 Z M 6.75 6.234375 "/>
<path style=" stroke:none;fill-rule:nonzero;fill:rgb(95.686275%,46.666667%,31.372549%);fill-opacity:1;" d="M 10 0 C 9.449219 0 9 0.449219 9 1 C 9 1.550781 9.449219 2 10 2 C 10.550781 2 11 1.550781 11 1 C 11 0.449219 10.550781 0 10 0 Z M 10 3 C 9.449219 3 9 3.449219 9 4 C 9 4.550781 9.449219 5 10 5 C 10.550781 5 11 4.550781 11 4 C 11 3.449219 10.550781 3 10 3 Z M 10 6 C 9.449219 6 9 6.449219 9 7 C 9 7.550781 9.449219 8 10 8 C 10.550781 8 11 7.550781 11 7 C 11 6.449219 10.550781 6 10 6 Z M 10 6 "/>
</g>
</svg>
