<?xml version="1.0" encoding="UTF-8"?>
<svg xmlns="http://www.w3.org/2000/svg" xmlns:xlink="http://www.w3.org/1999/xlink" width="12pt" height="11pt" viewBox="0 0 12 11" version="1.1">
<g id="surface1">
<path style=" stroke:none;fill-rule:nonzero;fill:rgb(30.196078%,30.196078%,30.196078%);fill-opacity:1;" d="M 0 0 L 0 1 L 1 1 L 1 0 Z M 4 0 L 4 1 L 5 1 L 5 0 Z M 7 0 L 7 1 L 8 1 L 8 0 Z M 11 0 L 11 1 L 12 1 L 12 0 Z M 0 2 L 0 3 L 1 3 L 1 2 Z M 4 2 L 4 3 L 5 3 L 5 2 Z M 7 2 L 7 3 L 8 3 L 8 2 Z M 11 2 L 11 3 L 12 3 L 12 2 Z M 0 4 L 0 5 L 1 5 L 1 4 Z M 4 4 L 4 5 L 5 5 L 5 4 Z M 7 4 L 7 5 L 8 5 L 8 4 Z M 11 4 L 11 5 L 12 5 L 12 4 Z M 0 6 L 0 7 L 1 7 L 1 6 Z M 4 6 L 4 7 L 5 7 L 5 6 Z M 7 6 L 7 7 L 8 7 L 8 6 Z M 11 6 L 11 7 L 12 7 L 12 6 Z M 0 8 L 0 9 L 1 9 L 1 8 Z M 4 8 L 4 9 L 5 9 L 5 8 Z M 7 8 L 7 9 L 8 9 L 8 8 Z M 11 8 L 11 9 L 12 9 L 12 8 Z M 0 10 L 0 11 L 1 11 L 1 10 Z M 4 10 L 4 11 L 5 11 L 5 10 Z M 7 10 L 7 11 L 8 11 L 8 10 Z M 11 10 L 11 11 L 12 11 L 12 10 Z M 11 10 "/>
</g>
</svg>
