<?xml version="1.0" encoding="UTF-8"?>
<svg xmlns="http://www.w3.org/2000/svg" xmlns:xlink="http://www.w3.org/1999/xlink" width="12pt" height="12pt" viewBox="0 0 12 12" version="1.1">
<g id="surface1">
<path style=" stroke:none;fill-rule:nonzero;fill:rgb(30.196078%,30.196078%,30.196078%);fill-opacity:1;" d="M 5.5 0 L 5.5 1 L 6.5 1 L 6.5 0 Z M 2.125 1.4375 C 1.878906 1.648438 1.648438 1.878906 1.4375 2.125 L 2.15625 2.84375 C 2.359375 2.597656 2.597656 2.359375 2.84375 2.15625 Z M 9.875 1.4375 L 9.15625 2.15625 C 9.402344 2.359375 9.640625 2.597656 9.84375 2.84375 L 10.5625 2.125 C 10.351562 1.878906 10.121094 1.648438 9.875 1.4375 Z M 6 2 C 3.789062 2 2 3.789062 2 6 C 2 8.210938 3.789062 10 6 10 C 8.210938 10 10 8.210938 10 6 C 10 3.789062 8.210938 2 6 2 Z M 6 3 L 6 9 C 4.34375 9 3 7.65625 3 6 C 3 4.34375 4.34375 3 6 3 Z M 0 5.5 L 0 6.5 L 1 6.5 L 1 5.5 Z M 11 5.5 L 11 6.5 L 12 6.5 L 12 5.5 Z M 2.15625 9.15625 L 1.4375 9.875 C 1.648438 10.121094 1.878906 10.351562 2.125 10.5625 L 2.84375 9.84375 C 2.597656 9.640625 2.359375 9.402344 2.15625 9.15625 Z M 9.84375 9.15625 C 9.640625 9.402344 9.402344 9.640625 9.15625 9.84375 L 9.875 10.5625 C 10.121094 10.351562 10.351562 10.121094 10.5625 9.875 Z M 5.5 11 L 5.5 12 L 6.5 12 L 6.5 11 Z M 5.5 11 "/>
</g>
</svg>
