<?xml version="1.0" encoding="UTF-8"?>
<svg xmlns="http://www.w3.org/2000/svg" xmlns:xlink="http://www.w3.org/1999/xlink" width="12pt" height="12pt" viewBox="0 0 12 12" version="1.1">
<g id="surface1">
<path style=" stroke:none;fill-rule:nonzero;fill:rgb(30.196078%,30.196078%,30.196078%);fill-opacity:1;" d="M 0 0 L 0 12 L 12 12 L 12 0 Z M 1 1 L 11 1 L 11 11 L 1 11 Z M 5 5 L 5 8 L 4 8 L 6 10 L 8 8 L 7 8 L 7 5 Z M 5 5 "/>
<path style=" stroke:none;fill-rule:nonzero;fill:rgb(11.372549%,60%,95.294118%);fill-opacity:1;" d="M 6 2 C 4.894531 2 4 2.894531 4 4 C 4 5.105469 4.894531 6 6 6 C 7.105469 6 8 5.105469 8 4 C 8 2.894531 7.105469 2 6 2 Z M 6 3 C 6.550781 3 7 3.449219 7 4 C 7 4.550781 6.550781 5 6 5 C 5.449219 5 5 4.550781 5 4 C 5 3.449219 5.449219 3 6 3 Z M 6 3 "/>
</g>
</svg>
