<?xml version="1.0" encoding="UTF-8"?>
<svg xmlns="http://www.w3.org/2000/svg" xmlns:xlink="http://www.w3.org/1999/xlink" width="12pt" height="12pt" viewBox="0 0 12 12" version="1.1">
<g id="surface1">
<path style=" stroke:none;fill-rule:nonzero;fill:rgb(30.196078%,30.196078%,30.196078%);fill-opacity:1;" d="M 0 0 L 0 12 L 12 12 L 12 0 Z M 1 1 L 11 1 L 11 7 L 9 5 L 5.65625 8.34375 L 4.3125 7 L 4.28125 7 L 1 10.28125 Z M 4 2 C 2.894531 2 2 2.894531 2 4 C 2 5.105469 2.894531 6 4 6 C 5.105469 6 6 5.105469 6 4 C 6 2.894531 5.105469 2 4 2 Z M 4 2 "/>
<path style=" stroke:none;fill-rule:nonzero;fill:rgb(95.686275%,46.666667%,31.372549%);fill-opacity:1;" d="M 5 10 C 4.449219 10 4 10.449219 4 11 C 4 11.550781 4.449219 12 5 12 C 5.550781 12 6 11.550781 6 11 C 6 10.449219 5.550781 10 5 10 Z M 8 10 C 7.449219 10 7 10.449219 7 11 C 7 11.550781 7.449219 12 8 12 C 8.550781 12 9 11.550781 9 11 C 9 10.449219 8.550781 10 8 10 Z M 11 10 C 10.449219 10 10 10.449219 10 11 C 10 11.550781 10.449219 12 11 12 C 11.550781 12 12 11.550781 12 11 C 12 10.449219 11.550781 10 11 10 Z M 11 10 "/>
</g>
</svg>
