<?xml version="1.0" encoding="UTF-8"?>
<svg xmlns="http://www.w3.org/2000/svg" xmlns:xlink="http://www.w3.org/1999/xlink" width="12pt" height="12pt" viewBox="0 0 12 12" version="1.1">
<g id="surface1">
<path style=" stroke:none;fill-rule:nonzero;fill:rgb(30.196078%,30.196078%,30.196078%);fill-opacity:1;" d="M 0 0 L 0 12 L 12 12 L 12 0 Z M 1 1 L 11 1 L 11 11 L 1 11 Z M 8 4 L 8 5 L 5 5 L 5 7 L 8 7 L 8 8 L 10 6 Z M 8 4 "/>
<path style=" stroke:none;fill-rule:nonzero;fill:rgb(11.372549%,60%,95.294118%);fill-opacity:1;" d="M 4 4 C 2.894531 4 2 4.894531 2 6 C 2 7.105469 2.894531 8 4 8 C 5.105469 8 6 7.105469 6 6 C 6 4.894531 5.105469 4 4 4 Z M 4 5 C 4.550781 5 5 5.449219 5 6 C 5 6.550781 4.550781 7 4 7 C 3.449219 7 3 6.550781 3 6 C 3 5.449219 3.449219 5 4 5 Z M 4 5 "/>
</g>
</svg>
