<?xml version="1.0" encoding="UTF-8"?>
<svg xmlns="http://www.w3.org/2000/svg" xmlns:xlink="http://www.w3.org/1999/xlink" width="12pt" height="12pt" viewBox="0 0 12 12" version="1.1">
<g id="surface1">
<path style=" stroke:none;fill-rule:nonzero;fill:rgb(30.196078%,30.196078%,30.196078%);fill-opacity:1;" d="M 0 0 L 0 12 L 12 12 L 12 0 Z M 1 1 L 11 1 L 11 11 L 1 11 Z M 4 2 C 2.894531 2 2 2.894531 2 4 C 2 5.105469 2.894531 6 4 6 C 5.105469 6 6 5.105469 6 4 C 6 2.894531 5.105469 2 4 2 Z M 7 2 L 7 6 L 10 6 L 10 2 Z M 3 7 L 3 10 L 5 10 L 5 7 Z M 8.5 7 L 7 10 L 10 10 Z M 8.5 7 "/>
</g>
</svg>
