<?xml version="1.0" encoding="UTF-8"?>
<svg xmlns="http://www.w3.org/2000/svg" xmlns:xlink="http://www.w3.org/1999/xlink" width="11pt" height="13pt" viewBox="0 0 11 13" version="1.1">
<g id="surface1">
<path style=" stroke:none;fill-rule:nonzero;fill:rgb(11.372549%,60%,95.294118%);fill-opacity:1;" d="M 0 0 L 0 13 L 4 13 L 4 12 L 1 12 L 1 1 L 9 1 L 9 6 L 10 6 L 10 0 Z M 2 2 L 2 6 L 8 6 L 8 2 Z M 3 3 L 7 3 L 7 5 L 3 5 Z M 2 7 L 2 11 L 4 11 L 4 10 L 3 10 L 3 8 L 7 8 L 7 7 Z M 9 7 L 5 11 L 5 13 L 7 13 L 11 9 Z M 8.6875 8.6875 L 9.28125 9.28125 C 8.246094 10.304688 7.191406 11.398438 6.3125 12.28125 L 5.71875 11.6875 C 6.703125 10.679688 7.691406 9.683594 8.6875 8.6875 Z M 8.6875 8.6875 "/>
</g>
</svg>
