<?xml version="1.0" encoding="UTF-8"?>
<svg xmlns="http://www.w3.org/2000/svg" xmlns:xlink="http://www.w3.org/1999/xlink" width="13pt" height="12pt" viewBox="0 0 13 12" version="1.1">
<g id="surface1">
<path style=" stroke:none;fill-rule:nonzero;fill:rgb(30.196078%,30.196078%,30.196078%);fill-opacity:1;" d="M 0 0 L 0 12 L 2 12 L 2 7 L 6 7 L 6 12 L 8 12 L 8 0 L 6 0 L 6 5 L 2 5 L 2 0 Z M 0 0 "/>
<path style=" stroke:none;fill-rule:nonzero;fill:rgb(11.372549%,60%,95.294118%);fill-opacity:1;" d="M 10.890625 6 C 10.164062 6 9.535156 6.191406 9.007812 6.574219 L 9.574219 7.425781 C 9.8125 7.269531 10.03125 7.15625 10.222656 7.09375 C 10.421875 7.03125 10.617188 7 10.808594 7 C 11.355469 7 11.628906 7.21875 11.628906 7.660156 C 11.628906 7.949219 11.523438 8.152344 11.316406 8.269531 C 11.109375 8.386719 10.785156 8.449219 10.335938 8.449219 L 9.890625 8.449219 L 9.890625 9.390625 L 10.328125 9.390625 C 10.8125 9.390625 11.164062 9.449219 11.386719 9.5625 C 11.609375 9.679688 11.71875 9.875 11.71875 10.148438 C 11.71875 10.453125 11.625 10.675781 11.433594 10.8125 C 11.238281 10.953125 10.941406 11.019531 10.535156 11.019531 C 10.273438 11.019531 10.007812 10.984375 9.738281 10.914062 C 9.46875 10.84375 9.222656 10.75 9 10.636719 L 9 11.6875 C 9.484375 11.894531 10.039062 12 10.667969 12 C 11.417969 12 11.992188 11.84375 12.394531 11.53125 C 12.796875 11.21875 13 10.78125 13 10.21875 C 13 9.832031 12.878906 9.527344 12.640625 9.300781 C 12.402344 9.070312 12.046875 8.929688 11.578125 8.871094 L 11.578125 8.84375 C 11.976562 8.75 12.285156 8.574219 12.5 8.320312 C 12.71875 8.066406 12.828125 7.753906 12.828125 7.390625 C 12.828125 6.953125 12.65625 6.613281 12.308594 6.367188 C 11.964844 6.121094 11.492188 6 10.890625 6 Z M 10.890625 6 "/>
</g>
</svg>
