<?xml version="1.0" encoding="UTF-8"?>
<svg xmlns="http://www.w3.org/2000/svg" xmlns:xlink="http://www.w3.org/1999/xlink" width="12pt" height="12pt" viewBox="0 0 12 12" version="1.1">
<g id="surface1">
<path style=" stroke:none;fill-rule:nonzero;fill:rgb(30.196078%,30.196078%,30.196078%);fill-opacity:1;" d="M 4 0 L 4 1 L 5 1 L 5 0 Z M 7 0 L 7 1 L 8 1 L 8 0 Z M 4 2 L 4 3 L 5 3 L 5 2 Z M 7 2 L 7 3 L 8 3 L 8 2 Z M 0 4 L 0 5 L 1 5 L 1 4 Z M 2 4 L 2 5 L 3 5 L 3 4 Z M 4 4 L 4 8 L 8 8 L 8 4 Z M 9 4 L 9 5 L 10 5 L 10 4 Z M 11 4 L 11 5 L 12 5 L 12 4 Z M 0 7 L 0 8 L 1 8 L 1 7 Z M 2 7 L 2 8 L 3 8 L 3 7 Z M 9 7 L 9 8 L 10 8 L 10 7 Z M 11 7 L 11 8 L 12 8 L 12 7 Z M 4 9 L 4 10 L 5 10 L 5 9 Z M 7 9 L 7 10 L 8 10 L 8 9 Z M 4 11 L 4 12 L 5 12 L 5 11 Z M 7 11 L 7 12 L 8 12 L 8 11 Z M 7 11 "/>
</g>
</svg>
