<?xml version="1.0" encoding="UTF-8"?>
<svg xmlns="http://www.w3.org/2000/svg" xmlns:xlink="http://www.w3.org/1999/xlink" width="12pt" height="10pt" viewBox="0 0 12 10" version="1.1">
<defs>
<linearGradient id="linear0" gradientUnits="userSpaceOnUse" x1="3" y1="1045.3622" x2="15" y2="1045.3622" gradientTransform="matrix(0.75,0,0,0.833337,-2.25,-864.472141)">
<stop offset="0" style="stop-color:rgb(70.196078%,70.196078%,70.196078%);stop-opacity:1;"/>
<stop offset="1" style="stop-color:rgb(30.196078%,30.196078%,30.196078%);stop-opacity:1;"/>
</linearGradient>
<filter id="alpha" filterUnits="objectBoundingBox" x="0%" y="0%" width="100%" height="100%">
  <feColorMatrix type="matrix" in="SourceGraphic" values="0 0 0 0 1 0 0 0 0 1 0 0 0 0 1 0 0 0 1 0"/>
</filter>
<mask id="mask0">
  <g filter="url(#alpha)">
<rect x="0" y="0" width="12" height="10" style="fill:rgb(0%,0%,0%);fill-opacity:0.988235;stroke:none;"/>
  </g>
</mask>
<clipPath id="clip1">
  <rect width="17" height="17"/>
</clipPath>
<g id="surface6" clip-path="url(#clip1)">
<path style=" stroke:none;fill-rule:nonzero;fill:rgb(30.196078%,30.196078%,30.196078%);fill-opacity:1;" d="M 9 4 C 5.6875 4 3 5.492188 3 7.335938 C 3 9.175781 5.6875 10.667969 9 10.664062 C 12.3125 10.667969 15 9.175781 15 7.335938 C 15 5.492188 12.3125 4 9 4 Z M 9 4 "/>
</g>
</defs>
<g id="surface1">
<path style=" stroke:none;fill-rule:evenodd;fill:url(#linear0);" d="M 0.0234375 3.671875 C 0.183594 7.195312 2.789062 10 6 10 C 9.210938 10 11.816406 7.195312 11.976562 3.671875 C 11.667969 5.351562 9.105469 6.664062 6 6.664062 C 2.894531 6.664062 0.332031 5.351562 0.0234375 3.671875 Z M 0.0234375 3.671875 "/>
<use xlink:href="#surface6" transform="matrix(1,0,0,1,-3,-4)" mask="url(#mask0)"/>
</g>
</svg>
