<?xml version="1.0" encoding="UTF-8"?>
<svg xmlns="http://www.w3.org/2000/svg" xmlns:xlink="http://www.w3.org/1999/xlink" width="13pt" height="12pt" viewBox="0 0 13 12" version="1.1">
<g id="surface1">
<path style=" stroke:none;fill-rule:nonzero;fill:rgb(30.196078%,30.196078%,30.196078%);fill-opacity:1;" d="M 4.5 0 L 4.5 6 L 7.269531 6 C 8.292969 6 9.113281 5.109375 9.113281 4 C 9.113281 3.1875 8.65625 2.503906 8.019531 2.1875 C 8.117188 1.980469 8.191406 1.75 8.191406 1.5 C 8.191406 0.667969 7.574219 0 6.808594 0 Z M 5.421875 1 L 6.808594 1 C 7.0625 1 7.269531 1.222656 7.269531 1.5 C 7.269531 1.777344 7.0625 2 6.808594 2 L 5.421875 2 Z M 5.421875 3 L 7.269531 3 C 7.78125 3 8.191406 3.445312 8.191406 4 C 8.191406 4.554688 7.78125 5 7.269531 5 L 5.421875 5 Z M 2.5 7 C 1.121094 7 0 8.121094 0 9.5 C 0 10.878906 1.121094 12 2.5 12 L 3.5 12 L 3.5 11 L 2.5 11 C 1.671875 11 1 10.328125 1 9.5 C 1 8.671875 1.671875 8 2.5 8 L 3.5 8 L 3.5 7 Z M 4.5 7 L 4.5 12 L 7 12 C 7.828125 12 8.5 11.328125 8.5 10.5 L 8.5 8.5 C 8.5 7.671875 7.828125 7 7 7 Z M 5.5 8 L 7 8 C 7.277344 8 7.5 8.222656 7.5 8.5 L 7.5 10.5 C 7.5 10.777344 7.277344 11 7 11 L 5.5 11 Z M 5.5 8 "/>
<path style=" stroke:none;fill-rule:nonzero;fill:rgb(11.372549%,60%,95.294118%);fill-opacity:1;" d="M 9.5 2 L 9.5 3 L 13 3 L 13 2 Z M 9.5 2 "/>
</g>
</svg>
