<?xml version="1.0" encoding="UTF-8"?>
<svg xmlns="http://www.w3.org/2000/svg" xmlns:xlink="http://www.w3.org/1999/xlink" width="11pt" height="11pt" viewBox="0 0 11 11" version="1.1">
<g id="surface1">
<path style=" stroke:none;fill-rule:nonzero;fill:rgb(30.196078%,30.196078%,30.196078%);fill-opacity:1;" d="M 2 0 L 2 1 L 3 1 L 3 0 Z M 2 2 L 2 3 L 3 3 L 3 2 Z M 2 4 L 2 5 L 3 5 L 3 4 Z M 2 6 L 2 7 L 3 7 L 3 6 Z M 0 8 L 0 9 L 1 9 L 1 8 Z M 2 8 L 2 9 L 3 9 L 3 8 Z M 4 8 L 4 9 L 5 9 L 5 8 Z M 6 8 L 6 9 L 7 9 L 7 8 Z M 8 8 L 8 9 L 9 9 L 9 8 Z M 10 8 L 10 9 L 11 9 L 11 8 Z M 2 10 L 2 11 L 3 11 L 3 10 Z M 2 10 "/>
</g>
</svg>
