<?xml version="1.0" encoding="UTF-8"?>
<svg xmlns="http://www.w3.org/2000/svg" xmlns:xlink="http://www.w3.org/1999/xlink" width="13pt" height="12pt" viewBox="0 0 13 12" version="1.1">
<g id="surface1">
<path style=" stroke:none;fill-rule:nonzero;fill:rgb(30.196078%,30.196078%,30.196078%);fill-opacity:1;" d="M 0 0 L 0 12 L 2 12 L 2 7 L 6 7 L 6 12 L 8 12 L 8 0 L 6 0 L 6 5 L 2 5 L 2 0 Z M 0 0 "/>
<path style=" stroke:none;fill-rule:nonzero;fill:rgb(11.372549%,60%,95.294118%);fill-opacity:1;" d="M 11.84375 6 C 10.894531 6 10.183594 6.28125 9.707031 6.847656 C 9.234375 7.414062 9 8.277344 9 9.433594 C 9 9.976562 9.085938 10.4375 9.25 10.824219 C 9.421875 11.207031 9.664062 11.5 9.972656 11.699219 C 10.285156 11.898438 10.652344 12 11.070312 12 C 11.675781 12 12.148438 11.816406 12.488281 11.453125 C 12.828125 11.089844 13 10.59375 13 9.96875 C 13 9.390625 12.855469 8.9375 12.570312 8.609375 C 12.285156 8.28125 11.886719 8.117188 11.378906 8.117188 C 10.816406 8.117188 10.40625 8.34375 10.152344 8.796875 L 10.101562 8.796875 C 10.125 8.335938 10.199219 7.980469 10.328125 7.726562 C 10.460938 7.476562 10.652344 7.289062 10.910156 7.160156 C 11.171875 7.03125 11.507812 6.96875 11.917969 6.96875 C 12.144531 6.96875 12.371094 6.996094 12.601562 7.046875 L 12.601562 6.0625 C 12.417969 6.019531 12.164062 6 11.84375 6 Z M 11.070312 9.066406 C 11.328125 9.066406 11.519531 9.148438 11.644531 9.3125 C 11.777344 9.476562 11.84375 9.699219 11.84375 9.984375 C 11.84375 10.316406 11.773438 10.570312 11.636719 10.75 C 11.496094 10.925781 11.300781 11.011719 11.046875 11.011719 C 10.796875 11.011719 10.59375 10.902344 10.429688 10.683594 C 10.269531 10.464844 10.1875 10.195312 10.1875 9.878906 C 10.1875 9.664062 10.273438 9.472656 10.445312 9.3125 C 10.617188 9.148438 10.828125 9.066406 11.070312 9.066406 Z M 11.070312 9.066406 "/>
</g>
</svg>
