<?xml version="1.0" encoding="UTF-8"?>
<svg xmlns="http://www.w3.org/2000/svg" xmlns:xlink="http://www.w3.org/1999/xlink" width="13pt" height="12pt" viewBox="0 0 13 12" version="1.1">
<g id="surface1">
<path style=" stroke:none;fill-rule:nonzero;fill:rgb(30.196078%,30.196078%,30.196078%);fill-opacity:1;" d="M 0 0 L 0 12 L 2 12 L 2 7 L 6 7 L 6 12 L 8 12 L 8 0 L 6 0 L 6 5 L 2 5 L 2 0 Z M 0 0 "/>
<path style=" stroke:none;fill-rule:nonzero;fill:rgb(11.372549%,60%,95.294118%);fill-opacity:1;" d="M 9.34375 6 L 9.121094 9.015625 L 9.625 9.28125 C 9.730469 9.25 9.875 9.21875 10.046875 9.191406 C 10.222656 9.164062 10.382812 9.152344 10.527344 9.152344 C 11.328125 9.152344 11.726562 9.449219 11.726562 10.046875 C 11.726562 10.671875 11.339844 10.984375 10.566406 10.984375 C 10.3125 10.984375 10.039062 10.949219 9.753906 10.878906 C 9.46875 10.804688 9.214844 10.714844 9 10.597656 L 9 11.679688 C 9.410156 11.894531 9.949219 12 10.613281 12 C 11.378906 12 11.96875 11.820312 12.378906 11.464844 C 12.792969 11.109375 13 10.601562 13 9.9375 C 13 9.378906 12.828125 8.941406 12.484375 8.621094 C 12.144531 8.296875 11.683594 8.136719 11.105469 8.136719 C 10.859375 8.136719 10.652344 8.15625 10.484375 8.191406 L 10.34375 8.222656 L 10.453125 7.0625 L 12.589844 7.0625 L 12.589844 6 Z M 9.34375 6 "/>
</g>
</svg>
