<?xml version="1.0" encoding="UTF-8"?>
<svg xmlns="http://www.w3.org/2000/svg" xmlns:xlink="http://www.w3.org/1999/xlink" width="12pt" height="11pt" viewBox="0 0 12 11" version="1.1">
<g id="surface1">
<path style=" stroke:none;fill-rule:nonzero;fill:rgb(30.196078%,30.196078%,30.196078%);fill-opacity:1;" d="M 0 0 L 0 1 L 12 1 L 12 0 Z M 5 2 L 5 3 L 9 3 L 9 2 Z M 5 4 L 5 5 L 12 5 L 12 4 Z M 5 6 L 5 7 L 10.25 7 L 10.25 6 Z M 5 8 L 5 9 L 12 9 L 12 8 Z M 5 10 L 5 11 L 8 11 L 8 10 Z M 5 10 "/>
<path style=" stroke:none;fill-rule:nonzero;fill:rgb(11.372549%,60%,95.294118%);fill-opacity:1;" d="M 0 2 L 0 7 L 3 4.5 Z M 0 2 "/>
</g>
</svg>
