<?xml version="1.0" encoding="UTF-8"?>
<svg xmlns="http://www.w3.org/2000/svg" xmlns:xlink="http://www.w3.org/1999/xlink" width="15.757812pt" height="12pt" viewBox="0 0 15.757812 12" version="1.1">
<g id="surface1">
<path style=" stroke:none;fill-rule:nonzero;fill:rgb(30.196078%,30.196078%,30.196078%);fill-opacity:1;" d="M 13.191406 0 L 1.878906 11.296875 L 2.589844 12 L 13.878906 0.695312 Z M 7.878906 1 C 4.597656 1.003906 1.578125 2.792969 0 5.667969 C 0.128906 6.03125 0.359375 6.34375 0.65625 6.578125 C 1.976562 3.785156 4.789062 2.003906 7.878906 2 C 5.667969 2 3.878906 3.789062 3.878906 6 C 3.878906 6.300781 3.914062 6.601562 3.980469 6.894531 L 4.878906 6 C 4.878906 4.34375 6.21875 3 7.878906 3 L 8.769531 2.109375 C 8.589844 2.066406 8.410156 2.035156 8.226562 2.015625 C 8.417969 2.027344 8.613281 2.046875 8.804688 2.070312 L 9.683594 1.195312 C 9.089844 1.066406 8.484375 1.003906 7.878906 1 Z M 13.710938 3.164062 L 13 3.878906 C 13.882812 4.617188 14.601562 5.535156 15.097656 6.578125 C 15.398438 6.34375 15.628906 6.027344 15.757812 5.65625 C 15.230469 4.710938 14.539062 3.867188 13.710938 3.164062 Z M 11.769531 5.105469 L 10.878906 6 C 10.875 7.65625 9.535156 9 7.878906 9 L 6.984375 9.890625 C 7.277344 9.960938 7.578125 9.996094 7.878906 10 C 10.085938 10 11.875 8.210938 11.878906 6 C 11.875 5.699219 11.839844 5.398438 11.769531 5.105469 Z M 11.769531 5.105469 "/>
</g>
</svg>
