<?xml version="1.0" encoding="UTF-8"?>
<svg xmlns="http://www.w3.org/2000/svg" xmlns:xlink="http://www.w3.org/1999/xlink" width="13pt" height="12pt" viewBox="0 0 13 12" version="1.1">
<g id="surface1">
<path style=" stroke:none;fill-rule:nonzero;fill:rgb(30.196078%,30.196078%,30.196078%);fill-opacity:1;" d="M 0 0 L 0 12 L 2 12 L 2 7 L 6 7 L 6 12 L 8 12 L 8 0 L 6 0 L 6 5 L 2 5 L 2 0 Z M 0 0 "/>
<path style=" stroke:none;fill-rule:nonzero;fill:rgb(11.372549%,60%,95.294118%);fill-opacity:1;" d="M 11.035156 6 C 10.765625 6 10.519531 6.027344 10.300781 6.085938 C 10.085938 6.140625 9.882812 6.21875 9.699219 6.320312 C 9.511719 6.421875 9.28125 6.597656 9 6.84375 L 9.65625 7.648438 C 9.878906 7.457031 10.097656 7.304688 10.308594 7.203125 C 10.515625 7.097656 10.726562 7.042969 10.949219 7.042969 C 11.160156 7.042969 11.328125 7.101562 11.453125 7.21875 C 11.582031 7.335938 11.640625 7.511719 11.640625 7.75 C 11.640625 7.90625 11.613281 8.0625 11.558594 8.207031 C 11.5 8.355469 11.40625 8.519531 11.277344 8.695312 C 11.148438 8.867188 10.871094 9.179688 10.449219 9.628906 L 9.015625 11.128906 L 9.015625 12 L 13 12 L 13 10.949219 L 10.515625 10.949219 L 10.515625 10.890625 L 11.25 10.175781 C 11.738281 9.710938 12.078125 9.355469 12.269531 9.105469 C 12.464844 8.851562 12.609375 8.609375 12.699219 8.371094 C 12.792969 8.132812 12.839844 7.875 12.839844 7.601562 C 12.839844 7.289062 12.765625 7.011719 12.613281 6.769531 C 12.460938 6.527344 12.25 6.339844 11.980469 6.203125 C 11.707031 6.066406 11.390625 6 11.035156 6 Z M 11.035156 6 "/>
</g>
</svg>
