<?xml version="1.0" encoding="UTF-8"?>
<svg xmlns="http://www.w3.org/2000/svg" xmlns:xlink="http://www.w3.org/1999/xlink" width="13.71875pt" height="12pt" viewBox="0 0 13.71875 12" version="1.1">
<g id="surface1">
<path style=" stroke:none;fill-rule:nonzero;fill:rgb(30.196078%,30.196078%,30.196078%);fill-opacity:1;" d="M 0 0 L 0 12 L 2 12 L 2 7 L 6 7 L 6 12 L 8 12 L 8 0 L 6 0 L 6 5 L 2 5 L 2 0 Z M 0 0 "/>
<path style=" stroke:none;fill-rule:nonzero;fill:rgb(11.372549%,60%,95.294118%);fill-opacity:1;" d="M 11.835938 6 L 9 9.875 L 9 10.753906 L 11.988281 10.753906 L 11.988281 12 L 13 12 L 13 10.753906 L 13.71875 10.753906 L 13.71875 9.769531 L 13 9.769531 L 13 6 Z M 12 7.234375 L 11.988281 9.769531 L 10.328125 9.769531 C 10.886719 8.925781 11.433594 8.101562 12 7.234375 Z M 12 7.234375 "/>
</g>
</svg>
