<?xml version="1.0" encoding="UTF-8"?>
<svg xmlns="http://www.w3.org/2000/svg" xmlns:xlink="http://www.w3.org/1999/xlink" width="12pt" height="12pt" viewBox="0 0 12 12" version="1.1">
<g id="surface1">
<path style=" stroke:none;fill-rule:nonzero;fill:rgb(30.196078%,30.196078%,30.196078%);fill-opacity:1;" d="M 0 0 L 0 9 L 4 9 L 4 11 L 3 11 L 3 12 L 9 12 L 9 11 L 8 11 L 8 9 L 12 9 L 12 0 Z M 1 1 L 11 1 L 11 8 L 1 8 Z M 4.585938 2.378906 L 3.878906 3.085938 L 5.292969 4.5 L 3.878906 5.914062 L 4.585938 6.621094 L 6 5.207031 L 7.414062 6.621094 L 8.121094 5.914062 L 6.707031 4.5 L 8.121094 3.085938 L 7.414062 2.378906 L 6 3.792969 Z M 5 9 L 7 9 L 7 11 L 5 11 Z M 5 9 "/>
</g>
</svg>
