<?xml version="1.0" encoding="UTF-8"?>
<svg xmlns="http://www.w3.org/2000/svg" xmlns:xlink="http://www.w3.org/1999/xlink" width="12pt" height="12pt" viewBox="0 0 12 12" version="1.1">
<defs>
<linearGradient id="linear0" gradientUnits="userSpaceOnUse" x1="3" y1="1049.3622" x2="19" y2="1033.3622" gradientTransform="matrix(0.535714,0,0,0.535716,0.107142,-551.874307)">
<stop offset="0" style="stop-color:rgb(11.372549%,60%,95.294118%);stop-opacity:1;"/>
<stop offset="0.416667" style="stop-color:rgb(28.235294%,67.45098%,96.078431%);stop-opacity:0.760784;"/>
<stop offset="0.666663" style="stop-color:rgb(45.098039%,75.294118%,96.862745%);stop-opacity:0;"/>
<stop offset="1" style="stop-color:rgb(79.215686%,90.588235%,98.823529%);stop-opacity:0;"/>
</linearGradient>
</defs>
<g id="surface1">
<path style=" stroke:none;fill-rule:nonzero;fill:rgb(70.196078%,70.196078%,70.196078%);fill-opacity:1;" d="M 2 2 L 10 2 L 10 10 L 2 10 Z M 2 2 "/>
<path style=" stroke:none;fill-rule:nonzero;fill:rgb(46.666667%,46.666667%,46.666667%);fill-opacity:1;" d="M 2 6 L 6 6 L 6 10 L 2 10 Z M 2 6 "/>
<path style=" stroke:none;fill-rule:nonzero;fill:rgb(46.666667%,46.666667%,46.666667%);fill-opacity:1;" d="M 6 2 L 10 2 L 10 6 L 6 6 Z M 6 2 "/>
<path style=" stroke:none;fill-rule:nonzero;fill:url(#linear0);" d="M 9 1 L 8 2 L 2 2 L 2 9 L 1 9 L 1 11 L 3 11 L 4 10 L 10 10 L 10 4 L 11 3 L 11 1 Z M 9 1 "/>
<path style=" stroke:none;fill-rule:nonzero;fill:rgb(60%,60%,60%);fill-opacity:0.760784;" d="M 9 1 L 9 2 L 10 2 L 10 3 L 11 3 L 11 1 Z M 9 1 "/>
<path style=" stroke:none;fill-rule:nonzero;fill:rgb(30.196078%,30.196078%,30.196078%);fill-opacity:1;" d="M 8 0 L 8 3.28125 L 3.28125 8 L 0 8 L 0 12 L 4 12 L 4 8.71875 L 8.71875 4 L 12 4 L 12 0 Z M 9 1 L 11 1 L 11 3 L 9 3 Z M 1 9 L 3 9 L 3 11 L 1 11 Z M 1 9 "/>
</g>
</svg>
