<?xml version="1.0" encoding="UTF-8"?>
<svg xmlns="http://www.w3.org/2000/svg" xmlns:xlink="http://www.w3.org/1999/xlink" width="12pt" height="12pt" viewBox="0 0 12 12" version="1.1">
<g id="surface1">
<path style=" stroke:none;fill-rule:nonzero;fill:rgb(30.196078%,30.196078%,30.196078%);fill-opacity:1;" d="M 1 0 L 1 3 L 11 3 L 11 0 Z M 2 1 L 10 1 L 10 2 L 2 2 Z M 1 6 L 1 12 L 8 12 L 11 9 L 11 6 Z M 2 7 L 10 7 L 10 8 L 7 8 L 7 11 L 2 11 Z M 2 7 "/>
<path style=" stroke:none;fill-rule:nonzero;fill:rgb(11.372549%,60%,95.294118%);fill-opacity:1;" d="M 0 4 L 0 5 L 2 5 L 2 4 Z M 5 4 L 5 5 L 7 5 L 7 4 Z M 10 4 L 10 5 L 12 5 L 12 4 Z M 10 4 "/>
</g>
</svg>
