<?xml version="1.0" encoding="UTF-8"?>
<svg xmlns="http://www.w3.org/2000/svg" xmlns:xlink="http://www.w3.org/1999/xlink" width="11pt" height="12pt" viewBox="0 0 11 12" version="1.1">
<g id="surface1">
<path style=" stroke:none;fill-rule:nonzero;fill:rgb(30.196078%,30.196078%,30.196078%);fill-opacity:1;" d="M 0 0 L 0 1 L 1 1 L 1 3 L 0 3 L 0 4 L 3 4 L 3 3 L 2 3 L 2 1 L 3 1 L 3 0 Z M 5 0 L 5 1 L 11 1 L 11 0 Z M 5 2 L 5 3 L 9 3 L 9 2 Z M 9 11 L 9 12 L 11 12 L 11 11 Z M 9 11 "/>
<path style=" stroke:none;fill-rule:nonzero;fill:rgb(11.372549%,60%,95.294118%);fill-opacity:1;" d="M 5 6 L 5 7 L 11 7 L 11 6 Z M 5 8 L 5 9 L 7 9 L 7 8 Z M 8 8 L 8 9 L 11 9 L 11 8 Z M 8 8 "/>
</g>
</svg>
