<?xml version="1.0" encoding="UTF-8"?>
<svg xmlns="http://www.w3.org/2000/svg" xmlns:xlink="http://www.w3.org/1999/xlink" width="11pt" height="12pt" viewBox="0 0 11 12" version="1.1">
<g id="surface1">
<path style=" stroke:none;fill-rule:nonzero;fill:rgb(30.196078%,30.196078%,30.196078%);fill-opacity:1;" d="M 2 1 L 2 9 L 1 9 L 1 10 L 2 10 L 2 11 L 3 11 L 3 10 L 11 10 L 11 9 L 10 9 L 10 6 L 8 6 L 8 9 L 6 9 L 6 3 L 4 3 L 4 9 L 3 9 L 3 1 Z M 2 1 "/>
<path style=" stroke:none;fill-rule:nonzero;fill:rgb(11.372549%,60%,95.294118%);fill-opacity:1;" d="M 4 0 L 4 1 L 10 1 L 10 0 Z M 0 2 L 0 8 L 1 8 L 1 2 Z M 4 11 L 4 12 L 10 12 L 10 11 Z M 4 11 "/>
</g>
</svg>
