<?xml version="1.0" encoding="UTF-8"?>
<svg xmlns="http://www.w3.org/2000/svg" xmlns:xlink="http://www.w3.org/1999/xlink" width="12pt" height="10.1875pt" viewBox="0 0 12 10.1875" version="1.1">
<g id="surface1">
<path style=" stroke:none;fill-rule:nonzero;fill:rgb(30.196078%,30.196078%,30.196078%);fill-opacity:1;" d="M 5.65625 0 L 5.53125 0.34375 L 2.90625 7.8125 L 1.4375 5.25 L 1.28125 5 L 0 5 L 0 6 L 0.71875 6 L 2.5625 9.25 L 3.09375 10.1875 L 3.46875 9.15625 L 6.34375 1 L 12 1 L 12 0 Z M 9 3 C 7.339844 3 6 4.339844 6 6 C 6 7.660156 7.339844 9 9 9 C 9.773438 9 10.46875 8.695312 11 8.21875 L 11 9 L 12 9 L 12 3 L 11 3 L 11 3.78125 C 10.46875 3.304688 9.773438 3 9 3 Z M 9 4 C 10.109375 4 11 4.890625 11 6 C 11 7.109375 10.109375 8 9 8 C 7.890625 8 7 7.109375 7 6 C 7 4.890625 7.890625 4 9 4 Z M 9 4 "/>
</g>
</svg>
