<?xml version="1.0" encoding="UTF-8"?>
<svg xmlns="http://www.w3.org/2000/svg" xmlns:xlink="http://www.w3.org/1999/xlink" width="12pt" height="12pt" viewBox="0 0 12 12" version="1.1">
<defs>
<linearGradient id="linear0" gradientUnits="userSpaceOnUse" x1="3" y1="1049.3622" x2="19" y2="1033.3622" gradientTransform="matrix(0.428571,0,0,0.428572,0.285714,-439.29853)">
<stop offset="0" style="stop-color:rgb(11.372549%,60%,95.294118%);stop-opacity:1;"/>
<stop offset="1" style="stop-color:rgb(79.215686%,90.588235%,98.823529%);stop-opacity:1;"/>
</linearGradient>
</defs>
<g id="surface1">
<path style=" stroke:none;fill-rule:nonzero;fill:url(#linear0);" d="M 9 1 L 8 2 L 2 2 L 2 8 L 1 9 L 1 11 L 3 11 L 3 10 L 10 10 L 10 4 L 11 4 L 11 1 Z M 9 1 "/>
<path style=" stroke:none;fill-rule:nonzero;fill:rgb(30.196078%,30.196078%,30.196078%);fill-opacity:1;" d="M 8 0 L 8 3.28125 L 3.28125 8 L 0 8 L 0 12 L 4 12 L 4 8.71875 L 8.71875 4 L 12 4 L 12 0 Z M 9 1 L 11 1 L 11 3 L 9 3 Z M 1 9 L 3 9 L 3 11 L 1 11 Z M 1 9 "/>
</g>
</svg>
