<?xml version="1.0" encoding="UTF-8"?>
<svg xmlns="http://www.w3.org/2000/svg" xmlns:xlink="http://www.w3.org/1999/xlink" width="12pt" height="12pt" viewBox="0 0 12 12" version="1.1">
<g id="surface1">
<path style=" stroke:none;fill-rule:nonzero;fill:rgb(30.196078%,30.196078%,30.196078%);fill-opacity:1;" d="M 0 0 L 0 12 L 2 12 L 2 11 L 1 11 L 1 1 L 6 1 L 6 4 L 9 4 L 9 6 L 10 6 L 10 3 L 7 0 Z M 3 7 L 3 12 L 7 12 L 7 10.5 L 6 10.5 L 6 11 L 4 11 L 4 8 L 6 8 L 6 8.5 L 7 8.5 L 7 7 Z M 8 7 L 8 8.5 L 9 8.5 L 9 8 L 11 8 L 11 11 L 9 11 L 9 10.5 L 8 10.5 L 8 12 L 12 12 L 12 7 Z M 5 9 L 5 10 L 10 10 L 10 9 Z M 5 9 "/>
</g>
</svg>
