<?xml version="1.0" encoding="UTF-8"?>
<svg xmlns="http://www.w3.org/2000/svg" xmlns:xlink="http://www.w3.org/1999/xlink" width="12pt" height="12pt" viewBox="0 0 12 12" version="1.1">
<g id="surface1">
<path style=" stroke:none;fill-rule:nonzero;fill:rgb(30.196078%,30.196078%,30.196078%);fill-opacity:1;" d="M 0 0 L 0 7 L 1 7 L 1 5 L 4 5 L 4 7 L 5 7 L 5 5 L 7 5 L 7 7 L 8 7 L 8 5 L 11 5 L 11 7 L 12 7 L 12 0 Z M 1 1 L 4 1 L 4 4 L 1 4 Z M 5 1 L 7 1 L 7 4 L 5 4 Z M 8 1 L 11 1 L 11 4 L 8 4 Z M 8 8 L 10 12 L 12 8 Z M 8 8 "/>
<path style=" stroke:none;fill-rule:nonzero;fill:rgb(11.372549%,60%,95.294118%);fill-opacity:1;" d="M 0 7 L 0 8 L 1.28125 8 L 0 9.28125 L 0 10.71875 L 2.71875 8 L 5.28125 8 L 2.28125 11 L 0 11 L 0 12 L 7 12 L 7 10.28125 L 6.28125 11 L 3.71875 11 L 6.71875 8 L 7 8 L 7 7 Z M 0 7 "/>
</g>
</svg>
