<?xml version="1.0" encoding="UTF-8"?>
<svg xmlns="http://www.w3.org/2000/svg" xmlns:xlink="http://www.w3.org/1999/xlink" width="11pt" height="12pt" viewBox="0 0 11 12" version="1.1">
<g id="surface1">
<path style=" stroke:none;fill-rule:nonzero;fill:rgb(30.196078%,30.196078%,30.196078%);fill-opacity:1;" d="M 1 0 L 1 1 L 0 1 L 0 2 L 1 2 L 1 4 L 0 4 L 0 5 L 1 5 L 1 6 L 2 6 L 2 5 L 4 5 L 4 6 L 5 6 L 5 5 L 6 5 L 6 4 L 5 4 L 5 2 L 6 2 L 6 1 L 5 1 L 5 0 L 4 0 L 4 1 L 2 1 L 2 0 Z M 7 0 L 7 1 L 9 1 L 9 5 L 10 5 L 10 0 Z M 2 2 L 4 2 L 4 4 L 2 4 Z M 6 6 L 6 7 L 5 7 L 5 8 L 6 8 L 6 10 L 5 10 L 5 11 L 6 11 L 6 12 L 7 12 L 7 11 L 9 11 L 9 12 L 10 12 L 10 11 L 11 11 L 11 10 L 10 10 L 10 8 L 11 8 L 11 7 L 10 7 L 10 6 L 9 6 L 9 7 L 7 7 L 7 6 Z M 0 7 L 0 12 L 4 12 L 4 11 L 1 11 L 1 7 Z M 7 8 L 9 8 L 9 10 L 7 10 Z M 7 8 "/>
</g>
</svg>
