<?xml version="1.0" encoding="UTF-8"?>
<svg xmlns="http://www.w3.org/2000/svg" xmlns:xlink="http://www.w3.org/1999/xlink" width="12pt" height="12pt" viewBox="0 0 12 12" version="1.1">
<g id="surface1">
<path style=" stroke:none;fill-rule:nonzero;fill:rgb(30.196078%,30.196078%,30.196078%);fill-opacity:1;" d="M 0 0 L 0 10 L 2 10 L 2 12 L 9 12 L 9 11 L 3 11 L 3 10 L 9 10 L 9 3 L 11 3 L 11 5 L 12 5 L 12 2 L 9 2 L 9 0 Z M 1 1 L 8 1 L 8 9 L 1 9 Z M 2 2 L 2 3 L 7 3 L 7 2 Z M 2 4 L 2 5 L 5 5 L 5 4 Z M 2 4 "/>
<path style=" stroke:none;fill-rule:nonzero;fill:rgb(11.372549%,60%,95.294118%);fill-opacity:1;" d="M 11 6 L 10 8 L 11 8 L 11 12 L 12 12 L 12 6 Z M 2 7 L 2 8 L 6 8 L 6 7 Z M 2 7 "/>
</g>
</svg>
