<?xml version="1.0" encoding="UTF-8"?>
<svg xmlns="http://www.w3.org/2000/svg" xmlns:xlink="http://www.w3.org/1999/xlink" width="12pt" height="5pt" viewBox="0 0 12 5" version="1.1">
<g id="surface1">
<path style=" stroke:none;fill-rule:nonzero;fill:rgb(30.196078%,30.196078%,30.196078%);fill-opacity:1;" d="M 2 0 L 2 2 L 0 2 L 0 3 L 2 3 L 2 5 L 5 5 L 5 4 L 3 4 L 3 1 L 5 1 L 5 0 Z M 7 0 L 7 1 L 9 1 L 9 4 L 7 4 L 7 5 L 10 5 L 10 3 L 12 3 L 12 2 L 10 2 L 10 0 Z M 5 2 L 5 3 L 7 3 L 7 2 Z M 5 2 "/>
</g>
</svg>
