<?xml version="1.0" encoding="UTF-8"?>
<svg xmlns="http://www.w3.org/2000/svg" xmlns:xlink="http://www.w3.org/1999/xlink" width="12pt" height="11pt" viewBox="0 0 12 11" version="1.1">
<g id="surface1">
<path style=" stroke:none;fill-rule:nonzero;fill:rgb(30.196078%,30.196078%,30.196078%);fill-opacity:1;" d="M 0 0 L 0 1 L 12 1 L 12 0 Z M 0 2 L 0 3 L 12 3 L 12 2 Z M 0 10 L 0 11 L 12 11 L 12 10 Z M 0 10 "/>
<path style=" stroke:none;fill-rule:nonzero;fill:rgb(11.372549%,60%,95.294118%);fill-opacity:1;" d="M 0 5 L 0 6 L 5 6 L 5 5 Z M 7 5 L 7 6 L 12 6 L 12 5 Z M 0 7 L 0 8 L 5 8 L 5 7 Z M 7 7 L 7 8 L 12 8 L 12 7 Z M 7 7 "/>
</g>
</svg>
