<?xml version="1.0" encoding="UTF-8"?>
<svg xmlns="http://www.w3.org/2000/svg" xmlns:xlink="http://www.w3.org/1999/xlink" width="11.999208pt" height="12.000256pt" viewBox="0 0 11.999208 12.000256" version="1.1">
<g id="surface1">
<path style=" stroke:none;fill-rule:nonzero;fill:rgb(30.196078%,30.196078%,30.196078%);fill-opacity:1;" d="M 11.425781 0.0078125 C 10.394531 0.121094 8.195312 1.683594 6.050781 3.832031 C 5.015625 4.867188 4.082031 5.949219 3.394531 6.917969 C 4.203125 7.171875 4.832031 7.800781 5.085938 8.609375 C 6.054688 7.921875 7.136719 6.988281 8.171875 5.953125 C 10.808594 3.316406 12.46875 0.703125 11.882812 0.117188 C 11.824219 0.0585938 11.738281 0.0195312 11.636719 0.0078125 C 11.574219 -0.00390625 11.503906 -0.00390625 11.425781 0.0078125 Z M 3 7.996094 L 3 8 C 0 8.804688 2.25 10.703125 0 12 C 3 12 4.5 10.5 4.5 9.5 C 4.5 9 4.550781 8.078125 3 7.996094 Z M 3 7.996094 "/>
</g>
</svg>
