<?xml version="1.0" encoding="UTF-8"?>
<svg xmlns="http://www.w3.org/2000/svg" xmlns:xlink="http://www.w3.org/1999/xlink" width="12pt" height="12pt" viewBox="0 0 12 12" version="1.1">
<g id="surface1">
<path style=" stroke:none;fill-rule:nonzero;fill:rgb(30.196078%,30.196078%,30.196078%);fill-opacity:1;" d="M 0 0 L 0 5 L 4 5 L 4 10 L 7 10 L 7 12 L 12 12 L 12 7 L 7 7 L 7 9 L 5 9 L 5 3 L 7 3 L 7 5 L 12 5 L 12 0 L 7 0 L 7 2 L 5 2 L 5 0 Z M 1 1 L 4 1 L 4 4 L 1 4 Z M 8 1 L 11 1 L 11 4 L 8 4 Z M 8 1 "/>
</g>
</svg>
