<?xml version="1.0" encoding="UTF-8"?>
<svg xmlns="http://www.w3.org/2000/svg" xmlns:xlink="http://www.w3.org/1999/xlink" width="10pt" height="12pt" viewBox="0 0 10 12" version="1.1">
<g id="surface1">
<path style=" stroke:none;fill-rule:nonzero;fill:rgb(30.196078%,30.196078%,30.196078%);fill-opacity:1;" d="M 0 0 L 0 3 L 1 3 L 1 1 L 9 1 L 9 9 L 5.71875 9 L 7.71875 7 L 6.28125 7 L 3.78125 9.5 L 6.28125 12 L 7.71875 12 L 5.71875 10 L 10 10 L 10 0 Z M 0 0 "/>
<path style=" stroke:none;fill-rule:nonzero;fill:rgb(95.686275%,46.666667%,31.372549%);fill-opacity:1;" d="M 1 4 C 0.449219 4 0 4.449219 0 5 C 0 5.550781 0.449219 6 1 6 C 1.550781 6 2 5.550781 2 5 C 2 4.449219 1.550781 4 1 4 Z M 1 7 C 0.449219 7 0 7.449219 0 8 C 0 8.550781 0.449219 9 1 9 C 1.550781 9 2 8.550781 2 8 C 2 7.449219 1.550781 7 1 7 Z M 1 10 C 0.449219 10 0 10.449219 0 11 C 0 11.550781 0.449219 12 1 12 C 1.550781 12 2 11.550781 2 11 C 2 10.449219 1.550781 10 1 10 Z M 1 10 "/>
</g>
</svg>
