<?xml version="1.0" encoding="UTF-8"?>
<svg xmlns="http://www.w3.org/2000/svg" xmlns:xlink="http://www.w3.org/1999/xlink" width="12pt" height="12pt" viewBox="0 0 12 12" version="1.1">
<g id="surface1">
<path style=" stroke:none;fill-rule:nonzero;fill:rgb(30.196078%,30.196078%,30.196078%);fill-opacity:1;" d="M 6 0 C 2.6875 0 0 2.351562 0 5.25 C 0.0078125 7.121094 1.148438 8.847656 3 9.78125 L 3.25 10.5 L 0.75 10.5 C 0.15625 10.339844 0.0234375 10.003906 0 9.84375 L 0 12 L 4.8125 12 L 4.8125 10.1875 L 4.40625 10.03125 C 3.09375 9.230469 2.253906 7.511719 2.25 5.625 C 2.25 2.933594 3.929688 0.75 6 0.75 C 8.070312 0.75 9.75 2.933594 9.75 5.625 C 9.746094 7.511719 8.90625 9.230469 7.59375 10.03125 L 7.1875 10.1875 L 7.1875 12 L 12 12 L 12 9.84375 C 11.976562 10.003906 11.84375 10.339844 11.25 10.5 L 8.75 10.5 L 9 9.78125 C 10.851562 8.847656 11.992188 7.121094 12 5.25 C 12 2.351562 9.3125 0 6 0 Z M 6 0 "/>
</g>
</svg>
