<?xml version="1.0" encoding="UTF-8"?>
<svg xmlns="http://www.w3.org/2000/svg" xmlns:xlink="http://www.w3.org/1999/xlink" width="12pt" height="12pt" viewBox="0 0 12 12" version="1.1">
<g id="surface1">
<path style=" stroke:none;fill-rule:nonzero;fill:rgb(30.196078%,30.196078%,30.196078%);fill-opacity:1;" d="M 0 0 L 0 12 L 7 12 L 7 11 L 5 11 L 5 8 L 7 8 L 7 7 L 5 7 L 5 5 L 7 5 L 7 4 L 5 4 L 5 1 L 7 1 L 7 0 Z M 1 1 L 4 1 L 4 4 L 1 4 Z M 1 5 L 4 5 L 4 7 L 1 7 Z M 1 8 L 4 8 L 4 11 L 1 11 Z M 8 8 L 8 12 L 12 10 Z M 8 8 "/>
<path style=" stroke:none;fill-rule:nonzero;fill:rgb(11.372549%,60%,95.294118%);fill-opacity:1;" d="M 7 0 L 7 7 L 8 7 L 8 6.71875 L 11 3.71875 L 11 6.28125 L 10.28125 7 L 12 7 L 12 0 L 11 0 L 11 2.28125 L 8 5.28125 L 8 2.71875 L 10.71875 0 L 9.28125 0 L 8 1.28125 L 8 0 Z M 7 0 "/>
</g>
</svg>
