<?xml version="1.0" encoding="UTF-8"?>
<svg xmlns="http://www.w3.org/2000/svg" xmlns:xlink="http://www.w3.org/1999/xlink" width="12pt" height="10pt" viewBox="0 0 12 10" version="1.1">
<g id="surface1">
<path style=" stroke:none;fill-rule:nonzero;fill:rgb(30.196078%,30.196078%,30.196078%);fill-opacity:1;" d="M 0 0 L 0 1 L 6 1 L 6 0 Z M 0 6 L 0 7 L 4 7 L 4 6 Z M 0 6 "/>
<path style=" stroke:none;fill-rule:nonzero;fill:rgb(11.372549%,60%,95.294118%);fill-opacity:1;" d="M 9 0 L 9 1 L 10 1 L 10 3 L 9 3 L 9 4 L 12 4 L 12 3 L 11 3 L 11 1 L 12 1 L 12 0 Z M 3 2 L 3 3 L 4 3 L 4 2 Z M 5 2 L 5 3 L 6 3 L 6 2 Z M 7 2 L 7 3 L 8 3 L 8 2 Z M 7 6 L 7 7 L 8 7 L 8 9 L 7 9 L 7 10 L 12 10 L 12 9 L 11 9 L 11 7 L 12 7 L 12 6 Z M 9 7 L 10 7 L 10 9 L 9 9 Z M 1 8 L 1 9 L 2 9 L 2 8 Z M 3 8 L 3 9 L 4 9 L 4 8 Z M 5 8 L 5 9 L 6 9 L 6 8 Z M 5 8 "/>
</g>
</svg>
