<?xml version="1.0" encoding="UTF-8"?>
<svg xmlns="http://www.w3.org/2000/svg" xmlns:xlink="http://www.w3.org/1999/xlink" width="12pt" height="12pt" viewBox="0 0 12 12" version="1.1">
<g id="surface1">
<path style=" stroke:none;fill-rule:nonzero;fill:rgb(30.196078%,30.196078%,30.196078%);fill-opacity:1;" d="M 0 0 L 0 12 L 12 12 L 12 0 Z M 1 1 L 6 1 L 6 11 L 1 11 Z M 9 1 L 9.28125 1.25 L 11 2.5625 L 10.40625 3 L 9 1.90625 L 7.59375 3 L 7 2.5625 L 8.71875 1.25 Z M 2 2 L 2 3 L 5 3 L 5 2 Z M 2 5 L 2 6 L 5 6 L 5 5 Z M 2 8 L 2 9 L 5 9 L 5 8 Z M 7.59375 9 L 9 10.09375 L 10.40625 9 L 11 9.4375 L 9.28125 10.75 L 9 11 L 8.71875 10.75 L 7 9.4375 Z M 7.59375 9 "/>
</g>
</svg>
