<?xml version="1.0" encoding="UTF-8"?>
<svg xmlns="http://www.w3.org/2000/svg" xmlns:xlink="http://www.w3.org/1999/xlink" width="11pt" height="12pt" viewBox="0 0 11 12" version="1.1">
<g id="surface1">
<path style=" stroke:none;fill-rule:nonzero;fill:rgb(30.196078%,30.196078%,30.196078%);fill-opacity:1;" d="M 0 0 L 0 2 L 11 2 L 11 0 Z M 0 4 L 0 6 L 2 6 L 2 4 Z M 3 4 L 3 6 L 5 6 L 5 4 Z M 6 4 L 6 6 L 8 6 L 8 4 Z M 9 4 L 9 6 L 11 6 L 11 4 Z M 0 8 L 0 9 L 11 9 L 11 8 Z M 0 11 L 0 12 L 1 12 L 1 11 Z M 2 11 L 2 12 L 3 12 L 3 11 Z M 4 11 L 4 12 L 5 12 L 5 11 Z M 6 11 L 6 12 L 7 12 L 7 11 Z M 8 11 L 8 12 L 9 12 L 9 11 Z M 10 11 L 10 12 L 11 12 L 11 11 Z M 10 11 "/>
</g>
</svg>
