<?xml version="1.0" encoding="UTF-8"?>
<svg xmlns="http://www.w3.org/2000/svg" xmlns:xlink="http://www.w3.org/1999/xlink" width="12pt" height="12pt" viewBox="0 0 12 12" version="1.1">
<g id="surface1">
<path style=" stroke:none;fill-rule:nonzero;fill:rgb(30.196078%,30.196078%,30.196078%);fill-opacity:1;" d="M 0 0 L 0 1 L 1 1 L 1 0 Z M 10.5625 0 L 1 9.5625 L 1 9 L 0 9 L 0 12 L 3 12 L 3 11 L 2.4375 11 L 12 1.4375 Z M 0 3 L 0 4 L 1 4 L 1 3 Z M 0 6 L 0 7 L 1 7 L 1 6 Z M 5 11 L 5 12 L 6 12 L 6 11 Z M 8 11 L 8 12 L 9 12 L 9 11 Z M 11 11 L 11 12 L 12 12 L 12 11 Z M 11 11 "/>
</g>
</svg>
