<?xml version="1.0" encoding="UTF-8"?>
<svg xmlns="http://www.w3.org/2000/svg" xmlns:xlink="http://www.w3.org/1999/xlink" width="14pt" height="12pt" viewBox="0 0 14 12" version="1.1">
<g id="surface1">
<path style=" stroke:none;fill-rule:nonzero;fill:rgb(30.196078%,30.196078%,30.196078%);fill-opacity:1;" d="M 0 0 L 0 12 L 7 12 L 7 11 L 1.65625 11 L 5.640625 6.351562 L 6 6.707031 L 6 5.292969 L 1.707031 1 L 12.292969 1 L 9.292969 4 L 10.707031 4 C 11.746094 2.960938 13 1.707031 13 1.707031 L 13 5 L 14 5 L 14 0 Z M 1 1.707031 L 4.933594 5.640625 L 1 10.230469 Z M 8.5 5 L 7.96875 5.96875 L 7 6.5 L 7.96875 7.03125 L 8.5 8 L 9.03125 7.03125 L 10 6.5 L 9.03125 5.96875 Z M 12.5625 6 L 8 10.5625 L 9.4375 12 L 14 7.4375 Z M 12.5625 6.71875 L 13.28125 7.4375 L 11.890625 8.828125 L 11.171875 8.109375 Z M 12.5625 6.71875 "/>
</g>
</svg>
