<?xml version="1.0" encoding="UTF-8"?>
<svg xmlns="http://www.w3.org/2000/svg" xmlns:xlink="http://www.w3.org/1999/xlink" width="10pt" height="12pt" viewBox="0 0 10 12" version="1.1">
<g id="surface1">
<path style=" stroke:none;fill-rule:nonzero;fill:rgb(30.196078%,30.196078%,30.196078%);fill-opacity:1;" d="M 3 0 C 1.894531 0 1 0.894531 1 2 L 1 5 C 1 5.277344 0.777344 5.5 0.5 5.5 L 0 5.5 L 0 6.5 L 0.5 6.5 C 0.777344 6.5 1 6.722656 1 7 L 1 10 C 1 11.105469 1.894531 12 3 12 L 4 12 L 4 11 L 3 11 C 2.449219 11 2 10.550781 2 10 L 2 7 C 2 6.617188 1.859375 6.265625 1.625 6 C 1.859375 5.734375 2 5.382812 2 5 L 2 2 C 2 1.449219 2.449219 1 3 1 L 4 1 L 4 0 Z M 6 0 L 6 1 L 7 1 C 7.550781 1 8 1.449219 8 2 L 8 5 C 8 5.382812 8.140625 5.734375 8.375 6 C 8.140625 6.265625 8 6.617188 8 7 L 8 10 C 8 10.550781 7.550781 11 7 11 L 6 11 L 6 12 L 7 12 C 8.105469 12 9 11.105469 9 10 L 9 7 C 9 6.722656 9.222656 6.5 9.5 6.5 L 10 6.5 L 10 5.5 L 9.5 5.5 C 9.222656 5.5 9 5.277344 9 5 L 9 2 C 9 0.894531 8.105469 0 7 0 Z M 6 0 "/>
</g>
</svg>
