<?xml version="1.0" encoding="UTF-8"?>
<svg xmlns="http://www.w3.org/2000/svg" xmlns:xlink="http://www.w3.org/1999/xlink" width="14pt" height="12pt" viewBox="0 0 14 12" version="1.1">
<g id="surface1">
<path style=" stroke:none;fill-rule:nonzero;fill:rgb(30.196078%,30.196078%,30.196078%);fill-opacity:1;" d="M 2 0 L 2 2 L 0 4 L 0 12 L 8 12 L 8 11 L 1 11 L 1 5 L 3 5 L 6.976562 6.992188 L 7 7 L 7.023438 6.992188 L 11 5 L 13 5 L 13 7 L 14 7 L 14 4 L 12 2 L 12 0 Z M 3 1 L 11 1 L 11 3.863281 L 10.753906 4.007812 L 7 5.882812 L 3.246094 4.007812 L 3 3.867188 Z M 4 2 L 4 3 L 10 3 L 10 2 Z M 11 7 C 10.449219 7 10 7.449219 10 8 C 10 8.550781 10.449219 9 11 9 C 11.550781 9 12 8.550781 12 8 C 12 7.449219 11.550781 7 11 7 Z M 9.679688 10 C 9.25 10.378906 9 10.925781 9 11.5 L 9 12 L 13 12 L 13 11.5 C 13 10.925781 12.75 10.378906 12.320312 10 Z M 9.679688 10 "/>
</g>
</svg>
