<?xml version="1.0" encoding="UTF-8"?>
<svg xmlns="http://www.w3.org/2000/svg" xmlns:xlink="http://www.w3.org/1999/xlink" width="12pt" height="11pt" viewBox="0 0 12 11" version="1.1">
<g id="surface1">
<path style=" stroke:none;fill-rule:nonzero;fill:rgb(30.196078%,30.196078%,30.196078%);fill-opacity:1;" d="M 2 0 L 2 2 L 0 2 L 0 3 L 2 3 L 2 5 L 5 5 L 5 4 L 3 4 L 3 1 L 5 1 L 5 0 Z M 7 0 L 7 1 L 9 1 L 9 4 L 7 4 L 7 5 L 10 5 L 10 3 L 12 3 L 12 2 L 10 2 L 10 0 Z M 5 2 L 5 3 L 7 3 L 7 2 Z M 5 2 "/>
<path style=" stroke:none;fill-rule:nonzero;fill:rgb(95.686275%,46.666667%,31.372549%);fill-opacity:1;" d="M 5 9 C 4.449219 9 4 9.449219 4 10 C 4 10.550781 4.449219 11 5 11 C 5.550781 11 6 10.550781 6 10 C 6 9.449219 5.550781 9 5 9 Z M 8 9 C 7.449219 9 7 9.449219 7 10 C 7 10.550781 7.449219 11 8 11 C 8.550781 11 9 10.550781 9 10 C 9 9.449219 8.550781 9 8 9 Z M 11 9 C 10.449219 9 10 9.449219 10 10 C 10 10.550781 10.449219 11 11 11 C 11.550781 11 12 10.550781 12 10 C 12 9.449219 11.550781 9 11 9 Z M 11 9 "/>
</g>
</svg>
