<?xml version="1.0" encoding="UTF-8"?>
<svg xmlns="http://www.w3.org/2000/svg" xmlns:xlink="http://www.w3.org/1999/xlink" width="12pt" height="12pt" viewBox="0 0 12 12" version="1.1">
<g id="surface1">
<path style=" stroke:none;fill-rule:nonzero;fill:rgb(30.196078%,30.196078%,30.196078%);fill-opacity:1;" d="M 5 0 L 5 1.09375 C 4.363281 1.222656 3.773438 1.496094 3.25 1.84375 L 2.40625 1 L 1 2.40625 L 1.84375 3.25 C 1.496094 3.773438 1.257812 4.367188 1.125 5 L 0 5 L 0 7 L 1.09375 7 C 1.222656 7.636719 1.496094 8.226562 1.84375 8.75 L 1 9.59375 L 2.40625 11 L 3.25 10.15625 C 3.773438 10.503906 4.367188 10.742188 5 10.875 L 5 12 L 7 12 L 7 10.875 C 7.355469 10.800781 7.675781 10.671875 8 10.53125 L 8 9.4375 C 7.410156 9.777344 6.730469 10 6 10 C 3.789062 10 2 8.210938 2 6 C 2 3.789062 3.789062 2 6 2 C 8.210938 2 10 3.789062 10 6 C 10 6.730469 9.777344 7.410156 9.4375 8 L 10.5625 8 C 10.710938 7.679688 10.832031 7.359375 10.90625 7 L 12 7 L 12 5 L 10.90625 5 C 10.777344 4.363281 10.535156 3.773438 10.1875 3.25 L 11 2.40625 L 9.59375 1 L 8.75 1.8125 C 8.226562 1.464844 7.632812 1.25 7 1.125 L 7 0 Z M 5 4 L 5 8 L 8 6 Z M 5 4 "/>
<path style=" stroke:none;fill-rule:nonzero;fill:rgb(95.686275%,46.666667%,31.372549%);fill-opacity:1;" d="M 9 9 L 9 10 L 12 10 L 12 9 Z M 9 11 L 9 12 L 12 12 L 12 11 Z M 9 11 "/>
</g>
</svg>
