<?xml version="1.0" encoding="UTF-8"?>
<svg xmlns="http://www.w3.org/2000/svg" xmlns:xlink="http://www.w3.org/1999/xlink" width="12pt" height="12pt" viewBox="0 0 12 12" version="1.1">
<g id="surface1">
<path style=" stroke:none;fill-rule:nonzero;fill:rgb(11.372549%,60%,95.294118%);fill-opacity:1;" d="M 9 7 L 9 9 L 7 9 L 7 10 L 9 10 L 9 12 L 10 12 L 10 10 L 12 10 L 12 9 L 10 9 L 10 7 Z M 9 7 "/>
<path style=" stroke:none;fill-rule:nonzero;fill:rgb(30.196078%,30.196078%,30.196078%);fill-opacity:1;" d="M 3.5 0 C 2.121094 0 1 1.121094 1 2.5 L 1 5.5 C 1 6.878906 2.121094 8 3.5 8 C 4.878906 8 6 6.878906 6 5.5 L 6 2.5 C 6 1.121094 4.878906 0 3.5 0 Z M 9.5 0 C 8.121094 0 7 1.121094 7 2.5 L 7 5.5 C 7 6.878906 8.121094 8 9.5 8 C 10.878906 8 12 6.878906 12 5.5 L 12 2.5 C 12 1.121094 10.878906 0 9.5 0 Z M 3.5 1 C 4.328125 1 5 1.671875 5 2.5 L 5 5.5 C 5 6.328125 4.328125 7 3.5 7 C 2.671875 7 2 6.328125 2 5.5 L 2 2.5 C 2 1.671875 2.671875 1 3.5 1 Z M 9.5 1 C 10.328125 1 11 1.671875 11 2.5 L 11 5.5 C 11 6.328125 10.328125 7 9.5 7 C 8.671875 7 8 6.328125 8 5.5 L 8 2.5 C 8 1.671875 8.671875 1 9.5 1 Z M 0 7 L 0 8 L 1 8 L 1 7 Z M 0 7 "/>
</g>
</svg>
