<?xml version="1.0" encoding="UTF-8"?>
<svg xmlns="http://www.w3.org/2000/svg" xmlns:xlink="http://www.w3.org/1999/xlink" width="11pt" height="12pt" viewBox="0 0 11 12" version="1.1">
<g id="surface1">
<path style=" stroke:none;fill-rule:nonzero;fill:rgb(30.196078%,30.196078%,30.196078%);fill-opacity:1;" d="M 0 0 L 0 12 L 4 12 L 4 11 L 1 11 L 1 1 L 9 1 L 9 5 L 10 5 L 10 0 Z M 2 2 L 2 6 L 8 6 L 8 2 Z M 3 3 L 7 3 L 7 5 L 3 5 Z M 9 6 L 5 10 L 5 12 L 7 12 L 11 8 Z M 2 7 L 2 8 L 5 8 L 5 7 Z M 8.6875 7.6875 L 9.28125 8.28125 L 7.59375 9.96875 L 7.59375 10 L 6.3125 11.28125 L 5.71875 10.6875 L 7.59375 8.78125 Z M 2 9 L 2 10 L 4 10 L 4 9 Z M 2 9 "/>
</g>
</svg>
