<?xml version="1.0" encoding="UTF-8"?>
<svg xmlns="http://www.w3.org/2000/svg" xmlns:xlink="http://www.w3.org/1999/xlink" width="14pt" height="12pt" viewBox="0 0 14 12" version="1.1">
<g id="surface1">
<path style=" stroke:none;fill-rule:nonzero;fill:rgb(30.196078%,30.196078%,30.196078%);fill-opacity:1;" d="M 2.976562 0 L 2.976562 1.125 C 2.09375 1.203125 1.398438 1.414062 0.882812 1.8125 C 0.316406 2.246094 0.03125 2.882812 0.03125 3.71875 C 0.03125 4.882812 0.761719 5.640625 2.257812 6 L 2.976562 6.1875 L 2.976562 9.875 C 2.046875 9.796875 1.175781 9.601562 0.359375 9.21875 L 0 10.125 C 0.332031 10.320312 0.789062 10.503906 1.34375 10.65625 C 1.828125 10.785156 2.375 10.84375 2.976562 10.875 L 2.976562 12 L 4.023438 12 L 4.023438 10.875 C 4.914062 10.804688 5.628906 10.546875 6.148438 10.09375 C 6.710938 9.609375 7 8.910156 7 8 C 7 7.261719 6.792969 6.710938 6.378906 6.3125 C 5.964844 5.910156 5.34375 5.621094 4.546875 5.4375 L 4.023438 5.3125 L 4.023438 2.0625 C 4.425781 2.089844 4.847656 2.144531 5.234375 2.25 C 5.679688 2.363281 6.011719 2.511719 6.28125 2.65625 L 6.609375 1.75 C 5.9375 1.351562 5.078125 1.113281 4.023438 1.0625 L 4.023438 0 Z M 11 1 C 9.34375 1 8 2.34375 8 4 L 8 8 C 8 9.65625 9.34375 11 11 11 C 12.65625 11 14 9.65625 14 8 L 14 4 C 14 2.34375 12.65625 1 11 1 Z M 11 2 C 12.105469 2 13 2.894531 13 4 L 13 8 C 13 9.105469 12.105469 10 11 10 C 9.894531 10 9 9.105469 9 8 L 9 4 C 9 2.894531 9.894531 2 11 2 Z M 2.75 2.09375 C 2.816406 2.082031 2.902344 2.101562 2.976562 2.09375 L 2.976562 5.0625 L 2.679688 5 C 2.1875 4.886719 1.820312 4.714844 1.570312 4.5 C 1.328125 4.28125 1.210938 3.984375 1.210938 3.625 C 1.210938 2.769531 1.714844 2.257812 2.75 2.09375 Z M 4.023438 6.40625 L 4.21875 6.46875 C 4.820312 6.613281 5.238281 6.808594 5.460938 7.0625 C 5.695312 7.3125 5.789062 7.65625 5.789062 8.0625 C 5.789062 9.195312 5.199219 9.796875 4.023438 9.90625 Z M 4.023438 6.40625 "/>
</g>
</svg>
