<?xml version="1.0" encoding="UTF-8"?>
<svg xmlns="http://www.w3.org/2000/svg" xmlns:xlink="http://www.w3.org/1999/xlink" width="12pt" height="8pt" viewBox="0 0 12 8" version="1.1">
<g id="surface1">
<path style=" stroke:none;fill-rule:nonzero;fill:rgb(30.196078%,30.196078%,30.196078%);fill-opacity:1;" d="M 2.5 0 C 1.121094 0 0 1.121094 0 2.5 L 0 5.5 C 0 6.878906 1.121094 8 2.5 8 C 3.878906 8 5 6.878906 5 5.5 L 5 2.5 C 5 1.121094 3.878906 0 2.5 0 Z M 9.5 0 C 8.121094 0 7 1.121094 7 2.5 L 7 5.5 C 7 6.878906 8.121094 8 9.5 8 C 10.878906 8 12 6.878906 12 5.5 L 12 2.5 C 12 1.121094 10.878906 0 9.5 0 Z M 2.5 1 C 3.328125 1 4 1.671875 4 2.5 L 4 5.5 C 4 6.328125 3.328125 7 2.5 7 C 1.671875 7 1 6.328125 1 5.5 L 1 2.5 C 1 1.671875 1.671875 1 2.5 1 Z M 9.5 1 C 10.328125 1 11 1.671875 11 2.5 L 11 5.5 C 11 6.328125 10.328125 7 9.5 7 C 8.671875 7 8 6.328125 8 5.5 L 8 2.5 C 8 1.671875 8.671875 1 9.5 1 Z M 5.5 7 L 5.5 8 L 6.5 8 L 6.5 7 Z M 5.5 7 "/>
</g>
</svg>
