<?xml version="1.0" encoding="UTF-8"?>
<svg xmlns="http://www.w3.org/2000/svg" xmlns:xlink="http://www.w3.org/1999/xlink" width="12pt" height="12pt" viewBox="0 0 12 12" version="1.1">
<g id="surface1">
<path style=" stroke:none;fill-rule:nonzero;fill:rgb(30.196078%,30.196078%,30.196078%);fill-opacity:1;" d="M 2.5 0 C 1.121094 0 0 1.121094 0 2.5 C 0 3.878906 1.121094 5 2.5 5 C 3.878906 5 5 3.878906 5 2.5 C 5 1.121094 3.878906 0 2.5 0 Z M 9.40625 0 L 1.78125 11.4375 L 2.59375 12 L 10.21875 0.5625 Z M 2.5 1 C 3.328125 1 4 1.671875 4 2.5 C 4 3.328125 3.328125 4 2.5 4 C 1.671875 4 1 3.328125 1 2.5 C 1 1.671875 1.671875 1 2.5 1 Z M 9.5 7 C 8.121094 7 7 8.121094 7 9.5 C 7 10.878906 8.121094 12 9.5 12 C 10.878906 12 12 10.878906 12 9.5 C 12 8.121094 10.878906 7 9.5 7 Z M 9.5 8 C 10.328125 8 11 8.671875 11 9.5 C 11 10.328125 10.328125 11 9.5 11 C 8.671875 11 8 10.328125 8 9.5 C 8 8.671875 8.671875 8 9.5 8 Z M 9.5 8 "/>
</g>
</svg>
