<?xml version="1.0" encoding="UTF-8"?>
<svg xmlns="http://www.w3.org/2000/svg" xmlns:xlink="http://www.w3.org/1999/xlink" width="12pt" height="12pt" viewBox="0 0 12 12" version="1.1">
<g id="surface1">
<path style=" stroke:none;fill-rule:nonzero;fill:rgb(30.196078%,30.196078%,30.196078%);fill-opacity:1;" d="M 0 0 L 0 12 L 12 12 L 12 0 Z M 1 1 L 11 1 L 11 11 L 1 11 Z M 3 2 C 2.449219 2 2 2.449219 2 3 C 2 3.550781 2.449219 4 3 4 C 3.550781 4 4 3.550781 4 3 C 4 2.449219 3.550781 2 3 2 Z M 5 2 L 5 3 L 10 3 L 10 2 Z M 5 4 L 5 5 L 8 5 L 8 4 Z M 3 7 C 2.449219 7 2 7.449219 2 8 C 2 8.550781 2.449219 9 3 9 C 3.550781 9 4 8.550781 4 8 C 4 7.449219 3.550781 7 3 7 Z M 5 7 L 5 8 L 10 8 L 10 7 Z M 5 9 L 5 10 L 7 10 L 7 9 Z M 8 9 L 8 10 L 10 10 L 10 9 Z M 8 9 "/>
</g>
</svg>
