<?xml version="1.0" encoding="UTF-8"?>
<svg xmlns="http://www.w3.org/2000/svg" xmlns:xlink="http://www.w3.org/1999/xlink" width="12pt" height="12pt" viewBox="0 0 12 12" version="1.1">
<g id="surface1">
<path style=" stroke:none;fill-rule:nonzero;fill:rgb(30.196078%,30.196078%,30.196078%);fill-opacity:1;" d="M 2 3 C 1.449219 3 1 3.449219 1 4 C 1 4.550781 1.449219 5 2 5 C 2.550781 5 3 4.550781 3 4 C 3 3.449219 2.550781 3 2 3 Z M 4 3 L 4 4 L 11 4 L 11 3 Z M 4 6 L 4 7 L 11 7 L 11 6 Z M 4 8 L 4 9 L 8 9 L 8 8 Z M 9 8 L 9 9 L 11 9 L 11 8 Z M 9 8 "/>
<path style=" stroke:none;fill-rule:nonzero;fill:rgb(11.372549%,60%,95.294118%);fill-opacity:1;" d="M 0 0 L 0 3 L 3 0 Z M 9 0 L 12 3 L 12 0 Z M 0 9 L 0 12 L 3 12 Z M 12 9 L 9 12 L 12 12 Z M 12 9 "/>
</g>
</svg>
