<?xml version="1.0" encoding="UTF-8"?>
<svg xmlns="http://www.w3.org/2000/svg" xmlns:xlink="http://www.w3.org/1999/xlink" width="11pt" height="14pt" viewBox="0 0 11 14" version="1.1">
<g id="surface1">
<path style=" stroke:none;fill-rule:nonzero;fill:rgb(30.196078%,30.196078%,30.196078%);fill-opacity:1;" d="M 0 0 L 0 1 L 11 1 L 11 0 Z M 5.5 2 C 3.566406 2 2 3.34375 2 5 L 2 11 C 2 12.65625 3.566406 14 5.5 14 C 7.433594 14 9 12.65625 9 11 L 9 5 C 9 3.34375 7.433594 2 5.5 2 Z M 6 3 C 7.105469 3 8 3.894531 8 5 L 8 11 C 8 12.105469 7.105469 13 6 13 C 4.894531 13 4 12.105469 4 11 L 4 5 C 4 3.894531 4.894531 3 6 3 Z M 6 3 "/>
</g>
</svg>
