<?xml version="1.0" encoding="UTF-8"?>
<svg xmlns="http://www.w3.org/2000/svg" xmlns:xlink="http://www.w3.org/1999/xlink" width="12pt" height="12pt" viewBox="0 0 12 12" version="1.1">
<g id="surface1">
<path style=" stroke:none;fill-rule:nonzero;fill:rgb(70.196078%,70.196078%,70.196078%);fill-opacity:1;" d="M 0 0 L 0 12 L 5 12 L 5 11 L 1 11 L 1 5 L 11 5 L 11 6 L 12 6 L 12 2 L 7 2 L 5 0 Z M 1 1 L 4.59375 1 L 5.59375 2 L 5 2 L 3 4 L 1 4 Z M 10 6 L 6 10 L 6 12 L 8 12 L 12 8 Z M 9.6875 7.6875 L 10.28125 8.28125 L 8.59375 9.96875 L 8.59375 10 L 7.3125 11.28125 L 6.71875 10.6875 L 8.59375 8.78125 Z M 9.6875 7.6875 "/>
</g>
</svg>
