<?xml version="1.0" encoding="UTF-8"?>
<svg xmlns="http://www.w3.org/2000/svg" xmlns:xlink="http://www.w3.org/1999/xlink" width="14pt" height="11pt" viewBox="0 0 14 11" version="1.1">
<g id="surface1">
<path style=" stroke:none;fill-rule:nonzero;fill:rgb(30.196078%,30.196078%,30.196078%);fill-opacity:1;" d="M 6.5 0 C 4.015625 0 2 2.015625 2 4.5 C 2 4.71875 2.019531 4.9375 2.054688 5.15625 C 0.828125 5.5625 0 6.710938 0 8 C 0 9.65625 1.34375 11 3 11 L 10.5 11 C 12.433594 11 14 9.433594 14 7.5 C 14 5.75 12.703125 4.269531 10.96875 4.035156 C 10.734375 1.746094 8.804688 0.00390625 6.5 0 Z M 6.5 1 C 8.433594 1 10 2.566406 10 4.5 C 10 4.6875 9.980469 4.878906 9.949219 5.0625 C 10.128906 5.023438 10.316406 5 10.5 5 C 11.878906 5 13 6.121094 13 7.5 C 13 8.878906 11.878906 10 10.5 10 L 3 10 C 1.894531 10 1 9.105469 1 8 C 1 6.894531 1.894531 6 3 6 C 3.121094 6 3.238281 6.011719 3.359375 6.03125 C 3.125 5.554688 3 5.03125 3 4.5 C 3 2.566406 4.566406 1 6.5 1 Z M 6.5 1 "/>
</g>
</svg>
