<?xml version="1.0" encoding="UTF-8"?>
<svg xmlns="http://www.w3.org/2000/svg" xmlns:xlink="http://www.w3.org/1999/xlink" width="14pt" height="14pt" viewBox="0 0 14 14" version="1.1">
<g id="surface1">
<path style=" stroke:none;fill-rule:nonzero;fill:rgb(30.196078%,30.196078%,30.196078%);fill-opacity:1;" d="M 3 4 C 2.449219 4 2 4.449219 2 5 C 2 5.550781 2.449219 6 3 6 C 3.550781 6 4 5.550781 4 5 C 4 4.449219 3.550781 4 3 4 Z M 5 4 L 5 5 L 12 5 L 12 4 Z M 3 8 C 2.449219 8 2 8.449219 2 9 C 2 9.550781 2.449219 10 3 10 C 3.550781 10 4 9.550781 4 9 C 4 8.449219 3.550781 8 3 8 Z M 5 8 L 5 9 L 12 9 L 12 8 Z M 5 8 "/>
<path style=" stroke:none;fill-rule:nonzero;fill:rgb(11.372549%,60%,95.294118%);fill-opacity:1;" d="M 3 0 L 0 3 L 3 3 Z M 11 0 L 11 3 L 14 3 Z M 0 11 L 3 14 L 3 11 Z M 10 11 L 10 14 L 13 11 Z M 10 11 "/>
</g>
</svg>
