<?xml version="1.0" encoding="UTF-8"?>
<svg xmlns="http://www.w3.org/2000/svg" xmlns:xlink="http://www.w3.org/1999/xlink" width="12pt" height="12pt" viewBox="0 0 12 12" version="1.1">
<g id="surface1">
<path style=" stroke:none;fill-rule:nonzero;fill:rgb(30.196078%,30.196078%,30.196078%);fill-opacity:1;" d="M 0 0 L 0 4 L 4 4 L 4 0 Z M 5 0 L 5 1 L 12 1 L 12 0 Z M 1 1 L 3 1 L 3 3 L 1 3 Z M 5 2 L 5 3 L 8 3 L 8 2 Z M 10 2 L 10 3 L 12 3 L 12 2 Z M 0 6 L 0 10 L 4 10 L 4 6 Z M 5 6 L 5 7 L 8 7 L 8 6 Z M 10 6 L 6 10 L 6 12 L 8 12 L 12 8 Z M 1 7 L 3 7 L 3 9 L 1 9 Z M 9.6875 7.6875 L 10.28125 8.28125 L 8.59375 9.96875 L 8.59375 10 L 7.3125 11.28125 L 6.71875 10.6875 L 8.59375 8.78125 Z M 5 8 L 5 9 L 6 9 L 6 8 Z M 5 8 "/>
</g>
</svg>
