<?xml version="1.0" encoding="UTF-8"?>
<svg xmlns="http://www.w3.org/2000/svg" xmlns:xlink="http://www.w3.org/1999/xlink" width="12pt" height="12pt" viewBox="0 0 12 12" version="1.1">
<g id="surface1">
<path style=" stroke:none;fill-rule:nonzero;fill:rgb(30.196078%,30.196078%,30.196078%);fill-opacity:1;" d="M 0 0 L 0 1 L 12 1 L 12 0 Z M 2.5 2 L 2.3125 2.21875 L 0 4.71875 L 0.65625 5.40625 L 2 3.96875 L 2 12 L 3 12 L 3 3.96875 L 4.34375 5.40625 L 5 4.71875 L 2.6875 2.21875 Z M 6 4 L 6 5 L 12 5 L 12 4 Z M 10 6 L 6 10 L 6 12 L 8 12 L 12 8 Z M 9.6875 7.6875 L 10.28125 8.28125 L 8.59375 9.96875 L 8.59375 10 L 7.3125 11.28125 L 6.71875 10.6875 L 8.59375 8.78125 Z M 9.6875 7.6875 "/>
</g>
</svg>
