<?xml version="1.0" encoding="UTF-8"?>
<svg xmlns="http://www.w3.org/2000/svg" xmlns:xlink="http://www.w3.org/1999/xlink" width="10pt" height="12pt" viewBox="0 0 10 12" version="1.1">
<g id="surface1">
<path style=" stroke:none;fill-rule:nonzero;fill:rgb(30.196078%,30.196078%,30.196078%);fill-opacity:1;" d="M 0 0 L 0 12 L 7 12 L 7 11 L 1 11 L 1 1 L 9 1 L 9 7 L 10 7 L 10 0 Z M 5 3 C 3.339844 3 2 4.339844 2 6 C 2 7.660156 3.339844 9 5 9 C 5.648438 9 6.261719 8.785156 6.75 8.4375 L 9.28125 11 L 10 10.28125 L 7.4375 7.75 C 7.785156 7.261719 8 6.648438 8 6 C 8 4.339844 6.660156 3 5 3 Z M 5 4 C 6.109375 4 7 4.890625 7 6 C 7 7.109375 6.109375 8 5 8 C 3.890625 8 3 7.109375 3 6 C 3 4.890625 3.890625 4 5 4 Z M 5 4 "/>
</g>
</svg>
