<?xml version="1.0" encoding="UTF-8"?>
<svg xmlns="http://www.w3.org/2000/svg" xmlns:xlink="http://www.w3.org/1999/xlink" width="12pt" height="13pt" viewBox="0 0 12 13" version="1.1">
<g id="surface1">
<path style=" stroke:none;fill-rule:nonzero;fill:rgb(30.196078%,30.196078%,30.196078%);fill-opacity:1;" d="M 0 0 L 0 12 L 3 12 L 3 11 L 1 11 L 1 1 L 9 1 L 9 4 L 10 4 L 10 0 Z M 5 5 L 5 7 L 4 7 L 4 12 L 6 12 L 6 13 L 10 13 L 10 12 L 12 12 L 12 7 L 11 7 L 11 5 Z M 6 6 L 10 6 L 10 7 L 6 7 Z M 5 8 L 11 8 L 11 11 L 5 11 Z M 8 9 L 8 10 L 10 10 L 10 9 Z M 8 9 "/>
</g>
</svg>
