<?xml version="1.0" encoding="UTF-8"?>
<svg xmlns="http://www.w3.org/2000/svg" xmlns:xlink="http://www.w3.org/1999/xlink" width="12pt" height="10pt" viewBox="0 0 12 10" version="1.1">
<g id="surface1">
<path style=" stroke:none;fill-rule:nonzero;fill:rgb(30.196078%,30.196078%,30.196078%);fill-opacity:1;" d="M 0 0 L 0 7 L 3 10 L 12 10 L 12 0 Z M 1 1 L 11 1 L 11 9 L 4 9 L 4 6 L 1 6 Z M 6 2 C 5.347656 2 4.796875 2.417969 4.59375 3 L 2 3 L 2 4 L 4.59375 4 C 4.796875 4.582031 5.347656 5 6 5 C 6.652344 5 7.203125 4.582031 7.40625 4 L 10 4 L 10 3 L 7.40625 3 C 7.203125 2.417969 6.652344 2 6 2 Z M 7.953125 5 C 7.335938 5.019531 6.792969 5.417969 6.585938 6 L 5 6 L 5 7 L 6.585938 7 C 6.800781 7.597656 7.363281 8 8 8 C 8.636719 8 9.199219 7.597656 9.410156 7 L 10 7 L 10 6 L 9.410156 6 C 9.199219 5.402344 8.636719 5 8 5 C 7.984375 5 7.96875 5 7.953125 5 Z M 8 6 C 8.277344 6 8.5 6.222656 8.5 6.5 C 8.5 6.777344 8.277344 7 8 7 C 7.722656 7 7.5 6.777344 7.5 6.5 C 7.5 6.222656 7.722656 6 8 6 Z M 8 6 "/>
</g>
</svg>
