<?xml version="1.0" encoding="UTF-8"?>
<svg xmlns="http://www.w3.org/2000/svg" xmlns:xlink="http://www.w3.org/1999/xlink" width="10pt" height="12pt" viewBox="0 0 10 12" version="1.1">
<g id="surface1">
<path style=" stroke:none;fill-rule:nonzero;fill:rgb(30.196078%,30.196078%,30.196078%);fill-opacity:1;" d="M 2 0 L 2 1 L 0 1 L 0 12 L 10 12 L 10 1 L 8 1 L 8 0 Z M 1 2 L 9 2 L 9 11 L 1 11 Z M 2 3 L 2 4 L 8 4 L 8 3 Z M 2 5 L 2 6 L 7 6 L 7 5 Z M 2 7 L 2 8 L 5 8 L 5 7 Z M 6 9 L 6 10 L 8 10 L 8 9 Z M 6 9 "/>
</g>
</svg>
