<?xml version="1.0" encoding="UTF-8"?>
<svg xmlns="http://www.w3.org/2000/svg" xmlns:xlink="http://www.w3.org/1999/xlink" width="10pt" height="10pt" viewBox="0 0 10 10" version="1.1">
<g id="surface1">
<path style=" stroke:none;fill-rule:nonzero;fill:rgb(30.196078%,30.196078%,30.196078%);fill-opacity:1;" d="M 2 0 L 2 2 L 0 2 L 0 3 L 2 3 L 2 7 L 0 7 L 0 8 L 2 8 L 2 10 L 3 10 L 3 8 L 7 8 L 7 10 L 8 10 L 8 8 L 10 8 L 10 7 L 8 7 L 8 3 L 10 3 L 10 2 L 8 2 L 8 0 L 7 0 L 7 2 L 3 2 L 3 0 Z M 3 3 L 7 3 L 7 7 L 3 7 Z M 3 3 "/>
</g>
</svg>
