<?xml version="1.0" encoding="UTF-8"?>
<svg xmlns="http://www.w3.org/2000/svg" xmlns:xlink="http://www.w3.org/1999/xlink" width="13pt" height="9pt" viewBox="0 0 13 9" version="1.1">
<g id="surface1">
<path style=" stroke:none;fill-rule:nonzero;fill:rgb(30.196078%,30.196078%,30.196078%);fill-opacity:1;" d="M 6 2 L 6 3 L 7 3 L 7 2 Z M 8 2 L 8 3 L 9 3 L 9 2 Z M 10 2 L 10 3 L 11 3 L 11 2 Z M 12 2 L 12 3 L 13 3 L 13 2 Z M 12 4 L 12 5 L 13 5 L 13 4 Z M 2 6 L 2 7 L 3 7 L 3 6 Z M 12 6 L 12 7 L 13 7 L 13 6 Z M 2 8 L 2 9 L 3 9 L 3 8 Z M 4 8 L 4 9 L 5 9 L 5 8 Z M 6 8 L 6 9 L 7 9 L 7 8 Z M 8 8 L 8 9 L 9 9 L 9 8 Z M 10 8 L 10 9 L 11 9 L 11 8 Z M 12 8 L 12 9 L 13 9 L 13 8 Z M 12 8 "/>
<path style=" stroke:none;fill-rule:nonzero;fill:rgb(11.372549%,60%,95.294118%);fill-opacity:1;" d="M 2 0 L 2 2 L 0 2 L 0 3 L 2 3 L 2 5 L 3 5 L 3 3 L 5 3 L 5 2 L 3 2 L 3 0 Z M 2 0 "/>
</g>
</svg>
