<?xml version="1.0" encoding="UTF-8"?>
<svg xmlns="http://www.w3.org/2000/svg" xmlns:xlink="http://www.w3.org/1999/xlink" width="10pt" height="12pt" viewBox="0 0 10 12" version="1.1">
<g id="surface1">
<path style=" stroke:none;fill-rule:nonzero;fill:rgb(30.196078%,30.196078%,30.196078%);fill-opacity:1;" d="M 4 0 C 1.789062 0 0 1.789062 0 4 C 0 6.210938 1.789062 8 4 8 L 4 12 L 5 12 L 5 1 L 6 1 L 6 12 L 7 12 L 7 0 Z M 4 0 "/>
<path style=" stroke:none;fill-rule:nonzero;fill:rgb(95.686275%,46.666667%,31.372549%);fill-opacity:1;" d="M 9 0 C 8.449219 0 8 0.449219 8 1 C 8 1.550781 8.449219 2 9 2 C 9.550781 2 10 1.550781 10 1 C 10 0.449219 9.550781 0 9 0 Z M 9 3 C 8.449219 3 8 3.449219 8 4 C 8 4.550781 8.449219 5 9 5 C 9.550781 5 10 4.550781 10 4 C 10 3.449219 9.550781 3 9 3 Z M 9 6 C 8.449219 6 8 6.449219 8 7 C 8 7.550781 8.449219 8 9 8 C 9.550781 8 10 7.550781 10 7 C 10 6.449219 9.550781 6 9 6 Z M 9 6 "/>
</g>
</svg>
