<?xml version="1.0" encoding="UTF-8"?>
<svg xmlns="http://www.w3.org/2000/svg" xmlns:xlink="http://www.w3.org/1999/xlink" width="12pt" height="10pt" viewBox="0 0 12 10" version="1.1">
<g id="surface1">
<path style=" stroke:none;fill-rule:nonzero;fill:rgb(30.196078%,30.196078%,30.196078%);fill-opacity:1;" d="M 0 0 L 0 1 L 2 1 L 2 0 Z M 4 0 L 4 1 L 7 1 L 7 0 Z M 0 2 L 0 3 L 6 3 L 6 2 Z M 0 7 L 0 8 L 6 8 L 6 7 Z M 0 9 L 0 10 L 2 10 L 2 9 Z M 4 9 L 4 10 L 6 10 L 6 9 Z M 4 9 "/>
<path style=" stroke:none;fill-rule:nonzero;fill:rgb(11.372549%,60%,95.294118%);fill-opacity:1;" d="M 8 0 L 10 3 L 12 0 Z M 10 7 L 8 10 L 12 10 Z M 10 7 "/>
</g>
</svg>
