<?xml version="1.0" encoding="UTF-8"?>
<svg xmlns="http://www.w3.org/2000/svg" xmlns:xlink="http://www.w3.org/1999/xlink" width="14pt" height="13pt" viewBox="0 0 14 13" version="1.1">
<g id="surface1">
<path style=" stroke:none;fill-rule:nonzero;fill:rgb(30.196078%,30.196078%,30.196078%);fill-opacity:1;" d="M 5.257812 0 C 4.25 0 3.347656 0.285156 2.554688 0.851562 C 1.757812 1.414062 1.128906 2.210938 0.675781 3.25 C 0.226562 4.277344 0 5.414062 0 6.652344 C 0 7.925781 0.339844 8.914062 1.015625 9.617188 C 1.691406 10.320312 2.640625 10.671875 3.859375 10.671875 L 3.976562 10.671875 L 4.09375 10.660156 L 5.664062 13 L 7.328125 13 L 5.375 10.433594 C 6.492188 10.058594 7.375 9.296875 8.023438 8.148438 C 8.675781 6.996094 9 5.640625 9 4.085938 C 9 2.8125 8.667969 1.816406 8.003906 1.09375 C 7.34375 0.363281 6.429688 0 5.257812 0 Z M 5.167969 1.148438 C 5.9375 1.148438 6.535156 1.40625 6.96875 1.921875 C 7.402344 2.4375 7.621094 3.148438 7.621094 4.054688 C 7.621094 5.121094 7.457031 6.074219 7.132812 6.914062 C 6.808594 7.753906 6.367188 8.402344 5.808594 8.859375 C 5.253906 9.304688 4.617188 9.53125 3.902344 9.53125 C 3.125 9.53125 2.511719 9.28125 2.0625 8.773438 C 1.613281 8.261719 1.386719 7.546875 1.386719 6.625 C 1.386719 5.597656 1.546875 4.664062 1.863281 3.820312 C 2.179688 2.976562 2.628906 2.320312 3.207031 1.851562 C 3.785156 1.382812 4.4375 1.148438 5.167969 1.148438 Z M 5.167969 1.148438 "/>
<path style=" stroke:none;fill-rule:nonzero;fill:rgb(11.372549%,60%,95.294118%);fill-opacity:1;" d="M 9 7 L 9 9 L 10 9 L 10 10 C 10 10.550781 9.550781 11 9 11 L 9 12 C 10.105469 12 11 11.105469 11 10 L 11 7 Z M 12 7 L 12 9 L 13 9 L 13 10 C 13 10.550781 12.550781 11 12 11 L 12 12 C 13.105469 12 14 11.105469 14 10 L 14 7 Z M 12 7 "/>
</g>
</svg>
