<?xml version="1.0" encoding="UTF-8"?>
<svg xmlns="http://www.w3.org/2000/svg" xmlns:xlink="http://www.w3.org/1999/xlink" width="12pt" height="12pt" viewBox="0 0 12 12" version="1.1">
<g id="surface1">
<path style=" stroke:none;fill-rule:nonzero;fill:rgb(30.196078%,30.196078%,30.196078%);fill-opacity:1;" d="M 6 0 C 4.890625 0 3.859375 0.320312 2.96875 0.84375 L 5.65625 3.53125 L 6.375 2.8125 L 4.75 1.1875 C 4.945312 1.136719 5.140625 1.089844 5.34375 1.0625 C 5.394531 1.054688 5.445312 1.039062 5.5 1.03125 C 5.667969 1.015625 5.828125 1 6 1 C 8.761719 1 11 3.238281 11 6 C 11 6.242188 10.972656 6.484375 10.9375 6.71875 C 10.917969 6.855469 10.90625 6.992188 10.875 7.125 C 10.808594 7.410156 10.707031 7.671875 10.59375 7.9375 C 10.582031 7.96875 10.578125 8 10.5625 8.03125 C 10.523438 8.121094 10.453125 8.195312 10.40625 8.28125 C 10.402344 8.289062 10.410156 8.304688 10.40625 8.3125 L 11.15625 9.03125 C 11.679688 8.140625 12 7.109375 12 6 C 12 2.6875 9.3125 0 6 0 Z M 0.84375 2.96875 C 0.320312 3.859375 0 4.890625 0 6 C 0 9.3125 2.6875 12 6 12 C 7.109375 12 8.140625 11.679688 9.03125 11.15625 L 8.28125 10.40625 L 6.34375 8.5 L 5.65625 9.1875 L 7.25 10.8125 C 7.054688 10.863281 6.859375 10.910156 6.65625 10.9375 C 6.605469 10.945312 6.554688 10.960938 6.5 10.96875 C 6.332031 10.984375 6.171875 11 6 11 C 5.828125 11 5.667969 10.984375 5.5 10.96875 C 5.332031 10.953125 5.164062 10.941406 5 10.90625 C 2.722656 10.441406 1 8.417969 1 6 C 1 5.75 1.027344 5.519531 1.0625 5.28125 C 1.082031 5.144531 1.09375 5.007812 1.125 4.875 C 1.191406 4.589844 1.292969 4.328125 1.40625 4.0625 C 1.417969 4.03125 1.425781 4 1.4375 3.96875 C 1.476562 3.878906 1.546875 3.804688 1.59375 3.71875 L 1.59375 3.6875 Z M 0.84375 2.96875 "/>
</g>
</svg>
