<?xml version="1.0" encoding="UTF-8"?>
<svg xmlns="http://www.w3.org/2000/svg" xmlns:xlink="http://www.w3.org/1999/xlink" width="11pt" height="12pt" viewBox="0 0 11 12" version="1.1">
<g id="surface1">
<path style=" stroke:none;fill-rule:nonzero;fill:rgb(30.196078%,30.196078%,30.196078%);fill-opacity:1;" d="M 2 0 L 2 1 L 0 1 L 0 12 L 5 12 L 5 11 L 1 11 L 1 2 L 9 2 L 9 7 L 10 7 L 10 1 L 8 1 L 8 0 Z M 2 3 L 2 4 L 8 4 L 8 3 Z M 2 5 L 2 6 L 7 6 L 7 5 Z M 2 7 L 2 8 L 5 8 L 5 7 Z M 8 8 L 5 9.5 L 8 11 L 8 10 L 11 10 L 11 8 L 10 8 L 10 9 L 8 9 Z M 8 8 "/>
</g>
</svg>
