<?xml version="1.0" encoding="UTF-8"?>
<svg xmlns="http://www.w3.org/2000/svg" xmlns:xlink="http://www.w3.org/1999/xlink" width="12pt" height="12pt" viewBox="0 0 12 12" version="1.1">
<g id="surface1">
<path style=" stroke:none;fill-rule:nonzero;fill:rgb(30.196078%,30.196078%,30.196078%);fill-opacity:1;" d="M 0 0 L 0 12 L 5 12 L 5 5 L 12 5 L 12 0 Z M 1 1 L 4 1 L 4 4 L 1 4 Z M 5 1 L 7 1 L 7 4 L 5 4 Z M 8 1 L 11 1 L 11 4 L 8 4 Z M 1 5 L 4 5 L 4 7 L 1 7 Z M 1 8 L 4 8 L 4 11 L 1 11 Z M 1 8 "/>
<path style=" stroke:none;fill-rule:nonzero;fill:rgb(85.490196%,26.666667%,32.54902%);fill-opacity:1;" d="M 6.992188 6 L 6 6.992188 L 8.011719 9 L 6 11.011719 L 6.992188 12 L 9 9.988281 L 11.011719 12 L 12 11.011719 L 9.988281 9 L 12 6.992188 L 11.011719 6 L 9 8.011719 Z M 6.992188 6 "/>
</g>
</svg>
