<?xml version="1.0" encoding="UTF-8"?>
<svg xmlns="http://www.w3.org/2000/svg" xmlns:xlink="http://www.w3.org/1999/xlink" width="12pt" height="12pt" viewBox="0 0 12 12" version="1.1">
<g id="surface1">
<path style=" stroke:none;fill-rule:nonzero;fill:rgb(30.196078%,30.196078%,30.196078%);fill-opacity:1;" d="M 5.5 0 L 3.1875 2.28125 L 3 2.5 L 3.1875 2.71875 L 5.5 5 L 6.90625 5 L 4.90625 3 L 8 3 L 8 2 L 4.90625 2 L 6.90625 0 Z M 10.5 3 C 10.222656 3 10 3.222656 10 3.5 C 10 3.777344 10.222656 4 10.5 4 C 10.777344 4 11 3.777344 11 3.5 C 11 3.222656 10.777344 3 10.5 3 Z M 3.53125 4.5625 L 0 8.09375 L 3.90625 12 L 7.4375 8.46875 Z M 11.5 6 C 11.222656 6 11 6.222656 11 6.5 C 11 6.777344 11.222656 7 11.5 7 C 11.777344 7 12 6.777344 12 6.5 C 12 6.222656 11.777344 6 11.5 6 Z M 10.5 9 C 10.222656 9 10 9.222656 10 9.5 C 10 9.777344 10.222656 10 10.5 10 C 10.777344 10 11 9.777344 11 9.5 C 11 9.222656 10.777344 9 10.5 9 Z M 7.5 10 C 7.222656 10 7 10.222656 7 10.5 C 7 10.777344 7.222656 11 7.5 11 C 7.777344 11 8 10.777344 8 10.5 C 8 10.222656 7.777344 10 7.5 10 Z M 7.5 10 "/>
</g>
</svg>
