<?xml version="1.0" encoding="UTF-8"?>
<svg xmlns="http://www.w3.org/2000/svg" xmlns:xlink="http://www.w3.org/1999/xlink" width="12pt" height="11pt" viewBox="0 0 12 11" version="1.1">
<g id="surface1">
<path style=" stroke:none;fill-rule:nonzero;fill:rgb(30.196078%,30.196078%,30.196078%);fill-opacity:1;" d="M 2 0 L 2 2 L 0 2 L 0 3 L 2 3 L 2 5 L 5 5 L 5 4 L 3 4 L 3 1 L 5 1 L 5 0 Z M 7 0 L 7 1 L 9 1 L 9 4 L 7 4 L 7 5 L 10 5 L 10 3 L 12 3 L 12 2 L 10 2 L 10 0 Z M 5 2 L 5 3 L 7 3 L 7 2 Z M 5 2 "/>
<path style=" stroke:none;fill-rule:nonzero;fill:rgb(85.490196%,26.666667%,32.54902%);fill-opacity:1;" d="M 6.992188 5 L 6 5.992188 L 8.011719 8 L 6 10.011719 L 6.992188 11 L 9 8.988281 L 11.011719 11 L 12 10.011719 L 9.988281 8 L 12 5.992188 L 11.011719 5 L 9 7.011719 Z M 6.992188 5 "/>
</g>
</svg>
