<?xml version="1.0" encoding="UTF-8"?>
<svg xmlns="http://www.w3.org/2000/svg" xmlns:xlink="http://www.w3.org/1999/xlink" width="12pt" height="10pt" viewBox="0 0 12 10" version="1.1">
<g id="surface1">
<path style=" stroke:none;fill-rule:nonzero;fill:rgb(30.196078%,30.196078%,30.196078%);fill-opacity:1;" d="M 2 0 C 0.890625 0 0 0.890625 0 2 L 0 8 C 0 9.109375 0.890625 10 2 10 L 10 10 C 11.109375 10 12 9.109375 12 8 L 12 2 C 12 0.890625 11.109375 0 10 0 Z M 2 1 L 10 1 C 10.554688 1 11 1.445312 11 2 L 11 8 C 11 8.554688 10.554688 9 10 9 L 2 9 C 1.445312 9 1 8.554688 1 8 L 1 2 C 1 1.445312 1.445312 1 2 1 Z M 2 1 "/>
</g>
</svg>
