<?xml version="1.0" encoding="UTF-8"?>
<svg xmlns="http://www.w3.org/2000/svg" xmlns:xlink="http://www.w3.org/1999/xlink" width="12pt" height="12pt" viewBox="0 0 12 12" version="1.1">
<g id="surface1">
<path style=" stroke:none;fill-rule:nonzero;fill:rgb(30.196078%,30.196078%,30.196078%);fill-opacity:1;" d="M 4.5 0 C 2.015625 0 0 2.015625 0 4.5 C 0 6.984375 2.015625 9 4.5 9 C 5.5625 9 6.542969 8.617188 7.3125 8 L 11.3125 12 L 12 11.3125 L 8 7.3125 C 8.617188 6.542969 9 5.5625 9 4.5 C 9 2.015625 6.984375 0 4.5 0 Z M 4.5 1 C 6.433594 1 8 2.566406 8 4.5 C 8 6.433594 6.433594 8 4.5 8 C 2.566406 8 1 6.433594 1 4.5 C 1 2.566406 2.566406 1 4.5 1 Z M 4.5 1 "/>
</g>
</svg>
