<?xml version="1.0" encoding="UTF-8"?>
<svg xmlns="http://www.w3.org/2000/svg" xmlns:xlink="http://www.w3.org/1999/xlink" width="12pt" height="12pt" viewBox="0 0 12 12" version="1.1">
<g id="surface1">
<path style=" stroke:none;fill-rule:nonzero;fill:rgb(30.196078%,30.196078%,30.196078%);fill-opacity:1;" d="M 5.09375 0 L 7.09375 2 L 4 2 L 4 3 L 7.09375 3 L 5.09375 5 L 6.5 5 L 8.8125 2.71875 L 9 2.5 L 8.8125 2.28125 L 6.5 0 Z M 1.5 3 C 1.222656 3 1 3.222656 1 3.5 C 1 3.777344 1.222656 4 1.5 4 C 1.777344 4 2 3.777344 2 3.5 C 2 3.222656 1.777344 3 1.5 3 Z M 8.46875 4.5625 L 4.5625 8.46875 L 8.09375 12 L 12 8.09375 Z M 0.5 6 C 0.222656 6 0 6.222656 0 6.5 C 0 6.777344 0.222656 7 0.5 7 C 0.777344 7 1 6.777344 1 6.5 C 1 6.222656 0.777344 6 0.5 6 Z M 1.5 9 C 1.222656 9 1 9.222656 1 9.5 C 1 9.777344 1.222656 10 1.5 10 C 1.777344 10 2 9.777344 2 9.5 C 2 9.222656 1.777344 9 1.5 9 Z M 4.5 10 C 4.222656 10 4 10.222656 4 10.5 C 4 10.777344 4.222656 11 4.5 11 C 4.777344 11 5 10.777344 5 10.5 C 5 10.222656 4.777344 10 4.5 10 Z M 4.5 10 "/>
</g>
</svg>
