<?xml version="1.0" encoding="UTF-8"?>
<svg xmlns="http://www.w3.org/2000/svg" xmlns:xlink="http://www.w3.org/1999/xlink" width="13pt" height="11pt" viewBox="0 0 13 11" version="1.1">
<g id="surface1">
<path style=" stroke:none;fill-rule:nonzero;fill:rgb(30.196078%,30.196078%,30.196078%);fill-opacity:1;" d="M 4.382812 0 L 0 11 L 1.359375 11 L 2.546875 8 L 7.476562 8 L 8.625 11 L 10 11 L 5.75 0 Z M 5.0625 1.328125 C 5.175781 1.703125 5.773438 3.410156 6.859375 6.445312 L 7.085938 7 L 2.941406 7 Z M 5.0625 1.328125 "/>
<path style=" stroke:none;fill-rule:nonzero;fill:rgb(11.372549%,60%,95.294118%);fill-opacity:1;" d="M 9 0 L 9 5 L 11.5 5 C 12.328125 5 13 4.328125 13 3.5 C 13 2.964844 12.730469 2.484375 12.3125 2.21875 C 12.429688 2.007812 12.5 1.757812 12.5 1.5 C 12.5 0.671875 11.828125 0 11 0 Z M 10 1 L 11 1 C 11.277344 1 11.5 1.222656 11.5 1.5 C 11.5 1.777344 11.277344 2 11 2 L 10 2 Z M 10 3 L 11.5 3 C 11.777344 3 12 3.222656 12 3.5 C 12 3.777344 11.777344 4 11.5 4 L 10 4 Z M 10 3 "/>
</g>
</svg>
