<?xml version="1.0" encoding="UTF-8"?>
<svg xmlns="http://www.w3.org/2000/svg" xmlns:xlink="http://www.w3.org/1999/xlink" width="4pt" height="12pt" viewBox="0 0 4 12" version="1.1">
<g id="surface1">
<path style=" stroke:none;fill-rule:nonzero;fill:rgb(30.196078%,30.196078%,30.196078%);fill-opacity:1;" d="M 0 0 L 0 1 L 1 1 C 1.550781 1 2 1.449219 2 2 L 2 5 C 2 5.382812 2.140625 5.734375 2.375 6 C 2.140625 6.265625 2 6.617188 2 7 L 2 10 C 2 10.550781 1.550781 11 1 11 L 0 11 L 0 12 L 1 12 C 2.105469 12 3 11.105469 3 10 L 3 7 C 3 6.722656 3.222656 6.5 3.5 6.5 L 4 6.5 L 4 5.5 L 3.5 5.5 C 3.222656 5.5 3 5.277344 3 5 L 3 2 C 3 0.894531 2.105469 0 1 0 Z M 0 0 "/>
</g>
</svg>
