<?xml version="1.0" encoding="UTF-8"?>
<svg xmlns="http://www.w3.org/2000/svg" xmlns:xlink="http://www.w3.org/1999/xlink" width="12pt" height="12pt" viewBox="0 0 12 12" version="1.1">
<g id="surface1">
<path style=" stroke:none;fill-rule:nonzero;fill:rgb(30.196078%,30.196078%,30.196078%);fill-opacity:1;" d="M 6 0 L 4.90625 2.1875 C 5.253906 2.089844 5.621094 2 6 2 C 6.378906 2 6.746094 2.089844 7.09375 2.1875 Z M 1.75 1.75 L 2.53125 4.0625 C 2.894531 3.410156 3.410156 2.894531 4.0625 2.53125 Z M 10.25 1.75 L 7.9375 2.53125 C 8.589844 2.894531 9.105469 3.410156 9.46875 4.0625 Z M 6 3 C 4.34375 3 3 4.34375 3 6 C 3 7.65625 4.34375 9 6 9 C 7.65625 9 9 7.65625 9 6 C 9 4.34375 7.65625 3 6 3 Z M 2.1875 4.90625 L 0 6 L 2.1875 7.09375 C 2.089844 6.746094 2 6.378906 2 6 C 2 5.621094 2.089844 5.253906 2.1875 4.90625 Z M 9.8125 4.90625 C 9.910156 5.253906 10 5.621094 10 6 C 10 6.378906 9.910156 6.746094 9.8125 7.09375 L 12 6 Z M 2.53125 7.9375 L 1.75 10.25 L 4.0625 9.46875 C 3.410156 9.105469 2.894531 8.589844 2.53125 7.9375 Z M 9.46875 7.9375 C 9.105469 8.589844 8.589844 9.105469 7.9375 9.46875 L 10.25 10.25 Z M 4.90625 9.8125 L 6 12 L 7.09375 9.8125 C 6.746094 9.910156 6.378906 10 6 10 C 5.621094 10 5.253906 9.910156 4.90625 9.8125 Z M 4.90625 9.8125 "/>
</g>
</svg>
