<?xml version="1.0" encoding="UTF-8"?>
<svg xmlns="http://www.w3.org/2000/svg" xmlns:xlink="http://www.w3.org/1999/xlink" width="12.000063pt" height="12.00225pt" viewBox="0 0 12.000063 12.00225" version="1.1">
<g id="surface1">
<path style=" stroke:none;fill-rule:nonzero;fill:rgb(30.196078%,30.196078%,30.196078%);fill-opacity:1;" d="M 6 0.00390625 C 2.859375 0.00390625 0 0.953125 0 2.003906 L 0 6.003906 C 0.0078125 6.667969 0.773438 6.984375 1 7.097656 C 2.082031 7.648438 4.023438 8 6 8.003906 C 7.976562 8 9.917969 7.648438 11 7.097656 L 11 10.003906 C 10.992188 10.152344 10.851562 10.246094 10.78125 10.285156 C 9.621094 10.726562 8.21875 10.929688 7 11.003906 L 7 11.972656 C 7.632812 11.941406 8.230469 11.847656 8.8125 11.753906 C 10.167969 11.507812 11.222656 11.085938 11.6875 10.597656 C 11.78125 10.503906 11.855469 10.410156 11.90625 10.316406 C 11.960938 10.210938 11.992188 10.105469 12 10.003906 L 12 2.003906 C 12.015625 1.019531 9.53125 0.101562 6.59375 0.00390625 C 6.394531 0 6.199219 0 6 0.00390625 Z M 6 1.003906 C 6.28125 0.996094 6.5625 0.996094 6.84375 1.003906 C 6.863281 1.003906 6.886719 1.003906 6.90625 1.003906 C 9.210938 1.085938 11.039062 1.535156 11 2.003906 C 11 2.527344 8.617188 3.003906 6 3.003906 C 3.382812 3.003906 1 2.527344 1 2.003906 C 1 1.480469 3.382812 1.003906 6 1.003906 Z M 1 3.097656 C 2.082031 3.648438 4.023438 4 6 4.003906 C 7.976562 4 9.917969 3.648438 11 3.097656 L 11 6.003906 C 11 6.527344 8.617188 7.003906 6 7.003906 C 3.382812 7.003906 1 6.527344 1 6.003906 Z M 0.6875 7.316406 L 0 8.003906 L 1.65625 9.660156 L 0 11.316406 L 0.6875 12.003906 L 2.6875 10.003906 L 3.0625 9.660156 L 2.6875 9.316406 Z M 3 11.003906 L 3 12.003906 L 6 12.003906 L 6 11.003906 Z M 3 11.003906 "/>
</g>
</svg>
