<?xml version="1.0" encoding="UTF-8"?>
<svg xmlns="http://www.w3.org/2000/svg" xmlns:xlink="http://www.w3.org/1999/xlink" width="12pt" height="12pt" viewBox="0 0 12 12" version="1.1">
<g id="surface1">
<path style=" stroke:none;fill-rule:nonzero;fill:rgb(30.196078%,30.196078%,30.196078%);fill-opacity:1;" d="M 6 0 C 5.171875 0 4.242188 1.757812 4.242188 1.757812 C 4.242188 1.757812 2.34375 1.171875 1.757812 1.757812 C 1.171875 2.34375 1.757812 4.242188 1.757812 4.242188 C 1.757812 4.242188 0 5.171875 0 6 C 0 6.828125 1.757812 7.757812 1.757812 7.757812 C 1.757812 7.757812 1.171875 9.65625 1.757812 10.242188 C 2.34375 10.828125 4.242188 10.242188 4.242188 10.242188 C 4.242188 10.242188 5.171875 12 6 12 C 6.828125 12 7.757812 10.242188 7.757812 10.242188 C 7.757812 10.242188 9.65625 10.828125 10.242188 10.242188 C 10.828125 9.65625 10.242188 7.757812 10.242188 7.757812 C 10.242188 7.757812 12 6.828125 12 6 C 12 5.171875 10.242188 4.242188 10.242188 4.242188 C 10.242188 4.242188 10.828125 2.34375 10.242188 1.757812 C 9.65625 1.171875 7.757812 1.757812 7.757812 1.757812 C 7.757812 1.757812 6.828125 0 6 0 Z M 6 3 C 7.65625 3 9 4.34375 9 6 C 9 7.65625 7.65625 9 6 9 C 4.34375 9 3 7.65625 3 6 C 3 4.34375 4.34375 3 6 3 Z M 6 3 "/>
</g>
</svg>
