<?xml version="1.0" encoding="UTF-8"?>
<svg xmlns="http://www.w3.org/2000/svg" xmlns:xlink="http://www.w3.org/1999/xlink" width="12pt" height="12pt" viewBox="0 0 12 12" version="1.1">
<g id="surface1">
<path style=" stroke:none;fill-rule:nonzero;fill:rgb(30.196078%,30.196078%,30.196078%);fill-opacity:1;" d="M 6 0 C 2.6875 0 0 2.6875 0 6 C 0 9.3125 2.6875 12 6 12 C 9.3125 12 12 9.3125 12 6 C 12 2.6875 9.3125 0 6 0 Z M 4 3 C 4.550781 3 5 3.449219 5 4 C 5 4.550781 4.550781 5 4 5 C 3.449219 5 3 4.550781 3 4 C 3 3.449219 3.449219 3 4 3 Z M 8 3 C 8.550781 3 9 3.449219 9 4 C 9 4.550781 8.550781 5 8 5 C 7.449219 5 7 4.550781 7 4 C 7 3.449219 7.449219 3 8 3 Z M 3 7 L 9 7 C 9 8.65625 7.65625 10 6 10 C 4.34375 10 3 8.65625 3 7 Z M 3 7 "/>
</g>
</svg>
