<?xml version="1.0" encoding="UTF-8"?>
<svg xmlns="http://www.w3.org/2000/svg" xmlns:xlink="http://www.w3.org/1999/xlink" width="13pt" height="9pt" viewBox="0 0 13 9" version="1.1">
<g id="surface1">
<path style=" stroke:none;fill-rule:nonzero;fill:rgb(30.196078%,30.196078%,30.196078%);fill-opacity:1;" d="M 4 4 L 4 5 L 5 5 L 5 4 Z M 6 4 L 6 5 L 7 5 L 7 4 Z M 8 4 L 8 5 L 9 5 L 9 4 Z M 10 4 L 10 5 L 11 5 L 11 4 Z M 12 4 L 12 5 L 13 5 L 13 4 Z M 4 6 L 4 7 L 5 7 L 5 6 Z M 12 6 L 12 7 L 13 7 L 13 6 Z M 4 8 L 4 9 L 5 9 L 5 8 Z M 6 8 L 6 9 L 7 9 L 7 8 Z M 8 8 L 8 9 L 9 9 L 9 8 Z M 10 8 L 10 9 L 11 9 L 11 8 Z M 12 8 L 12 9 L 13 9 L 13 8 Z M 12 8 "/>
<path style=" stroke:none;fill-rule:nonzero;fill:rgb(11.372549%,60%,95.294118%);fill-opacity:1;" d="M 4 0 L 4 3 L 5 3 L 5 2 L 12 2 L 12 3 L 13 3 L 13 0 L 12 0 L 12 1 L 5 1 L 5 0 Z M 0 4 L 0 5 L 1 5 L 1 8 L 0 8 L 0 9 L 3 9 L 3 8 L 2 8 L 2 5 L 3 5 L 3 4 Z M 0 4 "/>
</g>
</svg>
