<?xml version="1.0" encoding="UTF-8"?>
<svg xmlns="http://www.w3.org/2000/svg" xmlns:xlink="http://www.w3.org/1999/xlink" width="8pt" height="12pt" viewBox="0 0 8 12" version="1.1">
<g id="surface1">
<path style=" stroke:none;fill-rule:nonzero;fill:rgb(30.196078%,30.196078%,30.196078%);fill-opacity:1;" d="M 2 0 C 0.894531 0 0 0.894531 0 2 L 0 10 C 0 11.105469 0.894531 12 2 12 L 3 12 L 3 11 L 2 11 C 1.449219 11 1 10.550781 1 10 L 1 2 C 1 1.449219 1.449219 1 2 1 L 3 1 L 3 0 Z M 5 0 L 5 1 L 6 1 C 6.550781 1 7 1.449219 7 2 L 7 10 C 7 10.550781 6.550781 11 6 11 L 5 11 L 5 12 L 6 12 C 7.105469 12 8 11.105469 8 10 L 8 2 C 8 0.894531 7.105469 0 6 0 Z M 5 0 "/>
</g>
</svg>
