<?xml version="1.0" encoding="UTF-8"?>
<svg xmlns="http://www.w3.org/2000/svg" xmlns:xlink="http://www.w3.org/1999/xlink" width="12pt" height="12pt" viewBox="0 0 12 12" version="1.1">
<g id="surface1">
<path style=" stroke:none;fill-rule:nonzero;fill:rgb(70.196078%,70.196078%,70.196078%);fill-opacity:1;" d="M 4 0 L 0 4 L 0 8 L 4 12 L 8 12 L 12 8 L 12 4 L 8 0 Z M 4 0 "/>
<path style=" stroke:none;fill-rule:nonzero;fill:rgb(30.196078%,30.196078%,30.196078%);fill-opacity:1;" d="M 4.53125 0 L 5.53125 3 L 6.46875 3 L 7.46875 0 Z M 3.625 0.375 L 0.375 3.625 L 3.28125 4.59375 L 4.59375 3.28125 Z M 8.375 0.375 L 7.40625 3.28125 L 8.71875 4.59375 L 11.625 3.625 Z M 0 4.53125 L 0 7.46875 L 3 6.46875 L 3 5.53125 Z M 12 4.53125 L 9 5.53125 L 9 6.46875 L 12 7.46875 Z M 3.28125 7.40625 L 0.375 8.375 L 3.625 11.625 L 4.59375 8.71875 Z M 8.71875 7.40625 L 7.40625 8.71875 L 8.375 11.625 L 11.625 8.375 Z M 5.53125 9 L 4.53125 12 L 7.46875 12 L 6.46875 9 Z M 5.53125 9 "/>
</g>
</svg>
