<?xml version="1.0" encoding="UTF-8"?>
<svg xmlns="http://www.w3.org/2000/svg" xmlns:xlink="http://www.w3.org/1999/xlink" width="4pt" height="12pt" viewBox="0 0 4 12" version="1.1">
<g id="surface1">
<path style=" stroke:none;fill-rule:nonzero;fill:rgb(30.196078%,30.196078%,30.196078%);fill-opacity:1;" d="M 3 0 C 1.894531 0 1 0.894531 1 2 L 1 5 C 1 5.277344 0.777344 5.5 0.5 5.5 L 0 5.5 L 0 6.5 L 0.5 6.5 C 0.777344 6.5 1 6.722656 1 7 L 1 10 C 1 11.105469 1.894531 12 3 12 L 4 12 L 4 11 L 3 11 C 2.449219 11 2 10.550781 2 10 L 2 7 C 2 6.617188 1.859375 6.265625 1.625 6 C 1.859375 5.734375 2 5.382812 2 5 L 2 2 C 2 1.449219 2.449219 1 3 1 L 4 1 L 4 0 Z M 3 0 "/>
</g>
</svg>
