<?xml version="1.0" encoding="UTF-8"?>
<svg xmlns="http://www.w3.org/2000/svg" xmlns:xlink="http://www.w3.org/1999/xlink" width="12.000063pt" height="12.002449pt" viewBox="0 0 12.000063 12.002449" version="1.1">
<g id="surface1">
<path style=" stroke:none;fill-rule:nonzero;fill:rgb(30.196078%,30.196078%,30.196078%);fill-opacity:1;" d="M 5.40625 0.00390625 C 2.46875 0.101562 -0.015625 1.019531 0 2.003906 L 0 10.003906 C 0 11.050781 2.859375 12.003906 6 12.003906 C 6.335938 12 6.671875 11.992188 7 11.972656 L 7 11.003906 C 6.667969 11.007812 6.332031 11.007812 6 11.003906 C 3.382812 11.003906 1 10.527344 1 10.003906 L 1 7.097656 C 2.082031 7.648438 4.023438 8 6 8.003906 C 7.976562 8 9.917969 7.648438 11 7.097656 C 11.226562 6.984375 11.992188 6.667969 12 6.003906 L 12 2.003906 C 12 0.957031 9.140625 0.00390625 6 0.00390625 C 5.800781 0 5.605469 0 5.40625 0.00390625 Z M 5.09375 1.003906 C 5.113281 1.003906 5.136719 1.003906 5.15625 1.003906 C 5.4375 0.996094 5.71875 0.996094 6 1.003906 C 8.617188 1.003906 11 1.480469 11 2.003906 C 11 2.527344 8.617188 3.003906 6 3.003906 C 3.382812 3.003906 1 2.527344 1 2.003906 C 0.960938 1.535156 2.789062 1.085938 5.09375 1.003906 Z M 1 3.097656 C 2.082031 3.648438 4.023438 4 6 4.003906 C 7.976562 4 9.917969 3.648438 11 3.097656 L 11 6.003906 C 11 6.527344 8.617188 7.003906 6 7.003906 C 3.382812 7.003906 1 6.527344 1 6.003906 Z M 9 8.003906 L 9 9.253906 L 7 9.253906 L 7 10.753906 L 9 10.753906 L 9 12.003906 L 12 10.003906 Z M 9 8.003906 "/>
</g>
</svg>
