<?xml version="1.0" encoding="UTF-8"?>
<svg xmlns="http://www.w3.org/2000/svg" xmlns:xlink="http://www.w3.org/1999/xlink" width="13pt" height="12pt" viewBox="0 0 13 12" version="1.1">
<g id="surface1">
<path style=" stroke:none;fill-rule:nonzero;fill:rgb(30.196078%,30.196078%,30.196078%);fill-opacity:1;" d="M 4.382812 0 L 0 11 L 1.359375 11 L 2.546875 8 L 8.839844 8 L 5.75 0 Z M 5.0625 1.328125 C 5.175781 1.703125 5.773438 3.410156 6.859375 6.445312 L 7.085938 7 L 2.941406 7 Z M 5.0625 1.328125 "/>
<path style=" stroke:none;fill-rule:nonzero;fill:rgb(11.372549%,60%,95.294118%);fill-opacity:1;" d="M 10.5 0 L 10.28125 0.1875 L 8 2.5 L 8 3.90625 L 10 1.90625 L 10 5 L 11 5 L 11 1.90625 L 13 3.90625 L 13 2.5 L 10.71875 0.1875 Z M 10 7 L 10 10.09375 L 8 8.09375 L 8 9.5 L 10.28125 11.8125 L 10.5 12 L 10.71875 11.8125 L 13 9.5 L 13 8.09375 L 11 10.09375 L 11 7 Z M 10 7 "/>
</g>
</svg>
