<?xml version="1.0" encoding="UTF-8"?>
<svg xmlns="http://www.w3.org/2000/svg" xmlns:xlink="http://www.w3.org/1999/xlink" width="13pt" height="12pt" viewBox="0 0 13 12" version="1.1">
<g id="surface1">
<path style=" stroke:none;fill-rule:nonzero;fill:rgb(30.196078%,30.196078%,30.196078%);fill-opacity:1;" d="M 5 0 L 5 1 L 13 1 L 13 0 Z M 5 2 L 5 3 L 10 3 L 10 2 Z M 10 6 L 10 7 L 13 7 L 13 6 Z M 10 8 L 10 9 L 11 9 L 11 8 Z M 11 11 L 11 12 L 13 12 L 13 11 Z M 11 11 "/>
<path style=" stroke:none;fill-rule:nonzero;fill:rgb(11.372549%,60%,95.294118%);fill-opacity:1;" d="M 0 0 L 0 1 L 1 1 L 1 3 L 0 3 L 0 4 L 3 4 L 3 3 L 2 3 L 2 1 L 3 1 L 3 0 Z M 0 6 L 0 7 L 1 7 L 1 9 L 0 9 L 0 10 L 3 10 L 3 9 L 2 9 L 2 7 L 3 7 L 3 6 Z M 6 6 L 6 7 L 7 7 L 7 9 L 6 9 L 6 10 L 9 10 L 9 9 L 8 9 L 8 7 L 9 7 L 9 6 Z M 4 9 L 4 10 L 5 10 L 5 9 Z M 4 9 "/>
</g>
</svg>
