<?xml version="1.0" encoding="UTF-8"?>
<svg xmlns="http://www.w3.org/2000/svg" xmlns:xlink="http://www.w3.org/1999/xlink" width="12pt" height="12pt" viewBox="0 0 12 12" version="1.1">
<g id="surface1">
<path style=" stroke:none;fill-rule:nonzero;fill:rgb(30.196078%,30.196078%,30.196078%);fill-opacity:1;" d="M 0 0 L 0 5 L 2.5 5 C 3.328125 5 4 4.328125 4 3.5 C 4 2.964844 3.730469 2.484375 3.3125 2.21875 C 3.429688 2.007812 3.5 1.757812 3.5 1.5 C 3.5 0.671875 2.828125 0 2 0 Z M 8 0 L 8 5 L 10.5 5 C 11.328125 5 12 4.328125 12 3.5 L 12 1.5 C 12 0.671875 11.328125 0 10.5 0 Z M 1 1 L 2 1 C 2.277344 1 2.5 1.222656 2.5 1.5 C 2.5 1.777344 2.277344 2 2 2 L 1 2 Z M 9 1 L 10.5 1 C 10.777344 1 11 1.222656 11 1.5 L 11 3.5 C 11 3.777344 10.777344 4 10.5 4 L 9 4 Z M 5 2 L 5 3 L 7 3 L 7 2 Z M 1 3 L 2.5 3 C 2.777344 3 3 3.222656 3 3.5 C 3 3.777344 2.777344 4 2.5 4 L 1 4 Z M 0 7 L 0 8 L 3 8 L 3 7 Z M 5 7 L 5 8 L 7 8 L 7 7 Z M 9 7 L 9 8 L 12 8 L 12 7 Z M 4 9 L 0 10.5 L 4 12 Z M 8 9 L 8 12 L 12 10.5 Z M 6 10 C 5.722656 10 5.5 10.222656 5.5 10.5 C 5.5 10.777344 5.722656 11 6 11 C 6.277344 11 6.5 10.777344 6.5 10.5 C 6.5 10.222656 6.277344 10 6 10 Z M 6 10 "/>
</g>
</svg>
