<?xml version="1.0" encoding="UTF-8"?>
<svg xmlns="http://www.w3.org/2000/svg" xmlns:xlink="http://www.w3.org/1999/xlink" width="12pt" height="14pt" viewBox="0 0 12 14" version="1.1">
<g id="surface1">
<path style=" stroke:none;fill-rule:nonzero;fill:rgb(30.196078%,30.196078%,30.196078%);fill-opacity:1;" d="M 0 0 L 0 6 L 5 6 L 5 2 L 3.5 0 Z M 7 0 L 7 6 L 12 6 L 12 2 L 10.5 0 Z M 1 1 L 3.25 1 L 4 2 L 4 5 L 1 5 Z M 8 1 L 10.25 1 L 11 2 L 11 5 L 8 5 Z M 0 8 L 0 14 L 5 14 L 5 10 L 3.5 8 Z M 7 8 L 7 14 L 12 14 L 12 10 L 10.5 8 Z M 1 9 L 3.25 9 L 4 10 L 4 13 L 1 13 Z M 8 9 L 10.25 9 L 11 10 L 11 13 L 8 13 Z M 8 9 "/>
</g>
</svg>
