<?xml version="1.0" encoding="UTF-8"?>
<svg xmlns="http://www.w3.org/2000/svg" xmlns:xlink="http://www.w3.org/1999/xlink" width="12pt" height="10pt" viewBox="0 0 12 10" version="1.1">
<g id="surface1">
<path style=" stroke:none;fill-rule:nonzero;fill:rgb(30.196078%,30.196078%,30.196078%);fill-opacity:1;" d="M 1 3 L 1 7 L 0 7 L 0 10 L 3 10 L 3 9 L 9 9 L 9 10 L 12 10 L 12 7 L 11 7 L 11 3 L 10 3 L 10 7 L 9 7 L 9 8 L 3 8 L 3 7 L 2 7 L 2 3 Z M 1 3 "/>
<path style=" stroke:none;fill-rule:nonzero;fill:rgb(11.372549%,60%,95.294118%);fill-opacity:1;" d="M 0 0 L 0 3 L 3 3 L 3 2 L 9 2 L 9 3 L 12 3 L 12 0 L 9 0 L 9 1 L 3 1 L 3 0 Z M 0 0 "/>
</g>
</svg>
