<?xml version="1.0" encoding="UTF-8"?>
<svg xmlns="http://www.w3.org/2000/svg" xmlns:xlink="http://www.w3.org/1999/xlink" width="12pt" height="12pt" viewBox="0 0 12 12" version="1.1">
<g id="surface1">
<path style=" stroke:none;fill-rule:nonzero;fill:rgb(30.196078%,30.196078%,30.196078%);fill-opacity:1;" d="M 6 0 L 5.21875 3.09375 L 3 0.78125 L 3.875 3.875 L 0.8125 3 L 3.09375 5.21875 L 0 6 L 3.09375 6.78125 L 0.8125 9 L 3.875 8.125 L 3 11.1875 L 5 9 C 5.570312 8.257812 6.320312 7.550781 8 7 L 8.90625 6.78125 L 12 6 L 8.90625 5.21875 L 11.21875 3 L 8.125 3.875 L 9 0.78125 L 6.78125 3.09375 Z M 6.96875 8 L 6 8.25 L 6 8.75 L 7 8.5625 L 7 11.5625 L 6.09375 11.5625 L 6.09375 12 L 8.4375 12 L 8.4375 11.5625 L 7.53125 11.5625 L 7.53125 8 Z M 10.5625 8 C 10.402344 8 10.226562 8.019531 10.03125 8.0625 C 9.835938 8.105469 9.628906 8.164062 9.40625 8.25 L 9.40625 8.8125 C 9.625 8.695312 9.839844 8.589844 10.03125 8.53125 C 10.226562 8.472656 10.417969 8.4375 10.59375 8.4375 C 10.839844 8.4375 11.035156 8.523438 11.1875 8.65625 C 11.34375 8.789062 11.40625 8.949219 11.40625 9.15625 C 11.40625 9.285156 11.382812 9.429688 11.3125 9.5625 C 11.242188 9.695312 11.117188 9.839844 10.9375 10.03125 C 10.84375 10.132812 10.617188 10.367188 10.25 10.71875 C 9.886719 11.070312 9.585938 11.355469 9.375 11.5625 L 9.375 12 L 12 12 L 12 11.5625 L 10.0625 11.5625 C 10.511719 11.125 10.847656 10.773438 11.09375 10.53125 C 11.339844 10.289062 11.484375 10.144531 11.53125 10.09375 C 11.699219 9.898438 11.8125 9.738281 11.875 9.59375 C 11.9375 9.449219 11.96875 9.285156 11.96875 9.125 C 11.96875 8.785156 11.847656 8.515625 11.59375 8.3125 C 11.339844 8.109375 10.988281 8 10.5625 8 Z M 10.5625 8 "/>
</g>
</svg>
