<?xml version="1.0" encoding="UTF-8"?>
<svg xmlns="http://www.w3.org/2000/svg" xmlns:xlink="http://www.w3.org/1999/xlink" width="12pt" height="12pt" viewBox="0 0 12 12" version="1.1">
<g id="surface1">
<path style=" stroke:none;fill-rule:nonzero;fill:rgb(30.196078%,30.196078%,30.196078%);fill-opacity:1;" d="M 9.5 0 C 8.667969 0 8 0.667969 8 1.5 L 8 3 L 7 3 L 7 6 L 12 6 L 12 3 L 11 3 L 11 1.5 C 11 0.667969 10.332031 0 9.5 0 Z M 3 1 L 3 2 L 7 2 L 7 1 Z M 9.5 1 C 9.777344 1 10 1.222656 10 1.5 L 10 3 L 9 3 L 9 1.5 C 9 1.222656 9.222656 1 9.5 1 Z M 1 3 L 1 9 L 2 9 L 2 3 Z M 10 7 L 10 9 L 11 9 L 11 7 Z M 3 10 L 3 11 L 9 11 L 9 10 Z M 3 10 "/>
<path style=" stroke:none;fill-rule:nonzero;fill:rgb(11.372549%,60%,95.294118%);fill-opacity:1;" d="M 0 0 L 0 3 L 3 3 L 3 0 Z M 0 9 L 0 12 L 3 12 L 3 9 Z M 9 9 L 9 12 L 12 12 L 12 9 Z M 9 9 "/>
</g>
</svg>
