<?xml version="1.0" encoding="UTF-8"?>
<svg xmlns="http://www.w3.org/2000/svg" xmlns:xlink="http://www.w3.org/1999/xlink" width="12pt" height="12pt" viewBox="0 0 12 12" version="1.1">
<g id="surface1">
<path style=" stroke:none;fill-rule:nonzero;fill:rgb(70.196078%,70.196078%,70.196078%);fill-opacity:1;" d="M 5.757812 0.0234375 L 10 11 L 8.625 11 L 8.625 10.988281 L 8.625 11.003906 L 10.625 12 L 12 12 L 7.75 1 Z M 5.0625 1.328125 L 2.941406 7 L 5.3125 7 L 6.203125 4.578125 C 5.742188 3.265625 5.132812 1.566406 5.0625 1.328125 Z M 2.546875 8 L 1.359375 11 L 0 11 L 2 12 L 3.359375 12 L 4.546875 9 L 7.859375 9 L 7.476562 8 Z M 2.546875 8 "/>
<path style=" stroke:none;fill-rule:nonzero;fill:rgb(30.196078%,30.196078%,30.196078%);fill-opacity:1;" d="M 4.382812 0 L 0 11 L 1.359375 11 L 2.546875 8 L 7.476562 8 L 8.625 11 L 10 11 L 5.75 0 Z M 5.0625 1.328125 C 5.175781 1.703125 5.773438 3.410156 6.859375 6.445312 L 7.085938 7 L 2.941406 7 Z M 5.0625 1.328125 "/>
</g>
</svg>
