<?xml version="1.0" encoding="UTF-8"?>
<svg xmlns="http://www.w3.org/2000/svg" xmlns:xlink="http://www.w3.org/1999/xlink" width="16pt" height="12pt" viewBox="0 0 16 12" version="1.1">
<g id="surface1">
<path style=" stroke:none;fill-rule:nonzero;fill:rgb(30.196078%,30.196078%,30.196078%);fill-opacity:1;" d="M 6 0 L 6 1 L 14.59375 1 L 8 7.59375 L 6 5.59375 L 6 7 L 8 9 L 10.3125 6.71875 L 14.59375 11 L 6 11 L 6 12 L 16 12 L 16 0 Z M 15 2 L 15 10 L 11 6 Z M 0 3 L 0 4 L 5 4 L 5 3 Z M 2 6 L 2 7 L 5 7 L 5 6 Z M 3 9 L 3 10 L 5 10 L 5 9 Z M 3 9 "/>
</g>
</svg>
