<?xml version="1.0" encoding="UTF-8"?>
<svg xmlns="http://www.w3.org/2000/svg" xmlns:xlink="http://www.w3.org/1999/xlink" width="12pt" height="10pt" viewBox="0 0 12 10" version="1.1">
<g id="surface1">
<path style=" stroke:none;fill-rule:nonzero;fill:rgb(30.196078%,30.196078%,30.196078%);fill-opacity:1;" d="M 6 0 C 4.921875 0 4.015625 0.730469 3.796875 1.695312 C 3.445312 1.53125 3.042969 1.429688 2.625 1.429688 C 1.175781 1.429688 0 2.546875 0 3.929688 C 0 4.789062 0.449219 5.554688 1.148438 6.003906 C 0.46875 6.371094 0 7.058594 0 7.859375 C 0 9.039062 1.007812 10 2.25 10 C 2.828125 10 3.351562 9.785156 3.75 9.441406 C 4.148438 9.785156 4.671875 10 5.25 10 C 6.328125 10 7.234375 9.269531 7.453125 8.300781 C 7.804688 8.46875 8.207031 8.574219 8.625 8.574219 C 10.074219 8.574219 11.25 7.453125 11.25 6.070312 C 11.25 5.578125 11.085938 5.121094 10.828125 4.734375 C 11.523438 4.367188 12 3.667969 12 2.859375 C 12 1.675781 10.992188 0.714844 9.75 0.714844 C 9.09375 0.714844 8.496094 0.980469 8.085938 1.40625 C 7.765625 0.59375 6.964844 0 6 0 Z M 6 0 "/>
</g>
</svg>
