<?xml version="1.0" encoding="UTF-8"?>
<svg xmlns="http://www.w3.org/2000/svg" xmlns:xlink="http://www.w3.org/1999/xlink" width="12.353516pt" height="12.353516pt" viewBox="0 0 12.353516 12.353516" version="1.1">
<g id="surface1">
<path style=" stroke:none;fill-rule:nonzero;fill:rgb(30.196078%,30.196078%,30.196078%);fill-opacity:1;" d="M 5.5 0 C 4.742188 0 4.589844 1.320312 3.890625 1.609375 C 3.1875 1.902344 2.148438 1.074219 1.609375 1.609375 C 1.074219 2.148438 1.902344 3.1875 1.609375 3.890625 C 1.320312 4.589844 0 4.742188 0 5.5 C 0 6.257812 1.320312 6.410156 1.609375 7.109375 C 1.902344 7.8125 1.074219 8.851562 1.609375 9.390625 C 2.148438 9.925781 3.1875 9.097656 3.890625 9.390625 C 4.589844 9.679688 4.742188 11 5.5 11 C 6.257812 11 6.410156 9.679688 7.109375 9.390625 C 7.269531 9.324219 7.449219 9.320312 7.632812 9.339844 L 10.644531 12.355469 L 11 11 L 12.355469 10.644531 L 9.339844 7.632812 C 9.320312 7.449219 9.324219 7.269531 9.390625 7.109375 C 9.679688 6.410156 11 6.257812 11 5.5 C 11 4.742188 9.679688 4.589844 9.390625 3.890625 C 9.097656 3.1875 9.925781 2.148438 9.390625 1.609375 C 8.851562 1.074219 7.8125 1.902344 7.109375 1.609375 C 6.410156 1.320312 6.257812 0 5.5 0 Z M 5.5 3 C 6.878906 3 8 4.121094 8 5.5 C 8 6.878906 6.878906 8 5.5 8 C 4.121094 8 3 6.878906 3 5.5 C 3 4.121094 4.121094 3 5.5 3 Z M 5.5 3 "/>
</g>
</svg>
