<?xml version="1.0" encoding="UTF-8"?>
<svg xmlns="http://www.w3.org/2000/svg" xmlns:xlink="http://www.w3.org/1999/xlink" width="12pt" height="11.999551pt" viewBox="0 0 12 11.999551" version="1.1">
<g id="surface1">
<path style=" stroke:none;fill-rule:nonzero;fill:rgb(30.196078%,30.196078%,30.196078%);fill-opacity:1;" d="M 3.09375 0.00390625 C 3.117188 0.214844 3.195312 0.964844 3.242188 1.898438 C 3.265625 2.433594 3.285156 3.015625 3.265625 3.480469 C 3.253906 3.714844 3.222656 3.90625 3.191406 4.082031 C 3.160156 4.257812 3.136719 4.390625 3.070312 4.488281 C 2.960938 4.65625 2.867188 4.765625 2.757812 4.800781 C 2.652344 4.839844 2.550781 4.792969 2.445312 4.753906 C 2.238281 4.667969 1.972656 4.527344 1.464844 4.535156 C 0.957031 4.542969 0.597656 4.710938 0.359375 4.96875 C 0.121094 5.230469 0 5.597656 0 6 C 0 6.402344 0.121094 6.75 0.359375 7.007812 C 0.597656 7.269531 0.957031 7.433594 1.464844 7.441406 C 1.972656 7.449219 2.238281 7.308594 2.445312 7.222656 C 2.550781 7.183594 2.652344 7.140625 2.757812 7.175781 C 2.867188 7.214844 2.960938 7.324219 3.070312 7.488281 C 3.136719 7.585938 3.160156 7.722656 3.191406 7.894531 C 3.222656 8.070312 3.253906 8.289062 3.265625 8.519531 C 3.285156 8.988281 3.265625 9.542969 3.242188 10.078125 C 3.191406 11.03125 3.117188 11.808594 3.09375 12 C 3.226562 12 3.363281 11.980469 3.480469 11.976562 C 3.710938 11.964844 3.914062 11.933594 4.078125 11.902344 C 4.246094 11.875 4.355469 11.847656 4.414062 11.808594 C 4.570312 11.703125 4.636719 11.625 4.65625 11.566406 C 4.675781 11.511719 4.671875 11.445312 4.632812 11.351562 C 4.554688 11.160156 4.382812 10.859375 4.390625 10.320312 C 4.402344 9.78125 4.578125 9.390625 4.871094 9.121094 C 5.164062 8.851562 5.566406 8.710938 6 8.710938 C 6.433594 8.710938 6.835938 8.851562 7.128906 9.121094 C 7.421875 9.390625 7.597656 9.78125 7.609375 10.320312 C 7.617188 10.859375 7.445312 11.160156 7.367188 11.351562 C 7.328125 11.445312 7.324219 11.511719 7.34375 11.566406 C 7.363281 11.625 7.429688 11.703125 7.585938 11.808594 C 7.644531 11.851562 7.753906 11.875 7.921875 11.902344 C 8.085938 11.933594 8.289062 11.964844 8.519531 11.976562 C 8.636719 11.984375 8.773438 12 8.90625 12 C 8.882812 11.808594 8.808594 11.03125 8.761719 10.078125 C 8.734375 9.542969 8.714844 8.988281 8.734375 8.519531 C 8.746094 8.289062 8.777344 8.070312 8.808594 7.894531 C 8.839844 7.722656 8.863281 7.585938 8.925781 7.488281 C 9.039062 7.324219 9.132812 7.214844 9.238281 7.175781 C 9.347656 7.140625 9.449219 7.183594 9.550781 7.222656 C 9.761719 7.308594 10.027344 7.449219 10.535156 7.441406 C 11.042969 7.433594 11.402344 7.269531 11.640625 7.007812 C 11.878906 6.75 12 6.402344 12 6 C 12 5.597656 11.878906 5.230469 11.640625 4.96875 C 11.402344 4.710938 11.042969 4.542969 10.535156 4.535156 C 10.027344 4.527344 9.761719 4.667969 9.550781 4.753906 C 9.449219 4.792969 9.347656 4.839844 9.238281 4.800781 C 9.132812 4.765625 9.039062 4.65625 8.925781 4.488281 C 8.863281 4.390625 8.839844 4.257812 8.808594 4.082031 C 8.777344 3.90625 8.746094 3.714844 8.734375 3.480469 C 8.714844 3.015625 8.734375 2.433594 8.761719 1.898438 C 8.804688 0.964844 8.882812 0.214844 8.90625 0.00390625 C 8.773438 0.00390625 8.636719 -0.00390625 8.519531 0.00390625 C 8.289062 0.0117188 8.085938 0.046875 7.921875 0.0742188 C 7.753906 0.101562 7.644531 0.128906 7.585938 0.171875 C 7.429688 0.273438 7.363281 0.355469 7.34375 0.410156 C 7.324219 0.46875 7.328125 0.53125 7.367188 0.625 C 7.445312 0.816406 7.617188 1.117188 7.609375 1.65625 C 7.597656 2.195312 7.421875 2.589844 7.128906 2.859375 C 6.835938 3.128906 6.433594 3.265625 6 3.265625 C 5.566406 3.265625 5.164062 3.128906 4.871094 2.859375 C 4.578125 2.589844 4.402344 2.195312 4.390625 1.65625 C 4.382812 1.117188 4.554688 0.816406 4.632812 0.625 C 4.671875 0.53125 4.675781 0.46875 4.65625 0.410156 C 4.636719 0.355469 4.570312 0.273438 4.414062 0.171875 C 4.355469 0.128906 4.246094 0.105469 4.078125 0.0742188 C 3.914062 0.046875 3.710938 0.0117188 3.480469 0.00390625 C 3.363281 -0.00390625 3.226562 0.00390625 3.09375 0.00390625 Z M 3.09375 0.00390625 "/>
</g>
</svg>
