<?xml version="1.0" encoding="UTF-8"?>
<svg xmlns="http://www.w3.org/2000/svg" xmlns:xlink="http://www.w3.org/1999/xlink" width="12pt" height="12pt" viewBox="0 0 12 12" version="1.1">
<g id="surface1">
<path style=" stroke:none;fill-rule:nonzero;fill:rgb(30.196078%,30.196078%,30.196078%);fill-opacity:1;" d="M 2 0 C 0.890625 0 0 0.890625 0 2 L 0 10 C 0 11.109375 0.890625 12 2 12 L 10 12 C 11.109375 12 12 11.109375 12 10 L 12 2 C 12 0.890625 11.109375 0 10 0 Z M 2 1 L 10 1 C 10.554688 1 11 1.445312 11 2 L 11 10 C 11 10.554688 10.554688 11 10 11 L 2 11 C 1.445312 11 1 10.554688 1 10 L 1 2 C 1 1.445312 1.445312 1 2 1 Z M 2 1 "/>
</g>
</svg>
