<?xml version="1.0" encoding="UTF-8"?>
<svg xmlns="http://www.w3.org/2000/svg" xmlns:xlink="http://www.w3.org/1999/xlink" width="12pt" height="12pt" viewBox="0 0 12 12" version="1.1">
<g id="surface1">
<path style=" stroke:none;fill-rule:nonzero;fill:rgb(30.196078%,30.196078%,30.196078%);fill-opacity:1;" d="M 3.375 0 C 1.511719 0 0 1.511719 0 3.375 C 0 3.773438 0.0429688 4.179688 0.210938 4.5 C 1.921875 7.695312 3.988281 7.984375 5.976562 11.953125 L 5.976562 11.976562 C 5.980469 11.988281 5.996094 11.988281 6 12 C 6.007812 11.984375 6.015625 11.96875 6.023438 11.953125 C 8.011719 7.984375 10.078125 7.695312 11.789062 4.5 C 11.957031 4.179688 12 3.773438 12 3.375 C 12 1.511719 10.488281 0 8.625 0 C 7.570312 0 6.640625 0.484375 6.023438 1.242188 C 6.015625 1.25 6.007812 1.257812 6 1.265625 C 5.992188 1.257812 5.984375 1.25 5.976562 1.242188 C 5.359375 0.484375 4.429688 0 3.375 0 Z M 3.375 0 "/>
</g>
</svg>
