<?xml version="1.0" encoding="UTF-8"?>
<svg xmlns="http://www.w3.org/2000/svg" xmlns:xlink="http://www.w3.org/1999/xlink" width="12pt" height="12pt" viewBox="0 0 12 12" version="1.1">
<g id="surface1">
<path style=" stroke:none;fill-rule:nonzero;fill:rgb(30.196078%,30.196078%,30.196078%);fill-opacity:1;" d="M 0.3125 0 L 0.3125 0.8125 L 2.375 0.8125 L 0.1875 4.0625 L 0.1875 4.8125 L 4 4.8125 L 4 3.9375 L 1.78125 3.9375 L 3.9375 0.65625 L 3.9375 0 Z M 8 2 L 8 10.09375 L 5.71875 7.8125 L 5 8.5 L 8.28125 11.8125 L 8.5 12 L 8.71875 11.8125 L 12 8.5 L 11.28125 7.8125 L 9 10.09375 L 9 2 Z M 8 2 "/>
<path style=" stroke:none;fill-rule:nonzero;fill:rgb(11.372549%,60%,95.294118%);fill-opacity:1;" d="M 2.09375 7 C 1.308594 7.019531 0.71875 7.144531 0.28125 7.34375 L 0.53125 8.25 C 0.742188 8.175781 1.535156 7.9375 2 7.9375 L 2.0625 7.9375 C 2.710938 7.964844 2.75 8.195312 2.75 8.75 L 2.75 8.96875 L 2.40625 9.03125 C 0.839844 9.257812 0 9.453125 0 10.65625 C 0 11.492188 0.617188 12 1.5 12 C 2.109375 12 2.496094 11.753906 2.90625 11.40625 L 3.03125 11.90625 L 4 11.90625 L 4 8.53125 C 4 7.503906 3.28125 7 2.1875 7 Z M 2.75 9.6875 L 2.75 10.8125 C 2.414062 11.039062 2.15625 11.1875 1.71875 11.1875 C 1.328125 11.1875 1.125 10.941406 1.125 10.59375 C 1.125 9.9375 1.703125 9.820312 2.40625 9.71875 Z M 2.75 9.6875 "/>
</g>
</svg>
