<?xml version="1.0" encoding="UTF-8"?>
<svg xmlns="http://www.w3.org/2000/svg" xmlns:xlink="http://www.w3.org/1999/xlink" width="12pt" height="12pt" viewBox="0 0 12 12" version="1.1">
<g id="surface1">
<path style=" stroke:none;fill-rule:nonzero;fill:rgb(30.196078%,30.196078%,30.196078%);fill-opacity:1;" d="M 6 0 L 5.59375 3.03125 L 4.4375 0.21875 L 4.84375 3.21875 L 3 0.78125 L 4.15625 3.59375 L 1.75 1.75 L 3.59375 4.15625 L 0.78125 3 L 3.21875 4.84375 L 0.21875 4.4375 L 3.03125 5.59375 L 0 6 L 3.03125 6.40625 L 0.21875 7.53125 L 3.21875 7.15625 L 0.78125 9 L 3.59375 7.8125 L 1.75 10.25 L 4.15625 8.375 L 3 11.21875 L 4.84375 8.75 C 4.84375 8.75 6.15625 7.007812 6.15625 7 L 10.4375 7 L 8.96875 6.40625 L 12 6 L 8.96875 5.59375 L 11.78125 4.4375 L 8.75 4.84375 L 11.1875 3 L 8.375 4.15625 L 10.25 1.75 L 7.8125 3.59375 L 9 0.78125 L 7.15625 3.21875 L 7.53125 0.21875 L 6.40625 3.03125 Z M 7.1875 8 C 7.003906 8 6.800781 8.03125 6.59375 8.09375 C 6.386719 8.15625 6.207031 8.242188 6.0625 8.34375 L 6.25 8.84375 C 6.363281 8.757812 6.519531 8.683594 6.6875 8.625 C 6.855469 8.5625 7.015625 8.53125 7.1875 8.53125 C 7.359375 8.53125 7.53125 8.589844 7.65625 8.6875 C 7.785156 8.785156 7.84375 8.914062 7.84375 9.09375 C 7.84375 9.273438 7.789062 9.4375 7.71875 9.5625 C 7.648438 9.6875 7.542969 9.835938 7.375 10.03125 L 6.125 11.46875 L 6.15625 12 L 8.40625 12 L 8.4375 11.5 L 6.8125 11.5 L 7.75 10.5 C 8.011719 10.214844 8.214844 9.96875 8.3125 9.78125 C 8.414062 9.59375 8.46875 9.390625 8.46875 9.15625 L 8.46875 9.09375 C 8.464844 8.898438 8.414062 8.742188 8.34375 8.59375 C 8.273438 8.445312 8.179688 8.332031 8.0625 8.25 C 7.945312 8.167969 7.824219 8.101562 7.6875 8.0625 C 7.550781 8.023438 7.371094 8 7.1875 8 Z M 10.78125 8.0625 L 9.1875 10.59375 L 9.1875 11.0625 L 10.90625 11.0625 L 10.90625 12 L 11.5 12 L 11.5 11.0625 L 11.96875 11.0625 L 12 10.59375 L 11.5 10.59375 L 11.5 8.0625 Z M 10.90625 8.78125 L 10.90625 10.59375 L 9.8125 10.59375 Z M 10.90625 8.78125 "/>
</g>
</svg>
