<?xml version="1.0" encoding="UTF-8"?>
<svg xmlns="http://www.w3.org/2000/svg" xmlns:xlink="http://www.w3.org/1999/xlink" width="12pt" height="12pt" viewBox="0 0 12 12" version="1.1">
<g id="surface1">
<path style=" stroke:none;fill-rule:nonzero;fill:rgb(30.196078%,30.196078%,30.196078%);fill-opacity:1;" d="M 6 12 L 4 12 L 4 2 L 0 2 L 0 0 L 10 0 L 10 2 L 6 2 Z M 6 12 "/>
<path style=" stroke:none;fill-rule:nonzero;fill:rgb(11.372549%,60%,95.294118%);fill-opacity:1;" d="M 10.035156 6 C 9.765625 6 9.519531 6.027344 9.300781 6.085938 C 9.085938 6.140625 8.882812 6.21875 8.699219 6.320312 C 8.511719 6.421875 8.28125 6.597656 8 6.84375 L 8.65625 7.648438 C 8.878906 7.457031 9.097656 7.304688 9.308594 7.203125 C 9.515625 7.097656 9.726562 7.042969 9.949219 7.042969 C 10.160156 7.042969 10.328125 7.101562 10.453125 7.21875 C 10.582031 7.335938 10.640625 7.511719 10.640625 7.75 C 10.640625 7.90625 10.613281 8.0625 10.558594 8.207031 C 10.5 8.355469 10.40625 8.519531 10.277344 8.695312 C 10.148438 8.867188 9.871094 9.179688 9.449219 9.628906 L 8.015625 11.128906 L 8.015625 12 L 12 12 L 12 10.949219 L 9.515625 10.949219 L 9.515625 10.890625 L 10.25 10.175781 C 10.738281 9.710938 11.078125 9.355469 11.269531 9.105469 C 11.464844 8.851562 11.609375 8.609375 11.699219 8.371094 C 11.792969 8.132812 11.839844 7.875 11.839844 7.601562 C 11.839844 7.289062 11.765625 7.011719 11.613281 6.769531 C 11.460938 6.527344 11.25 6.339844 10.980469 6.203125 C 10.707031 6.066406 10.390625 6 10.035156 6 Z M 10.035156 6 "/>
</g>
</svg>
