<?xml version="1.0" encoding="UTF-8"?>
<svg xmlns="http://www.w3.org/2000/svg" xmlns:xlink="http://www.w3.org/1999/xlink" width="12pt" height="12pt" viewBox="0 0 12 12" version="1.1">
<g id="surface1">
<path style=" stroke:none;fill-rule:nonzero;fill:rgb(30.196078%,30.196078%,30.196078%);fill-opacity:1;" d="M 8 2 L 8 10.09375 L 5.71875 7.8125 L 5 8.5 L 8.28125 11.8125 L 8.5 12 L 8.71875 11.8125 L 12 8.5 L 11.28125 7.8125 L 9 10.09375 L 9 2 Z M 0.3125 7.1875 L 0.3125 8 L 2.375 8 L 0.1875 11.25 L 0.1875 12 L 4 12 L 4 11.125 L 1.78125 11.125 L 3.9375 7.84375 L 3.9375 7.1875 Z M 0.3125 7.1875 "/>
<path style=" stroke:none;fill-rule:nonzero;fill:rgb(11.372549%,60%,95.294118%);fill-opacity:1;" d="M 2.09375 0 C 1.308594 0.0195312 0.71875 0.144531 0.28125 0.34375 L 0.53125 1.25 C 0.742188 1.175781 1.535156 0.9375 2 0.9375 L 2.0625 0.9375 C 2.710938 0.964844 2.75 1.195312 2.75 1.75 L 2.75 1.96875 L 2.40625 2.03125 C 0.839844 2.257812 0 2.453125 0 3.65625 C 0 4.492188 0.617188 5 1.5 5 C 2.109375 5 2.496094 4.753906 2.90625 4.40625 L 3.03125 4.90625 L 4 4.90625 L 4 1.53125 C 4 0.503906 3.28125 0 2.1875 0 Z M 2.75 2.6875 L 2.75 3.8125 C 2.414062 4.039062 2.15625 4.1875 1.71875 4.1875 C 1.328125 4.1875 1.125 3.941406 1.125 3.59375 C 1.125 2.9375 1.703125 2.820312 2.40625 2.71875 Z M 2.75 2.6875 "/>
</g>
</svg>
