<?xml version="1.0" encoding="UTF-8"?>
<svg xmlns="http://www.w3.org/2000/svg" xmlns:xlink="http://www.w3.org/1999/xlink" width="12pt" height="12pt" viewBox="0 0 12 12" version="1.1">
<g id="surface1">
<path style=" stroke:none;fill-rule:nonzero;fill:rgb(15.294118%,68.235294%,37.647059%);fill-opacity:1;" d="M 9.5 7 C 8.113281 7 7 8.113281 7 9.5 C 7 9.933594 7.121094 10.332031 7.3125 10.6875 L 8.0625 9.9375 C 8.019531 9.800781 8 9.652344 8 9.5 C 8 8.667969 8.667969 8 9.5 8 C 9.652344 8 9.800781 8.023438 9.9375 8.0625 L 10.6875 7.3125 C 10.332031 7.121094 9.933594 7 9.5 7 Z M 11.6875 8.3125 L 10.9375 9.0625 C 10.980469 9.199219 11 9.347656 11 9.5 C 11 10.332031 10.332031 11 9.5 11 C 9.347656 11 9.199219 10.976562 9.0625 10.9375 L 8.3125 11.6875 C 8.667969 11.878906 9.066406 12 9.5 12 C 10.886719 12 12 10.886719 12 9.5 C 12 9.066406 11.878906 8.667969 11.6875 8.3125 Z M 0 11 L 0 12 L 7 12 L 7 11 Z M 0 11 "/>
<path style=" stroke:none;fill-rule:nonzero;fill:rgb(30.196078%,30.196078%,30.196078%);fill-opacity:1;" d="M 5 0 L 1 10 L 2.46875 10 L 3.6875 7 L 9.8125 7 L 7 0 Z M 6 1.21875 L 7.90625 6 L 4.09375 6 Z M 6 1.21875 "/>
</g>
</svg>
