<?xml version="1.0" encoding="UTF-8"?>
<svg xmlns="http://www.w3.org/2000/svg" xmlns:xlink="http://www.w3.org/1999/xlink" width="12pt" height="12pt" viewBox="0 0 12 12" version="1.1">
<g id="surface1">
<path style=" stroke:none;fill-rule:nonzero;fill:rgb(30.196078%,30.196078%,30.196078%);fill-opacity:1;" d="M 0 0 L 0 12 L 12 12 L 12 7 L 11 7 L 11 11 L 1 11 L 1 1 L 6 1 L 6 0 Z M 9.5 0 C 8.667969 0 8 0.667969 8 1.5 L 8 3 L 7 3 L 7 6 L 12 6 L 12 3 L 11 3 L 11 1.5 C 11 0.667969 10.332031 0 9.5 0 Z M 9.5 1 C 9.777344 1 10 1.222656 10 1.5 L 10 3 L 9 3 L 9 1.5 C 9 1.222656 9.222656 1 9.5 1 Z M 9.5 1 "/>
</g>
</svg>
