<?xml version="1.0" encoding="UTF-8"?>
<svg xmlns="http://www.w3.org/2000/svg" xmlns:xlink="http://www.w3.org/1999/xlink" width="12pt" height="12pt" viewBox="0 0 12 12" version="1.1">
<g id="surface1">
<path style=" stroke:none;fill-rule:nonzero;fill:rgb(30.196078%,30.196078%,30.196078%);fill-opacity:1;" d="M 3 0 C 3 0 3.558594 2.632812 3 3.75 C 2.441406 4.867188 0 6 0 6 C 0 6 2.441406 7.132812 3 8.25 C 3.558594 9.367188 3 12 3 12 C 3 12 4.75 9.75 6 9.75 C 7.25 9.75 9 12 9 12 C 9 12 8.441406 9.367188 9 8.25 C 9.558594 7.132812 12 6 12 6 C 12 6 9.558594 4.867188 9 3.75 C 8.441406 2.632812 9 0 9 0 C 9 0 7.25 2.25 6 2.25 C 4.75 2.25 3 0 3 0 Z M 3 0 "/>
</g>
</svg>
