<?xml version="1.0" encoding="UTF-8"?>
<svg xmlns="http://www.w3.org/2000/svg" xmlns:xlink="http://www.w3.org/1999/xlink" width="10pt" height="12pt" viewBox="0 0 10 12" version="1.1">
<g id="surface1">
<path style=" stroke:none;fill-rule:nonzero;fill:rgb(30.196078%,30.196078%,30.196078%);fill-opacity:1;" d="M 0 0 L 0 12 L 7 12 L 10 9 L 10 0 Z M 1 1 L 9 1 L 9 8 L 6 8 L 6 11 L 1 11 Z M 6 2 C 5.347656 2 4.796875 2.417969 4.59375 3 L 2 3 L 2 4 L 4.59375 4 C 4.796875 4.582031 5.347656 5 6 5 C 6.652344 5 7.203125 4.582031 7.40625 4 L 8 4 L 8 3 L 7.40625 3 C 7.203125 2.417969 6.652344 2 6 2 Z M 6 3 C 6.277344 3 6.5 3.222656 6.5 3.5 C 6.5 3.777344 6.277344 4 6 4 C 5.722656 4 5.5 3.777344 5.5 3.5 C 5.5 3.222656 5.722656 3 6 3 Z M 4 5 C 3.363281 5 2.800781 5.402344 2.585938 6 L 2 6 L 2 7 L 2.585938 7 C 2.800781 7.597656 3.363281 8 4 8 C 4.636719 8 5.199219 7.597656 5.414062 7 L 8 7 L 8 6 L 5.414062 6 C 5.199219 5.402344 4.636719 5 4 5 Z M 4 6 C 4.277344 6 4.5 6.222656 4.5 6.5 C 4.5 6.777344 4.277344 7 4 7 C 3.722656 7 3.5 6.777344 3.5 6.5 C 3.5 6.222656 3.722656 6 4 6 Z M 4 6 "/>
</g>
</svg>
