<?xml version="1.0" encoding="UTF-8"?>
<svg xmlns="http://www.w3.org/2000/svg" xmlns:xlink="http://www.w3.org/1999/xlink" width="14pt" height="11pt" viewBox="0 0 14 11" version="1.1">
<g id="surface1">
<path style=" stroke:none;fill-rule:nonzero;fill:rgb(30.196078%,30.196078%,30.196078%);fill-opacity:1;" d="M 3.132812 3 L 0 11 L 1.171875 11 L 1.917969 9 L 5.613281 9 L 6.359375 11 L 7.515625 11 L 4.390625 3 Z M 3.757812 4 L 5.265625 8 L 2.25 8 Z M 8 4 L 8 11 L 12 11 C 13.105469 11 14 10.105469 14 9 C 14 8.152344 13.460938 7.394531 12.65625 7.117188 C 12.878906 6.785156 13 6.398438 13 6 C 13 4.894531 12.105469 4 11 4 Z M 9 5 L 11 5 C 11.550781 5 12 5.449219 12 6 C 12 6.550781 11.550781 7 11 7 L 9 7 Z M 9 8 L 12 8 C 12.550781 8 13 8.449219 13 9 C 13 9.550781 12.550781 10 12 10 L 9 10 Z M 9 8 "/>
<path style=" stroke:none;fill-rule:nonzero;fill:rgb(11.372549%,60%,95.294118%);fill-opacity:1;" d="M 10.214844 0 L 7.714844 3 L 12.714844 3 Z M 10.214844 0 "/>
</g>
</svg>
