<?xml version="1.0" encoding="UTF-8"?>
<svg xmlns="http://www.w3.org/2000/svg" xmlns:xlink="http://www.w3.org/1999/xlink" width="12pt" height="8pt" viewBox="0 0 12 8" version="1.1">
<g id="surface1">
<path style=" stroke:none;fill-rule:nonzero;fill:rgb(11.372549%,60%,95.294118%);fill-opacity:1;" d="M 0 0 L 0 3 L 1 3 L 1 5 L 0 5 L 0 8 L 3 8 L 3 7 L 9 7 L 9 8 L 12 8 L 12 5 L 11 5 L 11 3 L 12 3 L 12 0 L 9 0 L 9 1 L 3 1 L 3 0 Z M 3 2 L 9 2 L 9 3 L 10 3 L 10 5 L 9 5 L 9 6 L 3 6 L 3 5 L 2 5 L 2 3 L 3 3 Z M 3 2 "/>
</g>
</svg>
