<?xml version="1.0" encoding="UTF-8"?>
<svg xmlns="http://www.w3.org/2000/svg" xmlns:xlink="http://www.w3.org/1999/xlink" width="11pt" height="12pt" viewBox="0 0 11 12" version="1.1">
<g id="surface1">
<path style=" stroke:none;fill-rule:nonzero;fill:rgb(30.196078%,30.196078%,30.196078%);fill-opacity:1;" d="M 0 0 L 0 7 L 2 5 L 4 7 L 4 0 Z M 5 0 L 5 1 L 9 1 L 9 5 L 10 5 L 10 0 Z M 8.5 6 C 7.671875 6 7 6.671875 7 7.5 L 7 9 L 6 9 L 6 12 L 11 12 L 11 9 L 10 9 L 10 7.5 C 10 6.671875 9.328125 6 8.5 6 Z M 8.5 7 C 8.777344 7 9 7.222656 9 7.5 L 9 9 L 8 9 L 8 7.5 C 8 7.222656 8.222656 7 8.5 7 Z M 0 8 L 0 12 L 5 12 L 5 11 L 1 11 L 1 8 Z M 0 8 "/>
</g>
</svg>
