<?xml version="1.0" encoding="UTF-8"?>
<svg xmlns="http://www.w3.org/2000/svg" xmlns:xlink="http://www.w3.org/1999/xlink" width="12pt" height="12pt" viewBox="0 0 12 12" version="1.1">
<g id="surface1">
<path style=" stroke:none;fill-rule:nonzero;fill:rgb(30.196078%,30.196078%,30.196078%);fill-opacity:1;" d="M 7.515625 0 L 6.226562 2.980469 L 5.359375 0.554688 L 4.613281 3.058594 L 2.929688 1.023438 L 4.773438 4.320312 L 1.667969 2.226562 L 4.0625 5.054688 L 1.03125 3.914062 L 2.835938 5.304688 L 0.0390625 6.191406 L 3.265625 6.65625 L 0 8.125 L 3.617188 7.578125 L 2.257812 10.285156 L 4.804688 8.15625 L 2.957031 11.1875 L 5.492188 9.078125 L 4.851562 11.4375 L 6.140625 8.550781 L 7.003906 12 L 7.75 8.476562 L 9.433594 10.417969 L 8.808594 8.328125 L 11.367188 9.820312 L 8.304688 7.59375 L 12 8.28125 L 9.527344 6.351562 L 11.777344 5.859375 L 9.097656 5.992188 L 11.816406 3.921875 L 8.75 5.070312 L 10.777344 2.78125 L 7.554688 3.382812 L 9.40625 1.460938 L 6.871094 3.722656 Z M 7.515625 0 "/>
</g>
</svg>
