<?xml version="1.0" encoding="UTF-8"?>
<svg xmlns="http://www.w3.org/2000/svg" xmlns:xlink="http://www.w3.org/1999/xlink" width="8pt" height="12pt" viewBox="0 0 8 12" version="1.1">
<g id="surface1">
<path style=" stroke:none;fill-rule:nonzero;fill:rgb(30.196078%,30.196078%,30.196078%);fill-opacity:1;" d="M 4.296875 0 C 3 0 1.980469 0.296875 1.242188 0.886719 C 0.507812 1.476562 0.140625 2.289062 0.140625 3.320312 C 0.140625 3.871094 0.253906 4.347656 0.476562 4.757812 C 0.703125 5.167969 1.003906 5.527344 1.375 5.835938 C 1.75 6.144531 2.316406 6.46875 3.0625 6.804688 C 3.863281 7.164062 4.394531 7.429688 4.648438 7.59375 C 4.914062 7.757812 5.113281 7.929688 5.246094 8.109375 C 5.378906 8.285156 5.445312 8.488281 5.445312 8.71875 C 5.445312 9.128906 5.292969 9.4375 4.984375 9.644531 C 4.683594 9.851562 4.25 9.957031 3.679688 9.957031 C 3.203125 9.957031 2.675781 9.882812 2.101562 9.738281 C 1.527344 9.597656 0.828125 9.347656 0 9 L 0 11.296875 C 1.007812 11.765625 2.164062 12 3.476562 12 C 4.894531 12 6.003906 11.695312 6.796875 11.089844 C 7.597656 10.484375 8 9.652344 8 8.597656 C 8 7.839844 7.785156 7.195312 7.359375 6.671875 C 6.9375 6.148438 6.152344 5.625 5.003906 5.101562 C 4.136719 4.707031 3.585938 4.4375 3.351562 4.289062 C 3.121094 4.132812 2.953125 3.976562 2.84375 3.816406 C 2.738281 3.652344 2.6875 3.460938 2.6875 3.242188 C 2.6875 2.890625 2.816406 2.605469 3.078125 2.386719 C 3.34375 2.167969 3.722656 2.0625 4.214844 2.0625 C 4.628906 2.0625 5.046875 2.109375 5.472656 2.210938 C 5.902344 2.3125 6.445312 2.492188 7.101562 2.746094 L 7.941406 0.820312 C 7.308594 0.5625 6.699219 0.359375 6.121094 0.214844 C 5.542969 0.0703125 4.9375 0 4.296875 0 Z M 4.296875 0 "/>
</g>
</svg>
