<?xml version="1.0" encoding="UTF-8"?>
<svg xmlns="http://www.w3.org/2000/svg" xmlns:xlink="http://www.w3.org/1999/xlink" width="12pt" height="12pt" viewBox="0 0 12 12" version="1.1">
<g id="surface1">
<path style=" stroke:none;fill-rule:nonzero;fill:rgb(30.196078%,30.196078%,30.196078%);fill-opacity:1;" d="M 6 0 L 4 2 L 5 2 L 5 4 L 0 4 L 0 8 L 5 8 L 5 10 L 4 10 L 6 12 L 8 10 L 7 10 L 7 8 L 12 8 L 12 4 L 7 4 L 7 2 L 8 2 Z M 1 5 L 4 5 L 4 7 L 1 7 Z M 5 5 L 7 5 L 7 7 L 5 7 Z M 8 5 L 11 5 L 11 7 L 8 7 Z M 8 5 "/>
</g>
</svg>
