<?xml version="1.0" encoding="UTF-8"?>
<svg xmlns="http://www.w3.org/2000/svg" xmlns:xlink="http://www.w3.org/1999/xlink" width="13pt" height="12pt" viewBox="0 0 13 12" version="1.1">
<g id="surface1">
<path style=" stroke:none;fill-rule:nonzero;fill:rgb(30.196078%,30.196078%,30.196078%);fill-opacity:1;" d="M 4.382812 0 L 0 11 L 1.359375 11 L 2.546875 8 L 8 8 L 8 5.828125 L 5.75 0 Z M 5.0625 1.328125 C 5.175781 1.703125 5.773438 3.410156 6.859375 6.445312 L 7.085938 7 L 2.941406 7 Z M 5.0625 1.328125 "/>
<path style=" stroke:none;fill-rule:nonzero;fill:rgb(11.372549%,60%,95.294118%);fill-opacity:1;" d="M 9 7 L 9 12 L 11.5 12 C 12.328125 12 13 11.328125 13 10.5 C 13 9.964844 12.730469 9.484375 12.3125 9.21875 C 12.429688 9.007812 12.5 8.757812 12.5 8.5 C 12.5 7.671875 11.828125 7 11 7 Z M 10 8 L 11 8 C 11.277344 8 11.5 8.222656 11.5 8.5 C 11.5 8.777344 11.277344 9 11 9 L 10 9 Z M 10 10 L 11.5 10 C 11.777344 10 12 10.222656 12 10.5 C 12 10.777344 11.777344 11 11.5 11 L 10 11 Z M 10 10 "/>
</g>
</svg>
