<?xml version="1.0" encoding="UTF-8"?>
<svg xmlns="http://www.w3.org/2000/svg" xmlns:xlink="http://www.w3.org/1999/xlink" width="12pt" height="12pt" viewBox="0 0 12 12" version="1.1">
<g id="surface1">
<path style=" stroke:none;fill-rule:nonzero;fill:rgb(30.196078%,30.196078%,30.196078%);fill-opacity:1;" d="M 6 0 C 4.894531 0 4 0.894531 4 2 C 4 2.933594 4.636719 3.714844 5.5 3.9375 L 5.5 6 L 3 6 L 3 7 L 5.5 7 L 5.5 10.96875 C 4.3125 10.894531 2.9375 10.390625 1.9375 9.84375 L 2.4375 9.1875 L 1.59375 8.625 L 0 10.78125 C 0 10.78125 0.84375 11.308594 0.84375 11.3125 L 1.3125 10.6875 C 2.617188 11.429688 4.40625 12 6 12 C 7.597656 12 9.351562 11.402344 10.65625 10.65625 L 11.15625 11.3125 L 12 10.75 L 10.375 8.59375 L 9.5625 9.1875 L 10.03125 9.8125 C 9.03125 10.367188 7.703125 10.890625 6.5 10.96875 L 6.5 7 L 9 7 L 9 6 L 6.5 6 L 6.5 3.9375 C 7.363281 3.714844 8 2.933594 8 2 C 8 0.894531 7.105469 0 6 0 Z M 6 1 C 6.550781 1 7 1.449219 7 2 C 7 2.550781 6.550781 3 6 3 C 5.449219 3 5 2.550781 5 2 C 5 1.449219 5.449219 1 6 1 Z M 6 1 "/>
</g>
</svg>
