<?xml version="1.0" encoding="UTF-8"?>
<svg xmlns="http://www.w3.org/2000/svg" xmlns:xlink="http://www.w3.org/1999/xlink" width="12pt" height="12pt" viewBox="0 0 12 12" version="1.1">
<g id="surface1">
<path style=" stroke:none;fill-rule:nonzero;fill:rgb(30.196078%,30.196078%,30.196078%);fill-opacity:1;" d="M 0 0 L 0 0.75 C 1.898438 2.269531 3 4.570312 3 7 C 2.988281 7.335938 2.957031 7.667969 2.90625 8 L 1 8 L 1 12 L 5 12 L 5 11 L 9.09375 11 C 9.296875 11.585938 9.84375 12 10.5 12 C 11.328125 12 12 11.328125 12 10.5 C 12 9.84375 11.585938 9.296875 11 9.09375 L 11 6 L 10 6 L 10 9.09375 C 9.566406 9.242188 9.242188 9.566406 9.09375 10 L 5 10 L 5 8.65625 L 6.53125 6.875 L 7.3125 7.5 C 7.296875 7.496094 12 1.78125 12 1.78125 L 9.71875 0 L 5.03125 5.5625 L 5.78125 6.21875 L 4.25 8 L 3.90625 8 C 3.949219 7.742188 3.980469 7.480469 4 7.21875 C 4 7.144531 4 7.074219 4 7 C 3.996094 4.785156 3.171875 2.648438 1.6875 1 L 7 1 L 7 0 Z M 2 9 L 4 9 L 4 11 L 2 11 Z M 10.5 10 C 10.777344 10 11 10.222656 11 10.5 C 11 10.777344 10.777344 11 10.5 11 C 10.222656 11 10 10.777344 10 10.5 C 10 10.222656 10.222656 10 10.5 10 Z M 10.5 10 "/>
</g>
</svg>
