<?xml version="1.0" encoding="UTF-8"?>
<svg xmlns="http://www.w3.org/2000/svg" xmlns:xlink="http://www.w3.org/1999/xlink" width="12pt" height="12.000012pt" viewBox="0 0 12 12.000012" version="1.1">
<defs>
<radialGradient id="radial0" gradientUnits="userSpaceOnUse" cx="15" cy="1037.3622" fx="15" fy="1037.3622" r="8" gradientTransform="matrix(-0.483025,-0.366635,0.232787,-0.306686,-225.238881,326.643945)">
<stop offset="0" style="stop-color:rgb(70.196078%,70.196078%,70.196078%);stop-opacity:1;"/>
<stop offset="1" style="stop-color:rgb(30.196078%,30.196078%,30.196078%);stop-opacity:1;"/>
</radialGradient>
<radialGradient id="radial1" gradientUnits="userSpaceOnUse" cx="15" cy="1037.3622" fx="15" fy="1037.3622" r="8" gradientTransform="matrix(0.483025,0.366635,-0.232787,0.306686,237.238882,-314.64389)">
<stop offset="0" style="stop-color:rgb(70.196078%,70.196078%,70.196078%);stop-opacity:1;"/>
<stop offset="1" style="stop-color:rgb(30.196078%,30.196078%,30.196078%);stop-opacity:0.0745098;"/>
</radialGradient>
<filter id="alpha" filterUnits="objectBoundingBox" x="0%" y="0%" width="100%" height="100%">
  <feColorMatrix type="matrix" in="SourceGraphic" values="0 0 0 0 1 0 0 0 0 1 0 0 0 0 1 0 0 0 1 0"/>
</filter>
<mask id="mask0">
  <g filter="url(#alpha)">
<rect x="0" y="0" width="12" height="12.000012" style="fill:rgb(0%,0%,0%);fill-opacity:0.717647;stroke:none;"/>
  </g>
</mask>
<radialGradient id="radial2" gradientUnits="userSpaceOnUse" cx="11" cy="1041.3622" fx="11" fy="1041.3622" r="8" gradientTransform="matrix(-0.75,0.00000806,-0.00000807,-0.75001,16.258408,789.031501)">
<stop offset="0" style="stop-color:rgb(70.196078%,70.196078%,70.196078%);stop-opacity:0;"/>
<stop offset="0.795008" style="stop-color:rgb(30.196078%,30.196078%,30.196078%);stop-opacity:1;"/>
<stop offset="1" style="stop-color:rgb(30.196078%,30.196078%,30.196078%);stop-opacity:0;"/>
</radialGradient>
<clipPath id="clip1">
  <rect width="17" height="17"/>
</clipPath>
<g id="surface6" clip-path="url(#clip1)">
<path style=" stroke:none;fill-rule:nonzero;fill:url(#radial2);" d="M 8 2 C 4.6875 2 2 4.6875 2 8 C 2 11.3125 4.6875 14 8 14 C 11.3125 14 14 11.3125 14 8 C 14 4.6875 11.3125 2 8 2 Z M 8 5 C 9.65625 5 11 6.34375 11 8 C 11 9.65625 9.65625 11 8 11 C 6.34375 11 5 9.65625 5 8 C 5 6.34375 6.34375 5 8 5 Z M 8 5 "/>
</g>
</defs>
<g id="surface1">
<path style=" stroke:none;fill-rule:nonzero;fill:rgb(30.196078%,30.196078%,30.196078%);fill-opacity:0.835294;" d="M 6 0 C 2.6875 0 0 2.6875 0 6 C 0 9.3125 2.6875 12 6 12 C 9.3125 12 12 9.3125 12 6 C 12 2.6875 9.3125 0 6 0 Z M 6 3 C 7.65625 3 9 4.34375 9 6 C 9 7.65625 7.65625 9 6 9 C 4.34375 9 3 7.65625 3 6 C 3 4.34375 4.34375 3 6 3 Z M 6 3 "/>
<path style=" stroke:none;fill-rule:nonzero;fill:url(#radial0);" d="M 6 0 C 2.6875 0 0 2.6875 0 6 C 0 9.3125 2.6875 12 6 12 C 9.3125 12 12 9.3125 12 6 C 12 2.6875 9.3125 0 6 0 Z M 6 3 C 7.65625 3 9 4.34375 9 6 C 9 7.65625 7.65625 9 6 9 C 4.34375 9 3 7.65625 3 6 C 3 4.34375 4.34375 3 6 3 Z M 6 3 "/>
<path style=" stroke:none;fill-rule:nonzero;fill:url(#radial1);" d="M 6 12 C 9.3125 12 12 9.3125 12 6 C 12 2.6875 9.3125 0 6 0 C 2.6875 0 0 2.6875 0 6 C 0 9.3125 2.6875 12 6 12 Z M 6 9 C 4.34375 9 3 7.65625 3 6 C 3 4.34375 4.34375 3 6 3 C 7.65625 3 9 4.34375 9 6 C 9 7.65625 7.65625 9 6 9 Z M 6 9 "/>
<path style=" stroke:none;fill-rule:nonzero;fill:rgb(30.196078%,30.196078%,30.196078%);fill-opacity:0.470588;" d="M 2.132812 1.417969 C 0.785156 2.558594 0.00390625 4.234375 0 6 C 0 9.3125 2.6875 12 6 12 C 7.785156 12 9.480469 11.203125 10.617188 9.828125 C 9.539062 10.742188 8.167969 11.246094 6.75 11.25 C 3.4375 11.25 0.75 8.5625 0.75 5.25 C 0.75 3.851562 1.242188 2.496094 2.132812 1.417969 Z M 2.132812 1.417969 "/>
<path style=" stroke:none;fill-rule:nonzero;fill:rgb(30.196078%,30.196078%,30.196078%);fill-opacity:0.470588;" d="M 9.75 5.625 C 9.75 3.761719 8.238281 2.25 6.375 2.25 C 4.511719 2.25 3 3.761719 3 5.625 C 3 5.695312 3.003906 5.769531 3.007812 5.839844 C 3.09375 4.25 4.40625 3 6 3 C 7.65625 3 9 4.34375 9 6 C 9 7.570312 7.785156 8.875 6.21875 8.992188 C 6.269531 8.996094 6.324219 9 6.375 9 C 8.238281 9 9.75 7.488281 9.75 5.625 Z M 9.75 5.625 "/>
<use xlink:href="#surface6" transform="matrix(1,0,0,1,-2,-2)" mask="url(#mask0)"/>
</g>
</svg>
