<?xml version="1.0" encoding="UTF-8"?>
<svg xmlns="http://www.w3.org/2000/svg" xmlns:xlink="http://www.w3.org/1999/xlink" width="12pt" height="12pt" viewBox="0 0 12 12" version="1.1">
<g id="surface1">
<path style=" stroke:none;fill-rule:nonzero;fill:rgb(30.196078%,30.196078%,30.196078%);fill-opacity:1;" d="M 6 0 C 2.6875 0 0 2.6875 0 6 C 0 8.21875 1.207031 10.152344 3 11.1875 L 3 9.976562 C 1.792969 9.0625 1 7.628906 1 6 C 1 3.238281 3.238281 1 6 1 C 8.761719 1 11 3.238281 11 6 C 11 7.339844 10.195312 7.601562 9 7.882812 L 9 3 L 8 3 L 8 3.769531 C 7.449219 3.277344 6.738281 3 6 3 C 4.34375 3 3 4.34375 3 6 C 3 7.65625 4.34375 9 6 9 C 6.738281 9 7.449219 8.726562 8 8.234375 L 8 9 C 10.210938 9 12 7.921875 12 6 C 12 2.6875 9.3125 0 6 0 Z M 6 4 C 7.105469 4 8 4.894531 8 6 C 8 7.105469 7.105469 8 6 8 C 4.894531 8 4 7.105469 4 6 C 4 4.894531 4.894531 4 6 4 Z M 6 4 "/>
<path style=" stroke:none;fill-rule:nonzero;fill:rgb(95.686275%,46.666667%,31.372549%);fill-opacity:1;" d="M 5 10 C 4.449219 10 4 10.449219 4 11 C 4 11.550781 4.449219 12 5 12 C 5.550781 12 6 11.550781 6 11 C 6 10.449219 5.550781 10 5 10 Z M 8 10 C 7.449219 10 7 10.449219 7 11 C 7 11.550781 7.449219 12 8 12 C 8.550781 12 9 11.550781 9 11 C 9 10.449219 8.550781 10 8 10 Z M 11 10 C 10.449219 10 10 10.449219 10 11 C 10 11.550781 10.449219 12 11 12 C 11.550781 12 12 11.550781 12 11 C 12 10.449219 11.550781 10 11 10 Z M 11 10 "/>
</g>
</svg>
