<?xml version="1.0" encoding="UTF-8"?>
<svg xmlns="http://www.w3.org/2000/svg" xmlns:xlink="http://www.w3.org/1999/xlink" width="12pt" height="12pt" viewBox="0 0 12 12" version="1.1">
<g id="surface1">
<path style=" stroke:none;fill-rule:nonzero;fill:rgb(30.196078%,30.196078%,30.196078%);fill-opacity:1;" d="M 0 0 L 0 12 L 7 12 L 7 11 L 1 11 L 1 1 L 11 1 L 11 7 L 12 7 L 12 0 Z M 2 2 L 2 3 L 5 3 L 5 10 L 6 10 L 6 3 L 9 3 L 9 2 Z M 2 2 "/>
<path style=" stroke:none;fill-rule:nonzero;fill:rgb(11.372549%,60%,95.294118%);fill-opacity:1;" d="M 9 7 L 9 9 L 7 9 L 7 10 L 9 10 L 9 12 L 10 12 L 10 10 L 12 10 L 12 9 L 10 9 L 10 7 Z M 9 7 "/>
</g>
</svg>
