<?xml version="1.0" encoding="UTF-8"?>
<svg xmlns="http://www.w3.org/2000/svg" xmlns:xlink="http://www.w3.org/1999/xlink" width="12.84375pt" height="12pt" viewBox="0 0 12.84375 12" version="1.1">
<g id="surface1">
<path style=" stroke:none;fill-rule:nonzero;fill:rgb(30.196078%,30.196078%,30.196078%);fill-opacity:1;" d="M 5 0 L 5 1.09375 C 4.363281 1.222656 3.773438 1.496094 3.25 1.84375 L 2.40625 1 L 1 2.40625 L 1.84375 3.25 C 1.496094 3.773438 1.257812 4.367188 1.125 5 L 0 5 L 0 7 L 1.09375 7 C 1.222656 7.636719 1.496094 8.226562 1.84375 8.75 L 1 9.59375 L 2.40625 11 L 3.25 10.15625 C 3.773438 10.503906 4.367188 10.742188 5 10.875 L 5 12 L 7 12 L 7 10.875 C 7.355469 10.800781 7.675781 10.671875 8 10.53125 L 8 9.4375 C 7.410156 9.777344 6.730469 10 6 10 C 3.789062 10 2 8.210938 2 6 C 2 3.789062 3.789062 2 6 2 C 8.210938 2 10 3.789062 10 6 C 10 6.34375 9.933594 6.683594 9.84375 7 L 12 7 L 12 5 L 10.90625 5 C 10.777344 4.363281 10.535156 3.773438 10.1875 3.25 L 11 2.40625 L 9.59375 1 L 8.75 1.8125 C 8.226562 1.464844 7.632812 1.25 7 1.125 L 7 0 Z M 5 4 L 5 8 L 8 6 Z M 10 7.5 L 10 10.09375 L 8.84375 8.9375 L 8.15625 9.625 L 10.15625 11.625 L 10.5 12 L 10.84375 11.625 L 12.84375 9.625 L 12.15625 8.9375 L 11 10.09375 L 11 7.5 Z M 10 7.5 "/>
</g>
</svg>
