<?xml version="1.0" encoding="UTF-8"?>
<svg xmlns="http://www.w3.org/2000/svg" xmlns:xlink="http://www.w3.org/1999/xlink" width="12pt" height="12pt" viewBox="0 0 12 12" version="1.1">
<g id="surface1">
<path style=" stroke:none;fill-rule:nonzero;fill:rgb(70.196078%,70.196078%,70.196078%);fill-opacity:1;" d="M 11 4 L 11 11 L 1 11 L 1 12 L 12 12 L 12 4 Z M 11 4 "/>
<path style=" stroke:none;fill-rule:nonzero;fill:rgb(30.196078%,30.196078%,30.196078%);fill-opacity:1;" d="M 0 0 L 0 12 L 1 12 L 1 10 L 5 10 L 5 7 L 8 7 L 8 4 L 12 4 L 12 0 Z M 1 1 L 4 1 L 4 3 L 1 3 Z M 5 1 L 7 1 L 7 3 L 5 3 Z M 8 1 L 11 1 L 11 3 L 8 3 Z M 1 4 L 4 4 L 4 6 L 1 6 Z M 5 4 L 7 4 L 7 6 L 5 6 Z M 1 7 L 4 7 L 4 9 L 1 9 Z M 1 7 "/>
</g>
</svg>
