<?xml version="1.0" encoding="UTF-8"?>
<svg xmlns="http://www.w3.org/2000/svg" xmlns:xlink="http://www.w3.org/1999/xlink" width="12pt" height="10pt" viewBox="0 0 12 10" version="1.1">
<g id="surface1">
<path style=" stroke:none;fill-rule:nonzero;fill:rgb(30.196078%,30.196078%,30.196078%);fill-opacity:1;" d="M 2.6875 0 L 0 7 L 0.84375 7 L 1.6875 4.78125 L 4.46875 4.78125 L 5.28125 7 L 6.125 7 L 3.53125 0 Z M 5 0 L 5 1 L 9 1 L 9 0 Z M 10 0 L 10 4 L 12 2 Z M 3.09375 0.84375 C 3.164062 1.082031 3.523438 2.164062 4.1875 4.09375 L 1.9375 4.09375 Z M 6 3 L 6 4 L 9 4 L 9 3 Z M 7 6 L 7 7 L 9 7 L 9 6 Z M 10 6 L 10 10 L 12 8 Z M 0 9 L 0 10 L 9 10 L 9 9 Z M 0 9 "/>
</g>
</svg>
