<?xml version="1.0" encoding="UTF-8"?>
<svg xmlns="http://www.w3.org/2000/svg" xmlns:xlink="http://www.w3.org/1999/xlink" width="11.146484pt" height="12pt" viewBox="0 0 11.146484 12" version="1.1">
<g id="surface1">
<path style=" stroke:none;fill-rule:nonzero;fill:rgb(30.196078%,30.196078%,30.196078%);fill-opacity:1;" d="M 2 0 L 0.0625 5.84375 L 0 6 L 1.0625 6 L 1.40625 5 L 3.65625 5 L 4 6 L 5.0625 6 L 5 5.84375 L 3.0625 0 Z M 2.53125 1.5625 L 3.34375 4 L 1.71875 4 Z M 6.53125 6 L 6.53125 12 L 9.300781 12 C 10.324219 12 11.144531 11.109375 11.144531 10 C 11.144531 9.1875 10.6875 8.503906 10.050781 8.1875 C 10.148438 7.980469 10.222656 7.75 10.222656 7.5 C 10.222656 6.667969 9.605469 6 8.839844 6 Z M 7.453125 7 L 8.839844 7 C 9.09375 7 9.300781 7.222656 9.300781 7.5 C 9.300781 7.777344 9.09375 8 8.839844 8 L 7.453125 8 Z M 7.453125 9 L 9.300781 9 C 9.8125 9 10.222656 9.445312 10.222656 10 C 10.222656 10.554688 9.8125 11 9.300781 11 L 7.453125 11 Z M 7.453125 9 "/>
<path style=" stroke:none;fill-rule:nonzero;fill:rgb(11.372549%,60%,95.294118%);fill-opacity:1;" d="M 5.53125 1 L 5.53125 2 C 7.003906 2 8.25 2.8125 8.9375 4 L 7.53125 4 L 7.53125 5 L 10.4375 5 C 9.972656 2.722656 7.949219 1 5.53125 1 Z M 0.625 7 C 1.089844 9.277344 3.113281 11 5.53125 11 L 5.53125 10 C 4.058594 10 2.8125 9.1875 2.125 8 L 3.53125 8 L 3.53125 7 Z M 0.625 7 "/>
</g>
</svg>
