<?xml version="1.0" encoding="UTF-8"?>
<svg xmlns="http://www.w3.org/2000/svg" xmlns:xlink="http://www.w3.org/1999/xlink" width="12pt" height="12pt" viewBox="0 0 12 12" version="1.1">
<g id="surface1">
<path style=" stroke:none;fill-rule:nonzero;fill:rgb(30.196078%,30.196078%,30.196078%);fill-opacity:1;" d="M 0 0 L 0 3 L 8 3 L 8 0 Z M 4 4 C 2.933594 4 2.46875 4.347656 2.46875 5.25 L 2.46875 6.46875 C 2.46875 7.027344 2.464844 7.6875 1.875 7.6875 L 1.5625 7.6875 L 1.5625 8.3125 L 1.875 8.3125 C 2.464844 8.3125 2.46875 8.972656 2.46875 9.53125 L 2.46875 10.75 C 2.46875 11.652344 2.933594 12 4 12 L 4 11.40625 C 3.289062 11.40625 3.28125 11.179688 3.28125 10.3125 L 3.28125 9.28125 C 3.28125 8.867188 3.128906 8.257812 2.53125 8 C 3.128906 7.742188 3.28125 7.132812 3.28125 6.71875 L 3.28125 5.6875 C 3.28125 4.820312 3.289062 4.59375 4 4.59375 Z M 5 4 L 5 5 L 6 5 L 6 4 Z M 7 4 L 7 4.59375 C 7.710938 4.59375 7.71875 4.820312 7.71875 5.6875 L 7.71875 6.71875 C 7.71875 7.132812 7.839844 7.742188 8.4375 8 C 7.839844 8.257812 7.71875 8.867188 7.71875 9.28125 L 7.71875 10.3125 C 7.71875 11.179688 7.710938 11.40625 7 11.40625 L 7 12 C 8.066406 12 8.53125 11.652344 8.53125 10.75 L 8.53125 9.53125 C 8.53125 8.972656 8.578125 8.3125 9.15625 8.3125 L 9.4375 8.3125 L 9.4375 7.6875 L 9.15625 7.6875 C 8.578125 7.6875 8.53125 7.027344 8.53125 6.46875 L 8.53125 5.25 C 8.53125 4.347656 8.066406 4 7 4 Z M 5 6 L 5 11 L 6 11 L 6 6 Z M 5 6 "/>
<path style=" stroke:none;fill-rule:nonzero;fill:rgb(95.686275%,46.666667%,31.372549%);fill-opacity:1;" d="M 9 0 L 10.5 3 L 12 0 Z M 9 0 "/>
</g>
</svg>
