<?xml version="1.0" encoding="UTF-8"?>
<svg xmlns="http://www.w3.org/2000/svg" xmlns:xlink="http://www.w3.org/1999/xlink" width="10pt" height="12pt" viewBox="0 0 10 12" version="1.1">
<g id="surface1">
<path style=" stroke:none;fill-rule:nonzero;fill:rgb(30.196078%,30.196078%,30.196078%);fill-opacity:1;" d="M 0 0 L 0 12 L 10 12 L 10 3 L 7 0 Z M 1 1 L 6 1 L 6 4 L 9 4 L 9 11 L 1 11 Z M 7 5 L 7 6 L 8 6 L 8 5 Z M 2 8 L 2 9 L 4 9 L 4 8 Z M 2 8 "/>
<path style=" stroke:none;fill-rule:nonzero;fill:rgb(85.490196%,26.666667%,32.54902%);fill-opacity:1;" d="M 2 5 L 2 6 L 6 6 L 6 5 Z M 5 8 L 5 9 L 7.667969 9 L 7.667969 8 Z M 5 8 "/>
</g>
</svg>
