<?xml version="1.0" encoding="UTF-8"?>
<svg xmlns="http://www.w3.org/2000/svg" xmlns:xlink="http://www.w3.org/1999/xlink" width="13pt" height="12pt" viewBox="0 0 13 12" version="1.1">
<g id="surface1">
<path style=" stroke:none;fill-rule:nonzero;fill:rgb(30.196078%,30.196078%,30.196078%);fill-opacity:1;" d="M 0.5 0 L 0.5 1 L 12.5 1 L 12.5 0 Z M 2.472656 2 L 2.472656 7.0625 L 0.757812 5.4375 L 0 6.15625 L 2.769531 8.8125 L 2.96875 9 L 3.03125 9 L 3.230469 8.8125 L 6 6.15625 L 5.242188 5.4375 L 3.527344 7.0625 L 3.527344 2 Z M 9.96875 2 L 9.769531 2.1875 L 7 4.84375 L 7.757812 5.5625 L 9.472656 3.9375 L 9.472656 9 L 10.527344 9 L 10.527344 3.9375 L 12.242188 5.5625 L 13 4.84375 L 10.230469 2.1875 L 10.03125 2 Z M 0.5 11 L 0.5 12 L 3.5 12 L 3.5 11 Z M 0.5 11 "/>
<path style=" stroke:none;fill-rule:nonzero;fill:rgb(95.686275%,46.666667%,31.372549%);fill-opacity:1;" d="M 5.5 10 C 4.949219 10 4.5 10.449219 4.5 11 C 4.5 11.550781 4.949219 12 5.5 12 C 6.050781 12 6.5 11.550781 6.5 11 C 6.5 10.449219 6.050781 10 5.5 10 Z M 8.5 10 C 7.949219 10 7.5 10.449219 7.5 11 C 7.5 11.550781 7.949219 12 8.5 12 C 9.050781 12 9.5 11.550781 9.5 11 C 9.5 10.449219 9.050781 10 8.5 10 Z M 11.5 10 C 10.949219 10 10.5 10.449219 10.5 11 C 10.5 11.550781 10.949219 12 11.5 12 C 12.050781 12 12.5 11.550781 12.5 11 C 12.5 10.449219 12.050781 10 11.5 10 Z M 11.5 10 "/>
</g>
</svg>
