<?xml version="1.0" encoding="UTF-8"?>
<svg xmlns="http://www.w3.org/2000/svg" xmlns:xlink="http://www.w3.org/1999/xlink" width="11pt" height="12pt" viewBox="0 0 11 12" version="1.1">
<g id="surface1">
<path style=" stroke:none;fill-rule:nonzero;fill:rgb(30.196078%,30.196078%,30.196078%);fill-opacity:1;" d="M 2.625 0 L 0 7 L 0.8125 7 L 1.65625 4.78125 L 4.375 4.78125 L 5.1875 7 L 6 7 L 3.4375 0 Z M 7 0 L 7 9 L 8 9 L 8 0 Z M 10 0 L 10 9 L 11 9 L 11 0 Z M 3.03125 0.84375 C 3.097656 1.082031 3.472656 2.164062 4.125 4.09375 L 1.90625 4.09375 Z M 1 8 L 1 9 L 2 9 L 2 8 Z M 4 8 L 4 9 L 5 9 L 5 8 Z M 1 10 L 3 12 L 5 10 Z M 7 10 L 9 12 L 11 10 Z M 7 10 "/>
</g>
</svg>
