<?xml version="1.0" encoding="UTF-8"?>
<svg xmlns="http://www.w3.org/2000/svg" xmlns:xlink="http://www.w3.org/1999/xlink" width="12pt" height="12pt" viewBox="0 0 12 12" version="1.1">
<g id="surface1">
<path style=" stroke:none;fill-rule:nonzero;fill:rgb(30.196078%,30.196078%,30.196078%);fill-opacity:1;" d="M 6 0 C 2.6875 0 0 0.894531 0 2 L 0 10 C 0 11.105469 2.6875 12 6 12 C 9.3125 12 12 11.105469 12 10 L 12 2 C 12 0.894531 9.3125 0 6 0 Z M 6 1 C 8.761719 1 11 1.449219 11 2 C 11 2.550781 8.761719 3 6 3 C 3.238281 3 1 2.550781 1 2 C 1 1.449219 3.238281 1 6 1 Z M 1 3.101562 C 2.109375 3.660156 3.988281 4 6 4 C 8.011719 4 9.890625 3.664062 11 3.101562 L 11 6 C 11 6.550781 8.761719 7 6 7 C 3.238281 7 1 6.550781 1 6 Z M 1 7.101562 C 2.109375 7.660156 3.988281 8 6 8 C 8.011719 8 9.890625 7.664062 11 7.101562 L 11 10 C 11 10.550781 8.761719 11 6 11 C 3.238281 11 1 10.550781 1 10 Z M 1 7.101562 "/>
</g>
</svg>
