<?xml version="1.0" encoding="UTF-8"?>
<svg xmlns="http://www.w3.org/2000/svg" xmlns:xlink="http://www.w3.org/1999/xlink" width="12.000041pt" height="13pt" viewBox="0 0 12.000041 13" version="1.1">
<g id="surface1">
<path style=" stroke:none;fill-rule:nonzero;fill:rgb(30.196078%,30.196078%,30.196078%);fill-opacity:1;" d="M 0 0 L 0 4 L 12 4 L 12 0 Z M 1 1 L 4 1 L 4 3 L 1 3 Z M 5 1 L 7 1 L 7 3 L 5 3 Z M 8 1 L 11 1 L 11 3 L 8 3 Z M 5.40625 5 C 5.199219 5.007812 5.011719 5.015625 4.8125 5.03125 C 3.105469 5.167969 1.410156 5.464844 0.125 6.625 C 0.0820312 6.6875 0.0546875 6.746094 0.03125 6.8125 C 0.0117188 6.875 0 6.9375 0 7 L 0 11 C 0.0078125 11.664062 0.773438 11.980469 1 12.09375 C 2.082031 12.644531 4.023438 12.996094 6 13 C 7.976562 12.996094 9.917969 12.644531 11 12.09375 C 11.226562 11.980469 11.992188 11.664062 12 11 L 12 7 C 12 6.933594 11.992188 6.878906 11.96875 6.8125 C 11.945312 6.746094 11.917969 6.6875 11.875 6.625 C 10.675781 5.398438 8.800781 5.210938 7.1875 5.03125 C 7.175781 5.03125 7.167969 5.03125 7.15625 5.03125 C 6.777344 5.003906 6.394531 5 6 5 C 5.800781 4.996094 5.605469 4.996094 5.40625 5 Z M 5.09375 6 C 5.113281 6 5.136719 6 5.15625 6 C 5.4375 5.996094 5.71875 5.996094 6 6 C 6.28125 5.996094 6.5625 5.996094 6.84375 6 C 6.863281 6 6.886719 6 6.90625 6 C 8.558594 6.0625 9.945312 6.316406 10.59375 6.625 C 10.726562 6.683594 10.835938 6.75 10.90625 6.8125 C 10.96875 6.875 11.003906 6.9375 11 7 C 11 7.523438 8.617188 8 6 8 C 3.382812 8 1 7.523438 1 7 C 0.996094 6.9375 1.035156 6.875 1.09375 6.8125 C 1.160156 6.746094 1.273438 6.6875 1.40625 6.625 C 2.054688 6.316406 3.441406 6.0625 5.09375 6 Z M 1 8.09375 C 2.082031 8.644531 4.023438 8.996094 6 9 C 7.976562 8.996094 9.917969 8.644531 11 8.09375 L 11 11 C 11 11.523438 8.617188 12 6 12 C 3.382812 12 1 11.523438 1 11 Z M 1 8.09375 "/>
</g>
</svg>
