<?xml version="1.0" encoding="UTF-8"?>
<svg xmlns="http://www.w3.org/2000/svg" xmlns:xlink="http://www.w3.org/1999/xlink" width="12pt" height="12pt" viewBox="0 0 12 12" version="1.1">
<g id="surface1">
<path style=" stroke:none;fill-rule:nonzero;fill:rgb(30.196078%,30.196078%,30.196078%);fill-opacity:1;" d="M 0 0 L 0 3 L 1 3 L 1 1 L 3 1 L 3 0 Z M 9 0 L 9 1 L 11 1 L 11 3 L 12 3 L 12 0 Z M 2 2 L 2 10 L 10 10 L 10 2 Z M 3 3 L 9 3 L 9 9 L 3 9 Z M 0 9 L 0 12 L 3 12 L 3 11 L 1 11 L 1 9 Z M 11 9 L 11 11 L 9 11 L 9 12 L 12 12 L 12 9 Z M 11 9 "/>
</g>
</svg>
