<?xml version="1.0" encoding="UTF-8"?>
<svg xmlns="http://www.w3.org/2000/svg" xmlns:xlink="http://www.w3.org/1999/xlink" width="12pt" height="12pt" viewBox="0 0 12 12" version="1.1">
<g id="surface1">
<path style=" stroke:none;fill-rule:nonzero;fill:rgb(30.196078%,30.196078%,30.196078%);fill-opacity:1;" d="M 0 0 L 0 1 L 1 1 L 1 3 L 0 3 L 0 4 L 3 4 L 3 3 L 2 3 L 2 1 L 3 1 L 3 0 Z M 4 2 L 4 3 L 5 3 L 5 5 L 4 5 L 4 6 L 9 6 L 9 5 L 8 5 L 8 3 L 9 3 L 9 2 Z M 6 3 L 7 3 L 7 5 L 6 5 Z M 8 7 L 8 8 L 7 8 L 7 9 L 8 9 L 8 10 L 7 10 L 7 11 L 8 11 L 8 12 L 9 12 L 9 11 L 10 11 L 10 12 L 11 12 L 11 11 L 12 11 L 12 10 L 11 10 L 11 9 L 12 9 L 12 8 L 11 8 L 11 7 L 10 7 L 10 8 L 9 8 L 9 7 Z M 9 9 L 10 9 L 10 10 L 9 10 Z M 9 9 "/>
</g>
</svg>
