<?xml version="1.0" encoding="UTF-8"?>
<svg xmlns="http://www.w3.org/2000/svg" xmlns:xlink="http://www.w3.org/1999/xlink" width="12.000027pt" height="12.000001pt" viewBox="0 0 12.000027 12.000001" version="1.1">
<g id="surface1">
<path style=" stroke:none;fill-rule:nonzero;fill:rgb(30.196078%,30.196078%,30.196078%);fill-opacity:1;" d="M 3.304688 0 C 3.316406 -0.00390625 0 3.3125 0 3.3125 L 0 12 L 8.6875 12 C 8.6875 12 12.011719 8.71875 12 8.71875 L 12 0 Z M 4 1 L 10.28125 1 C 9.449219 1.84375 8.652344 2.660156 8.3125 3 L 4 3 Z M 3 1.71875 L 3 3 L 1.6875 3 Z M 11 1.71875 L 11 8 L 9 8 L 9 3.6875 Z M 1 4 L 3 4 L 3 8.28125 L 2.65625 8.65625 L 1 10.3125 Z M 4 4 L 8 4 L 8 8 L 4 8 Z M 3.71875 9 L 8 9 L 8 11 L 1.6875 11 L 3.34375 9.34375 Z M 9 9 L 10.28125 9 C 9.738281 9.550781 9.546875 9.761719 9 10.3125 Z M 9 9 "/>
</g>
</svg>
