<?xml version="1.0" encoding="UTF-8"?>
<svg xmlns="http://www.w3.org/2000/svg" xmlns:xlink="http://www.w3.org/1999/xlink" width="12pt" height="12pt" viewBox="0 0 12 12" version="1.1">
<g id="surface1">
<path style=" stroke:none;fill-rule:nonzero;fill:rgb(15.294118%,68.235294%,37.647059%);fill-opacity:1;" d="M 2 2 L 2 10 L 10 10 L 10 2 Z M 2 2 "/>
<path style=" stroke:none;fill-rule:nonzero;fill:rgb(30.196078%,30.196078%,30.196078%);fill-opacity:1;" d="M 0 0 L 0 1 L 12 1 L 12 0 Z M 0 3 L 0 4 L 1 4 L 1 3 Z M 11 3 L 11 4 L 12 4 L 12 3 Z M 0 5.5 L 0 6.5 L 1 6.5 L 1 5.5 Z M 11 5.5 L 11 6.5 L 12 6.5 L 12 5.5 Z M 0 8 L 0 9 L 1 9 L 1 8 Z M 11 8 L 11 9 L 12 9 L 12 8 Z M 0 11 L 0 12 L 12 12 L 12 11 Z M 0 11 "/>
</g>
</svg>
