<?xml version="1.0" encoding="UTF-8"?>
<svg xmlns="http://www.w3.org/2000/svg" xmlns:xlink="http://www.w3.org/1999/xlink" width="12pt" height="12pt" viewBox="0 0 12 12" version="1.1">
<g id="surface1">
<path style=" stroke:none;fill-rule:nonzero;fill:rgb(30.196078%,30.196078%,30.196078%);fill-opacity:1;" d="M 0 0 L 0 1 L 12 1 L 12 0 Z M 0 2 L 0 3 L 7 3 L 7 2 Z M 0 5 L 0 6 L 6 6 L 6 5 Z M 0 7 L 0 8 L 4 8 L 4 7 Z M 0 10 L 0 11 L 8 11 L 8 10 Z M 0 10 "/>
<path style=" stroke:none;fill-rule:nonzero;fill:rgb(11.372549%,60%,95.294118%);fill-opacity:1;" d="M 7 5 L 7 6 L 8.5 6 C 9.886719 6 11 7.113281 11 8.5 C 11 9.320312 10.605469 10.042969 10 10.5 L 10 9 L 9 9 L 9 12 L 12 12 L 12 11 L 10.9375 11 C 11.59375 10.367188 12 9.492188 12 8.5 C 12 6.5625 10.4375 5 8.5 5 Z M 7 5 "/>
</g>
</svg>
