<?xml version="1.0" encoding="UTF-8"?>
<svg xmlns="http://www.w3.org/2000/svg" xmlns:xlink="http://www.w3.org/1999/xlink" width="12pt" height="12pt" viewBox="0 0 12 12" version="1.1">
<g id="surface1">
<path style=" stroke:none;fill-rule:nonzero;fill:rgb(30.196078%,30.196078%,30.196078%);fill-opacity:1;" d="M 0 0 L 0 2 L 12 2 L 12 0 Z M 0 4 L 0 6 L 2 6 L 2 4 Z M 3 4 L 3 6 L 5 6 L 5 4 Z M 6 4 L 6 6 L 7 6 L 7 4 Z M 10 4 C 9.609375 5.277344 8.640625 6.371094 8.21875 7.25 C 8.070312 7.511719 8 7.808594 8 8.125 C 8 9.164062 8.890625 10 10 10 C 11.109375 10 12 9.164062 12 8.125 C 12 7.808594 11.898438 7.511719 11.75 7.25 C 11.328125 6.371094 10.390625 5.277344 10 4 Z M 0 8 L 0 9 L 7 9 L 7 8 Z M 0 11 L 0 12 L 1 12 L 1 11 Z M 2 11 L 2 12 L 3 12 L 3 11 Z M 4 11 L 4 12 L 5 12 L 5 11 Z M 6 11 L 6 12 L 7 12 L 7 11 Z M 8 11 L 8 12 L 9 12 L 9 11 Z M 10 11 L 10 12 L 11 12 L 11 11 Z M 10 11 "/>
</g>
</svg>
