<?xml version="1.0" encoding="UTF-8"?>
<svg xmlns="http://www.w3.org/2000/svg" xmlns:xlink="http://www.w3.org/1999/xlink" width="12pt" height="12pt" viewBox="0 0 12 12" version="1.1">
<g id="surface1">
<path style=" stroke:none;fill-rule:nonzero;fill:rgb(30.196078%,30.196078%,30.196078%);fill-opacity:1;" d="M 0 0 L 0 2 L 1 2 L 1 1 L 2 1 L 2 0 Z M 5 0 L 5 1 L 7 1 L 7 0 Z M 10 0 L 10 1 L 11 1 L 11 2 L 12 2 L 12 0 Z M 6 2 L 6 3 L 8.292969 3 L 5 6.292969 L 5.707031 7 L 9 3.707031 L 9 6 L 10 6 L 10 2 Z M 0 5 L 0 7 L 1 7 L 1 5 Z M 11 5 L 11 7 L 12 7 L 12 5 Z M 0 8 L 0 12 L 4 12 L 4 8 Z M 1 9 L 3 9 L 3 11 L 1 11 Z M 11 10 L 11 11 L 10 11 L 10 12 L 12 12 L 12 10 Z M 5 11 L 5 12 L 7 12 L 7 11 Z M 5 11 "/>
</g>
</svg>
