<?xml version="1.0" encoding="UTF-8"?>
<svg xmlns="http://www.w3.org/2000/svg" xmlns:xlink="http://www.w3.org/1999/xlink" width="12pt" height="12pt" viewBox="0 0 12 12" version="1.1">
<g id="surface1">
<path style=" stroke:none;fill-rule:nonzero;fill:rgb(30.196078%,30.196078%,30.196078%);fill-opacity:1;" d="M 0 0 L 0 3 L 1 3 L 1 1 L 3 1 L 3 0 Z M 9 0 L 9 1 L 11 1 L 11 3 L 12 3 L 12 0 Z M 4.9375 3.171875 L 4.234375 3.878906 L 5.179688 4.828125 L 6.351562 6 L 5.179688 7.171875 L 4.234375 8.121094 L 4.9375 8.828125 L 5.890625 7.878906 L 7.765625 6 L 5.890625 4.121094 Z M 0 9 L 0 12 L 3 12 L 3 11 L 1 11 L 1 9 Z M 11 9 L 11 11 L 9 11 L 9 12 L 12 12 L 12 9 Z M 11 9 "/>
</g>
</svg>
