<?xml version="1.0" encoding="UTF-8"?>
<svg xmlns="http://www.w3.org/2000/svg" xmlns:xlink="http://www.w3.org/1999/xlink" width="11pt" height="10pt" viewBox="0 0 11 10" version="1.1">
<g id="surface1">
<path style=" stroke:none;fill-rule:nonzero;fill:rgb(30.196078%,30.196078%,30.196078%);fill-opacity:1;" d="M 0 0 L 0 1 L 1 1 L 1 3 L 0 3 L 0 4 L 3 4 L 3 3 L 2 3 L 2 1 L 3 1 L 3 0 Z M 4 1 L 4 2 L 11 2 L 11 1 Z M 2 6 L 2 7 L 3 7 L 3 9 L 2 9 L 2 10 L 5 10 L 5 9 L 4 9 L 4 7 L 5 7 L 5 6 Z M 6 7 L 6 8 L 11 8 L 11 7 Z M 6 7 "/>
</g>
</svg>
