<?xml version="1.0" encoding="UTF-8"?>
<svg xmlns="http://www.w3.org/2000/svg" xmlns:xlink="http://www.w3.org/1999/xlink" width="12pt" height="12pt" viewBox="0 0 12 12" version="1.1">
<g id="surface1">
<path style=" stroke:none;fill-rule:nonzero;fill:rgb(11.372549%,60%,95.294118%);fill-opacity:1;" d="M 6 2 L 2 6 L 6 10 L 10 6 Z M 6 2 "/>
<path style=" stroke:none;fill-rule:nonzero;fill:rgb(30.196078%,30.196078%,30.196078%);fill-opacity:1;" d="M 0 0 L 0 1 L 12 1 L 12 0 Z M 0 3 L 0 4 L 3 4 L 3 3 Z M 9 3 L 9 4 L 12 4 L 12 3 Z M 0 5.5 L 0 6.5 L 1 6.5 L 1 5.5 Z M 11 5.5 L 11 6.5 L 12 6.5 L 12 5.5 Z M 0 8 L 0 9 L 3 9 L 3 8 Z M 9 8 L 9 9 L 12 9 L 12 8 Z M 0 11 L 0 12 L 12 12 L 12 11 Z M 0 11 "/>
</g>
</svg>
