<?xml version="1.0" encoding="UTF-8"?>
<svg xmlns="http://www.w3.org/2000/svg" xmlns:xlink="http://www.w3.org/1999/xlink" width="23pt" height="23pt" viewBox="0 0 23 23" version="1.1">
<g id="surface1">
<path style=" stroke:none;fill-rule:nonzero;fill:rgb(18.039216%,80%,44.313725%);fill-opacity:1;" d="M 4 4 L 4 19 L 19 19 L 19 4 Z M 4 4 "/>
<path style=" stroke:none;fill-rule:nonzero;fill:rgb(30.196078%,30.196078%,30.196078%);fill-opacity:1;" d="M 0 0 L 0 1 L 23 1 L 23 0 Z M 0 4 L 0 5 L 23 5 L 23 4 Z M 0 8 L 0 9 L 23 9 L 23 8 Z M 0 14 L 0 15 L 23 15 L 23 14 Z M 0 18 L 0 19 L 23 19 L 23 18 Z M 0 22 L 0 23 L 23 23 L 23 22 Z M 0 22 "/>
</g>
</svg>
