<?xml version="1.0" encoding="UTF-8"?>
<svg xmlns="http://www.w3.org/2000/svg" xmlns:xlink="http://www.w3.org/1999/xlink" width="23pt" height="23pt" viewBox="0 0 23 23" version="1.1">
<g id="surface1">
<path style=" stroke:none;fill-rule:nonzero;fill:rgb(11.372549%,60%,95.294118%);fill-opacity:1;" d="M 7.5 4 L 0 11.5 L 7.5 19 L 15 11.5 Z M 7.5 5.414062 L 13.585938 11.5 L 7.5 17.585938 L 1.414062 11.5 Z M 7.5 5.414062 "/>
<path style=" stroke:none;fill-rule:nonzero;fill:rgb(30.196078%,30.196078%,30.196078%);fill-opacity:1;" d="M 0 0 L 0 1 L 23 1 L 23 0 Z M 14 4 L 14 5 L 23 5 L 23 4 Z M 17 8 L 17 9 L 23 9 L 23 8 Z M 17 14 L 17 15 L 23 15 L 23 14 Z M 14 18 L 14 19 L 23 19 L 23 18 Z M 0 22 L 0 23 L 23 23 L 23 22 Z M 0 22 "/>
</g>
</svg>
