<?xml version="1.0" encoding="UTF-8"?>
<svg xmlns="http://www.w3.org/2000/svg" xmlns:xlink="http://www.w3.org/1999/xlink" width="89.80064pt" height="112.00002pt" viewBox="0 0 89.80064 112.00002" version="1.1">
<defs>
<linearGradient id="linear0" gradientUnits="userSpaceOnUse" x1="560.78583" y1="785.70648" x2="560.78583" y2="727.70654" gradientTransform="matrix(2.036363,0,0,1.931036,-1097.16306,-1405.22752)">
<stop offset="0" style="stop-color:rgb(95.294118%,61.176471%,7.058824%);stop-opacity:1;"/>
<stop offset="1" style="stop-color:rgb(96.078431%,67.058824%,20.784314%);stop-opacity:1;"/>
</linearGradient>
<filter id="alpha" filterUnits="objectBoundingBox" x="0%" y="0%" width="100%" height="100%">
  <feColorMatrix type="matrix" in="SourceGraphic" values="0 0 0 0 1 0 0 0 0 1 0 0 0 0 1 0 0 0 1 0"/>
</filter>
<mask id="mask0">
  <g filter="url(#alpha)">
<rect x="0" y="0" width="89.80064" height="112.00002" style="fill:rgb(0%,0%,0%);fill-opacity:0.2;stroke:none;"/>
  </g>
</mask>
<linearGradient id="linear1" gradientUnits="userSpaceOnUse" x1="42.000012" y1="965.362192" x2="86.400032" y2="1010.762204" gradientTransform="matrix(1,0,0,1,0.80064,-924.36218)">
<stop offset="0" style="stop-color:rgb(21.960784%,24.313725%,31.764706%);stop-opacity:1;"/>
<stop offset="1" style="stop-color:rgb(39.607843%,36.078431%,43.529412%);stop-opacity:0;"/>
</linearGradient>
<clipPath id="clip1">
  <rect width="129" height="128"/>
</clipPath>
<g id="surface6" clip-path="url(#clip1)">
<path style=" stroke:none;fill-rule:evenodd;fill:url(#linear1);" d="M 81.800781 86 L 47.800781 86 L 82.800781 120 L 109.601562 120 L 109.800781 76 L 70.800781 44 L 74.800781 52 L 74.800781 64 L 81.800781 64 Z M 81.800781 86 "/>
</g>
<linearGradient id="linear2" gradientUnits="userSpaceOnUse" x1="65" y1="1010.3622" x2="65" y2="966.36218" gradientTransform="matrix(1,0,0,1,-19.19936,-932.36218)">
<stop offset="0" style="stop-color:rgb(96.862745%,73.333333%,36.470588%);stop-opacity:1;"/>
<stop offset="1" style="stop-color:rgb(98.823529%,89.019608%,73.72549%);stop-opacity:1;"/>
</linearGradient>
</defs>
<g id="surface1">
<path style=" stroke:none;fill-rule:nonzero;fill:url(#linear0);" d="M 0.0273438 0 C 0.0117188 0 0 9.992188 0 22.398438 L 0 89.601562 C 0 102.007812 0.0117188 112 0.0273438 112 L 89.574219 112 C 89.589844 112 89.601562 102.007812 89.601562 89.601562 L 89.601562 33.601562 L 56 0 Z M 0.0273438 0 "/>
<path style=" stroke:none;fill-rule:nonzero;fill:rgb(18.039216%,19.215686%,19.607843%);fill-opacity:0.294118;" d="M 0 109.199219 L 89.601562 109.199219 L 89.601562 112 L 0 112 Z M 0 109.199219 "/>
<path style=" stroke:none;fill-rule:nonzero;fill:rgb(72.54902%,48.627451%,10.588235%);fill-opacity:1;" d="M 89.574219 27.972656 C 89.589844 27.949219 89.601562 21.742188 89.601562 14 C 89.601562 6.242188 89.589844 0 89.574219 0 L 61.628906 0 C 61.628906 0 61.628906 0.0273438 61.628906 0.0273438 Z M 89.574219 27.972656 "/>
<use xlink:href="#surface6" transform="matrix(1,0,0,1,-20,-8)" mask="url(#mask0)"/>
<path style=" stroke:none;fill-rule:nonzero;fill:url(#linear2);" d="M 44.800781 34 C 39.261719 34 34.800781 38.460938 34.800781 44 L 34.800781 56 L 27.800781 56 L 27.800781 78 L 61.800781 78 L 61.800781 56 L 54.800781 56 L 54.800781 44 C 54.800781 38.460938 50.339844 34 44.800781 34 Z M 44.800781 37 C 49.234375 37 51.800781 39.566406 51.800781 44 L 51.800781 56 L 37.800781 56 L 37.800781 44 C 37.800781 39.566406 40.367188 37 44.800781 37 Z M 30.800781 59 L 58.800781 59 L 58.800781 75 L 30.800781 75 Z M 30.800781 59 "/>
</g>
</svg>
