<?xml version="1.0" encoding="UTF-8"?>
<svg xmlns="http://www.w3.org/2000/svg" xmlns:xlink="http://www.w3.org/1999/xlink" width="16pt" height="16pt" viewBox="0 0 16 16" version="1.1">
<g id="surface1">
<path style=" stroke:none;fill-rule:nonzero;fill:rgb(30.196078%,30.196078%,30.196078%);fill-opacity:1;" d="M 0 0 L 0 16 L 10 16 L 10 15 L 1 15 L 1 7 L 4 7 L 4 6.988281 L 4.007812 7 L 6.007812 5 L 15 5 L 15 10 L 16 10 L 16 2 L 9.007812 2 L 7.007812 0 L 7 0.0078125 L 7 0 Z M 13 11 L 13 13 L 11 13 L 11 14 L 13 14 L 13 16 L 14 16 L 14 14 L 16 14 L 16 13 L 14 13 L 14 11 Z M 13 11 "/>
</g>
</svg>
