<?xml version="1.0" encoding="UTF-8"?>
<svg xmlns="http://www.w3.org/2000/svg" xmlns:xlink="http://www.w3.org/1999/xlink" width="16pt" height="15pt" viewBox="0 0 16 15" version="1.1">
<g id="surface1">
<path style=" stroke:none;fill-rule:nonzero;fill:rgb(70.196078%,70.196078%,70.196078%);fill-opacity:1;" d="M 1 0 L 1 1 L 2 1 L 2 3 L 1 3 L 1 4 L 4 4 L 4 3 L 3 3 L 3 1 L 4 1 L 4 0 Z M 6 0 L 6 1 L 16 1 L 16 0 Z M 6 2 L 6 3 L 13 3 L 13 2 Z M 0 6 L 0 7 L 1 7 L 1 9 L 0 9 L 0 10 L 5 10 L 5 9 L 4 9 L 4 7 L 5 7 L 5 6 Z M 6 6 L 6 7 L 16 7 L 16 6 Z M 2 7 L 3 7 L 3 9 L 2 9 Z M 6 8 L 6 9 L 9 9 L 9 8 Z M 11.875 8 L 11.875 9 L 16 9 L 16 8 Z M 6 12 L 6 13 L 12 13 L 12 12 Z M 14 12 L 14 13 L 16 13 L 16 12 Z M 6 14 L 6 15 L 8 15 L 8 14 Z M 10 14 L 10 15 L 16 15 L 16 14 Z M 10 14 "/>
</g>
</svg>
