<?xml version="1.0" encoding="UTF-8"?>
<svg xmlns="http://www.w3.org/2000/svg" xmlns:xlink="http://www.w3.org/1999/xlink" width="48pt" height="32pt" viewBox="0 0 48 32" version="1.1">
<defs>
<linearGradient id="linear0" gradientUnits="userSpaceOnUse" x1="26.21154" y1="43.999989" x2="26.21154" y2="6.999989" gradientTransform="matrix(-1.297297,0,0,1.215486,57.081084,-8.5083)">
<stop offset="0" style="stop-color:rgb(77.647059%,7.843137%,13.72549%);stop-opacity:1;"/>
<stop offset="1" style="stop-color:rgb(86.27451%,16.862745%,25.490196%);stop-opacity:1;"/>
</linearGradient>
<filter id="alpha" filterUnits="objectBoundingBox" x="0%" y="0%" width="100%" height="100%">
  <feColorMatrix type="matrix" in="SourceGraphic" values="0 0 0 0 1 0 0 0 0 1 0 0 0 0 1 0 0 0 1 0"/>
</filter>
<mask id="mask0">
  <g filter="url(#alpha)">
<rect x="0" y="0" width="48" height="32" style="fill:rgb(0%,0%,0%);fill-opacity:0.2;stroke:none;"/>
  </g>
</mask>
<linearGradient id="linear1" gradientUnits="userSpaceOnUse" x1="19.999998" y1="19.999998" x2="43.999996" y2="44" gradientTransform="matrix(1,0,0,1,-4,-12)">
<stop offset="0" style="stop-color:rgb(0.784314%,1.176471%,1.176471%);stop-opacity:1;"/>
<stop offset="1" style="stop-color:rgb(25.882353%,27.45098%,28.627451%);stop-opacity:0;"/>
</linearGradient>
<clipPath id="clip1">
  <rect width="56" height="40"/>
</clipPath>
<g id="surface6" clip-path="url(#clip1)">
<path style=" stroke:none;fill-rule:nonzero;fill:url(#linear1);" d="M 38.90625 12.5625 L 20.28125 30.125 L 15.03125 30.96875 L 20.65625 36 L 52 36 L 52 25.09375 Z M 38.90625 12.5625 "/>
</g>
<linearGradient id="linear2" gradientUnits="userSpaceOnUse" x1="-40.514721" y1="28.485283" x2="-23.544157" y2="11.51472" gradientTransform="matrix(0.707107,-0.707107,0.707107,0.707107,31.506097,-21.79037)">
<stop offset="0" style="stop-color:rgb(92.941176%,52.54902%,55.294118%);stop-opacity:1;"/>
<stop offset="1" style="stop-color:rgb(98.431373%,90.196078%,90.980392%);stop-opacity:1;"/>
</linearGradient>
</defs>
<g id="surface1">
<rect x="0" y="0" width="48" height="32" style="fill:url(#linear0);stroke:none;"/>
<use xlink:href="#surface6" transform="matrix(1,0,0,1,-4,-4)" mask="url(#mask0)"/>
<path style=" stroke:none;fill-rule:nonzero;fill:rgb(66.666667%,6.666667%,11.764706%);fill-opacity:1;" d="M 0 31 L 0 32 L 48 32 L 48 31 Z M 0 31 "/>
<path style=" stroke:none;fill-rule:nonzero;fill:url(#linear2);" d="M 29.386719 2.960938 L 11 21.34375 L 11 27 L 16.65625 27 L 35.042969 8.613281 Z M 28.324219 7.554688 L 30.445312 9.675781 L 14.890625 25.234375 L 12.765625 23.109375 Z M 28.324219 7.554688 "/>
</g>
</svg>
