<?xml version="1.0" encoding="UTF-8"?>
<svg xmlns="http://www.w3.org/2000/svg" xmlns:xlink="http://www.w3.org/1999/xlink" width="18pt" height="16pt" viewBox="0 0 18 16" version="1.1">
<g id="surface1">
<path style=" stroke:none;fill-rule:nonzero;fill:rgb(30.196078%,30.196078%,30.196078%);fill-opacity:1;" d="M 0 0 L 0 16 L 18 16 L 18 0 Z M 1 1 L 17 1 L 17 15 L 1 15 Z M 3 6 L 3 7 L 8 7 L 8 6 Z M 10 6 L 10 7 L 15 7 L 15 6 Z M 3 9 L 3 10 L 8 10 L 8 9 Z M 10 9 L 10 10 L 15 10 L 15 9 Z M 3 12 L 3 13 L 8 13 L 8 12 Z M 10 12 L 10 13 L 15 13 L 15 12 Z M 10 12 "/>
<path style=" stroke:none;fill-rule:nonzero;fill:rgb(11.372549%,60%,95.294118%);fill-opacity:1;" d="M 3 3 L 3 4 L 8 4 L 8 3 Z M 10 3 L 10 4 L 15 4 L 15 3 Z M 10 3 "/>
</g>
</svg>
