<?xml version="1.0" encoding="UTF-8"?>
<svg xmlns="http://www.w3.org/2000/svg" xmlns:xlink="http://www.w3.org/1999/xlink" width="16pt" height="19pt" viewBox="0 0 16 19" version="1.1">
<g id="surface1">
<path style=" stroke:none;fill-rule:nonzero;fill:rgb(30.196078%,30.196078%,30.196078%);fill-opacity:1;" d="M 0 0 L 0 19 L 16 19 L 16 0 Z M 1 1 L 15 1 L 15 18 L 1 18 Z M 2 6 L 2 7 L 5 7 L 5 6 Z M 6 6 L 6 7 L 14 7 L 14 6 Z M 2 9 L 2 10 L 5 10 L 5 9 Z M 6 9 L 6 10 L 14 10 L 14 9 Z M 2 12 L 2 13 L 5 13 L 5 12 Z M 6 12 L 6 13 L 14 13 L 14 12 Z M 2 15 L 2 16 L 5 16 L 5 15 Z M 6 15 L 6 16 L 14 16 L 14 15 Z M 6 15 "/>
<path style=" stroke:none;fill-rule:nonzero;fill:rgb(11.372549%,60%,95.294118%);fill-opacity:1;" d="M 2 3 L 2 4 L 5 4 L 5 3 Z M 6 3 L 6 4 L 14 4 L 14 3 Z M 6 3 "/>
</g>
</svg>
