<?xml version="1.0" encoding="UTF-8"?>
<svg xmlns="http://www.w3.org/2000/svg" xmlns:xlink="http://www.w3.org/1999/xlink" width="16pt" height="19pt" viewBox="0 0 16 19" version="1.1">
<g id="surface1">
<path style=" stroke:none;fill-rule:nonzero;fill:rgb(30.196078%,30.196078%,30.196078%);fill-opacity:1;" d="M 0 0 L 0 19 L 16 19 L 16 0 Z M 1 1 L 15 1 L 15 18 L 1 18 Z M 4.65625 6 L 1.984375 13 L 2.984375 13 L 3.621094 11.203125 L 6.777344 11.203125 L 7.414062 13 L 8.398438 13 L 5.730469 6 Z M 11.25 6 C 10.007812 6 9 6.894531 9 8 L 10 8 C 10 7.386719 10.558594 6.890625 11.25 6.890625 C 11.941406 6.890625 12.5 7.386719 12.5 8 C 12.5 8.425781 12.222656 8.816406 11.792969 9 L 11 9 L 11 10 L 11.792969 10 C 12.222656 10.183594 12.5 10.574219 12.5 11 C 12.5 11.613281 11.941406 12.109375 11.25 12.109375 C 10.558594 12.109375 10 11.613281 10 11 L 9 11 C 9 12.105469 10.007812 13 11.25 13 C 12.492188 13 13.5 12.105469 13.5 11 C 13.5 10.425781 13.21875 9.878906 12.734375 9.5 C 13.21875 9.121094 13.5 8.574219 13.5 8 C 13.5 6.894531 12.492188 6 11.25 6 Z M 5.191406 6.933594 L 6.480469 10.417969 L 3.90625 10.417969 Z M 5.191406 6.933594 "/>
</g>
</svg>
