<?xml version="1.0" encoding="UTF-8"?>
<svg xmlns="http://www.w3.org/2000/svg" xmlns:xlink="http://www.w3.org/1999/xlink" width="18pt" height="15pt" viewBox="0 0 18 15" version="1.1">
<g id="surface1">
<path style=" stroke:none;fill-rule:nonzero;fill:rgb(30.196078%,30.196078%,30.196078%);fill-opacity:1;" d="M 0 0 L 0 15 L 18 15 L 18 0 Z M 1 1 L 17 1 L 17 14 L 1 14 Z M 6.5 4 C 4.566406 4 3 5.566406 3 7.5 C 3 9.433594 4.566406 11 6.5 11 C 7.257812 11 7.957031 10.753906 8.53125 10.34375 L 7.84375 9.59375 C 7.457031 9.839844 6.992188 10 6.5 10 C 5.121094 10 4 8.878906 4 7.5 C 4 6.121094 5.121094 5 6.5 5 C 6.992188 5 7.457031 5.160156 7.84375 5.40625 L 8.53125 4.65625 C 7.957031 4.246094 7.257812 4 6.5 4 Z M 10 4 L 10 7.5 L 12.25 7.5 C 12.941406 7.5 13.5 8.058594 13.5 8.75 C 13.5 9.441406 12.941406 10 12.25 10 C 11.558594 10 11 9.441406 11 8.75 L 10 8.75 C 10 9.992188 11.007812 11 12.25 11 C 13.492188 11 14.5 9.992188 14.5 8.75 C 14.5 7.507812 13.492188 6.5 12.25 6.5 L 11 6.5 L 11 5 L 14.25 5 L 14.25 4 Z M 10 4 "/>
</g>
</svg>
