<?xml version="1.0" encoding="UTF-8"?>
<svg xmlns="http://www.w3.org/2000/svg" xmlns:xlink="http://www.w3.org/1999/xlink" width="18pt" height="15pt" viewBox="0 0 18 15" version="1.1">
<g id="surface1">
<path style=" stroke:none;fill-rule:nonzero;fill:rgb(30.196078%,30.196078%,30.196078%);fill-opacity:1;" d="M 0 0 L 0 15 L 18 15 L 18 0 Z M 1 1 L 17 1 L 17 14 L 1 14 Z M 3 4 L 3 11 L 6 11 C 7.105469 11 8 10.105469 8 9 C 8 8.125 7.4375 7.398438 6.65625 7.125 C 6.871094 6.804688 7 6.414062 7 6 C 7 4.894531 6.105469 4 5 4 Z M 10 4 L 10 7.5 L 12.25 7.5 C 12.941406 7.5 13.5 8.058594 13.5 8.75 C 13.5 9.441406 12.941406 10 12.25 10 C 11.558594 10 11 9.441406 11 8.75 L 10 8.75 C 10 9.992188 11.007812 11 12.25 11 C 13.492188 11 14.5 9.992188 14.5 8.75 C 14.5 7.507812 13.492188 6.5 12.25 6.5 L 11 6.5 L 11 5 L 14.25 5 L 14.25 4 Z M 4 5 L 5 5 C 5.550781 5 6 5.449219 6 6 C 6 6.550781 5.550781 7 5 7 L 4 7 Z M 4 8 L 6 8 C 6.550781 8 7 8.449219 7 9 C 7 9.550781 6.550781 10 6 10 L 4 10 Z M 4 8 "/>
</g>
</svg>
