<?xml version="1.0" encoding="UTF-8"?>
<svg xmlns="http://www.w3.org/2000/svg" xmlns:xlink="http://www.w3.org/1999/xlink" width="18pt" height="15pt" viewBox="0 0 18 15" version="1.1">
<g id="surface1">
<path style=" stroke:none;fill-rule:nonzero;fill:rgb(30.196078%,30.196078%,30.196078%);fill-opacity:1;" d="M 0 0 L 0 15 L 18 15 L 18 0 Z M 1 1 L 17 1 L 17 14 L 1 14 Z M 5.65625 4 L 2.984375 11 L 3.984375 11 L 4.621094 9.203125 L 7.777344 9.203125 L 8.414062 11 L 9.398438 11 L 6.730469 4 Z M 13 4 L 10 8.238281 L 10 9 L 13 9 L 13 11 L 14 11 L 14 9 L 15 9 L 15 8 L 14 8 L 14 4 Z M 6.191406 4.933594 L 7.480469 8.417969 L 4.90625 8.417969 Z M 13 5.476562 L 13 8 L 11.296875 8 Z M 13 5.476562 "/>
</g>
</svg>
