<?xml version="1.0" encoding="UTF-8"?>
<svg xmlns="http://www.w3.org/2000/svg" xmlns:xlink="http://www.w3.org/1999/xlink" width="22pt" height="20pt" viewBox="0 0 22 20" version="1.1">
<g id="surface1">
<path style=" stroke:none;fill-rule:nonzero;fill:rgb(30.196078%,30.196078%,30.196078%);fill-opacity:1;" d="M 2 2 L 2 15 L 3 15 L 3 3 L 17 3 L 17 2 Z M 19 5 L 19 17 L 5 17 L 5 18 L 20 18 L 20 5 Z M 19 5 "/>
<path style=" stroke:none;fill-rule:nonzero;fill:rgb(11.372549%,60%,95.294118%);fill-opacity:1;" d="M 19 0 L 19 2 L 17 2 L 17 3 L 19 3 L 19 5 L 20 5 L 20 3 L 22 3 L 22 2 L 20 2 L 20 0 Z M 2 15 L 2 17 L 0 17 L 0 18 L 2 18 L 2 20 L 3 20 L 3 18 L 5 18 L 5 17 L 3 17 L 3 15 Z M 2 15 "/>
</g>
</svg>
