<?xml version="1.0" encoding="UTF-8"?>
<svg xmlns="http://www.w3.org/2000/svg" xmlns:xlink="http://www.w3.org/1999/xlink" width="16pt" height="19pt" viewBox="0 0 16 19" version="1.1">
<g id="surface1">
<path style=" stroke:none;fill-rule:nonzero;fill:rgb(30.196078%,30.196078%,30.196078%);fill-opacity:1;" d="M 0 0 L 0 19 L 16 19 L 16 0 Z M 1 1 L 15 1 L 15 18 L 1 18 Z M 5.5 6 C 3.566406 6 2 7.566406 2 9.5 C 2 11.433594 3.566406 13 5.5 13 C 6.257812 13 6.957031 12.753906 7.53125 12.34375 L 6.84375 11.59375 C 6.457031 11.839844 5.992188 12 5.5 12 C 4.121094 12 3 10.878906 3 9.5 C 3 8.121094 4.121094 7 5.5 7 C 5.992188 7 6.457031 7.160156 6.84375 7.40625 L 7.53125 6.65625 C 6.957031 6.246094 6.257812 6 5.5 6 Z M 9 6 L 9 9.5 L 11.25 9.5 C 11.941406 9.5 12.5 10.058594 12.5 10.75 C 12.5 11.441406 11.941406 12 11.25 12 C 10.558594 12 10 11.441406 10 10.75 L 9 10.75 C 9 11.992188 10.007812 13 11.25 13 C 12.492188 13 13.5 11.992188 13.5 10.75 C 13.5 9.507812 12.492188 8.5 11.25 8.5 L 10 8.5 L 10 7 L 13.25 7 L 13.25 6 Z M 9 6 "/>
</g>
</svg>
