<?xml version="1.0" encoding="UTF-8"?>
<svg xmlns="http://www.w3.org/2000/svg" xmlns:xlink="http://www.w3.org/1999/xlink" width="16pt" height="19pt" viewBox="0 0 16 19" version="1.1">
<g id="surface1">
<path style=" stroke:none;fill-rule:nonzero;fill:rgb(30.196078%,30.196078%,30.196078%);fill-opacity:1;" d="M 0 0 L 0 19 L 16 19 L 16 0 Z M 1 1 L 15 1 L 15 18 L 1 18 Z M 4.65625 6 L 1.984375 13 L 2.984375 13 L 3.621094 11.203125 L 6.777344 11.203125 L 7.414062 13 L 8.398438 13 L 5.730469 6 Z M 9 6 L 9 9.5 L 11.25 9.5 C 11.941406 9.5 12.5 10.058594 12.5 10.75 C 12.5 11.441406 11.941406 12 11.25 12 C 10.558594 12 10 11.441406 10 10.75 L 9 10.75 C 9 11.992188 10.007812 13 11.25 13 C 12.492188 13 13.5 11.992188 13.5 10.75 C 13.5 9.507812 12.492188 8.5 11.25 8.5 L 10 8.5 L 10 7 L 13.25 7 L 13.25 6 Z M 5.191406 6.933594 L 6.480469 10.417969 L 3.90625 10.417969 Z M 5.191406 6.933594 "/>
</g>
</svg>
