<?xml version="1.0" encoding="UTF-8"?>
<svg xmlns="http://www.w3.org/2000/svg" xmlns:xlink="http://www.w3.org/1999/xlink" width="20pt" height="22pt" viewBox="0 0 20 22" version="1.1">
<g id="surface1">
<path style=" stroke:none;fill-rule:nonzero;fill:rgb(30.196078%,30.196078%,30.196078%);fill-opacity:1;" d="M 2 2 L 2 17 L 3 17 L 3 3 L 15 3 L 15 2 Z M 17 5 L 17 19 L 5 19 L 5 20 L 18 20 L 18 5 Z M 17 5 "/>
<path style=" stroke:none;fill-rule:nonzero;fill:rgb(11.372549%,60%,95.294118%);fill-opacity:1;" d="M 17 0 L 17 2 L 15 2 L 15 3 L 17 3 L 17 5 L 18 5 L 18 3 L 20 3 L 20 2 L 18 2 L 18 0 Z M 2 17 L 2 19 L 0 19 L 0 20 L 2 20 L 2 22 L 3 22 L 3 20 L 5 20 L 5 19 L 3 19 L 3 17 Z M 2 17 "/>
</g>
</svg>
