<?xml version="1.0" encoding="UTF-8"?>
<svg xmlns="http://www.w3.org/2000/svg" xmlns:xlink="http://www.w3.org/1999/xlink" width="16pt" height="19pt" viewBox="0 0 16 19" version="1.1">
<g id="surface1">
<path style=" stroke:none;fill-rule:nonzero;fill:rgb(30.196078%,30.196078%,30.196078%);fill-opacity:1;" d="M 0 0 L 0 19 L 16 19 L 16 0 Z M 1 1 L 15 1 L 15 18 L 1 18 Z M 4.65625 6 L 1.984375 13 L 2.984375 13 L 3.621094 11.203125 L 6.777344 11.203125 L 7.414062 13 L 8.398438 13 L 5.730469 6 Z M 12 6 L 9 10.238281 L 9 11 L 12 11 L 12 13 L 13 13 L 13 11 L 14 11 L 14 10 L 13 10 L 13 6 Z M 5.191406 6.933594 L 6.480469 10.417969 L 3.90625 10.417969 Z M 12 7.476562 L 12 10 L 10.296875 10 Z M 12 7.476562 "/>
</g>
</svg>
