<?xml version="1.0" encoding="UTF-8"?>
<svg xmlns="http://www.w3.org/2000/svg" xmlns:xlink="http://www.w3.org/1999/xlink" width="18pt" height="15pt" viewBox="0 0 18 15" version="1.1">
<g id="surface1">
<path style=" stroke:none;fill-rule:nonzero;fill:rgb(30.196078%,30.196078%,30.196078%);fill-opacity:1;" d="M 0 0 L 0 15 L 18 15 L 18 0 Z M 1 1 L 17 1 L 17 14 L 1 14 Z M 3 4 L 3 11 L 6 11 C 7.105469 11 8 10.105469 8 9 C 8 8.125 7.4375 7.398438 6.65625 7.125 C 6.871094 6.804688 7 6.414062 7 6 C 7 4.894531 6.105469 4 5 4 Z M 13 4 L 10 8.238281 L 10 9 L 13 9 L 13 11 L 14 11 L 14 9 L 15 9 L 15 8 L 14 8 L 14 4 Z M 4 5 L 5 5 C 5.550781 5 6 5.449219 6 6 C 6 6.550781 5.550781 7 5 7 L 4 7 Z M 13 5.476562 L 13 8 L 11.296875 8 Z M 4 8 L 6 8 C 6.550781 8 7 8.449219 7 9 C 7 9.550781 6.550781 10 6 10 L 4 10 Z M 4 8 "/>
</g>
</svg>
