<?xml version="1.0" encoding="UTF-8"?>
<svg xmlns="http://www.w3.org/2000/svg" xmlns:xlink="http://www.w3.org/1999/xlink" width="18pt" height="15pt" viewBox="0 0 18 15" version="1.1">
<g id="surface1">
<path style=" stroke:none;fill-rule:nonzero;fill:rgb(30.196078%,30.196078%,30.196078%);fill-opacity:1;" d="M 0 0 L 0 15 L 18 15 L 18 0 Z M 1 1 L 17 1 L 17 14 L 1 14 Z M 5.65625 4 L 2.984375 11 L 3.984375 11 L 4.621094 9.203125 L 7.777344 9.203125 L 8.414062 11 L 9.398438 11 L 6.730469 4 Z M 12.25 4 C 11.007812 4 10 4.894531 10 6 L 11 6 C 11 5.386719 11.558594 4.890625 12.25 4.890625 C 12.941406 4.890625 13.5 5.386719 13.5 6 C 13.5 6.425781 13.222656 6.816406 12.792969 7 L 12 7 L 12 8 L 12.792969 8 C 13.222656 8.183594 13.5 8.574219 13.5 9 C 13.5 9.613281 12.941406 10.109375 12.25 10.109375 C 11.558594 10.109375 11 9.613281 11 9 L 10 9 C 10 10.105469 11.007812 11 12.25 11 C 13.492188 11 14.5 10.105469 14.5 9 C 14.5 8.425781 14.21875 7.878906 13.734375 7.5 C 14.21875 7.121094 14.5 6.574219 14.5 6 C 14.5 4.894531 13.492188 4 12.25 4 Z M 6.191406 4.933594 L 7.480469 8.417969 L 4.90625 8.417969 Z M 6.191406 4.933594 "/>
</g>
</svg>
