<?xml version="1.0" encoding="UTF-8"?>
<svg xmlns="http://www.w3.org/2000/svg" xmlns:xlink="http://www.w3.org/1999/xlink" width="18pt" height="15pt" viewBox="0 0 18 15" version="1.1">
<g id="surface1">
<path style=" stroke:none;fill-rule:nonzero;fill:rgb(30.196078%,30.196078%,30.196078%);fill-opacity:1;" d="M 0 0 L 0 15 L 18 15 L 18 0 Z M 1 1 L 17 1 L 17 14 L 1 14 Z M 5.65625 4 L 2.984375 11 L 3.984375 11 L 4.621094 9.203125 L 7.777344 9.203125 L 8.414062 11 L 9.398438 11 L 6.730469 4 Z M 10 4 L 10 7.5 L 12.25 7.5 C 12.941406 7.5 13.5 8.058594 13.5 8.75 C 13.5 9.441406 12.941406 10 12.25 10 C 11.558594 10 11 9.441406 11 8.75 L 10 8.75 C 10 9.992188 11.007812 11 12.25 11 C 13.492188 11 14.5 9.992188 14.5 8.75 C 14.5 7.507812 13.492188 6.5 12.25 6.5 L 11 6.5 L 11 5 L 14.25 5 L 14.25 4 Z M 6.191406 4.933594 L 7.480469 8.417969 L 4.90625 8.417969 Z M 6.191406 4.933594 "/>
</g>
</svg>
