<?xml version="1.0" encoding="UTF-8"?>
<svg xmlns="http://www.w3.org/2000/svg" xmlns:xlink="http://www.w3.org/1999/xlink" width="19pt" height="14pt" viewBox="0 0 19 14" version="1.1">
<g id="surface1">
<path style=" stroke:none;fill-rule:nonzero;fill:rgb(30.196078%,30.196078%,30.196078%);fill-opacity:1;" d="M 0 0 L 0 14 L 19 14 L 19 0 Z M 1 1 L 18 1 L 18 13 L 1 13 Z M 1 1 "/>
<path style=" stroke:none;fill-rule:nonzero;fill:rgb(11.372549%,60%,95.294118%);fill-opacity:1;" d="M 4 1 L 4 4 L 1 4 L 1 5 L 4 5 L 4 9 L 1 9 L 1 10 L 4 10 L 4 13 L 5 13 L 5 10 L 14 10 L 14 13 L 15 13 L 15 10 L 18 10 L 18 9 L 15 9 L 15 5 L 18 5 L 18 4 L 15 4 L 15 1 L 14 1 L 14 4 L 5 4 L 5 1 Z M 5 5 L 14 5 L 14 9 L 5 9 Z M 5 5 "/>
</g>
</svg>
