<?xml version="1.0" encoding="UTF-8"?>
<svg xmlns="http://www.w3.org/2000/svg" xmlns:xlink="http://www.w3.org/1999/xlink" width="19pt" height="14pt" viewBox="0 0 19 14" version="1.1">
<g id="surface1">
<path style=" stroke:none;fill-rule:nonzero;fill:rgb(30.196078%,30.196078%,30.196078%);fill-opacity:1;" d="M 0 0 L 0 14 L 19 14 L 19 0 Z M 1 1 L 18 1 L 18 13 L 1 13 Z M 1 1 "/>
<path style=" stroke:none;fill-rule:nonzero;fill:rgb(11.372549%,60%,95.294118%);fill-opacity:1;" d="M 2 1 L 2 2 L 1 2 L 1 3 L 2 3 L 2 11 L 1 11 L 1 12 L 2 12 L 2 13 L 3 13 L 3 12 L 16 12 L 16 13 L 17 13 L 17 12 L 18 12 L 18 11 L 17 11 L 17 3 L 18 3 L 18 2 L 17 2 L 17 1 L 16 1 L 16 2 L 3 2 L 3 1 Z M 3 3 L 16 3 L 16 11 L 3 11 Z M 3 3 "/>
</g>
</svg>
