<?xml version="1.0" encoding="UTF-8"?>
<svg xmlns="http://www.w3.org/2000/svg" xmlns:xlink="http://www.w3.org/1999/xlink" width="25pt" height="19pt" viewBox="0 0 25 19" version="1.1">
<g id="surface1">
<path style=" stroke:none;fill-rule:nonzero;fill:rgb(30.196078%,30.196078%,30.196078%);fill-opacity:1;" d="M 0 0 L 0 19 L 25 19 L 25 0 Z M 1 1 L 12 1 L 12 18 L 1 18 Z M 13 1 L 24 1 L 24 18 L 13 18 Z M 13 1 "/>
<path style=" stroke:none;fill-rule:nonzero;fill:rgb(11.372549%,60%,95.294118%);fill-opacity:1;" d="M 3 1 L 3 3 L 1 3 L 1 4 L 3 4 L 3 15 L 1 15 L 1 16 L 3 16 L 3 18 L 4 18 L 4 16 L 9 16 L 9 18 L 10 18 L 10 16 L 12 16 L 12 15 L 10 15 L 10 4 L 12 4 L 12 3 L 10 3 L 10 1 L 9 1 L 9 3 L 4 3 L 4 1 Z M 15 1 L 15 3 L 13 3 L 13 4 L 15 4 L 15 15 L 13 15 L 13 16 L 15 16 L 15 18 L 16 18 L 16 16 L 21 16 L 21 18 L 22 18 L 22 16 L 24 16 L 24 15 L 22 15 L 22 4 L 24 4 L 24 3 L 22 3 L 22 1 L 21 1 L 21 3 L 16 3 L 16 1 Z M 4 4 L 9 4 L 9 15 L 4 15 Z M 16 4 L 21 4 L 21 15 L 16 15 Z M 16 4 "/>
</g>
</svg>
