<?xml version="1.0" encoding="UTF-8"?>
<svg xmlns="http://www.w3.org/2000/svg" xmlns:xlink="http://www.w3.org/1999/xlink" width="14pt" height="19pt" viewBox="0 0 14 19" version="1.1">
<g id="surface1">
<path style=" stroke:none;fill-rule:nonzero;fill:rgb(30.196078%,30.196078%,30.196078%);fill-opacity:1;" d="M 0 0 L 0 19 L 14 19 L 14 0 Z M 1 1 L 13 1 L 13 18 L 1 18 Z M 1 1 "/>
<path style=" stroke:none;fill-rule:nonzero;fill:rgb(11.372549%,60%,95.294118%);fill-opacity:1;" d="M 2 1 L 2 2 L 1 2 L 1 3 L 2 3 L 2 16 L 1 16 L 1 17 L 2 17 L 2 18 L 3 18 L 3 17 L 11 17 L 11 18 L 12 18 L 12 17 L 13 17 L 13 16 L 12 16 L 12 3 L 13 3 L 13 2 L 12 2 L 12 1 L 11 1 L 11 2 L 3 2 L 3 1 Z M 3 3 L 11 3 L 11 16 L 3 16 Z M 3 3 "/>
</g>
</svg>
