<?xml version="1.0" encoding="UTF-8"?>
<svg xmlns="http://www.w3.org/2000/svg" xmlns:xlink="http://www.w3.org/1999/xlink" width="14pt" height="19pt" viewBox="0 0 14 19" version="1.1">
<g id="surface1">
<path style=" stroke:none;fill-rule:nonzero;fill:rgb(30.196078%,30.196078%,30.196078%);fill-opacity:1;" d="M 0 0 L 0 19 L 14 19 L 14 0 Z M 1 1 L 13 1 L 13 18 L 1 18 Z M 1 1 "/>
<path style=" stroke:none;fill-rule:nonzero;fill:rgb(11.372549%,60%,95.294118%);fill-opacity:1;" d="M 4 1 L 4 4 L 1 4 L 1 5 L 4 5 L 4 14 L 1 14 L 1 15 L 4 15 L 4 18 L 5 18 L 5 15 L 9 15 L 9 18 L 10 18 L 10 15 L 13 15 L 13 14 L 10 14 L 10 5 L 13 5 L 13 4 L 10 4 L 10 1 L 9 1 L 9 4 L 5 4 L 5 1 Z M 5 5 L 9 5 L 9 14 L 5 14 Z M 5 5 "/>
</g>
</svg>
