<?xml version="1.0" encoding="UTF-8"?>
<svg xmlns="http://www.w3.org/2000/svg" xmlns:xlink="http://www.w3.org/1999/xlink" width="14pt" height="19pt" viewBox="0 0 14 19" version="1.1">
<g id="surface1">
<path style=" stroke:none;fill-rule:nonzero;fill:rgb(30.196078%,30.196078%,30.196078%);fill-opacity:1;" d="M 0 0 L 0 19 L 14 19 L 14 0 Z M 1 1 L 13 1 L 13 18 L 1 18 Z M 1 1 "/>
<path style=" stroke:none;fill-rule:nonzero;fill:rgb(11.372549%,60%,95.294118%);fill-opacity:1;" d="M 3 1 L 3 3 L 1 3 L 1 4 L 3 4 L 3 15 L 1 15 L 1 16 L 3 16 L 3 18 L 4 18 L 4 16 L 10 16 L 10 18 L 11 18 L 11 16 L 13 16 L 13 15 L 11 15 L 11 4 L 13 4 L 13 3 L 11 3 L 11 1 L 10 1 L 10 3 L 4 3 L 4 1 Z M 4 4 L 10 4 L 10 15 L 4 15 Z M 4 4 "/>
</g>
</svg>
