<?xml version="1.0" encoding="UTF-8"?>
<svg xmlns="http://www.w3.org/2000/svg" xmlns:xlink="http://www.w3.org/1999/xlink" width="19pt" height="14pt" viewBox="0 0 19 14" version="1.1">
<g id="surface1">
<path style=" stroke:none;fill-rule:nonzero;fill:rgb(30.196078%,30.196078%,30.196078%);fill-opacity:1;" d="M 0 0 L 0 14 L 19 14 L 19 0 Z M 1 1 L 18 1 L 18 13 L 1 13 Z M 1 1 "/>
<path style=" stroke:none;fill-rule:nonzero;fill:rgb(11.372549%,60%,95.294118%);fill-opacity:1;" d="M 3 1 L 3 3 L 1 3 L 1 4 L 3 4 L 3 10 L 1 10 L 1 11 L 3 11 L 3 13 L 4 13 L 4 11 L 15 11 L 15 13 L 16 13 L 16 11 L 18 11 L 18 10 L 16 10 L 16 4 L 18 4 L 18 3 L 16 3 L 16 1 L 15 1 L 15 3 L 4 3 L 4 1 Z M 4 4 L 15 4 L 15 10 L 4 10 Z M 4 4 "/>
</g>
</svg>
