<?xml version="1.0" encoding="UTF-8"?>
<svg xmlns="http://www.w3.org/2000/svg" xmlns:xlink="http://www.w3.org/1999/xlink" width="16pt" height="16pt" viewBox="0 0 16 16" version="1.1">
<g id="surface1">
<path style=" stroke:none;fill-rule:nonzero;fill:rgb(30.196078%,30.196078%,30.196078%);fill-opacity:1;" d="M 0 0 L 0 4 L 16 4 L 16 0 Z M 1 1 L 5 1 L 5 3 L 1 3 Z M 6 1 L 10 1 L 10 3 L 6 3 Z M 11 1 L 15 1 L 15 3 L 11 3 Z M 0 6 L 0 16 L 6 16 L 6 6 Z M 13 6 L 13 10.5 C 13 11.886719 11.886719 13 10.5 13 C 9.679688 13 8.957031 12.605469 8.5 12 L 10 12 L 10 11 L 7 11 L 7 14 L 8 14 L 8 12.9375 C 8.632812 13.59375 9.507812 14 10.5 14 C 12.4375 14 14 12.4375 14 10.5 L 14 6 Z M 1 7 L 5 7 L 5 9 L 1 9 Z M 1 10 L 5 10 L 5 12 L 1 12 Z M 1 13 L 5 13 L 5 15 L 1 15 Z M 1 13 "/>
</g>
</svg>
